{"header":{"PPQ":192,"timeSignature":[2,2],"bpm":170.0000850000425,"name":"--------"},"startTime":0,"duration":152.38227675000144,"tracks":[{"startTime":0,"duration":0,"length":0,"notes":[],"controlChanges":{},"id":0,"name":"--------"},{"startTime":11.999994000000001,"duration":152.38227675000144,"length":584,"notes":[{"name":"E5","midi":76,"time":11.999994000000001,"velocity":0.7480314960629921,"duration":0.6176467500000005},{"name":"F5","midi":77,"time":12.705876000000002,"velocity":0.7480314960629921,"duration":0.6176467500000005},{"name":"A4","midi":69,"time":13.411758000000003,"velocity":0.7480314960629921,"duration":0.6176467500000005},{"name":"C5","midi":72,"time":14.117640000000003,"velocity":0.7480314960629921,"duration":0.1727940312499996},{"name":"B4","midi":71,"time":14.294110500000002,"velocity":0.7480314960629921,"duration":0.1727940312499996},{"name":"A4","midi":69,"time":14.470581000000001,"velocity":0.7480314960629921,"duration":0.6176467500000005},{"name":"B4","midi":71,"time":15.176463000000002,"velocity":0.7480314960629921,"duration":0.1727940312499996},{"name":"C#5","midi":73,"time":15.3529335,"velocity":0.7480314960629921,"duration":0.1727940312499996},{"name":"D5","midi":74,"time":15.529404,"velocity":0.7480314960629921,"duration":0.1727940312499996},{"name":"E5","midi":76,"time":15.705874499999998,"velocity":0.7480314960629921,"duration":0.1727940312499996},{"name":"F5","midi":77,"time":15.882344999999997,"velocity":0.7480314960629921,"duration":0.6176467499999987},{"name":"E5","midi":76,"time":16.588226999999996,"velocity":0.7480314960629921,"duration":0.1727940312499996},{"name":"D#5","midi":75,"time":16.764697499999997,"velocity":0.7480314960629921,"duration":0.1727940312499996},{"name":"E5","midi":76,"time":16.941167999999998,"velocity":0.7480314960629921,"duration":0.1727940312499996},{"name":"B4","midi":71,"time":17.117638499999998,"velocity":0.7480314960629921,"duration":0.1727940312499996},{"name":"E5","midi":76,"time":17.294109,"velocity":0.7480314960629921,"duration":0.1727940312499996},{"name":"F#5","midi":78,"time":17.4705795,"velocity":0.7480314960629921,"duration":0.1727940312499996},{"name":"E5","midi":76,"time":17.64705,"velocity":0.7480314960629921,"duration":0.1727940312499996},{"name":"B4","midi":71,"time":17.8235205,"velocity":0.7480314960629921,"duration":0.1727940312499996},{"name":"E5","midi":76,"time":17.999991,"velocity":0.7480314960629921,"duration":0.1727940312499996},{"name":"G5","midi":79,"time":18.176461500000002,"velocity":0.7480314960629921,"duration":0.1727940312499996},{"name":"F#5","midi":78,"time":18.352932000000003,"velocity":0.7480314960629921,"duration":0.1727940312499996},{"name":"B4","midi":71,"time":18.529402500000003,"velocity":0.7480314960629921,"duration":0.1727940312499996},{"name":"F#5","midi":78,"time":18.705873000000004,"velocity":0.7480314960629921,"duration":0.1727940312499996},{"name":"G5","midi":79,"time":18.882343500000005,"velocity":0.7480314960629921,"duration":0.1727940312499996},{"name":"F#5","midi":78,"time":19.058814000000005,"velocity":0.7480314960629921,"duration":0.1727940312499996},{"name":"B4","midi":71,"time":19.235284500000006,"velocity":0.7480314960629921,"duration":0.1727940312499996},{"name":"F#5","midi":78,"time":19.411755000000007,"velocity":0.7480314960629921,"duration":0.1727940312499996},{"name":"A5","midi":81,"time":19.588225500000007,"velocity":0.7480314960629921,"duration":0.1727940312499996},{"name":"G5","midi":79,"time":19.764696000000008,"velocity":0.7480314960629921,"duration":0.1727940312499996},{"name":"B4","midi":71,"time":19.94116650000001,"velocity":0.7480314960629921,"duration":0.1727940312499996},{"name":"G5","midi":79,"time":20.11763700000001,"velocity":0.7480314960629921,"duration":0.1727940312499996},{"name":"A5","midi":81,"time":20.29410750000001,"velocity":0.7480314960629921,"duration":0.1727940312499996},{"name":"G5","midi":79,"time":20.47057800000001,"velocity":0.7480314960629921,"duration":0.1727940312499996},{"name":"B4","midi":71,"time":20.64704850000001,"velocity":0.7480314960629921,"duration":0.1727940312499996},{"name":"G5","midi":79,"time":20.82351900000001,"velocity":0.7480314960629921,"duration":0.1727940312499996},{"name":"B5","midi":83,"time":20.999989500000012,"velocity":0.7480314960629921,"duration":0.1727940312499996},{"name":"F#5","midi":78,"time":21.176460000000013,"velocity":0.7480314960629921,"duration":0.1727940312499996},{"name":"B4","midi":71,"time":21.352930500000014,"velocity":0.7480314960629921,"duration":0.1727940312499996},{"name":"F#5","midi":78,"time":21.529401000000014,"velocity":0.7480314960629921,"duration":0.1727940312499996},{"name":"G5","midi":79,"time":21.705871500000015,"velocity":0.7480314960629921,"duration":0.1727940312499996},{"name":"F#5","midi":78,"time":21.882342000000016,"velocity":0.7480314960629921,"duration":0.1727940312499996},{"name":"B4","midi":71,"time":22.058812500000016,"velocity":0.7480314960629921,"duration":0.1727940312499996},{"name":"F#5","midi":78,"time":22.235283000000017,"velocity":0.7480314960629921,"duration":0.1727940312499996},{"name":"A5","midi":81,"time":22.411753500000017,"velocity":0.7480314960629921,"duration":0.1727940312499996},{"name":"G5","midi":79,"time":22.588224000000018,"velocity":0.7480314960629921,"duration":0.1727940312499996},{"name":"F#5","midi":78,"time":22.76469450000002,"velocity":0.7480314960629921,"duration":0.1727940312499996},{"name":"E5","midi":76,"time":22.94116500000002,"velocity":0.7480314960629921,"duration":0.6176467499999987},{"name":"D5","midi":74,"time":23.64704700000002,"velocity":0.7480314960629921,"duration":0.2941174999999987},{"name":"C#5","midi":73,"time":23.999988000000016,"velocity":0.7480314960629921,"duration":0.08823525000000032},{"name":"A#5","midi":82,"time":24.352929000000017,"velocity":0.7480314960629921,"duration":0.2941174999999987},{"name":"A#5","midi":82,"time":24.705870000000015,"velocity":0.7480314960629921,"duration":0.04044115625000089},{"name":"A5","midi":81,"time":24.749987625000017,"velocity":0.7480314960629921,"duration":0.04044115625000089},{"name":"A#5","midi":82,"time":24.79410525000002,"velocity":0.7480314960629921,"duration":0.04044115625000089},{"name":"A5","midi":81,"time":24.83822287500002,"velocity":0.7480314960629921,"duration":0.21691165625000153},{"name":"G5","midi":79,"time":25.058811000000023,"velocity":0.7480314960629921,"duration":0.2941174999999987},{"name":"A#4","midi":70,"time":25.41175200000002,"velocity":0.7480314960629921,"duration":0.08823525000000032},{"name":"G5","midi":79,"time":25.764693000000022,"velocity":0.7480314960629921,"duration":0.2941174999999987},{"name":"G5","midi":79,"time":26.11763400000002,"velocity":0.7480314960629921,"duration":0.04044115625000089},{"name":"F5","midi":77,"time":26.161751625000022,"velocity":0.7480314960629921,"duration":0.04044115625000089},{"name":"G5","midi":79,"time":26.205869250000024,"velocity":0.7480314960629921,"duration":0.04044115625000089},{"name":"F5","midi":77,"time":26.249986875000026,"velocity":0.7480314960629921,"duration":0.21691165625000153},{"name":"E5","midi":76,"time":26.47057500000003,"velocity":0.7480314960629921,"duration":0.2941174999999987},{"name":"G4","midi":67,"time":26.823516000000026,"velocity":0.7480314960629921,"duration":0.08823525000000032},{"name":"E5","midi":76,"time":27.176457000000028,"velocity":0.7480314960629921,"duration":0.2941174999999987},{"name":"E5","midi":76,"time":27.529398000000025,"velocity":0.7480314960629921,"duration":0.04044115625000089},{"name":"D5","midi":74,"time":27.573515625000027,"velocity":0.7480314960629921,"duration":0.04044115625000089},{"name":"E5","midi":76,"time":27.61763325000003,"velocity":0.7480314960629921,"duration":0.04044115625000089},{"name":"D5","midi":74,"time":27.66175087500003,"velocity":0.7480314960629921,"duration":0.21691165625000153},{"name":"C#5","midi":73,"time":27.882339000000034,"velocity":0.7480314960629921,"duration":0.2941174999999987},{"name":"D5","midi":74,"time":28.23528000000003,"velocity":0.7480314960629921,"duration":0.1727940312499996},{"name":"G4","midi":67,"time":28.411750500000032,"velocity":0.7480314960629921,"duration":0.1727940312499996},{"name":"F4","midi":65,"time":28.588221000000033,"velocity":0.7480314960629921,"duration":0.1727940312499996},{"name":"E4","midi":64,"time":28.764691500000033,"velocity":0.7480314960629921,"duration":0.1727940312499996},{"name":"D4","midi":62,"time":28.941162000000034,"velocity":0.7480314960629921,"duration":0.08823525000000032},{"name":"C5","midi":72,"time":29.294103000000035,"velocity":0.7480314960629921,"duration":0.3529410000000013},{"name":"B4","midi":71,"time":29.647044000000037,"velocity":0.7480314960629921,"duration":0.08823525000000032},{"name":"G#5","midi":80,"time":29.999985000000038,"velocity":0.7480314960629921,"duration":0.2941174999999987},{"name":"G#5","midi":80,"time":30.352926000000036,"velocity":0.7480314960629921,"duration":0.04044115625000089},{"name":"G5","midi":79,"time":30.397043625000038,"velocity":0.7480314960629921,"duration":0.04044115625000089},{"name":"G#5","midi":80,"time":30.44116125000004,"velocity":0.7480314960629921,"duration":0.04044115625000089},{"name":"G5","midi":79,"time":30.48527887500004,"velocity":0.7480314960629921,"duration":0.21691165625000153},{"name":"F5","midi":77,"time":30.705867000000044,"velocity":0.7480314960629921,"duration":0.2941174999999987},{"name":"G#4","midi":68,"time":31.05880800000004,"velocity":0.7480314960629921,"duration":0.08823525000000032},{"name":"F5","midi":77,"time":31.411749000000043,"velocity":0.7480314960629921,"duration":0.2941174999999987},{"name":"F5","midi":77,"time":31.76469000000004,"velocity":0.7480314960629921,"duration":0.04044115625000089},{"name":"E5","midi":76,"time":31.808807625000043,"velocity":0.7480314960629921,"duration":0.04044115625000089},{"name":"F5","midi":77,"time":31.852925250000045,"velocity":0.7480314960629921,"duration":0.04044115625000089},{"name":"E5","midi":76,"time":31.897042875000047,"velocity":0.7480314960629921,"duration":0.21691165624999798},{"name":"D5","midi":74,"time":32.117631000000046,"velocity":0.7480314960629921,"duration":0.2941174999999987},{"name":"F4","midi":65,"time":32.47057200000005,"velocity":0.7480314960629921,"duration":0.08823524999999677},{"name":"D5","midi":74,"time":32.82351300000004,"velocity":0.7480314960629921,"duration":0.2941174999999987},{"name":"D5","midi":74,"time":33.17645400000004,"velocity":0.7480314960629921,"duration":0.040441156249997334},{"name":"C5","midi":72,"time":33.22057162500004,"velocity":0.7480314960629921,"duration":0.040441156249997334},{"name":"D5","midi":74,"time":33.26468925000004,"velocity":0.7480314960629921,"duration":0.040441156249997334},{"name":"C5","midi":72,"time":33.30880687500004,"velocity":0.7480314960629921,"duration":0.21691165624999798},{"name":"B4","midi":71,"time":33.52939500000004,"velocity":0.7480314960629921,"duration":0.2941174999999987},{"name":"C5","midi":72,"time":33.88233600000004,"velocity":0.7480314960629921,"duration":0.1727940312499996},{"name":"F4","midi":65,"time":34.05880650000004,"velocity":0.7480314960629921,"duration":0.1727940312499996},{"name":"E4","midi":64,"time":34.23527700000004,"velocity":0.7480314960629921,"duration":0.1727940312499996},{"name":"D4","midi":62,"time":34.41174750000004,"velocity":0.7480314960629921,"duration":0.1727940312499996},{"name":"C4","midi":60,"time":34.58821800000004,"velocity":0.7480314960629921,"duration":0.08823524999999677},{"name":"A#4","midi":70,"time":34.941159000000034,"velocity":0.7480314960629921,"duration":0.2941174999999987},{"name":"A4","midi":69,"time":35.294100000000036,"velocity":0.7480314960629921,"duration":0.1727940312499996},{"name":"G5","midi":79,"time":35.470570500000036,"velocity":0.7480314960629921,"duration":0.1727940312499996},{"name":"F5","midi":77,"time":35.64704100000004,"velocity":0.7480314960629921,"duration":0.1727940312499996},{"name":"E5","midi":76,"time":35.82351150000004,"velocity":0.7480314960629921,"duration":0.1727940312499996},{"name":"F5","midi":77,"time":35.99998200000004,"velocity":0.7480314960629921,"duration":0.1727940312499996},{"name":"D5","midi":74,"time":36.17645250000004,"velocity":0.7480314960629921,"duration":0.1727940312499996},{"name":"A4","midi":69,"time":36.35292300000004,"velocity":0.7480314960629921,"duration":0.5257350312500009},{"name":"G4","midi":67,"time":36.88233450000004,"velocity":0.7480314960629921,"duration":0.1727940312499996},{"name":"A4","midi":69,"time":37.05880500000004,"velocity":0.7480314960629921,"duration":0.1727940312499996},{"name":"B4","midi":71,"time":37.23527550000004,"velocity":0.7480314960629921,"duration":0.1727940312499996},{"name":"G4","midi":67,"time":37.41174600000004,"velocity":0.7480314960629921,"duration":0.1727940312499996},{"name":"C5","midi":72,"time":37.588216500000044,"velocity":0.7480314960629921,"duration":0.1727940312499996},{"name":"E5","midi":76,"time":37.764687000000045,"velocity":0.7480314960629921,"duration":0.2941174999999987},{"name":"F4","midi":65,"time":38.117628000000046,"velocity":0.7480314960629921,"duration":0.1727940312499996},{"name":"E5","midi":76,"time":38.29409850000005,"velocity":0.7480314960629921,"duration":0.1727940312499996},{"name":"D5","midi":74,"time":38.47056900000005,"velocity":0.7480314960629921,"duration":0.1727940312499996},{"name":"C5","midi":72,"time":38.64703950000005,"velocity":0.7480314960629921,"duration":0.1727940312499996},{"name":"D5","midi":74,"time":38.82351000000005,"velocity":0.7480314960629921,"duration":0.1727940312499996},{"name":"B4","midi":71,"time":38.99998050000005,"velocity":0.7480314960629921,"duration":0.1727940312499996},{"name":"F4","midi":65,"time":39.17645100000005,"velocity":0.7480314960629921,"duration":0.5257350312500009},{"name":"E4","midi":64,"time":39.70586250000005,"velocity":0.7480314960629921,"duration":0.1727940312499996},{"name":"F4","midi":65,"time":39.88233300000005,"velocity":0.7480314960629921,"duration":0.1727940312499996},{"name":"G4","midi":67,"time":40.05880350000005,"velocity":0.7480314960629921,"duration":0.1727940312499996},{"name":"E4","midi":64,"time":40.235274000000054,"velocity":0.7480314960629921,"duration":0.1727940312499996},{"name":"G4","midi":67,"time":40.411744500000054,"velocity":0.7480314960629921,"duration":0.1727940312499996},{"name":"C5","midi":72,"time":40.588215000000055,"velocity":0.7480314960629921,"duration":0.2941174999999987},{"name":"D4","midi":62,"time":40.941156000000056,"velocity":0.7480314960629921,"duration":0.1727940312499996},{"name":"C5","midi":72,"time":41.11762650000006,"velocity":0.7480314960629921,"duration":0.1727940312499996},{"name":"B4","midi":71,"time":41.29409700000006,"velocity":0.7480314960629921,"duration":0.1727940312499996},{"name":"A4","midi":69,"time":41.47056750000006,"velocity":0.7480314960629921,"duration":0.1727940312499996},{"name":"B4","midi":71,"time":41.64703800000006,"velocity":0.7480314960629921,"duration":0.1727940312499996},{"name":"G#4","midi":68,"time":41.82350850000006,"velocity":0.7480314960629921,"duration":0.1727940312499996},{"name":"D4","midi":62,"time":41.99997900000006,"velocity":0.7480314960629921,"duration":0.5257350312500009},{"name":"C4","midi":60,"time":42.52939050000006,"velocity":0.7480314960629921,"duration":0.1727940312499996},{"name":"D4","midi":62,"time":42.70586100000006,"velocity":0.7480314960629921,"duration":0.1727940312499996},{"name":"E4","midi":64,"time":42.88233150000006,"velocity":0.7480314960629921,"duration":0.1727940312499996},{"name":"C4","midi":60,"time":43.058802000000064,"velocity":0.7480314960629921,"duration":0.1727940312499996},{"name":"F4","midi":65,"time":43.235272500000065,"velocity":0.7480314960629921,"duration":0.1727940312499996},{"name":"E4","midi":64,"time":43.411743000000065,"velocity":0.7480314960629921,"duration":0.1727940312499996},{"name":"D4","midi":62,"time":43.588213500000066,"velocity":0.7480314960629921,"duration":0.1727940312499996},{"name":"E4","midi":64,"time":43.76468400000007,"velocity":0.7480314960629921,"duration":0.2941174999999987},{"name":"A3","midi":57,"time":44.11762500000007,"velocity":0.7480314960629921,"duration":0.6176467499999987},{"name":"G#3","midi":56,"time":44.82350700000006,"velocity":0.7480314960629921,"duration":0.2941174999999987},{"name":"A3","midi":57,"time":45.176448000000065,"velocity":0.7480314960629921,"duration":0.6176467499999987},{"name":"A4","midi":69,"time":45.88233000000006,"velocity":0.7480314960629921,"duration":0.6176467499999987},{"name":"C5","midi":72,"time":46.588212000000055,"velocity":0.7480314960629921,"duration":0.6176467499999987},{"name":"E4","midi":64,"time":47.29409400000005,"velocity":0.7480314960629921,"duration":0.6176467499999987},{"name":"F4","midi":65,"time":47.999976000000046,"velocity":0.7480314960629921,"duration":0.1727940312499996},{"name":"E4","midi":64,"time":48.17644650000005,"velocity":0.7480314960629921,"duration":0.1727940312499996},{"name":"D4","midi":62,"time":48.35291700000005,"velocity":0.7480314960629921,"duration":0.6176467499999987},{"name":"E4","midi":64,"time":49.05879900000004,"velocity":0.7480314960629921,"duration":0.1727940312499996},{"name":"F#4","midi":66,"time":49.235269500000044,"velocity":0.7480314960629921,"duration":0.1727940312499996},{"name":"G4","midi":67,"time":49.411740000000044,"velocity":0.7480314960629921,"duration":0.1727940312499996},{"name":"A4","midi":69,"time":49.588210500000045,"velocity":0.7480314960629921,"duration":0.1727940312499996},{"name":"A#4","midi":70,"time":49.764681000000046,"velocity":0.7480314960629921,"duration":0.6176467499999987},{"name":"A4","midi":69,"time":50.47056300000004,"velocity":0.7480314960629921,"duration":0.1727940312499996},{"name":"G#4","midi":68,"time":50.64703350000004,"velocity":0.7480314960629921,"duration":0.1727940312499996},{"name":"A4","midi":69,"time":50.82350400000004,"velocity":0.7480314960629921,"duration":0.1727940312499996},{"name":"E4","midi":64,"time":50.99997450000004,"velocity":0.7480314960629921,"duration":0.1727940312499996},{"name":"A4","midi":69,"time":51.176445000000044,"velocity":0.7480314960629921,"duration":0.1727940312499996},{"name":"B4","midi":71,"time":51.352915500000044,"velocity":0.7480314960629921,"duration":0.1727940312499996},{"name":"A4","midi":69,"time":51.529386000000045,"velocity":0.7480314960629921,"duration":0.1727940312499996},{"name":"E4","midi":64,"time":51.705856500000046,"velocity":0.7480314960629921,"duration":0.1727940312499996},{"name":"A4","midi":69,"time":51.882327000000046,"velocity":0.7480314960629921,"duration":0.1727940312499996},{"name":"C5","midi":72,"time":52.05879750000005,"velocity":0.7480314960629921,"duration":0.1727940312499996},{"name":"B4","midi":71,"time":52.23526800000005,"velocity":0.7480314960629921,"duration":0.1727940312499996},{"name":"E4","midi":64,"time":52.41173850000005,"velocity":0.7480314960629921,"duration":0.1727940312499996},{"name":"B4","midi":71,"time":52.58820900000005,"velocity":0.7480314960629921,"duration":0.1727940312499996},{"name":"C5","midi":72,"time":52.76467950000005,"velocity":0.7480314960629921,"duration":0.1727940312499996},{"name":"B4","midi":71,"time":52.94115000000005,"velocity":0.7480314960629921,"duration":0.1727940312499996},{"name":"E4","midi":64,"time":53.11762050000005,"velocity":0.7480314960629921,"duration":0.1727940312499996},{"name":"B4","midi":71,"time":53.29409100000005,"velocity":0.7480314960629921,"duration":0.1727940312499996},{"name":"D5","midi":74,"time":53.47056150000005,"velocity":0.7480314960629921,"duration":0.1727940312499996},{"name":"C5","midi":72,"time":53.64703200000005,"velocity":0.7480314960629921,"duration":0.1727940312499996},{"name":"E4","midi":64,"time":53.82350250000005,"velocity":0.7480314960629921,"duration":0.1727940312499996},{"name":"C5","midi":72,"time":53.999973000000054,"velocity":0.7480314960629921,"duration":0.1727940312499996},{"name":"D5","midi":74,"time":54.176443500000055,"velocity":0.7480314960629921,"duration":0.1727940312499996},{"name":"C5","midi":72,"time":54.352914000000055,"velocity":0.7480314960629921,"duration":0.1727940312499996},{"name":"E4","midi":64,"time":54.529384500000056,"velocity":0.7480314960629921,"duration":0.1727940312499996},{"name":"C5","midi":72,"time":54.70585500000006,"velocity":0.7480314960629921,"duration":0.1727940312499996},{"name":"E5","midi":76,"time":54.88232550000006,"velocity":0.7480314960629921,"duration":0.1727940312499996},{"name":"B4","midi":71,"time":55.05879600000006,"velocity":0.7480314960629921,"duration":0.1727940312499996},{"name":"E4","midi":64,"time":55.23526650000006,"velocity":0.7480314960629921,"duration":0.1727940312499996},{"name":"B4","midi":71,"time":55.41173700000006,"velocity":0.7480314960629921,"duration":0.1727940312499996},{"name":"C5","midi":72,"time":55.58820750000006,"velocity":0.7480314960629921,"duration":0.1727940312499996},{"name":"B4","midi":71,"time":55.76467800000006,"velocity":0.7480314960629921,"duration":0.1727940312499996},{"name":"E4","midi":64,"time":55.94114850000006,"velocity":0.7480314960629921,"duration":0.1727940312499996},{"name":"B4","midi":71,"time":56.11761900000006,"velocity":0.7480314960629921,"duration":0.1727940312499996},{"name":"D5","midi":74,"time":56.29408950000006,"velocity":0.7480314960629921,"duration":0.1727940312499996},{"name":"C5","midi":72,"time":56.47056000000006,"velocity":0.7480314960629921,"duration":0.1727940312499996},{"name":"B4","midi":71,"time":56.647030500000064,"velocity":0.7480314960629921,"duration":0.1727940312499996},{"name":"A4","midi":69,"time":56.823501000000064,"velocity":0.7480314960629921,"duration":0.6176467499999987},{"name":"G#4","midi":68,"time":57.52938300000006,"velocity":0.7480314960629921,"duration":0.2941174999999987},{"name":"A4","midi":69,"time":57.88232400000006,"velocity":0.7480314960629921,"duration":0.1727940312499996},{"name":"C5","midi":72,"time":58.05879450000006,"velocity":0.7480314960629921,"duration":0.1727940312499996},{"name":"B4","midi":71,"time":58.23526500000006,"velocity":0.7480314960629921,"duration":0.1727940312499996},{"name":"D5","midi":74,"time":58.41173550000006,"velocity":0.7480314960629921,"duration":0.1727940312499996},{"name":"C5","midi":72,"time":58.58820600000006,"velocity":0.7480314960629921,"duration":0.1727940312499996},{"name":"B4","midi":71,"time":58.764676500000064,"velocity":0.7480314960629921,"duration":0.1727940312499996},{"name":"C5","midi":72,"time":58.941147000000065,"velocity":0.7480314960629921,"duration":0.1727940312499996},{"name":"A4","midi":69,"time":59.117617500000065,"velocity":0.7480314960629921,"duration":0.1727940312499996},{"name":"E4","midi":64,"time":59.294088000000066,"velocity":0.7480314960629921,"duration":0.2941174999999987},{"name":"F#4","midi":66,"time":59.64702900000007,"velocity":0.7480314960629921,"duration":0.2941174999999987},{"name":"G4","midi":67,"time":59.99997000000007,"velocity":0.7480314960629921,"duration":0.2941174999999987},{"name":"F#4","midi":66,"time":60.35291100000007,"velocity":0.7480314960629921,"duration":0.1727940312499996},{"name":"E4","midi":64,"time":60.52938150000007,"velocity":0.7480314960629921,"duration":0.1727940312499996},{"name":"F#4","midi":66,"time":60.70585200000007,"velocity":0.7480314960629921,"duration":0.2941174999999987},{"name":"G#4","midi":68,"time":61.05879300000007,"velocity":0.7480314960629921,"duration":0.2941174999999987},{"name":"A4","midi":69,"time":61.411734000000074,"velocity":0.7480314960629921,"duration":0.9999995000000013},{"name":"G4","midi":67,"time":62.47055700000008,"velocity":0.7480314960629921,"duration":0.1727940312499996},{"name":"F#4","midi":66,"time":62.64702750000008,"velocity":0.7480314960629921,"duration":0.1727940312499996},{"name":"G4","midi":67,"time":62.82349800000008,"velocity":0.7480314960629921,"duration":0.08823524999999677},{"name":"E4","midi":64,"time":63.17643900000007,"velocity":0.7480314960629921,"duration":0.6470585},{"name":"D#4","midi":63,"time":63.882321000000076,"velocity":0.7480314960629921,"duration":0.1727940312500067},{"name":"C#4","midi":61,"time":64.05879150000008,"velocity":0.7480314960629921,"duration":0.1727940312500067},{"name":"E4","midi":64,"time":64.23526200000009,"velocity":0.7480314960629921,"duration":0.040441156249997334},{"name":"D#4","midi":63,"time":64.27937962500009,"velocity":0.7480314960629921,"duration":0.040441156249997334},{"name":"E4","midi":64,"time":64.32349725000009,"velocity":0.7480314960629921,"duration":0.040441156249997334},{"name":"D#4","midi":63,"time":64.36761487500009,"velocity":0.7480314960629921,"duration":0.5147056250000048},{"name":"E4","midi":64,"time":64.9411440000001,"velocity":0.7480314960629921,"duration":0.08823524999999677},{"name":"B4","midi":71,"time":65.2940850000001,"velocity":0.7480314960629921,"duration":0.08823524999999677},{"name":"E5","midi":76,"time":65.6470260000001,"velocity":0.7480314960629921,"duration":1.3235287499999941},{"name":"E5","midi":76,"time":67.05879000000009,"velocity":0.7480314960629921,"duration":0.040441156249997334},{"name":"D#5","midi":75,"time":67.10290762500009,"velocity":0.7480314960629921,"duration":0.040441156249997334},{"name":"E5","midi":76,"time":67.14702525000008,"velocity":0.7480314960629921,"duration":0.040441156249997334},{"name":"D#5","midi":75,"time":67.19114287500008,"velocity":0.7480314960629921,"duration":0.5147056250000048},{"name":"E5","midi":76,"time":67.76467200000009,"velocity":0.7480314960629921,"duration":0.47058800000000645},{"name":"D5","midi":74,"time":68.2940835000001,"velocity":0.7480314960629921,"duration":0.08455878124999572},{"name":"E5","midi":76,"time":68.3823187500001,"velocity":0.7480314960629921,"duration":0.08455878124999572},{"name":"F5","midi":77,"time":68.47055400000009,"velocity":0.7480314960629921,"duration":0.1727940312500067},{"name":"E5","midi":76,"time":68.6470245000001,"velocity":0.7480314960629921,"duration":0.1727940312500067},{"name":"D5","midi":74,"time":68.82349500000011,"velocity":0.7480314960629921,"duration":0.1727940312500067},{"name":"C5","midi":72,"time":68.99996550000012,"velocity":0.7480314960629921,"duration":0.1727940312500067},{"name":"B4","midi":71,"time":69.17643600000012,"velocity":0.7480314960629921,"duration":0.1727940312500067},{"name":"C5","midi":72,"time":69.35290650000013,"velocity":0.7480314960629921,"duration":0.1727940312500067},{"name":"D5","midi":74,"time":69.52937700000014,"velocity":0.7480314960629921,"duration":0.47058800000000645},{"name":"C5","midi":72,"time":70.05878850000015,"velocity":0.7480314960629921,"duration":0.1727940312500067},{"name":"B4","midi":71,"time":70.23525900000016,"velocity":0.7480314960629921,"duration":0.1727940312500067},{"name":"A4","midi":69,"time":70.41172950000016,"velocity":0.7480314960629921,"duration":0.1727940312500067},{"name":"G#4","midi":68,"time":70.58820000000017,"velocity":0.7480314960629921,"duration":0.1727940312500067},{"name":"A4","midi":69,"time":70.76467050000018,"velocity":0.7480314960629921,"duration":0.1727940312500067},{"name":"B4","midi":71,"time":70.94114100000019,"velocity":0.7480314960629921,"duration":0.47058800000000645},{"name":"A4","midi":69,"time":71.4705525000002,"velocity":0.7480314960629921,"duration":0.1727940312500067},{"name":"G#4","midi":68,"time":71.6470230000002,"velocity":0.7480314960629921,"duration":0.1727940312500067},{"name":"F#4","midi":66,"time":71.82349350000021,"velocity":0.7480314960629921,"duration":0.1727940312500067},{"name":"G#4","midi":68,"time":71.99996400000022,"velocity":0.7480314960629921,"duration":0.1727940312500067},{"name":"E4","midi":64,"time":72.17643450000023,"velocity":0.7480314960629921,"duration":0.1727940312500067},{"name":"G#4","midi":68,"time":72.35290500000023,"velocity":0.7480314960629921,"duration":0.1727940312500067},{"name":"A4","midi":69,"time":72.52937550000024,"velocity":0.7480314960629921,"duration":0.1727940312500067},{"name":"B4","midi":71,"time":72.70584600000025,"velocity":0.7480314960629921,"duration":0.1727940312500067},{"name":"C5","midi":72,"time":72.88231650000026,"velocity":0.7480314960629921,"duration":0.1727940312500067},{"name":"D5","midi":74,"time":73.05878700000027,"velocity":0.7480314960629921,"duration":0.1727940312500067},{"name":"B4","midi":71,"time":73.23525750000027,"velocity":0.7480314960629921,"duration":0.1727940312500067},{"name":"C5","midi":72,"time":73.41172800000028,"velocity":0.7480314960629921,"duration":0.1727940312500067},{"name":"B4","midi":71,"time":73.58819850000029,"velocity":0.7480314960629921,"duration":0.1727940312500067},{"name":"A4","midi":69,"time":73.7646690000003,"velocity":0.7480314960629921,"duration":0.1727940312500067},{"name":"B4","midi":71,"time":73.9411395000003,"velocity":0.7480314960629921,"duration":0.1727940312500067},{"name":"C5","midi":72,"time":74.11761000000031,"velocity":0.7480314960629921,"duration":0.1727940312500067},{"name":"D5","midi":74,"time":74.29408050000032,"velocity":0.7480314960629921,"duration":0.1727940312500067},{"name":"D#5","midi":75,"time":74.47055100000033,"velocity":0.7480314960629921,"duration":0.1727940312500067},{"name":"C5","midi":72,"time":74.64702150000033,"velocity":0.7480314960629921,"duration":0.1727940312500067},{"name":"A4","midi":69,"time":74.82349200000034,"velocity":0.7480314960629921,"duration":0.1727940312500067},{"name":"B4","midi":71,"time":74.99996250000035,"velocity":0.7480314960629921,"duration":0.1727940312500067},{"name":"C5","midi":72,"time":75.17643300000036,"velocity":0.7480314960629921,"duration":0.47058800000000645},{"name":"B4","midi":71,"time":75.70584450000037,"velocity":0.7480314960629921,"duration":0.1727940312500067},{"name":"A4","midi":69,"time":75.88231500000037,"velocity":0.7480314960629921,"duration":0.1727940312500067},{"name":"G4","midi":67,"time":76.05878550000038,"velocity":0.7480314960629921,"duration":0.1727940312500067},{"name":"F#4","midi":66,"time":76.23525600000039,"velocity":0.7480314960629921,"duration":0.1727940312500067},{"name":"G4","midi":67,"time":76.4117265000004,"velocity":0.7480314960629921,"duration":0.1727940312500067},{"name":"A4","midi":69,"time":76.5881970000004,"velocity":0.7480314960629921,"duration":0.47058800000000645},{"name":"G4","midi":67,"time":77.11760850000042,"velocity":0.7480314960629921,"duration":0.1727940312500067},{"name":"F#4","midi":66,"time":77.29407900000042,"velocity":0.7480314960629921,"duration":0.1727940312500067},{"name":"E4","midi":64,"time":77.47054950000043,"velocity":0.7480314960629921,"duration":0.1727940312500067},{"name":"F#4","midi":66,"time":77.64702000000044,"velocity":0.7480314960629921,"duration":0.1727940312500067},{"name":"D4","midi":62,"time":77.82349050000045,"velocity":0.7480314960629921,"duration":0.1727940312500067},{"name":"F#4","midi":66,"time":77.99996100000045,"velocity":0.7480314960629921,"duration":0.1727940312500067},{"name":"G4","midi":67,"time":78.17643150000046,"velocity":0.7480314960629921,"duration":0.1727940312500067},{"name":"A4","midi":69,"time":78.35290200000047,"velocity":0.7480314960629921,"duration":0.1727940312500067},{"name":"B4","midi":71,"time":78.52937250000048,"velocity":0.7480314960629921,"duration":0.1727940312500067},{"name":"C5","midi":72,"time":78.70584300000048,"velocity":0.7480314960629921,"duration":0.1727940312500067},{"name":"A4","midi":69,"time":78.88231350000049,"velocity":0.7480314960629921,"duration":0.1727940312500067},{"name":"B4","midi":71,"time":79.0587840000005,"velocity":0.7480314960629921,"duration":0.1727940312500067},{"name":"A4","midi":69,"time":79.23525450000051,"velocity":0.7480314960629921,"duration":0.1727940312500067},{"name":"G4","midi":67,"time":79.41172500000052,"velocity":0.7480314960629921,"duration":0.1727940312500067},{"name":"A4","midi":69,"time":79.58819550000052,"velocity":0.7480314960629921,"duration":0.1727940312500067},{"name":"B4","midi":71,"time":79.76466600000053,"velocity":0.7480314960629921,"duration":0.1727940312500067},{"name":"C5","midi":72,"time":79.94113650000054,"velocity":0.7480314960629921,"duration":0.1727940312500067},{"name":"D5","midi":74,"time":80.11760700000055,"velocity":0.7480314960629921,"duration":0.1727940312500067},{"name":"B4","midi":71,"time":80.29407750000055,"velocity":0.7480314960629921,"duration":0.1727940312500067},{"name":"C5","midi":72,"time":80.47054800000056,"velocity":0.7480314960629921,"duration":0.08823524999999677},{"name":"E5","midi":76,"time":80.82348900000056,"velocity":0.7480314960629921,"duration":0.08823524999999677},{"name":"A4","midi":69,"time":81.17643000000056,"velocity":0.7480314960629921,"duration":0.08823524999999677},{"name":"C5","midi":72,"time":81.52937100000057,"velocity":0.7480314960629921,"duration":0.2941174999999987},{"name":"F#4","midi":66,"time":81.88231200000057,"velocity":0.7480314960629921,"duration":0.2941174999999987},{"name":"G4","midi":67,"time":82.23525300000057,"velocity":0.7480314960629921,"duration":0.1727940312500067},{"name":"A4","midi":69,"time":82.41172350000058,"velocity":0.7480314960629921,"duration":0.1727940312500067},{"name":"B4","midi":71,"time":82.58819400000058,"velocity":0.7480314960629921,"duration":0.08823524999999677},{"name":"G4","midi":67,"time":82.94113500000059,"velocity":0.7480314960629921,"duration":0.2941174999999987},{"name":"A4","midi":69,"time":83.29407600000059,"velocity":0.7480314960629921,"duration":0.08823524999999677},{"name":"C5","midi":72,"time":83.64701700000059,"velocity":0.7480314960629921,"duration":0.08823524999999677},{"name":"F#4","midi":66,"time":83.99995800000059,"velocity":0.7480314960629921,"duration":0.08823524999999677},{"name":"A4","midi":69,"time":84.35289900000059,"velocity":0.7480314960629921,"duration":0.2941174999999987},{"name":"D4","midi":62,"time":84.70584000000059,"velocity":0.7480314960629921,"duration":0.2941174999999987},{"name":"E4","midi":64,"time":85.0587810000006,"velocity":0.7480314960629921,"duration":0.1727940312500067},{"name":"F#4","midi":66,"time":85.2352515000006,"velocity":0.7480314960629921,"duration":0.1727940312500067},{"name":"G4","midi":67,"time":85.41172200000061,"velocity":0.7480314960629921,"duration":0.08823524999999677},{"name":"E4","midi":64,"time":85.76466300000061,"velocity":0.7480314960629921,"duration":0.2941174999999987},{"name":"F#4","midi":66,"time":86.11760400000061,"velocity":0.7480314960629921,"duration":0.08823524999999677},{"name":"A4","midi":69,"time":86.47054500000061,"velocity":0.7480314960629921,"duration":0.08823524999999677},{"name":"D#4","midi":63,"time":86.82348600000061,"velocity":0.7480314960629921,"duration":0.08823524999999677},{"name":"F#4","midi":66,"time":87.17642700000061,"velocity":0.7480314960629921,"duration":0.2941174999999987},{"name":"B3","midi":59,"time":87.52936800000062,"velocity":0.7480314960629921,"duration":0.2941174999999987},{"name":"C#4","midi":61,"time":87.88230900000062,"velocity":0.7480314960629921,"duration":0.1727940312500067},{"name":"D#4","midi":63,"time":88.05877950000063,"velocity":0.7480314960629921,"duration":0.1727940312500067},{"name":"E4","midi":64,"time":88.23525000000063,"velocity":0.7480314960629921,"duration":0.9999995000000013},{"name":"D4","midi":62,"time":89.29407300000064,"velocity":0.7480314960629921,"duration":0.1727940312500067},{"name":"C#4","midi":61,"time":89.47054350000064,"velocity":0.7480314960629921,"duration":0.1727940312500067},{"name":"D4","midi":62,"time":89.64701400000065,"velocity":0.7480314960629921,"duration":0.9999995000000013},{"name":"E4","midi":64,"time":90.70583700000066,"velocity":0.7480314960629921,"duration":0.1727940312500067},{"name":"F#4","midi":66,"time":90.88230750000066,"velocity":0.7480314960629921,"duration":0.1727940312500067},{"name":"G4","midi":67,"time":91.05877800000067,"velocity":0.7480314960629921,"duration":0.9999995000000013},{"name":"F4","midi":65,"time":92.11760100000068,"velocity":0.7480314960629921,"duration":0.1727940312500067},{"name":"E4","midi":64,"time":92.29407150000068,"velocity":0.7480314960629921,"duration":0.1727940312500067},{"name":"F4","midi":65,"time":92.47054200000069,"velocity":0.7480314960629921,"duration":0.9999995000000013},{"name":"G4","midi":67,"time":93.5293650000007,"velocity":0.7480314960629921,"duration":0.1727940312500067},{"name":"A4","midi":69,"time":93.7058355000007,"velocity":0.7480314960629921,"duration":0.1727940312500067},{"name":"A#4","midi":70,"time":93.88230600000071,"velocity":0.7480314960629921,"duration":0.9999995000000013},{"name":"A4","midi":69,"time":94.94112900000071,"velocity":0.7480314960629921,"duration":0.1727940312500067},{"name":"G#4","midi":68,"time":95.11759950000072,"velocity":0.7480314960629921,"duration":0.1727940312500067},{"name":"A4","midi":69,"time":95.29407000000073,"velocity":0.7480314960629921,"duration":1.3235287499999941},{"name":"A4","midi":69,"time":96.70583400000072,"velocity":0.7480314960629921,"duration":0.040441156249997334},{"name":"G#4","midi":68,"time":96.74995162500072,"velocity":0.7480314960629921,"duration":0.040441156249997334},{"name":"A4","midi":69,"time":96.79406925000072,"velocity":0.7480314960629921,"duration":0.040441156249997334},{"name":"G#4","midi":68,"time":96.83818687500072,"velocity":0.7480314960629921,"duration":0.5147056250000048},{"name":"A4","midi":69,"time":97.41171600000072,"velocity":0.7480314960629921,"duration":0.6176467500000058},{"name":"E5","midi":76,"time":98.11759800000073,"velocity":0.7480314960629921,"duration":0.6176467500000058},{"name":"F5","midi":77,"time":98.82348000000073,"velocity":0.7480314960629921,"duration":0.6176467500000058},{"name":"A4","midi":69,"time":99.52936200000073,"velocity":0.7480314960629921,"duration":0.6176467500000058},{"name":"C5","midi":72,"time":100.23524400000073,"velocity":0.7480314960629921,"duration":0.1727940312500067},{"name":"B4","midi":71,"time":100.41171450000074,"velocity":0.7480314960629921,"duration":0.1727940312500067},{"name":"A4","midi":69,"time":100.58818500000075,"velocity":0.7480314960629921,"duration":0.6176467500000058},{"name":"B4","midi":71,"time":101.29406700000075,"velocity":0.7480314960629921,"duration":0.1727940312500067},{"name":"C#5","midi":73,"time":101.47053750000076,"velocity":0.7480314960629921,"duration":0.1727940312500067},{"name":"D5","midi":74,"time":101.64700800000077,"velocity":0.7480314960629921,"duration":0.1727940312500067},{"name":"E5","midi":76,"time":101.82347850000077,"velocity":0.7480314960629921,"duration":0.1727940312500067},{"name":"F5","midi":77,"time":101.99994900000078,"velocity":0.7480314960629921,"duration":0.6176467500000058},{"name":"E5","midi":76,"time":102.70583100000079,"velocity":0.7480314960629921,"duration":0.1727940312500067},{"name":"D#5","midi":75,"time":102.88230150000079,"velocity":0.7480314960629921,"duration":0.1727940312500067},{"name":"E5","midi":76,"time":103.0587720000008,"velocity":0.7480314960629921,"duration":0.1727940312500067},{"name":"B4","midi":71,"time":103.23524250000081,"velocity":0.7480314960629921,"duration":0.1727940312500067},{"name":"E5","midi":76,"time":103.41171300000082,"velocity":0.7480314960629921,"duration":0.1727940312500067},{"name":"F#5","midi":78,"time":103.58818350000082,"velocity":0.7480314960629921,"duration":0.1727940312500067},{"name":"E5","midi":76,"time":103.76465400000083,"velocity":0.7480314960629921,"duration":0.1727940312500067},{"name":"B4","midi":71,"time":103.94112450000084,"velocity":0.7480314960629921,"duration":0.1727940312500067},{"name":"E5","midi":76,"time":104.11759500000085,"velocity":0.7480314960629921,"duration":0.1727940312500067},{"name":"G5","midi":79,"time":104.29406550000085,"velocity":0.7480314960629921,"duration":0.1727940312500067},{"name":"F#5","midi":78,"time":104.47053600000086,"velocity":0.7480314960629921,"duration":0.1727940312500067},{"name":"B4","midi":71,"time":104.64700650000087,"velocity":0.7480314960629921,"duration":0.1727940312500067},{"name":"F#5","midi":78,"time":104.82347700000088,"velocity":0.7480314960629921,"duration":0.1727940312500067},{"name":"G5","midi":79,"time":104.99994750000089,"velocity":0.7480314960629921,"duration":0.1727940312500067},{"name":"F#5","midi":78,"time":105.1764180000009,"velocity":0.7480314960629921,"duration":0.1727940312500067},{"name":"B4","midi":71,"time":105.3528885000009,"velocity":0.7480314960629921,"duration":0.1727940312500067},{"name":"F#5","midi":78,"time":105.52935900000091,"velocity":0.7480314960629921,"duration":0.1727940312500067},{"name":"A5","midi":81,"time":105.70582950000092,"velocity":0.7480314960629921,"duration":0.1727940312500067},{"name":"G5","midi":79,"time":105.88230000000092,"velocity":0.7480314960629921,"duration":0.1727940312500067},{"name":"B4","midi":71,"time":106.05877050000093,"velocity":0.7480314960629921,"duration":0.1727940312500067},{"name":"G5","midi":79,"time":106.23524100000094,"velocity":0.7480314960629921,"duration":0.1727940312500067},{"name":"A5","midi":81,"time":106.41171150000095,"velocity":0.7480314960629921,"duration":0.1727940312500067},{"name":"G5","midi":79,"time":106.58818200000096,"velocity":0.7480314960629921,"duration":0.1727940312500067},{"name":"B4","midi":71,"time":106.76465250000096,"velocity":0.7480314960629921,"duration":0.1727940312500067},{"name":"G5","midi":79,"time":106.94112300000097,"velocity":0.7480314960629921,"duration":0.1727940312500067},{"name":"B5","midi":83,"time":107.11759350000098,"velocity":0.7480314960629921,"duration":0.1727940312500067},{"name":"F#5","midi":78,"time":107.29406400000099,"velocity":0.7480314960629921,"duration":0.1727940312500067},{"name":"B4","midi":71,"time":107.470534500001,"velocity":0.7480314960629921,"duration":0.1727940312500067},{"name":"F#5","midi":78,"time":107.647005000001,"velocity":0.7480314960629921,"duration":0.1727940312500067},{"name":"G5","midi":79,"time":107.82347550000101,"velocity":0.7480314960629921,"duration":0.1727940312500067},{"name":"F#5","midi":78,"time":107.99994600000102,"velocity":0.7480314960629921,"duration":0.1727940312500067},{"name":"B4","midi":71,"time":108.17641650000103,"velocity":0.7480314960629921,"duration":0.1727940312500067},{"name":"F#5","midi":78,"time":108.35288700000103,"velocity":0.7480314960629921,"duration":0.1727940312500067},{"name":"A5","midi":81,"time":108.52935750000104,"velocity":0.7480314960629921,"duration":0.1727940312500067},{"name":"G5","midi":79,"time":108.70582800000105,"velocity":0.7480314960629921,"duration":0.1727940312500067},{"name":"B4","midi":71,"time":108.88229850000106,"velocity":0.7480314960629921,"duration":0.1727940312500067},{"name":"E5","midi":76,"time":109.05876900000106,"velocity":0.7480314960629921,"duration":0.1727940312500067},{"name":"F#5","midi":78,"time":109.23523950000107,"velocity":0.7480314960629921,"duration":0.1727940312500067},{"name":"G5","midi":79,"time":109.41171000000108,"velocity":0.7480314960629921,"duration":0.1727940312500067},{"name":"A5","midi":81,"time":109.58818050000109,"velocity":0.7480314960629921,"duration":0.1727940312500067},{"name":"A#5","midi":82,"time":109.7646510000011,"velocity":0.7480314960629921,"duration":0.1727940312500067},{"name":"G5","midi":79,"time":109.9411215000011,"velocity":0.7480314960629921,"duration":0.1727940312500067},{"name":"E5","midi":76,"time":110.11759200000111,"velocity":0.7480314960629921,"duration":0.1727940312500067},{"name":"F5","midi":77,"time":110.29406250000112,"velocity":0.7480314960629921,"duration":0.1727940312500067},{"name":"G5","midi":79,"time":110.47053300000113,"velocity":0.7480314960629921,"duration":0.47058800000000645},{"name":"F5","midi":77,"time":110.99994450000113,"velocity":0.7480314960629921,"duration":0.1727940312500067},{"name":"E5","midi":76,"time":111.17641500000114,"velocity":0.7480314960629921,"duration":0.1727940312500067},{"name":"D5","midi":74,"time":111.35288550000115,"velocity":0.7480314960629921,"duration":0.1727940312500067},{"name":"C#5","midi":73,"time":111.52935600000116,"velocity":0.7480314960629921,"duration":0.1727940312500067},{"name":"D5","midi":74,"time":111.70582650000117,"velocity":0.7480314960629921,"duration":0.1727940312500067},{"name":"E5","midi":76,"time":111.88229700000117,"velocity":0.7480314960629921,"duration":0.47058800000000645},{"name":"D5","midi":74,"time":112.41170850000118,"velocity":0.7480314960629921,"duration":0.1727940312500067},{"name":"C#5","midi":73,"time":112.58817900000119,"velocity":0.7480314960629921,"duration":0.1727940312500067},{"name":"B4","midi":71,"time":112.7646495000012,"velocity":0.7480314960629921,"duration":0.1727940312500067},{"name":"C#5","midi":73,"time":112.9411200000012,"velocity":0.7480314960629921,"duration":0.1727940312500067},{"name":"A4","midi":69,"time":113.11759050000121,"velocity":0.7480314960629921,"duration":0.1727940312500067},{"name":"C#5","midi":73,"time":113.29406100000122,"velocity":0.7480314960629921,"duration":0.1727940312500067},{"name":"D5","midi":74,"time":113.47053150000123,"velocity":0.7480314960629921,"duration":0.1727940312500067},{"name":"E5","midi":76,"time":113.64700200000124,"velocity":0.7480314960629921,"duration":0.1727940312500067},{"name":"F5","midi":77,"time":113.82347250000124,"velocity":0.7480314960629921,"duration":0.1727940312500067},{"name":"G5","midi":79,"time":113.99994300000125,"velocity":0.7480314960629921,"duration":0.1727940312500067},{"name":"E5","midi":76,"time":114.17641350000126,"velocity":0.7480314960629921,"duration":0.1727940312500067},{"name":"F5","midi":77,"time":114.35288400000127,"velocity":0.7480314960629921,"duration":0.1727940312500067},{"name":"E5","midi":76,"time":114.52935450000128,"velocity":0.7480314960629921,"duration":0.1727940312500067},{"name":"D5","midi":74,"time":114.70582500000128,"velocity":0.7480314960629921,"duration":0.1727940312500067},{"name":"C#5","midi":73,"time":114.88229550000129,"velocity":0.7480314960629921,"duration":0.1727940312500067},{"name":"D5","midi":74,"time":115.0587660000013,"velocity":0.7480314960629921,"duration":0.08823524999999677},{"name":"C5","midi":72,"time":115.4117070000013,"velocity":0.7480314960629921,"duration":0.2941174999999987},{"name":"B4","midi":71,"time":115.7646480000013,"velocity":0.7480314960629921,"duration":0.08823524999999677},{"name":"G#5","midi":80,"time":116.1175890000013,"velocity":0.7480314960629921,"duration":0.2941174999999987},{"name":"G#5","midi":80,"time":116.4705300000013,"velocity":0.7480314960629921,"duration":0.040441156249997334},{"name":"G5","midi":79,"time":116.5146476250013,"velocity":0.7480314960629921,"duration":0.040441156249997334},{"name":"G#5","midi":80,"time":116.5587652500013,"velocity":0.7480314960629921,"duration":0.040441156249997334},{"name":"G5","midi":79,"time":116.6028828750013,"velocity":0.7480314960629921,"duration":0.21691165625000508},{"name":"F5","midi":77,"time":116.8234710000013,"velocity":0.7480314960629921,"duration":0.2941174999999987},{"name":"G#4","midi":68,"time":117.1764120000013,"velocity":0.7480314960629921,"duration":0.08823524999999677},{"name":"F5","midi":77,"time":117.52935300000131,"velocity":0.7480314960629921,"duration":0.2941174999999987},{"name":"F5","midi":77,"time":117.88229400000131,"velocity":0.7480314960629921,"duration":0.040441156249997334},{"name":"E5","midi":76,"time":117.92641162500131,"velocity":0.7480314960629921,"duration":0.040441156249997334},{"name":"F5","midi":77,"time":117.9705292500013,"velocity":0.7480314960629921,"duration":0.040441156249997334},{"name":"E5","midi":76,"time":118.0146468750013,"velocity":0.7480314960629921,"duration":0.21691165625000508},{"name":"D5","midi":74,"time":118.23523500000131,"velocity":0.7480314960629921,"duration":0.2941174999999987},{"name":"F4","midi":65,"time":118.58817600000131,"velocity":0.7480314960629921,"duration":0.08823524999999677},{"name":"D5","midi":74,"time":118.94111700000131,"velocity":0.7480314960629921,"duration":0.2941174999999987},{"name":"D5","midi":74,"time":119.29405800000131,"velocity":0.7480314960629921,"duration":0.040441156249997334},{"name":"C5","midi":72,"time":119.33817562500131,"velocity":0.7480314960629921,"duration":0.040441156249997334},{"name":"D5","midi":74,"time":119.38229325000131,"velocity":0.7480314960629921,"duration":0.040441156249997334},{"name":"C5","midi":72,"time":119.42641087500131,"velocity":0.7480314960629921,"duration":0.21691165625000508},{"name":"B4","midi":71,"time":119.64699900000132,"velocity":0.7480314960629921,"duration":0.2941174999999987},{"name":"C5","midi":72,"time":119.99994000000132,"velocity":0.7480314960629921,"duration":0.1727940312500067},{"name":"G4","midi":67,"time":120.17641050000132,"velocity":0.7480314960629921,"duration":0.1727940312500067},{"name":"C5","midi":72,"time":120.35288100000133,"velocity":0.7480314960629921,"duration":0.1727940312500067},{"name":"D5","midi":74,"time":120.52935150000134,"velocity":0.7480314960629921,"duration":0.1727940312500067},{"name":"C5","midi":72,"time":120.70582200000135,"velocity":0.7480314960629921,"duration":0.1727940312500067},{"name":"F#4","midi":66,"time":120.88229250000136,"velocity":0.7480314960629921,"duration":0.1727940312500067},{"name":"A4","midi":69,"time":121.05876300000136,"velocity":0.7480314960629921,"duration":0.1727940312500067},{"name":"C5","midi":72,"time":121.23523350000137,"velocity":0.7480314960629921,"duration":0.1727940312500067},{"name":"B4","midi":71,"time":121.41170400000138,"velocity":0.7480314960629921,"duration":0.1727940312500067},{"name":"D#4","midi":63,"time":121.58817450000139,"velocity":0.7480314960629921,"duration":0.1727940312500067},{"name":"B4","midi":71,"time":121.7646450000014,"velocity":0.7480314960629921,"duration":0.1727940312500067},{"name":"C5","midi":72,"time":121.9411155000014,"velocity":0.7480314960629921,"duration":0.1727940312500067},{"name":"B4","midi":71,"time":122.11758600000141,"velocity":0.7480314960629921,"duration":0.1727940312500067},{"name":"E4","midi":64,"time":122.29405650000142,"velocity":0.7480314960629921,"duration":0.1727940312500067},{"name":"B4","midi":71,"time":122.47052700000143,"velocity":0.7480314960629921,"duration":0.1727940312500067},{"name":"D5","midi":74,"time":122.64699750000143,"velocity":0.7480314960629921,"duration":0.1727940312500067},{"name":"C#5","midi":73,"time":122.82346800000144,"velocity":0.7480314960629921,"duration":0.1727940312500067},{"name":"A4","midi":69,"time":122.99993850000145,"velocity":0.7480314960629921,"duration":0.1727940312500067},{"name":"C#5","midi":73,"time":123.17640900000146,"velocity":0.7480314960629921,"duration":0.1727940312500067},{"name":"D#5","midi":75,"time":123.35287950000146,"velocity":0.7480314960629921,"duration":0.1727940312500067},{"name":"E5","midi":76,"time":123.52935000000147,"velocity":0.7480314960629921,"duration":0.1727940312500067},{"name":"G4","midi":67,"time":123.70582050000148,"velocity":0.7480314960629921,"duration":0.1727940312500067},{"name":"C5","midi":72,"time":123.88229100000149,"velocity":0.7480314960629921,"duration":0.1727940312500067},{"name":"E5","midi":76,"time":124.0587615000015,"velocity":0.7480314960629921,"duration":0.1727940312500067},{"name":"D5","midi":74,"time":124.2352320000015,"velocity":0.7480314960629921,"duration":0.1727940312500067},{"name":"F#4","midi":66,"time":124.41170250000151,"velocity":0.7480314960629921,"duration":0.1727940312500067},{"name":"D5","midi":74,"time":124.58817300000152,"velocity":0.7480314960629921,"duration":0.1727940312500067},{"name":"D#5","midi":75,"time":124.76464350000153,"velocity":0.7480314960629921,"duration":0.1727940312500067},{"name":"D5","midi":74,"time":124.94111400000153,"velocity":0.7480314960629921,"duration":0.1727940312500067},{"name":"G4","midi":67,"time":125.11758450000154,"velocity":0.7480314960629921,"duration":0.1727940312500067},{"name":"D5","midi":74,"time":125.29405500000155,"velocity":0.7480314960629921,"duration":0.1727940312500067},{"name":"F5","midi":77,"time":125.47052550000156,"velocity":0.7480314960629921,"duration":0.1727940312500067},{"name":"E5","midi":76,"time":125.64699600000156,"velocity":0.7480314960629921,"duration":0.1727940312500067},{"name":"C5","midi":72,"time":125.82346650000157,"velocity":0.7480314960629921,"duration":0.1727940312500067},{"name":"E5","midi":76,"time":125.99993700000158,"velocity":0.7480314960629921,"duration":0.1727940312500067},{"name":"F#5","midi":78,"time":126.17640750000159,"velocity":0.7480314960629921,"duration":0.1727940312500067},{"name":"G5","midi":79,"time":126.3528780000016,"velocity":0.7480314960629921,"duration":0.1727940312500067},{"name":"A#4","midi":70,"time":126.5293485000016,"velocity":0.7480314960629921,"duration":0.1727940312500067},{"name":"D#5","midi":75,"time":126.70581900000161,"velocity":0.7480314960629921,"duration":0.1727940312500067},{"name":"G5","midi":79,"time":126.88228950000162,"velocity":0.7480314960629921,"duration":0.1727940312500067},{"name":"F5","midi":77,"time":127.05876000000163,"velocity":0.7480314960629921,"duration":0.1727940312500067},{"name":"A4","midi":69,"time":127.23523050000163,"velocity":0.7480314960629921,"duration":0.1727940312500067},{"name":"F5","midi":77,"time":127.41170100000164,"velocity":0.7480314960629921,"duration":0.1727940312500067},{"name":"G5","midi":79,"time":127.58817150000165,"velocity":0.7480314960629921,"duration":0.1727940312500067},{"name":"F5","midi":77,"time":127.76464200000166,"velocity":0.7480314960629921,"duration":0.1727940312500067},{"name":"A#4","midi":70,"time":127.94111250000167,"velocity":0.7480314960629921,"duration":0.1727940312500067},{"name":"D5","midi":74,"time":128.11758300000167,"velocity":0.7480314960629921,"duration":0.17279403124999249},{"name":"F5","midi":77,"time":128.29405350000167,"velocity":0.7480314960629921,"duration":0.17279403124999249},{"name":"E5","midi":76,"time":128.47052400000166,"velocity":0.7480314960629921,"duration":0.17279403124999249},{"name":"G#4","midi":68,"time":128.64699450000165,"velocity":0.7480314960629921,"duration":0.17279403124999249},{"name":"E5","midi":76,"time":128.82346500000165,"velocity":0.7480314960629921,"duration":0.17279403124999249},{"name":"F5","midi":77,"time":128.99993550000164,"velocity":0.7480314960629921,"duration":0.17279403124999249},{"name":"E5","midi":76,"time":129.17640600000163,"velocity":0.7480314960629921,"duration":0.17279403124999249},{"name":"A4","midi":69,"time":129.35287650000163,"velocity":0.7480314960629921,"duration":0.17279403124999249},{"name":"E5","midi":76,"time":129.52934700000162,"velocity":0.7480314960629921,"duration":0.17279403124999249},{"name":"G5","midi":79,"time":129.70581750000161,"velocity":0.7480314960629921,"duration":0.17279403124999249},{"name":"F5","midi":77,"time":129.8822880000016,"velocity":0.7480314960629921,"duration":0.17279403124999249},{"name":"G5","midi":79,"time":130.0587585000016,"velocity":0.7480314960629921,"duration":0.17279403124999249},{"name":"F5","midi":77,"time":130.2352290000016,"velocity":0.7480314960629921,"duration":0.17279403124999249},{"name":"E5","midi":76,"time":130.4116995000016,"velocity":0.7480314960629921,"duration":0.17279403124999249},{"name":"D5","midi":74,"time":130.58817000000158,"velocity":0.7480314960629921,"duration":0.17279403124999249},{"name":"C5","midi":72,"time":130.76464050000158,"velocity":0.7480314960629921,"duration":0.17279403124999249},{"name":"B4","midi":71,"time":130.94111100000157,"velocity":0.7480314960629921,"duration":0.17279403124999249},{"name":"A4","midi":69,"time":131.11758150000156,"velocity":0.7480314960629921,"duration":0.17279403124999249},{"name":"G#4","midi":68,"time":131.29405200000156,"velocity":0.7480314960629921,"duration":0.17279403124999249},{"name":"E4","midi":64,"time":131.47052250000155,"velocity":0.7480314960629921,"duration":0.17279403124999249},{"name":"F#4","midi":66,"time":131.64699300000154,"velocity":0.7480314960629921,"duration":0.17279403124999249},{"name":"G#4","midi":68,"time":131.82346350000154,"velocity":0.7480314960629921,"duration":0.17279403124999249},{"name":"A4","midi":69,"time":131.99993400000153,"velocity":0.7480314960629921,"duration":0.17279403124999249},{"name":"G#4","midi":68,"time":132.17640450000152,"velocity":0.7480314960629921,"duration":0.17279403124999249},{"name":"A4","midi":69,"time":132.35287500000152,"velocity":0.7480314960629921,"duration":0.17279403124999249},{"name":"B4","midi":71,"time":132.5293455000015,"velocity":0.7480314960629921,"duration":0.17279403124999249},{"name":"C5","midi":72,"time":132.7058160000015,"velocity":0.7480314960629921,"duration":0.6176467500000058},{"name":"E4","midi":64,"time":133.4116980000015,"velocity":0.7480314960629921,"duration":0.6176467500000058},{"name":"F4","midi":65,"time":134.1175800000015,"velocity":0.7480314960629921,"duration":0.17279403124999249},{"name":"E4","midi":64,"time":134.2940505000015,"velocity":0.7480314960629921,"duration":0.17279403124999249},{"name":"D4","midi":62,"time":134.4705210000015,"velocity":0.7480314960629921,"duration":0.17279403124999249},{"name":"C#4","midi":61,"time":134.6469915000015,"velocity":0.7480314960629921,"duration":0.17279403124999249},{"name":"D4","midi":62,"time":134.82346200000148,"velocity":0.7480314960629921,"duration":0.17279403124999249},{"name":"E4","midi":64,"time":134.99993250000148,"velocity":0.7480314960629921,"duration":0.17279403124999249},{"name":"F#4","midi":66,"time":135.17640300000147,"velocity":0.7480314960629921,"duration":0.17279403124999249},{"name":"G#4","midi":68,"time":135.35287350000146,"velocity":0.7480314960629921,"duration":0.17279403124999249},{"name":"A4","midi":69,"time":135.52934400000146,"velocity":0.7480314960629921,"duration":0.17279403124999249},{"name":"E4","midi":64,"time":135.70581450000145,"velocity":0.7480314960629921,"duration":0.17279403124999249},{"name":"A4","midi":69,"time":135.88228500000145,"velocity":0.7480314960629921,"duration":0.6176467500000058},{"name":"G#4","midi":68,"time":136.58816700000145,"velocity":0.7480314960629921,"duration":0.2941174999999987},{"name":"A4","midi":69,"time":136.94110800000144,"velocity":0.7480314960629921,"duration":0.2941174999999987},{"name":"B4","midi":71,"time":137.29404900000142,"velocity":0.7480314960629921,"duration":0.2941174999999987},{"name":"C5","midi":72,"time":137.6469900000014,"velocity":0.7480314960629921,"duration":0.2941174999999987},{"name":"B4","midi":71,"time":137.9999310000014,"velocity":0.7480314960629921,"duration":0.17279403124999249},{"name":"A4","midi":69,"time":138.1764015000014,"velocity":0.7480314960629921,"duration":0.17279403124999249},{"name":"B4","midi":71,"time":138.35287200000138,"velocity":0.7480314960629921,"duration":0.2941174999999987},{"name":"C#5","midi":73,"time":138.70581300000137,"velocity":0.7480314960629921,"duration":0.2941174999999987},{"name":"D5","midi":74,"time":139.05875400000136,"velocity":0.7480314960629921,"duration":0.9999995000000013},{"name":"C5","midi":72,"time":140.11757700000135,"velocity":0.7480314960629921,"duration":0.17279403124999249},{"name":"B4","midi":71,"time":140.29404750000134,"velocity":0.7480314960629921,"duration":0.17279403124999249},{"name":"C5","midi":72,"time":140.47051800000133,"velocity":0.7480314960629921,"duration":0.08823524999999677},{"name":"A4","midi":69,"time":140.82345900000132,"velocity":0.7480314960629921,"duration":0.6470585000000142},{"name":"G#4","midi":68,"time":141.52934100000132,"velocity":0.7480314960629921,"duration":0.17279403124999249},{"name":"F#4","midi":66,"time":141.70581150000132,"velocity":0.7480314960629921,"duration":0.17279403124999249},{"name":"A4","midi":69,"time":141.8822820000013,"velocity":0.7480314960629921,"duration":0.040441156250011545},{"name":"G#4","midi":68,"time":141.92639962500132,"velocity":0.7480314960629921,"duration":0.040441156250011545},{"name":"A4","midi":69,"time":141.97051725000134,"velocity":0.7480314960629921,"duration":0.040441156250011545},{"name":"G#4","midi":68,"time":142.01463487500135,"velocity":0.7480314960629921,"duration":0.5147056250000048},{"name":"A4","midi":69,"time":142.58816400000134,"velocity":0.7480314960629921,"duration":0.08823524999999677},{"name":"E5","midi":76,"time":142.94110500000133,"velocity":0.7480314960629921,"duration":0.08823524999999677},{"name":"A5","midi":81,"time":143.29404600000132,"velocity":0.7480314960629921,"duration":1.3235287500000084},{"name":"A5","midi":81,"time":144.70581000000132,"velocity":0.7480314960629921,"duration":0.040441156250011545},{"name":"G#5","midi":80,"time":144.74992762500133,"velocity":0.7480314960629921,"duration":0.040441156250011545},{"name":"A5","midi":81,"time":144.79404525000135,"velocity":0.7480314960629921,"duration":0.040441156250011545},{"name":"G#5","midi":80,"time":144.83816287500136,"velocity":0.7480314960629921,"duration":0.5147056250000048},{"name":"A5","midi":81,"time":145.41169200000135,"velocity":0.7480314960629921,"duration":0.17279403124999249},{"name":"G5","midi":79,"time":145.58816250000135,"velocity":0.7480314960629921,"duration":0.17279403124999249},{"name":"F5","midi":77,"time":145.76463300000134,"velocity":0.7480314960629921,"duration":0.525735031250008},{"name":"E5","midi":76,"time":146.29404450000135,"velocity":0.7480314960629921,"duration":0.17279403124999249},{"name":"D5","midi":74,"time":146.47051500000134,"velocity":0.7480314960629921,"duration":0.17279403124999249},{"name":"C#5","midi":73,"time":146.64698550000134,"velocity":0.7480314960629921,"duration":0.17279403124999249},{"name":"D5","midi":74,"time":146.82345600000133,"velocity":0.7480314960629921,"duration":0.17279403124999249},{"name":"C5","midi":72,"time":146.99992650000132,"velocity":0.7480314960629921,"duration":0.17279403124999249},{"name":"A#4","midi":70,"time":147.17639700000132,"velocity":0.7480314960629921,"duration":0.525735031250008},{"name":"A4","midi":69,"time":147.70580850000133,"velocity":0.7480314960629921,"duration":0.17279403124999249},{"name":"G#4","midi":68,"time":147.88227900000132,"velocity":0.7480314960629921,"duration":0.17279403124999249},{"name":"F#4","midi":66,"time":148.0587495000013,"velocity":0.7480314960629921,"duration":0.17279403124999249},{"name":"G#4","midi":68,"time":148.2352200000013,"velocity":0.7480314960629921,"duration":0.2941174999999987},{"name":"E4","midi":64,"time":148.5881610000013,"velocity":0.7480314960629921,"duration":0.2941174999999987},{"name":"E5","midi":76,"time":148.94110200000128,"velocity":0.7480314960629921,"duration":0.2941174999999987},{"name":"F5","midi":77,"time":149.29404300000127,"velocity":0.7480314960629921,"duration":0.2941174999999987},{"name":"D5","midi":74,"time":149.64698400000125,"velocity":0.7480314960629921,"duration":0.17279403124999249},{"name":"C5","midi":72,"time":149.82345450000125,"velocity":0.7480314960629921,"duration":0.47058799999999223},{"name":"C5","midi":72,"time":150.35286600000123,"velocity":0.7480314960629921,"duration":0.040441156250011545},{"name":"B4","midi":71,"time":150.39698362500124,"velocity":0.7480314960629921,"duration":0.040441156250011545},{"name":"A4","midi":69,"time":150.44110125000125,"velocity":0.7480314960629921,"duration":0.040441156250011545},{"name":"B4","midi":71,"time":150.48521887500127,"velocity":0.7480314960629921,"duration":0.040441156250011545},{"name":"C5","midi":72,"time":150.52933650000128,"velocity":0.7480314960629921,"duration":0.040441156250011545},{"name":"B4","midi":71,"time":150.5734541250013,"velocity":0.7480314960629921,"duration":0.040441156250011545},{"name":"C5","midi":72,"time":150.6175717500013,"velocity":0.7480314960629921,"duration":0.040441156250011545},{"name":"B4","midi":71,"time":150.66168937500132,"velocity":0.7480314960629921,"duration":0.040441156250011545},{"name":"C5","midi":72,"time":150.70580700000133,"velocity":0.7480314960629921,"duration":0.040441156250011545},{"name":"B4","midi":71,"time":150.74992462500134,"velocity":0.7480314960629921,"duration":0.040441156250011545},{"name":"C5","midi":72,"time":150.79404225000135,"velocity":0.7480314960629921,"duration":0.040441156250011545},{"name":"B4","midi":71,"time":150.83815987500137,"velocity":0.7480314960629921,"duration":0.040441156250011545},{"name":"C5","midi":72,"time":150.88227750000138,"velocity":0.7480314960629921,"duration":0.040441156250011545},{"name":"B4","midi":71,"time":150.9263951250014,"velocity":0.7480314960629921,"duration":0.040441156250011545},{"name":"A4","midi":69,"time":150.9705127500014,"velocity":0.7480314960629921,"duration":0.040441156250011545},{"name":"B4","midi":71,"time":151.01463037500142,"velocity":0.7480314960629921,"duration":0.040441156250011545},{"name":"A4","midi":69,"time":151.05874800000143,"velocity":0.7480314960629921,"duration":1.3235287500000084}],"controlChanges":{"7":[{"number":7,"time":0,"value":0.8661417322834646}],"10":[{"number":10,"time":0,"value":0.6299212598425197}]},"id":1,"name":"R.H.","instrumentNumber":6,"instrument":"harpsichord","instrumentFamily":"piano","channelNumber":0,"isPercussion":false},{"startTime":0.705882,"duration":152.38227675000093,"length":603,"notes":[{"name":"A3","midi":57,"time":0.705882,"velocity":0.7480314960629921,"duration":0.6176467499999999},{"name":"C4","midi":60,"time":1.411764,"velocity":0.7480314960629921,"duration":0.6176467500000002},{"name":"E3","midi":52,"time":2.117646,"velocity":0.7480314960629921,"duration":0.61764675},{"name":"F3","midi":53,"time":2.823528,"velocity":0.7480314960629921,"duration":0.17279403125000004},{"name":"E3","midi":52,"time":2.9999985000000002,"velocity":0.7480314960629921,"duration":0.17279403125000004},{"name":"D3","midi":50,"time":3.1764690000000004,"velocity":0.7480314960629921,"duration":0.61764675},{"name":"E3","midi":52,"time":3.8823510000000003,"velocity":0.7480314960629921,"duration":0.17279403125000004},{"name":"F#3","midi":54,"time":4.0588215000000005,"velocity":0.7480314960629921,"duration":0.1727940312499996},{"name":"G3","midi":55,"time":4.235292,"velocity":0.7480314960629921,"duration":0.1727940312499996},{"name":"A3","midi":57,"time":4.4117625,"velocity":0.7480314960629921,"duration":0.1727940312499996},{"name":"A#3","midi":58,"time":4.588233,"velocity":0.7480314960629921,"duration":0.6176467499999996},{"name":"A3","midi":57,"time":5.294115,"velocity":0.7480314960629921,"duration":0.1727940312499996},{"name":"G#3","midi":56,"time":5.470585499999999,"velocity":0.7480314960629921,"duration":0.1727940312499996},{"name":"A3","midi":57,"time":5.647055999999999,"velocity":0.7480314960629921,"duration":0.1727940312499996},{"name":"E3","midi":52,"time":5.823526499999999,"velocity":0.7480314960629921,"duration":0.1727940312499996},{"name":"A3","midi":57,"time":5.999996999999999,"velocity":0.7480314960629921,"duration":0.1727940312499996},{"name":"B3","midi":59,"time":6.1764674999999984,"velocity":0.7480314960629921,"duration":0.1727940312499996},{"name":"A3","midi":57,"time":6.352937999999998,"velocity":0.7480314960629921,"duration":0.1727940312499996},{"name":"E3","midi":52,"time":6.529408499999998,"velocity":0.7480314960629921,"duration":0.1727940312499996},{"name":"A3","midi":57,"time":6.705878999999998,"velocity":0.7480314960629921,"duration":0.1727940312499996},{"name":"C4","midi":60,"time":6.8823494999999975,"velocity":0.7480314960629921,"duration":0.1727940312499996},{"name":"B3","midi":59,"time":7.058819999999997,"velocity":0.7480314960629921,"duration":0.1727940312499996},{"name":"E3","midi":52,"time":7.235290499999997,"velocity":0.7480314960629921,"duration":0.1727940312499996},{"name":"B3","midi":59,"time":7.411760999999997,"velocity":0.7480314960629921,"duration":0.1727940312499996},{"name":"C4","midi":60,"time":7.5882314999999965,"velocity":0.7480314960629921,"duration":0.1727940312499996},{"name":"B3","midi":59,"time":7.764701999999996,"velocity":0.7480314960629921,"duration":0.1727940312499996},{"name":"E3","midi":52,"time":7.941172499999996,"velocity":0.7480314960629921,"duration":0.17279403125000048},{"name":"B3","midi":59,"time":8.117642999999996,"velocity":0.7480314960629921,"duration":0.1727940312499996},{"name":"D4","midi":62,"time":8.294113499999995,"velocity":0.7480314960629921,"duration":0.1727940312499996},{"name":"C4","midi":60,"time":8.470583999999993,"velocity":0.7480314960629921,"duration":0.1727940312499996},{"name":"E3","midi":52,"time":8.647054499999992,"velocity":0.7480314960629921,"duration":0.1727940312499996},{"name":"C4","midi":60,"time":8.823524999999991,"velocity":0.7480314960629921,"duration":0.1727940312499996},{"name":"D4","midi":62,"time":8.99999549999999,"velocity":0.7480314960629921,"duration":0.1727940312499996},{"name":"C4","midi":60,"time":9.176465999999989,"velocity":0.7480314960629921,"duration":0.1727940312499996},{"name":"E3","midi":52,"time":9.352936499999988,"velocity":0.7480314960629921,"duration":0.1727940312499996},{"name":"C4","midi":60,"time":9.529406999999987,"velocity":0.7480314960629921,"duration":0.1727940312499996},{"name":"E4","midi":64,"time":9.705877499999986,"velocity":0.7480314960629921,"duration":0.1727940312499996},{"name":"B3","midi":59,"time":9.882347999999984,"velocity":0.7480314960629921,"duration":0.1727940312499996},{"name":"E3","midi":52,"time":10.058818499999983,"velocity":0.7480314960629921,"duration":0.1727940312499996},{"name":"B3","midi":59,"time":10.235288999999982,"velocity":0.7480314960629921,"duration":0.1727940312499996},{"name":"C4","midi":60,"time":10.411759499999981,"velocity":0.7480314960629921,"duration":0.1727940312499996},{"name":"B3","midi":59,"time":10.58822999999998,"velocity":0.7480314960629921,"duration":0.1727940312499996},{"name":"E3","midi":52,"time":10.764700499999979,"velocity":0.7480314960629921,"duration":0.1727940312499996},{"name":"B3","midi":59,"time":10.941170999999978,"velocity":0.7480314960629921,"duration":0.1727940312499996},{"name":"D4","midi":62,"time":11.117641499999976,"velocity":0.7480314960629921,"duration":0.1727940312499996},{"name":"C4","midi":60,"time":11.294111999999975,"velocity":0.7480314960629921,"duration":0.1727940312499996},{"name":"B3","midi":59,"time":11.470582499999974,"velocity":0.7480314960629921,"duration":0.1727940312499996},{"name":"A3","midi":57,"time":11.647052999999973,"velocity":0.7480314960629921,"duration":0.6176467500000005},{"name":"G#3","midi":56,"time":12.352934999999974,"velocity":0.7480314960629921,"duration":0.2941175000000005},{"name":"A3","midi":57,"time":12.705875999999975,"velocity":0.7480314960629921,"duration":0.1727940312499996},{"name":"C4","midi":60,"time":12.882346499999974,"velocity":0.7480314960629921,"duration":0.1727940312499996},{"name":"B3","midi":59,"time":13.058816999999973,"velocity":0.7480314960629921,"duration":0.1727940312499996},{"name":"D4","midi":62,"time":13.235287499999972,"velocity":0.7480314960629921,"duration":0.1727940312499996},{"name":"C4","midi":60,"time":13.41175799999997,"velocity":0.7480314960629921,"duration":0.1727940312499996},{"name":"B3","midi":59,"time":13.58822849999997,"velocity":0.7480314960629921,"duration":0.1727940312499996},{"name":"C4","midi":60,"time":13.764698999999968,"velocity":0.7480314960629921,"duration":0.1727940312499996},{"name":"A3","midi":57,"time":13.941169499999967,"velocity":0.7480314960629921,"duration":0.1727940312499996},{"name":"E3","midi":52,"time":14.117639999999966,"velocity":0.7480314960629921,"duration":0.2941175000000005},{"name":"F#3","midi":54,"time":14.470580999999967,"velocity":0.7480314960629921,"duration":0.2941175000000005},{"name":"G3","midi":55,"time":14.823521999999969,"velocity":0.7480314960629921,"duration":0.2941175000000005},{"name":"F#3","midi":54,"time":15.17646299999997,"velocity":0.7480314960629921,"duration":0.1727940312499996},{"name":"E3","midi":52,"time":15.352933499999969,"velocity":0.7480314960629921,"duration":0.1727940312499996},{"name":"F#3","midi":54,"time":15.529403999999968,"velocity":0.7480314960629921,"duration":0.2941175000000005},{"name":"G#3","midi":56,"time":15.882344999999969,"velocity":0.7480314960629921,"duration":0.2941174999999987},{"name":"A3","midi":57,"time":16.235285999999967,"velocity":0.7480314960629921,"duration":0.9999995000000013},{"name":"G3","midi":55,"time":17.294108999999967,"velocity":0.7480314960629921,"duration":0.1727940312499996},{"name":"F#3","midi":54,"time":17.470579499999968,"velocity":0.7480314960629921,"duration":0.1727940312499996},{"name":"G3","midi":55,"time":17.647049999999968,"velocity":0.7480314960629921,"duration":0.08823525000000032},{"name":"E3","midi":52,"time":17.99999099999997,"velocity":0.7480314960629921,"duration":0.6470585},{"name":"D#3","midi":51,"time":18.70587299999997,"velocity":0.7480314960629921,"duration":0.1727940312499996},{"name":"C#3","midi":49,"time":18.88234349999997,"velocity":0.7480314960629921,"duration":0.1727940312499996},{"name":"E3","midi":52,"time":19.05881399999997,"velocity":0.7480314960629921,"duration":0.04044115625000089},{"name":"D#3","midi":51,"time":19.10293162499997,"velocity":0.7480314960629921,"duration":0.04044115625000089},{"name":"E3","midi":52,"time":19.147049249999974,"velocity":0.7480314960629921,"duration":0.04044115625000089},{"name":"D#3","midi":51,"time":19.191166874999976,"velocity":0.7480314960629921,"duration":0.5147056250000013},{"name":"E3","midi":52,"time":19.764695999999976,"velocity":0.7480314960629921,"duration":0.08823525000000032},{"name":"B3","midi":59,"time":20.117636999999977,"velocity":0.7480314960629921,"duration":0.08823525000000032},{"name":"E4","midi":64,"time":20.47057799999998,"velocity":0.7480314960629921,"duration":1.3235287500000013},{"name":"E4","midi":64,"time":21.88234199999998,"velocity":0.7480314960629921,"duration":0.04044115625000089},{"name":"D#4","midi":63,"time":21.926459624999982,"velocity":0.7480314960629921,"duration":0.04044115625000089},{"name":"E4","midi":64,"time":21.970577249999984,"velocity":0.7480314960629921,"duration":0.04044115625000089},{"name":"D#4","midi":63,"time":22.014694874999986,"velocity":0.7480314960629921,"duration":0.5147056250000013},{"name":"E4","midi":64,"time":22.588223999999986,"velocity":0.7480314960629921,"duration":0.08823525000000032},{"name":"E3","midi":52,"time":22.941164999999987,"velocity":0.7480314960629921,"duration":0.1727940312499996},{"name":"F#3","midi":54,"time":23.117635499999988,"velocity":0.7480314960629921,"duration":0.1727940312499996},{"name":"G3","midi":55,"time":23.29410599999999,"velocity":0.7480314960629921,"duration":0.1727940312499996},{"name":"A3","midi":57,"time":23.47057649999999,"velocity":0.7480314960629921,"duration":0.1727940312499996},{"name":"A#3","midi":58,"time":23.64704699999999,"velocity":0.7480314960629921,"duration":0.1727940312499996},{"name":"G3","midi":55,"time":23.82351749999999,"velocity":0.7480314960629921,"duration":0.1727940312499996},{"name":"E3","midi":52,"time":23.99998799999999,"velocity":0.7480314960629921,"duration":0.1727940312499996},{"name":"F3","midi":53,"time":24.176458499999992,"velocity":0.7480314960629921,"duration":0.1727940312499996},{"name":"G3","midi":55,"time":24.352928999999992,"velocity":0.7480314960629921,"duration":0.47058799999999934},{"name":"F3","midi":53,"time":24.88234049999999,"velocity":0.7480314960629921,"duration":0.1727940312499996},{"name":"E3","midi":52,"time":25.05881099999999,"velocity":0.7480314960629921,"duration":0.1727940312499996},{"name":"D3","midi":50,"time":25.235281499999992,"velocity":0.7480314960629921,"duration":0.1727940312499996},{"name":"C#3","midi":49,"time":25.411751999999993,"velocity":0.7480314960629921,"duration":0.1727940312499996},{"name":"D3","midi":50,"time":25.588222499999993,"velocity":0.7480314960629921,"duration":0.1727940312499996},{"name":"E3","midi":52,"time":25.764692999999994,"velocity":0.7480314960629921,"duration":0.47058799999999934},{"name":"D3","midi":50,"time":26.294104499999992,"velocity":0.7480314960629921,"duration":0.1727940312499996},{"name":"C#3","midi":49,"time":26.470574999999993,"velocity":0.7480314960629921,"duration":0.1727940312499996},{"name":"B2","midi":47,"time":26.647045499999994,"velocity":0.7480314960629921,"duration":0.1727940312499996},{"name":"C#3","midi":49,"time":26.823515999999994,"velocity":0.7480314960629921,"duration":0.1727940312499996},{"name":"A2","midi":45,"time":26.999986499999995,"velocity":0.7480314960629921,"duration":0.1727940312499996},{"name":"C#3","midi":49,"time":27.176456999999996,"velocity":0.7480314960629921,"duration":0.1727940312499996},{"name":"D3","midi":50,"time":27.352927499999996,"velocity":0.7480314960629921,"duration":0.1727940312499996},{"name":"E3","midi":52,"time":27.529397999999997,"velocity":0.7480314960629921,"duration":0.1727940312499996},{"name":"F3","midi":53,"time":27.705868499999998,"velocity":0.7480314960629921,"duration":0.1727940312499996},{"name":"G3","midi":55,"time":27.882338999999998,"velocity":0.7480314960629921,"duration":0.1727940312499996},{"name":"E3","midi":52,"time":28.0588095,"velocity":0.7480314960629921,"duration":0.1727940312499996},{"name":"F3","midi":53,"time":28.23528,"velocity":0.7480314960629921,"duration":0.1727940312499996},{"name":"E3","midi":52,"time":28.4117505,"velocity":0.7480314960629921,"duration":0.1727940312499996},{"name":"D3","midi":50,"time":28.588221,"velocity":0.7480314960629921,"duration":0.1727940312499996},{"name":"E3","midi":52,"time":28.7646915,"velocity":0.7480314960629921,"duration":0.1727940312499996},{"name":"F3","midi":53,"time":28.941162000000002,"velocity":0.7480314960629921,"duration":0.1727940312499996},{"name":"G3","midi":55,"time":29.117632500000003,"velocity":0.7480314960629921,"duration":0.1727940312499996},{"name":"G#3","midi":56,"time":29.294103000000003,"velocity":0.7480314960629921,"duration":0.1727940312499996},{"name":"F3","midi":53,"time":29.470573500000004,"velocity":0.7480314960629921,"duration":0.1727940312499996},{"name":"D3","midi":50,"time":29.647044000000005,"velocity":0.7480314960629921,"duration":0.1727940312499996},{"name":"E3","midi":52,"time":29.823514500000005,"velocity":0.7480314960629921,"duration":0.1727940312499996},{"name":"F3","midi":53,"time":29.999985000000006,"velocity":0.7480314960629921,"duration":0.47058799999999934},{"name":"E3","midi":52,"time":30.529396500000004,"velocity":0.7480314960629921,"duration":0.1727940312499996},{"name":"D3","midi":50,"time":30.705867000000005,"velocity":0.7480314960629921,"duration":0.1727940312499996},{"name":"C3","midi":48,"time":30.882337500000006,"velocity":0.7480314960629921,"duration":0.1727940312499996},{"name":"B2","midi":47,"time":31.058808000000006,"velocity":0.7480314960629921,"duration":0.1727940312499996},{"name":"C3","midi":48,"time":31.235278500000007,"velocity":0.7480314960629921,"duration":0.1727940312499996},{"name":"D3","midi":50,"time":31.411749000000007,"velocity":0.7480314960629921,"duration":0.47058799999999934},{"name":"C3","midi":48,"time":31.941160500000006,"velocity":0.7480314960629921,"duration":0.17279403125000314},{"name":"B2","midi":47,"time":32.11763100000001,"velocity":0.7480314960629921,"duration":0.1727940312499996},{"name":"A2","midi":45,"time":32.29410150000001,"velocity":0.7480314960629921,"duration":0.1727940312499996},{"name":"B2","midi":47,"time":32.47057200000001,"velocity":0.7480314960629921,"duration":0.1727940312499996},{"name":"G2","midi":43,"time":32.64704250000001,"velocity":0.7480314960629921,"duration":0.1727940312499996},{"name":"B2","midi":47,"time":32.82351300000001,"velocity":0.7480314960629921,"duration":0.1727940312499996},{"name":"C3","midi":48,"time":32.99998350000001,"velocity":0.7480314960629921,"duration":0.1727940312499996},{"name":"D3","midi":50,"time":33.176454000000014,"velocity":0.7480314960629921,"duration":0.1727940312499996},{"name":"E3","midi":52,"time":33.352924500000015,"velocity":0.7480314960629921,"duration":0.1727940312499996},{"name":"F3","midi":53,"time":33.529395000000015,"velocity":0.7480314960629921,"duration":0.1727940312499996},{"name":"D3","midi":50,"time":33.705865500000016,"velocity":0.7480314960629921,"duration":0.1727940312499996},{"name":"E3","midi":52,"time":33.882336000000016,"velocity":0.7480314960629921,"duration":0.1727940312499996},{"name":"D3","midi":50,"time":34.05880650000002,"velocity":0.7480314960629921,"duration":0.1727940312499996},{"name":"C3","midi":48,"time":34.23527700000002,"velocity":0.7480314960629921,"duration":0.1727940312499996},{"name":"D3","midi":50,"time":34.41174750000002,"velocity":0.7480314960629921,"duration":0.1727940312499996},{"name":"E3","midi":52,"time":34.58821800000002,"velocity":0.7480314960629921,"duration":0.1727940312499996},{"name":"F3","midi":53,"time":34.76468850000002,"velocity":0.7480314960629921,"duration":0.1727940312499996},{"name":"G3","midi":55,"time":34.94115900000002,"velocity":0.7480314960629921,"duration":0.1727940312499996},{"name":"E3","midi":52,"time":35.11762950000002,"velocity":0.7480314960629921,"duration":0.1727940312499996},{"name":"F3","midi":53,"time":35.29410000000002,"velocity":0.7480314960629921,"duration":0.08823524999999677},{"name":"A3","midi":57,"time":35.647041000000016,"velocity":0.7480314960629921,"duration":0.08823524999999677},{"name":"D3","midi":50,"time":35.99998200000001,"velocity":0.7480314960629921,"duration":0.08823524999999677},{"name":"F3","midi":53,"time":36.352923000000004,"velocity":0.7480314960629921,"duration":0.2941174999999987},{"name":"B2","midi":47,"time":36.705864000000005,"velocity":0.7480314960629921,"duration":0.2941174999999987},{"name":"C3","midi":48,"time":37.05880500000001,"velocity":0.7480314960629921,"duration":0.1727940312499996},{"name":"D3","midi":50,"time":37.23527550000001,"velocity":0.7480314960629921,"duration":0.1727940312499996},{"name":"E3","midi":52,"time":37.41174600000001,"velocity":0.7480314960629921,"duration":0.08823524999999677},{"name":"C3","midi":48,"time":37.764687,"velocity":0.7480314960629921,"duration":0.2941174999999987},{"name":"D3","midi":50,"time":38.117628,"velocity":0.7480314960629921,"duration":0.08823524999999677},{"name":"F3","midi":53,"time":38.470569,"velocity":0.7480314960629921,"duration":0.08823524999999677},{"name":"B2","midi":47,"time":38.82350999999999,"velocity":0.7480314960629921,"duration":0.08823524999999677},{"name":"D3","midi":50,"time":39.176450999999986,"velocity":0.7480314960629921,"duration":0.2941174999999987},{"name":"G2","midi":43,"time":39.52939199999999,"velocity":0.7480314960629921,"duration":0.2941174999999987},{"name":"A2","midi":45,"time":39.88233299999999,"velocity":0.7480314960629921,"duration":0.1727940312499996},{"name":"B2","midi":47,"time":40.05880349999999,"velocity":0.7480314960629921,"duration":0.1727940312499996},{"name":"C3","midi":48,"time":40.23527399999999,"velocity":0.7480314960629921,"duration":0.08823524999999677},{"name":"A2","midi":45,"time":40.588214999999984,"velocity":0.7480314960629921,"duration":0.2941174999999987},{"name":"B2","midi":47,"time":40.941155999999985,"velocity":0.7480314960629921,"duration":0.08823524999999677},{"name":"D3","midi":50,"time":41.29409699999998,"velocity":0.7480314960629921,"duration":0.08823524999999677},{"name":"G#2","midi":44,"time":41.647037999999974,"velocity":0.7480314960629921,"duration":0.08823524999999677},{"name":"B2","midi":47,"time":41.99997899999997,"velocity":0.7480314960629921,"duration":0.2941174999999987},{"name":"E2","midi":40,"time":42.35291999999997,"velocity":0.7480314960629921,"duration":0.2941174999999987},{"name":"F#2","midi":42,"time":42.70586099999997,"velocity":0.7480314960629921,"duration":0.1727940312499996},{"name":"G#2","midi":44,"time":42.88233149999997,"velocity":0.7480314960629921,"duration":0.1727940312499996},{"name":"A2","midi":45,"time":43.05880199999997,"velocity":0.7480314960629921,"duration":0.08823524999999677},{"name":"B2","midi":47,"time":43.411742999999966,"velocity":0.7480314960629921,"duration":0.2941174999999987},{"name":"C3","midi":48,"time":43.76468399999997,"velocity":0.7480314960629921,"duration":0.6176467499999987},{"name":"E2","midi":40,"time":44.47056599999996,"velocity":0.7480314960629921,"duration":0.6176467499999987},{"name":"F2","midi":41,"time":45.17644799999996,"velocity":0.7480314960629921,"duration":0.1727940312499996},{"name":"E2","midi":40,"time":45.35291849999996,"velocity":0.7480314960629921,"duration":0.1727940312499996},{"name":"D2","midi":38,"time":45.52938899999996,"velocity":0.7480314960629921,"duration":0.5257350312500009},{"name":"E2","midi":40,"time":46.05880049999996,"velocity":0.7480314960629921,"duration":0.1727940312499996},{"name":"F#2","midi":42,"time":46.23527099999996,"velocity":0.7480314960629921,"duration":0.1727940312499996},{"name":"G#2","midi":44,"time":46.41174149999996,"velocity":0.7480314960629921,"duration":0.1727940312499996},{"name":"A2","midi":45,"time":46.58821199999996,"velocity":0.7480314960629921,"duration":0.1727940312499996},{"name":"E2","midi":40,"time":46.764682499999964,"velocity":0.7480314960629921,"duration":0.1727940312499996},{"name":"A2","midi":45,"time":46.941152999999964,"velocity":0.7480314960629921,"duration":0.6176467499999987},{"name":"G#2","midi":44,"time":47.64703499999996,"velocity":0.7480314960629921,"duration":0.2941174999999987},{"name":"A2","midi":45,"time":47.99997599999996,"velocity":0.7480314960629921,"duration":0.2941174999999987},{"name":"B2","midi":47,"time":48.35291699999996,"velocity":0.7480314960629921,"duration":0.2941174999999987},{"name":"C3","midi":48,"time":48.705857999999964,"velocity":0.7480314960629921,"duration":0.2941174999999987},{"name":"B2","midi":47,"time":49.058798999999965,"velocity":0.7480314960629921,"duration":0.1727940312499996},{"name":"A2","midi":45,"time":49.235269499999966,"velocity":0.7480314960629921,"duration":0.1727940312499996},{"name":"B2","midi":47,"time":49.411739999999966,"velocity":0.7480314960629921,"duration":0.2941174999999987},{"name":"C#3","midi":49,"time":49.76468099999997,"velocity":0.7480314960629921,"duration":0.2941174999999987},{"name":"D3","midi":50,"time":50.11762199999997,"velocity":0.7480314960629921,"duration":0.9999995000000013},{"name":"C3","midi":48,"time":51.17644499999997,"velocity":0.7480314960629921,"duration":0.1727940312499996},{"name":"B2","midi":47,"time":51.35291549999997,"velocity":0.7480314960629921,"duration":0.1727940312499996},{"name":"C3","midi":48,"time":51.529385999999974,"velocity":0.7480314960629921,"duration":0.08823524999999677},{"name":"A2","midi":45,"time":51.88232699999997,"velocity":0.7480314960629921,"duration":0.6470585},{"name":"G#2","midi":44,"time":52.58820899999997,"velocity":0.7480314960629921,"duration":0.1727940312499996},{"name":"F#2","midi":42,"time":52.76467949999997,"velocity":0.7480314960629921,"duration":0.1727940312499996},{"name":"A2","midi":45,"time":52.94114999999997,"velocity":0.7480314960629921,"duration":0.040441156249997334},{"name":"G#2","midi":44,"time":52.98526762499997,"velocity":0.7480314960629921,"duration":0.040441156249997334},{"name":"A2","midi":45,"time":53.02938524999997,"velocity":0.7480314960629921,"duration":0.040441156249997334},{"name":"G#2","midi":44,"time":53.07350287499997,"velocity":0.7480314960629921,"duration":0.5147056249999977},{"name":"A2","midi":45,"time":53.64703199999997,"velocity":0.7480314960629921,"duration":0.08823524999999677},{"name":"E3","midi":52,"time":53.99997299999996,"velocity":0.7480314960629921,"duration":0.08823524999999677},{"name":"A3","midi":57,"time":54.352913999999956,"velocity":0.7480314960629921,"duration":1.3235287500000013},{"name":"A3","midi":57,"time":55.764677999999954,"velocity":0.7480314960629921,"duration":0.040441156249997334},{"name":"G#3","midi":56,"time":55.80879562499995,"velocity":0.7480314960629921,"duration":0.040441156249997334},{"name":"A3","midi":57,"time":55.85291324999995,"velocity":0.7480314960629921,"duration":0.040441156249997334},{"name":"G#3","midi":56,"time":55.89703087499995,"velocity":0.7480314960629921,"duration":0.5147056249999977},{"name":"A3","midi":57,"time":56.47055999999995,"velocity":0.7480314960629921,"duration":0.6176467499999987},{"name":"E3","midi":52,"time":57.176441999999945,"velocity":0.7480314960629921,"duration":0.6176467499999987},{"name":"F3","midi":53,"time":57.88232399999994,"velocity":0.7480314960629921,"duration":0.6176467499999987},{"name":"A2","midi":45,"time":58.588205999999936,"velocity":0.7480314960629921,"duration":0.6176467499999987},{"name":"C3","midi":48,"time":59.29408799999993,"velocity":0.7480314960629921,"duration":0.1727940312499996},{"name":"B2","midi":47,"time":59.47055849999993,"velocity":0.7480314960629921,"duration":0.1727940312499996},{"name":"A2","midi":45,"time":59.64702899999993,"velocity":0.7480314960629921,"duration":0.6176467499999987},{"name":"B2","midi":47,"time":60.35291099999993,"velocity":0.7480314960629921,"duration":0.1727940312499996},{"name":"C#3","midi":49,"time":60.52938149999993,"velocity":0.7480314960629921,"duration":0.1727940312499996},{"name":"D3","midi":50,"time":60.70585199999993,"velocity":0.7480314960629921,"duration":0.1727940312499996},{"name":"E3","midi":52,"time":60.88232249999993,"velocity":0.7480314960629921,"duration":0.1727940312499996},{"name":"F3","midi":53,"time":61.05879299999993,"velocity":0.7480314960629921,"duration":0.6176467499999987},{"name":"E3","midi":52,"time":61.764674999999926,"velocity":0.7480314960629921,"duration":0.1727940312499996},{"name":"D#3","midi":51,"time":61.94114549999993,"velocity":0.7480314960629921,"duration":0.1727940312499996},{"name":"E3","midi":52,"time":62.11761599999993,"velocity":0.7480314960629921,"duration":0.1727940312499996},{"name":"B2","midi":47,"time":62.29408649999993,"velocity":0.7480314960629921,"duration":0.1727940312499996},{"name":"E3","midi":52,"time":62.47055699999993,"velocity":0.7480314960629921,"duration":0.1727940312499996},{"name":"F#3","midi":54,"time":62.64702749999993,"velocity":0.7480314960629921,"duration":0.1727940312499996},{"name":"E3","midi":52,"time":62.82349799999993,"velocity":0.7480314960629921,"duration":0.1727940312499996},{"name":"B2","midi":47,"time":62.99996849999993,"velocity":0.7480314960629921,"duration":0.1727940312499996},{"name":"E3","midi":52,"time":63.17643899999993,"velocity":0.7480314960629921,"duration":0.1727940312499996},{"name":"G3","midi":55,"time":63.35290949999993,"velocity":0.7480314960629921,"duration":0.1727940312499996},{"name":"F#3","midi":54,"time":63.52937999999993,"velocity":0.7480314960629921,"duration":0.1727940312499996},{"name":"B2","midi":47,"time":63.70585049999993,"velocity":0.7480314960629921,"duration":0.1727940312499996},{"name":"F#3","midi":54,"time":63.88232099999993,"velocity":0.7480314960629921,"duration":0.1727940312500067},{"name":"G3","midi":55,"time":64.05879149999994,"velocity":0.7480314960629921,"duration":0.1727940312500067},{"name":"F#3","midi":54,"time":64.23526199999995,"velocity":0.7480314960629921,"duration":0.1727940312500067},{"name":"B2","midi":47,"time":64.41173249999996,"velocity":0.7480314960629921,"duration":0.1727940312500067},{"name":"F#3","midi":54,"time":64.58820299999996,"velocity":0.7480314960629921,"duration":0.1727940312500067},{"name":"A3","midi":57,"time":64.76467349999997,"velocity":0.7480314960629921,"duration":0.1727940312500067},{"name":"G3","midi":55,"time":64.94114399999998,"velocity":0.7480314960629921,"duration":0.1727940312500067},{"name":"B2","midi":47,"time":65.11761449999999,"velocity":0.7480314960629921,"duration":0.1727940312500067},{"name":"G3","midi":55,"time":65.294085,"velocity":0.7480314960629921,"duration":0.1727940312500067},{"name":"A3","midi":57,"time":65.4705555,"velocity":0.7480314960629921,"duration":0.1727940312500067},{"name":"G3","midi":55,"time":65.64702600000001,"velocity":0.7480314960629921,"duration":0.1727940312500067},{"name":"B2","midi":47,"time":65.82349650000002,"velocity":0.7480314960629921,"duration":0.1727940312500067},{"name":"G3","midi":55,"time":65.99996700000003,"velocity":0.7480314960629921,"duration":0.1727940312500067},{"name":"B3","midi":59,"time":66.17643750000003,"velocity":0.7480314960629921,"duration":0.1727940312500067},{"name":"F#3","midi":54,"time":66.35290800000004,"velocity":0.7480314960629921,"duration":0.1727940312500067},{"name":"B2","midi":47,"time":66.52937850000005,"velocity":0.7480314960629921,"duration":0.1727940312500067},{"name":"F#3","midi":54,"time":66.70584900000006,"velocity":0.7480314960629921,"duration":0.1727940312500067},{"name":"G3","midi":55,"time":66.88231950000007,"velocity":0.7480314960629921,"duration":0.1727940312500067},{"name":"F#3","midi":54,"time":67.05879000000007,"velocity":0.7480314960629921,"duration":0.1727940312500067},{"name":"B2","midi":47,"time":67.23526050000008,"velocity":0.7480314960629921,"duration":0.1727940312500067},{"name":"F#3","midi":54,"time":67.41173100000009,"velocity":0.7480314960629921,"duration":0.1727940312500067},{"name":"A3","midi":57,"time":67.5882015000001,"velocity":0.7480314960629921,"duration":0.1727940312500067},{"name":"G3","midi":55,"time":67.7646720000001,"velocity":0.7480314960629921,"duration":0.1727940312500067},{"name":"F#3","midi":54,"time":67.94114250000011,"velocity":0.7480314960629921,"duration":0.1727940312500067},{"name":"E3","midi":52,"time":68.11761300000012,"velocity":0.7480314960629921,"duration":0.6176467500000058},{"name":"F#3","midi":54,"time":68.82349500000012,"velocity":0.7480314960629921,"duration":0.2941174999999987},{"name":"G#3","midi":56,"time":69.17643600000012,"velocity":0.7480314960629921,"duration":0.08823524999999677},{"name":"F4","midi":65,"time":69.52937700000012,"velocity":0.7480314960629921,"duration":0.2941174999999987},{"name":"F4","midi":65,"time":69.88231800000013,"velocity":0.7480314960629921,"duration":0.040441156249997334},{"name":"E4","midi":64,"time":69.92643562500012,"velocity":0.7480314960629921,"duration":0.040441156249997334},{"name":"F4","midi":65,"time":69.97055325000012,"velocity":0.7480314960629921,"duration":0.040441156249997334},{"name":"E4","midi":64,"time":70.01467087500012,"velocity":0.7480314960629921,"duration":0.21691165625000508},{"name":"D4","midi":62,"time":70.23525900000013,"velocity":0.7480314960629921,"duration":0.2941174999999987},{"name":"F3","midi":53,"time":70.58820000000013,"velocity":0.7480314960629921,"duration":0.08823524999999677},{"name":"D4","midi":62,"time":70.94114100000013,"velocity":0.7480314960629921,"duration":0.2941174999999987},{"name":"D4","midi":62,"time":71.29408200000013,"velocity":0.7480314960629921,"duration":0.040441156249997334},{"name":"C4","midi":60,"time":71.33819962500013,"velocity":0.7480314960629921,"duration":0.040441156249997334},{"name":"D4","midi":62,"time":71.38231725000013,"velocity":0.7480314960629921,"duration":0.040441156249997334},{"name":"C4","midi":60,"time":71.42643487500013,"velocity":0.7480314960629921,"duration":0.21691165625000508},{"name":"B3","midi":59,"time":71.64702300000013,"velocity":0.7480314960629921,"duration":0.2941174999999987},{"name":"D3","midi":50,"time":71.99996400000013,"velocity":0.7480314960629921,"duration":0.08823524999999677},{"name":"B3","midi":59,"time":72.35290500000013,"velocity":0.7480314960629921,"duration":0.2941174999999987},{"name":"B3","midi":59,"time":72.70584600000014,"velocity":0.7480314960629921,"duration":0.040441156249997334},{"name":"A3","midi":57,"time":72.74996362500013,"velocity":0.7480314960629921,"duration":0.040441156249997334},{"name":"B3","midi":59,"time":72.79408125000013,"velocity":0.7480314960629921,"duration":0.040441156249997334},{"name":"A3","midi":57,"time":72.83819887500013,"velocity":0.7480314960629921,"duration":0.21691165625000508},{"name":"G#3","midi":56,"time":73.05878700000014,"velocity":0.7480314960629921,"duration":0.2941174999999987},{"name":"A3","midi":57,"time":73.41172800000014,"velocity":0.7480314960629921,"duration":0.1727940312500067},{"name":"D3","midi":50,"time":73.58819850000015,"velocity":0.7480314960629921,"duration":0.1727940312500067},{"name":"C3","midi":48,"time":73.76466900000015,"velocity":0.7480314960629921,"duration":0.1727940312500067},{"name":"B2","midi":47,"time":73.94113950000016,"velocity":0.7480314960629921,"duration":0.1727940312500067},{"name":"A2","midi":45,"time":74.11761000000017,"velocity":0.7480314960629921,"duration":0.08823524999999677},{"name":"G3","midi":55,"time":74.47055100000017,"velocity":0.7480314960629921,"duration":0.2941174999999987},{"name":"F#3","midi":54,"time":74.82349200000017,"velocity":0.7480314960629921,"duration":0.08823524999999677},{"name":"D#4","midi":63,"time":75.17643300000017,"velocity":0.7480314960629921,"duration":0.2941174999999987},{"name":"D#4","midi":63,"time":75.52937400000017,"velocity":0.7480314960629921,"duration":0.040441156249997334},{"name":"D4","midi":62,"time":75.57349162500017,"velocity":0.7480314960629921,"duration":0.040441156249997334},{"name":"D#4","midi":63,"time":75.61760925000017,"velocity":0.7480314960629921,"duration":0.040441156249997334},{"name":"D4","midi":62,"time":75.66172687500017,"velocity":0.7480314960629921,"duration":0.21691165625000508},{"name":"C4","midi":60,"time":75.88231500000018,"velocity":0.7480314960629921,"duration":0.2941174999999987},{"name":"D#3","midi":51,"time":76.23525600000018,"velocity":0.7480314960629921,"duration":0.08823524999999677},{"name":"C4","midi":60,"time":76.58819700000018,"velocity":0.7480314960629921,"duration":0.2941174999999987},{"name":"C4","midi":60,"time":76.94113800000018,"velocity":0.7480314960629921,"duration":0.040441156249997334},{"name":"B3","midi":59,"time":76.98525562500018,"velocity":0.7480314960629921,"duration":0.040441156249997334},{"name":"C4","midi":60,"time":77.02937325000018,"velocity":0.7480314960629921,"duration":0.040441156249997334},{"name":"B3","midi":59,"time":77.07349087500018,"velocity":0.7480314960629921,"duration":0.21691165625000508},{"name":"A3","midi":57,"time":77.29407900000018,"velocity":0.7480314960629921,"duration":0.2941174999999987},{"name":"C3","midi":48,"time":77.64702000000018,"velocity":0.7480314960629921,"duration":0.08823524999999677},{"name":"A3","midi":57,"time":77.99996100000018,"velocity":0.7480314960629921,"duration":0.2941174999999987},{"name":"A3","midi":57,"time":78.35290200000019,"velocity":0.7480314960629921,"duration":0.040441156249997334},{"name":"G3","midi":55,"time":78.39701962500018,"velocity":0.7480314960629921,"duration":0.040441156249997334},{"name":"A3","midi":57,"time":78.44113725000018,"velocity":0.7480314960629921,"duration":0.040441156249997334},{"name":"G3","midi":55,"time":78.48525487500018,"velocity":0.7480314960629921,"duration":0.21691165625000508},{"name":"F#3","midi":54,"time":78.70584300000019,"velocity":0.7480314960629921,"duration":0.2941174999999987},{"name":"G3","midi":55,"time":79.05878400000019,"velocity":0.7480314960629921,"duration":0.1727940312500067},{"name":"C3","midi":48,"time":79.2352545000002,"velocity":0.7480314960629921,"duration":0.1727940312500067},{"name":"B2","midi":47,"time":79.4117250000002,"velocity":0.7480314960629921,"duration":0.1727940312500067},{"name":"A2","midi":45,"time":79.58819550000021,"velocity":0.7480314960629921,"duration":0.1727940312500067},{"name":"G2","midi":43,"time":79.76466600000022,"velocity":0.7480314960629921,"duration":0.08823524999999677},{"name":"F3","midi":53,"time":80.11760700000022,"velocity":0.7480314960629921,"duration":0.2941174999999987},{"name":"E3","midi":52,"time":80.47054800000022,"velocity":0.7480314960629921,"duration":0.1727940312500067},{"name":"D4","midi":62,"time":80.64701850000023,"velocity":0.7480314960629921,"duration":0.1727940312500067},{"name":"C4","midi":60,"time":80.82348900000024,"velocity":0.7480314960629921,"duration":0.1727940312500067},{"name":"B3","midi":59,"time":80.99995950000024,"velocity":0.7480314960629921,"duration":0.1727940312500067},{"name":"C4","midi":60,"time":81.17643000000025,"velocity":0.7480314960629921,"duration":0.1727940312500067},{"name":"A3","midi":57,"time":81.35290050000026,"velocity":0.7480314960629921,"duration":0.1727940312500067},{"name":"E3","midi":52,"time":81.52937100000027,"velocity":0.7480314960629921,"duration":0.5257350312499938},{"name":"D3","midi":50,"time":82.05878250000026,"velocity":0.7480314960629921,"duration":0.1727940312500067},{"name":"E3","midi":52,"time":82.23525300000027,"velocity":0.7480314960629921,"duration":0.1727940312500067},{"name":"F#3","midi":54,"time":82.41172350000028,"velocity":0.7480314960629921,"duration":0.1727940312500067},{"name":"D3","midi":50,"time":82.58819400000029,"velocity":0.7480314960629921,"duration":0.1727940312500067},{"name":"G3","midi":55,"time":82.7646645000003,"velocity":0.7480314960629921,"duration":0.1727940312500067},{"name":"B3","midi":59,"time":82.9411350000003,"velocity":0.7480314960629921,"duration":0.2941174999999987},{"name":"C3","midi":48,"time":83.2940760000003,"velocity":0.7480314960629921,"duration":0.1727940312500067},{"name":"B3","midi":59,"time":83.47054650000031,"velocity":0.7480314960629921,"duration":0.1727940312500067},{"name":"A3","midi":57,"time":83.64701700000032,"velocity":0.7480314960629921,"duration":0.1727940312500067},{"name":"G3","midi":55,"time":83.82348750000033,"velocity":0.7480314960629921,"duration":0.1727940312500067},{"name":"A3","midi":57,"time":83.99995800000033,"velocity":0.7480314960629921,"duration":0.1727940312500067},{"name":"F#3","midi":54,"time":84.17642850000034,"velocity":0.7480314960629921,"duration":0.1727940312500067},{"name":"C3","midi":48,"time":84.35289900000035,"velocity":0.7480314960629921,"duration":0.5257350312499938},{"name":"B2","midi":47,"time":84.88231050000034,"velocity":0.7480314960629921,"duration":0.1727940312500067},{"name":"C3","midi":48,"time":85.05878100000035,"velocity":0.7480314960629921,"duration":0.1727940312500067},{"name":"D3","midi":50,"time":85.23525150000036,"velocity":0.7480314960629921,"duration":0.1727940312500067},{"name":"B2","midi":47,"time":85.41172200000037,"velocity":0.7480314960629921,"duration":0.1727940312500067},{"name":"D3","midi":50,"time":85.58819250000037,"velocity":0.7480314960629921,"duration":0.1727940312500067},{"name":"G3","midi":55,"time":85.76466300000038,"velocity":0.7480314960629921,"duration":0.2941174999999987},{"name":"A2","midi":45,"time":86.11760400000038,"velocity":0.7480314960629921,"duration":0.1727940312500067},{"name":"G3","midi":55,"time":86.29407450000039,"velocity":0.7480314960629921,"duration":0.1727940312500067},{"name":"F#3","midi":54,"time":86.4705450000004,"velocity":0.7480314960629921,"duration":0.1727940312500067},{"name":"E3","midi":52,"time":86.6470155000004,"velocity":0.7480314960629921,"duration":0.1727940312500067},{"name":"F#3","midi":54,"time":86.82348600000041,"velocity":0.7480314960629921,"duration":0.1727940312500067},{"name":"D#3","midi":51,"time":86.99995650000042,"velocity":0.7480314960629921,"duration":0.1727940312500067},{"name":"A2","midi":45,"time":87.17642700000043,"velocity":0.7480314960629921,"duration":0.5257350312499938},{"name":"G2","midi":43,"time":87.70583850000043,"velocity":0.7480314960629921,"duration":0.1727940312500067},{"name":"A2","midi":45,"time":87.88230900000043,"velocity":0.7480314960629921,"duration":0.1727940312500067},{"name":"B2","midi":47,"time":88.05877950000044,"velocity":0.7480314960629921,"duration":0.1727940312500067},{"name":"G2","midi":43,"time":88.23525000000045,"velocity":0.7480314960629921,"duration":0.1727940312500067},{"name":"B2","midi":47,"time":88.41172050000046,"velocity":0.7480314960629921,"duration":0.1727940312500067},{"name":"E3","midi":52,"time":88.58819100000046,"velocity":0.7480314960629921,"duration":0.1727940312500067},{"name":"G3","midi":55,"time":88.76466150000047,"velocity":0.7480314960629921,"duration":0.1727940312500067},{"name":"F#3","midi":54,"time":88.94113200000048,"velocity":0.7480314960629921,"duration":0.1727940312500067},{"name":"A#2","midi":46,"time":89.11760250000049,"velocity":0.7480314960629921,"duration":0.1727940312500067},{"name":"F#3","midi":54,"time":89.2940730000005,"velocity":0.7480314960629921,"duration":0.1727940312500067},{"name":"G3","midi":55,"time":89.4705435000005,"velocity":0.7480314960629921,"duration":0.1727940312500067},{"name":"F#3","midi":54,"time":89.64701400000051,"velocity":0.7480314960629921,"duration":0.1727940312500067},{"name":"B2","midi":47,"time":89.82348450000052,"velocity":0.7480314960629921,"duration":0.1727940312500067},{"name":"F#3","midi":54,"time":89.99995500000053,"velocity":0.7480314960629921,"duration":0.1727940312500067},{"name":"A3","midi":57,"time":90.17642550000053,"velocity":0.7480314960629921,"duration":0.1727940312500067},{"name":"G#3","midi":56,"time":90.35289600000054,"velocity":0.7480314960629921,"duration":0.1727940312500067},{"name":"E3","midi":52,"time":90.52936650000055,"velocity":0.7480314960629921,"duration":0.1727940312500067},{"name":"G#3","midi":56,"time":90.70583700000056,"velocity":0.7480314960629921,"duration":0.1727940312500067},{"name":"A#3","midi":58,"time":90.88230750000056,"velocity":0.7480314960629921,"duration":0.1727940312500067},{"name":"B3","midi":59,"time":91.05877800000057,"velocity":0.7480314960629921,"duration":0.1727940312500067},{"name":"D3","midi":50,"time":91.23524850000058,"velocity":0.7480314960629921,"duration":0.1727940312500067},{"name":"G3","midi":55,"time":91.41171900000059,"velocity":0.7480314960629921,"duration":0.1727940312500067},{"name":"B3","midi":59,"time":91.5881895000006,"velocity":0.7480314960629921,"duration":0.1727940312500067},{"name":"A3","midi":57,"time":91.7646600000006,"velocity":0.7480314960629921,"duration":0.1727940312500067},{"name":"C#3","midi":49,"time":91.94113050000061,"velocity":0.7480314960629921,"duration":0.1727940312500067},{"name":"A3","midi":57,"time":92.11760100000062,"velocity":0.7480314960629921,"duration":0.1727940312500067},{"name":"A#3","midi":58,"time":92.29407150000063,"velocity":0.7480314960629921,"duration":0.1727940312500067},{"name":"A3","midi":57,"time":92.47054200000063,"velocity":0.7480314960629921,"duration":0.1727940312500067},{"name":"D3","midi":50,"time":92.64701250000064,"velocity":0.7480314960629921,"duration":0.1727940312500067},{"name":"A3","midi":57,"time":92.82348300000065,"velocity":0.7480314960629921,"duration":0.1727940312500067},{"name":"C4","midi":60,"time":92.99995350000066,"velocity":0.7480314960629921,"duration":0.1727940312500067},{"name":"B3","midi":59,"time":93.17642400000067,"velocity":0.7480314960629921,"duration":0.1727940312500067},{"name":"G3","midi":55,"time":93.35289450000067,"velocity":0.7480314960629921,"duration":0.1727940312500067},{"name":"B3","midi":59,"time":93.52936500000068,"velocity":0.7480314960629921,"duration":0.1727940312500067},{"name":"C#4","midi":61,"time":93.70583550000069,"velocity":0.7480314960629921,"duration":0.1727940312500067},{"name":"D4","midi":62,"time":93.8823060000007,"velocity":0.7480314960629921,"duration":0.1727940312500067},{"name":"F3","midi":53,"time":94.0587765000007,"velocity":0.7480314960629921,"duration":0.1727940312500067},{"name":"A#3","midi":58,"time":94.23524700000071,"velocity":0.7480314960629921,"duration":0.1727940312500067},{"name":"D4","midi":62,"time":94.41171750000072,"velocity":0.7480314960629921,"duration":0.1727940312500067},{"name":"C4","midi":60,"time":94.58818800000073,"velocity":0.7480314960629921,"duration":0.1727940312500067},{"name":"E3","midi":52,"time":94.76465850000073,"velocity":0.7480314960629921,"duration":0.1727940312500067},{"name":"C4","midi":60,"time":94.94112900000074,"velocity":0.7480314960629921,"duration":0.1727940312500067},{"name":"D4","midi":62,"time":95.11759950000075,"velocity":0.7480314960629921,"duration":0.1727940312500067},{"name":"C4","midi":60,"time":95.29407000000076,"velocity":0.7480314960629921,"duration":0.1727940312500067},{"name":"F3","midi":53,"time":95.47054050000077,"velocity":0.7480314960629921,"duration":0.1727940312500067},{"name":"A3","midi":57,"time":95.64701100000077,"velocity":0.7480314960629921,"duration":0.1727940312500067},{"name":"C4","midi":60,"time":95.82348150000078,"velocity":0.7480314960629921,"duration":0.1727940312500067},{"name":"B3","midi":59,"time":95.99995200000079,"velocity":0.7480314960629921,"duration":0.1727940312500067},{"name":"D3","midi":50,"time":96.1764225000008,"velocity":0.7480314960629921,"duration":0.1727940312500067},{"name":"B3","midi":59,"time":96.3528930000008,"velocity":0.7480314960629921,"duration":0.1727940312500067},{"name":"C4","midi":60,"time":96.52936350000081,"velocity":0.7480314960629921,"duration":0.1727940312500067},{"name":"B3","midi":59,"time":96.70583400000082,"velocity":0.7480314960629921,"duration":0.1727940312500067},{"name":"E3","midi":52,"time":96.88230450000083,"velocity":0.7480314960629921,"duration":0.1727940312500067},{"name":"B3","midi":59,"time":97.05877500000084,"velocity":0.7480314960629921,"duration":0.1727940312500067},{"name":"D4","midi":62,"time":97.23524550000084,"velocity":0.7480314960629921,"duration":0.1727940312500067},{"name":"C4","midi":60,"time":97.41171600000085,"velocity":0.7480314960629921,"duration":0.1727940312500067},{"name":"A3","midi":57,"time":97.58818650000086,"velocity":0.7480314960629921,"duration":0.1727940312500067},{"name":"C4","midi":60,"time":97.76465700000087,"velocity":0.7480314960629921,"duration":0.1727940312500067},{"name":"E4","midi":64,"time":97.94112750000087,"velocity":0.7480314960629921,"duration":0.1727940312500067},{"name":"C4","midi":60,"time":98.11759800000088,"velocity":0.7480314960629921,"duration":0.1727940312500067},{"name":"A3","midi":57,"time":98.29406850000089,"velocity":0.7480314960629921,"duration":0.1727940312500067},{"name":"B3","midi":59,"time":98.4705390000009,"velocity":0.7480314960629921,"duration":0.1727940312500067},{"name":"G#3","midi":56,"time":98.6470095000009,"velocity":0.7480314960629921,"duration":0.1727940312500067},{"name":"A3","midi":57,"time":98.82348000000091,"velocity":0.7480314960629921,"duration":0.1727940312500067},{"name":"C4","midi":60,"time":98.99995050000092,"velocity":0.7480314960629921,"duration":0.1727940312500067},{"name":"B3","midi":59,"time":99.17642100000093,"velocity":0.7480314960629921,"duration":0.1727940312500067},{"name":"D4","midi":62,"time":99.35289150000094,"velocity":0.7480314960629921,"duration":0.1727940312500067},{"name":"C4","midi":60,"time":99.52936200000094,"velocity":0.7480314960629921,"duration":0.1727940312500067},{"name":"B3","midi":59,"time":99.70583250000095,"velocity":0.7480314960629921,"duration":0.1727940312500067},{"name":"C4","midi":60,"time":99.88230300000096,"velocity":0.7480314960629921,"duration":0.1727940312500067},{"name":"A3","midi":57,"time":100.05877350000097,"velocity":0.7480314960629921,"duration":0.1727940312500067},{"name":"E3","midi":52,"time":100.23524400000098,"velocity":0.7480314960629921,"duration":0.2941174999999987},{"name":"F#3","midi":54,"time":100.58818500000098,"velocity":0.7480314960629921,"duration":0.2941174999999987},{"name":"G3","midi":55,"time":100.94112600000098,"velocity":0.7480314960629921,"duration":0.2941174999999987},{"name":"F#3","midi":54,"time":101.29406700000098,"velocity":0.7480314960629921,"duration":0.1727940312500067},{"name":"E3","midi":52,"time":101.47053750000099,"velocity":0.7480314960629921,"duration":0.1727940312500067},{"name":"F#3","midi":54,"time":101.647008000001,"velocity":0.7480314960629921,"duration":0.2941174999999987},{"name":"G#3","midi":56,"time":101.999949000001,"velocity":0.7480314960629921,"duration":0.2941174999999987},{"name":"A3","midi":57,"time":102.352890000001,"velocity":0.7480314960629921,"duration":0.9999995000000013},{"name":"G3","midi":55,"time":103.411713000001,"velocity":0.7480314960629921,"duration":0.1727940312500067},{"name":"F#3","midi":54,"time":103.58818350000101,"velocity":0.7480314960629921,"duration":0.1727940312500067},{"name":"G3","midi":55,"time":103.76465400000102,"velocity":0.7480314960629921,"duration":0.08823524999999677},{"name":"E3","midi":52,"time":104.11759500000102,"velocity":0.7480314960629921,"duration":0.6470585},{"name":"D#3","midi":51,"time":104.82347700000102,"velocity":0.7480314960629921,"duration":0.1727940312500067},{"name":"C#3","midi":49,"time":104.99994750000103,"velocity":0.7480314960629921,"duration":0.1727940312500067},{"name":"E3","midi":52,"time":105.17641800000104,"velocity":0.7480314960629921,"duration":0.040441156249997334},{"name":"D#3","midi":51,"time":105.22053562500103,"velocity":0.7480314960629921,"duration":0.040441156249997334},{"name":"E3","midi":52,"time":105.26465325000103,"velocity":0.7480314960629921,"duration":0.040441156249997334},{"name":"D#3","midi":51,"time":105.30877087500103,"velocity":0.7480314960629921,"duration":0.5147056250000048},{"name":"E3","midi":52,"time":105.88230000000104,"velocity":0.7480314960629921,"duration":0.08823524999999677},{"name":"B3","midi":59,"time":106.23524100000104,"velocity":0.7480314960629921,"duration":0.08823524999999677},{"name":"E4","midi":64,"time":106.58818200000104,"velocity":0.7480314960629921,"duration":1.3235287499999941},{"name":"E4","midi":64,"time":107.99994600000103,"velocity":0.7480314960629921,"duration":0.040441156249997334},{"name":"D#4","midi":63,"time":108.04406362500103,"velocity":0.7480314960629921,"duration":0.040441156249997334},{"name":"E4","midi":64,"time":108.08818125000103,"velocity":0.7480314960629921,"duration":0.040441156249997334},{"name":"D#4","midi":63,"time":108.13229887500103,"velocity":0.7480314960629921,"duration":0.5147056250000048},{"name":"E4","midi":64,"time":108.70582800000103,"velocity":0.7480314960629921,"duration":0.6176467500000058},{"name":"D4","midi":62,"time":109.76465100000104,"velocity":0.7480314960629921,"duration":0.2941174999999987},{"name":"C#4","midi":61,"time":110.11759200000104,"velocity":0.7480314960629921,"duration":0.08823524999999677},{"name":"A#4","midi":70,"time":110.47053300000104,"velocity":0.7480314960629921,"duration":0.2941174999999987},{"name":"A#4","midi":70,"time":110.82347400000104,"velocity":0.7480314960629921,"duration":0.040441156249997334},{"name":"A4","midi":69,"time":110.86759162500104,"velocity":0.7480314960629921,"duration":0.040441156249997334},{"name":"A#4","midi":70,"time":110.91170925000104,"velocity":0.7480314960629921,"duration":0.040441156249997334},{"name":"A4","midi":69,"time":110.95582687500104,"velocity":0.7480314960629921,"duration":0.21691165625000508},{"name":"G4","midi":67,"time":111.17641500000104,"velocity":0.7480314960629921,"duration":0.2941174999999987},{"name":"A#3","midi":58,"time":111.52935600000104,"velocity":0.7480314960629921,"duration":0.08823524999999677},{"name":"G4","midi":67,"time":111.88229700000105,"velocity":0.7480314960629921,"duration":0.2941174999999987},{"name":"G4","midi":67,"time":112.23523800000105,"velocity":0.7480314960629921,"duration":0.040441156249997334},{"name":"F4","midi":65,"time":112.27935562500105,"velocity":0.7480314960629921,"duration":0.040441156249997334},{"name":"G4","midi":67,"time":112.32347325000104,"velocity":0.7480314960629921,"duration":0.040441156249997334},{"name":"F4","midi":65,"time":112.36759087500104,"velocity":0.7480314960629921,"duration":0.21691165625000508},{"name":"E4","midi":64,"time":112.58817900000105,"velocity":0.7480314960629921,"duration":0.2941174999999987},{"name":"G3","midi":55,"time":112.94112000000105,"velocity":0.7480314960629921,"duration":0.08823524999999677},{"name":"E4","midi":64,"time":113.29406100000105,"velocity":0.7480314960629921,"duration":0.2941174999999987},{"name":"E4","midi":64,"time":113.64700200000105,"velocity":0.7480314960629921,"duration":0.040441156249997334},{"name":"D4","midi":62,"time":113.69111962500105,"velocity":0.7480314960629921,"duration":0.040441156249997334},{"name":"E4","midi":64,"time":113.73523725000105,"velocity":0.7480314960629921,"duration":0.040441156249997334},{"name":"D4","midi":62,"time":113.77935487500105,"velocity":0.7480314960629921,"duration":0.21691165625000508},{"name":"C#4","midi":61,"time":113.99994300000105,"velocity":0.7480314960629921,"duration":0.2941174999999987},{"name":"D4","midi":62,"time":114.35288400000105,"velocity":0.7480314960629921,"duration":0.1727940312500067},{"name":"A3","midi":57,"time":114.52935450000106,"velocity":0.7480314960629921,"duration":0.1727940312500067},{"name":"D4","midi":62,"time":114.70582500000107,"velocity":0.7480314960629921,"duration":0.1727940312500067},{"name":"E4","midi":64,"time":114.88229550000108,"velocity":0.7480314960629921,"duration":0.1727940312500067},{"name":"F4","midi":65,"time":115.05876600000109,"velocity":0.7480314960629921,"duration":0.1727940312500067},{"name":"G4","midi":67,"time":115.2352365000011,"velocity":0.7480314960629921,"duration":0.1727940312500067},{"name":"G#4","midi":68,"time":115.4117070000011,"velocity":0.7480314960629921,"duration":0.1727940312500067},{"name":"F4","midi":65,"time":115.58817750000111,"velocity":0.7480314960629921,"duration":0.1727940312500067},{"name":"D4","midi":62,"time":115.76464800000112,"velocity":0.7480314960629921,"duration":0.1727940312500067},{"name":"E4","midi":64,"time":115.94111850000112,"velocity":0.7480314960629921,"duration":0.1727940312500067},{"name":"F4","midi":65,"time":116.11758900000113,"velocity":0.7480314960629921,"duration":0.47058800000000645},{"name":"E4","midi":64,"time":116.64700050000114,"velocity":0.7480314960629921,"duration":0.1727940312500067},{"name":"D4","midi":62,"time":116.82347100000115,"velocity":0.7480314960629921,"duration":0.1727940312500067},{"name":"C4","midi":60,"time":116.99994150000116,"velocity":0.7480314960629921,"duration":0.1727940312500067},{"name":"B3","midi":59,"time":117.17641200000116,"velocity":0.7480314960629921,"duration":0.1727940312500067},{"name":"C4","midi":60,"time":117.35288250000117,"velocity":0.7480314960629921,"duration":0.1727940312500067},{"name":"D4","midi":62,"time":117.52935300000118,"velocity":0.7480314960629921,"duration":0.47058800000000645},{"name":"C4","midi":60,"time":118.05876450000119,"velocity":0.7480314960629921,"duration":0.1727940312500067},{"name":"B3","midi":59,"time":118.2352350000012,"velocity":0.7480314960629921,"duration":0.1727940312500067},{"name":"A3","midi":57,"time":118.4117055000012,"velocity":0.7480314960629921,"duration":0.1727940312500067},{"name":"B3","midi":59,"time":118.58817600000121,"velocity":0.7480314960629921,"duration":0.1727940312500067},{"name":"G3","midi":55,"time":118.76464650000122,"velocity":0.7480314960629921,"duration":0.1727940312500067},{"name":"B3","midi":59,"time":118.94111700000123,"velocity":0.7480314960629921,"duration":0.1727940312500067},{"name":"C4","midi":60,"time":119.11758750000124,"velocity":0.7480314960629921,"duration":0.1727940312500067},{"name":"D4","midi":62,"time":119.29405800000124,"velocity":0.7480314960629921,"duration":0.1727940312500067},{"name":"E4","midi":64,"time":119.47052850000125,"velocity":0.7480314960629921,"duration":0.1727940312500067},{"name":"F4","midi":65,"time":119.64699900000126,"velocity":0.7480314960629921,"duration":0.1727940312500067},{"name":"D4","midi":62,"time":119.82346950000127,"velocity":0.7480314960629921,"duration":0.1727940312500067},{"name":"E4","midi":64,"time":119.99994000000127,"velocity":0.7480314960629921,"duration":0.08823524999999677},{"name":"E3","midi":52,"time":120.35288100000128,"velocity":0.7480314960629921,"duration":0.08823524999999677},{"name":"A3","midi":57,"time":120.70582200000128,"velocity":0.7480314960629921,"duration":0.9999995000000013},{"name":"G3","midi":55,"time":121.76464500000128,"velocity":0.7480314960629921,"duration":0.1727940312500067},{"name":"F#3","midi":54,"time":121.94111550000129,"velocity":0.7480314960629921,"duration":0.1727940312500067},{"name":"G3","midi":55,"time":122.1175860000013,"velocity":0.7480314960629921,"duration":0.9999995000000013},{"name":"A3","midi":57,"time":123.1764090000013,"velocity":0.7480314960629921,"duration":0.1727940312500067},{"name":"B3","midi":59,"time":123.35287950000131,"velocity":0.7480314960629921,"duration":0.1727940312500067},{"name":"C4","midi":60,"time":123.52935000000132,"velocity":0.7480314960629921,"duration":0.9999995000000013},{"name":"A#3","midi":58,"time":124.58817300000132,"velocity":0.7480314960629921,"duration":0.1727940312500067},{"name":"A3","midi":57,"time":124.76464350000133,"velocity":0.7480314960629921,"duration":0.1727940312500067},{"name":"A#3","midi":58,"time":124.94111400000133,"velocity":0.7480314960629921,"duration":14.382345749999985},{"name":"B3","midi":59,"time":125.94111350000134,"velocity":0.007874015748031496,"duration":6.705878999999982},{"name":"B3","midi":59,"time":125.94111350000134,"velocity":0.007874015748031496,"duration":9.499995250000012},{"name":"C4","midi":60,"time":125.99993700000134,"velocity":0.7480314960629921,"duration":0.1727940312500067},{"name":"D4","midi":62,"time":126.17640750000135,"velocity":0.7480314960629921,"duration":0.1727940312500067},{"name":"D#4","midi":63,"time":126.35287800000135,"velocity":0.7480314960629921,"duration":26.029398749999572},{"name":"E4","midi":64,"time":127.35287750000136,"velocity":0.007874015748031496,"duration":3.17646900000004},{"name":"E4","midi":64,"time":127.35287750000136,"velocity":0.007874015748031496,"duration":4.029409749999999},{"name":"D4","midi":62,"time":127.41170100000136,"velocity":0.7480314960629921,"duration":0.1727940312500067},{"name":"C#4","midi":61,"time":127.58817150000137,"velocity":0.7480314960629921,"duration":0.1727940312500067},{"name":"D4","midi":62,"time":127.76464200000137,"velocity":0.7480314960629921,"duration":1.3235287500000084},{"name":"D4","midi":62,"time":129.17640600000138,"velocity":0.7480314960629921,"duration":0.040441156250011545},{"name":"C#4","midi":61,"time":129.2205236250014,"velocity":0.7480314960629921,"duration":0.040441156250011545},{"name":"D4","midi":62,"time":129.2646412500014,"velocity":0.7480314960629921,"duration":0.040441156250011545},{"name":"C#4","midi":61,"time":129.30875887500142,"velocity":0.7480314960629921,"duration":0.5147056250000048},{"name":"D4","midi":62,"time":129.8822880000014,"velocity":0.7480314960629921,"duration":0.2941174999999987},{"name":"E4","midi":64,"time":130.2352290000014,"velocity":0.7480314960629921,"duration":13.76102253124975},{"name":"F4","midi":65,"time":130.58817000000138,"velocity":0.7480314960629921,"duration":0.2941174999999987},{"name":"D4","midi":62,"time":130.94111100000137,"velocity":0.7480314960629921,"duration":0.2941174999999987},{"name":"E4","midi":64,"time":131.29405200000136,"velocity":0.7480314960629921,"duration":15.172786531249699},{"name":"D4","midi":62,"time":131.64699300000134,"velocity":0.7480314960629921,"duration":0.2941174999999987},{"name":"C4","midi":60,"time":131.99993400000133,"velocity":0.7480314960629921,"duration":0.2941174999999987},{"name":"B3","midi":59,"time":132.35287500000132,"velocity":0.7480314960629921,"duration":8.113966531249957},{"name":"A3","midi":57,"time":132.7058160000013,"velocity":0.7480314960629921,"duration":0.17279403124999249},{"name":"E3","midi":52,"time":132.8822865000013,"velocity":0.7480314960629921,"duration":0.17279403124999249},{"name":"A3","midi":57,"time":133.0587570000013,"velocity":0.7480314960629921,"duration":0.6176467500000058},{"name":"A3","midi":57,"time":133.7646390000013,"velocity":0.7480314960629921,"duration":0.040441156250011545},{"name":"G#3","midi":56,"time":133.8087566250013,"velocity":0.7480314960629921,"duration":0.040441156250011545},{"name":"A3","midi":57,"time":133.85287425000132,"velocity":0.7480314960629921,"duration":0.040441156250011545},{"name":"G#3","midi":56,"time":133.89699187500133,"velocity":0.7480314960629921,"duration":0.21691165625000508},{"name":"A3","midi":57,"time":134.11758000000134,"velocity":0.7480314960629921,"duration":0.6176467500000058},{"name":"B3","midi":59,"time":134.82346200000134,"velocity":0.7480314960629921,"duration":6.525732031249902},{"name":"C4","midi":60,"time":135.52934400000134,"velocity":0.7480314960629921,"duration":0.6176467500000058},{"name":"E3","midi":52,"time":136.23522600000135,"velocity":0.7480314960629921,"duration":0.6176467500000058},{"name":"F3","midi":53,"time":136.94110800000135,"velocity":0.7480314960629921,"duration":0.17279403124999249},{"name":"E3","midi":52,"time":137.11757850000134,"velocity":0.7480314960629921,"duration":0.17279403124999249},{"name":"D3","midi":50,"time":137.29404900000134,"velocity":0.7480314960629921,"duration":0.6176467500000058},{"name":"E3","midi":52,"time":137.99993100000134,"velocity":0.7480314960629921,"duration":0.17279403124999249},{"name":"F#3","midi":54,"time":138.17640150000133,"velocity":0.7480314960629921,"duration":0.17279403124999249},{"name":"G3","midi":55,"time":138.35287200000133,"velocity":0.7480314960629921,"duration":0.17279403124999249},{"name":"A3","midi":57,"time":138.52934250000132,"velocity":0.7480314960629921,"duration":0.17279403124999249},{"name":"A#3","midi":58,"time":138.7058130000013,"velocity":0.7480314960629921,"duration":13.676463749999613},{"name":"A3","midi":57,"time":139.41169500000132,"velocity":0.7480314960629921,"duration":0.17279403124999249},{"name":"G#3","midi":56,"time":139.5881655000013,"velocity":0.7480314960629921,"duration":0.17279403124999249},{"name":"A3","midi":57,"time":139.7646360000013,"velocity":0.7480314960629921,"duration":0.17279403124999249},{"name":"E3","midi":52,"time":139.9411065000013,"velocity":0.7480314960629921,"duration":0.17279403124999249},{"name":"A3","midi":57,"time":140.1175770000013,"velocity":0.7480314960629921,"duration":0.17279403124999249},{"name":"B3","midi":59,"time":140.29404750000128,"velocity":0.7480314960629921,"duration":1.4080875312499472},{"name":"A3","midi":57,"time":140.47051800000128,"velocity":0.7480314960629921,"duration":0.17279403124999249},{"name":"E3","midi":52,"time":140.64698850000127,"velocity":0.7480314960629921,"duration":0.17279403124999249},{"name":"A3","midi":57,"time":140.82345900000126,"velocity":0.7480314960629921,"duration":0.17279403124999249},{"name":"C4","midi":60,"time":140.99992950000126,"velocity":0.7480314960629921,"duration":0.17279403124999249},{"name":"B3","midi":59,"time":141.17640000000125,"velocity":0.7480314960629921,"duration":0.8786760312499666},{"name":"E3","midi":52,"time":141.35287050000125,"velocity":0.7480314960629921,"duration":0.17279403124999249},{"name":"B3","midi":59,"time":141.52934100000124,"velocity":0.7480314960629921,"duration":0.8786760312499666},{"name":"C4","midi":60,"time":141.70581150000123,"velocity":0.7480314960629921,"duration":0.17279403124999249},{"name":"B3","midi":59,"time":141.88228200000123,"velocity":0.7480314960629921,"duration":2.290440031249915},{"name":"E3","midi":52,"time":142.05875250000122,"velocity":0.7480314960629921,"duration":0.17279403124999249},{"name":"B3","midi":59,"time":142.2352230000012,"velocity":0.7480314960629921,"duration":2.290440031249915},{"name":"D4","midi":62,"time":142.4116935000012,"velocity":0.7480314960629921,"duration":0.17279403124999249},{"name":"C4","midi":60,"time":142.5881640000012,"velocity":0.7480314960629921,"duration":0.17279403124999249},{"name":"E3","midi":52,"time":142.7646345000012,"velocity":0.7480314960629921,"duration":0.17279403124999249},{"name":"C4","midi":60,"time":142.9411050000012,"velocity":0.7480314960629921,"duration":0.17279403124999249},{"name":"D4","midi":62,"time":143.11757550000118,"velocity":0.7480314960629921,"duration":0.17279403124999249},{"name":"C4","midi":60,"time":143.29404600000117,"velocity":0.7480314960629921,"duration":0.17279403124999249},{"name":"E3","midi":52,"time":143.47051650000117,"velocity":0.7480314960629921,"duration":0.17279403124999249},{"name":"C4","midi":60,"time":143.64698700000116,"velocity":0.7480314960629921,"duration":0.17279403124999249},{"name":"E4","midi":64,"time":143.82345750000115,"velocity":0.7480314960629921,"duration":3.349263031249876},{"name":"B3","midi":59,"time":143.99992800000115,"velocity":0.7480314960629921,"duration":0.8786760312499666},{"name":"E3","midi":52,"time":144.17639850000114,"velocity":0.7480314960629921,"duration":0.17279403124999249},{"name":"B3","midi":59,"time":144.35286900000114,"velocity":0.7480314960629921,"duration":0.8786760312499666},{"name":"C4","midi":60,"time":144.52933950000113,"velocity":0.7480314960629921,"duration":0.17279403124999249},{"name":"B3","midi":59,"time":144.70581000000112,"velocity":0.7480314960629921,"duration":1.2316170312499537},{"name":"E3","midi":52,"time":144.88228050000112,"velocity":0.7480314960629921,"duration":0.17279403124999249},{"name":"B3","midi":59,"time":145.0587510000011,"velocity":0.7480314960629921,"duration":0},{"name":"D4","midi":62,"time":145.2352215000011,"velocity":0.7480314960629921,"duration":0.17279403124999249},{"name":"C4","midi":60,"time":145.4116920000011,"velocity":0.7480314960629921,"duration":0.17279403124999249},{"name":"A3","midi":57,"time":145.5881625000011,"velocity":0.7480314960629921,"duration":0.17279403124999249},{"name":"B3","midi":59,"time":145.76463300000108,"velocity":0.7480314960629921,"duration":0},{"name":"C#4","midi":61,"time":145.94110350000108,"velocity":0.7480314960629921,"duration":0.17279403124999249},{"name":"D4","midi":62,"time":146.11757400000107,"velocity":0.7480314960629921,"duration":0.17279403124999249},{"name":"E4","midi":64,"time":146.29404450000106,"velocity":0.7480314960629921,"duration":0},{"name":"F4","midi":65,"time":146.47051500000106,"velocity":0.7480314960629921,"duration":0.17279403124999249},{"name":"G4","midi":67,"time":146.64698550000105,"velocity":0.7480314960629921,"duration":0.17279403124999249},{"name":"F4","midi":65,"time":146.82345600000104,"velocity":0.7480314960629921,"duration":0.17279403124999249},{"name":"E4","midi":64,"time":146.99992650000104,"velocity":0.7480314960629921,"duration":0},{"name":"D4","midi":62,"time":147.17639700000103,"velocity":0.7480314960629921,"duration":0.17279403124999249},{"name":"C#4","midi":61,"time":147.35286750000103,"velocity":0.7480314960629921,"duration":0.17279403124999249},{"name":"D4","midi":62,"time":147.52933800000102,"velocity":0.7480314960629921,"duration":0.2941174999999987},{"name":"D3","midi":50,"time":147.882279000001,"velocity":0.7480314960629921,"duration":0.6470585000000142},{"name":"C3","midi":48,"time":148.588161000001,"velocity":0.7480314960629921,"duration":0.17279403124999249},{"name":"B2","midi":47,"time":148.764631500001,"velocity":0.7480314960629921,"duration":0.17279403124999249},{"name":"C3","midi":48,"time":148.941102000001,"velocity":0.7480314960629921,"duration":0.2941174999999987},{"name":"D3","midi":50,"time":149.29404300000098,"velocity":0.7480314960629921,"duration":0.2941174999999987},{"name":"E3","midi":52,"time":149.64698400000097,"velocity":0.7480314960629921,"duration":0.2941174999999987},{"name":"D3","midi":50,"time":149.99992500000096,"velocity":0.7480314960629921,"duration":0.2941174999999987},{"name":"E3","midi":52,"time":150.35286600000094,"velocity":0.7480314960629921,"duration":0.2941174999999987},{"name":"E2","midi":40,"time":150.70580700000093,"velocity":0.7480314960629921,"duration":0.2941174999999987},{"name":"A2","midi":45,"time":151.05874800000092,"velocity":0.7480314960629921,"duration":1.3235287500000084}],"controlChanges":{"7":[{"number":7,"time":0,"value":0.8661417322834646}],"10":[{"number":10,"time":0,"value":0.3700787401574803}]},"id":2,"name":"L.H.","instrumentNumber":6,"instrument":"harpsichord","instrumentFamily":"piano","channelNumber":0,"isPercussion":false}]}