{"header":{"PPQ":384,"timeSignature":[2,4],"bpm":105.99995053335641,"name":"--------"},"startTime":0,"duration":632.7818401093717,"tracks":[{"startTime":0,"duration":0,"length":0,"notes":[],"controlChanges":{},"id":0,"name":"--------"},{"startTime":0.283019,"duration":632.7818401093717,"length":4654,"notes":[{"name":"D4","midi":62,"time":0.283019,"velocity":0.7637795275590551,"duration":1.1306019427083336},{"name":"A#3","midi":58,"time":0.283019,"velocity":0.7637795275590551,"duration":2.256781713541667},{"name":"A#4","midi":70,"time":0.566038,"velocity":0.7637795275590551,"duration":0.2815449427083334},{"name":"C5","midi":72,"time":0.8490570000000002,"velocity":0.7637795275590551,"duration":0.09286560937499999},{"name":"A#4","midi":70,"time":0.9433966666666669,"velocity":0.7637795275590551,"duration":0.09286560937499999},{"name":"C5","midi":72,"time":1.0377363333333336,"velocity":0.7637795275590551,"duration":0.09286560937499999},{"name":"A#4","midi":70,"time":1.1320760000000003,"velocity":0.7637795275590551,"duration":0.09286560937499999},{"name":"A4","midi":69,"time":1.226415666666667,"velocity":0.7637795275590551,"duration":0.09286560937499999},{"name":"A#4","midi":70,"time":1.3207553333333337,"velocity":0.7637795275590551,"duration":0.09286560937499999},{"name":"D#4","midi":63,"time":1.4150950000000004,"velocity":0.7637795275590551,"duration":0.5645639427083331},{"name":"C5","midi":72,"time":1.4150950000000004,"velocity":0.7637795275590551,"duration":0.5159200520833331},{"name":"A#4","midi":70,"time":1.6981140000000003,"velocity":0.7637795275590551,"duration":0.2815449427083332},{"name":"F4","midi":65,"time":1.9811330000000003,"velocity":0.7637795275590551,"duration":0.5645639427083333},{"name":"D5","midi":74,"time":1.9811330000000003,"velocity":0.7637795275590551,"duration":0.5159200520833331},{"name":"A#4","midi":70,"time":2.264152,"velocity":0.7637795275590551,"duration":0.2815449427083334},{"name":"G4","midi":67,"time":2.547171,"velocity":0.7637795275590551,"duration":1.1306019427083323},{"name":"A#3","midi":58,"time":2.547171,"velocity":0.7637795275590551,"duration":2.2567817135416655},{"name":"D#5","midi":75,"time":2.547171,"velocity":0.7637795275590551,"duration":0.648585208333333},{"name":"A#4","midi":70,"time":2.83019,"velocity":0.7637795275590551,"duration":0.2815449427083334},{"name":"C5","midi":72,"time":3.113209,"velocity":0.7637795275590551,"duration":0.09286560937499999},{"name":"A#4","midi":70,"time":3.2075486666666664,"velocity":0.7637795275590551,"duration":0.09286560937499999},{"name":"C5","midi":72,"time":3.301888333333333,"velocity":0.7637795275590551,"duration":0.09286560937499999},{"name":"A#4","midi":70,"time":3.3962279999999994,"velocity":0.7637795275590551,"duration":0.09286560937499999},{"name":"A4","midi":69,"time":3.490567666666666,"velocity":0.7637795275590551,"duration":0.09286560937499999},{"name":"A#4","midi":70,"time":3.5849073333333323,"velocity":0.7637795275590551,"duration":0.09286560937499999},{"name":"F4","midi":65,"time":3.679246999999999,"velocity":0.7637795275590551,"duration":0.5645639427083329},{"name":"D5","midi":74,"time":3.679246999999999,"velocity":0.7637795275590551,"duration":0.5306606249999999},{"name":"A#4","midi":70,"time":3.9622659999999987,"velocity":0.7637795275590551,"duration":0.28154494270833297},{"name":"D#4","midi":63,"time":4.245284999999998,"velocity":0.7637795275590551,"duration":0.5645639427083342},{"name":"D#5","midi":75,"time":4.245284999999998,"velocity":0.7637795275590551,"duration":0.5306606250000003},{"name":"A#4","midi":70,"time":4.5283039999999986,"velocity":0.7637795275590551,"duration":0.28154494270833386},{"name":"D4","midi":62,"time":4.811322999999999,"velocity":0.7637795275590551,"duration":1.1306019427083323},{"name":"A#3","midi":58,"time":4.811322999999999,"velocity":0.7637795275590551,"duration":2.256781713541666},{"name":"F5","midi":77,"time":4.811322999999999,"velocity":0.7637795275590551,"duration":0.737028645833333},{"name":"A#4","midi":70,"time":5.094341999999999,"velocity":0.7637795275590551,"duration":0.28154494270833297},{"name":"C5","midi":72,"time":5.377360999999999,"velocity":0.7637795275590551,"duration":0.09286560937499999},{"name":"A#4","midi":70,"time":5.471700666666665,"velocity":0.7637795275590551,"duration":0.09286560937499999},{"name":"C5","midi":72,"time":5.566040333333332,"velocity":0.7637795275590551,"duration":0.09286560937499999},{"name":"A#4","midi":70,"time":5.660379999999998,"velocity":0.7637795275590551,"duration":0.09286560937499999},{"name":"A4","midi":69,"time":5.754719666666665,"velocity":0.7637795275590551,"duration":0.09286560937499999},{"name":"A#4","midi":70,"time":5.849059333333331,"velocity":0.7637795275590551,"duration":0.09286560937499999},{"name":"D#4","midi":63,"time":5.943398999999998,"velocity":0.7637795275590551,"duration":0.5645639427083333},{"name":"G5","midi":79,"time":5.943398999999998,"velocity":0.7637795275590551,"duration":0.5306606250000003},{"name":"A#4","midi":70,"time":6.226417999999998,"velocity":0.7637795275590551,"duration":0.28154494270833297},{"name":"C4","midi":60,"time":6.5094369999999975,"velocity":0.7637795275590551,"duration":0.5645639427083342},{"name":"A5","midi":81,"time":6.5094369999999975,"velocity":0.7637795275590551,"duration":0.5306606250000003},{"name":"A#4","midi":70,"time":6.792455999999998,"velocity":0.7637795275590551,"duration":0.28154494270833386},{"name":"D4","midi":62,"time":7.075474999999998,"velocity":0.7637795275590551,"duration":0.5645639427083324},{"name":"A#5","midi":82,"time":7.075474999999998,"velocity":0.7637795275590551,"duration":0.28154494270833297},{"name":"A5","midi":81,"time":7.358493999999998,"velocity":0.7637795275590551,"duration":0.14003544270833324},{"name":"G5","midi":79,"time":7.500003499999997,"velocity":0.7637795275590551,"duration":0.14003544270833324},{"name":"A#3","midi":58,"time":7.641512999999997,"velocity":0.7637795275590551,"duration":1.1306019427083305},{"name":"D3","midi":50,"time":7.641512999999997,"velocity":0.7637795275590551,"duration":0.5645639427083315},{"name":"F5","midi":77,"time":7.641512999999997,"velocity":0.7637795275590551,"duration":0.28154494270833297},{"name":"A#5","midi":82,"time":7.924531999999997,"velocity":0.7637795275590551,"duration":0.26238219791666584},{"name":"D#3","midi":51,"time":8.207550999999995,"velocity":0.7637795275590551,"duration":0.5645639427083324},{"name":"C5","midi":72,"time":8.207550999999995,"velocity":0.7637795275590551,"duration":0.14003544270833324},{"name":"D5","midi":74,"time":8.349060499999995,"velocity":0.7637795275590551,"duration":0.14003544270833324},{"name":"D#5","midi":75,"time":8.490569999999995,"velocity":0.7637795275590551,"duration":0.5454011979166662},{"name":"A3","midi":57,"time":8.773588999999994,"velocity":0.7637795275590551,"duration":0.5645639427083324},{"name":"F3","midi":53,"time":8.773588999999994,"velocity":0.7637795275590551,"duration":0.5645639427083324},{"name":"D5","midi":74,"time":9.056607999999994,"velocity":0.7637795275590551,"duration":0.14003544270833324},{"name":"C5","midi":72,"time":9.198117499999993,"velocity":0.7637795275590551,"duration":0.14003544270833324},{"name":"A#3","midi":58,"time":9.339626999999993,"velocity":0.7637795275590551,"duration":0.5645639427083324},{"name":"A#2","midi":46,"time":9.339626999999993,"velocity":0.7637795275590551,"duration":0.5601417708333329},{"name":"D5","midi":74,"time":9.339626999999993,"velocity":0.7637795275590551,"duration":0.14003544270833324},{"name":"C5","midi":72,"time":9.481136499999993,"velocity":0.7637795275590551,"duration":0.14003544270833324},{"name":"A#4","midi":70,"time":9.622645999999992,"velocity":0.7637795275590551,"duration":0.5011794791666659},{"name":"D4","midi":62,"time":9.905664999999992,"velocity":0.7637795275590551,"duration":0.5645639427083324},{"name":"G4","midi":67,"time":10.188683999999991,"velocity":0.7637795275590551,"duration":0.14003544270833324},{"name":"A4","midi":69,"time":10.330193499999991,"velocity":0.7637795275590551,"duration":0.14003544270833324},{"name":"G4","midi":67,"time":10.47170299999999,"velocity":0.7637795275590551,"duration":1.6966399427083303},{"name":"A#4","midi":70,"time":10.47170299999999,"velocity":0.7637795275590551,"duration":0.14003544270833324},{"name":"C5","midi":72,"time":10.61321249999999,"velocity":0.7637795275590551,"duration":0.14003544270833324},{"name":"D5","midi":74,"time":10.75472199999999,"velocity":0.7637795275590551,"duration":0.5645639427083324},{"name":"A#3","midi":58,"time":11.03774099999999,"velocity":0.7637795275590551,"duration":0.5645639427083324},{"name":"C5","midi":72,"time":11.32075999999999,"velocity":0.7637795275590551,"duration":0.14003544270833324},{"name":"A#4","midi":70,"time":11.462269499999989,"velocity":0.7637795275590551,"duration":0.14003544270833324},{"name":"A3","midi":57,"time":11.603778999999989,"velocity":0.7637795275590551,"duration":1.6966399427083303},{"name":"C5","midi":72,"time":11.603778999999989,"velocity":0.7637795275590551,"duration":0.14003544270833324},{"name":"A#4","midi":70,"time":11.745288499999988,"velocity":0.7637795275590551,"duration":0.14003544270833324},{"name":"A4","midi":69,"time":11.886797999999988,"velocity":0.7637795275590551,"duration":0.5306606249999994},{"name":"C4","midi":60,"time":12.169816999999988,"velocity":0.7637795275590551,"duration":0.5645639427083324},{"name":"F4","midi":65,"time":12.452835999999987,"velocity":0.7637795275590551,"duration":0.14003544270833324},{"name":"G4","midi":67,"time":12.594345499999987,"velocity":0.7637795275590551,"duration":0.14003544270833324},{"name":"F4","midi":65,"time":12.735854999999987,"velocity":0.7637795275590551,"duration":1.6966399427083303},{"name":"A4","midi":69,"time":12.735854999999987,"velocity":0.7637795275590551,"duration":0.14003544270833324},{"name":"A#4","midi":70,"time":12.877364499999986,"velocity":0.7637795275590551,"duration":0.14003544270833324},{"name":"C5","midi":72,"time":13.018873999999986,"velocity":0.7637795275590551,"duration":0.5645639427083324},{"name":"D4","midi":62,"time":13.301892999999986,"velocity":0.7637795275590551,"duration":0.5645639427083324},{"name":"A#4","midi":70,"time":13.584911999999985,"velocity":0.7637795275590551,"duration":0.14003544270833324},{"name":"A4","midi":69,"time":13.726421499999985,"velocity":0.7637795275590551,"duration":0.14003544270833324},{"name":"G3","midi":55,"time":13.867930999999984,"velocity":0.7637795275590551,"duration":1.1306019427083314},{"name":"A#4","midi":70,"time":13.867930999999984,"velocity":0.7637795275590551,"duration":0.14003544270833324},{"name":"A4","midi":69,"time":14.009440499999984,"velocity":0.7637795275590551,"duration":0.14003544270833324},{"name":"G4","midi":67,"time":14.150949999999984,"velocity":0.7637795275590551,"duration":0.5527714843749987},{"name":"E4","midi":64,"time":14.433968999999983,"velocity":0.7637795275590551,"duration":0.28154494270833297},{"name":"D4","midi":62,"time":14.716987999999983,"velocity":0.7637795275590551,"duration":0.28154494270833297},{"name":"A4","midi":69,"time":14.716987999999983,"velocity":0.7637795275590551,"duration":0.14003544270833324},{"name":"A#4","midi":70,"time":14.858497499999983,"velocity":0.7637795275590551,"duration":0.14003544270833324},{"name":"E4","midi":64,"time":15.000006999999982,"velocity":0.7637795275590551,"duration":1.1306019427083314},{"name":"C5","midi":72,"time":15.000006999999982,"velocity":0.7637795275590551,"duration":0.14003544270833324},{"name":"D5","midi":74,"time":15.141516499999982,"velocity":0.7637795275590551,"duration":0.14003544270833324},{"name":"E5","midi":76,"time":15.283025999999982,"velocity":0.7637795275590551,"duration":0.14003544270833324},{"name":"F5","midi":77,"time":15.424535499999982,"velocity":0.7637795275590551,"duration":0.14003544270833324},{"name":"C4","midi":60,"time":15.566044999999981,"velocity":0.7637795275590551,"duration":0.5601417708333329},{"name":"G5","midi":79,"time":15.566044999999981,"velocity":0.7637795275590551,"duration":0.28154494270833297},{"name":"A#4","midi":70,"time":15.84906399999998,"velocity":0.7637795275590551,"duration":0.28154494270833297},{"name":"F4","midi":65,"time":16.13208299999998,"velocity":0.7637795275590551,"duration":2.255307656250004},{"name":"C5","midi":72,"time":16.13208299999998,"velocity":0.7637795275590551,"duration":0.140035442708335},{"name":"A#4","midi":70,"time":16.27359249999998,"velocity":0.7637795275590551,"duration":0.140035442708335},{"name":"F3","midi":53,"time":16.415101999999983,"velocity":0.7637795275590551,"duration":0.2815449427083365},{"name":"A4","midi":69,"time":16.415101999999983,"velocity":0.7637795275590551,"duration":0.140035442708335},{"name":"A#4","midi":70,"time":16.556611499999985,"velocity":0.7637795275590551,"duration":0.140035442708335},{"name":"G3","midi":55,"time":16.698120999999986,"velocity":0.7637795275590551,"duration":0.09286560937499999},{"name":"A4","midi":69,"time":16.698120999999986,"velocity":0.7637795275590551,"duration":0.5645639427083324},{"name":"F3","midi":53,"time":16.792460666666653,"velocity":0.7637795275590551,"duration":0.09286560937499999},{"name":"G3","midi":55,"time":16.88680033333332,"velocity":0.7637795275590551,"duration":0.09286560937499999},{"name":"F3","midi":53,"time":16.981139999999986,"velocity":0.7637795275590551,"duration":0.09286560937499999},{"name":"E3","midi":52,"time":17.075479666666652,"velocity":0.7637795275590551,"duration":0.09286560937499999},{"name":"F3","midi":53,"time":17.16981933333332,"velocity":0.7637795275590551,"duration":0.09286560937499999},{"name":"G3","midi":55,"time":17.264158999999985,"velocity":0.7637795275590551,"duration":0.28154494270833297},{"name":"A#4","midi":70,"time":17.264158999999985,"velocity":0.7637795275590551,"duration":0.5645639427083324},{"name":"F3","midi":53,"time":17.547177999999985,"velocity":0.7637795275590551,"duration":0.28154494270833297},{"name":"A3","midi":57,"time":17.830196999999984,"velocity":0.7637795275590551,"duration":0.28154494270833297},{"name":"C5","midi":72,"time":17.830196999999984,"velocity":0.7637795275590551,"duration":0.5645639427083324},{"name":"F3","midi":53,"time":18.113215999999984,"velocity":0.7637795275590551,"duration":0.28154494270833297},{"name":"A#3","midi":58,"time":18.396234999999983,"velocity":0.7637795275590551,"duration":0.28154494270833297},{"name":"D5","midi":74,"time":18.396234999999983,"velocity":0.7637795275590551,"duration":0.5645639427083324},{"name":"F4","midi":65,"time":18.396234999999983,"velocity":0.7637795275590551,"duration":2.2553076562499967},{"name":"F3","midi":53,"time":18.679253999999982,"velocity":0.7637795275590551,"duration":0.28154494270833297},{"name":"G3","midi":55,"time":18.962272999999982,"velocity":0.7637795275590551,"duration":0.09286560937499999},{"name":"C5","midi":72,"time":18.962272999999982,"velocity":0.7637795275590551,"duration":0.28154494270833297},{"name":"F3","midi":53,"time":19.05661266666665,"velocity":0.7637795275590551,"duration":0.09286560937499999},{"name":"G3","midi":55,"time":19.150952333333315,"velocity":0.7637795275590551,"duration":0.09286560937499999},{"name":"F3","midi":53,"time":19.24529199999998,"velocity":0.7637795275590551,"duration":0.09286560937499999},{"name":"A#4","midi":70,"time":19.24529199999998,"velocity":0.7637795275590551,"duration":0.28154494270833297},{"name":"E3","midi":52,"time":19.339631666666648,"velocity":0.7637795275590551,"duration":0.09286560937499999},{"name":"F3","midi":53,"time":19.433971333333314,"velocity":0.7637795275590551,"duration":0.09286560937499999},{"name":"A3","midi":57,"time":19.52831099999998,"velocity":0.7637795275590551,"duration":0.28154494270833297},{"name":"C5","midi":72,"time":19.52831099999998,"velocity":0.7637795275590551,"duration":0.5645639427083324},{"name":"F3","midi":53,"time":19.81132999999998,"velocity":0.7637795275590551,"duration":0.28154494270833297},{"name":"A#3","midi":58,"time":20.09434899999998,"velocity":0.7637795275590551,"duration":0.28154494270833297},{"name":"D5","midi":74,"time":20.09434899999998,"velocity":0.7637795275590551,"duration":0.5645639427083324},{"name":"F3","midi":53,"time":20.37736799999998,"velocity":0.7637795275590551,"duration":0.28154494270833297},{"name":"A4","midi":69,"time":20.66038699999998,"velocity":0.7637795275590551,"duration":0.5645639427083324},{"name":"C4","midi":60,"time":20.66038699999998,"velocity":0.7637795275590551,"duration":0.28154494270833297},{"name":"D#5","midi":75,"time":20.66038699999998,"velocity":0.7637795275590551,"duration":0.5645639427083324},{"name":"F3","midi":53,"time":20.943405999999978,"velocity":0.7637795275590551,"duration":0.28154494270833297},{"name":"A#4","midi":70,"time":21.226424999999978,"velocity":0.7637795275590551,"duration":1.6966399427083303},{"name":"G3","midi":55,"time":21.226424999999978,"velocity":0.7637795275590551,"duration":0.09286560937499999},{"name":"D5","midi":74,"time":21.226424999999978,"velocity":0.7637795275590551,"duration":0.28154494270833297},{"name":"F3","midi":53,"time":21.320764666666644,"velocity":0.7637795275590551,"duration":0.09286560937499999},{"name":"G3","midi":55,"time":21.41510433333331,"velocity":0.7637795275590551,"duration":0.09286560937499999},{"name":"F3","midi":53,"time":21.509443999999977,"velocity":0.7637795275590551,"duration":0.09286560937499999},{"name":"E5","midi":76,"time":21.509443999999977,"velocity":0.7637795275590551,"duration":0.28154494270833297},{"name":"E3","midi":52,"time":21.603783666666644,"velocity":0.7637795275590551,"duration":0.09286560937499999},{"name":"F3","midi":53,"time":21.69812333333331,"velocity":0.7637795275590551,"duration":0.09286560937499999},{"name":"D4","midi":62,"time":21.792462999999977,"velocity":0.7637795275590551,"duration":0.38325489583333194},{"name":"F5","midi":77,"time":21.792462999999977,"velocity":0.7637795275590551,"duration":0.5645639427083324},{"name":"F3","midi":53,"time":22.075481999999976,"velocity":0.7637795275590551,"duration":0.30955203124999997},{"name":"E4","midi":64,"time":22.358500999999976,"velocity":0.7637795275590551,"duration":0.44221718749999894},{"name":"G5","midi":79,"time":22.358500999999976,"velocity":0.7637795275590551,"duration":0.5719342291666649},{"name":"F3","midi":53,"time":22.641519999999975,"velocity":0.7637795275590551,"duration":0.28154494270833297},{"name":"A4","midi":69,"time":22.924538999999974,"velocity":0.7637795275590551,"duration":1.130601942708335},{"name":"F4","midi":65,"time":22.924538999999974,"velocity":0.7637795275590551,"duration":0.28154494270833297},{"name":"E4","midi":64,"time":23.207557999999974,"velocity":0.7637795275590551,"duration":0.140035442708335},{"name":"D4","midi":62,"time":23.349067499999975,"velocity":0.7637795275590551,"duration":0.140035442708335},{"name":"C4","midi":60,"time":23.490576999999977,"velocity":0.7637795275590551,"duration":0.28154494270833297},{"name":"F5","midi":77,"time":23.490576999999977,"velocity":0.7637795275590551,"duration":0.7075475000000004},{"name":"F4","midi":65,"time":23.773595999999976,"velocity":0.7637795275590551,"duration":0.28154494270833297},{"name":"A#4","midi":70,"time":24.056614999999976,"velocity":0.7637795275590551,"duration":0.564563942708336},{"name":"G3","midi":55,"time":24.056614999999976,"velocity":0.7637795275590551,"duration":0.140035442708335},{"name":"A3","midi":57,"time":24.198124499999977,"velocity":0.7637795275590551,"duration":0.140035442708335},{"name":"A#3","midi":58,"time":24.33963399999998,"velocity":0.7637795275590551,"duration":0.554245541666667},{"name":"G4","midi":67,"time":24.62265299999998,"velocity":0.7637795275590551,"duration":0.5601417708333329},{"name":"E5","midi":76,"time":24.62265299999998,"velocity":0.7637795275590551,"duration":0.545401197916668},{"name":"A3","midi":57,"time":24.905671999999978,"velocity":0.7637795275590551,"duration":0.140035442708335},{"name":"G3","midi":55,"time":25.04718149999998,"velocity":0.7637795275590551,"duration":0.14003544270833146},{"name":"A3","midi":57,"time":25.188690999999977,"velocity":0.7637795275590551,"duration":0.140035442708335},{"name":"F5","midi":77,"time":25.188690999999977,"velocity":0.7637795275590551,"duration":2.828715942708346},{"name":"G3","midi":55,"time":25.33020049999998,"velocity":0.7637795275590551,"duration":0.140035442708335},{"name":"F3","midi":53,"time":25.47170999999998,"velocity":0.7637795275590551,"duration":0.5011794791666659},{"name":"C5","midi":72,"time":25.75472899999998,"velocity":0.7637795275590551,"duration":0.564563942708336},{"name":"A3","midi":57,"time":26.03774799999998,"velocity":0.7637795275590551,"duration":0.140035442708335},{"name":"A#3","midi":58,"time":26.17925749999998,"velocity":0.7637795275590551,"duration":0.140035442708335},{"name":"A4","midi":69,"time":26.320766999999982,"velocity":0.7637795275590551,"duration":0.564563942708336},{"name":"C4","midi":60,"time":26.320766999999982,"velocity":0.7637795275590551,"duration":0.140035442708335},{"name":"D4","midi":62,"time":26.462276499999984,"velocity":0.7637795275590551,"duration":0.140035442708335},{"name":"D#4","midi":63,"time":26.603785999999985,"velocity":0.7637795275590551,"duration":0.5645639427083324},{"name":"F4","midi":65,"time":26.886804999999985,"velocity":0.7637795275590551,"duration":0.564563942708336},{"name":"D4","midi":62,"time":27.169823999999984,"velocity":0.7637795275590551,"duration":0.140035442708335},{"name":"C4","midi":60,"time":27.311333499999986,"velocity":0.7637795275590551,"duration":0.140035442708335},{"name":"A#4","midi":70,"time":27.452842999999987,"velocity":0.7637795275590551,"duration":1.412146885416675},{"name":"D4","midi":62,"time":27.452842999999987,"velocity":0.7637795275590551,"duration":0.140035442708335},{"name":"C4","midi":60,"time":27.59435249999999,"velocity":0.7637795275590551,"duration":0.140035442708335},{"name":"A#3","midi":58,"time":27.73586199999999,"velocity":0.7637795275590551,"duration":0.5159200520833345},{"name":"F5","midi":77,"time":28.01888099999999,"velocity":0.7637795275590551,"duration":0.5645639427083395},{"name":"D4","midi":62,"time":28.301899999999993,"velocity":0.7637795275590551,"duration":0.140035442708335},{"name":"D#4","midi":63,"time":28.443409499999994,"velocity":0.7637795275590551,"duration":0.140035442708335},{"name":"F4","midi":65,"time":28.584918999999996,"velocity":0.7637795275590551,"duration":0.140035442708335},{"name":"D5","midi":74,"time":28.584918999999996,"velocity":0.7637795275590551,"duration":0.5645639427083324},{"name":"G4","midi":67,"time":28.726428499999997,"velocity":0.7637795275590551,"duration":0.14003544270833146},{"name":"G#4","midi":68,"time":28.867937999999995,"velocity":0.7637795275590551,"duration":0.5645639427083324},{"name":"A#4","midi":70,"time":29.150956999999995,"velocity":0.7637795275590551,"duration":0.564563942708336},{"name":"G4","midi":67,"time":29.433975999999994,"velocity":0.7637795275590551,"duration":0.140035442708335},{"name":"F4","midi":65,"time":29.575485499999996,"velocity":0.7637795275590551,"duration":0.140035442708335},{"name":"G4","midi":67,"time":29.716994999999997,"velocity":0.7637795275590551,"duration":0.140035442708335},{"name":"D#5","midi":75,"time":29.716994999999997,"velocity":0.7637795275590551,"duration":1.695165885416678},{"name":"F4","midi":65,"time":29.8585045,"velocity":0.7637795275590551,"duration":0.140035442708335},{"name":"D#4","midi":63,"time":30.000014,"velocity":0.7637795275590551,"duration":0.5159200520833345},{"name":"G5","midi":79,"time":30.283033,"velocity":0.7637795275590551,"duration":0.5645639427083395},{"name":"D4","midi":62,"time":30.566052000000003,"velocity":0.7637795275590551,"duration":0.140035442708335},{"name":"D#4","midi":63,"time":30.707561500000004,"velocity":0.7637795275590551,"duration":0.140035442708335},{"name":"F4","midi":65,"time":30.849071000000006,"velocity":0.7637795275590551,"duration":0.140035442708335},{"name":"C6","midi":84,"time":30.849071000000006,"velocity":0.7637795275590551,"duration":1.6966399427083338},{"name":"G4","midi":67,"time":30.990580500000007,"velocity":0.7637795275590551,"duration":0.140035442708335},{"name":"A4","midi":69,"time":31.13209000000001,"velocity":0.7637795275590551,"duration":0.140035442708335},{"name":"A#4","midi":70,"time":31.27359950000001,"velocity":0.7637795275590551,"duration":0.14003544270833146},{"name":"D#5","midi":75,"time":31.415109000000008,"velocity":0.7637795275590551,"duration":0.5645639427083324},{"name":"C5","midi":72,"time":31.415109000000008,"velocity":0.7637795275590551,"duration":0.28154494270833297},{"name":"D#4","midi":63,"time":31.698128000000008,"velocity":0.7637795275590551,"duration":0.28154494270833297},{"name":"D5","midi":74,"time":31.981147000000007,"velocity":0.7637795275590551,"duration":1.6966399427083232},{"name":"F4","midi":65,"time":31.981147000000007,"velocity":0.7637795275590551,"duration":0.14003544270833146},{"name":"D#4","midi":63,"time":32.122656500000005,"velocity":0.7637795275590551,"duration":0.14003544270833146},{"name":"D4","midi":62,"time":32.264166,"velocity":0.7637795275590551,"duration":0.530660625000003},{"name":"F5","midi":77,"time":32.547185000000006,"velocity":0.7637795275590551,"duration":0.5645639427083324},{"name":"C4","midi":60,"time":32.83020400000001,"velocity":0.7637795275590551,"duration":0.14003544270833146},{"name":"D4","midi":62,"time":32.97171350000001,"velocity":0.7637795275590551,"duration":0.14003544270833146},{"name":"D#4","midi":63,"time":33.113223000000005,"velocity":0.7637795275590551,"duration":0.14003544270833146},{"name":"A#5","midi":82,"time":33.113223000000005,"velocity":0.7637795275590551,"duration":1.6966399427083303},{"name":"F4","midi":65,"time":33.2547325,"velocity":0.7637795275590551,"duration":0.14003544270833146},{"name":"G4","midi":67,"time":33.396242,"velocity":0.7637795275590551,"duration":0.14003544270833146},{"name":"A4","midi":69,"time":33.5377515,"velocity":0.7637795275590551,"duration":0.14003544270833146},{"name":"D5","midi":74,"time":33.679261,"velocity":0.7637795275590551,"duration":0.5645639427083395},{"name":"A#4","midi":70,"time":33.679261,"velocity":0.7637795275590551,"duration":0.2815449427083365},{"name":"D4","midi":62,"time":33.96228,"velocity":0.7637795275590551,"duration":0.2815449427083365},{"name":"C5","midi":72,"time":34.245299,"velocity":0.7637795275590551,"duration":1.979658942708312},{"name":"D#4","midi":63,"time":34.245299,"velocity":0.7637795275590551,"duration":0.14003544270833146},{"name":"D4","midi":62,"time":34.3868085,"velocity":0.7637795275590551,"duration":0.14003544270833146},{"name":"C4","midi":60,"time":34.528318,"velocity":0.7637795275590551,"duration":0.4230544427083345},{"name":"A5","midi":81,"time":34.811337,"velocity":0.7637795275590551,"duration":0.2815449427083294},{"name":"A#3","midi":58,"time":34.9528465,"velocity":0.7637795275590551,"duration":0.14003544270833146},{"name":"A3","midi":57,"time":35.094356,"velocity":0.7637795275590551,"duration":0.14003544270833146},{"name":"G5","midi":79,"time":35.094356,"velocity":0.7637795275590551,"duration":0.2815449427083294},{"name":"A#3","midi":58,"time":35.235865499999996,"velocity":0.7637795275590551,"duration":0.14003544270833146},{"name":"C4","midi":60,"time":35.377374999999994,"velocity":0.7637795275590551,"duration":0.14003544270833146},{"name":"A5","midi":81,"time":35.377374999999994,"velocity":0.7637795275590551,"duration":0.2815449427083294},{"name":"D4","midi":62,"time":35.51888449999999,"velocity":0.7637795275590551,"duration":0.14003544270833146},{"name":"D#4","midi":63,"time":35.66039399999999,"velocity":0.7637795275590551,"duration":0.14003544270833146},{"name":"F#5","midi":78,"time":35.66039399999999,"velocity":0.7637795275590551,"duration":0.2815449427083294},{"name":"D4","midi":62,"time":35.80190349999999,"velocity":0.7637795275590551,"duration":0.14003544270833146},{"name":"C4","midi":60,"time":35.943412999999985,"velocity":0.7637795275590551,"duration":0.14003544270833146},{"name":"G5","midi":79,"time":35.943412999999985,"velocity":0.7637795275590551,"duration":0.5645639427083253},{"name":"A#3","midi":58,"time":36.08492249999998,"velocity":0.7637795275590551,"duration":0.14003544270833146},{"name":"A#4","midi":70,"time":36.22643199999998,"velocity":0.7637795275590551,"duration":0.2815449427083294},{"name":"A3","midi":57,"time":36.22643199999998,"velocity":0.7637795275590551,"duration":0.14003544270833146},{"name":"G3","midi":55,"time":36.36794149999998,"velocity":0.7637795275590551,"duration":0.14003544270833146},{"name":"A4","midi":69,"time":36.50945099999998,"velocity":0.7637795275590551,"duration":1.1306019427083598},{"name":"D4","midi":62,"time":36.50945099999998,"velocity":0.7637795275590551,"duration":0.28007088541667},{"name":"F#5","midi":78,"time":36.50945099999998,"velocity":0.7637795275590551,"duration":0.5645639427083395},{"name":"D4","midi":62,"time":36.79246999999998,"velocity":0.7637795275590551,"duration":0.2815449427083365},{"name":"D#4","midi":63,"time":37.07548899999998,"velocity":0.7637795275590551,"duration":0.09286560937500354},{"name":"F#5","midi":78,"time":37.07548899999998,"velocity":0.7637795275590551,"duration":0.5645639427083537},{"name":"D4","midi":62,"time":37.16982866666665,"velocity":0.7637795275590551,"duration":0.09286560937500354},{"name":"D#4","midi":63,"time":37.26416833333332,"velocity":0.7637795275590551,"duration":0.09286560937500354},{"name":"D4","midi":62,"time":37.35850799999999,"velocity":0.7637795275590551,"duration":0.09286560937500354},{"name":"C#4","midi":61,"time":37.45284766666666,"velocity":0.7637795275590551,"duration":0.09286560937500354},{"name":"D4","midi":62,"time":37.54718733333333,"velocity":0.7637795275590551,"duration":0.09286560937500354},{"name":"E4","midi":64,"time":37.641527,"velocity":0.7637795275590551,"duration":0.501179479166673},{"name":"G5","midi":79,"time":37.641527,"velocity":0.7637795275590551,"duration":0.5645639427083395},{"name":"D4","midi":62,"time":37.92454600000001,"velocity":0.7637795275590551,"duration":0.2815449427083365},{"name":"F#4","midi":66,"time":38.20756500000001,"velocity":0.7637795275590551,"duration":0.515920052083338},{"name":"A5","midi":81,"time":38.20756500000001,"velocity":0.7637795275590551,"duration":0.5645639427083395},{"name":"D4","midi":62,"time":38.49058400000001,"velocity":0.7637795275590551,"duration":0.2815449427083365},{"name":"G4","midi":67,"time":38.773603000000016,"velocity":0.7637795275590551,"duration":0.2815449427083365},{"name":"D3","midi":50,"time":38.773603000000016,"velocity":0.7637795275590551,"duration":0.28007088541667},{"name":"A#4","midi":70,"time":38.773603000000016,"velocity":0.7637795275590551,"duration":0.5645639427083395},{"name":"D4","midi":62,"time":39.05662200000002,"velocity":0.7637795275590551,"duration":0.2815449427083365},{"name":"D#4","midi":63,"time":39.33964100000002,"velocity":0.7637795275590551,"duration":0.09286560937500354},{"name":"G5","midi":79,"time":39.33964100000002,"velocity":0.7637795275590551,"duration":0.5645639427083537},{"name":"D4","midi":62,"time":39.43398066666669,"velocity":0.7637795275590551,"duration":0.09286560937500354},{"name":"D#4","midi":63,"time":39.52832033333336,"velocity":0.7637795275590551,"duration":0.09286560937500354},{"name":"D4","midi":62,"time":39.62266000000003,"velocity":0.7637795275590551,"duration":0.09286560937500354},{"name":"C#4","midi":61,"time":39.7169996666667,"velocity":0.7637795275590551,"duration":0.09286560937500354},{"name":"D4","midi":62,"time":39.81133933333337,"velocity":0.7637795275590551,"duration":0.09286560937500354},{"name":"F#4","midi":66,"time":39.90567900000004,"velocity":0.7637795275590551,"duration":0.471698333333336},{"name":"A5","midi":81,"time":39.90567900000004,"velocity":0.7637795275590551,"duration":0.5645639427083395},{"name":"D4","midi":62,"time":40.188698000000045,"velocity":0.7637795275590551,"duration":0.2815449427083365},{"name":"G4","midi":67,"time":40.47171700000005,"velocity":0.7637795275590551,"duration":0.471698333333336},{"name":"A#5","midi":82,"time":40.47171700000005,"velocity":0.7637795275590551,"duration":0.5645639427083395},{"name":"D4","midi":62,"time":40.75473600000005,"velocity":0.7637795275590551,"duration":0.2815449427083365},{"name":"A4","midi":69,"time":41.037755000000054,"velocity":0.7637795275590551,"duration":0.501179479166673},{"name":"C5","midi":72,"time":41.037755000000054,"velocity":0.7637795275590551,"duration":0.5645639427083395},{"name":"D3","midi":50,"time":41.32077400000006,"velocity":0.7637795275590551,"duration":0.2815449427083365},{"name":"C5","midi":72,"time":41.60379300000006,"velocity":0.7637795275590551,"duration":0.5645639427083537},{"name":"D#3","midi":51,"time":41.60379300000006,"velocity":0.7637795275590551,"duration":0.09286560937500354},{"name":"D#5","midi":75,"time":41.60379300000006,"velocity":0.7637795275590551,"duration":0.5645639427083537},{"name":"D3","midi":50,"time":41.69813266666673,"velocity":0.7637795275590551,"duration":0.09286560937500354},{"name":"D#3","midi":51,"time":41.7924723333334,"velocity":0.7637795275590551,"duration":0.09286560937500354},{"name":"D3","midi":50,"time":41.88681200000007,"velocity":0.7637795275590551,"duration":0.09286560937500354},{"name":"C#3","midi":49,"time":41.98115166666674,"velocity":0.7637795275590551,"duration":0.09286560937500354},{"name":"D3","midi":50,"time":42.07549133333341,"velocity":0.7637795275590551,"duration":0.09286560937500354},{"name":"A#4","midi":70,"time":42.16983100000008,"velocity":0.7637795275590551,"duration":0.5645639427083395},{"name":"E3","midi":52,"time":42.16983100000008,"velocity":0.7637795275590551,"duration":0.2815449427083365},{"name":"D5","midi":74,"time":42.16983100000008,"velocity":0.7637795275590551,"duration":0.5645639427083395},{"name":"D3","midi":50,"time":42.45285000000008,"velocity":0.7637795275590551,"duration":0.2815449427083365},{"name":"A4","midi":69,"time":42.735869000000086,"velocity":0.7637795275590551,"duration":0.707547500000004},{"name":"F#3","midi":54,"time":42.735869000000086,"velocity":0.7637795275590551,"duration":0.2815449427083365},{"name":"C5","midi":72,"time":42.735869000000086,"velocity":0.7637795275590551,"duration":0.5645639427083395},{"name":"D3","midi":50,"time":43.01888800000009,"velocity":0.7637795275590551,"duration":0.2815449427083365},{"name":"G3","midi":55,"time":43.30190700000009,"velocity":0.7637795275590551,"duration":0.5645639427083324},{"name":"A#4","midi":70,"time":43.30190700000009,"velocity":0.7637795275590551,"duration":0.14003544270833146},{"name":"C5","midi":72,"time":43.44341650000009,"velocity":0.7637795275590551,"duration":0.14003544270833146},{"name":"D5","midi":74,"time":43.58492600000009,"velocity":0.7637795275590551,"duration":0.5645639427083395},{"name":"G4","midi":67,"time":43.86794500000009,"velocity":0.7637795275590551,"duration":1.1306019427083314},{"name":"A#2","midi":46,"time":43.86794500000009,"velocity":0.7637795275590551,"duration":0.5645639427083324},{"name":"C5","midi":72,"time":44.150964000000094,"velocity":0.7637795275590551,"duration":0.14003544270833146},{"name":"A#4","midi":70,"time":44.29247350000009,"velocity":0.7637795275590551,"duration":0.14003544270833146},{"name":"C3","midi":48,"time":44.43398300000009,"velocity":0.7637795275590551,"duration":0.5645639427083324},{"name":"A4","midi":69,"time":44.43398300000009,"velocity":0.7637795275590551,"duration":0.14003544270833146},{"name":"A#4","midi":70,"time":44.57549250000009,"velocity":0.7637795275590551,"duration":0.14003544270833146},{"name":"C5","midi":72,"time":44.717002000000086,"velocity":0.7637795275590551,"duration":0.5645639427083395},{"name":"F#4","midi":66,"time":45.00002100000009,"velocity":0.7637795275590551,"duration":0.55719365625},{"name":"D3","midi":50,"time":45.00002100000009,"velocity":0.7637795275590551,"duration":0.5645639427083324},{"name":"A#4","midi":70,"time":45.28304000000009,"velocity":0.7637795275590551,"duration":0.14003544270833146},{"name":"A4","midi":69,"time":45.42454950000009,"velocity":0.7637795275590551,"duration":0.14003544270833146},{"name":"G4","midi":67,"time":45.56605900000009,"velocity":0.7637795275590551,"duration":1.4136209427083628},{"name":"G2","midi":43,"time":45.56605900000009,"velocity":0.7637795275590551,"duration":0.5645639427083395},{"name":"A#4","midi":70,"time":45.56605900000009,"velocity":0.7637795275590551,"duration":0.2815449427083365},{"name":"D5","midi":74,"time":45.84907800000009,"velocity":0.7637795275590551,"duration":0.2815449427083365},{"name":"G3","midi":55,"time":46.132097000000094,"velocity":0.7637795275590551,"duration":1.1306019427083598},{"name":"D#5","midi":75,"time":46.132097000000094,"velocity":0.7637795275590551,"duration":0.09286560937500354},{"name":"D5","midi":74,"time":46.226436666666764,"velocity":0.7637795275590551,"duration":0.09286560937500354},{"name":"D#5","midi":75,"time":46.320776333333434,"velocity":0.7637795275590551,"duration":0.09286560937500354},{"name":"D5","midi":74,"time":46.415116000000104,"velocity":0.7637795275590551,"duration":0.09286560937500354},{"name":"C#5","midi":73,"time":46.509455666666774,"velocity":0.7637795275590551,"duration":0.09286560937500354},{"name":"D5","midi":74,"time":46.603795333333444,"velocity":0.7637795275590551,"duration":0.09286560937500354},{"name":"A#5","midi":82,"time":46.698135000000114,"velocity":0.7637795275590551,"duration":1.6966399427083658},{"name":"D5","midi":74,"time":46.98115400000012,"velocity":0.7637795275590551,"duration":0.2815449427083365},{"name":"D#5","midi":75,"time":47.26417300000012,"velocity":0.7637795275590551,"duration":0.09286560937500354},{"name":"F3","midi":53,"time":47.26417300000012,"velocity":0.7637795275590551,"duration":0.5645639427083537},{"name":"D5","midi":74,"time":47.35851266666679,"velocity":0.7637795275590551,"duration":0.09286560937500354},{"name":"D#5","midi":75,"time":47.45285233333346,"velocity":0.7637795275590551,"duration":0.09286560937500354},{"name":"D5","midi":74,"time":47.54719200000013,"velocity":0.7637795275590551,"duration":0.09286560937500354},{"name":"C5","midi":72,"time":47.6415316666668,"velocity":0.7637795275590551,"duration":0.09286560937500354},{"name":"D5","midi":74,"time":47.73587133333347,"velocity":0.7637795275590551,"duration":0.18867933333334008},{"name":"G5","midi":79,"time":47.83021100000014,"velocity":0.7637795275590551,"duration":0.2815449427083365},{"name":"E3","midi":52,"time":47.83021100000014,"velocity":0.7637795275590551,"duration":0.5645639427083395},{"name":"C5","midi":72,"time":48.113230000000144,"velocity":0.7637795275590551,"duration":0.5645639427083395},{"name":"F3","midi":53,"time":48.39624900000015,"velocity":0.7637795275590551,"duration":0.5645639427083395},{"name":"A5","midi":81,"time":48.39624900000015,"velocity":0.7637795275590551,"duration":0.8475829427083426},{"name":"C5","midi":72,"time":48.67926800000015,"velocity":0.7637795275590551,"duration":0.2815449427083365},{"name":"D5","midi":74,"time":48.96228700000015,"velocity":0.7637795275590551,"duration":0.5645639427083395},{"name":"A#2","midi":46,"time":48.96228700000015,"velocity":0.7637795275590551,"duration":0.5645639427083395},{"name":"G5","midi":79,"time":49.245306000000156,"velocity":0.7637795275590551,"duration":0.5645639427083395},{"name":"A#4","midi":70,"time":49.52832500000016,"velocity":0.7637795275590551,"duration":0.571934229166672},{"name":"G2","midi":43,"time":49.52832500000016,"velocity":0.7637795275590551,"duration":0.5645639427083395},{"name":"F5","midi":77,"time":49.81134400000016,"velocity":0.7637795275590551,"duration":0.2815449427083365},{"name":"C3","midi":48,"time":50.094363000000165,"velocity":0.7637795275590551,"duration":2.255307656250018},{"name":"E5","midi":76,"time":50.094363000000165,"velocity":0.7637795275590551,"duration":0.5601417708333258},{"name":"C5","midi":72,"time":50.37738200000016,"velocity":0.7637795275590551,"duration":0.2815449427083294},{"name":"E4","midi":64,"time":50.66040100000016,"velocity":0.7637795275590551,"duration":0.5645639427083537},{"name":"D5","midi":74,"time":50.66040100000016,"velocity":0.7637795275590551,"duration":0.09286560937500354},{"name":"C5","midi":72,"time":50.75474066666683,"velocity":0.7637795275590551,"duration":0.09286560937500354},{"name":"D5","midi":74,"time":50.8490803333335,"velocity":0.7637795275590551,"duration":0.09286560937500354},{"name":"C5","midi":72,"time":50.94342000000017,"velocity":0.7637795275590551,"duration":0.09286560937500354},{"name":"B4","midi":71,"time":51.03775966666684,"velocity":0.7637795275590551,"duration":0.09286560937500354},{"name":"C5","midi":72,"time":51.13209933333351,"velocity":0.7637795275590551,"duration":0.09286560937500354},{"name":"F4","midi":65,"time":51.22643900000018,"velocity":0.7637795275590551,"duration":0.5645639427083395},{"name":"D5","midi":74,"time":51.22643900000018,"velocity":0.7637795275590551,"duration":0.2815449427083365},{"name":"C5","midi":72,"time":51.50945800000018,"velocity":0.7637795275590551,"duration":0.2815449427083365},{"name":"G4","midi":67,"time":51.79247700000018,"velocity":0.7637795275590551,"duration":0.5645639427083324},{"name":"E5","midi":76,"time":51.79247700000018,"velocity":0.7637795275590551,"duration":0.2815449427083365},{"name":"C5","midi":72,"time":52.075496000000186,"velocity":0.7637795275590551,"duration":0.2815449427083294},{"name":"A4","midi":69,"time":52.35851500000018,"velocity":0.7637795275590551,"duration":0.5645639427083395},{"name":"C3","midi":48,"time":52.35851500000018,"velocity":0.7637795275590551,"duration":2.255307656250025},{"name":"F5","midi":77,"time":52.35851500000018,"velocity":0.7637795275590551,"duration":0.2815449427083365},{"name":"C5","midi":72,"time":52.641534000000185,"velocity":0.7637795275590551,"duration":0.2815449427083365},{"name":"F4","midi":65,"time":52.92455300000019,"velocity":0.7637795275590551,"duration":0.5645639427083537},{"name":"D5","midi":74,"time":52.92455300000019,"velocity":0.7637795275590551,"duration":0.09286560937500354},{"name":"C5","midi":72,"time":53.01889266666686,"velocity":0.7637795275590551,"duration":0.09286560937500354},{"name":"D5","midi":74,"time":53.11323233333353,"velocity":0.7637795275590551,"duration":0.09286560937500354},{"name":"C5","midi":72,"time":53.2075720000002,"velocity":0.7637795275590551,"duration":0.09286560937500354},{"name":"B4","midi":71,"time":53.30191166666687,"velocity":0.7637795275590551,"duration":0.09286560937500354},{"name":"C5","midi":72,"time":53.39625133333354,"velocity":0.7637795275590551,"duration":0.09286560937500354},{"name":"G4","midi":67,"time":53.49059100000021,"velocity":0.7637795275590551,"duration":0.5645639427083395},{"name":"E5","midi":76,"time":53.49059100000021,"velocity":0.7637795275590551,"duration":0.32429260416667205},{"name":"C5","midi":72,"time":53.77361000000021,"velocity":0.7637795275590551,"duration":0.5601417708333329},{"name":"A4","midi":69,"time":54.056629000000214,"velocity":0.7637795275590551,"duration":0.5645639427083253},{"name":"F5","midi":77,"time":54.056629000000214,"velocity":0.7637795275590551,"duration":0.2815449427083294},{"name":"C5","midi":72,"time":54.33964800000021,"velocity":0.7637795275590551,"duration":0.2815449427083294},{"name":"A#4","midi":70,"time":54.622667000000206,"velocity":0.7637795275590551,"duration":0.5645639427083324},{"name":"G5","midi":79,"time":54.622667000000206,"velocity":0.7637795275590551,"duration":0.14003544270833146},{"name":"F5","midi":77,"time":54.764176500000204,"velocity":0.7637795275590551,"duration":0.14003544270833146},{"name":"E5","midi":76,"time":54.9056860000002,"velocity":0.7637795275590551,"duration":0.530660625000003},{"name":"E4","midi":64,"time":55.188705000000205,"velocity":0.7637795275590551,"duration":0.5645639427083324},{"name":"C4","midi":60,"time":55.188705000000205,"velocity":0.7637795275590551,"duration":0.5645639427083324},{"name":"D5","midi":74,"time":55.47172400000021,"velocity":0.7637795275590551,"duration":0.14003544270833146},{"name":"C5","midi":72,"time":55.613233500000206,"velocity":0.7637795275590551,"duration":0.14003544270833146},{"name":"F4","midi":65,"time":55.754743000000204,"velocity":0.7637795275590551,"duration":0.5645639427083324},{"name":"D4","midi":62,"time":55.754743000000204,"velocity":0.7637795275590551,"duration":0.5645639427083324},{"name":"A#5","midi":82,"time":55.754743000000204,"velocity":0.7637795275590551,"duration":0.14003544270833146},{"name":"A5","midi":81,"time":55.8962525000002,"velocity":0.7637795275590551,"duration":0.14003544270833146},{"name":"G5","midi":79,"time":56.0377620000002,"velocity":0.7637795275590551,"duration":0.545401197916668},{"name":"G4","midi":67,"time":56.3207810000002,"velocity":0.7637795275590551,"duration":0.5645639427083253},{"name":"E4","midi":64,"time":56.3207810000002,"velocity":0.7637795275590551,"duration":0.5645639427083253},{"name":"F5","midi":77,"time":56.6038000000002,"velocity":0.7637795275590551,"duration":0.14003544270833146},{"name":"E5","midi":76,"time":56.7453095000002,"velocity":0.7637795275590551,"duration":0.14003544270833146},{"name":"A4","midi":69,"time":56.886819000000195,"velocity":0.7637795275590551,"duration":1.1306019427083172},{"name":"F4","midi":65,"time":56.886819000000195,"velocity":0.7637795275590551,"duration":0.5645639427083253},{"name":"C6","midi":84,"time":56.886819000000195,"velocity":0.7637795275590551,"duration":0.14003544270833146},{"name":"E5","midi":76,"time":57.02832850000019,"velocity":0.7637795275590551,"duration":0.14003544270833146},{"name":"F5","midi":77,"time":57.16983800000019,"velocity":0.7637795275590551,"duration":0.14003544270833146},{"name":"G5","midi":79,"time":57.31134750000019,"velocity":0.7637795275590551,"duration":0.14003544270833146},{"name":"A#3","midi":58,"time":57.452857000000186,"velocity":0.7637795275590551,"duration":0.5645639427083253},{"name":"F5","midi":77,"time":57.452857000000186,"velocity":0.7637795275590551,"duration":0.14003544270833146},{"name":"E5","midi":76,"time":57.594366500000184,"velocity":0.7637795275590551,"duration":0.14003544270833146},{"name":"F5","midi":77,"time":57.73587600000018,"velocity":0.7637795275590551,"duration":0.14003544270833146},{"name":"D5","midi":74,"time":57.87738550000018,"velocity":0.7637795275590551,"duration":0.14003544270833146},{"name":"G4","midi":67,"time":58.01889500000018,"velocity":0.7637795275590551,"duration":1.1306019427083314},{"name":"C4","midi":60,"time":58.01889500000018,"velocity":0.7637795275590551,"duration":0.5645639427083253},{"name":"F5","midi":77,"time":58.01889500000018,"velocity":0.7637795275590551,"duration":0.21079019270833044},{"name":"E5","midi":76,"time":58.231159250000175,"velocity":0.7637795275590551,"duration":0.06928069270833248},{"name":"F5","midi":77,"time":58.301914000000174,"velocity":0.7637795275590551,"duration":0.06928069270833248},{"name":"E5","midi":76,"time":58.37266875000017,"velocity":0.7637795275590551,"duration":0.06928069270833248},{"name":"F5","midi":77,"time":58.44342350000017,"velocity":0.7637795275590551,"duration":0.06928069270833248},{"name":"E5","midi":76,"time":58.51417825000017,"velocity":0.7637795275590551,"duration":0.3522996927083355},{"name":"C3","midi":48,"time":58.58493300000017,"velocity":0.7637795275590551,"duration":0.5645639427083395},{"name":"F5","midi":77,"time":58.86795200000017,"velocity":0.7637795275590551,"duration":0.2815449427083365},{"name":"A4","midi":69,"time":59.150971000000176,"velocity":0.7637795275590551,"duration":0.5645639427083324},{"name":"F2","midi":41,"time":59.150971000000176,"velocity":0.7637795275590551,"duration":0.5601417708333329},{"name":"F5","midi":77,"time":59.150971000000176,"velocity":0.7637795275590551,"duration":0.5601417708333329},{"name":"C4","midi":60,"time":59.717009000000175,"velocity":0.7637795275590551,"duration":0.5645639427083324},{"name":"A4","midi":69,"time":60.00002800000018,"velocity":0.7637795275590551,"duration":0.14003544270833146},{"name":"A#4","midi":70,"time":60.141537500000176,"velocity":0.7637795275590551,"duration":0.14003544270833146},{"name":"A3","midi":57,"time":60.283047000000174,"velocity":0.7637795275590551,"duration":0.5645639427083324},{"name":"C5","midi":72,"time":60.283047000000174,"velocity":0.7637795275590551,"duration":0.14003544270833146},{"name":"D5","midi":74,"time":60.42455650000017,"velocity":0.7637795275590551,"duration":0.14003544270833146},{"name":"D#5","midi":75,"time":60.56606600000017,"velocity":0.7637795275590551,"duration":0.5645639427083395},{"name":"F3","midi":53,"time":60.84908500000017,"velocity":0.7637795275590551,"duration":0.5645639427083324},{"name":"D5","midi":74,"time":61.132104000000176,"velocity":0.7637795275590551,"duration":0.14003544270833146},{"name":"C5","midi":72,"time":61.273613500000174,"velocity":0.7637795275590551,"duration":0.14003544270833146},{"name":"A#3","midi":58,"time":61.41512300000017,"velocity":0.7637795275590551,"duration":2.828715942708321},{"name":"D5","midi":74,"time":61.41512300000017,"velocity":0.7637795275590551,"duration":0.14003544270833146},{"name":"C5","midi":72,"time":61.55663250000017,"velocity":0.7637795275590551,"duration":0.14003544270833146},{"name":"A#4","midi":70,"time":61.69814200000017,"velocity":0.7637795275590551,"duration":0.501179479166673},{"name":"F3","midi":53,"time":61.98116100000017,"velocity":0.7637795275590551,"duration":0.5645639427083324},{"name":"D5","midi":74,"time":62.264180000000174,"velocity":0.7637795275590551,"duration":0.14003544270833146},{"name":"D#5","midi":75,"time":62.40568950000017,"velocity":0.7637795275590551,"duration":0.14003544270833146},{"name":"D3","midi":50,"time":62.54719900000017,"velocity":0.7637795275590551,"duration":0.5645639427083324},{"name":"F5","midi":77,"time":62.54719900000017,"velocity":0.7637795275590551,"duration":0.14003544270833146},{"name":"G5","midi":79,"time":62.68870850000017,"velocity":0.7637795275590551,"duration":0.14003544270833146},{"name":"G#5","midi":80,"time":62.830218000000166,"velocity":0.7637795275590551,"duration":0.5645639427083395},{"name":"A#2","midi":46,"time":63.11323700000017,"velocity":0.7637795275590551,"duration":0.5645639427083324},{"name":"G5","midi":79,"time":63.39625600000017,"velocity":0.7637795275590551,"duration":0.14003544270833146},{"name":"F5","midi":77,"time":63.53776550000017,"velocity":0.7637795275590551,"duration":0.14003544270833146},{"name":"D#3","midi":51,"time":63.67927500000017,"velocity":0.7637795275590551,"duration":1.6966399427083942},{"name":"G5","midi":79,"time":63.67927500000017,"velocity":0.7637795275590551,"duration":0.14003544270833146},{"name":"F5","midi":77,"time":63.820784500000165,"velocity":0.7637795275590551,"duration":0.14003544270833146},{"name":"D#5","midi":75,"time":63.96229400000016,"velocity":0.7637795275590551,"duration":0.530660625000003},{"name":"G3","midi":55,"time":64.24531300000017,"velocity":0.7637795275590551,"duration":0.5645639427083466},{"name":"D5","midi":74,"time":64.52833200000016,"velocity":0.7637795275590551,"duration":0.14003544270833856},{"name":"D#5","midi":75,"time":64.66984150000017,"velocity":0.7637795275590551,"duration":0.14003544270833856},{"name":"C4","midi":60,"time":64.81135100000019,"velocity":0.7637795275590551,"duration":1.130601942708367},{"name":"F5","midi":77,"time":64.81135100000019,"velocity":0.7637795275590551,"duration":0.14003544270833856},{"name":"G5","midi":79,"time":64.9528605000002,"velocity":0.7637795275590551,"duration":0.14003544270833856},{"name":"A5","midi":81,"time":65.09437000000021,"velocity":0.7637795275590551,"duration":0.14003544270833856},{"name":"A#5","midi":82,"time":65.23587950000022,"velocity":0.7637795275590551,"duration":0.14003544270833856},{"name":"D#3","midi":51,"time":65.37738900000024,"velocity":0.7637795275590551,"duration":0.5645639427083182},{"name":"C6","midi":84,"time":65.37738900000024,"velocity":0.7637795275590551,"duration":0.3390331770833228},{"name":"D#5","midi":75,"time":65.66040800000023,"velocity":0.7637795275590551,"duration":0.2815449427083223},{"name":"D3","midi":50,"time":65.94342700000023,"velocity":0.7637795275590551,"duration":1.6966399427084156},{"name":"F5","midi":77,"time":65.94342700000023,"velocity":0.7637795275590551,"duration":0.14003544270833856},{"name":"D#5","midi":75,"time":66.08493650000024,"velocity":0.7637795275590551,"duration":0.14003544270833856},{"name":"D5","midi":74,"time":66.22644600000025,"velocity":0.7637795275590551,"duration":0.5306606249999959},{"name":"F3","midi":53,"time":66.50946500000025,"velocity":0.7637795275590551,"duration":0.5645639427083466},{"name":"C5","midi":72,"time":66.79248400000024,"velocity":0.7637795275590551,"duration":0.14003544270833856},{"name":"D5","midi":74,"time":66.93399350000026,"velocity":0.7637795275590551,"duration":0.14003544270833856},{"name":"A#3","midi":58,"time":67.07550300000027,"velocity":0.7637795275590551,"duration":1.130601942708367},{"name":"D#5","midi":75,"time":67.07550300000027,"velocity":0.7637795275590551,"duration":0.14003544270833856},{"name":"F5","midi":77,"time":67.21701250000028,"velocity":0.7637795275590551,"duration":0.14003544270833856},{"name":"G5","midi":79,"time":67.35852200000029,"velocity":0.7637795275590551,"duration":0.14003544270833856},{"name":"A5","midi":81,"time":67.5000315000003,"velocity":0.7637795275590551,"duration":0.14003544270833856},{"name":"G3","midi":55,"time":67.64154100000032,"velocity":0.7637795275590551,"duration":0.5645639427083182},{"name":"A#5","midi":82,"time":67.64154100000032,"velocity":0.7637795275590551,"duration":0.3390331770833228},{"name":"D5","midi":74,"time":67.92456000000031,"velocity":0.7637795275590551,"duration":0.2815449427083223},{"name":"C3","midi":48,"time":68.20757900000031,"velocity":0.7637795275590551,"duration":1.6966399427084013},{"name":"D#5","midi":75,"time":68.20757900000031,"velocity":0.7637795275590551,"duration":0.14003544270833856},{"name":"D5","midi":74,"time":68.34908850000032,"velocity":0.7637795275590551,"duration":0.14003544270833856},{"name":"C5","midi":72,"time":68.49059800000033,"velocity":0.7637795275590551,"duration":0.5512974270833269},{"name":"A3","midi":57,"time":68.77361700000033,"velocity":0.7637795275590551,"duration":0.2815449427083365},{"name":"G3","midi":55,"time":69.05663600000034,"velocity":0.7637795275590551,"duration":0.28154494270835073},{"name":"D5","midi":74,"time":69.05663600000034,"velocity":0.7637795275590551,"duration":0.14003544270833856},{"name":"D#5","midi":75,"time":69.19814550000035,"velocity":0.7637795275590551,"duration":0.14003544270833856},{"name":"A3","midi":57,"time":69.33965500000036,"velocity":0.7637795275590551,"duration":0.9979367864583821},{"name":"D5","midi":74,"time":69.33965500000036,"velocity":0.7637795275590551,"duration":0.14593167187500455},{"name":"C5","midi":72,"time":69.48116450000036,"velocity":0.7637795275590551,"duration":0.14003544270833856},{"name":"A#4","midi":70,"time":69.62267400000037,"velocity":0.7637795275590551,"duration":0.12971704166666598},{"name":"A4","midi":69,"time":69.76418350000037,"velocity":0.7637795275590551,"duration":0.12971704166666598},{"name":"F3","midi":53,"time":69.90569300000038,"velocity":0.7637795275590551,"duration":0.5645639427083609},{"name":"A#4","midi":70,"time":69.90569300000038,"velocity":0.7637795275590551,"duration":0.14593167187500455},{"name":"A4","midi":69,"time":70.04720250000038,"velocity":0.7637795275590551,"duration":0.14003544270833856},{"name":"G4","midi":67,"time":70.1887120000004,"velocity":0.7637795275590551,"duration":0.14003544270833856},{"name":"F4","midi":65,"time":70.3302215000004,"velocity":0.7637795275590551,"duration":0.28007088541667713},{"name":"A#2","midi":46,"time":70.47173100000042,"velocity":0.7637795275590551,"duration":0.5645639427083609},{"name":"D5","midi":74,"time":70.47173100000042,"velocity":0.7637795275590551,"duration":1.9796589427084115},{"name":"F4","midi":65,"time":70.61324050000042,"velocity":0.7637795275590551,"duration":0.14003544270833856},{"name":"G4","midi":67,"time":70.75475000000043,"velocity":0.7637795275590551,"duration":0.14003544270833856},{"name":"A4","midi":69,"time":70.89625950000044,"velocity":0.7637795275590551,"duration":0.14003544270833856},{"name":"D3","midi":50,"time":71.03776900000045,"velocity":0.7637795275590551,"duration":0.5645639427083466},{"name":"A#4","midi":70,"time":71.03776900000045,"velocity":0.7637795275590551,"duration":0.2815449427083365},{"name":"F4","midi":65,"time":71.32078800000046,"velocity":0.7637795275590551,"duration":0.2815449427083365},{"name":"D#3","midi":51,"time":71.60380700000047,"velocity":0.7637795275590551,"duration":0.5645639427083466},{"name":"G4","midi":67,"time":71.60380700000047,"velocity":0.7637795275590551,"duration":0.2815449427083365},{"name":"D4","midi":62,"time":71.88682600000048,"velocity":0.7637795275590551,"duration":0.2815449427083365},{"name":"C3","midi":48,"time":72.16984500000049,"velocity":0.7637795275590551,"duration":0.5645639427083466},{"name":"D#4","midi":63,"time":72.16984500000049,"velocity":0.7637795275590551,"duration":0.8475829427083568},{"name":"C5","midi":72,"time":72.4528640000005,"velocity":0.7637795275590551,"duration":0.2815449427083365},{"name":"F3","midi":53,"time":72.73588300000051,"velocity":0.7637795275590551,"duration":0.5306606250000101},{"name":"A#4","midi":70,"time":72.73588300000051,"velocity":0.7637795275590551,"duration":0.2815449427083365},{"name":"F2","midi":41,"time":73.01890200000052,"velocity":0.7637795275590551,"duration":0.2815449427083365},{"name":"A4","midi":69,"time":73.01890200000052,"velocity":0.7637795275590551,"duration":0.21226425000000404},{"name":"G2","midi":43,"time":73.30192100000053,"velocity":0.7637795275590551,"duration":0.09286560937499644},{"name":"G5","midi":79,"time":73.30192100000053,"velocity":0.7637795275590551,"duration":0.5645639427083466},{"name":"D#5","midi":75,"time":73.30192100000053,"velocity":0.7637795275590551,"duration":0.5645639427083466},{"name":"F2","midi":41,"time":73.3962606666672,"velocity":0.7637795275590551,"duration":0.09286560937499644},{"name":"G2","midi":43,"time":73.49060033333387,"velocity":0.7637795275590551,"duration":0.09286560937499644},{"name":"F2","midi":41,"time":73.58494000000054,"velocity":0.7637795275590551,"duration":0.09286560937499644},{"name":"E2","midi":40,"time":73.67927966666721,"velocity":0.7637795275590551,"duration":0.09286560937499644},{"name":"F2","midi":41,"time":73.77361933333388,"velocity":0.7637795275590551,"duration":0.09286560937499644},{"name":"G2","midi":43,"time":73.86795900000055,"velocity":0.7637795275590551,"duration":0.2815449427083365},{"name":"F5","midi":77,"time":73.86795900000055,"velocity":0.7637795275590551,"duration":0.5645639427083466},{"name":"D5","midi":74,"time":73.86795900000055,"velocity":0.7637795275590551,"duration":0.5645639427083466},{"name":"F2","midi":41,"time":74.15097800000056,"velocity":0.7637795275590551,"duration":0.2815449427083365},{"name":"A2","midi":45,"time":74.43399700000057,"velocity":0.7637795275590551,"duration":0.2948114583333279},{"name":"D#5","midi":75,"time":74.43399700000057,"velocity":0.7637795275590551,"duration":0.5645639427083324},{"name":"C5","midi":72,"time":74.43399700000057,"velocity":0.7637795275590551,"duration":0.5645639427083324},{"name":"F2","midi":41,"time":74.71701600000057,"velocity":0.7637795275590551,"duration":0.2815449427083365},{"name":"A#2","midi":46,"time":75.00003500000058,"velocity":0.7637795275590551,"duration":0.30955203124999287},{"name":"D5","midi":74,"time":75.00003500000058,"velocity":0.7637795275590551,"duration":0.5630898854166588},{"name":"A#4","midi":70,"time":75.00003500000058,"velocity":0.7637795275590551,"duration":0.4569577604166568},{"name":"F2","midi":41,"time":75.28305400000058,"velocity":0.7637795275590551,"duration":0.2815449427083365},{"name":"G2","midi":43,"time":75.56607300000059,"velocity":0.7637795275590551,"duration":0.09286560937499644},{"name":"A#5","midi":82,"time":75.56607300000059,"velocity":0.7637795275590551,"duration":0.5645639427083466},{"name":"D5","midi":74,"time":75.56607300000059,"velocity":0.7637795275590551,"duration":0.5645639427083466},{"name":"F2","midi":41,"time":75.66041266666726,"velocity":0.7637795275590551,"duration":0.09286560937499644},{"name":"G2","midi":43,"time":75.75475233333393,"velocity":0.7637795275590551,"duration":0.09286560937499644},{"name":"F2","midi":41,"time":75.8490920000006,"velocity":0.7637795275590551,"duration":0.09286560937499644},{"name":"E2","midi":40,"time":75.94343166666727,"velocity":0.7637795275590551,"duration":0.09286560937499644},{"name":"F2","midi":41,"time":76.03777133333394,"velocity":0.7637795275590551,"duration":0.09286560937499644},{"name":"A2","midi":45,"time":76.1321110000006,"velocity":0.7637795275590551,"duration":0.32429260416665784},{"name":"A5","midi":81,"time":76.1321110000006,"velocity":0.7637795275590551,"duration":0.5645639427083182},{"name":"C5","midi":72,"time":76.1321110000006,"velocity":0.7637795275590551,"duration":0.5645639427083182},{"name":"F2","midi":41,"time":76.4151300000006,"velocity":0.7637795275590551,"duration":0.2815449427083223},{"name":"A#2","midi":46,"time":76.6981490000006,"velocity":0.7637795275590551,"duration":0.3390331770833228},{"name":"G5","midi":79,"time":76.6981490000006,"velocity":0.7637795275590551,"duration":0.5645639427083182},{"name":"A#4","midi":70,"time":76.6981490000006,"velocity":0.7637795275590551,"duration":0.5645639427083182},{"name":"F2","midi":41,"time":76.9811680000006,"velocity":0.7637795275590551,"duration":0.2815449427083223},{"name":"C3","midi":48,"time":77.26418700000059,"velocity":0.7637795275590551,"duration":0.36851432291666697},{"name":"F5","midi":77,"time":77.26418700000059,"velocity":0.7637795275590551,"duration":0.5586677135416664},{"name":"A4","midi":69,"time":77.26418700000059,"velocity":0.7637795275590551,"duration":0.471698333333336},{"name":"F2","midi":41,"time":77.54720600000059,"velocity":0.7637795275590551,"duration":0.2815449427083365},{"name":"G2","midi":43,"time":77.8302250000006,"velocity":0.7637795275590551,"duration":0.09286560937499644},{"name":"D#5","midi":75,"time":77.8302250000006,"velocity":0.7637795275590551,"duration":0.5645639427083466},{"name":"C5","midi":72,"time":77.8302250000006,"velocity":0.7637795275590551,"duration":0.5645639427083466},{"name":"F2","midi":41,"time":77.92456466666727,"velocity":0.7637795275590551,"duration":0.09286560937499644},{"name":"G2","midi":43,"time":78.01890433333394,"velocity":0.7637795275590551,"duration":0.09286560937499644},{"name":"F2","midi":41,"time":78.1132440000006,"velocity":0.7637795275590551,"duration":0.09286560937499644},{"name":"E2","midi":40,"time":78.20758366666728,"velocity":0.7637795275590551,"duration":0.09286560937499644},{"name":"F2","midi":41,"time":78.30192333333395,"velocity":0.7637795275590551,"duration":0.09286560937499644},{"name":"D3","midi":50,"time":78.39626300000062,"velocity":0.7637795275590551,"duration":0.38325489583333194},{"name":"D5","midi":74,"time":78.39626300000062,"velocity":0.7637795275590551,"duration":0.5645639427083324},{"name":"A#4","midi":70,"time":78.39626300000062,"velocity":0.7637795275590551,"duration":1.1306019427083385},{"name":"F2","midi":41,"time":78.67928200000061,"velocity":0.7637795275590551,"duration":0.2815449427083365},{"name":"D#3","midi":51,"time":78.96230100000062,"velocity":0.7637795275590551,"duration":0.3979954687499969},{"name":"C5","midi":72,"time":78.96230100000062,"velocity":0.7637795275590551,"duration":0.5645639427083324},{"name":"F2","midi":41,"time":79.24532000000062,"velocity":0.7637795275590551,"duration":0.2815449427083365},{"name":"F3","midi":53,"time":79.52833900000063,"velocity":0.7637795275590551,"duration":0.5645639427083609},{"name":"D5","midi":74,"time":79.52833900000063,"velocity":0.7637795275590551,"duration":0.14003544270833856},{"name":"C5","midi":72,"time":79.66984850000064,"velocity":0.7637795275590551,"duration":0.14003544270833856},{"name":"A#4","midi":70,"time":79.81135800000065,"velocity":0.7637795275590551,"duration":0.2815449427083365},{"name":"G3","midi":55,"time":80.09437700000066,"velocity":0.7637795275590551,"duration":0.28154494270835073},{"name":"D#5","midi":75,"time":80.09437700000066,"velocity":0.7637795275590551,"duration":0.14003544270833856},{"name":"C4","midi":60,"time":80.09437700000066,"velocity":0.7637795275590551,"duration":0.5645639427083609},{"name":"D5","midi":74,"time":80.23588650000067,"velocity":0.7637795275590551,"duration":0.14003544270833856},{"name":"D#3","midi":51,"time":80.37739600000069,"velocity":0.7637795275590551,"duration":0.2815449427083365},{"name":"C5","midi":72,"time":80.37739600000069,"velocity":0.7637795275590551,"duration":0.2815449427083365},{"name":"F3","midi":53,"time":80.6604150000007,"velocity":0.7637795275590551,"duration":1.130601942708367},{"name":"A#4","midi":70,"time":80.6604150000007,"velocity":0.7637795275590551,"duration":0.21079019270833044},{"name":"D4","midi":62,"time":80.6604150000007,"velocity":0.7637795275590551,"duration":0.5645639427083609},{"name":"A4","midi":69,"time":80.8726792500007,"velocity":0.7637795275590551,"duration":0.06928069270833248},{"name":"A#4","midi":70,"time":80.9434340000007,"velocity":0.7637795275590551,"duration":0.06928069270833248},{"name":"A4","midi":69,"time":81.01418875000071,"velocity":0.7637795275590551,"duration":0.06928069270833248},{"name":"A#4","midi":70,"time":81.08494350000072,"velocity":0.7637795275590551,"duration":0.06928069270833248},{"name":"A4","midi":69,"time":81.15569825000073,"velocity":0.7637795275590551,"duration":0.38767706770833854},{"name":"D#4","midi":63,"time":81.22645300000073,"velocity":0.7637795275590551,"duration":0.5645639427083324},{"name":"F2","midi":41,"time":81.22645300000073,"velocity":0.7637795275590551,"duration":0.5601417708333258},{"name":"A#4","midi":70,"time":81.53305691666739,"velocity":0.7637795275590551,"duration":0.24764162499999998},{"name":"A#2","midi":46,"time":81.79249100000074,"velocity":0.7637795275590551,"duration":2.262677942708393},{"name":"A#4","midi":70,"time":81.79249100000074,"velocity":0.7637795275590551,"duration":0.2815449427083365},{"name":"D4","midi":62,"time":81.79249100000074,"velocity":0.7637795275590551,"duration":0.5645639427083466},{"name":"A#4","midi":70,"time":82.07551000000075,"velocity":0.7637795275590551,"duration":0.2815449427083365},{"name":"A#3","midi":58,"time":82.35852900000076,"velocity":0.7637795275590551,"duration":1.130601942708367},{"name":"C5","midi":72,"time":82.35852900000076,"velocity":0.7637795275590551,"duration":0.09286560937499644},{"name":"D4","midi":62,"time":82.35852900000076,"velocity":0.7637795275590551,"duration":0.5645639427083466},{"name":"A#4","midi":70,"time":82.45286866666743,"velocity":0.7637795275590551,"duration":0.09286560937499644},{"name":"C5","midi":72,"time":82.5472083333341,"velocity":0.7637795275590551,"duration":0.09286560937499644},{"name":"A#4","midi":70,"time":82.64154800000077,"velocity":0.7637795275590551,"duration":0.09286560937499644},{"name":"A4","midi":69,"time":82.73588766666744,"velocity":0.7637795275590551,"duration":0.09286560937499644},{"name":"A#4","midi":70,"time":82.83022733333411,"velocity":0.7637795275590551,"duration":0.09286560937499644},{"name":"C5","midi":72,"time":82.92456700000078,"velocity":0.7637795275590551,"duration":0.2815449427083365},{"name":"D#4","midi":63,"time":82.92456700000078,"velocity":0.7637795275590551,"duration":0.5645639427083466},{"name":"A#4","midi":70,"time":83.20758600000079,"velocity":0.7637795275590551,"duration":0.44221718750000605},{"name":"G#3","midi":56,"time":83.4906050000008,"velocity":0.7637795275590551,"duration":0.5645639427083324},{"name":"D5","midi":74,"time":83.4906050000008,"velocity":0.7637795275590551,"duration":0.2815449427083223},{"name":"F4","midi":65,"time":83.4906050000008,"velocity":0.7637795275590551,"duration":1.1306019427083527},{"name":"A#4","midi":70,"time":83.7736240000008,"velocity":0.7637795275590551,"duration":0.2815449427083365},{"name":"G3","midi":55,"time":84.0566430000008,"velocity":0.7637795275590551,"duration":0.5645639427083466},{"name":"A#3","midi":58,"time":84.0566430000008,"velocity":0.7637795275590551,"duration":0.5645639427083466},{"name":"A#2","midi":46,"time":84.0566430000008,"velocity":0.7637795275590551,"duration":2.2626779427084074},{"name":"D#5","midi":75,"time":84.0566430000008,"velocity":0.7637795275590551,"duration":0.2815449427083365},{"name":"A#4","midi":70,"time":84.33966200000081,"velocity":0.7637795275590551,"duration":0.2815449427083365},{"name":"G3","midi":55,"time":84.62268100000082,"velocity":0.7637795275590551,"duration":0.5645639427083466},{"name":"A#3","midi":58,"time":84.62268100000082,"velocity":0.7637795275590551,"duration":0.5645639427083466},{"name":"C5","midi":72,"time":84.62268100000082,"velocity":0.7637795275590551,"duration":0.09286560937499644},{"name":"D#4","midi":63,"time":84.62268100000082,"velocity":0.7637795275590551,"duration":0.5645639427083466},{"name":"A#4","midi":70,"time":84.7170206666675,"velocity":0.7637795275590551,"duration":0.09286560937499644},{"name":"C5","midi":72,"time":84.81136033333416,"velocity":0.7637795275590551,"duration":0.09286560937499644},{"name":"A#4","midi":70,"time":84.90570000000083,"velocity":0.7637795275590551,"duration":0.09286560937499644},{"name":"A4","midi":69,"time":85.0000396666675,"velocity":0.7637795275590551,"duration":0.09286560937499644},{"name":"A#4","midi":70,"time":85.09437933333417,"velocity":0.7637795275590551,"duration":0.09286560937499644},{"name":"F3","midi":53,"time":85.18871900000084,"velocity":0.7637795275590551,"duration":0.5645639427083466},{"name":"A3","midi":57,"time":85.18871900000084,"velocity":0.7637795275590551,"duration":0.5645639427083466},{"name":"D5","midi":74,"time":85.18871900000084,"velocity":0.7637795275590551,"duration":0.2815449427083365},{"name":"D4","midi":62,"time":85.18871900000084,"velocity":0.7637795275590551,"duration":0.5645639427083466},{"name":"A#4","midi":70,"time":85.47173800000085,"velocity":0.7637795275590551,"duration":0.4716983333333502},{"name":"D#3","midi":51,"time":85.75475700000086,"velocity":0.7637795275590551,"duration":0.5645639427083466},{"name":"G3","midi":55,"time":85.75475700000086,"velocity":0.7637795275590551,"duration":0.5645639427083466},{"name":"D#5","midi":75,"time":85.75475700000086,"velocity":0.7637795275590551,"duration":0.2815449427083365},{"name":"C4","midi":60,"time":85.75475700000086,"velocity":0.7637795275590551,"duration":0.5645639427083466},{"name":"A#4","midi":70,"time":86.03777600000087,"velocity":0.7637795275590551,"duration":0.2815449427083365},{"name":"D3","midi":50,"time":86.32079500000089,"velocity":0.7637795275590551,"duration":0.5645639427083466},{"name":"F3","midi":53,"time":86.32079500000089,"velocity":0.7637795275590551,"duration":0.5645639427083466},{"name":"A#2","midi":46,"time":86.32079500000089,"velocity":0.7637795275590551,"duration":2.828715942708399},{"name":"F5","midi":77,"time":86.32079500000089,"velocity":0.7637795275590551,"duration":0.2815449427083365},{"name":"A#3","midi":58,"time":86.32079500000089,"velocity":0.7637795275590551,"duration":0.5645639427083466},{"name":"A#4","midi":70,"time":86.6038140000009,"velocity":0.7637795275590551,"duration":0.2815449427083365},{"name":"G#3","midi":56,"time":86.8868330000009,"velocity":0.7637795275590551,"duration":0.5645639427083466},{"name":"D4","midi":62,"time":86.8868330000009,"velocity":0.7637795275590551,"duration":0.5645639427083466},{"name":"C5","midi":72,"time":86.8868330000009,"velocity":0.7637795275590551,"duration":0.09286560937499644},{"name":"F4","midi":65,"time":86.8868330000009,"velocity":0.7637795275590551,"duration":0.5645639427083466},{"name":"A#4","midi":70,"time":86.98117266666758,"velocity":0.7637795275590551,"duration":0.09286560937499644},{"name":"C5","midi":72,"time":87.07551233333425,"velocity":0.7637795275590551,"duration":0.09286560937499644},{"name":"A#4","midi":70,"time":87.16985200000092,"velocity":0.7637795275590551,"duration":0.09286560937499644},{"name":"A4","midi":69,"time":87.26419166666759,"velocity":0.7637795275590551,"duration":0.09286560937499644},{"name":"A#4","midi":70,"time":87.35853133333426,"velocity":0.7637795275590551,"duration":0.09286560937499644},{"name":"G3","midi":55,"time":87.45287100000093,"velocity":0.7637795275590551,"duration":0.5645639427083182},{"name":"G5","midi":79,"time":87.45287100000093,"velocity":0.7637795275590551,"duration":0.32429260416665784},{"name":"D#4","midi":63,"time":87.45287100000093,"velocity":0.7637795275590551,"duration":0.5645639427083182},{"name":"A#4","midi":70,"time":87.73589000000092,"velocity":0.7637795275590551,"duration":0.5306606249999959},{"name":"F#3","midi":54,"time":88.01890900000092,"velocity":0.7637795275590551,"duration":0.5645639427083324},{"name":"C4","midi":60,"time":88.01890900000092,"velocity":0.7637795275590551,"duration":0.5645639427083324},{"name":"A5","midi":81,"time":88.01890900000092,"velocity":0.7637795275590551,"duration":0.353773750000002},{"name":"D#4","midi":63,"time":88.01890900000092,"velocity":0.7637795275590551,"duration":0.5645639427083324},{"name":"A#4","midi":70,"time":88.30192800000091,"velocity":0.7637795275590551,"duration":0.2815449427083365},{"name":"F3","midi":53,"time":88.58494700000092,"velocity":0.7637795275590551,"duration":0.5645639427083609},{"name":"A#3","midi":58,"time":88.58494700000092,"velocity":0.7637795275590551,"duration":0.5454011979166893},{"name":"A#5","midi":82,"time":88.58494700000092,"velocity":0.7637795275590551,"duration":0.2815449427083365},{"name":"D4","midi":62,"time":88.58494700000092,"velocity":0.7637795275590551,"duration":0.5454011979166893},{"name":"A5","midi":81,"time":88.86796600000093,"velocity":0.7637795275590551,"duration":0.14003544270833856},{"name":"G5","midi":79,"time":89.00947550000095,"velocity":0.7637795275590551,"duration":0.14003544270833856},{"name":"D3","midi":50,"time":89.15098500000096,"velocity":0.7637795275590551,"duration":0.5645639427083466},{"name":"D2","midi":38,"time":89.15098500000096,"velocity":0.7637795275590551,"duration":0.5645639427083466},{"name":"F5","midi":77,"time":89.15098500000096,"velocity":0.7637795275590551,"duration":0.2815449427083365},{"name":"D5","midi":74,"time":89.15098500000096,"velocity":0.7637795275590551,"duration":0.5645639427083466},{"name":"A#5","midi":82,"time":89.43400400000097,"velocity":0.7637795275590551,"duration":0.2815449427083365},{"name":"D#3","midi":51,"time":89.71702300000098,"velocity":0.7637795275590551,"duration":0.5645639427083466},{"name":"D#2","midi":39,"time":89.71702300000098,"velocity":0.7637795275590551,"duration":0.5645639427083466},{"name":"G5","midi":79,"time":89.71702300000098,"velocity":0.7637795275590551,"duration":0.2815449427083365},{"name":"C5","midi":72,"time":89.71702300000098,"velocity":0.7637795275590551,"duration":0.5645639427083466},{"name":"D#5","midi":75,"time":89.71702300000098,"velocity":0.7637795275590551,"duration":0.5645639427083466},{"name":"A#5","midi":82,"time":90.00004200000099,"velocity":0.7637795275590551,"duration":0.2815449427083365},{"name":"F3","midi":53,"time":90.283061000001,"velocity":0.7637795275590551,"duration":0.5645639427083466},{"name":"F2","midi":41,"time":90.283061000001,"velocity":0.7637795275590551,"duration":0.5645639427083466},{"name":"F5","midi":77,"time":90.283061000001,"velocity":0.7637795275590551,"duration":0.2815449427083365},{"name":"C5","midi":72,"time":90.283061000001,"velocity":0.7637795275590551,"duration":0.5645639427083466},{"name":"D#5","midi":75,"time":90.283061000001,"velocity":0.7637795275590551,"duration":0.5645639427083466},{"name":"A5","midi":81,"time":90.56608000000101,"velocity":0.7637795275590551,"duration":0.2815449427083365},{"name":"A#2","midi":46,"time":90.84909900000102,"velocity":0.7637795275590551,"duration":2.261203885416677},{"name":"A#1","midi":34,"time":90.84909900000102,"velocity":0.7637795275590551,"duration":2.261203885416677},{"name":"F5","midi":77,"time":90.84909900000102,"velocity":0.7637795275590551,"duration":2.261203885416677},{"name":"A#5","midi":82,"time":90.84909900000102,"velocity":0.7637795275590551,"duration":2.063680208333338},{"name":"A#4","midi":70,"time":90.84909900000102,"velocity":0.7637795275590551,"duration":2.261203885416677},{"name":"D5","midi":74,"time":90.84909900000102,"velocity":0.7637795275590551,"duration":2.196345364583337},{"name":"F5","midi":77,"time":94.95287450000103,"velocity":0.7637795275590551,"duration":0.14003544270833856},{"name":"F5","midi":77,"time":95.09438400000104,"velocity":0.7637795275590551,"duration":1.1306019427084095},{"name":"A#2","midi":46,"time":95.09438400000104,"velocity":0.7637795275590551,"duration":2.2626779427084927},{"name":"D5","midi":74,"time":95.23589350000104,"velocity":0.7637795275590551,"duration":0.14003544270833856},{"name":"A#4","midi":70,"time":95.37740300000105,"velocity":0.7637795275590551,"duration":0.14003544270833856},{"name":"A4","midi":69,"time":95.51891250000106,"velocity":0.7637795275590551,"duration":0.14003544270833856},{"name":"A#4","midi":70,"time":95.66042200000108,"velocity":0.7637795275590551,"duration":0.14003544270833856},{"name":"D5","midi":74,"time":95.80193150000109,"velocity":0.7637795275590551,"duration":0.14003544270833856},{"name":"F4","midi":65,"time":95.9434410000011,"velocity":0.7637795275590551,"duration":0.14003544270833856},{"name":"A#4","midi":70,"time":96.08495050000111,"velocity":0.7637795275590551,"duration":0.14003544270833856},{"name":"D4","midi":62,"time":96.22646000000113,"velocity":0.7637795275590551,"duration":0.14003544270833856},{"name":"F4","midi":65,"time":96.36796950000114,"velocity":0.7637795275590551,"duration":0.14003544270833856},{"name":"A#3","midi":58,"time":96.50947900000115,"velocity":0.7637795275590551,"duration":0.8475829427083852},{"name":"D4","midi":62,"time":96.65098850000115,"velocity":0.7637795275590551,"duration":0.14003544270833856},{"name":"F4","midi":65,"time":96.79249800000116,"velocity":0.7637795275590551,"duration":0.14003544270833856},{"name":"G#4","midi":68,"time":96.93400750000117,"velocity":0.7637795275590551,"duration":0.14003544270833856},{"name":"D5","midi":74,"time":97.07551700000118,"velocity":0.7637795275590551,"duration":0.14003544270833856},{"name":"F5","midi":77,"time":97.2170265000012,"velocity":0.7637795275590551,"duration":0.14003544270833856},{"name":"G5","midi":79,"time":97.35853600000121,"velocity":0.7637795275590551,"duration":1.1306019427084095},{"name":"A#2","midi":46,"time":97.35853600000121,"velocity":0.7637795275590551,"duration":2.2626779427084927},{"name":"D#5","midi":75,"time":97.5000455000012,"velocity":0.7637795275590551,"duration":0.14003544270833856},{"name":"A#4","midi":70,"time":97.64155500000122,"velocity":0.7637795275590551,"duration":0.14003544270833856},{"name":"A4","midi":69,"time":97.78306450000123,"velocity":0.7637795275590551,"duration":0.14003544270833856},{"name":"A#4","midi":70,"time":97.92457400000124,"velocity":0.7637795275590551,"duration":0.14003544270833856},{"name":"D#5","midi":75,"time":98.06608350000126,"velocity":0.7637795275590551,"duration":0.14003544270833856},{"name":"G4","midi":67,"time":98.20759300000127,"velocity":0.7637795275590551,"duration":0.14003544270833856},{"name":"A#4","midi":70,"time":98.34910250000128,"velocity":0.7637795275590551,"duration":0.14003544270833856},{"name":"D#4","midi":63,"time":98.49061200000129,"velocity":0.7637795275590551,"duration":0.14003544270833856},{"name":"G4","midi":67,"time":98.6321215000013,"velocity":0.7637795275590551,"duration":0.14003544270833856},{"name":"A#3","midi":58,"time":98.77363100000132,"velocity":0.7637795275590551,"duration":0.8475829427083852},{"name":"D#4","midi":63,"time":98.91514050000131,"velocity":0.7637795275590551,"duration":0.14003544270833856},{"name":"G4","midi":67,"time":99.05665000000133,"velocity":0.7637795275590551,"duration":0.14003544270833856},{"name":"A#4","midi":70,"time":99.19815950000134,"velocity":0.7637795275590551,"duration":0.14003544270833856},{"name":"D#5","midi":75,"time":99.33966900000135,"velocity":0.7637795275590551,"duration":0.14003544270833856},{"name":"G5","midi":79,"time":99.48117850000136,"velocity":0.7637795275590551,"duration":0.14003544270833856},{"name":"A5","midi":81,"time":99.62268800000138,"velocity":0.7637795275590551,"duration":1.1306019427084095},{"name":"A#2","midi":46,"time":99.62268800000138,"velocity":0.7637795275590551,"duration":2.262677942708507},{"name":"D#5","midi":75,"time":99.76419750000137,"velocity":0.7637795275590551,"duration":0.14003544270833856},{"name":"C5","midi":72,"time":99.90570700000139,"velocity":0.7637795275590551,"duration":0.14003544270833856},{"name":"A#4","midi":70,"time":100.0472165000014,"velocity":0.7637795275590551,"duration":0.14003544270833856},{"name":"C5","midi":72,"time":100.18872600000141,"velocity":0.7637795275590551,"duration":0.14003544270833856},{"name":"D#5","midi":75,"time":100.33023550000142,"velocity":0.7637795275590551,"duration":0.14003544270833856},{"name":"A4","midi":69,"time":100.47174500000143,"velocity":0.7637795275590551,"duration":0.14003544270833856},{"name":"C5","midi":72,"time":100.61325450000145,"velocity":0.7637795275590551,"duration":0.14003544270833856},{"name":"D#4","midi":63,"time":100.75476400000146,"velocity":0.7637795275590551,"duration":0.14003544270833856},{"name":"A4","midi":69,"time":100.89627350000147,"velocity":0.7637795275590551,"duration":0.14003544270833856},{"name":"C4","midi":60,"time":101.03778300000148,"velocity":0.7637795275590551,"duration":0.14003544270833856},{"name":"D#4","midi":63,"time":101.1792925000015,"velocity":0.7637795275590551,"duration":0.14003544270833856},{"name":"A4","midi":69,"time":101.3208020000015,"velocity":0.7637795275590551,"duration":0.14003544270833856},{"name":"C5","midi":72,"time":101.46231150000152,"velocity":0.7637795275590551,"duration":0.14003544270833856},{"name":"D#5","midi":75,"time":101.60382100000153,"velocity":0.7637795275590551,"duration":0.14003544270833856},{"name":"A5","midi":81,"time":101.74533050000154,"velocity":0.7637795275590551,"duration":0.14003544270833856},{"name":"A#5","midi":82,"time":101.88684000000156,"velocity":0.7637795275590551,"duration":0.8475829427083852},{"name":"A#2","midi":46,"time":101.88684000000156,"velocity":0.7637795275590551,"duration":2.2626779427084927},{"name":"F5","midi":77,"time":102.02834950000155,"velocity":0.7637795275590551,"duration":0.14003544270833856},{"name":"D5","midi":74,"time":102.16985900000157,"velocity":0.7637795275590551,"duration":0.14003544270833856},{"name":"C5","midi":72,"time":102.31136850000158,"velocity":0.7637795275590551,"duration":0.14003544270833856},{"name":"D5","midi":74,"time":102.45287800000159,"velocity":0.7637795275590551,"duration":0.14003544270833856},{"name":"F5","midi":77,"time":102.5943875000016,"velocity":0.7637795275590551,"duration":0.14003544270833856},{"name":"A#4","midi":70,"time":102.73589700000161,"velocity":0.7637795275590551,"duration":0.14003544270833856},{"name":"D5","midi":74,"time":102.87740650000163,"velocity":0.7637795275590551,"duration":0.14003544270833856},{"name":"F4","midi":65,"time":103.01891600000164,"velocity":0.7637795275590551,"duration":0.14003544270833856},{"name":"A#4","midi":70,"time":103.16042550000165,"velocity":0.7637795275590551,"duration":0.14003544270833856},{"name":"D4","midi":62,"time":103.30193500000166,"velocity":0.7637795275590551,"duration":0.14003544270833856},{"name":"F4","midi":65,"time":103.44344450000168,"velocity":0.7637795275590551,"duration":0.21226425000000404},{"name":"A#3","midi":58,"time":103.58495400000167,"velocity":0.7637795275590551,"duration":0.28154494270835073},{"name":"G4","midi":67,"time":103.72646350000169,"velocity":0.7637795275590551,"duration":0.28154494270835073},{"name":"A3","midi":57,"time":103.8679730000017,"velocity":0.7637795275590551,"duration":0.28154494270835073},{"name":"F4","midi":65,"time":104.00948250000171,"velocity":0.7637795275590551,"duration":0.14003544270833856},{"name":"G3","midi":55,"time":104.15099200000172,"velocity":0.7637795275590551,"duration":1.1306019427083953},{"name":"A#2","midi":46,"time":104.15099200000172,"velocity":0.7637795275590551,"duration":1.1306019427083953},{"name":"C5","midi":72,"time":104.29250150000172,"velocity":0.7637795275590551,"duration":0.4245285000000223},{"name":"E4","midi":64,"time":104.43401100000172,"velocity":0.7637795275590551,"duration":0.14003544270833856},{"name":"D4","midi":62,"time":104.57552050000173,"velocity":0.7637795275590551,"duration":0.14003544270833856},{"name":"E4","midi":64,"time":104.71703000000174,"velocity":0.7637795275590551,"duration":0.14003544270833856},{"name":"G4","midi":67,"time":104.85853950000175,"velocity":0.7637795275590551,"duration":0.14003544270833856},{"name":"C4","midi":60,"time":105.00004900000177,"velocity":0.7637795275590551,"duration":0.14003544270833856},{"name":"E4","midi":64,"time":105.14155850000178,"velocity":0.7637795275590551,"duration":0.14003544270833856},{"name":"F#3","midi":54,"time":105.28306800000179,"velocity":0.7637795275590551,"duration":1.130601942708381},{"name":"A2","midi":45,"time":105.28306800000179,"velocity":0.7637795275590551,"duration":1.130601942708381},{"name":"A3","midi":57,"time":105.42457750000179,"velocity":0.7637795275590551,"duration":0.14003544270833856},{"name":"C4","midi":60,"time":105.5660870000018,"velocity":0.7637795275590551,"duration":0.14003544270833856},{"name":"D#4","midi":63,"time":105.70759650000181,"velocity":0.7637795275590551,"duration":0.14003544270833856},{"name":"D4","midi":62,"time":105.84910600000183,"velocity":0.7637795275590551,"duration":0.14003544270833856},{"name":"C4","midi":60,"time":105.99061550000184,"velocity":0.7637795275590551,"duration":0.2800708854166629},{"name":"C5","midi":72,"time":106.13212500000184,"velocity":0.7637795275590551,"duration":0.5601417708333543},{"name":"D4","midi":62,"time":106.27363450000183,"velocity":0.7637795275590551,"duration":0.14003544270833856},{"name":"D#4","midi":63,"time":106.41514400000185,"velocity":0.7637795275590551,"duration":0.14003544270833856},{"name":"G3","midi":55,"time":106.41514400000185,"velocity":0.7637795275590551,"duration":1.6951658854167846},{"name":"G2","midi":43,"time":106.41514400000185,"velocity":0.7637795275590551,"duration":1.989977343750141},{"name":"G4","midi":67,"time":106.55665350000186,"velocity":0.7637795275590551,"duration":0.14003544270833856},{"name":"C5","midi":72,"time":106.69816300000187,"velocity":0.7637795275590551,"duration":0.14003544270833856},{"name":"B4","midi":71,"time":106.83967250000188,"velocity":0.7637795275590551,"duration":0.14003544270833856},{"name":"C5","midi":72,"time":106.9811820000019,"velocity":0.7637795275590551,"duration":0.4215803854166751},{"name":"D#5","midi":75,"time":107.12269150000189,"velocity":0.7637795275590551,"duration":0.14003544270833856},{"name":"A4","midi":69,"time":107.2642010000019,"velocity":0.7637795275590551,"duration":0.14003544270833856},{"name":"C5","midi":72,"time":107.40571050000192,"velocity":0.7637795275590551,"duration":0.14003544270833856},{"name":"F#4","midi":66,"time":107.54722000000193,"velocity":0.7637795275590551,"duration":0.14003544270833856},{"name":"A4","midi":69,"time":107.68872950000194,"velocity":0.7637795275590551,"duration":0.14003544270833856},{"name":"C5","midi":72,"time":107.83023900000195,"velocity":0.7637795275590551,"duration":0.14003544270833856},{"name":"D#5","midi":75,"time":107.97174850000196,"velocity":0.7637795275590551,"duration":0.14003544270833856},{"name":"D5","midi":74,"time":108.11325800000198,"velocity":0.7637795275590551,"duration":0.14003544270833856},{"name":"C5","midi":72,"time":108.25476750000199,"velocity":0.7637795275590551,"duration":0.2800708854166629},{"name":"A5","midi":81,"time":108.39627700000199,"velocity":0.7637795275590551,"duration":0.21226425000000404},{"name":"C5","midi":72,"time":108.53778650000199,"velocity":0.7637795275590551,"duration":0.21226425000001825},{"name":"G2","midi":43,"time":108.679296000002,"velocity":0.7637795275590551,"duration":0.28154494270835073},{"name":"C5","midi":72,"time":108.82080550000201,"velocity":0.7637795275590551,"duration":0.14003544270833856},{"name":"A#4","midi":70,"time":108.96231500000202,"velocity":0.7637795275590551,"duration":0.06928069270833248},{"name":"G3","midi":55,"time":108.96231500000202,"velocity":0.7637795275590551,"duration":0.5645639427083751},{"name":"C5","midi":72,"time":109.03306975000203,"velocity":0.7637795275590551,"duration":0.06928069270833248},{"name":"A#4","midi":70,"time":109.10382450000203,"velocity":0.7637795275590551,"duration":0.06928069270833248},{"name":"A4","midi":69,"time":109.17457925000204,"velocity":0.7637795275590551,"duration":0.06928069270833248},{"name":"A#4","midi":70,"time":109.24533400000205,"velocity":0.7637795275590551,"duration":0.14003544270833856},{"name":"D5","midi":74,"time":109.38684350000206,"velocity":0.7637795275590551,"duration":0.14003544270833856},{"name":"E5","midi":76,"time":109.52835300000207,"velocity":0.7637795275590551,"duration":0.14003544270833856},{"name":"F3","midi":53,"time":109.52835300000207,"velocity":0.7637795275590551,"duration":0.28154494270835073},{"name":"F5","midi":77,"time":109.66986250000208,"velocity":0.7637795275590551,"duration":0.14003544270833856},{"name":"G5","midi":79,"time":109.8113720000021,"velocity":0.7637795275590551,"duration":0.6987031562500334},{"name":"E3","midi":52,"time":109.8113720000021,"velocity":0.7637795275590551,"duration":0.2815449427083365},{"name":"C5","midi":72,"time":109.95288150000209,"velocity":0.7637795275590551,"duration":0.14003544270833856},{"name":"A#4","midi":70,"time":110.0943910000021,"velocity":0.7637795275590551,"duration":0.14003544270833856},{"name":"E4","midi":64,"time":110.0943910000021,"velocity":0.7637795275590551,"duration":0.5645639427083609},{"name":"A4","midi":69,"time":110.23590050000212,"velocity":0.7637795275590551,"duration":0.14003544270833856},{"name":"A#4","midi":70,"time":110.37741000000213,"velocity":0.7637795275590551,"duration":0.21226425000000404},{"name":"G5","midi":79,"time":110.51891950000213,"velocity":0.7637795275590551,"duration":0.28007088541667713},{"name":"A#4","midi":70,"time":110.66042900000214,"velocity":0.7637795275590551,"duration":0.21226425000000404},{"name":"D4","midi":62,"time":110.66042900000214,"velocity":0.7637795275590551,"duration":0.2815449427083365},{"name":"F5","midi":77,"time":110.80193850000214,"velocity":0.7637795275590551,"duration":0.14003544270833856},{"name":"A#4","midi":70,"time":110.94344800000215,"velocity":0.7637795275590551,"duration":0.14003544270833856},{"name":"C4","midi":60,"time":110.94344800000215,"velocity":0.7637795275590551,"duration":0.5601417708333827},{"name":"F5","midi":77,"time":111.08495750000216,"velocity":0.7637795275590551,"duration":0.14003544270833856},{"name":"E5","midi":76,"time":111.22646700000217,"velocity":0.7637795275590551,"duration":0.06928069270833248},{"name":"C3","midi":48,"time":111.22646700000217,"velocity":0.7637795275590551,"duration":0.5645639427083893},{"name":"F5","midi":77,"time":111.29722175000218,"velocity":0.7637795275590551,"duration":0.06928069270833248},{"name":"E5","midi":76,"time":111.36797650000219,"velocity":0.7637795275590551,"duration":0.06928069270833248},{"name":"D5","midi":74,"time":111.43873125000219,"velocity":0.7637795275590551,"duration":0.06928069270834669},{"name":"E5","midi":76,"time":111.50948600000221,"velocity":0.7637795275590551,"duration":0.14003544270833856},{"name":"G5","midi":79,"time":111.65099550000222,"velocity":0.7637795275590551,"duration":0.14003544270833856},{"name":"A5","midi":81,"time":111.79250500000224,"velocity":0.7637795275590551,"duration":0.14003544270833856},{"name":"A#2","midi":46,"time":111.79250500000224,"velocity":0.7637795275590551,"duration":0.28154494270835073},{"name":"A#5","midi":82,"time":111.93401450000225,"velocity":0.7637795275590551,"duration":0.14003544270833856},{"name":"C6","midi":84,"time":112.07552400000226,"velocity":0.7637795275590551,"duration":0.6957550416667004},{"name":"A2","midi":45,"time":112.07552400000226,"velocity":0.7637795275590551,"duration":0.2815449427083365},{"name":"F5","midi":77,"time":112.21703350000226,"velocity":0.7637795275590551,"duration":0.14003544270833856},{"name":"E5","midi":76,"time":112.35854300000227,"velocity":0.7637795275590551,"duration":0.14003544270833856},{"name":"A3","midi":57,"time":112.35854300000227,"velocity":0.7637795275590551,"duration":0.5645639427083609},{"name":"D5","midi":74,"time":112.50005250000228,"velocity":0.7637795275590551,"duration":0.14003544270833856},{"name":"E5","midi":76,"time":112.6415620000023,"velocity":0.7637795275590551,"duration":0.21226425000000404},{"name":"C6","midi":84,"time":112.7830715000023,"velocity":0.7637795275590551,"duration":0.28007088541667713},{"name":"E5","midi":76,"time":112.9245810000023,"velocity":0.7637795275590551,"duration":0.21226425000000404},{"name":"G3","midi":55,"time":112.9245810000023,"velocity":0.7637795275590551,"duration":0.2815449427083365},{"name":"A#5","midi":82,"time":113.0660905000023,"velocity":0.7637795275590551,"duration":0.21226425000001825},{"name":"E5","midi":76,"time":113.20760000000232,"velocity":0.7637795275590551,"duration":0.28007088541667713},{"name":"F3","midi":53,"time":113.20760000000232,"velocity":0.7637795275590551,"duration":0.28154494270835073},{"name":"A#5","midi":82,"time":113.34910950000233,"velocity":0.7637795275590551,"duration":0.14003544270833856},{"name":"A5","midi":81,"time":113.49061900000234,"velocity":0.7637795275590551,"duration":0.14003544270833856},{"name":"F4","midi":65,"time":113.49061900000234,"velocity":0.7637795275590551,"duration":0.28154494270835073},{"name":"G5","midi":79,"time":113.63212850000235,"velocity":0.7637795275590551,"duration":0.14003544270833856},{"name":"F5","midi":77,"time":113.77363800000236,"velocity":0.7637795275590551,"duration":0.21226425000000404},{"name":"A4","midi":69,"time":113.77363800000236,"velocity":0.7637795275590551,"duration":0.2815449427083365},{"name":"A5","midi":81,"time":113.91514750000236,"velocity":0.7637795275590551,"duration":0.14003544270833856},{"name":"E5","midi":76,"time":114.05665700000237,"velocity":0.7637795275590551,"duration":0.21226425000000404},{"name":"C5","midi":72,"time":114.05665700000237,"velocity":0.7637795275590551,"duration":0.2815449427083365},{"name":"A5","midi":81,"time":114.19816650000237,"velocity":0.7637795275590551,"duration":0.14003544270833856},{"name":"D5","midi":74,"time":114.33967600000238,"velocity":0.7637795275590551,"duration":0.2800708854166629},{"name":"A#4","midi":70,"time":114.33967600000238,"velocity":0.7637795275590551,"duration":0.5601417708333543},{"name":"A5","midi":81,"time":114.48118550000238,"velocity":0.7637795275590551,"duration":0.14003544270833856},{"name":"D5","midi":74,"time":114.6226950000024,"velocity":0.7637795275590551,"duration":0.14003544270833856},{"name":"A#3","midi":58,"time":114.6226950000024,"velocity":0.7637795275590551,"duration":0.28154494270835073},{"name":"C5","midi":72,"time":114.7642045000024,"velocity":0.7637795275590551,"duration":0.14003544270833856},{"name":"A#4","midi":70,"time":114.90571400000242,"velocity":0.7637795275590551,"duration":0.21226425000000404},{"name":"D4","midi":62,"time":114.90571400000242,"velocity":0.7637795275590551,"duration":0.2815449427083365},{"name":"D5","midi":74,"time":115.04722350000242,"velocity":0.7637795275590551,"duration":0.14003544270833856},{"name":"A4","midi":69,"time":115.18873300000243,"velocity":0.7637795275590551,"duration":0.21226425000000404},{"name":"F4","midi":65,"time":115.18873300000243,"velocity":0.7637795275590551,"duration":0.2815449427083365},{"name":"D5","midi":74,"time":115.33024250000243,"velocity":0.7637795275590551,"duration":0.14003544270833856},{"name":"G4","midi":67,"time":115.47175200000244,"velocity":0.7637795275590551,"duration":0.14003544270833856},{"name":"E3","midi":52,"time":115.47175200000244,"velocity":0.7637795275590551,"duration":0.28154494270835073},{"name":"A5","midi":81,"time":115.61326150000245,"velocity":0.7637795275590551,"duration":0.14003544270833856},{"name":"G5","midi":79,"time":115.75477100000246,"velocity":0.7637795275590551,"duration":0.14003544270833856},{"name":"E4","midi":64,"time":115.75477100000246,"velocity":0.7637795275590551,"duration":0.28154494270835073},{"name":"F5","midi":77,"time":115.89628050000248,"velocity":0.7637795275590551,"duration":0.14003544270833856},{"name":"E5","midi":76,"time":116.03779000000249,"velocity":0.7637795275590551,"duration":0.21226425000000404},{"name":"G4","midi":67,"time":116.03779000000249,"velocity":0.7637795275590551,"duration":0.2815449427083365},{"name":"G5","midi":79,"time":116.17929950000249,"velocity":0.7637795275590551,"duration":0.14003544270833856},{"name":"D5","midi":74,"time":116.3208090000025,"velocity":0.7637795275590551,"duration":0.21226425000000404},{"name":"A#4","midi":70,"time":116.3208090000025,"velocity":0.7637795275590551,"duration":0.2815449427083365},{"name":"G5","midi":79,"time":116.4623185000025,"velocity":0.7637795275590551,"duration":0.14003544270833856},{"name":"C5","midi":72,"time":116.60382800000251,"velocity":0.7637795275590551,"duration":0.2800708854166629},{"name":"A4","midi":69,"time":116.60382800000251,"velocity":0.7637795275590551,"duration":0.5601417708333543},{"name":"G5","midi":79,"time":116.7453375000025,"velocity":0.7637795275590551,"duration":0.14003544270833856},{"name":"C5","midi":72,"time":116.88684700000252,"velocity":0.7637795275590551,"duration":0.14003544270833856},{"name":"A3","midi":57,"time":116.88684700000252,"velocity":0.7637795275590551,"duration":0.28154494270835073},{"name":"A#4","midi":70,"time":117.02835650000253,"velocity":0.7637795275590551,"duration":0.14003544270833856},{"name":"A4","midi":69,"time":117.16986600000254,"velocity":0.7637795275590551,"duration":0.21226425000000404},{"name":"C4","midi":60,"time":117.16986600000254,"velocity":0.7637795275590551,"duration":0.2815449427083365},{"name":"C5","midi":72,"time":117.31137550000254,"velocity":0.7637795275590551,"duration":0.14003544270833856},{"name":"G4","midi":67,"time":117.45288500000255,"velocity":0.7637795275590551,"duration":0.21226425000000404},{"name":"E4","midi":64,"time":117.45288500000255,"velocity":0.7637795275590551,"duration":0.2815449427083365},{"name":"C5","midi":72,"time":117.59439450000255,"velocity":0.7637795275590551,"duration":0.14003544270833856},{"name":"F4","midi":65,"time":117.73590400000256,"velocity":0.7637795275590551,"duration":0.14003544270833856},{"name":"D3","midi":50,"time":117.73590400000256,"velocity":0.7637795275590551,"duration":0.28154494270835073},{"name":"G5","midi":79,"time":117.87741350000258,"velocity":0.7637795275590551,"duration":0.14003544270833856},{"name":"F5","midi":77,"time":118.01892300000259,"velocity":0.7637795275590551,"duration":0.14003544270833856},{"name":"D4","midi":62,"time":118.01892300000259,"velocity":0.7637795275590551,"duration":0.28154494270835073},{"name":"E5","midi":76,"time":118.1604325000026,"velocity":0.7637795275590551,"duration":0.14003544270833856},{"name":"D5","midi":74,"time":118.30194200000261,"velocity":0.7637795275590551,"duration":0.21226425000000404},{"name":"F4","midi":65,"time":118.30194200000261,"velocity":0.7637795275590551,"duration":0.2815449427083365},{"name":"F5","midi":77,"time":118.44345150000261,"velocity":0.7637795275590551,"duration":0.14003544270833856},{"name":"C5","midi":72,"time":118.58496100000262,"velocity":0.7637795275590551,"duration":0.21226425000000404},{"name":"A4","midi":69,"time":118.58496100000262,"velocity":0.7637795275590551,"duration":0.2815449427083365},{"name":"F5","midi":77,"time":118.72647050000262,"velocity":0.7637795275590551,"duration":0.14003544270833856},{"name":"A#4","midi":70,"time":118.86798000000263,"velocity":0.7637795275590551,"duration":0.2800708854166629},{"name":"G4","midi":67,"time":118.86798000000263,"velocity":0.7637795275590551,"duration":0.5601417708333543},{"name":"F5","midi":77,"time":119.00948950000263,"velocity":0.7637795275590551,"duration":0.14003544270833856},{"name":"A#4","midi":70,"time":119.15099900000264,"velocity":0.7637795275590551,"duration":0.14003544270833856},{"name":"G3","midi":55,"time":119.15099900000264,"velocity":0.7637795275590551,"duration":0.28154494270835073},{"name":"A4","midi":69,"time":119.29250850000265,"velocity":0.7637795275590551,"duration":0.14003544270833856},{"name":"G4","midi":67,"time":119.43401800000267,"velocity":0.7637795275590551,"duration":0.21226425000000404},{"name":"A#3","midi":58,"time":119.43401800000267,"velocity":0.7637795275590551,"duration":0.2815449427083365},{"name":"A#4","midi":70,"time":119.57552750000266,"velocity":0.7637795275590551,"duration":0.14003544270833856},{"name":"F4","midi":65,"time":119.71703700000268,"velocity":0.7637795275590551,"duration":0.21226425000000404},{"name":"D4","midi":62,"time":119.71703700000268,"velocity":0.7637795275590551,"duration":0.2815449427083365},{"name":"A#4","midi":70,"time":119.85854650000267,"velocity":0.7637795275590551,"duration":0.14003544270833856},{"name":"F4","midi":65,"time":120.00005600000269,"velocity":0.7637795275590551,"duration":0.1872052760416807},{"name":"C3","midi":48,"time":120.00005600000269,"velocity":0.7637795275590551,"duration":0.14003544270833856},{"name":"C4","midi":60,"time":120.1415655000027,"velocity":0.7637795275590551,"duration":0.14003544270833856},{"name":"E4","midi":64,"time":120.18873533333604,"velocity":0.7637795275590551,"duration":0.09286560937499644},{"name":"F4","midi":65,"time":120.28307500000271,"velocity":0.7637795275590551,"duration":0.06928069270833248},{"name":"A#3","midi":58,"time":120.28307500000271,"velocity":0.7637795275590551,"duration":0.14003544270833856},{"name":"E4","midi":64,"time":120.33024483333604,"velocity":0.7637795275590551,"duration":0.06928069270834669},{"name":"F4","midi":65,"time":120.37741466666938,"velocity":0.7637795275590551,"duration":0.06928069270834669},{"name":"E4","midi":64,"time":120.42458450000272,"velocity":0.7637795275590551,"duration":0.06928069270834669},{"name":"A3","midi":57,"time":120.42458450000272,"velocity":0.7637795275590551,"duration":0.14003544270835278},{"name":"F4","midi":65,"time":120.47175433333607,"velocity":0.7637795275590551,"duration":0.04569577604166852},{"name":"E4","midi":64,"time":120.51892416666941,"velocity":0.7637795275590551,"duration":0.28007088541669134},{"name":"G3","midi":55,"time":120.56609400000275,"velocity":0.7637795275590551,"duration":0.14003544270833856},{"name":"F3","midi":53,"time":120.70760350000276,"velocity":0.7637795275590551,"duration":0.14003544270833856},{"name":"C4","midi":60,"time":120.84911300000277,"velocity":0.7637795275590551,"duration":0.28154494270835073},{"name":"E3","midi":52,"time":120.84911300000277,"velocity":0.7637795275590551,"duration":0.14003544270833856},{"name":"D3","midi":50,"time":120.99062250000279,"velocity":0.7637795275590551,"duration":0.14003544270833856},{"name":"F4","midi":65,"time":121.1321320000028,"velocity":0.7637795275590551,"duration":0.28154494270835073},{"name":"C3","midi":48,"time":121.1321320000028,"velocity":0.7637795275590551,"duration":0.14003544270833856},{"name":"A3","midi":57,"time":121.27364150000281,"velocity":0.7637795275590551,"duration":0.14003544270833856},{"name":"G4","midi":67,"time":121.41515100000282,"velocity":0.7637795275590551,"duration":0.14003544270833856},{"name":"G3","midi":55,"time":121.41515100000282,"velocity":0.7637795275590551,"duration":0.14003544270833856},{"name":"A4","midi":69,"time":121.55666050000283,"velocity":0.7637795275590551,"duration":0.14003544270833856},{"name":"F3","midi":53,"time":121.55666050000283,"velocity":0.7637795275590551,"duration":0.14003544270833856},{"name":"A#4","midi":70,"time":121.69817000000285,"velocity":0.7637795275590551,"duration":0.28154494270835073},{"name":"E3","midi":52,"time":121.69817000000285,"velocity":0.7637795275590551,"duration":0.14003544270833856},{"name":"G3","midi":55,"time":121.83967950000286,"velocity":0.7637795275590551,"duration":0.14003544270833856},{"name":"A4","midi":69,"time":121.98118900000287,"velocity":0.7637795275590551,"duration":0.06928069270833248},{"name":"C3","midi":48,"time":121.98118900000287,"velocity":0.7637795275590551,"duration":0.14003544270833856},{"name":"A#4","midi":70,"time":122.05194375000288,"velocity":0.7637795275590551,"duration":0.06928069270833248},{"name":"A4","midi":69,"time":122.12269850000288,"velocity":0.7637795275590551,"duration":0.06928069270833248},{"name":"E3","midi":52,"time":122.12269850000288,"velocity":0.7637795275590551,"duration":0.14003544270833856},{"name":"G4","midi":67,"time":122.19345325000289,"velocity":0.7637795275590551,"duration":0.06928069270833248},{"name":"A4","midi":69,"time":122.2642080000029,"velocity":0.7637795275590551,"duration":0.706073442708373},{"name":"C2","midi":36,"time":122.2642080000029,"velocity":0.7637795275590551,"duration":0.5601417708333543},{"name":"F4","midi":65,"time":122.4057175000029,"velocity":0.7637795275590551,"duration":0.14003544270833856},{"name":"E4","midi":64,"time":122.5472270000029,"velocity":0.7637795275590551,"duration":0.14003544270833856},{"name":"D4","midi":62,"time":122.68873650000292,"velocity":0.7637795275590551,"duration":0.14003544270833856},{"name":"C4","midi":60,"time":122.83024600000293,"velocity":0.7637795275590551,"duration":0.14003544270833856},{"name":"C4","midi":60,"time":122.97175550000294,"velocity":0.7637795275590551,"duration":0.14003544270833856},{"name":"A#3","midi":58,"time":122.97175550000294,"velocity":0.7637795275590551,"duration":0.14003544270833856},{"name":"F4","midi":65,"time":123.11326500000295,"velocity":0.7637795275590551,"duration":0.14003544270833856},{"name":"A3","midi":57,"time":123.11326500000295,"velocity":0.7637795275590551,"duration":0.14003544270833856},{"name":"G4","midi":67,"time":123.25477450000297,"velocity":0.7637795275590551,"duration":0.14003544270833856},{"name":"G3","midi":55,"time":123.25477450000297,"velocity":0.7637795275590551,"duration":0.14003544270833856},{"name":"A4","midi":69,"time":123.39628400000298,"velocity":0.7637795275590551,"duration":0.21226425000001825},{"name":"F3","midi":53,"time":123.39628400000298,"velocity":0.7637795275590551,"duration":0.14003544270833856},{"name":"F4","midi":65,"time":123.53779350000299,"velocity":0.7637795275590551,"duration":0.14003544270833856},{"name":"E3","midi":52,"time":123.53779350000299,"velocity":0.7637795275590551,"duration":0.14003544270833856},{"name":"B4","midi":71,"time":123.679303000003,"velocity":0.7637795275590551,"duration":0.14003544270833856},{"name":"D3","midi":50,"time":123.679303000003,"velocity":0.7637795275590551,"duration":0.14003544270833856},{"name":"C5","midi":72,"time":123.82081250000302,"velocity":0.7637795275590551,"duration":0.14003544270833856},{"name":"C3","midi":48,"time":123.82081250000302,"velocity":0.7637795275590551,"duration":0.14003544270833856},{"name":"D5","midi":74,"time":123.96232200000303,"velocity":0.7637795275590551,"duration":0.28007088541667713},{"name":"B2","midi":47,"time":123.96232200000303,"velocity":0.7637795275590551,"duration":0.14003544270833856},{"name":"F4","midi":65,"time":124.10383150000304,"velocity":0.7637795275590551,"duration":0.14003544270833856},{"name":"G3","midi":55,"time":124.10383150000304,"velocity":0.7637795275590551,"duration":0.14003544270833856},{"name":"C5","midi":72,"time":124.24534100000305,"velocity":0.7637795275590551,"duration":0.06928069270833248},{"name":"G2","midi":43,"time":124.24534100000305,"velocity":0.7637795275590551,"duration":0.14003544270833856},{"name":"D5","midi":74,"time":124.31609575000306,"velocity":0.7637795275590551,"duration":0.06928069270833248},{"name":"C5","midi":72,"time":124.38685050000306,"velocity":0.7637795275590551,"duration":0.06928069270833248},{"name":"F3","midi":53,"time":124.38685050000306,"velocity":0.7637795275590551,"duration":0.14003544270833856},{"name":"B4","midi":71,"time":124.45760525000307,"velocity":0.7637795275590551,"duration":0.06928069270833248},{"name":"C5","midi":72,"time":124.52836000000308,"velocity":0.7637795275590551,"duration":0.8475829427083852},{"name":"C2","midi":36,"time":124.52836000000308,"velocity":0.7637795275590551,"duration":0.5601417708333543},{"name":"A4","midi":69,"time":124.66986950000307,"velocity":0.7637795275590551,"duration":0.14003544270833856},{"name":"G4","midi":67,"time":124.81137900000309,"velocity":0.7637795275590551,"duration":0.14003544270833856},{"name":"F4","midi":65,"time":124.9528885000031,"velocity":0.7637795275590551,"duration":0.14003544270833856},{"name":"E4","midi":64,"time":125.09439800000311,"velocity":0.7637795275590551,"duration":0.14003544270833856},{"name":"D4","midi":62,"time":125.23590750000312,"velocity":0.7637795275590551,"duration":0.14003544270833856},{"name":"G4","midi":67,"time":125.37741700000313,"velocity":0.7637795275590551,"duration":0.28154494270835073},{"name":"C4","midi":60,"time":125.37741700000313,"velocity":0.7637795275590551,"duration":0.14003544270833856},{"name":"A#3","midi":58,"time":125.51892650000315,"velocity":0.7637795275590551,"duration":0.14003544270833856},{"name":"C5","midi":72,"time":125.66043600000316,"velocity":0.7637795275590551,"duration":0.28154494270835073},{"name":"A3","midi":57,"time":125.66043600000316,"velocity":0.7637795275590551,"duration":0.14003544270833856},{"name":"C4","midi":60,"time":125.80194550000317,"velocity":0.7637795275590551,"duration":0.14003544270833856},{"name":"D5","midi":74,"time":125.94345500000318,"velocity":0.7637795275590551,"duration":0.14003544270833856},{"name":"F4","midi":65,"time":125.94345500000318,"velocity":0.7637795275590551,"duration":0.14003544270833856},{"name":"E5","midi":76,"time":126.0849645000032,"velocity":0.7637795275590551,"duration":0.14003544270833856},{"name":"E4","midi":64,"time":126.0849645000032,"velocity":0.7637795275590551,"duration":0.14003544270833856},{"name":"F5","midi":77,"time":126.22647400000321,"velocity":0.7637795275590551,"duration":0.2505897395833472},{"name":"G#3","midi":56,"time":126.22647400000321,"velocity":0.7637795275590551,"duration":0.14003544270833856},{"name":"D4","midi":62,"time":126.36798350000322,"velocity":0.7637795275590551,"duration":0.14003544270833856},{"name":"E5","midi":76,"time":126.50949300000323,"velocity":0.7637795275590551,"duration":0.06928069270833248},{"name":"C4","midi":60,"time":126.50949300000323,"velocity":0.7637795275590551,"duration":0.14003544270833856},{"name":"F5","midi":77,"time":126.58024775000324,"velocity":0.7637795275590551,"duration":0.06928069270833248},{"name":"E5","midi":76,"time":126.65100250000324,"velocity":0.7637795275590551,"duration":0.06928069270833248},{"name":"B3","midi":59,"time":126.65100250000324,"velocity":0.7637795275590551,"duration":0.14003544270833856},{"name":"D5","midi":74,"time":126.72175725000325,"velocity":0.7637795275590551,"duration":0.06928069270833248},{"name":"E5","midi":76,"time":126.79251200000326,"velocity":0.7637795275590551,"duration":0.28154494270835073},{"name":"G3","midi":55,"time":126.79251200000326,"velocity":0.7637795275590551,"duration":0.14003544270833856},{"name":"A#3","midi":58,"time":126.93402150000327,"velocity":0.7637795275590551,"duration":0.14003544270833856},{"name":"F5","midi":77,"time":127.07553100000328,"velocity":0.7637795275590551,"duration":0.14003544270833856},{"name":"C#4","midi":61,"time":127.07553100000328,"velocity":0.7637795275590551,"duration":0.14003544270833856},{"name":"G5","midi":79,"time":127.21704050000329,"velocity":0.7637795275590551,"duration":0.14003544270833856},{"name":"C4","midi":60,"time":127.21704050000329,"velocity":0.7637795275590551,"duration":0.14003544270833856},{"name":"G#5","midi":80,"time":127.3585500000033,"velocity":0.7637795275590551,"duration":0.2505897395833472},{"name":"F3","midi":53,"time":127.3585500000033,"velocity":0.7637795275590551,"duration":0.14003544270833856},{"name":"C4","midi":60,"time":127.50005950000332,"velocity":0.7637795275590551,"duration":0.14003544270833856},{"name":"G5","midi":79,"time":127.64156900000333,"velocity":0.7637795275590551,"duration":0.06928069270833248},{"name":"A#3","midi":58,"time":127.64156900000333,"velocity":0.7637795275590551,"duration":0.14003544270833856},{"name":"G#5","midi":80,"time":127.71232375000334,"velocity":0.7637795275590551,"duration":0.06928069270833248},{"name":"G5","midi":79,"time":127.78307850000334,"velocity":0.7637795275590551,"duration":0.06928069270833248},{"name":"G#3","midi":56,"time":127.78307850000334,"velocity":0.7637795275590551,"duration":0.14003544270833856},{"name":"F5","midi":77,"time":127.85383325000335,"velocity":0.7637795275590551,"duration":0.06928069270833248},{"name":"G5","midi":79,"time":127.92458800000335,"velocity":0.7637795275590551,"duration":0.2815449427083081},{"name":"E3","midi":52,"time":127.92458800000335,"velocity":0.7637795275590551,"duration":0.14003544270832435},{"name":"A#3","midi":58,"time":128.06609750000334,"velocity":0.7637795275590551,"duration":0.14003544270832435},{"name":"G#5","midi":80,"time":128.20760700000332,"velocity":0.7637795275590551,"duration":0.14003544270832435},{"name":"G#3","midi":56,"time":128.20760700000332,"velocity":0.7637795275590551,"duration":0.14003544270832435},{"name":"A#5","midi":82,"time":128.3491165000033,"velocity":0.7637795275590551,"duration":0.14003544270832435},{"name":"G3","midi":55,"time":128.3491165000033,"velocity":0.7637795275590551,"duration":0.14003544270832435},{"name":"C6","midi":84,"time":128.4906260000033,"velocity":0.7637795275590551,"duration":0.2741746562499827},{"name":"F3","midi":53,"time":128.4906260000033,"velocity":0.7637795275590551,"duration":0.14003544270832435},{"name":"E3","midi":52,"time":128.63213550000327,"velocity":0.7637795275590551,"duration":0.14003544270832435},{"name":"C6","midi":84,"time":128.77364500000326,"velocity":0.7637795275590551,"duration":0.06928069270833248},{"name":"D3","midi":50,"time":128.77364500000326,"velocity":0.7637795275590551,"duration":0.14003544270832435},{"name":"A#5","midi":82,"time":128.83260729166992,"velocity":0.7637795275590551,"duration":0.06928069270833248},{"name":"C6","midi":84,"time":128.89156958333658,"velocity":0.7637795275590551,"duration":0.06928069270833248},{"name":"C3","midi":48,"time":128.91515450000324,"velocity":0.7637795275590551,"duration":0.14003544270835278},{"name":"A#5","midi":82,"time":128.93579130208659,"velocity":0.7637795275590551,"duration":0.06928069270833248},{"name":"A5","midi":81,"time":128.99475359375325,"velocity":0.7637795275590551,"duration":0.06043634895834771},{"name":"A#5","midi":82,"time":129.05666400000325,"velocity":0.7637795275590551,"duration":0.14003544270832435},{"name":"E4","midi":64,"time":129.05666400000325,"velocity":0.7637795275590551,"duration":0.2815449427083081},{"name":"G5","midi":79,"time":129.19817350000324,"velocity":0.7637795275590551,"duration":0.14003544270832435},{"name":"E5","midi":76,"time":129.33968300000322,"velocity":0.7637795275590551,"duration":0.14003544270832435},{"name":"G4","midi":67,"time":129.33968300000322,"velocity":0.7637795275590551,"duration":0.2815449427083081},{"name":"C5","midi":72,"time":129.4811925000032,"velocity":0.7637795275590551,"duration":0.14003544270832435},{"name":"A#4","midi":70,"time":129.6227020000032,"velocity":0.7637795275590551,"duration":0.14003544270832435},{"name":"C4","midi":60,"time":129.6227020000032,"velocity":0.7637795275590551,"duration":0.2815449427083081},{"name":"G4","midi":67,"time":129.76421150000317,"velocity":0.7637795275590551,"duration":0.14003544270832435},{"name":"C5","midi":72,"time":129.90572100000315,"velocity":0.7637795275590551,"duration":0.14003544270832435},{"name":"A#3","midi":58,"time":129.90572100000315,"velocity":0.7637795275590551,"duration":0.2815449427083081},{"name":"E5","midi":76,"time":130.04723050000314,"velocity":0.7637795275590551,"duration":0.14003544270832435},{"name":"F5","midi":77,"time":130.18874000000312,"velocity":0.7637795275590551,"duration":0.6957550416666436},{"name":"A3","midi":57,"time":130.18874000000312,"velocity":0.7637795275590551,"duration":0.2815449427083365},{"name":"C5","midi":72,"time":130.33024950000313,"velocity":0.7637795275590551,"duration":0.14003544270832435},{"name":"A4","midi":69,"time":130.47175900000312,"velocity":0.7637795275590551,"duration":0.14003544270832435},{"name":"A#3","midi":58,"time":130.47175900000312,"velocity":0.7637795275590551,"duration":0.2815449427083081},{"name":"F4","midi":65,"time":130.6132685000031,"velocity":0.7637795275590551,"duration":0.14003544270832435},{"name":"C4","midi":60,"time":130.75477800000309,"velocity":0.7637795275590551,"duration":0.2815449427083365},{"name":"G4","midi":67,"time":130.8962875000031,"velocity":0.7637795275590551,"duration":0.14003544270832435},{"name":"A#4","midi":70,"time":131.03779700000308,"velocity":0.7637795275590551,"duration":0.14003544270832435},{"name":"C3","midi":48,"time":131.03779700000308,"velocity":0.7637795275590551,"duration":0.2815449427083081},{"name":"E5","midi":76,"time":131.17930650000307,"velocity":0.7637795275590551,"duration":0.14003544270832435},{"name":"F5","midi":77,"time":131.32081600000305,"velocity":0.7637795275590551,"duration":0.42305444270832027},{"name":"F3","midi":53,"time":131.32081600000305,"velocity":0.7637795275590551,"duration":0.42305444270832027},{"name":"A#4","midi":70,"time":131.46232550000306,"velocity":0.7637795275590551,"duration":0.14003544270832435},{"name":"D4","midi":62,"time":131.46232550000306,"velocity":0.7637795275590551,"duration":0.14003544270832435},{"name":"A4","midi":69,"time":131.60383500000304,"velocity":0.7637795275590551,"duration":0.42305444270829184},{"name":"C4","midi":60,"time":131.60383500000304,"velocity":0.7637795275590551,"duration":0.2800708854166487},{"name":"D#5","midi":75,"time":131.74534450000303,"velocity":0.7637795275590551,"duration":0.14003544270832435},{"name":"A3","midi":57,"time":131.74534450000303,"velocity":0.7637795275590551,"duration":0.14003544270832435},{"name":"D5","midi":74,"time":131.886854000003,"velocity":0.7637795275590551,"duration":0.42305444270829184},{"name":"A#3","midi":58,"time":131.886854000003,"velocity":0.7637795275590551,"duration":0.42305444270829184},{"name":"A4","midi":69,"time":132.028363500003,"velocity":0.7637795275590551,"duration":0.14003544270832435},{"name":"C4","midi":60,"time":132.028363500003,"velocity":0.7637795275590551,"duration":0.14003544270832435},{"name":"A#4","midi":70,"time":132.16987300000298,"velocity":0.7637795275590551,"duration":0.2800708854166487},{"name":"D4","midi":62,"time":132.16987300000298,"velocity":0.7637795275590551,"duration":0.2800708854166487},{"name":"D5","midi":74,"time":132.31138250000296,"velocity":0.7637795275590551,"duration":0.14003544270832435},{"name":"A3","midi":57,"time":132.31138250000296,"velocity":0.7637795275590551,"duration":0.14003544270832435},{"name":"E4","midi":64,"time":132.45289200000295,"velocity":0.7637795275590551,"duration":0.42305444270832027},{"name":"G3","midi":55,"time":132.45289200000295,"velocity":0.7637795275590551,"duration":0.42305444270832027},{"name":"D5","midi":74,"time":132.59440150000296,"velocity":0.7637795275590551,"duration":0.14003544270832435},{"name":"A3","midi":57,"time":132.59440150000296,"velocity":0.7637795275590551,"duration":0.14003544270832435},{"name":"C5","midi":72,"time":132.73591100000294,"velocity":0.7637795275590551,"duration":0.2800708854166487},{"name":"A#3","midi":58,"time":132.73591100000294,"velocity":0.7637795275590551,"duration":0.2800708854166487},{"name":"F4","midi":65,"time":132.87742050000293,"velocity":0.7637795275590551,"duration":0.14003544270832435},{"name":"F3","midi":53,"time":132.87742050000293,"velocity":0.7637795275590551,"duration":0.14003544270832435},{"name":"G4","midi":67,"time":133.0189300000029,"velocity":0.7637795275590551,"duration":0.42305444270832027},{"name":"E3","midi":52,"time":133.0189300000029,"velocity":0.7637795275590551,"duration":0.42305444270832027},{"name":"A4","midi":69,"time":133.16043950000292,"velocity":0.7637795275590551,"duration":0.14003544270832435},{"name":"F3","midi":53,"time":133.16043950000292,"velocity":0.7637795275590551,"duration":0.14003544270832435},{"name":"A#4","midi":70,"time":133.3019490000029,"velocity":0.7637795275590551,"duration":0.2815449427083081},{"name":"G3","midi":55,"time":133.3019490000029,"velocity":0.7637795275590551,"duration":0.2800708854166487},{"name":"G4","midi":67,"time":133.4434585000029,"velocity":0.7637795275590551,"duration":0.14003544270832435},{"name":"E3","midi":52,"time":133.4434585000029,"velocity":0.7637795275590551,"duration":0.14003544270832435},{"name":"A4","midi":69,"time":133.58496800000287,"velocity":0.7637795275590551,"duration":0.21226425000000404},{"name":"F3","midi":53,"time":133.58496800000287,"velocity":0.7637795275590551,"duration":0.42305444270832027},{"name":"E4","midi":64,"time":133.7264775000029,"velocity":0.7637795275590551,"duration":0.14003544270832435},{"name":"G3","midi":55,"time":133.7264775000029,"velocity":0.7637795275590551,"duration":0.14003544270832435},{"name":"F4","midi":65,"time":133.86798700000287,"velocity":0.7637795275590551,"duration":0.42305444270829184},{"name":"G#3","midi":56,"time":133.86798700000287,"velocity":0.7637795275590551,"duration":0.2800708854166487},{"name":"B3","midi":59,"time":134.00949650000285,"velocity":0.7637795275590551,"duration":0.14003544270832435},{"name":"D3","midi":50,"time":134.00949650000285,"velocity":0.7637795275590551,"duration":0.14003544270832435},{"name":"C4","midi":60,"time":134.15100600000284,"velocity":0.7637795275590551,"duration":0.2815449427083081},{"name":"C3","midi":48,"time":134.15100600000284,"velocity":0.7637795275590551,"duration":0.5601417708332974},{"name":"F4","midi":65,"time":134.29251550000282,"velocity":0.7637795275590551,"duration":0.2815449427083081},{"name":"G3","midi":55,"time":134.4340250000028,"velocity":0.7637795275590551,"duration":0.2815449427083365},{"name":"A#3","midi":58,"time":134.4340250000028,"velocity":0.7637795275590551,"duration":0.2815449427083365},{"name":"C2","midi":36,"time":134.4340250000028,"velocity":0.7637795275590551,"duration":0.2815449427083365},{"name":"E4","midi":64,"time":134.5755345000028,"velocity":0.7637795275590551,"duration":0.14003544270835278},{"name":"C4","midi":60,"time":134.7170440000028,"velocity":0.7637795275590551,"duration":0.8844343749999837},{"name":"A3","midi":57,"time":134.7170440000028,"velocity":0.7637795275590551,"duration":0.8844343749999837},{"name":"F4","midi":65,"time":134.7170440000028,"velocity":0.7637795275590551,"duration":0.8475829427083283},{"name":"F2","midi":41,"time":134.7170440000028,"velocity":0.7637795275590551,"duration":1.1306019427082958},{"name":"F3","midi":53,"time":134.7170440000028,"velocity":0.7637795275590551,"duration":1.1306019427082958},{"name":"C5","midi":72,"time":135.70761050000277,"velocity":0.7637795275590551,"duration":0.14003544270832435},{"name":"C5","midi":72,"time":135.84912000000276,"velocity":0.7637795275590551,"duration":1.130601942708239},{"name":"F2","midi":41,"time":135.84912000000276,"velocity":0.7637795275590551,"duration":2.2626779427081374},{"name":"A4","midi":69,"time":135.99062950000277,"velocity":0.7637795275590551,"duration":0.14003544270832435},{"name":"F4","midi":65,"time":136.13213900000275,"velocity":0.7637795275590551,"duration":0.14003544270832435},{"name":"E4","midi":64,"time":136.27364850000274,"velocity":0.7637795275590551,"duration":0.14003544270832435},{"name":"F4","midi":65,"time":136.41515800000272,"velocity":0.7637795275590551,"duration":0.14003544270832435},{"name":"A4","midi":69,"time":136.5566675000027,"velocity":0.7637795275590551,"duration":0.14003544270832435},{"name":"C4","midi":60,"time":136.6981770000027,"velocity":0.7637795275590551,"duration":0.14003544270832435},{"name":"F4","midi":65,"time":136.83968650000267,"velocity":0.7637795275590551,"duration":0.14003544270832435},{"name":"A3","midi":57,"time":136.98119600000265,"velocity":0.7637795275590551,"duration":0.14003544270832435},{"name":"C4","midi":60,"time":137.12270550000264,"velocity":0.7637795275590551,"duration":0.14003544270832435},{"name":"F3","midi":53,"time":137.26421500000262,"velocity":0.7637795275590551,"duration":0.8475829427082715},{"name":"A3","midi":57,"time":137.40572450000263,"velocity":0.7637795275590551,"duration":0.14003544270832435},{"name":"C4","midi":60,"time":137.54723400000262,"velocity":0.7637795275590551,"duration":0.14003544270832435},{"name":"D#4","midi":63,"time":137.6887435000026,"velocity":0.7637795275590551,"duration":0.14003544270832435},{"name":"A4","midi":69,"time":137.83025300000259,"velocity":0.7637795275590551,"duration":0.14003544270832435},{"name":"A#4","midi":70,"time":137.97176250000257,"velocity":0.7637795275590551,"duration":0.14003544270832435},{"name":"C5","midi":72,"time":138.11327200000255,"velocity":0.7637795275590551,"duration":0.8475829427082715},{"name":"F#2","midi":42,"time":138.11327200000255,"velocity":0.7637795275590551,"duration":2.262677942708166},{"name":"A4","midi":69,"time":138.25478150000257,"velocity":0.7637795275590551,"duration":0.14003544270832435},{"name":"D#4","midi":63,"time":138.39629100000255,"velocity":0.7637795275590551,"duration":0.14003544270832435},{"name":"D4","midi":62,"time":138.53780050000253,"velocity":0.7637795275590551,"duration":0.14003544270832435},{"name":"D#4","midi":63,"time":138.67931000000252,"velocity":0.7637795275590551,"duration":0.14003544270832435},{"name":"A4","midi":69,"time":138.8208195000025,"velocity":0.7637795275590551,"duration":0.14003544270832435},{"name":"C4","midi":60,"time":138.96232900000248,"velocity":0.7637795275590551,"duration":0.14003544270832435},{"name":"D#4","midi":63,"time":139.10383850000247,"velocity":0.7637795275590551,"duration":0.14003544270832435},{"name":"A3","midi":57,"time":139.24534800000245,"velocity":0.7637795275590551,"duration":0.14003544270832435},{"name":"C4","midi":60,"time":139.38685750000244,"velocity":0.7637795275590551,"duration":0.14003544270832435},{"name":"F#3","midi":54,"time":139.52836700000242,"velocity":0.7637795275590551,"duration":0.14003544270832435},{"name":"A3","midi":57,"time":139.6698765000024,"velocity":0.7637795275590551,"duration":0.14003544270832435},{"name":"D4","midi":62,"time":139.8113860000024,"velocity":0.7637795275590551,"duration":0.5601417708333258},{"name":"F#4","midi":66,"time":139.9528955000024,"velocity":0.7637795275590551,"duration":0.14003544270832435},{"name":"A4","midi":69,"time":140.09440500000238,"velocity":0.7637795275590551,"duration":0.14003544270832435},{"name":"C5","midi":72,"time":140.23591450000237,"velocity":0.7637795275590551,"duration":0.14003544270835278},{"name":"A#4","midi":70,"time":140.37742400000238,"velocity":0.7637795275590551,"duration":0.6957550416666436},{"name":"G2","midi":43,"time":140.37742400000238,"velocity":0.7637795275590551,"duration":0.28007088541667713},{"name":"A4","midi":69,"time":140.5189335000024,"velocity":0.7637795275590551,"duration":0.14003544270832435},{"name":"G4","midi":67,"time":140.66044300000237,"velocity":0.7637795275590551,"duration":0.14003544270832435},{"name":"A2","midi":45,"time":140.66044300000237,"velocity":0.7637795275590551,"duration":0.2800708854166487},{"name":"F#4","midi":66,"time":140.80195250000236,"velocity":0.7637795275590551,"duration":0.14003544270832435},{"name":"G4","midi":67,"time":140.94346200000234,"velocity":0.7637795275590551,"duration":0.14003544270835278},{"name":"A#2","midi":46,"time":140.94346200000234,"velocity":0.7637795275590551,"duration":0.28007088541667713},{"name":"A#4","midi":70,"time":141.08497150000235,"velocity":0.7637795275590551,"duration":0.5601417708333258},{"name":"D4","midi":62,"time":141.22648100000237,"velocity":0.7637795275590551,"duration":0.14003544270832435},{"name":"G2","midi":43,"time":141.22648100000237,"velocity":0.7637795275590551,"duration":0.2800708854166487},{"name":"F4","midi":65,"time":141.36799050000235,"velocity":0.7637795275590551,"duration":0.14003544270832435},{"name":"D#4","midi":63,"time":141.50950000000233,"velocity":0.7637795275590551,"duration":0.8475829427082715},{"name":"C3","midi":48,"time":141.50950000000233,"velocity":0.7637795275590551,"duration":0.2815449427083365},{"name":"A#4","midi":70,"time":141.65100950000235,"velocity":0.7637795275590551,"duration":0.14003544270832435},{"name":"A4","midi":69,"time":141.79251900000233,"velocity":0.7637795275590551,"duration":0.14003544270832435},{"name":"A#2","midi":46,"time":141.79251900000233,"velocity":0.7637795275590551,"duration":0.2815449427083081},{"name":"G4","midi":67,"time":141.9340285000023,"velocity":0.7637795275590551,"duration":0.14003544270832435},{"name":"A4","midi":69,"time":142.0755380000023,"velocity":0.7637795275590551,"duration":0.14003544270832435},{"name":"C3","midi":48,"time":142.0755380000023,"velocity":0.7637795275590551,"duration":0.2815449427083081},{"name":"C5","midi":72,"time":142.21704750000228,"velocity":0.7637795275590551,"duration":0.14003544270832435},{"name":"F#4","midi":66,"time":142.35855700000226,"velocity":0.7637795275590551,"duration":0.14003544270832435},{"name":"A2","midi":45,"time":142.35855700000226,"velocity":0.7637795275590551,"duration":0.2815449427083081},{"name":"G4","midi":67,"time":142.50006650000225,"velocity":0.7637795275590551,"duration":0.14003544270832435},{"name":"F#4","midi":66,"time":142.64157600000223,"velocity":0.7637795275590551,"duration":0.8475829427082715},{"name":"D3","midi":50,"time":142.64157600000223,"velocity":0.7637795275590551,"duration":1.130601942708239},{"name":"D4","midi":62,"time":142.78308550000224,"velocity":0.7637795275590551,"duration":0.14003544270832435},{"name":"C4","midi":60,"time":142.92459500000223,"velocity":0.7637795275590551,"duration":0.14003544270832435},{"name":"A#3","midi":58,"time":143.0661045000022,"velocity":0.7637795275590551,"duration":0.14003544270832435},{"name":"C4","midi":60,"time":143.2076140000022,"velocity":0.7637795275590551,"duration":0.14003544270832435},{"name":"D#4","midi":63,"time":143.34912350000218,"velocity":0.7637795275590551,"duration":0.14003544270832435},{"name":"A3","midi":57,"time":143.49063300000216,"velocity":0.7637795275590551,"duration":0.14003544270832435},{"name":"C4","midi":60,"time":143.63214250000215,"velocity":0.7637795275590551,"duration":0.14003544270832435},{"name":"F#3","midi":54,"time":143.77365200000213,"velocity":0.7637795275590551,"duration":0.14003544270832435},{"name":"A3","midi":57,"time":143.9151615000021,"velocity":0.7637795275590551,"duration":0.14003544270832435},{"name":"D4","midi":62,"time":144.0566710000021,"velocity":0.7637795275590551,"duration":0.14003544270832435},{"name":"C3","midi":48,"time":144.0566710000021,"velocity":0.7637795275590551,"duration":0.2800708854166487},{"name":"F#4","midi":66,"time":144.19818050000208,"velocity":0.7637795275590551,"duration":0.14003544270832435},{"name":"G4","midi":67,"time":144.33969000000207,"velocity":0.7637795275590551,"duration":0.21226425000000404},{"name":"A#2","midi":46,"time":144.33969000000207,"velocity":0.7637795275590551,"duration":0.28007088541667713},{"name":"D4","midi":62,"time":144.48119950000208,"velocity":0.7637795275590551,"duration":0.14003544270832435},{"name":"A4","midi":69,"time":144.62270900000206,"velocity":0.7637795275590551,"duration":0.21226425000000404},{"name":"A2","midi":45,"time":144.62270900000206,"velocity":0.7637795275590551,"duration":0.28007088541667713},{"name":"D4","midi":62,"time":144.76421850000207,"velocity":0.7637795275590551,"duration":0.14003544270832435},{"name":"A#4","midi":70,"time":144.90572800000206,"velocity":0.7637795275590551,"duration":0.7075474999999756},{"name":"G2","midi":43,"time":144.90572800000206,"velocity":0.7637795275590551,"duration":0.5601417708333258},{"name":"G4","midi":67,"time":145.04723750000207,"velocity":0.7637795275590551,"duration":0.14003544270832435},{"name":"F4","midi":65,"time":145.18874700000205,"velocity":0.7637795275590551,"duration":0.14003544270832435},{"name":"D#4","midi":63,"time":145.33025650000204,"velocity":0.7637795275590551,"duration":0.14003544270835278},{"name":"F4","midi":65,"time":145.47176600000205,"velocity":0.7637795275590551,"duration":0.14003544270832435},{"name":"G#4","midi":68,"time":145.61327550000203,"velocity":0.7637795275590551,"duration":0.14003544270832435},{"name":"D4","midi":62,"time":145.75478500000202,"velocity":0.7637795275590551,"duration":0.14003544270832435},{"name":"F4","midi":65,"time":145.896294500002,"velocity":0.7637795275590551,"duration":0.14003544270832435},{"name":"B3","midi":59,"time":146.03780400000198,"velocity":0.7637795275590551,"duration":0.28007088541667713},{"name":"D4","midi":62,"time":146.179313500002,"velocity":0.7637795275590551,"duration":0.14003544270832435},{"name":"G4","midi":67,"time":146.32082300000198,"velocity":0.7637795275590551,"duration":0.14003544270832435},{"name":"F3","midi":53,"time":146.32082300000198,"velocity":0.7637795275590551,"duration":0.2815449427083081},{"name":"B4","midi":71,"time":146.46233250000196,"velocity":0.7637795275590551,"duration":0.14003544270832435},{"name":"C5","midi":72,"time":146.60384200000195,"velocity":0.7637795275590551,"duration":0.21226425000000404},{"name":"D#3","midi":51,"time":146.60384200000195,"velocity":0.7637795275590551,"duration":0.2815449427083365},{"name":"G4","midi":67,"time":146.74535150000196,"velocity":0.7637795275590551,"duration":0.21226424999997562},{"name":"D5","midi":74,"time":146.88686100000194,"velocity":0.7637795275590551,"duration":0.2800708854166487},{"name":"D3","midi":50,"time":146.88686100000194,"velocity":0.7637795275590551,"duration":0.2815449427083081},{"name":"F4","midi":65,"time":147.02837050000193,"velocity":0.7637795275590551,"duration":0.14003544270832435},{"name":"D#4","midi":63,"time":147.1698800000019,"velocity":0.7637795275590551,"duration":0.14003544270832435},{"name":"C3","midi":48,"time":147.1698800000019,"velocity":0.7637795275590551,"duration":0.2815449427083081},{"name":"G4","midi":67,"time":147.3113895000019,"velocity":0.7637795275590551,"duration":0.14003544270832435},{"name":"A4","midi":69,"time":147.45289900000188,"velocity":0.7637795275590551,"duration":0.14003544270832435},{"name":"C4","midi":60,"time":147.45289900000188,"velocity":0.7637795275590551,"duration":0.2815449427083081},{"name":"B4","midi":71,"time":147.59440850000186,"velocity":0.7637795275590551,"duration":0.14003544270832435},{"name":"C5","midi":72,"time":147.73591800000185,"velocity":0.7637795275590551,"duration":0.21226425000000404},{"name":"D#4","midi":63,"time":147.73591800000185,"velocity":0.7637795275590551,"duration":0.2815449427083365},{"name":"D#5","midi":75,"time":147.87742750000186,"velocity":0.7637795275590551,"duration":0.14003544270832435},{"name":"A#4","midi":70,"time":148.01893700000184,"velocity":0.7637795275590551,"duration":0.21226425000000404},{"name":"G4","midi":67,"time":148.01893700000184,"velocity":0.7637795275590551,"duration":0.2815449427083365},{"name":"D#5","midi":75,"time":148.16044650000185,"velocity":0.7637795275590551,"duration":0.14003544270832435},{"name":"G#4","midi":68,"time":148.30195600000184,"velocity":0.7637795275590551,"duration":0.28007088541667713},{"name":"F4","midi":65,"time":148.30195600000184,"velocity":0.7637795275590551,"duration":0.5601417708333258},{"name":"D#5","midi":75,"time":148.44346550000185,"velocity":0.7637795275590551,"duration":0.14003544270832435},{"name":"G#4","midi":68,"time":148.58497500000183,"velocity":0.7637795275590551,"duration":0.14003544270832435},{"name":"F3","midi":53,"time":148.58497500000183,"velocity":0.7637795275590551,"duration":0.2815449427083365},{"name":"G4","midi":67,"time":148.72648450000182,"velocity":0.7637795275590551,"duration":0.14003544270835278},{"name":"F4","midi":65,"time":148.86799400000183,"velocity":0.7637795275590551,"duration":0.21226425000000404},{"name":"G#3","midi":56,"time":148.86799400000183,"velocity":0.7637795275590551,"duration":0.2815449427083365},{"name":"G#4","midi":68,"time":149.00950350000184,"velocity":0.7637795275590551,"duration":0.14003544270832435},{"name":"D#4","midi":63,"time":149.15101300000183,"velocity":0.7637795275590551,"duration":0.21226425000000404},{"name":"C4","midi":60,"time":149.15101300000183,"velocity":0.7637795275590551,"duration":0.2815449427083365},{"name":"G#4","midi":68,"time":149.29252250000184,"velocity":0.7637795275590551,"duration":0.14003544270832435},{"name":"D4","midi":62,"time":149.43403200000182,"velocity":0.7637795275590551,"duration":0.14003544270832435},{"name":"A#2","midi":46,"time":149.43403200000182,"velocity":0.7637795275590551,"duration":0.2815449427083081},{"name":"F4","midi":65,"time":149.5755415000018,"velocity":0.7637795275590551,"duration":0.14003544270832435},{"name":"G4","midi":67,"time":149.7170510000018,"velocity":0.7637795275590551,"duration":0.14003544270832435},{"name":"A#3","midi":58,"time":149.7170510000018,"velocity":0.7637795275590551,"duration":0.2815449427083081},{"name":"A4","midi":69,"time":149.85856050000177,"velocity":0.7637795275590551,"duration":0.14003544270832435},{"name":"A#4","midi":70,"time":150.00007000000176,"velocity":0.7637795275590551,"duration":0.21226425000000404},{"name":"D4","midi":62,"time":150.00007000000176,"velocity":0.7637795275590551,"duration":0.2815449427083365},{"name":"D5","midi":74,"time":150.14157950000177,"velocity":0.7637795275590551,"duration":0.14003544270832435},{"name":"G#4","midi":68,"time":150.28308900000175,"velocity":0.7637795275590551,"duration":0.21226425000000404},{"name":"F4","midi":65,"time":150.28308900000175,"velocity":0.7637795275590551,"duration":0.2815449427083365},{"name":"D5","midi":74,"time":150.42459850000176,"velocity":0.7637795275590551,"duration":0.14003544270832435},{"name":"G4","midi":67,"time":150.56610800000175,"velocity":0.7637795275590551,"duration":0.28007088541667713},{"name":"D#4","midi":63,"time":150.56610800000175,"velocity":0.7637795275590551,"duration":0.5601417708333258},{"name":"D5","midi":74,"time":150.70761750000176,"velocity":0.7637795275590551,"duration":0.14003544270832435},{"name":"G4","midi":67,"time":150.84912700000174,"velocity":0.7637795275590551,"duration":0.14003544270832435},{"name":"D#3","midi":51,"time":150.84912700000174,"velocity":0.7637795275590551,"duration":0.2815449427083365},{"name":"F4","midi":65,"time":150.99063650000173,"velocity":0.7637795275590551,"duration":0.14003544270835278},{"name":"D#4","midi":63,"time":151.13214600000174,"velocity":0.7637795275590551,"duration":0.21226425000000404},{"name":"G3","midi":55,"time":151.13214600000174,"velocity":0.7637795275590551,"duration":0.2815449427083365},{"name":"G4","midi":67,"time":151.27365550000175,"velocity":0.7637795275590551,"duration":0.14003544270832435},{"name":"D4","midi":62,"time":151.41516500000174,"velocity":0.7637795275590551,"duration":0.21226425000000404},{"name":"A#3","midi":58,"time":151.41516500000174,"velocity":0.7637795275590551,"duration":0.2815449427083365},{"name":"G4","midi":67,"time":151.55667450000175,"velocity":0.7637795275590551,"duration":0.14003544270832435},{"name":"C4","midi":60,"time":151.69818400000173,"velocity":0.7637795275590551,"duration":0.14003544270832435},{"name":"G#2","midi":44,"time":151.69818400000173,"velocity":0.7637795275590551,"duration":0.2815449427083081},{"name":"D#4","midi":63,"time":151.83969350000172,"velocity":0.7637795275590551,"duration":0.14003544270832435},{"name":"F4","midi":65,"time":151.9812030000017,"velocity":0.7637795275590551,"duration":0.14003544270832435},{"name":"G#3","midi":56,"time":151.9812030000017,"velocity":0.7637795275590551,"duration":0.2815449427083081},{"name":"G4","midi":67,"time":152.12271250000168,"velocity":0.7637795275590551,"duration":0.14003544270832435},{"name":"G#4","midi":68,"time":152.26422200000167,"velocity":0.7637795275590551,"duration":0.21226425000000404},{"name":"C4","midi":60,"time":152.26422200000167,"velocity":0.7637795275590551,"duration":0.2815449427083365},{"name":"C5","midi":72,"time":152.40573150000168,"velocity":0.7637795275590551,"duration":0.14003544270832435},{"name":"G4","midi":67,"time":152.54724100000166,"velocity":0.7637795275590551,"duration":0.21226425000000404},{"name":"D#4","midi":63,"time":152.54724100000166,"velocity":0.7637795275590551,"duration":0.2815449427083365},{"name":"C5","midi":72,"time":152.68875050000167,"velocity":0.7637795275590551,"duration":0.14003544270832435},{"name":"F4","midi":65,"time":152.83026000000166,"velocity":0.7637795275590551,"duration":0.28007088541667713},{"name":"D4","midi":62,"time":152.83026000000166,"velocity":0.7637795275590551,"duration":0.5601417708333258},{"name":"C5","midi":72,"time":152.97176950000167,"velocity":0.7637795275590551,"duration":0.14003544270832435},{"name":"F4","midi":65,"time":153.11327900000165,"velocity":0.7637795275590551,"duration":0.14003544270832435},{"name":"D3","midi":50,"time":153.11327900000165,"velocity":0.7637795275590551,"duration":0.2815449427083365},{"name":"D#4","midi":63,"time":153.25478850000164,"velocity":0.7637795275590551,"duration":0.14003544270835278},{"name":"D4","midi":62,"time":153.39629800000165,"velocity":0.7637795275590551,"duration":0.1768868750000081},{"name":"F3","midi":53,"time":153.39629800000165,"velocity":0.7637795275590551,"duration":0.2815449427083365},{"name":"F4","midi":65,"time":153.53780750000166,"velocity":0.7637795275590551,"duration":0.14003544270832435},{"name":"C4","midi":60,"time":153.67931700000165,"velocity":0.7637795275590551,"duration":0.1768868750000081},{"name":"G#3","midi":56,"time":153.67931700000165,"velocity":0.7637795275590551,"duration":0.2815449427083365},{"name":"F4","midi":65,"time":153.82082650000166,"velocity":0.7637795275590551,"duration":0.14003544270832435},{"name":"C4","midi":60,"time":153.96233600000164,"velocity":0.7637795275590551,"duration":0.14003544270832435},{"name":"G2","midi":43,"time":153.96233600000164,"velocity":0.7637795275590551,"duration":0.14003544270832435},{"name":"B3","midi":59,"time":154.10384550000163,"velocity":0.7637795275590551,"duration":0.06928069270833248},{"name":"G3","midi":55,"time":154.10384550000163,"velocity":0.7637795275590551,"duration":0.14003544270832435},{"name":"C4","midi":60,"time":154.17460025000162,"velocity":0.7637795275590551,"duration":0.06928069270833248},{"name":"B3","midi":59,"time":154.2453550000016,"velocity":0.7637795275590551,"duration":0.06928069270833248},{"name":"F3","midi":53,"time":154.2453550000016,"velocity":0.7637795275590551,"duration":0.14003544270832435},{"name":"C4","midi":60,"time":154.3161097500016,"velocity":0.7637795275590551,"duration":0.06928069270833248},{"name":"B3","midi":59,"time":154.3868645000016,"velocity":0.7637795275590551,"duration":0.06928069270833248},{"name":"D#3","midi":51,"time":154.3868645000016,"velocity":0.7637795275590551,"duration":0.14003544270832435},{"name":"C4","midi":60,"time":154.45761925000158,"velocity":0.7637795275590551,"duration":0.06928069270833248},{"name":"B3","midi":59,"time":154.52837400000158,"velocity":0.7637795275590551,"duration":0.21226424999997562},{"name":"D3","midi":50,"time":154.52837400000158,"velocity":0.7637795275590551,"duration":0.14003544270832435},{"name":"C3","midi":48,"time":154.66988350000156,"velocity":0.7637795275590551,"duration":0.14003544270832435},{"name":"G3","midi":55,"time":154.81139300000154,"velocity":0.7637795275590551,"duration":0.2815449427083081},{"name":"B2","midi":47,"time":154.81139300000154,"velocity":0.7637795275590551,"duration":0.14003544270832435},{"name":"A2","midi":45,"time":154.95290250000153,"velocity":0.7637795275590551,"duration":0.14003544270832435},{"name":"C4","midi":60,"time":155.0944120000015,"velocity":0.7637795275590551,"duration":0.2815449427083081},{"name":"G2","midi":43,"time":155.0944120000015,"velocity":0.7637795275590551,"duration":0.14003544270832435},{"name":"D#3","midi":51,"time":155.2359215000015,"velocity":0.7637795275590551,"duration":0.14003544270832435},{"name":"D4","midi":62,"time":155.37743100000148,"velocity":0.7637795275590551,"duration":0.14003544270832435},{"name":"D3","midi":50,"time":155.37743100000148,"velocity":0.7637795275590551,"duration":0.14003544270832435},{"name":"D#4","midi":63,"time":155.51894050000146,"velocity":0.7637795275590551,"duration":0.14003544270832435},{"name":"C3","midi":48,"time":155.51894050000146,"velocity":0.7637795275590551,"duration":0.14003544270832435},{"name":"F4","midi":65,"time":155.66045000000145,"velocity":0.7637795275590551,"duration":0.2815449427083081},{"name":"B2","midi":47,"time":155.66045000000145,"velocity":0.7637795275590551,"duration":0.14003544270832435},{"name":"D3","midi":50,"time":155.80195950000143,"velocity":0.7637795275590551,"duration":0.14003544270832435},{"name":"D#4","midi":63,"time":155.94346900000141,"velocity":0.7637795275590551,"duration":0.06928069270833248},{"name":"G2","midi":43,"time":155.94346900000141,"velocity":0.7637795275590551,"duration":0.14003544270832435},{"name":"F4","midi":65,"time":156.0142237500014,"velocity":0.7637795275590551,"duration":0.06928069270833248},{"name":"D#4","midi":63,"time":156.0849785000014,"velocity":0.7637795275590551,"duration":0.06928069270833248},{"name":"B2","midi":47,"time":156.0849785000014,"velocity":0.7637795275590551,"duration":0.14003544270832435},{"name":"D4","midi":62,"time":156.1557332500014,"velocity":0.7637795275590551,"duration":0.06928069270833248},{"name":"D#4","midi":63,"time":156.22648800000138,"velocity":0.7637795275590551,"duration":0.7060734427083162},{"name":"G1","midi":31,"time":156.22648800000138,"velocity":0.7637795275590551,"duration":0.4127360416666761},{"name":"C4","midi":60,"time":156.3679975000014,"velocity":0.7637795275590551,"duration":0.14003544270832435},{"name":"B3","midi":59,"time":156.50950700000138,"velocity":0.7637795275590551,"duration":0.14003544270835278},{"name":"A3","midi":57,"time":156.6510165000014,"velocity":0.7637795275590551,"duration":0.14003544270832435},{"name":"G3","midi":55,"time":156.79252600000137,"velocity":0.7637795275590551,"duration":0.14003544270832435},{"name":"G3","midi":55,"time":156.93403550000136,"velocity":0.7637795275590551,"duration":0.14003544270832435},{"name":"F3","midi":53,"time":156.93403550000136,"velocity":0.7637795275590551,"duration":0.14003544270832435},{"name":"C4","midi":60,"time":157.07554500000134,"velocity":0.7637795275590551,"duration":0.14003544270832435},{"name":"D#3","midi":51,"time":157.07554500000134,"velocity":0.7637795275590551,"duration":0.14003544270832435},{"name":"D4","midi":62,"time":157.21705450000132,"velocity":0.7637795275590551,"duration":0.14003544270832435},{"name":"D3","midi":50,"time":157.21705450000132,"velocity":0.7637795275590551,"duration":0.14003544270832435},{"name":"D#4","midi":63,"time":157.3585640000013,"velocity":0.7637795275590551,"duration":0.14003544270832435},{"name":"C3","midi":48,"time":157.3585640000013,"velocity":0.7637795275590551,"duration":0.14003544270832435},{"name":"C4","midi":60,"time":157.5000735000013,"velocity":0.7637795275590551,"duration":0.14003544270832435},{"name":"A#2","midi":46,"time":157.5000735000013,"velocity":0.7637795275590551,"duration":0.14003544270832435},{"name":"F#4","midi":66,"time":157.64158300000128,"velocity":0.7637795275590551,"duration":0.14003544270832435},{"name":"A2","midi":45,"time":157.64158300000128,"velocity":0.7637795275590551,"duration":0.14003544270832435},{"name":"G4","midi":67,"time":157.78309250000126,"velocity":0.7637795275590551,"duration":0.14003544270832435},{"name":"G2","midi":43,"time":157.78309250000126,"velocity":0.7637795275590551,"duration":0.14003544270832435},{"name":"A4","midi":69,"time":157.92460200000124,"velocity":0.7637795275590551,"duration":0.2800708854166487},{"name":"F#2","midi":42,"time":157.92460200000124,"velocity":0.7637795275590551,"duration":0.14003544270832435},{"name":"C4","midi":60,"time":158.06611150000123,"velocity":0.7637795275590551,"duration":0.14003544270832435},{"name":"D3","midi":50,"time":158.06611150000123,"velocity":0.7637795275590551,"duration":0.14003544270832435},{"name":"G4","midi":67,"time":158.2076210000012,"velocity":0.7637795275590551,"duration":0.14003544270832435},{"name":"D2","midi":38,"time":158.2076210000012,"velocity":0.7637795275590551,"duration":0.14003544270832435},{"name":"F#4","midi":66,"time":158.3491305000012,"velocity":0.7637795275590551,"duration":0.14003544270832435},{"name":"C3","midi":48,"time":158.3491305000012,"velocity":0.7637795275590551,"duration":0.14003544270832435},{"name":"G4","midi":67,"time":158.49064000000118,"velocity":0.7637795275590551,"duration":0.8475829427082999},{"name":"G1","midi":31,"time":158.49064000000118,"velocity":0.7637795275590551,"duration":0.4127360416666761},{"name":"D#4","midi":63,"time":158.6321495000012,"velocity":0.7637795275590551,"duration":0.14003544270832435},{"name":"D4","midi":62,"time":158.77365900000117,"velocity":0.7637795275590551,"duration":0.14003544270835278},{"name":"C4","midi":60,"time":158.9151685000012,"velocity":0.7637795275590551,"duration":0.14003544270832435},{"name":"B3","midi":59,"time":159.05667800000117,"velocity":0.7637795275590551,"duration":0.14003544270832435},{"name":"A3","midi":57,"time":159.19818750000115,"velocity":0.7637795275590551,"duration":0.14003544270832435},{"name":"D4","midi":62,"time":159.33969700000114,"velocity":0.7637795275590551,"duration":0.2815449427083081},{"name":"G3","midi":55,"time":159.33969700000114,"velocity":0.7637795275590551,"duration":0.14003544270832435},{"name":"F3","midi":53,"time":159.48120650000112,"velocity":0.7637795275590551,"duration":0.14003544270832435},{"name":"G4","midi":67,"time":159.6227160000011,"velocity":0.7637795275590551,"duration":0.2815449427083081},{"name":"D#3","midi":51,"time":159.6227160000011,"velocity":0.7637795275590551,"duration":0.14003544270832435},{"name":"G3","midi":55,"time":159.7642255000011,"velocity":0.7637795275590551,"duration":0.14003544270832435},{"name":"A4","midi":69,"time":159.90573500000107,"velocity":0.7637795275590551,"duration":0.14003544270832435},{"name":"C4","midi":60,"time":159.90573500000107,"velocity":0.7637795275590551,"duration":0.14003544270832435},{"name":"B4","midi":71,"time":160.04724450000106,"velocity":0.7637795275590551,"duration":0.14003544270832435},{"name":"D4","midi":62,"time":160.04724450000106,"velocity":0.7637795275590551,"duration":0.14003544270832435},{"name":"C5","midi":72,"time":160.18875400000104,"velocity":0.7637795275590551,"duration":0.25796002604164414},{"name":"F#3","midi":54,"time":160.18875400000104,"velocity":0.7637795275590551,"duration":0.14003544270832435},{"name":"D#4","midi":63,"time":160.33026350000102,"velocity":0.7637795275590551,"duration":0.14003544270832435},{"name":"B4","midi":71,"time":160.471773000001,"velocity":0.7637795275590551,"duration":0.06928069270833248},{"name":"D4","midi":62,"time":160.471773000001,"velocity":0.7637795275590551,"duration":0.14003544270832435},{"name":"C5","midi":72,"time":160.542527750001,"velocity":0.7637795275590551,"duration":0.06928069270833248},{"name":"B4","midi":71,"time":160.613282500001,"velocity":0.7637795275590551,"duration":0.06928069270833248},{"name":"C4","midi":60,"time":160.613282500001,"velocity":0.7637795275590551,"duration":0.14003544270832435},{"name":"A4","midi":69,"time":160.68403725000098,"velocity":0.7637795275590551,"duration":0.06928069270833248},{"name":"B4","midi":71,"time":160.75479200000098,"velocity":0.7637795275590551,"duration":0.2815449427083081},{"name":"G3","midi":55,"time":160.75479200000098,"velocity":0.7637795275590551,"duration":0.14003544270832435},{"name":"D4","midi":62,"time":160.89630150000096,"velocity":0.7637795275590551,"duration":0.14003544270832435},{"name":"C5","midi":72,"time":161.03781100000094,"velocity":0.7637795275590551,"duration":0.14003544270832435},{"name":"D#4","midi":63,"time":161.03781100000094,"velocity":0.7637795275590551,"duration":0.14003544270832435},{"name":"D5","midi":74,"time":161.17932050000093,"velocity":0.7637795275590551,"duration":0.14003544270832435},{"name":"F4","midi":65,"time":161.17932050000093,"velocity":0.7637795275590551,"duration":0.14003544270832435},{"name":"D#5","midi":75,"time":161.3208300000009,"velocity":0.7637795275590551,"duration":0.25796002604164414},{"name":"A3","midi":57,"time":161.3208300000009,"velocity":0.7637795275590551,"duration":0.14003544270832435},{"name":"G4","midi":67,"time":161.4623395000009,"velocity":0.7637795275590551,"duration":0.14003544270832435},{"name":"D5","midi":74,"time":161.60384900000088,"velocity":0.7637795275590551,"duration":0.06928069270833248},{"name":"F4","midi":65,"time":161.60384900000088,"velocity":0.7637795275590551,"duration":0.14003544270832435},{"name":"D#5","midi":75,"time":161.67460375000087,"velocity":0.7637795275590551,"duration":0.06928069270833248},{"name":"D5","midi":74,"time":161.74535850000086,"velocity":0.7637795275590551,"duration":0.06928069270833248},{"name":"D#4","midi":63,"time":161.74535850000086,"velocity":0.7637795275590551,"duration":0.14003544270832435},{"name":"C5","midi":72,"time":161.81611325000085,"velocity":0.7637795275590551,"duration":0.06928069270833248},{"name":"D5","midi":74,"time":161.88686800000085,"velocity":0.7637795275590551,"duration":0.2815449427083081},{"name":"B3","midi":59,"time":161.88686800000085,"velocity":0.7637795275590551,"duration":0.14003544270832435},{"name":"F4","midi":65,"time":162.02837750000083,"velocity":0.7637795275590551,"duration":0.14003544270832435},{"name":"D#5","midi":75,"time":162.1698870000008,"velocity":0.7637795275590551,"duration":0.14003544270832435},{"name":"D#4","midi":63,"time":162.1698870000008,"velocity":0.7637795275590551,"duration":0.14003544270832435},{"name":"F5","midi":77,"time":162.3113965000008,"velocity":0.7637795275590551,"duration":0.14003544270832435},{"name":"D4","midi":62,"time":162.3113965000008,"velocity":0.7637795275590551,"duration":0.14003544270832435},{"name":"G5","midi":79,"time":162.45290600000078,"velocity":0.7637795275590551,"duration":0.25058973958331876},{"name":"C4","midi":60,"time":162.45290600000078,"velocity":0.7637795275590551,"duration":0.14003544270832435},{"name":"D#4","midi":63,"time":162.59441550000076,"velocity":0.7637795275590551,"duration":0.14003544270832435},{"name":"G5","midi":79,"time":162.73592500000075,"velocity":0.7637795275590551,"duration":0.06928069270833248},{"name":"D4","midi":62,"time":162.73592500000075,"velocity":0.7637795275590551,"duration":0.14003544270832435},{"name":"F5","midi":77,"time":162.80667975000074,"velocity":0.7637795275590551,"duration":0.06928069270833248},{"name":"G5","midi":79,"time":162.85384958333407,"velocity":0.7637795275590551,"duration":0.06928069270833248},{"name":"C4","midi":60,"time":162.87743450000073,"velocity":0.7637795275590551,"duration":0.14003544270835278},{"name":"F5","midi":77,"time":162.89807130208408,"velocity":0.7637795275590551,"duration":0.06928069270833248},{"name":"D#5","midi":75,"time":162.95703359375074,"velocity":0.7637795275590551,"duration":0.06043634895834771},{"name":"F5","midi":77,"time":163.01894400000074,"velocity":0.7637795275590551,"duration":0.14003544270832435},{"name":"D4","midi":62,"time":163.01894400000074,"velocity":0.7637795275590551,"duration":0.2815449427083081},{"name":"D5","midi":74,"time":163.16045350000073,"velocity":0.7637795275590551,"duration":0.14003544270832435},{"name":"B4","midi":71,"time":163.3019630000007,"velocity":0.7637795275590551,"duration":0.14003544270832435},{"name":"F4","midi":65,"time":163.3019630000007,"velocity":0.7637795275590551,"duration":0.2815449427083081},{"name":"G4","midi":67,"time":163.4434725000007,"velocity":0.7637795275590551,"duration":0.14003544270832435},{"name":"F4","midi":65,"time":163.58498200000068,"velocity":0.7637795275590551,"duration":0.14003544270832435},{"name":"G3","midi":55,"time":163.58498200000068,"velocity":0.7637795275590551,"duration":0.2815449427083081},{"name":"D4","midi":62,"time":163.72649150000066,"velocity":0.7637795275590551,"duration":0.14003544270832435},{"name":"G4","midi":67,"time":163.86800100000065,"velocity":0.7637795275590551,"duration":0.14003544270832435},{"name":"F3","midi":53,"time":163.86800100000065,"velocity":0.7637795275590551,"duration":0.2815449427083081},{"name":"B4","midi":71,"time":164.00951050000063,"velocity":0.7637795275590551,"duration":0.14003544270832435},{"name":"C5","midi":72,"time":164.1510200000006,"velocity":0.7637795275590551,"duration":0.7001772135416218},{"name":"D#3","midi":51,"time":164.1510200000006,"velocity":0.7637795275590551,"duration":0.2815449427083365},{"name":"G4","midi":67,"time":164.29252950000063,"velocity":0.7637795275590551,"duration":0.14003544270832435},{"name":"D#4","midi":63,"time":164.4340390000006,"velocity":0.7637795275590551,"duration":0.14003544270832435},{"name":"F3","midi":53,"time":164.4340390000006,"velocity":0.7637795275590551,"duration":0.2815449427083081},{"name":"C4","midi":60,"time":164.5755485000006,"velocity":0.7637795275590551,"duration":0.13266515624999897},{"name":"G3","midi":55,"time":164.71705800000058,"velocity":0.7637795275590551,"duration":0.2815449427083081},{"name":"D4","midi":62,"time":164.85856750000056,"velocity":0.7637795275590551,"duration":0.14003544270832435},{"name":"F4","midi":65,"time":165.00007700000054,"velocity":0.7637795275590551,"duration":0.14003544270832435},{"name":"G2","midi":43,"time":165.00007700000054,"velocity":0.7637795275590551,"duration":0.2815449427083081},{"name":"B4","midi":71,"time":165.14158650000053,"velocity":0.7637795275590551,"duration":0.14003544270832435},{"name":"C5","midi":72,"time":165.2830960000005,"velocity":0.7637795275590551,"duration":0.14003544270832435},{"name":"C3","midi":48,"time":165.2830960000005,"velocity":0.7637795275590551,"duration":0.2815449427083081},{"name":"G4","midi":67,"time":165.4246055000005,"velocity":0.7637795275590551,"duration":0.14003544270832435},{"name":"D#4","midi":63,"time":165.56611500000048,"velocity":0.7637795275590551,"duration":0.14003544270832435},{"name":"G3","midi":55,"time":165.56611500000048,"velocity":0.7637795275590551,"duration":0.2815449427083081},{"name":"D4","midi":62,"time":165.70762450000046,"velocity":0.7637795275590551,"duration":0.14003544270832435},{"name":"D#4","midi":63,"time":165.84913400000045,"velocity":0.7637795275590551,"duration":0.14003544270832435},{"name":"C4","midi":60,"time":165.84913400000045,"velocity":0.7637795275590551,"duration":0.2815449427083081},{"name":"G4","midi":67,"time":165.99064350000043,"velocity":0.7637795275590551,"duration":0.14003544270832435},{"name":"C5","midi":72,"time":166.13215300000041,"velocity":0.7637795275590551,"duration":0.14003544270832435},{"name":"A#3","midi":58,"time":166.13215300000041,"velocity":0.7637795275590551,"duration":0.2815449427083081},{"name":"D5","midi":74,"time":166.2736625000004,"velocity":0.7637795275590551,"duration":0.14003544270832435},{"name":"D#5","midi":75,"time":166.41517200000038,"velocity":0.7637795275590551,"duration":0.28007088541667713},{"name":"A3","midi":57,"time":166.41517200000038,"velocity":0.7637795275590551,"duration":0.2815449427083365},{"name":"C5","midi":72,"time":166.5566815000004,"velocity":0.7637795275590551,"duration":0.14003544270832435},{"name":"A4","midi":69,"time":166.69819100000038,"velocity":0.7637795275590551,"duration":0.14003544270832435},{"name":"C4","midi":60,"time":166.69819100000038,"velocity":0.7637795275590551,"duration":0.2815449427083081},{"name":"G4","midi":67,"time":166.83970050000036,"velocity":0.7637795275590551,"duration":0.14003544270832435},{"name":"A4","midi":69,"time":166.98121000000035,"velocity":0.7637795275590551,"duration":0.14003544270832435},{"name":"F3","midi":53,"time":166.98121000000035,"velocity":0.7637795275590551,"duration":0.2815449427083081},{"name":"C5","midi":72,"time":167.12271950000033,"velocity":0.7637795275590551,"duration":0.2800708854166487},{"name":"F4","midi":65,"time":167.2642290000003,"velocity":0.7637795275590551,"duration":0.21226425000000404},{"name":"A3","midi":57,"time":167.2642290000003,"velocity":0.7637795275590551,"duration":0.2815449427083365},{"name":"C5","midi":72,"time":167.40573850000033,"velocity":0.7637795275590551,"duration":0.14003544270832435},{"name":"D5","midi":74,"time":167.5472480000003,"velocity":0.7637795275590551,"duration":0.14003544270832435},{"name":"A#2","midi":46,"time":167.5472480000003,"velocity":0.7637795275590551,"duration":0.2815449427083081},{"name":"F5","midi":77,"time":167.6887575000003,"velocity":0.7637795275590551,"duration":0.14003544270832435},{"name":"A#4","midi":70,"time":167.83026700000028,"velocity":0.7637795275590551,"duration":0.14003544270832435},{"name":"D3","midi":50,"time":167.83026700000028,"velocity":0.7637795275590551,"duration":0.2815449427083081},{"name":"A4","midi":69,"time":167.97177650000026,"velocity":0.7637795275590551,"duration":0.14003544270832435},{"name":"A#4","midi":70,"time":168.11328600000024,"velocity":0.7637795275590551,"duration":0.14003544270832435},{"name":"F3","midi":53,"time":168.11328600000024,"velocity":0.7637795275590551,"duration":0.2815449427083081},{"name":"D5","midi":74,"time":168.25479550000023,"velocity":0.7637795275590551,"duration":0.14003544270832435},{"name":"F5","midi":77,"time":168.3963050000002,"velocity":0.7637795275590551,"duration":0.14003544270832435},{"name":"A#3","midi":58,"time":168.3963050000002,"velocity":0.7637795275590551,"duration":0.2815449427083081},{"name":"G5","midi":79,"time":168.5378145000002,"velocity":0.7637795275590551,"duration":0.14003544270832435},{"name":"G#5","midi":80,"time":168.67932400000018,"velocity":0.7637795275590551,"duration":0.28007088541667713},{"name":"D4","midi":62,"time":168.67932400000018,"velocity":0.7637795275590551,"duration":0.2815449427083365},{"name":"F5","midi":77,"time":168.8208335000002,"velocity":0.7637795275590551,"duration":0.14003544270832435},{"name":"D5","midi":74,"time":168.96234300000017,"velocity":0.7637795275590551,"duration":0.14003544270832435},{"name":"F4","midi":65,"time":168.96234300000017,"velocity":0.7637795275590551,"duration":0.2815449427083081},{"name":"C5","midi":72,"time":169.10385250000016,"velocity":0.7637795275590551,"duration":0.14003544270832435},{"name":"D5","midi":74,"time":169.24536200000014,"velocity":0.7637795275590551,"duration":0.14003544270832435},{"name":"A#3","midi":58,"time":169.24536200000014,"velocity":0.7637795275590551,"duration":0.2815449427083081},{"name":"F5","midi":77,"time":169.38687150000013,"velocity":0.7637795275590551,"duration":0.2800708854166487},{"name":"A#4","midi":70,"time":169.5283810000001,"velocity":0.7637795275590551,"duration":0.21226425000000404},{"name":"D4","midi":62,"time":169.5283810000001,"velocity":0.7637795275590551,"duration":0.2815449427083365},{"name":"F5","midi":77,"time":169.66989050000012,"velocity":0.7637795275590551,"duration":0.14003544270832435},{"name":"G5","midi":79,"time":169.8114000000001,"velocity":0.7637795275590551,"duration":0.14003544270832435},{"name":"D#4","midi":63,"time":169.8114000000001,"velocity":0.7637795275590551,"duration":0.2815449427083081},{"name":"A#5","midi":82,"time":169.9529095000001,"velocity":0.7637795275590551,"duration":0.14003544270832435},{"name":"D#5","midi":75,"time":170.09441900000007,"velocity":0.7637795275590551,"duration":0.14003544270832435},{"name":"D4","midi":62,"time":170.09441900000007,"velocity":0.7637795275590551,"duration":0.2815449427083081},{"name":"D5","midi":74,"time":170.23592850000006,"velocity":0.7637795275590551,"duration":0.14003544270832435},{"name":"D#5","midi":75,"time":170.37743800000004,"velocity":0.7637795275590551,"duration":0.14003544270832435},{"name":"C4","midi":60,"time":170.37743800000004,"velocity":0.7637795275590551,"duration":0.2815449427083081},{"name":"G5","midi":79,"time":170.51894750000002,"velocity":0.7637795275590551,"duration":0.14003544270832435},{"name":"A5","midi":81,"time":170.660457,"velocity":0.7637795275590551,"duration":0.14003544270832435},{"name":"A#3","midi":58,"time":170.660457,"velocity":0.7637795275590551,"duration":0.2815449427083081},{"name":"A#5","midi":82,"time":170.8019665,"velocity":0.7637795275590551,"duration":0.14003544270832435},{"name":"C6","midi":84,"time":170.94347599999998,"velocity":0.7637795275590551,"duration":0.7001772135416218},{"name":"A3","midi":57,"time":170.94347599999998,"velocity":0.7637795275590551,"duration":0.2815449427083365},{"name":"F5","midi":77,"time":171.0849855,"velocity":0.7637795275590551,"duration":0.14003544270832435},{"name":"D#5","midi":75,"time":171.22649499999997,"velocity":0.7637795275590551,"duration":0.14003544270832435},{"name":"C4","midi":60,"time":171.22649499999997,"velocity":0.7637795275590551,"duration":0.2815449427083081},{"name":"D5","midi":74,"time":171.36800449999996,"velocity":0.7637795275590551,"duration":0.14003544270832435},{"name":"D#5","midi":75,"time":171.50951399999994,"velocity":0.7637795275590551,"duration":0.14003544270832435},{"name":"F3","midi":53,"time":171.50951399999994,"velocity":0.7637795275590551,"duration":0.2815449427083081},{"name":"F5","midi":77,"time":171.65102349999992,"velocity":0.7637795275590551,"duration":0.14003544270832435},{"name":"C5","midi":72,"time":171.7925329999999,"velocity":0.7637795275590551,"duration":0.14003544270832435},{"name":"A3","midi":57,"time":171.7925329999999,"velocity":0.7637795275590551,"duration":0.2815449427083081},{"name":"D#5","midi":75,"time":171.9340424999999,"velocity":0.7637795275590551,"duration":0.14003544270832435},{"name":"D5","midi":74,"time":172.07555199999987,"velocity":0.7637795275590551,"duration":0.42452849999997966},{"name":"A#3","midi":58,"time":172.07555199999987,"velocity":0.7637795275590551,"duration":0.2815449427083365},{"name":"G#4","midi":68,"time":172.2170614999999,"velocity":0.7637795275590551,"duration":0.14003544270832435},{"name":"G4","midi":67,"time":172.35857099999987,"velocity":0.7637795275590551,"duration":0.14003544270832435},{"name":"D4","midi":62,"time":172.35857099999987,"velocity":0.7637795275590551,"duration":0.2815449427083081},{"name":"F4","midi":65,"time":172.50008049999985,"velocity":0.7637795275590551,"duration":0.14003544270832435},{"name":"E4","midi":64,"time":172.64158999999984,"velocity":0.7637795275590551,"duration":0.14003544270832435},{"name":"G3","midi":55,"time":172.64158999999984,"velocity":0.7637795275590551,"duration":0.2815449427083081},{"name":"G4","midi":67,"time":172.78309949999982,"velocity":0.7637795275590551,"duration":0.14003544270832435},{"name":"A#4","midi":70,"time":172.9246089999998,"velocity":0.7637795275590551,"duration":0.16214630208335734},{"name":"C4","midi":60,"time":172.9246089999998,"velocity":0.7637795275590551,"duration":0.28154494270836494},{"name":"G4","midi":67,"time":173.06611849999982,"velocity":0.7637795275590551,"duration":0.14003544270835278},{"name":"A4","midi":69,"time":173.20762799999983,"velocity":0.7637795275590551,"duration":0.21226425000000404},{"name":"F3","midi":53,"time":173.20762799999983,"velocity":0.7637795275590551,"duration":0.2815449427083365},{"name":"D#5","midi":75,"time":173.34913749999984,"velocity":0.7637795275590551,"duration":0.14003544270832435},{"name":"D5","midi":74,"time":173.49064699999983,"velocity":0.7637795275590551,"duration":0.14003544270832435},{"name":"A#3","midi":58,"time":173.49064699999983,"velocity":0.7637795275590551,"duration":0.2815449427083081},{"name":"C5","midi":72,"time":173.6321564999998,"velocity":0.7637795275590551,"duration":0.14003544270832435},{"name":"D5","midi":74,"time":173.7736659999998,"velocity":0.7637795275590551,"duration":0.14003544270832435},{"name":"D#3","midi":51,"time":173.7736659999998,"velocity":0.7637795275590551,"duration":0.2815449427083081},{"name":"A#4","midi":70,"time":173.91517549999978,"velocity":0.7637795275590551,"duration":0.14003544270832435},{"name":"F4","midi":65,"time":174.05668499999976,"velocity":0.7637795275590551,"duration":0.14003544270832435},{"name":"F3","midi":53,"time":174.05668499999976,"velocity":0.7637795275590551,"duration":0.2815449427083081},{"name":"A4","midi":69,"time":174.19819449999974,"velocity":0.7637795275590551,"duration":0.14003544270832435},{"name":"A#4","midi":70,"time":174.33970399999973,"velocity":0.7637795275590551,"duration":0.9817221562499583},{"name":"A#2","midi":46,"time":174.33970399999973,"velocity":0.7637795275590551,"duration":0.5601417708333258},{"name":"D5","midi":74,"time":174.48121349999974,"velocity":0.7637795275590551,"duration":0.14003544270832435},{"name":"F5","midi":77,"time":174.62272299999972,"velocity":0.7637795275590551,"duration":0.14003544270832435},{"name":"G#3","midi":56,"time":174.62272299999972,"velocity":0.7637795275590551,"duration":0.2815449427083365},{"name":"G5","midi":79,"time":174.7642324999997,"velocity":0.7637795275590551,"duration":0.14003544270835278},{"name":"G#5","midi":80,"time":174.90574199999972,"velocity":0.7637795275590551,"duration":0.14003544270832435},{"name":"D4","midi":62,"time":174.90574199999972,"velocity":0.7637795275590551,"duration":0.2815449427083081},{"name":"F5","midi":77,"time":175.0472514999997,"velocity":0.7637795275590551,"duration":0.14003544270832435},{"name":"D5","midi":74,"time":175.1887609999997,"velocity":0.7637795275590551,"duration":0.14003544270832435},{"name":"F4","midi":65,"time":175.1887609999997,"velocity":0.7637795275590551,"duration":0.2815449427083081},{"name":"A#4","midi":70,"time":175.33027049999967,"velocity":0.7637795275590551,"duration":0.21226424999997562},{"name":"A#2","midi":46,"time":175.47177999999965,"velocity":0.7637795275590551,"duration":0.5601417708333258},{"name":"A#4","midi":70,"time":175.61328949999964,"velocity":0.7637795275590551,"duration":0.6972290989583314},{"name":"D#5","midi":75,"time":175.75479899999965,"velocity":0.7637795275590551,"duration":0.14003544270832435},{"name":"A#3","midi":58,"time":175.75479899999965,"velocity":0.7637795275590551,"duration":0.2815449427083365},{"name":"G5","midi":79,"time":175.89630849999963,"velocity":0.7637795275590551,"duration":0.14003544270835278},{"name":"A#5","midi":82,"time":176.03781799999965,"velocity":0.7637795275590551,"duration":0.14003544270832435},{"name":"D#4","midi":63,"time":176.03781799999965,"velocity":0.7637795275590551,"duration":0.2815449427083365},{"name":"G5","midi":79,"time":176.17932749999963,"velocity":0.7637795275590551,"duration":0.14003544270835278},{"name":"E5","midi":76,"time":176.32083699999964,"velocity":0.7637795275590551,"duration":0.14003544270832435},{"name":"G4","midi":67,"time":176.32083699999964,"velocity":0.7637795275590551,"duration":0.2815449427083081},{"name":"C#5","midi":73,"time":176.46234649999963,"velocity":0.7637795275590551,"duration":0.21226424999997562},{"name":"A#2","midi":46,"time":176.6038559999996,"velocity":0.7637795275590551,"duration":0.2815449427083081},{"name":"C5","midi":72,"time":176.7453654999996,"velocity":0.7637795275590551,"duration":0.14003544270832435},{"name":"D#5","midi":75,"time":176.88687499999958,"velocity":0.7637795275590551,"duration":0.14003544270832435},{"name":"C4","midi":60,"time":176.88687499999958,"velocity":0.7637795275590551,"duration":0.2815449427083081},{"name":"A5","midi":81,"time":177.02838449999956,"velocity":0.7637795275590551,"duration":0.14003544270832435},{"name":"C6","midi":84,"time":177.16989399999954,"velocity":0.7637795275590551,"duration":0.28007088541667713},{"name":"D#4","midi":63,"time":177.16989399999954,"velocity":0.7637795275590551,"duration":0.2815449427083365},{"name":"A5","midi":81,"time":177.31140349999956,"velocity":0.7637795275590551,"duration":0.14003544270832435},{"name":"F#5","midi":78,"time":177.45291299999954,"velocity":0.7637795275590551,"duration":0.14003544270832435},{"name":"A4","midi":69,"time":177.45291299999954,"velocity":0.7637795275590551,"duration":0.2815449427083081},{"name":"D#5","midi":75,"time":177.59442249999952,"velocity":0.7637795275590551,"duration":0.14003544270832435},{"name":"D5","midi":74,"time":177.7359319999995,"velocity":0.7637795275590551,"duration":0.42305444270829184},{"name":"A#4","midi":70,"time":177.7359319999995,"velocity":0.7637795275590551,"duration":0.14003544270832435},{"name":"A#5","midi":82,"time":177.8774414999995,"velocity":0.7637795275590551,"duration":0.14003544270832435},{"name":"D4","midi":62,"time":177.8774414999995,"velocity":0.7637795275590551,"duration":0.14003544270832435},{"name":"G5","midi":79,"time":178.01895099999948,"velocity":0.7637795275590551,"duration":0.14003544270832435},{"name":"C4","midi":60,"time":178.01895099999948,"velocity":0.7637795275590551,"duration":0.14003544270832435},{"name":"E5","midi":76,"time":178.16046049999946,"velocity":0.7637795275590551,"duration":0.14003544270832435},{"name":"A#3","midi":58,"time":178.16046049999946,"velocity":0.7637795275590551,"duration":0.14003544270832435},{"name":"F5","midi":77,"time":178.30196999999944,"velocity":0.7637795275590551,"duration":0.42305444270832027},{"name":"F4","midi":65,"time":178.30196999999944,"velocity":0.7637795275590551,"duration":0.5601417708333258},{"name":"A#4","midi":70,"time":178.44347949999946,"velocity":0.7637795275590551,"duration":0.14003544270832435},{"name":"A4","midi":69,"time":178.58498899999944,"velocity":0.7637795275590551,"duration":0.14003544270832435},{"name":"F3","midi":53,"time":178.58498899999944,"velocity":0.7637795275590551,"duration":0.2815449427083365},{"name":"D#5","midi":75,"time":178.72649849999942,"velocity":0.7637795275590551,"duration":0.14003544270835278},{"name":"D5","midi":74,"time":178.86800799999943,"velocity":0.7637795275590551,"duration":0.28007088541667713},{"name":"A#3","midi":58,"time":178.86800799999943,"velocity":0.7637795275590551,"duration":0.8475829427083283},{"name":"G#4","midi":68,"time":179.01246561458277,"velocity":0.7637795275590551,"duration":0.14003544270835278},{"name":"G4","midi":67,"time":179.1628194583328,"velocity":0.7637795275590551,"duration":0.2800708854166487},{"name":"D#4","midi":63,"time":179.1628194583328,"velocity":0.7637795275590551,"duration":0.2815449427083081},{"name":"C5","midi":72,"time":179.30138084374946,"velocity":0.7637795275590551,"duration":0.14003544270832435},{"name":"A#4","midi":70,"time":179.45173468749942,"velocity":0.7637795275590551,"duration":0.28007088541667713},{"name":"D4","midi":62,"time":179.45173468749942,"velocity":0.7637795275590551,"duration":0.2815449427083365},{"name":"F4","midi":65,"time":179.5991404166661,"velocity":0.7637795275590551,"duration":0.14003544270832435},{"name":"D#4","midi":63,"time":179.74359803124943,"velocity":0.7637795275590551,"duration":0.2800708854166487},{"name":"C4","midi":60,"time":179.74359803124943,"velocity":0.7637795275590551,"duration":0.2815449427083081},{"name":"A4","midi":69,"time":179.88952970312442,"velocity":0.7637795275590551,"duration":0.14003544270832435},{"name":"A#3","midi":58,"time":180.0708387499994,"velocity":0.7637795275590551,"duration":1.6951658854166567},{"name":"A#2","midi":46,"time":180.0708387499994,"velocity":0.7637795275590551,"duration":1.6951658854166567},{"name":"F4","midi":65,"time":180.0708387499994,"velocity":0.7637795275590551,"duration":1.6951658854166567},{"name":"A#4","midi":70,"time":180.0708387499994,"velocity":0.7637795275590551,"duration":1.6951658854166567},{"name":"D4","midi":62,"time":180.0708387499994,"velocity":0.7637795275590551,"duration":1.6951658854166567},{"name":"A#4","midi":70,"time":185.48947335416608,"velocity":0.7637795275590551,"duration":0.14003544270832435},{"name":"A#3","midi":58,"time":185.6604639999994,"velocity":0.7637795275590551,"duration":0.9139155208333705},{"name":"A#4","midi":70,"time":185.6604639999994,"velocity":0.7637795275590551,"duration":0.1872052760416807},{"name":"D5","midi":74,"time":185.84914333333273,"velocity":0.7637795275590551,"duration":0.1872052760416807},{"name":"A4","midi":69,"time":186.03782266666607,"velocity":0.7637795275590551,"duration":0.1872052760416807},{"name":"A#4","midi":70,"time":186.2265019999994,"velocity":0.7637795275590551,"duration":0.1872052760416807},{"name":"F4","midi":65,"time":186.41518133333275,"velocity":0.7637795275590551,"duration":0.1872052760416807},{"name":"D4","midi":62,"time":186.6038606666661,"velocity":0.7637795275590551,"duration":0.14003544270832435},{"name":"A#4","midi":70,"time":186.6038606666661,"velocity":0.7637795275590551,"duration":0.18720527604165227},{"name":"A#3","midi":58,"time":186.7925399999994,"velocity":0.7637795275590551,"duration":0.4230544427083487},{"name":"D5","midi":74,"time":186.7925399999994,"velocity":0.7637795275590551,"duration":0.1872052760416807},{"name":"F5","midi":77,"time":186.98121933333275,"velocity":0.7637795275590551,"duration":0.1872052760416807},{"name":"D4","midi":62,"time":187.16989866666609,"velocity":0.7637795275590551,"duration":0.14003544270832435},{"name":"A4","midi":69,"time":187.16989866666609,"velocity":0.7637795275590551,"duration":0.18720527604165227},{"name":"G3","midi":55,"time":187.3585779999994,"velocity":0.7637795275590551,"duration":0.8475829427083568},{"name":"A#4","midi":70,"time":187.3585779999994,"velocity":0.7637795275590551,"duration":0.1872052760416807},{"name":"D5","midi":74,"time":187.54725733333274,"velocity":0.7637795275590551,"duration":0.1872052760416807},{"name":"A4","midi":69,"time":187.73593666666608,"velocity":0.7637795275590551,"duration":0.1872052760416807},{"name":"A#4","midi":70,"time":187.92461599999942,"velocity":0.7637795275590551,"duration":0.1872052760416807},{"name":"G4","midi":67,"time":188.11329533333276,"velocity":0.7637795275590551,"duration":0.18720527604165227},{"name":"D#4","midi":63,"time":188.30197466666607,"velocity":0.7637795275590551,"duration":0.14003544270832435},{"name":"A#4","midi":70,"time":188.30197466666607,"velocity":0.7637795275590551,"duration":0.18720527604165227},{"name":"A#3","midi":58,"time":188.49065399999938,"velocity":0.7637795275590551,"duration":0.4230544427083487},{"name":"D#5","midi":75,"time":188.49065399999938,"velocity":0.7637795275590551,"duration":0.1872052760416807},{"name":"G5","midi":79,"time":188.67933333333272,"velocity":0.7637795275590551,"duration":0.1872052760416807},{"name":"D#4","midi":63,"time":188.86801266666606,"velocity":0.7637795275590551,"duration":0.14003544270832435},{"name":"A4","midi":69,"time":188.86801266666606,"velocity":0.7637795275590551,"duration":0.18720527604165227},{"name":"D3","midi":50,"time":189.05669199999937,"velocity":0.7637795275590551,"duration":0.8475829427083568},{"name":"A#4","midi":70,"time":189.05669199999937,"velocity":0.7637795275590551,"duration":0.1872052760416807},{"name":"F5","midi":77,"time":189.2453713333327,"velocity":0.7637795275590551,"duration":0.1872052760416807},{"name":"C5","midi":72,"time":189.43405066666605,"velocity":0.7637795275590551,"duration":0.1872052760416807},{"name":"D5","midi":74,"time":189.6227299999994,"velocity":0.7637795275590551,"duration":0.1872052760416807},{"name":"A#4","midi":70,"time":189.81140933333273,"velocity":0.7637795275590551,"duration":0.18720527604165227},{"name":"F4","midi":65,"time":190.00008866666604,"velocity":0.7637795275590551,"duration":0.14003544270832435},{"name":"D5","midi":74,"time":190.00008866666604,"velocity":0.7637795275590551,"duration":0.18720527604165227},{"name":"D4","midi":62,"time":190.18876799999936,"velocity":0.7637795275590551,"duration":0.3758846093750208},{"name":"F5","midi":77,"time":190.18876799999936,"velocity":0.7637795275590551,"duration":0.1872052760416807},{"name":"A#5","midi":82,"time":190.3774473333327,"velocity":0.7637795275590551,"duration":0.1872052760416807},{"name":"F4","midi":65,"time":190.56612666666604,"velocity":0.7637795275590551,"duration":0.14003544270832435},{"name":"D5","midi":74,"time":190.56612666666604,"velocity":0.7637795275590551,"duration":0.18720527604165227},{"name":"D#4","midi":63,"time":190.75480599999935,"velocity":0.7637795275590551,"duration":0.4230544427083487},{"name":"G5","midi":79,"time":190.75480599999935,"velocity":0.7637795275590551,"duration":0.1872052760416807},{"name":"A4","midi":69,"time":190.9434853333327,"velocity":0.7637795275590551,"duration":0.1872052760416807},{"name":"D#3","midi":51,"time":191.13216466666603,"velocity":0.7637795275590551,"duration":0.14003544270832435},{"name":"C5","midi":72,"time":191.13216466666603,"velocity":0.7637795275590551,"duration":0.18720527604165227},{"name":"D3","midi":50,"time":191.32084399999934,"velocity":0.7637795275590551,"duration":0.4230544427083487},{"name":"F5","midi":77,"time":191.32084399999934,"velocity":0.7637795275590551,"duration":0.1872052760416807},{"name":"G4","midi":67,"time":191.50952333333268,"velocity":0.7637795275590551,"duration":0.1872052760416807},{"name":"D4","midi":62,"time":191.69820266666602,"velocity":0.7637795275590551,"duration":0.14003544270832435},{"name":"A#4","midi":70,"time":191.69820266666602,"velocity":0.7637795275590551,"duration":0.18720527604165227},{"name":"C4","midi":60,"time":191.88688199999933,"velocity":0.7637795275590551,"duration":0.4230544427083487},{"name":"D#5","midi":75,"time":191.88688199999933,"velocity":0.7637795275590551,"duration":0.1872052760416807},{"name":"F4","midi":65,"time":192.07556133333267,"velocity":0.7637795275590551,"duration":0.1872052760416807},{"name":"C3","midi":48,"time":192.264240666666,"velocity":0.7637795275590551,"duration":0.14003544270832435},{"name":"A4","midi":69,"time":192.264240666666,"velocity":0.7637795275590551,"duration":0.18720527604165227},{"name":"A#2","midi":46,"time":192.45291999999932,"velocity":0.7637795275590551,"duration":0.1872052760416807},{"name":"D5","midi":74,"time":192.45291999999932,"velocity":0.7637795275590551,"duration":0.7208140156250238},{"name":"D3","midi":50,"time":192.64159933333266,"velocity":0.7637795275590551,"duration":0.1872052760416807},{"name":"A2","midi":45,"time":192.830278666666,"velocity":0.7637795275590551,"duration":0.1872052760416807},{"name":"A#2","midi":46,"time":193.01895799999934,"velocity":0.7637795275590551,"duration":0.1872052760416807},{"name":"F2","midi":41,"time":193.20763733333268,"velocity":0.7637795275590551,"duration":0.1872052760416807},{"name":"A#4","midi":70,"time":193.20763733333268,"velocity":0.7637795275590551,"duration":0.1872052760416807},{"name":"A#2","midi":46,"time":193.39631666666602,"velocity":0.7637795275590551,"duration":0.1872052760416807},{"name":"D5","midi":74,"time":193.39631666666602,"velocity":0.7637795275590551,"duration":0.1872052760416807},{"name":"D3","midi":50,"time":193.58499599999936,"velocity":0.7637795275590551,"duration":0.1872052760416807},{"name":"F5","midi":77,"time":193.58499599999936,"velocity":0.7637795275590551,"duration":0.1872052760416807},{"name":"F3","midi":53,"time":193.7736753333327,"velocity":0.7637795275590551,"duration":0.1872052760416807},{"name":"D5","midi":74,"time":193.7736753333327,"velocity":0.7637795275590551,"duration":0.1872052760416807},{"name":"A2","midi":45,"time":193.96235466666604,"velocity":0.7637795275590551,"duration":0.1872052760416807},{"name":"C5","midi":72,"time":193.96235466666604,"velocity":0.7637795275590551,"duration":0.1872052760416807},{"name":"G2","midi":43,"time":194.15103399999938,"velocity":0.7637795275590551,"duration":0.8475829427083568},{"name":"A#4","midi":70,"time":194.15103399999938,"velocity":0.7637795275590551,"duration":0.1872052760416807},{"name":"D5","midi":74,"time":194.33971333333272,"velocity":0.7637795275590551,"duration":0.1872052760416807},{"name":"A4","midi":69,"time":194.52839266666606,"velocity":0.7637795275590551,"duration":0.1872052760416807},{"name":"A#4","midi":70,"time":194.7170719999994,"velocity":0.7637795275590551,"duration":0.1872052760416807},{"name":"G4","midi":67,"time":194.90575133333274,"velocity":0.7637795275590551,"duration":0.18720527604165227},{"name":"D3","midi":50,"time":195.09443066666606,"velocity":0.7637795275590551,"duration":0.14003544270832435},{"name":"A#4","midi":70,"time":195.09443066666606,"velocity":0.7637795275590551,"duration":0.18720527604165227},{"name":"A#2","midi":46,"time":195.28310999999937,"velocity":0.7637795275590551,"duration":0.3758846093750208},{"name":"D5","midi":74,"time":195.28310999999937,"velocity":0.7637795275590551,"duration":0.1872052760416807},{"name":"G5","midi":79,"time":195.4717893333327,"velocity":0.7637795275590551,"duration":0.1872052760416807},{"name":"G2","midi":43,"time":195.66046866666605,"velocity":0.7637795275590551,"duration":0.14003544270832435},{"name":"A#5","midi":82,"time":195.66046866666605,"velocity":0.7637795275590551,"duration":0.18720527604165227},{"name":"C3","midi":48,"time":195.84914799999936,"velocity":0.7637795275590551,"duration":0.1872052760416807},{"name":"E5","midi":76,"time":195.84914799999936,"velocity":0.7637795275590551,"duration":0.7532432760417009},{"name":"E3","midi":52,"time":196.0378273333327,"velocity":0.7637795275590551,"duration":0.1872052760416807},{"name":"B2","midi":47,"time":196.22650666666604,"velocity":0.7637795275590551,"duration":0.1872052760416807},{"name":"C3","midi":48,"time":196.41518599999938,"velocity":0.7637795275590551,"duration":0.1872052760416807},{"name":"G2","midi":43,"time":196.60386533333272,"velocity":0.7637795275590551,"duration":0.1872052760416807},{"name":"C5","midi":72,"time":196.60386533333272,"velocity":0.7637795275590551,"duration":0.1872052760416807},{"name":"C3","midi":48,"time":196.79254466666606,"velocity":0.7637795275590551,"duration":0.1872052760416807},{"name":"E5","midi":76,"time":196.79254466666606,"velocity":0.7637795275590551,"duration":0.1872052760416807},{"name":"E3","midi":52,"time":196.9812239999994,"velocity":0.7637795275590551,"duration":0.1872052760416807},{"name":"G5","midi":79,"time":196.9812239999994,"velocity":0.7637795275590551,"duration":0.1872052760416807},{"name":"G3","midi":55,"time":197.16990333333274,"velocity":0.7637795275590551,"duration":0.1872052760416807},{"name":"E5","midi":76,"time":197.16990333333274,"velocity":0.7637795275590551,"duration":0.1872052760416807},{"name":"A#2","midi":46,"time":197.35858266666608,"velocity":0.7637795275590551,"duration":0.1872052760416807},{"name":"D5","midi":74,"time":197.35858266666608,"velocity":0.7637795275590551,"duration":0.1872052760416807},{"name":"A2","midi":45,"time":197.54726199999942,"velocity":0.7637795275590551,"duration":0.8475829427083568},{"name":"C5","midi":72,"time":197.54726199999942,"velocity":0.7637795275590551,"duration":0.1872052760416807},{"name":"E5","midi":76,"time":197.73594133333276,"velocity":0.7637795275590551,"duration":0.1872052760416807},{"name":"B4","midi":71,"time":197.9246206666661,"velocity":0.7637795275590551,"duration":0.1872052760416807},{"name":"C5","midi":72,"time":198.11329999999944,"velocity":0.7637795275590551,"duration":0.1872052760416807},{"name":"A4","midi":69,"time":198.30197933333278,"velocity":0.7637795275590551,"duration":0.18720527604165227},{"name":"E3","midi":52,"time":198.4906586666661,"velocity":0.7637795275590551,"duration":0.14003544270832435},{"name":"C5","midi":72,"time":198.4906586666661,"velocity":0.7637795275590551,"duration":0.18720527604165227},{"name":"C3","midi":48,"time":198.6793379999994,"velocity":0.7637795275590551,"duration":0.3758846093750208},{"name":"E5","midi":76,"time":198.6793379999994,"velocity":0.7637795275590551,"duration":0.1872052760416807},{"name":"A5","midi":81,"time":198.86801733333274,"velocity":0.7637795275590551,"duration":0.1872052760416807},{"name":"A2","midi":45,"time":199.05669666666608,"velocity":0.7637795275590551,"duration":0.14003544270832435},{"name":"C6","midi":84,"time":199.05669666666608,"velocity":0.7637795275590551,"duration":0.18720527604165227},{"name":"D3","midi":50,"time":199.2453759999994,"velocity":0.7637795275590551,"duration":0.1872052760416807},{"name":"F5","midi":77,"time":199.2453759999994,"velocity":0.7637795275590551,"duration":0.7532432760417009},{"name":"F3","midi":53,"time":199.43405533333274,"velocity":0.7637795275590551,"duration":0.1872052760416807},{"name":"C3","midi":48,"time":199.62273466666608,"velocity":0.7637795275590551,"duration":0.1872052760416807},{"name":"D3","midi":50,"time":199.81141399999942,"velocity":0.7637795275590551,"duration":0.1872052760416807},{"name":"A2","midi":45,"time":200.00009333333276,"velocity":0.7637795275590551,"duration":0.1872052760416807},{"name":"D5","midi":74,"time":200.00009333333276,"velocity":0.7637795275590551,"duration":0.1872052760416807},{"name":"D3","midi":50,"time":200.1887726666661,"velocity":0.7637795275590551,"duration":0.1872052760416807},{"name":"F5","midi":77,"time":200.1887726666661,"velocity":0.7637795275590551,"duration":0.1872052760416807},{"name":"F3","midi":53,"time":200.37745199999944,"velocity":0.7637795275590551,"duration":0.1872052760416807},{"name":"A5","midi":81,"time":200.37745199999944,"velocity":0.7637795275590551,"duration":0.5601417708333543},{"name":"A3","midi":57,"time":200.56613133333278,"velocity":0.7637795275590551,"duration":0.1872052760416807},{"name":"C3","midi":48,"time":200.75481066666612,"velocity":0.7637795275590551,"duration":0.1872052760416807},{"name":"A#2","midi":46,"time":200.94348999999946,"velocity":0.7637795275590551,"duration":0.4230544427083487},{"name":"D5","midi":74,"time":201.1321693333328,"velocity":0.7637795275590551,"duration":0.1872052760416807},{"name":"A3","midi":57,"time":201.32084866666614,"velocity":0.7637795275590551,"duration":0.14003544270832435},{"name":"C5","midi":72,"time":201.32084866666614,"velocity":0.7637795275590551,"duration":0.18720527604165227},{"name":"G3","midi":55,"time":201.50952799999945,"velocity":0.7637795275590551,"duration":0.4230544427083487},{"name":"A#4","midi":70,"time":201.50952799999945,"velocity":0.7637795275590551,"duration":0.1872052760416807},{"name":"D5","midi":74,"time":201.6982073333328,"velocity":0.7637795275590551,"duration":0.1872052760416807},{"name":"A#2","midi":46,"time":201.88688666666613,"velocity":0.7637795275590551,"duration":0.14003544270832435},{"name":"G5","midi":79,"time":201.88688666666613,"velocity":0.7637795275590551,"duration":0.18720527604165227},{"name":"A2","midi":45,"time":202.07556599999944,"velocity":0.7637795275590551,"duration":0.4230544427083487},{"name":"C5","midi":72,"time":202.07556599999944,"velocity":0.7637795275590551,"duration":0.1872052760416807},{"name":"A#4","midi":70,"time":202.26424533333278,"velocity":0.7637795275590551,"duration":0.1872052760416807},{"name":"F3","midi":53,"time":202.45292466666612,"velocity":0.7637795275590551,"duration":0.14003544270832435},{"name":"A4","midi":69,"time":202.45292466666612,"velocity":0.7637795275590551,"duration":0.2800708854166487},{"name":"G2","midi":43,"time":202.64160399999943,"velocity":0.7637795275590551,"duration":0.4230544427083487},{"name":"A#4","midi":70,"time":202.83028333333277,"velocity":0.7637795275590551,"duration":0.1872052760416807},{"name":"F3","midi":53,"time":203.0189626666661,"velocity":0.7637795275590551,"duration":0.14003544270832435},{"name":"A4","midi":69,"time":203.0189626666661,"velocity":0.7637795275590551,"duration":0.18720527604165227},{"name":"E3","midi":52,"time":203.20764199999942,"velocity":0.7637795275590551,"duration":0.4230544427083487},{"name":"G4","midi":67,"time":203.20764199999942,"velocity":0.7637795275590551,"duration":0.1872052760416807},{"name":"A#4","midi":70,"time":203.39632133333276,"velocity":0.7637795275590551,"duration":0.1872052760416807},{"name":"G2","midi":43,"time":203.5850006666661,"velocity":0.7637795275590551,"duration":0.14003544270832435},{"name":"E5","midi":76,"time":203.5850006666661,"velocity":0.7637795275590551,"duration":0.18720527604165227},{"name":"F2","midi":41,"time":203.77367999999942,"velocity":0.7637795275590551,"duration":0.4230544427083487},{"name":"A4","midi":69,"time":203.77367999999942,"velocity":0.7637795275590551,"duration":0.1872052760416807},{"name":"G4","midi":67,"time":203.96235933333276,"velocity":0.7637795275590551,"duration":0.1872052760416807},{"name":"D3","midi":50,"time":204.1510386666661,"velocity":0.7637795275590551,"duration":0.14003544270832435},{"name":"F4","midi":65,"time":204.1510386666661,"velocity":0.7637795275590551,"duration":0.2800708854166487},{"name":"E2","midi":40,"time":204.3397179999994,"velocity":0.7637795275590551,"duration":0.4230544427083487},{"name":"G4","midi":67,"time":204.52839733333275,"velocity":0.7637795275590551,"duration":0.1872052760416807},{"name":"D3","midi":50,"time":204.7170766666661,"velocity":0.7637795275590551,"duration":0.14003544270832435},{"name":"F4","midi":65,"time":204.7170766666661,"velocity":0.7637795275590551,"duration":0.18720527604165227},{"name":"C3","midi":48,"time":204.9057559999994,"velocity":0.7637795275590551,"duration":0.4230544427083487},{"name":"E4","midi":64,"time":204.9057559999994,"velocity":0.7637795275590551,"duration":0.1872052760416807},{"name":"G4","midi":67,"time":205.09443533333274,"velocity":0.7637795275590551,"duration":0.1872052760416807},{"name":"E2","midi":40,"time":205.28311466666608,"velocity":0.7637795275590551,"duration":0.14003544270832435},{"name":"C5","midi":72,"time":205.28311466666608,"velocity":0.7637795275590551,"duration":0.18720527604165227},{"name":"D2","midi":38,"time":205.4717939999994,"velocity":0.7637795275590551,"duration":0.4230544427083487},{"name":"F4","midi":65,"time":205.4717939999994,"velocity":0.7637795275590551,"duration":0.1872052760416807},{"name":"E4","midi":64,"time":205.66047333333273,"velocity":0.7637795275590551,"duration":0.1872052760416807},{"name":"B2","midi":47,"time":205.84915266666607,"velocity":0.7637795275590551,"duration":0.14003544270832435},{"name":"D4","midi":62,"time":205.84915266666607,"velocity":0.7637795275590551,"duration":0.18720527604165227},{"name":"C2","midi":36,"time":206.03783199999938,"velocity":0.7637795275590551,"duration":0.1872052760416807},{"name":"E4","midi":64,"time":206.03783199999938,"velocity":0.7637795275590551,"duration":0.5601417708333543},{"name":"E2","midi":40,"time":206.22651133333272,"velocity":0.7637795275590551,"duration":0.1872052760416807},{"name":"G2","midi":43,"time":206.41519066666606,"velocity":0.7637795275590551,"duration":0.1872052760416807},{"name":"C3","midi":48,"time":206.6038699999994,"velocity":0.7637795275590551,"duration":0.1872052760416807},{"name":"E3","midi":52,"time":206.79254933333274,"velocity":0.7637795275590551,"duration":0.1872052760416807},{"name":"G3","midi":55,"time":206.98122866666608,"velocity":0.7637795275590551,"duration":0.18720527604165227},{"name":"E5","midi":76,"time":207.0283984999994,"velocity":0.7637795275590551,"duration":0.14003544270832435},{"name":"A#2","midi":46,"time":207.1699079999994,"velocity":0.7637795275590551,"duration":0.18720527604165227},{"name":"F5","midi":77,"time":207.1699079999994,"velocity":0.7637795275590551,"duration":0.06928069270833248},{"name":"E5","midi":76,"time":207.2406627499994,"velocity":0.7637795275590551,"duration":0.06928069270833248},{"name":"F5","midi":77,"time":207.31141749999938,"velocity":0.7637795275590551,"duration":0.06928069270833248},{"name":"A2","midi":45,"time":207.3585873333327,"velocity":0.7637795275590551,"duration":0.18720527604165227},{"name":"E5","midi":76,"time":207.38217224999937,"velocity":0.7637795275590551,"duration":0.06928069270833248},{"name":"F5","midi":77,"time":207.45292699999936,"velocity":0.7637795275590551,"duration":0.06928069270833248},{"name":"E5","midi":76,"time":207.52368174999935,"velocity":0.7637795275590551,"duration":0.06928069270833248},{"name":"G2","midi":43,"time":207.54726666666602,"velocity":0.7637795275590551,"duration":0.18720527604165227},{"name":"D5","midi":74,"time":207.59443649999935,"velocity":0.7637795275590551,"duration":0.06928069270833248},{"name":"E5","midi":76,"time":207.66519124999934,"velocity":0.7637795275590551,"duration":0.06928069270833248},{"name":"C2","midi":36,"time":207.73594599999933,"velocity":0.7637795275590551,"duration":0.1872052760416807},{"name":"F5","midi":77,"time":207.73594599999933,"velocity":0.7637795275590551,"duration":0.1872052760416807},{"name":"F2","midi":41,"time":207.92462533333267,"velocity":0.7637795275590551,"duration":0.1872052760416807},{"name":"C5","midi":72,"time":207.92462533333267,"velocity":0.7637795275590551,"duration":0.1872052760416807},{"name":"A2","midi":45,"time":208.113304666666,"velocity":0.7637795275590551,"duration":0.1872052760416807},{"name":"A4","midi":69,"time":208.113304666666,"velocity":0.7637795275590551,"duration":0.1872052760416807},{"name":"C3","midi":48,"time":208.30198399999935,"velocity":0.7637795275590551,"duration":0.1872052760416807},{"name":"F4","midi":65,"time":208.30198399999935,"velocity":0.7637795275590551,"duration":0.5601417708333543},{"name":"F3","midi":53,"time":208.4906633333327,"velocity":0.7637795275590551,"duration":0.1872052760416807},{"name":"A3","midi":57,"time":208.67934266666603,"velocity":0.7637795275590551,"duration":0.1872052760416807},{"name":"F5","midi":77,"time":208.72651249999936,"velocity":0.7637795275590551,"duration":0.14003544270835278},{"name":"C3","midi":48,"time":208.86802199999937,"velocity":0.7637795275590551,"duration":0.18720527604165227},{"name":"G5","midi":79,"time":208.86802199999937,"velocity":0.7637795275590551,"duration":0.06928069270833248},{"name":"F5","midi":77,"time":208.93877674999936,"velocity":0.7637795275590551,"duration":0.06928069270833248},{"name":"G5","midi":79,"time":209.00953149999935,"velocity":0.7637795275590551,"duration":0.06928069270833248},{"name":"A#2","midi":46,"time":209.05670133333268,"velocity":0.7637795275590551,"duration":0.18720527604165227},{"name":"F5","midi":77,"time":209.08028624999935,"velocity":0.7637795275590551,"duration":0.06928069270833248},{"name":"G5","midi":79,"time":209.15104099999934,"velocity":0.7637795275590551,"duration":0.06928069270833248},{"name":"F5","midi":77,"time":209.22179574999933,"velocity":0.7637795275590551,"duration":0.06928069270833248},{"name":"A2","midi":45,"time":209.245380666666,"velocity":0.7637795275590551,"duration":0.18720527604165227},{"name":"E5","midi":76,"time":209.29255049999932,"velocity":0.7637795275590551,"duration":0.06928069270833248},{"name":"F5","midi":77,"time":209.3633052499993,"velocity":0.7637795275590551,"duration":0.06928069270833248},{"name":"C2","midi":36,"time":209.4340599999993,"velocity":0.7637795275590551,"duration":0.1872052760416807},{"name":"G5","midi":79,"time":209.4340599999993,"velocity":0.7637795275590551,"duration":0.1872052760416807},{"name":"G2","midi":43,"time":209.62273933333265,"velocity":0.7637795275590551,"duration":0.1872052760416807},{"name":"E5","midi":76,"time":209.62273933333265,"velocity":0.7637795275590551,"duration":0.1872052760416807},{"name":"C3","midi":48,"time":209.811418666666,"velocity":0.7637795275590551,"duration":0.1872052760416807},{"name":"A#4","midi":70,"time":209.811418666666,"velocity":0.7637795275590551,"duration":0.1872052760416807},{"name":"E3","midi":52,"time":210.00009799999933,"velocity":0.7637795275590551,"duration":0.1872052760416807},{"name":"G4","midi":67,"time":210.00009799999933,"velocity":0.7637795275590551,"duration":0.5601417708333543},{"name":"G3","midi":55,"time":210.18877733333267,"velocity":0.7637795275590551,"duration":0.1872052760416807},{"name":"A#3","midi":58,"time":210.377456666666,"velocity":0.7637795275590551,"duration":0.1872052760416807},{"name":"G5","midi":79,"time":210.42462649999933,"velocity":0.7637795275590551,"duration":0.14003544270835278},{"name":"E3","midi":52,"time":210.56613599999935,"velocity":0.7637795275590551,"duration":0.18720527604165227},{"name":"A5","midi":81,"time":210.56613599999935,"velocity":0.7637795275590551,"duration":0.06928069270833248},{"name":"G5","midi":79,"time":210.63689074999934,"velocity":0.7637795275590551,"duration":0.06928069270833248},{"name":"A5","midi":81,"time":210.70764549999933,"velocity":0.7637795275590551,"duration":0.06928069270833248},{"name":"D3","midi":50,"time":210.75481533333266,"velocity":0.7637795275590551,"duration":0.18720527604165227},{"name":"G5","midi":79,"time":210.77840024999932,"velocity":0.7637795275590551,"duration":0.06928069270833248},{"name":"A5","midi":81,"time":210.8491549999993,"velocity":0.7637795275590551,"duration":0.06928069270833248},{"name":"G5","midi":79,"time":210.9199097499993,"velocity":0.7637795275590551,"duration":0.06928069270833248},{"name":"C3","midi":48,"time":210.94349466666597,"velocity":0.7637795275590551,"duration":0.18720527604165227},{"name":"F5","midi":77,"time":210.9906644999993,"velocity":0.7637795275590551,"duration":0.06928069270833248},{"name":"G5","midi":79,"time":211.0614192499993,"velocity":0.7637795275590551,"duration":0.06928069270833248},{"name":"B2","midi":47,"time":211.13217399999928,"velocity":0.7637795275590551,"duration":1.6966399427084013},{"name":"C2","midi":36,"time":211.13217399999928,"velocity":0.7637795275590551,"duration":1.6966399427084013},{"name":"G#5","midi":80,"time":211.13217399999928,"velocity":0.7637795275590551,"duration":0.1872052760416807},{"name":"E5","midi":76,"time":211.32085333333262,"velocity":0.7637795275590551,"duration":0.1872052760416807},{"name":"F5","midi":77,"time":211.50953266666596,"velocity":0.7637795275590551,"duration":0.1872052760416807},{"name":"D5","midi":74,"time":211.6982119999993,"velocity":0.7637795275590551,"duration":0.1872052760416807},{"name":"F5","midi":77,"time":211.88689133333264,"velocity":0.7637795275590551,"duration":0.1872052760416807},{"name":"G#5","midi":80,"time":212.07557066666598,"velocity":0.7637795275590551,"duration":0.1872052760416807},{"name":"B5","midi":83,"time":212.26424999999932,"velocity":0.7637795275590551,"duration":0.1872052760416807},{"name":"D6","midi":86,"time":212.45292933333266,"velocity":0.7637795275590551,"duration":0.1872052760416807},{"name":"F5","midi":77,"time":212.641608666666,"velocity":0.7637795275590551,"duration":0.1872052760416807},{"name":"C3","midi":48,"time":212.83028799999934,"velocity":0.7637795275590551,"duration":0.7532432760417009},{"name":"C2","midi":36,"time":212.83028799999934,"velocity":0.7637795275590551,"duration":0.8475829427083568},{"name":"E5","midi":76,"time":212.83028799999934,"velocity":0.7637795275590551,"duration":0.1872052760416807},{"name":"D5","midi":74,"time":213.01896733333268,"velocity":0.7637795275590551,"duration":0.1872052760416807},{"name":"C5","midi":72,"time":213.20764666666602,"velocity":0.7637795275590551,"duration":0.1872052760416807},{"name":"G5","midi":79,"time":213.39632599999936,"velocity":0.7637795275590551,"duration":0.1872052760416807},{"name":"E5","midi":76,"time":213.5850053333327,"velocity":0.7637795275590551,"duration":0.18720527604165227},{"name":"C3","midi":48,"time":213.773684666666,"velocity":0.7637795275590551,"duration":0.1872052760416807},{"name":"C5","midi":72,"time":213.773684666666,"velocity":0.7637795275590551,"duration":0.1872052760416807},{"name":"D3","midi":50,"time":213.96236399999935,"velocity":0.7637795275590551,"duration":0.3758846093750208},{"name":"A#4","midi":70,"time":213.96236399999935,"velocity":0.7637795275590551,"duration":0.1872052760416807},{"name":"A4","midi":69,"time":214.1510433333327,"velocity":0.7637795275590551,"duration":0.1872052760416807},{"name":"E3","midi":52,"time":214.33972266666603,"velocity":0.7637795275590551,"duration":0.1872052760416807},{"name":"G4","midi":67,"time":214.33972266666603,"velocity":0.7637795275590551,"duration":0.1872052760416807},{"name":"F3","midi":53,"time":214.52840199999937,"velocity":0.7637795275590551,"duration":0.1872052760416807},{"name":"A4","midi":69,"time":214.52840199999937,"velocity":0.7637795275590551,"duration":0.1872052760416807},{"name":"A3","midi":57,"time":214.71708133333271,"velocity":0.7637795275590551,"duration":0.1872052760416807},{"name":"C5","midi":72,"time":214.71708133333271,"velocity":0.7637795275590551,"duration":0.1872052760416807},{"name":"C4","midi":60,"time":214.90576066666605,"velocity":0.7637795275590551,"duration":0.1872052760416807},{"name":"G4","midi":67,"time":214.90576066666605,"velocity":0.7637795275590551,"duration":0.1872052760416807},{"name":"F3","midi":53,"time":215.0944399999994,"velocity":0.7637795275590551,"duration":0.1872052760416807},{"name":"A4","midi":69,"time":215.0944399999994,"velocity":0.7637795275590551,"duration":0.1872052760416807},{"name":"A3","midi":57,"time":215.28311933333273,"velocity":0.7637795275590551,"duration":0.1872052760416807},{"name":"F4","midi":65,"time":215.28311933333273,"velocity":0.7637795275590551,"duration":0.1872052760416807},{"name":"C4","midi":60,"time":215.47179866666607,"velocity":0.7637795275590551,"duration":0.1872052760416807},{"name":"A4","midi":69,"time":215.47179866666607,"velocity":0.7637795275590551,"duration":0.1872052760416807},{"name":"E3","midi":52,"time":215.66047799999942,"velocity":0.7637795275590551,"duration":0.1872052760416807},{"name":"C5","midi":72,"time":215.66047799999942,"velocity":0.7637795275590551,"duration":0.3758846093750208},{"name":"A3","midi":57,"time":215.84915733333276,"velocity":0.7637795275590551,"duration":0.1872052760416807},{"name":"F5","midi":77,"time":215.84915733333276,"velocity":0.7637795275590551,"duration":0.1872052760416807},{"name":"C4","midi":60,"time":216.0378366666661,"velocity":0.7637795275590551,"duration":0.1872052760416807},{"name":"G4","midi":67,"time":216.0378366666661,"velocity":0.7637795275590551,"duration":0.1872052760416807},{"name":"D3","midi":50,"time":216.22651599999944,"velocity":0.7637795275590551,"duration":0.1872052760416807},{"name":"F4","midi":65,"time":216.22651599999944,"velocity":0.7637795275590551,"duration":0.1872052760416807},{"name":"F3","midi":53,"time":216.41519533333278,"velocity":0.7637795275590551,"duration":0.1872052760416807},{"name":"A4","midi":69,"time":216.41519533333278,"velocity":0.7637795275590551,"duration":0.1872052760416807},{"name":"A3","midi":57,"time":216.60387466666612,"velocity":0.7637795275590551,"duration":0.1872052760416807},{"name":"E4","midi":64,"time":216.60387466666612,"velocity":0.7637795275590551,"duration":0.1872052760416807},{"name":"D3","midi":50,"time":216.79255399999946,"velocity":0.7637795275590551,"duration":0.1872052760416807},{"name":"F4","midi":65,"time":216.79255399999946,"velocity":0.7637795275590551,"duration":0.1872052760416807},{"name":"F3","midi":53,"time":216.9812333333328,"velocity":0.7637795275590551,"duration":0.1872052760416807},{"name":"D4","midi":62,"time":216.9812333333328,"velocity":0.7637795275590551,"duration":0.1872052760416807},{"name":"A3","midi":57,"time":217.16991266666614,"velocity":0.7637795275590551,"duration":0.1872052760416807},{"name":"F4","midi":65,"time":217.16991266666614,"velocity":0.7637795275590551,"duration":0.1872052760416807},{"name":"C3","midi":48,"time":217.35859199999948,"velocity":0.7637795275590551,"duration":0.1872052760416807},{"name":"A4","midi":69,"time":217.35859199999948,"velocity":0.7637795275590551,"duration":0.3758846093750208},{"name":"F3","midi":53,"time":217.54727133333282,"velocity":0.7637795275590551,"duration":0.1872052760416807},{"name":"D5","midi":74,"time":217.54727133333282,"velocity":0.7637795275590551,"duration":0.1872052760416807},{"name":"A3","midi":57,"time":217.73595066666616,"velocity":0.7637795275590551,"duration":0.1872052760416807},{"name":"E4","midi":64,"time":217.73595066666616,"velocity":0.7637795275590551,"duration":0.1872052760416807},{"name":"A#2","midi":46,"time":217.9246299999995,"velocity":0.7637795275590551,"duration":0.1872052760416807},{"name":"D4","midi":62,"time":217.9246299999995,"velocity":0.7637795275590551,"duration":0.1872052760416807},{"name":"D3","midi":50,"time":218.11330933333284,"velocity":0.7637795275590551,"duration":0.1872052760416807},{"name":"F4","midi":65,"time":218.11330933333284,"velocity":0.7637795275590551,"duration":0.1872052760416807},{"name":"F3","midi":53,"time":218.30198866666618,"velocity":0.7637795275590551,"duration":0.1872052760416807},{"name":"C4","midi":60,"time":218.30198866666618,"velocity":0.7637795275590551,"duration":0.1872052760416807},{"name":"A#2","midi":46,"time":218.49066799999952,"velocity":0.7637795275590551,"duration":0.1872052760416807},{"name":"D4","midi":62,"time":218.49066799999952,"velocity":0.7637795275590551,"duration":0.1872052760416807},{"name":"D3","midi":50,"time":218.67934733333286,"velocity":0.7637795275590551,"duration":0.1872052760416807},{"name":"A#3","midi":58,"time":218.67934733333286,"velocity":0.7637795275590551,"duration":0.1872052760416807},{"name":"F3","midi":53,"time":218.8680266666662,"velocity":0.7637795275590551,"duration":0.1872052760416807},{"name":"D4","midi":62,"time":218.8680266666662,"velocity":0.7637795275590551,"duration":0.1872052760416807},{"name":"A2","midi":45,"time":219.05670599999954,"velocity":0.7637795275590551,"duration":0.1872052760416807},{"name":"F4","midi":65,"time":219.05670599999954,"velocity":0.7637795275590551,"duration":0.3758846093750208},{"name":"D3","midi":50,"time":219.24538533333288,"velocity":0.7637795275590551,"duration":0.1872052760416807},{"name":"A#4","midi":70,"time":219.24538533333288,"velocity":0.7637795275590551,"duration":0.1872052760416807},{"name":"F3","midi":53,"time":219.43406466666622,"velocity":0.7637795275590551,"duration":0.1872052760416807},{"name":"C4","midi":60,"time":219.43406466666622,"velocity":0.7637795275590551,"duration":0.1872052760416807},{"name":"G2","midi":43,"time":219.62274399999956,"velocity":0.7637795275590551,"duration":0.1872052760416807},{"name":"A#3","midi":58,"time":219.62274399999956,"velocity":0.7637795275590551,"duration":0.5601417708333543},{"name":"A#2","midi":46,"time":219.8114233333329,"velocity":0.7637795275590551,"duration":0.1872052760416807},{"name":"D3","midi":50,"time":220.00010266666624,"velocity":0.7637795275590551,"duration":0.1872052760416807},{"name":"G2","midi":43,"time":220.18878199999958,"velocity":0.7637795275590551,"duration":0.1872052760416807},{"name":"A#2","midi":46,"time":220.37746133333292,"velocity":0.7637795275590551,"duration":0.1872052760416807},{"name":"G4","midi":67,"time":220.56614066666626,"velocity":0.7637795275590551,"duration":0.14003544270832435},{"name":"D3","midi":50,"time":220.56614066666626,"velocity":0.7637795275590551,"duration":0.18720527604165227},{"name":"F2","midi":41,"time":220.75481999999957,"velocity":0.7637795275590551,"duration":0.1872052760416807},{"name":"A#3","midi":58,"time":220.75481999999957,"velocity":0.7637795275590551,"duration":0.4230544427083487},{"name":"A#2","midi":46,"time":220.9434993333329,"velocity":0.7637795275590551,"duration":0.1872052760416807},{"name":"G4","midi":67,"time":221.13217866666625,"velocity":0.7637795275590551,"duration":0.14003544270832435},{"name":"D3","midi":50,"time":221.13217866666625,"velocity":0.7637795275590551,"duration":0.18720527604165227},{"name":"E2","midi":40,"time":221.32085799999956,"velocity":0.7637795275590551,"duration":0.18720527604165227},{"name":"C4","midi":60,"time":221.32085799999956,"velocity":0.7637795275590551,"duration":0.14003544270832435},{"name":"A#3","midi":58,"time":221.46236749999954,"velocity":0.7637795275590551,"duration":0.06928069270833248},{"name":"G2","midi":43,"time":221.50953733333287,"velocity":0.7637795275590551,"duration":0.18720527604165227},{"name":"C4","midi":60,"time":221.53312224999954,"velocity":0.7637795275590551,"duration":0.06928069270833248},{"name":"A#3","midi":58,"time":221.60387699999953,"velocity":0.7637795275590551,"duration":0.06928069270833248},{"name":"C4","midi":60,"time":221.67463174999952,"velocity":0.7637795275590551,"duration":0.06928069270833248},{"name":"C3","midi":48,"time":221.69821666666618,"velocity":0.7637795275590551,"duration":0.18720527604165227},{"name":"A#3","midi":58,"time":221.7453864999995,"velocity":0.7637795275590551,"duration":0.06928069270833248},{"name":"C4","midi":60,"time":221.8161412499995,"velocity":0.7637795275590551,"duration":0.06928069270833248},{"name":"E3","midi":52,"time":221.8868959999995,"velocity":0.7637795275590551,"duration":0.1872052760416807},{"name":"A#3","midi":58,"time":221.8868959999995,"velocity":0.7637795275590551,"duration":0.3537737500000162},{"name":"G3","midi":55,"time":222.07557533333284,"velocity":0.7637795275590551,"duration":0.1872052760416807},{"name":"A#3","midi":58,"time":222.26425466666618,"velocity":0.7637795275590551,"duration":0.1872052760416807},{"name":"F3","midi":53,"time":222.26425466666618,"velocity":0.7637795275590551,"duration":0.1872052760416807},{"name":"E3","midi":52,"time":222.45293399999952,"velocity":0.7637795275590551,"duration":0.1872052760416807},{"name":"G4","midi":67,"time":222.45293399999952,"velocity":0.7637795275590551,"duration":0.1872052760416807},{"name":"D3","midi":50,"time":222.64161333333286,"velocity":0.7637795275590551,"duration":0.1872052760416807},{"name":"A3","midi":57,"time":222.64161333333286,"velocity":0.7637795275590551,"duration":0.1872052760416807},{"name":"C3","midi":48,"time":222.8302926666662,"velocity":0.7637795275590551,"duration":0.1872052760416807},{"name":"A#3","midi":58,"time":222.8302926666662,"velocity":0.7637795275590551,"duration":0.1872052760416807},{"name":"F3","midi":53,"time":223.01897199999954,"velocity":0.7637795275590551,"duration":0.3758846093750208},{"name":"A3","midi":57,"time":223.01897199999954,"velocity":0.7637795275590551,"duration":0.1872052760416807},{"name":"C4","midi":60,"time":223.20765133333288,"velocity":0.7637795275590551,"duration":0.1872052760416807},{"name":"A#3","midi":58,"time":223.39633066666622,"velocity":0.7637795275590551,"duration":0.1872052760416807},{"name":"D3","midi":50,"time":223.39633066666622,"velocity":0.7637795275590551,"duration":0.1872052760416807},{"name":"A2","midi":45,"time":223.58500999999956,"velocity":0.7637795275590551,"duration":0.3758846093750208},{"name":"C4","midi":60,"time":223.58500999999956,"velocity":0.7637795275590551,"duration":0.1872052760416807},{"name":"F4","midi":65,"time":223.7736893333329,"velocity":0.7637795275590551,"duration":0.1872052760416807},{"name":"A#2","midi":46,"time":223.96236866666624,"velocity":0.7637795275590551,"duration":0.1872052760416807},{"name":"E4","midi":64,"time":223.96236866666624,"velocity":0.7637795275590551,"duration":0.1872052760416807},{"name":"C3","midi":48,"time":224.15104799999958,"velocity":0.7637795275590551,"duration":0.5601417708333543},{"name":"A#4","midi":70,"time":224.15104799999958,"velocity":0.7637795275590551,"duration":0.1872052760416807},{"name":"A4","midi":69,"time":224.33972733333292,"velocity":0.7637795275590551,"duration":0.1872052760416807},{"name":"G4","midi":67,"time":224.52840666666626,"velocity":0.7637795275590551,"duration":0.15477601562500354},{"name":"C2","midi":36,"time":224.52840666666626,"velocity":0.7637795275590551,"duration":0.1872052760416807},{"name":"F2","midi":41,"time":224.7170859999996,"velocity":0.7637795275590551,"duration":0.3537737500000162},{"name":"F4","midi":65,"time":224.7170859999996,"velocity":0.7637795275590551,"duration":0.1872052760416807},{"name":"A4","midi":69,"time":224.90576533333294,"velocity":0.7637795275590551,"duration":0.1872052760416807},{"name":"C3","midi":48,"time":225.09444466666628,"velocity":0.7637795275590551,"duration":0.14003544270832435},{"name":"E4","midi":64,"time":225.09444466666628,"velocity":0.7637795275590551,"duration":0.18720527604165227},{"name":"A2","midi":45,"time":225.2831239999996,"velocity":0.7637795275590551,"duration":0.4230544427083487},{"name":"F4","midi":65,"time":225.2831239999996,"velocity":0.7637795275590551,"duration":0.1872052760416807},{"name":"C4","midi":60,"time":225.47180333333293,"velocity":0.7637795275590551,"duration":0.1872052760416807},{"name":"C3","midi":48,"time":225.66048266666627,"velocity":0.7637795275590551,"duration":0.14003544270832435},{"name":"F4","midi":65,"time":225.66048266666627,"velocity":0.7637795275590551,"duration":0.18720527604165227},{"name":"F2","midi":41,"time":225.84916199999958,"velocity":0.7637795275590551,"duration":0.4230544427083487},{"name":"A4","midi":69,"time":225.84916199999958,"velocity":0.7637795275590551,"duration":0.1872052760416807},{"name":"C5","midi":72,"time":226.03784133333292,"velocity":0.7637795275590551,"duration":0.1872052760416807},{"name":"A2","midi":45,"time":226.22652066666626,"velocity":0.7637795275590551,"duration":0.14003544270832435},{"name":"E4","midi":64,"time":226.22652066666626,"velocity":0.7637795275590551,"duration":0.18720527604165227},{"name":"D2","midi":38,"time":226.41519999999957,"velocity":0.7637795275590551,"duration":0.32429260416668626},{"name":"F4","midi":65,"time":226.41519999999957,"velocity":0.7637795275590551,"duration":0.1872052760416807},{"name":"A4","midi":69,"time":226.6038793333329,"velocity":0.7637795275590551,"duration":0.1872052760416807},{"name":"C3","midi":48,"time":226.79255866666625,"velocity":0.7637795275590551,"duration":0.14003544270832435},{"name":"E4","midi":64,"time":226.79255866666625,"velocity":0.7637795275590551,"duration":0.18720527604165227},{"name":"A2","midi":45,"time":226.98123799999956,"velocity":0.7637795275590551,"duration":0.4230544427083487},{"name":"F4","midi":65,"time":226.98123799999956,"velocity":0.7637795275590551,"duration":0.1872052760416807},{"name":"C4","midi":60,"time":227.1699173333329,"velocity":0.7637795275590551,"duration":0.1872052760416807},{"name":"C3","midi":48,"time":227.35859666666624,"velocity":0.7637795275590551,"duration":0.14003544270832435},{"name":"F4","midi":65,"time":227.35859666666624,"velocity":0.7637795275590551,"duration":0.18720527604165227},{"name":"F2","midi":41,"time":227.54727599999956,"velocity":0.7637795275590551,"duration":0.4230544427083487},{"name":"A4","midi":69,"time":227.54727599999956,"velocity":0.7637795275590551,"duration":0.1872052760416807},{"name":"C5","midi":72,"time":227.7359553333329,"velocity":0.7637795275590551,"duration":0.1872052760416807},{"name":"A2","midi":45,"time":227.92463466666624,"velocity":0.7637795275590551,"duration":0.14003544270832435},{"name":"E4","midi":64,"time":227.92463466666624,"velocity":0.7637795275590551,"duration":0.18720527604165227},{"name":"A1","midi":33,"time":228.11331399999955,"velocity":0.7637795275590551,"duration":0.3537737500000162},{"name":"F4","midi":65,"time":228.11331399999955,"velocity":0.7637795275590551,"duration":0.1872052760416807},{"name":"A4","midi":69,"time":228.3019933333329,"velocity":0.7637795275590551,"duration":0.1872052760416807},{"name":"C3","midi":48,"time":228.49067266666623,"velocity":0.7637795275590551,"duration":0.14003544270832435},{"name":"E4","midi":64,"time":228.49067266666623,"velocity":0.7637795275590551,"duration":0.18720527604165227},{"name":"A2","midi":45,"time":228.67935199999954,"velocity":0.7637795275590551,"duration":0.4230544427083487},{"name":"F4","midi":65,"time":228.67935199999954,"velocity":0.7637795275590551,"duration":0.1872052760416807},{"name":"C4","midi":60,"time":228.86803133333288,"velocity":0.7637795275590551,"duration":0.1872052760416807},{"name":"C3","midi":48,"time":229.05671066666622,"velocity":0.7637795275590551,"duration":0.14003544270832435},{"name":"F4","midi":65,"time":229.05671066666622,"velocity":0.7637795275590551,"duration":0.18720527604165227},{"name":"F2","midi":41,"time":229.24538999999953,"velocity":0.7637795275590551,"duration":0.4230544427083487},{"name":"A4","midi":69,"time":229.24538999999953,"velocity":0.7637795275590551,"duration":0.1872052760416807},{"name":"C5","midi":72,"time":229.43406933333287,"velocity":0.7637795275590551,"duration":0.1872052760416807},{"name":"A2","midi":45,"time":229.6227486666662,"velocity":0.7637795275590551,"duration":0.14003544270832435},{"name":"E4","midi":64,"time":229.6227486666662,"velocity":0.7637795275590551,"duration":0.18720527604165227},{"name":"A#1","midi":34,"time":229.81142799999952,"velocity":0.7637795275590551,"duration":0.4230544427083487},{"name":"D4","midi":62,"time":229.81142799999952,"velocity":0.7637795275590551,"duration":0.1872052760416807},{"name":"A#4","midi":70,"time":230.00010733333286,"velocity":0.7637795275590551,"duration":0.1872052760416807},{"name":"A#2","midi":46,"time":230.1887866666662,"velocity":0.7637795275590551,"duration":0.14003544270832435},{"name":"G4","midi":67,"time":230.1887866666662,"velocity":0.7637795275590551,"duration":0.18720527604165227},{"name":"C3","midi":48,"time":230.37746599999952,"velocity":0.7637795275590551,"duration":0.564563942708304},{"name":"F4","midi":65,"time":230.37746599999952,"velocity":0.7637795275590551,"duration":0.21079019270834465},{"name":"E4","midi":64,"time":230.58973024999952,"velocity":0.7637795275590551,"duration":0.06928069270833248},{"name":"F4","midi":65,"time":230.6604849999995,"velocity":0.7637795275590551,"duration":0.06928069270833248},{"name":"E4","midi":64,"time":230.7312397499995,"velocity":0.7637795275590551,"duration":0.06928069270833248},{"name":"F4","midi":65,"time":230.8019944999995,"velocity":0.7637795275590551,"duration":0.06928069270833248},{"name":"E4","midi":64,"time":230.8727492499995,"velocity":0.7637795275590551,"duration":0.06928069270833248},{"name":"C2","midi":36,"time":230.94350399999948,"velocity":0.7637795275590551,"duration":0.5645639427083324},{"name":"F4","midi":65,"time":230.94350399999948,"velocity":0.7637795275590551,"duration":0.06928069270833248},{"name":"E4","midi":64,"time":231.01425874999947,"velocity":0.7637795275590551,"duration":0.21079019270834465},{"name":"F4","midi":65,"time":231.22652299999947,"velocity":0.7637795275590551,"duration":0.2815449427083365},{"name":"F2","midi":41,"time":231.50954199999947,"velocity":0.7637795275590551,"duration":1.696639942708316},{"name":"F4","midi":65,"time":231.50954199999947,"velocity":0.7637795275590551,"duration":1.4136209427083202},{"name":"C4","midi":60,"time":231.50954199999947,"velocity":0.7637795275590551,"duration":1.1306019427083243},{"name":"A3","midi":57,"time":231.50954199999947,"velocity":0.7637795275590551,"duration":1.1306019427083243},{"name":"F4","midi":65,"time":233.04993186979112,"velocity":0.7637795275590551,"duration":0.14003544270832435},{"name":"F3","midi":53,"time":233.20765599999945,"velocity":0.7637795275590551,"duration":0.9139155208333705},{"name":"F4","midi":65,"time":233.20765599999945,"velocity":0.7637795275590551,"duration":0.1872052760416807},{"name":"A4","midi":69,"time":233.3963353333328,"velocity":0.7637795275590551,"duration":0.1872052760416807},{"name":"E4","midi":64,"time":233.58501466666613,"velocity":0.7637795275590551,"duration":0.1872052760416807},{"name":"F4","midi":65,"time":233.77369399999947,"velocity":0.7637795275590551,"duration":0.1872052760416807},{"name":"C4","midi":60,"time":233.9623733333328,"velocity":0.7637795275590551,"duration":0.1872052760416807},{"name":"A3","midi":57,"time":234.15105266666615,"velocity":0.7637795275590551,"duration":0.14003544270832435},{"name":"F4","midi":65,"time":234.15105266666615,"velocity":0.7637795275590551,"duration":0.18720527604165227},{"name":"C4","midi":60,"time":234.33973199999946,"velocity":0.7637795275590551,"duration":0.4230544427083487},{"name":"A4","midi":69,"time":234.33973199999946,"velocity":0.7637795275590551,"duration":0.1872052760416807},{"name":"C5","midi":72,"time":234.5284113333328,"velocity":0.7637795275590551,"duration":0.1872052760416807},{"name":"D#4","midi":63,"time":234.71709066666614,"velocity":0.7637795275590551,"duration":0.14003544270832435},{"name":"G4","midi":67,"time":234.71709066666614,"velocity":0.7637795275590551,"duration":0.18720527604165227},{"name":"D#3","midi":51,"time":234.90576999999945,"velocity":0.7637795275590551,"duration":0.9286560937500212},{"name":"A4","midi":69,"time":234.90576999999945,"velocity":0.7637795275590551,"duration":0.1872052760416807},{"name":"C5","midi":72,"time":235.0944493333328,"velocity":0.7637795275590551,"duration":0.1872052760416807},{"name":"G4","midi":67,"time":235.28312866666613,"velocity":0.7637795275590551,"duration":0.1872052760416807},{"name":"A4","midi":69,"time":235.47180799999947,"velocity":0.7637795275590551,"duration":0.1872052760416807},{"name":"F#4","midi":66,"time":235.6604873333328,"velocity":0.7637795275590551,"duration":0.18720527604165227},{"name":"F#3","midi":54,"time":235.84916666666612,"velocity":0.7637795275590551,"duration":0.14003544270832435},{"name":"A4","midi":69,"time":235.84916666666612,"velocity":0.7637795275590551,"duration":0.18720527604165227},{"name":"A3","midi":57,"time":236.03784599999943,"velocity":0.7637795275590551,"duration":0.4230544427083487},{"name":"C5","midi":72,"time":236.03784599999943,"velocity":0.7637795275590551,"duration":0.1872052760416807},{"name":"D#5","midi":75,"time":236.22652533333277,"velocity":0.7637795275590551,"duration":0.1872052760416807},{"name":"C4","midi":60,"time":236.4152046666661,"velocity":0.7637795275590551,"duration":0.14003544270832435},{"name":"A#4","midi":70,"time":236.4152046666661,"velocity":0.7637795275590551,"duration":0.18720527604165227},{"name":"D3","midi":50,"time":236.60388399999943,"velocity":0.7637795275590551,"duration":0.9433966666667004},{"name":"C5","midi":72,"time":236.60388399999943,"velocity":0.7637795275590551,"duration":0.1872052760416807},{"name":"D#5","midi":75,"time":236.79256333333277,"velocity":0.7637795275590551,"duration":0.1872052760416807},{"name":"A#4","midi":70,"time":236.9812426666661,"velocity":0.7637795275590551,"duration":0.1872052760416807},{"name":"C5","midi":72,"time":237.16992199999945,"velocity":0.7637795275590551,"duration":0.1872052760416807},{"name":"A4","midi":69,"time":237.35860133333279,"velocity":0.7637795275590551,"duration":0.1872052760416807},{"name":"A3","midi":57,"time":237.54728066666613,"velocity":0.7637795275590551,"duration":0.14003544270832435},{"name":"C5","midi":72,"time":237.54728066666613,"velocity":0.7637795275590551,"duration":0.18720527604165227},{"name":"D4","midi":62,"time":237.73595999999944,"velocity":0.7637795275590551,"duration":0.4230544427083487},{"name":"F#5","midi":78,"time":237.73595999999944,"velocity":0.7637795275590551,"duration":0.1872052760416807},{"name":"A5","midi":81,"time":237.92463933333278,"velocity":0.7637795275590551,"duration":0.1872052760416807},{"name":"F#4","midi":66,"time":238.11331866666612,"velocity":0.7637795275590551,"duration":0.14003544270832435},{"name":"D5","midi":74,"time":238.11331866666612,"velocity":0.7637795275590551,"duration":0.18720527604165227},{"name":"G4","midi":67,"time":238.30199799999943,"velocity":0.7637795275590551,"duration":0.4230544427083487},{"name":"A#5","midi":82,"time":238.30199799999943,"velocity":0.7637795275590551,"duration":0.1872052760416807},{"name":"C6","midi":84,"time":238.49067733333277,"velocity":0.7637795275590551,"duration":0.1872052760416807},{"name":"G3","midi":55,"time":238.6793566666661,"velocity":0.7637795275590551,"duration":0.14003544270832435},{"name":"D#5","midi":75,"time":238.6793566666661,"velocity":0.7637795275590551,"duration":0.18720527604165227},{"name":"F3","midi":53,"time":238.86803599999942,"velocity":0.7637795275590551,"duration":0.4230544427083487},{"name":"A5","midi":81,"time":238.86803599999942,"velocity":0.7637795275590551,"duration":0.1872052760416807},{"name":"A#5","midi":82,"time":239.05671533333276,"velocity":0.7637795275590551,"duration":0.1872052760416807},{"name":"F4","midi":65,"time":239.2453946666661,"velocity":0.7637795275590551,"duration":0.14003544270832435},{"name":"D5","midi":74,"time":239.2453946666661,"velocity":0.7637795275590551,"duration":0.18720527604165227},{"name":"D#4","midi":63,"time":239.4340739999994,"velocity":0.7637795275590551,"duration":0.4230544427083487},{"name":"G5","midi":79,"time":239.4340739999994,"velocity":0.7637795275590551,"duration":0.1872052760416807},{"name":"A5","midi":81,"time":239.62275333333275,"velocity":0.7637795275590551,"duration":0.1872052760416807},{"name":"D#3","midi":51,"time":239.8114326666661,"velocity":0.7637795275590551,"duration":0.14003544270832435},{"name":"C5","midi":72,"time":239.8114326666661,"velocity":0.7637795275590551,"duration":0.18720527604165227},{"name":"D3","midi":50,"time":240.0001119999994,"velocity":0.7637795275590551,"duration":0.18720527604165227},{"name":"G5","midi":79,"time":240.0001119999994,"velocity":0.7637795275590551,"duration":0.14003544270832435},{"name":"F#5","midi":78,"time":240.1416214999994,"velocity":0.7637795275590551,"duration":0.06928069270833248},{"name":"F#3","midi":54,"time":240.18879133333272,"velocity":0.7637795275590551,"duration":0.18720527604165227},{"name":"G5","midi":79,"time":240.21237624999938,"velocity":0.7637795275590551,"duration":0.06928069270833248},{"name":"F#5","midi":78,"time":240.28313099999937,"velocity":0.7637795275590551,"duration":0.06928069270833248},{"name":"G5","midi":79,"time":240.35388574999936,"velocity":0.7637795275590551,"duration":0.06928069270833248},{"name":"A3","midi":57,"time":240.37747066666603,"velocity":0.7637795275590551,"duration":0.18720527604165227},{"name":"F#5","midi":78,"time":240.42464049999936,"velocity":0.7637795275590551,"duration":0.06928069270833248},{"name":"G5","midi":79,"time":240.49539524999935,"velocity":0.7637795275590551,"duration":0.06928069270833248},{"name":"D4","midi":62,"time":240.56614999999934,"velocity":0.7637795275590551,"duration":0.1872052760416807},{"name":"F#5","midi":78,"time":240.56614999999934,"velocity":0.7637795275590551,"duration":0.1872052760416807},{"name":"F#4","midi":66,"time":240.75482933333268,"velocity":0.7637795275590551,"duration":0.1872052760416807},{"name":"D5","midi":74,"time":240.75482933333268,"velocity":0.7637795275590551,"duration":0.1872052760416807},{"name":"A4","midi":69,"time":240.94350866666602,"velocity":0.7637795275590551,"duration":0.1872052760416807},{"name":"F#5","midi":78,"time":240.94350866666602,"velocity":0.7637795275590551,"duration":0.1872052760416807},{"name":"C5","midi":72,"time":241.13218799999936,"velocity":0.7637795275590551,"duration":0.36851432291666697},{"name":"A5","midi":81,"time":241.13218799999936,"velocity":0.7637795275590551,"duration":0.1872052760416807},{"name":"D5","midi":74,"time":241.3208673333327,"velocity":0.7637795275590551,"duration":0.18720527604165227},{"name":"C5","midi":72,"time":241.509546666666,"velocity":0.7637795275590551,"duration":0.1872052760416807},{"name":"G2","midi":43,"time":241.69822599999935,"velocity":0.7637795275590551,"duration":0.1872052760416807},{"name":"A#4","midi":70,"time":241.69822599999935,"velocity":0.7637795275590551,"duration":0.1872052760416807},{"name":"A#2","midi":46,"time":241.8869053333327,"velocity":0.7637795275590551,"duration":0.1872052760416807},{"name":"D5","midi":74,"time":241.8869053333327,"velocity":0.7637795275590551,"duration":0.1872052760416807},{"name":"D3","midi":50,"time":242.07558466666603,"velocity":0.7637795275590551,"duration":0.1872052760416807},{"name":"A4","midi":69,"time":242.07558466666603,"velocity":0.7637795275590551,"duration":0.1872052760416807},{"name":"G3","midi":55,"time":242.26426399999937,"velocity":0.7637795275590551,"duration":0.1872052760416807},{"name":"A#4","midi":70,"time":242.26426399999937,"velocity":0.7637795275590551,"duration":0.1872052760416807},{"name":"A#3","midi":58,"time":242.4529433333327,"velocity":0.7637795275590551,"duration":0.1872052760416807},{"name":"G4","midi":67,"time":242.4529433333327,"velocity":0.7637795275590551,"duration":0.1872052760416807},{"name":"D4","midi":62,"time":242.64162266666605,"velocity":0.7637795275590551,"duration":0.1872052760416807},{"name":"A#4","midi":70,"time":242.64162266666605,"velocity":0.7637795275590551,"duration":0.1872052760416807},{"name":"F4","midi":65,"time":242.8303019999994,"velocity":0.7637795275590551,"duration":0.5645639427083609},{"name":"D5","midi":74,"time":242.8303019999994,"velocity":0.7637795275590551,"duration":0.1872052760416807},{"name":"G5","midi":79,"time":243.01898133333273,"velocity":0.7637795275590551,"duration":0.1872052760416807},{"name":"A#5","midi":82,"time":243.20766066666607,"velocity":0.7637795275590551,"duration":0.1872052760416807},{"name":"C3","midi":48,"time":243.3963399999994,"velocity":0.7637795275590551,"duration":0.18720527604165227},{"name":"F5","midi":77,"time":243.3963399999994,"velocity":0.7637795275590551,"duration":0.14003544270832435},{"name":"D#5","midi":75,"time":243.5378494999994,"velocity":0.7637795275590551,"duration":0.06928069270833248},{"name":"D#3","midi":51,"time":243.58501933333272,"velocity":0.7637795275590551,"duration":0.18720527604165227},{"name":"F5","midi":77,"time":243.6086042499994,"velocity":0.7637795275590551,"duration":0.06928069270833248},{"name":"D#5","midi":75,"time":243.67935899999938,"velocity":0.7637795275590551,"duration":0.06928069270833248},{"name":"F5","midi":77,"time":243.75011374999937,"velocity":0.7637795275590551,"duration":0.06928069270833248},{"name":"G3","midi":55,"time":243.77369866666604,"velocity":0.7637795275590551,"duration":0.18720527604165227},{"name":"D#5","midi":75,"time":243.82086849999936,"velocity":0.7637795275590551,"duration":0.06928069270833248},{"name":"F5","midi":77,"time":243.89162324999936,"velocity":0.7637795275590551,"duration":0.06928069270833248},{"name":"C4","midi":60,"time":243.96237799999935,"velocity":0.7637795275590551,"duration":0.1872052760416807},{"name":"D#5","midi":75,"time":243.96237799999935,"velocity":0.7637795275590551,"duration":0.1872052760416807},{"name":"D#4","midi":63,"time":244.1510573333327,"velocity":0.7637795275590551,"duration":0.1872052760416807},{"name":"C5","midi":72,"time":244.1510573333327,"velocity":0.7637795275590551,"duration":0.1872052760416807},{"name":"G4","midi":67,"time":244.33973666666603,"velocity":0.7637795275590551,"duration":0.1872052760416807},{"name":"D#5","midi":75,"time":244.33973666666603,"velocity":0.7637795275590551,"duration":0.1872052760416807},{"name":"A#4","midi":70,"time":244.52841599999937,"velocity":0.7637795275590551,"duration":0.36851432291666697},{"name":"G5","midi":79,"time":244.52841599999937,"velocity":0.7637795275590551,"duration":0.1872052760416807},{"name":"C5","midi":72,"time":244.7170953333327,"velocity":0.7637795275590551,"duration":0.18720527604165227},{"name":"A#4","midi":70,"time":244.90577466666602,"velocity":0.7637795275590551,"duration":0.1872052760416807},{"name":"F2","midi":41,"time":245.09445399999936,"velocity":0.7637795275590551,"duration":0.1872052760416807},{"name":"A4","midi":69,"time":245.09445399999936,"velocity":0.7637795275590551,"duration":0.1872052760416807},{"name":"A2","midi":45,"time":245.2831333333327,"velocity":0.7637795275590551,"duration":0.1872052760416807},{"name":"C5","midi":72,"time":245.2831333333327,"velocity":0.7637795275590551,"duration":0.1872052760416807},{"name":"C3","midi":48,"time":245.47181266666604,"velocity":0.7637795275590551,"duration":0.1872052760416807},{"name":"G4","midi":67,"time":245.47181266666604,"velocity":0.7637795275590551,"duration":0.1872052760416807},{"name":"F3","midi":53,"time":245.66049199999938,"velocity":0.7637795275590551,"duration":0.1872052760416807},{"name":"A4","midi":69,"time":245.66049199999938,"velocity":0.7637795275590551,"duration":0.1872052760416807},{"name":"A3","midi":57,"time":245.84917133333272,"velocity":0.7637795275590551,"duration":0.1872052760416807},{"name":"F4","midi":65,"time":245.84917133333272,"velocity":0.7637795275590551,"duration":0.1872052760416807},{"name":"C4","midi":60,"time":246.03785066666606,"velocity":0.7637795275590551,"duration":0.1872052760416807},{"name":"A4","midi":69,"time":246.03785066666606,"velocity":0.7637795275590551,"duration":0.1872052760416807},{"name":"D#4","midi":63,"time":246.2265299999994,"velocity":0.7637795275590551,"duration":0.4245285000000081},{"name":"C5","midi":72,"time":246.2265299999994,"velocity":0.7637795275590551,"duration":0.1872052760416807},{"name":"F5","midi":77,"time":246.41520933333274,"velocity":0.7637795275590551,"duration":0.1872052760416807},{"name":"A5","midi":81,"time":246.60388866666608,"velocity":0.7637795275590551,"duration":0.18720527604165227},{"name":"A#2","midi":46,"time":246.7925679999994,"velocity":0.7637795275590551,"duration":0.18720527604165227},{"name":"D#5","midi":75,"time":246.7925679999994,"velocity":0.7637795275590551,"duration":0.14003544270832435},{"name":"D5","midi":74,"time":246.93407749999938,"velocity":0.7637795275590551,"duration":0.06928069270833248},{"name":"D3","midi":50,"time":246.9812473333327,"velocity":0.7637795275590551,"duration":0.18720527604165227},{"name":"D#5","midi":75,"time":247.00483224999937,"velocity":0.7637795275590551,"duration":0.06928069270833248},{"name":"D5","midi":74,"time":247.07558699999936,"velocity":0.7637795275590551,"duration":0.06928069270833248},{"name":"D#5","midi":75,"time":247.14634174999935,"velocity":0.7637795275590551,"duration":0.06928069270833248},{"name":"F3","midi":53,"time":247.16992666666602,"velocity":0.7637795275590551,"duration":0.18720527604165227},{"name":"D5","midi":74,"time":247.21709649999934,"velocity":0.7637795275590551,"duration":0.06928069270833248},{"name":"D#5","midi":75,"time":247.28785124999933,"velocity":0.7637795275590551,"duration":0.06928069270833248},{"name":"A#3","midi":58,"time":247.35860599999933,"velocity":0.7637795275590551,"duration":0.1872052760416807},{"name":"D5","midi":74,"time":247.35860599999933,"velocity":0.7637795275590551,"duration":0.1872052760416807},{"name":"D4","midi":62,"time":247.54728533333267,"velocity":0.7637795275590551,"duration":0.1872052760416807},{"name":"A#4","midi":70,"time":247.54728533333267,"velocity":0.7637795275590551,"duration":0.1872052760416807},{"name":"F4","midi":65,"time":247.735964666666,"velocity":0.7637795275590551,"duration":0.1872052760416807},{"name":"D5","midi":74,"time":247.735964666666,"velocity":0.7637795275590551,"duration":0.1872052760416807},{"name":"G#4","midi":68,"time":247.92464399999935,"velocity":0.7637795275590551,"duration":0.3758846093750208},{"name":"F5","midi":77,"time":247.92464399999935,"velocity":0.7637795275590551,"duration":0.1872052760416807},{"name":"A#4","midi":70,"time":248.1133233333327,"velocity":0.7637795275590551,"duration":0.1872052760416807},{"name":"G#4","midi":68,"time":248.30200266666603,"velocity":0.7637795275590551,"duration":0.1872052760416807},{"name":"G4","midi":67,"time":248.49068199999937,"velocity":0.7637795275590551,"duration":0.4230544427083487},{"name":"D#4","midi":63,"time":248.6793613333327,"velocity":0.7637795275590551,"duration":0.1872052760416807},{"name":"F5","midi":77,"time":248.86804066666605,"velocity":0.7637795275590551,"duration":0.14003544270832435},{"name":"D4","midi":62,"time":248.86804066666605,"velocity":0.7637795275590551,"duration":0.18720527604165227},{"name":"C4","midi":60,"time":249.05671999999936,"velocity":0.7637795275590551,"duration":0.1872052760416807},{"name":"D#5","midi":75,"time":249.05671999999936,"velocity":0.7637795275590551,"duration":0.4230544427083487},{"name":"D#4","midi":63,"time":249.2453993333327,"velocity":0.7637795275590551,"duration":0.1872052760416807},{"name":"A#5","midi":82,"time":249.43407866666604,"velocity":0.7637795275590551,"duration":0.14003544270832435},{"name":"G4","midi":67,"time":249.43407866666604,"velocity":0.7637795275590551,"duration":0.18720527604165227},{"name":"F4","midi":65,"time":249.62275799999935,"velocity":0.7637795275590551,"duration":0.1872052760416807},{"name":"G#5","midi":80,"time":249.62275799999935,"velocity":0.7637795275590551,"duration":0.4230544427083487},{"name":"D4","midi":62,"time":249.8114373333327,"velocity":0.7637795275590551,"duration":0.1872052760416807},{"name":"D5","midi":74,"time":250.00011666666603,"velocity":0.7637795275590551,"duration":0.14003544270832435},{"name":"A#3","midi":58,"time":250.00011666666603,"velocity":0.7637795275590551,"duration":0.17688687499997968},{"name":"D#4","midi":63,"time":250.18879599999934,"velocity":0.7637795275590551,"duration":0.4230544427083487},{"name":"C4","midi":60,"time":250.37747533333268,"velocity":0.7637795275590551,"duration":0.1872052760416807},{"name":"D5","midi":74,"time":250.56615466666602,"velocity":0.7637795275590551,"duration":0.14003544270832435},{"name":"A#3","midi":58,"time":250.56615466666602,"velocity":0.7637795275590551,"duration":0.18720527604165227},{"name":"G#3","midi":56,"time":250.75483399999933,"velocity":0.7637795275590551,"duration":0.1872052760416807},{"name":"C5","midi":72,"time":250.75483399999933,"velocity":0.7637795275590551,"duration":0.4230544427083487},{"name":"C4","midi":60,"time":250.94351333333267,"velocity":0.7637795275590551,"duration":0.1872052760416807},{"name":"G5","midi":79,"time":251.13219266666601,"velocity":0.7637795275590551,"duration":0.14003544270832435},{"name":"D#4","midi":63,"time":251.13219266666601,"velocity":0.7637795275590551,"duration":0.18720527604165227},{"name":"D4","midi":62,"time":251.32087199999933,"velocity":0.7637795275590551,"duration":0.1872052760416807},{"name":"F5","midi":77,"time":251.32087199999933,"velocity":0.7637795275590551,"duration":0.4230544427083487},{"name":"B3","midi":59,"time":251.50955133333267,"velocity":0.7637795275590551,"duration":0.1872052760416807},{"name":"B4","midi":71,"time":251.698230666666,"velocity":0.7637795275590551,"duration":0.14003544270832435},{"name":"G3","midi":55,"time":251.698230666666,"velocity":0.7637795275590551,"duration":0.17688687499997968},{"name":"C4","midi":60,"time":251.88690999999932,"velocity":0.7637795275590551,"duration":0.4230544427083487},{"name":"A3","midi":57,"time":252.07558933333266,"velocity":0.7637795275590551,"duration":0.1872052760416807},{"name":"A#4","midi":70,"time":252.264268666666,"velocity":0.7637795275590551,"duration":0.14003544270832435},{"name":"G3","midi":55,"time":252.264268666666,"velocity":0.7637795275590551,"duration":0.18720527604165227},{"name":"F#3","midi":54,"time":252.4529479999993,"velocity":0.7637795275590551,"duration":0.1872052760416807},{"name":"A4","midi":69,"time":252.4529479999993,"velocity":0.7637795275590551,"duration":0.4230544427083487},{"name":"A3","midi":57,"time":252.64162733333265,"velocity":0.7637795275590551,"duration":0.1872052760416807},{"name":"D#5","midi":75,"time":252.830306666666,"velocity":0.7637795275590551,"duration":0.14003544270832435},{"name":"C4","midi":60,"time":252.830306666666,"velocity":0.7637795275590551,"duration":0.18720527604165227},{"name":"A#3","midi":58,"time":253.0189859999993,"velocity":0.7637795275590551,"duration":0.1872052760416807},{"name":"D5","midi":74,"time":253.0189859999993,"velocity":0.7637795275590551,"duration":0.4230544427083487},{"name":"G3","midi":55,"time":253.20766533333264,"velocity":0.7637795275590551,"duration":0.1872052760416807},{"name":"G4","midi":67,"time":253.39634466666598,"velocity":0.7637795275590551,"duration":0.14003544270832435},{"name":"D#3","midi":51,"time":253.39634466666598,"velocity":0.7637795275590551,"duration":0.37588460937499235},{"name":"F#4","midi":66,"time":253.5850239999993,"velocity":0.7637795275590551,"duration":0.1872052760416807},{"name":"C4","midi":60,"time":253.77370333333263,"velocity":0.7637795275590551,"duration":0.1872052760416807},{"name":"A4","midi":69,"time":253.77370333333263,"velocity":0.7637795275590551,"duration":0.1872052760416807},{"name":"A3","midi":57,"time":253.96238266666597,"velocity":0.7637795275590551,"duration":0.1872052760416807},{"name":"C5","midi":72,"time":253.96238266666597,"velocity":0.7637795275590551,"duration":0.1872052760416807},{"name":"F#3","midi":54,"time":254.1510619999993,"velocity":0.7637795275590551,"duration":0.1872052760416807},{"name":"D#5","midi":75,"time":254.1510619999993,"velocity":0.7637795275590551,"duration":0.1872052760416807},{"name":"G3","midi":55,"time":254.33974133333265,"velocity":0.7637795275590551,"duration":0.1872052760416807},{"name":"D5","midi":74,"time":254.33974133333265,"velocity":0.7637795275590551,"duration":0.1872052760416807},{"name":"A3","midi":57,"time":254.528420666666,"velocity":0.7637795275590551,"duration":0.1872052760416807},{"name":"C5","midi":72,"time":254.528420666666,"velocity":0.7637795275590551,"duration":0.1872052760416807},{"name":"D#3","midi":51,"time":254.71709999999933,"velocity":0.7637795275590551,"duration":0.1872052760416807},{"name":"A5","midi":81,"time":254.71709999999933,"velocity":0.7637795275590551,"duration":0.32429260416668626},{"name":"D3","midi":50,"time":254.90577933333267,"velocity":0.7637795275590551,"duration":0.1872052760416807},{"name":"C3","midi":48,"time":255.09445866666601,"velocity":0.7637795275590551,"duration":0.1872052760416807},{"name":"A#2","midi":46,"time":255.28313799999935,"velocity":0.7637795275590551,"duration":0.1872052760416807},{"name":"D4","midi":62,"time":255.28313799999935,"velocity":0.7637795275590551,"duration":0.1872052760416807},{"name":"G3","midi":55,"time":255.4718173333327,"velocity":0.7637795275590551,"duration":0.1872052760416807},{"name":"G4","midi":67,"time":255.4718173333327,"velocity":0.7637795275590551,"duration":0.1872052760416807},{"name":"D3","midi":50,"time":255.66049666666603,"velocity":0.7637795275590551,"duration":0.1872052760416807},{"name":"A#4","midi":70,"time":255.66049666666603,"velocity":0.7637795275590551,"duration":0.1872052760416807},{"name":"A#2","midi":46,"time":255.84917599999937,"velocity":0.7637795275590551,"duration":0.18720527604165227},{"name":"D5","midi":74,"time":255.84917599999937,"velocity":0.7637795275590551,"duration":0.18720527604165227},{"name":"C3","midi":48,"time":256.0378553333327,"velocity":0.7637795275590551,"duration":0.18720527604165227},{"name":"C5","midi":72,"time":256.0378553333327,"velocity":0.7637795275590551,"duration":0.18720527604165227},{"name":"D3","midi":50,"time":256.226534666666,"velocity":0.7637795275590551,"duration":0.18720527604165227},{"name":"A#4","midi":70,"time":256.226534666666,"velocity":0.7637795275590551,"duration":0.18720527604165227},{"name":"G2","midi":43,"time":256.4152139999993,"velocity":0.7637795275590551,"duration":0.18720527604165227},{"name":"A#5","midi":82,"time":256.4152139999993,"velocity":0.7637795275590551,"duration":0.42452849999995124},{"name":"F#2","midi":42,"time":256.6038933333326,"velocity":0.7637795275590551,"duration":0.18720527604165227},{"name":"E2","midi":40,"time":256.79257266666593,"velocity":0.7637795275590551,"duration":0.18720527604165227},{"name":"D2","midi":38,"time":256.98125199999924,"velocity":0.7637795275590551,"duration":0.5601417708332974},{"name":"C#4","midi":61,"time":256.98125199999924,"velocity":0.7637795275590551,"duration":0.18720527604165227},{"name":"E4","midi":64,"time":257.16993133333256,"velocity":0.7637795275590551,"duration":0.18720527604165227},{"name":"C#3","midi":49,"time":257.35861066666587,"velocity":0.7637795275590551,"duration":0.5601417708332974},{"name":"G4","midi":67,"time":257.35861066666587,"velocity":0.7637795275590551,"duration":0.18720527604165227},{"name":"D2","midi":38,"time":257.5472899999992,"velocity":0.7637795275590551,"duration":0.5601417708332974},{"name":"A#4","midi":70,"time":257.5472899999992,"velocity":0.7637795275590551,"duration":0.18720527604165227},{"name":"A4","midi":69,"time":257.7359693333325,"velocity":0.7637795275590551,"duration":0.18720527604165227},{"name":"C#3","midi":49,"time":257.9246486666658,"velocity":0.7637795275590551,"duration":0.5601417708332974},{"name":"G4","midi":67,"time":257.9246486666658,"velocity":0.7637795275590551,"duration":0.18720527604165227},{"name":"D2","midi":38,"time":258.1133279999991,"velocity":0.7637795275590551,"duration":0.5601417708333543},{"name":"E5","midi":76,"time":258.1133279999991,"velocity":0.7637795275590551,"duration":0.4230544427083487},{"name":"G4","midi":67,"time":258.4906866666658,"velocity":0.7637795275590551,"duration":0.14003544270832435},{"name":"C#3","midi":49,"time":258.4906866666658,"velocity":0.7637795275590551,"duration":0.14003544270832435},{"name":"D2","midi":38,"time":258.67936599999916,"velocity":0.7637795275590551,"duration":0.7075474999999187},{"name":"D3","midi":50,"time":258.67936599999916,"velocity":0.7637795275590551,"duration":0.8475829427082431},{"name":"F#4","midi":66,"time":258.67936599999916,"velocity":0.7637795275590551,"duration":0.18720527604165227},{"name":"G4","midi":67,"time":258.8680453333325,"velocity":0.7637795275590551,"duration":0.18720527604165227},{"name":"A4","midi":69,"time":259.0567246666658,"velocity":0.7637795275590551,"duration":0.18720527604165227},{"name":"D4","midi":62,"time":259.2454039999991,"velocity":0.7637795275590551,"duration":0.18720527604165227},{"name":"F#4","midi":66,"time":259.4340833333324,"velocity":0.7637795275590551,"duration":0.18720527604165227},{"name":"D#3","midi":51,"time":259.6227626666657,"velocity":0.7637795275590551,"duration":0.14003544270832435},{"name":"A4","midi":69,"time":259.6227626666657,"velocity":0.7637795275590551,"duration":0.18720527604165227},{"name":"D3","midi":50,"time":259.81144199999903,"velocity":0.7637795275590551,"duration":0.42305444270829184},{"name":"C5","midi":72,"time":259.81144199999903,"velocity":0.7637795275590551,"duration":0.18720527604165227},{"name":"A#4","midi":70,"time":260.00012133333234,"velocity":0.7637795275590551,"duration":0.18720527604165227},{"name":"C3","midi":48,"time":260.18880066666566,"velocity":0.7637795275590551,"duration":0.14003544270832435},{"name":"A4","midi":69,"time":260.18880066666566,"velocity":0.7637795275590551,"duration":0.18720527604165227},{"name":"A#2","midi":46,"time":260.37747999999897,"velocity":0.7637795275590551,"duration":0.42305444270829184},{"name":"G5","midi":79,"time":260.37747999999897,"velocity":0.7637795275590551,"duration":0.18720527604165227},{"name":"F5","midi":77,"time":260.5661593333323,"velocity":0.7637795275590551,"duration":0.18720527604165227},{"name":"F#3","midi":54,"time":260.7548386666656,"velocity":0.7637795275590551,"duration":0.14003544270832435},{"name":"D#5","midi":75,"time":260.7548386666656,"velocity":0.7637795275590551,"duration":0.18720527604165227},{"name":"G3","midi":55,"time":260.9435179999989,"velocity":0.7637795275590551,"duration":0.42305444270829184},{"name":"D5","midi":74,"time":260.9435179999989,"velocity":0.7637795275590551,"duration":0.18720527604165227},{"name":"C5","midi":72,"time":261.1321973333322,"velocity":0.7637795275590551,"duration":0.18720527604165227},{"name":"C3","midi":48,"time":261.3208766666655,"velocity":0.7637795275590551,"duration":0.14003544270832435},{"name":"A#4","midi":70,"time":261.3208766666655,"velocity":0.7637795275590551,"duration":0.18720527604165227},{"name":"D3","midi":50,"time":261.50955599999884,"velocity":0.7637795275590551,"duration":0.42305444270829184},{"name":"A4","midi":69,"time":261.50955599999884,"velocity":0.7637795275590551,"duration":0.18720527604165227},{"name":"C5","midi":72,"time":261.69823533333215,"velocity":0.7637795275590551,"duration":0.18720527604165227},{"name":"D2","midi":38,"time":261.88691466666546,"velocity":0.7637795275590551,"duration":0.14003544270832435},{"name":"F#4","midi":66,"time":261.88691466666546,"velocity":0.7637795275590551,"duration":0.18720527604165227},{"name":"G2","midi":43,"time":262.0755939999988,"velocity":0.7637795275590551,"duration":0.18720527604165227},{"name":"G4","midi":67,"time":262.0755939999988,"velocity":0.7637795275590551,"duration":0.7075474999999187},{"name":"A#2","midi":46,"time":262.2642733333321,"velocity":0.7637795275590551,"duration":0.18720527604165227},{"name":"F#2","midi":42,"time":262.4529526666654,"velocity":0.7637795275590551,"duration":0.18720527604165227},{"name":"G2","midi":43,"time":262.6416319999987,"velocity":0.7637795275590551,"duration":0.18720527604165227},{"name":"D2","midi":38,"time":262.830311333332,"velocity":0.7637795275590551,"duration":0.18720527604165227},{"name":"A#4","midi":70,"time":263.01899066666533,"velocity":0.7637795275590551,"duration":0.14003544270832435},{"name":"G2","midi":43,"time":263.01899066666533,"velocity":0.7637795275590551,"duration":0.18720527604165227},{"name":"A#2","midi":46,"time":263.20766999999864,"velocity":0.7637795275590551,"duration":0.18720527604165227},{"name":"D4","midi":62,"time":263.20766999999864,"velocity":0.7637795275590551,"duration":0.42305444270829184},{"name":"D3","midi":50,"time":263.39634933333195,"velocity":0.7637795275590551,"duration":0.18720527604165227},{"name":"D#4","midi":63,"time":263.58502866666527,"velocity":0.7637795275590551,"duration":0.14003544270832435},{"name":"G2","midi":43,"time":263.58502866666527,"velocity":0.7637795275590551,"duration":0.18720527604165227},{"name":"D2","midi":38,"time":263.7737079999986,"velocity":0.7637795275590551,"duration":0.8475829427082431},{"name":"F4","midi":65,"time":263.7737079999986,"velocity":0.7637795275590551,"duration":0.18720527604165227},{"name":"G#4","midi":68,"time":263.9623873333319,"velocity":0.7637795275590551,"duration":0.18720527604165227},{"name":"D#4","midi":63,"time":264.1510666666652,"velocity":0.7637795275590551,"duration":0.18720527604165227},{"name":"F4","midi":65,"time":264.3397459999985,"velocity":0.7637795275590551,"duration":0.18720527604165227},{"name":"G#4","midi":68,"time":264.5284253333318,"velocity":0.7637795275590551,"duration":0.18720527604165227},{"name":"A#2","midi":46,"time":264.71710466666514,"velocity":0.7637795275590551,"duration":0.14003544270832435},{"name":"D5","midi":74,"time":264.71710466666514,"velocity":0.7637795275590551,"duration":0.18720527604165227},{"name":"D3","midi":50,"time":264.90578399999845,"velocity":0.7637795275590551,"duration":0.18720527604165227},{"name":"F5","midi":77,"time":264.90578399999845,"velocity":0.7637795275590551,"duration":0.42305444270829184},{"name":"F3","midi":53,"time":265.09446333333176,"velocity":0.7637795275590551,"duration":0.18720527604165227},{"name":"G#4","midi":68,"time":265.28314266666507,"velocity":0.7637795275590551,"duration":0.14003544270832435},{"name":"A#2","midi":46,"time":265.28314266666507,"velocity":0.7637795275590551,"duration":0.18720527604165227},{"name":"D#3","midi":51,"time":265.4718219999984,"velocity":0.7637795275590551,"duration":0.7532432760415873},{"name":"G4","midi":67,"time":265.4718219999984,"velocity":0.7637795275590551,"duration":0.18720527604165227},{"name":"A#4","midi":70,"time":265.6605013333317,"velocity":0.7637795275590551,"duration":0.18720527604165227},{"name":"F4","midi":65,"time":265.849180666665,"velocity":0.7637795275590551,"duration":0.18720527604165227},{"name":"G4","midi":67,"time":266.0378599999983,"velocity":0.7637795275590551,"duration":0.18720527604165227},{"name":"G3","midi":55,"time":266.22653933333163,"velocity":0.7637795275590551,"duration":0.14003544270832435},{"name":"A#4","midi":70,"time":266.22653933333163,"velocity":0.7637795275590551,"duration":0.18720527604165227},{"name":"D#3","midi":51,"time":266.41521866666494,"velocity":0.7637795275590551,"duration":0.18720527604165227},{"name":"D#5","midi":75,"time":266.41521866666494,"velocity":0.7637795275590551,"duration":0.18720527604165227},{"name":"C3","midi":48,"time":266.60389799999825,"velocity":0.7637795275590551,"duration":0.18720527604165227},{"name":"G5","midi":79,"time":266.60389799999825,"velocity":0.7637795275590551,"duration":0.7532432760415873},{"name":"D#3","midi":51,"time":266.79257733333156,"velocity":0.7637795275590551,"duration":0.18720527604165227},{"name":"G2","midi":43,"time":266.9812566666649,"velocity":0.7637795275590551,"duration":0.18720527604165227},{"name":"A2","midi":45,"time":267.1699359999982,"velocity":0.7637795275590551,"duration":0.42305444270829184},{"name":"F5","midi":77,"time":267.3586153333315,"velocity":0.7637795275590551,"duration":0.18720527604165227},{"name":"F3","midi":53,"time":267.5472946666648,"velocity":0.7637795275590551,"duration":0.14003544270832435},{"name":"D#5","midi":75,"time":267.5472946666648,"velocity":0.7637795275590551,"duration":0.18720527604165227},{"name":"A#3","midi":58,"time":267.7359739999981,"velocity":0.7637795275590551,"duration":0.42305444270829184},{"name":"D5","midi":74,"time":267.7359739999981,"velocity":0.7637795275590551,"duration":0.18720527604165227},{"name":"D#5","midi":75,"time":267.92465333333143,"velocity":0.7637795275590551,"duration":0.18720527604165227},{"name":"D3","midi":50,"time":268.11333266666475,"velocity":0.7637795275590551,"duration":0.14003544270832435},{"name":"F5","midi":77,"time":268.11333266666475,"velocity":0.7637795275590551,"duration":0.18720527604165227},{"name":"D#3","midi":51,"time":268.30201199999806,"velocity":0.7637795275590551,"duration":0.42305444270829184},{"name":"G4","midi":67,"time":268.30201199999806,"velocity":0.7637795275590551,"duration":0.18720527604165227},{"name":"A4","midi":69,"time":268.49069133333137,"velocity":0.7637795275590551,"duration":0.18720527604165227},{"name":"C3","midi":48,"time":268.6793706666647,"velocity":0.7637795275590551,"duration":0.14003544270832435},{"name":"A#4","midi":70,"time":268.6793706666647,"velocity":0.7637795275590551,"duration":0.18720527604165227},{"name":"F2","midi":41,"time":268.868049999998,"velocity":0.7637795275590551,"duration":0.18720527604165227},{"name":"A#4","midi":70,"time":268.868049999998,"velocity":0.7637795275590551,"duration":0.14003544270832435},{"name":"A4","midi":69,"time":269.009559499998,"velocity":0.7637795275590551,"duration":0.06928069270833248},{"name":"A2","midi":45,"time":269.0567293333313,"velocity":0.7637795275590551,"duration":0.18720527604165227},{"name":"A#4","midi":70,"time":269.08031424999797,"velocity":0.7637795275590551,"duration":0.06928069270833248},{"name":"A4","midi":69,"time":269.15106899999796,"velocity":0.7637795275590551,"duration":0.06928069270833248},{"name":"A#4","midi":70,"time":269.22182374999795,"velocity":0.7637795275590551,"duration":0.06928069270833248},{"name":"C3","midi":48,"time":269.2454086666646,"velocity":0.7637795275590551,"duration":0.18720527604165227},{"name":"A4","midi":69,"time":269.29257849999794,"velocity":0.7637795275590551,"duration":0.06928069270833248},{"name":"A#4","midi":70,"time":269.36333324999794,"velocity":0.7637795275590551,"duration":0.06928069270833248},{"name":"F3","midi":53,"time":269.4340879999979,"velocity":0.7637795275590551,"duration":0.18720527604165227},{"name":"A4","midi":69,"time":269.4340879999979,"velocity":0.7637795275590551,"duration":0.42305444270829184},{"name":"A3","midi":57,"time":269.62276733333124,"velocity":0.7637795275590551,"duration":0.18720527604165227},{"name":"C4","midi":60,"time":269.81144666666455,"velocity":0.7637795275590551,"duration":0.18720527604165227},{"name":"A4","midi":69,"time":269.8586164999979,"velocity":0.7637795275590551,"duration":0.14003544270832435},{"name":"D#3","midi":51,"time":270.00012599999786,"velocity":0.7637795275590551,"duration":0.18720527604165227},{"name":"A#4","midi":70,"time":270.00012599999786,"velocity":0.7637795275590551,"duration":0.09286560937499644},{"name":"A4","midi":69,"time":270.0944656666645,"velocity":0.7637795275590551,"duration":0.09286560937499644},{"name":"D3","midi":50,"time":270.1888053333312,"velocity":0.7637795275590551,"duration":0.18720527604165227},{"name":"A#4","midi":70,"time":270.1888053333312,"velocity":0.7637795275590551,"duration":0.09286560937499644},{"name":"A4","midi":69,"time":270.28314499999783,"velocity":0.7637795275590551,"duration":0.09286560937499644},{"name":"C3","midi":48,"time":270.3774846666645,"velocity":0.7637795275590551,"duration":0.18720527604165227},{"name":"G4","midi":67,"time":270.3774846666645,"velocity":0.7637795275590551,"duration":0.09286560937499644},{"name":"A4","midi":69,"time":270.47182433333114,"velocity":0.7637795275590551,"duration":0.09286560937499644},{"name":"F2","midi":41,"time":270.5661639999978,"velocity":0.7637795275590551,"duration":0.18720527604165227},{"name":"A#4","midi":70,"time":270.5661639999978,"velocity":0.7637795275590551,"duration":0.18720527604165227},{"name":"A#2","midi":46,"time":270.7548433333311,"velocity":0.7637795275590551,"duration":0.18720527604165227},{"name":"F4","midi":65,"time":270.7548433333311,"velocity":0.7637795275590551,"duration":0.18720527604165227},{"name":"D3","midi":50,"time":270.9435226666644,"velocity":0.7637795275590551,"duration":0.18720527604165227},{"name":"D4","midi":62,"time":270.9435226666644,"velocity":0.7637795275590551,"duration":0.18720527604165227},{"name":"F3","midi":53,"time":271.13220199999773,"velocity":0.7637795275590551,"duration":0.18720527604165227},{"name":"A#3","midi":58,"time":271.13220199999773,"velocity":0.7637795275590551,"duration":0.18720527604165227},{"name":"A#3","midi":58,"time":271.32088133333104,"velocity":0.7637795275590551,"duration":0.18720527604165227},{"name":"A#4","midi":70,"time":271.50956066666436,"velocity":0.7637795275590551,"duration":0.14003544270832435},{"name":"D4","midi":62,"time":271.50956066666436,"velocity":0.7637795275590551,"duration":0.18720527604165227},{"name":"F3","midi":53,"time":271.69823999999767,"velocity":0.7637795275590551,"duration":0.18720527604165227},{"name":"C5","midi":72,"time":271.69823999999767,"velocity":0.7637795275590551,"duration":0.09286560937499644},{"name":"A#4","midi":70,"time":271.7925796666643,"velocity":0.7637795275590551,"duration":0.09286560937499644},{"name":"D#3","midi":51,"time":271.886919333331,"velocity":0.7637795275590551,"duration":0.18720527604165227},{"name":"C5","midi":72,"time":271.886919333331,"velocity":0.7637795275590551,"duration":0.09286560937499644},{"name":"A#4","midi":70,"time":271.98125899999764,"velocity":0.7637795275590551,"duration":0.09286560937499644},{"name":"D3","midi":50,"time":272.0755986666643,"velocity":0.7637795275590551,"duration":0.18720527604165227},{"name":"A4","midi":69,"time":272.0755986666643,"velocity":0.7637795275590551,"duration":0.09286560937499644},{"name":"A#4","midi":70,"time":272.16993833333095,"velocity":0.7637795275590551,"duration":0.09286560937499644},{"name":"F2","midi":41,"time":272.2642779999976,"velocity":0.7637795275590551,"duration":0.18720527604165227},{"name":"C5","midi":72,"time":272.2642779999976,"velocity":0.7637795275590551,"duration":0.18720527604165227},{"name":"C3","midi":48,"time":272.4529573333309,"velocity":0.7637795275590551,"duration":0.18720527604165227},{"name":"A4","midi":69,"time":272.4529573333309,"velocity":0.7637795275590551,"duration":0.18720527604165227},{"name":"F3","midi":53,"time":272.6416366666642,"velocity":0.7637795275590551,"duration":0.18720527604165227},{"name":"D#4","midi":63,"time":272.6416366666642,"velocity":0.7637795275590551,"duration":0.18720527604165227},{"name":"A3","midi":57,"time":272.83031599999754,"velocity":0.7637795275590551,"duration":0.18720527604165227},{"name":"C4","midi":60,"time":272.83031599999754,"velocity":0.7637795275590551,"duration":0.18720527604165227},{"name":"C4","midi":60,"time":273.01899533333085,"velocity":0.7637795275590551,"duration":0.18720527604165227},{"name":"C5","midi":72,"time":273.20767466666416,"velocity":0.7637795275590551,"duration":0.14003544270832435},{"name":"D#4","midi":63,"time":273.20767466666416,"velocity":0.7637795275590551,"duration":0.18720527604165227},{"name":"A3","midi":57,"time":273.3963539999975,"velocity":0.7637795275590551,"duration":0.18720527604165227},{"name":"D5","midi":74,"time":273.3963539999975,"velocity":0.7637795275590551,"duration":0.09286560937499644},{"name":"C5","midi":72,"time":273.49069366666413,"velocity":0.7637795275590551,"duration":0.09286560937499644},{"name":"G3","midi":55,"time":273.5850333333308,"velocity":0.7637795275590551,"duration":0.18720527604165227},{"name":"D5","midi":74,"time":273.5850333333308,"velocity":0.7637795275590551,"duration":0.09286560937499644},{"name":"C5","midi":72,"time":273.67937299999744,"velocity":0.7637795275590551,"duration":0.09286560937499644},{"name":"F3","midi":53,"time":273.7737126666641,"velocity":0.7637795275590551,"duration":0.18720527604165227},{"name":"A#4","midi":70,"time":273.7737126666641,"velocity":0.7637795275590551,"duration":0.09286560937499644},{"name":"C5","midi":72,"time":273.86805233333075,"velocity":0.7637795275590551,"duration":0.09286560937499644},{"name":"E3","midi":52,"time":273.9623919999974,"velocity":0.7637795275590551,"duration":1.6966399427081456},{"name":"F2","midi":41,"time":273.9623919999974,"velocity":0.7637795275590551,"duration":1.6966399427081456},{"name":"C#5","midi":73,"time":273.9623919999974,"velocity":0.7637795275590551,"duration":0.18720527604165227},{"name":"A4","midi":69,"time":274.1510713333307,"velocity":0.7637795275590551,"duration":0.18720527604165227},{"name":"A#4","midi":70,"time":274.33975066666403,"velocity":0.7637795275590551,"duration":0.18720527604165227},{"name":"G4","midi":67,"time":274.52842999999734,"velocity":0.7637795275590551,"duration":0.18720527604165227},{"name":"A#4","midi":70,"time":274.71710933333065,"velocity":0.7637795275590551,"duration":0.18720527604165227},{"name":"C#5","midi":73,"time":274.90578866666397,"velocity":0.7637795275590551,"duration":0.18720527604165227},{"name":"E5","midi":76,"time":275.0944679999973,"velocity":0.7637795275590551,"duration":0.18720527604165227},{"name":"G5","midi":79,"time":275.2831473333306,"velocity":0.7637795275590551,"duration":0.18720527604165227},{"name":"A#4","midi":70,"time":275.4718266666639,"velocity":0.7637795275590551,"duration":0.18720527604165227},{"name":"F3","midi":53,"time":275.6605059999972,"velocity":0.7637795275590551,"duration":0.7532432760415873},{"name":"F2","midi":41,"time":275.6605059999972,"velocity":0.7637795275590551,"duration":0.7532432760415873},{"name":"A#4","midi":70,"time":275.6605059999972,"velocity":0.7637795275590551,"duration":0.09286560937499644},{"name":"A4","midi":69,"time":275.75484566666387,"velocity":0.7637795275590551,"duration":0.09286560937499644},{"name":"A#4","midi":70,"time":275.8491853333305,"velocity":0.7637795275590551,"duration":0.09286560937499644},{"name":"A4","midi":69,"time":275.9435249999972,"velocity":0.7637795275590551,"duration":0.09286560937499644},{"name":"G4","midi":67,"time":276.03786466666384,"velocity":0.7637795275590551,"duration":0.09286560937499644},{"name":"F4","midi":65,"time":276.1322043333305,"velocity":0.7637795275590551,"duration":0.09286560937499644},{"name":"D#5","midi":75,"time":276.22654399999715,"velocity":0.7637795275590551,"duration":0.7532432760415873},{"name":"A2","midi":45,"time":276.41522333333046,"velocity":0.7637795275590551,"duration":0.18720527604165227},{"name":"C3","midi":48,"time":276.60390266666377,"velocity":0.7637795275590551,"duration":0.18720527604165227},{"name":"F3","midi":53,"time":276.7925819999971,"velocity":0.7637795275590551,"duration":0.18720527604165227},{"name":"G3","midi":55,"time":276.9812613333304,"velocity":0.7637795275590551,"duration":0.18720527604165227},{"name":"D5","midi":74,"time":276.9812613333304,"velocity":0.7637795275590551,"duration":0.18720527604165227},{"name":"A3","midi":57,"time":277.1699406666637,"velocity":0.7637795275590551,"duration":0.18720527604165227},{"name":"C5","midi":72,"time":277.1699406666637,"velocity":0.7637795275590551,"duration":0.18720527604165227},{"name":"A#3","midi":58,"time":277.358619999997,"velocity":0.7637795275590551,"duration":0.37588460937496393},{"name":"C#5","midi":73,"time":277.358619999997,"velocity":0.7637795275590551,"duration":0.18720527604165227},{"name":"G5","midi":79,"time":277.54729933333033,"velocity":0.7637795275590551,"duration":0.18720527604165227},{"name":"C5","midi":72,"time":277.73597866666364,"velocity":0.7637795275590551,"duration":0.18720527604165227},{"name":"A3","midi":57,"time":277.73597866666364,"velocity":0.7637795275590551,"duration":0.18720527604165227},{"name":"A#3","midi":58,"time":277.92465799999695,"velocity":0.7637795275590551,"duration":0.37588460937496393},{"name":"C#5","midi":73,"time":277.92465799999695,"velocity":0.7637795275590551,"duration":0.18720527604165227},{"name":"A4","midi":69,"time":278.11333733333026,"velocity":0.7637795275590551,"duration":0.18720527604165227},{"name":"E3","midi":52,"time":278.3020166666636,"velocity":0.7637795275590551,"duration":0.18720527604165227},{"name":"A#4","midi":70,"time":278.3020166666636,"velocity":0.7637795275590551,"duration":0.18720527604165227},{"name":"F3","midi":53,"time":278.4906959999969,"velocity":0.7637795275590551,"duration":0.5601417708332974},{"name":"D#4","midi":63,"time":278.4906959999969,"velocity":0.7637795275590551,"duration":0.09286560937499644},{"name":"F4","midi":65,"time":278.58503566666354,"velocity":0.7637795275590551,"duration":0.09286560937499644},{"name":"D#4","midi":63,"time":278.6793753333302,"velocity":0.7637795275590551,"duration":0.09286560937499644},{"name":"D4","midi":62,"time":278.77371499999686,"velocity":0.7637795275590551,"duration":0.09286560937499644},{"name":"F2","midi":41,"time":278.8680546666635,"velocity":0.7637795275590551,"duration":0.14003544270832435},{"name":"D#4","midi":63,"time":278.8680546666635,"velocity":0.7637795275590551,"duration":0.18720527604165227},{"name":"A#2","midi":46,"time":279.0567339999968,"velocity":0.7637795275590551,"duration":0.18720527604165227},{"name":"D4","midi":62,"time":279.0567339999968,"velocity":0.7637795275590551,"duration":0.18720527604165227},{"name":"D3","midi":50,"time":279.24541333333013,"velocity":0.7637795275590551,"duration":0.18720527604165227},{"name":"F4","midi":65,"time":279.24541333333013,"velocity":0.7637795275590551,"duration":0.18720527604165227},{"name":"D#3","midi":51,"time":279.43409266666345,"velocity":0.7637795275590551,"duration":0.18720527604165227},{"name":"C4","midi":60,"time":279.43409266666345,"velocity":0.7637795275590551,"duration":0.18720527604165227},{"name":"F3","midi":53,"time":279.62277199999676,"velocity":0.7637795275590551,"duration":0.18720527604165227},{"name":"D4","midi":62,"time":279.62277199999676,"velocity":0.7637795275590551,"duration":0.18720527604165227},{"name":"D3","midi":50,"time":279.81145133333007,"velocity":0.7637795275590551,"duration":0.18720527604165227},{"name":"A#3","midi":58,"time":279.81145133333007,"velocity":0.7637795275590551,"duration":0.18720527604165227},{"name":"C3","midi":48,"time":280.0001306666634,"velocity":0.7637795275590551,"duration":0.18720527604165227},{"name":"D4","midi":62,"time":280.0001306666634,"velocity":0.7637795275590551,"duration":0.18720527604165227},{"name":"A#2","midi":46,"time":280.1888099999967,"velocity":0.7637795275590551,"duration":0.18720527604165227},{"name":"F4","midi":65,"time":280.1888099999967,"velocity":0.7637795275590551,"duration":0.18720527604165227},{"name":"D3","midi":50,"time":280.37748933333,"velocity":0.7637795275590551,"duration":0.18720527604165227},{"name":"A#4","midi":70,"time":280.37748933333,"velocity":0.7637795275590551,"duration":0.18720527604165227},{"name":"G3","midi":55,"time":280.5661686666633,"velocity":0.7637795275590551,"duration":0.18720527604165227},{"name":"D#4","midi":63,"time":280.5661686666633,"velocity":0.7637795275590551,"duration":0.18720527604165227},{"name":"G2","midi":43,"time":280.7548479999966,"velocity":0.7637795275590551,"duration":1.1306019427082106},{"name":"F4","midi":65,"time":280.7548479999966,"velocity":0.7637795275590551,"duration":0.18720527604165227},{"name":"A#4","midi":70,"time":280.94352733332994,"velocity":0.7637795275590551,"duration":0.18720527604165227},{"name":"D#4","midi":63,"time":281.13220666666325,"velocity":0.7637795275590551,"duration":0.18720527604165227},{"name":"F4","midi":65,"time":281.32088599999656,"velocity":0.7637795275590551,"duration":0.18720527604165227},{"name":"D4","midi":62,"time":281.5095653333299,"velocity":0.7637795275590551,"duration":0.18720527604165227},{"name":"F4","midi":65,"time":281.6982446666632,"velocity":0.7637795275590551,"duration":0.18720527604165227},{"name":"A#4","midi":70,"time":281.8869239999965,"velocity":0.7637795275590551,"duration":0.18720527604165227},{"name":"D5","midi":74,"time":282.0756033333298,"velocity":0.7637795275590551,"duration":0.18720527604165227},{"name":"A4","midi":69,"time":282.2642826666631,"velocity":0.7637795275590551,"duration":0.18720527604165227},{"name":"D2","midi":38,"time":282.45296199999643,"velocity":0.7637795275590551,"duration":0.18720527604165227},{"name":"A#4","midi":70,"time":282.45296199999643,"velocity":0.7637795275590551,"duration":0.18720527604165227},{"name":"A#2","midi":46,"time":282.64164133332974,"velocity":0.7637795275590551,"duration":0.18720527604165227},{"name":"D5","midi":74,"time":282.64164133332974,"velocity":0.7637795275590551,"duration":0.18720527604165227},{"name":"C3","midi":48,"time":282.83032066666306,"velocity":0.7637795275590551,"duration":0.18720527604165227},{"name":"A4","midi":69,"time":282.83032066666306,"velocity":0.7637795275590551,"duration":0.18720527604165227},{"name":"D3","midi":50,"time":283.01899999999637,"velocity":0.7637795275590551,"duration":0.18720527604165227},{"name":"A#4","midi":70,"time":283.01899999999637,"velocity":0.7637795275590551,"duration":0.18720527604165227},{"name":"C3","midi":48,"time":283.2076793333297,"velocity":0.7637795275590551,"duration":0.18720527604165227},{"name":"F4","midi":65,"time":283.2076793333297,"velocity":0.7637795275590551,"duration":0.18720527604165227},{"name":"A#2","midi":46,"time":283.396358666663,"velocity":0.7637795275590551,"duration":0.18720527604165227},{"name":"A#4","midi":70,"time":283.396358666663,"velocity":0.7637795275590551,"duration":0.18720527604165227},{"name":"F3","midi":53,"time":283.5850379999963,"velocity":0.7637795275590551,"duration":0.18720527604165227},{"name":"D5","midi":74,"time":283.5850379999963,"velocity":0.7637795275590551,"duration":0.18720527604165227},{"name":"D3","midi":50,"time":283.7737173333296,"velocity":0.7637795275590551,"duration":0.18720527604165227},{"name":"F5","midi":77,"time":283.7737173333296,"velocity":0.7637795275590551,"duration":0.18720527604165227},{"name":"A#2","midi":46,"time":283.9623966666629,"velocity":0.7637795275590551,"duration":0.18720527604165227},{"name":"G#4","midi":68,"time":283.9623966666629,"velocity":0.7637795275590551,"duration":0.18720527604165227},{"name":"D#2","midi":39,"time":284.15107599999624,"velocity":0.7637795275590551,"duration":0.5601417708332974},{"name":"G4","midi":67,"time":284.15107599999624,"velocity":0.7637795275590551,"duration":0.18720527604165227},{"name":"D#5","midi":75,"time":284.33975533332955,"velocity":0.7637795275590551,"duration":0.18720527604165227},{"name":"D#3","midi":51,"time":284.52843466666286,"velocity":0.7637795275590551,"duration":0.14003544270832435},{"name":"C5","midi":72,"time":284.52843466666286,"velocity":0.7637795275590551,"duration":0.18720527604165227},{"name":"F3","midi":53,"time":284.7171139999962,"velocity":0.7637795275590551,"duration":1.1306019427082106},{"name":"A#4","midi":70,"time":284.7171139999962,"velocity":0.7637795275590551,"duration":0.14003544270832435},{"name":"A4","midi":69,"time":284.85862349999616,"velocity":0.7637795275590551,"duration":0.06928069270833248},{"name":"A#4","midi":70,"time":284.92937824999615,"velocity":0.7637795275590551,"duration":0.06928069270833248},{"name":"A4","midi":69,"time":285.00013299999614,"velocity":0.7637795275590551,"duration":0.06928069270833248},{"name":"A#4","midi":70,"time":285.07088774999613,"velocity":0.7637795275590551,"duration":0.06928069270833248},{"name":"A4","midi":69,"time":285.1416424999961,"velocity":0.7637795275590551,"duration":0.06928069270833248},{"name":"A#4","midi":70,"time":285.2123972499961,"velocity":0.7637795275590551,"duration":0.06928069270833248},{"name":"F2","midi":41,"time":285.2831519999961,"velocity":0.7637795275590551,"duration":0.5645639427082756},{"name":"A4","midi":69,"time":285.2831519999961,"velocity":0.7637795275590551,"duration":0.2815449427083081},{"name":"A#4","midi":70,"time":285.5661709999961,"velocity":0.7637795275590551,"duration":0.29481145833329947},{"name":"F4","midi":65,"time":285.86687868749607,"velocity":0.7637795275590551,"duration":2.2582557708333297},{"name":"A#2","midi":46,"time":285.86687868749607,"velocity":0.7637795275590551,"duration":2.2582557708333297},{"name":"A#4","midi":70,"time":285.86687868749607,"velocity":0.7637795275590551,"duration":2.2582557708333297},{"name":"D4","midi":62,"time":285.86687868749607,"velocity":0.7637795275590551,"duration":2.2582557708333297},{"name":"D5","midi":74,"time":292.64164599999606,"velocity":0.7637795275590551,"duration":0.908019291666676},{"name":"A#3","midi":58,"time":292.64164599999606,"velocity":0.7637795275590551,"duration":1.130601942708381},{"name":"F4","midi":65,"time":292.64164599999606,"velocity":0.7637795275590551,"duration":1.130601942708381},{"name":"A#4","midi":70,"time":292.64164599999606,"velocity":0.7637795275590551,"duration":1.130601942708381},{"name":"D5","midi":74,"time":293.55556152082943,"velocity":0.7637795275590551,"duration":0.21079019270831623},{"name":"D5","midi":74,"time":293.7737219999961,"velocity":0.7637795275590551,"duration":0.7591395052083385},{"name":"A#2","midi":46,"time":293.7737219999961,"velocity":0.7637795275590551,"duration":2.152123645833285},{"name":"A#3","midi":58,"time":293.7737219999961,"velocity":0.7637795275590551,"duration":2.262677942708308},{"name":"F4","midi":65,"time":293.7737219999961,"velocity":0.7637795275590551,"duration":2.262677942708308},{"name":"C5","midi":72,"time":294.5343355624961,"velocity":0.7637795275590551,"duration":0.12234675520835481},{"name":"A#4","midi":70,"time":294.6581563749961,"velocity":0.7637795275590551,"duration":0.12234675520835481},{"name":"A4","midi":69,"time":294.7819771874961,"velocity":0.7637795275590551,"duration":0.12234675520835481},{"name":"A#4","midi":70,"time":294.90579799999614,"velocity":0.7637795275590551,"duration":0.2815449427083081},{"name":"D5","midi":74,"time":295.1888169999961,"velocity":0.7637795275590551,"duration":0.2815449427083081},{"name":"F5","midi":77,"time":295.4718359999961,"velocity":0.7637795275590551,"duration":0.2815449427083081},{"name":"G4","midi":67,"time":295.75485499999604,"velocity":0.7637795275590551,"duration":0.28154494270836494},{"name":"G#4","midi":68,"time":296.03787399999607,"velocity":0.7637795275590551,"duration":0.06928069270833248},{"name":"A#3","midi":58,"time":296.03787399999607,"velocity":0.7637795275590551,"duration":1.1306019427083243},{"name":"F4","midi":65,"time":296.03787399999607,"velocity":0.7637795275590551,"duration":1.1306019427083243},{"name":"G4","midi":67,"time":296.10862874999606,"velocity":0.7637795275590551,"duration":0.06928069270833248},{"name":"G#4","midi":68,"time":296.17938349999605,"velocity":0.7637795275590551,"duration":0.7827244218750025},{"name":"G#4","midi":68,"time":296.9635819791627,"velocity":0.7637795275590551,"duration":0.20489396354167866},{"name":"G#4","midi":68,"time":297.16994999999605,"velocity":0.7637795275590551,"duration":0.7591395052083385},{"name":"A#2","midi":46,"time":297.16994999999605,"velocity":0.7637795275590551,"duration":2.211085937500002},{"name":"A#3","midi":58,"time":297.16994999999605,"velocity":0.7637795275590551,"duration":2.262677942708308},{"name":"D4","midi":62,"time":297.16994999999605,"velocity":0.7637795275590551,"duration":2.262677942708308},{"name":"F4","midi":65,"time":297.16994999999605,"velocity":0.7637795275590551,"duration":2.262677942708308},{"name":"A#4","midi":70,"time":297.93056356249605,"velocity":0.7637795275590551,"duration":0.12234675520835481},{"name":"G#4","midi":68,"time":298.05438437499606,"velocity":0.7637795275590551,"duration":0.12234675520835481},{"name":"G4","midi":67,"time":298.1782051874961,"velocity":0.7637795275590551,"duration":0.12234675520835481},{"name":"G#4","midi":68,"time":298.3020259999961,"velocity":0.7637795275590551,"duration":0.2815449427083081},{"name":"D5","midi":74,"time":298.58504499999606,"velocity":0.7637795275590551,"duration":0.2815449427083081},{"name":"F5","midi":77,"time":298.868063999996,"velocity":0.7637795275590551,"duration":0.7075474999999756},{"name":"G#4","midi":68,"time":299.15108299999605,"velocity":0.7637795275590551,"duration":0.2815449427083081},{"name":"G4","midi":67,"time":299.434101999996,"velocity":0.7637795275590551,"duration":0.2815449427083081},{"name":"A#3","midi":58,"time":299.434101999996,"velocity":0.7637795275590551,"duration":1.1306019427082106},{"name":"D#4","midi":63,"time":299.434101999996,"velocity":0.7637795275590551,"duration":1.1306019427082106},{"name":"D#5","midi":75,"time":299.717120999996,"velocity":0.7637795275590551,"duration":0.14003544270832435},{"name":"D5","midi":74,"time":299.85863049999597,"velocity":0.7637795275590551,"duration":0.14003544270832435},{"name":"C5","midi":72,"time":300.00013999999595,"velocity":0.7637795275590551,"duration":0.14003544270832435},{"name":"D5","midi":74,"time":300.14164949999594,"velocity":0.7637795275590551,"duration":0.14003544270832435},{"name":"D#5","midi":75,"time":300.2831589999959,"velocity":0.7637795275590551,"duration":0.3390331770833086},{"name":"F4","midi":65,"time":300.5661779999959,"velocity":0.7637795275590551,"duration":0.28154494270836494},{"name":"A#3","midi":58,"time":300.5661779999959,"velocity":0.7637795275590551,"duration":1.1306019427082674},{"name":"D4","midi":62,"time":300.5661779999959,"velocity":0.7637795275590551,"duration":1.1306019427082674},{"name":"D5","midi":74,"time":300.8491969999959,"velocity":0.7637795275590551,"duration":0.2815449427083081},{"name":"A4","midi":69,"time":301.1322159999959,"velocity":0.7637795275590551,"duration":0.2815449427083081},{"name":"A#4","midi":70,"time":301.41523499999585,"velocity":0.7637795275590551,"duration":0.3316628906249548},{"name":"D#4","midi":63,"time":301.6982539999958,"velocity":0.7637795275590551,"duration":0.26680436979165734},{"name":"A#3","midi":58,"time":301.6982539999958,"velocity":0.7637795275590551,"duration":0.5645639427083324},{"name":"C4","midi":60,"time":301.6982539999958,"velocity":0.7637795275590551,"duration":1.1306019427082674},{"name":"A4","midi":69,"time":301.96653242707913,"velocity":0.7637795275590551,"duration":0.14740572916667816},{"name":"A#4","midi":70,"time":302.11541221353747,"velocity":0.7637795275590551,"duration":0.14740572916667816},{"name":"C5","midi":72,"time":302.2642919999958,"velocity":0.7637795275590551,"duration":0.2815449427083081},{"name":"A3","midi":57,"time":302.2642919999958,"velocity":0.7637795275590551,"duration":0.5645639427082756},{"name":"D#4","midi":63,"time":302.5473109999958,"velocity":0.7637795275590551,"duration":0.2815449427083081},{"name":"F4","midi":65,"time":302.83032999999574,"velocity":0.7637795275590551,"duration":0.13413921354168679},{"name":"A#3","midi":58,"time":302.83032999999574,"velocity":0.7637795275590551,"duration":1.1306019427083243},{"name":"D#4","midi":63,"time":302.9659432708291,"velocity":0.7637795275590551,"duration":0.13413921354168679},{"name":"F4","midi":65,"time":303.10155654166243,"velocity":0.7637795275590551,"duration":0.07517692187502689},{"name":"D#4","midi":63,"time":303.1782075208291,"velocity":0.7637795275590551,"duration":0.07517692187502689},{"name":"F4","midi":65,"time":303.2548584999958,"velocity":0.7637795275590551,"duration":0.06928069270833248},{"name":"D#4","midi":63,"time":303.3256132499958,"velocity":0.7637795275590551,"duration":0.06928069270833248},{"name":"F4","midi":65,"time":303.3963679999958,"velocity":0.7637795275590551,"duration":0.06928069270833248},{"name":"F3","midi":53,"time":303.3963679999958,"velocity":0.7637795275590551,"duration":0.5645639427082756},{"name":"D#4","midi":63,"time":303.4671227499958,"velocity":0.7637795275590551,"duration":0.21079019270831623},{"name":"D4","midi":62,"time":303.67938699999576,"velocity":0.7637795275590551,"duration":0.2815449427083081},{"name":"D4","midi":62,"time":303.9624059999957,"velocity":0.7637795275590551,"duration":0.6191040625000142},{"name":"A#2","midi":46,"time":303.9624059999957,"velocity":0.7637795275590551,"duration":1.4150949999999511},{"name":"F3","midi":53,"time":303.9624059999957,"velocity":0.7637795275590551,"duration":1.4150949999999511},{"name":"A#3","midi":58,"time":303.9624059999957,"velocity":0.7637795275590551,"duration":2.2626779427081942},{"name":"F4","midi":65,"time":304.6787978437457,"velocity":0.7637795275590551,"duration":0.13708732812500557},{"name":"D#4","midi":63,"time":304.8173592291624,"velocity":0.7637795275590551,"duration":0.13708732812500557},{"name":"D4","midi":62,"time":304.95592061457904,"velocity":0.7637795275590551,"duration":0.13708732812500557},{"name":"D#4","midi":63,"time":305.0944819999957,"velocity":0.7637795275590551,"duration":0.14003544270832435},{"name":"F4","midi":65,"time":305.2359914999957,"velocity":0.7637795275590551,"duration":0.14003544270832435},{"name":"G4","midi":67,"time":305.3775009999957,"velocity":0.7637795275590551,"duration":0.14003544270832435},{"name":"A4","midi":69,"time":305.51901049999566,"velocity":0.7637795275590551,"duration":0.14003544270832435},{"name":"A#4","midi":70,"time":305.66051999999564,"velocity":0.7637795275590551,"duration":0.2815449427083081},{"name":"G4","midi":67,"time":305.9435389999956,"velocity":0.7637795275590551,"duration":0.2815449427083081},{"name":"F4","midi":65,"time":306.2265579999956,"velocity":0.7637795275590551,"duration":0.2815449427083081},{"name":"A#3","midi":58,"time":306.2265579999956,"velocity":0.7637795275590551,"duration":1.1306019427082106},{"name":"C4","midi":60,"time":306.2265579999956,"velocity":0.7637795275590551,"duration":1.1306019427082106},{"name":"E4","midi":64,"time":306.50957699999555,"velocity":0.7637795275590551,"duration":0.2815449427083081},{"name":"G4","midi":67,"time":306.7925959999955,"velocity":0.7637795275590551,"duration":0.2815449427083081},{"name":"C5","midi":72,"time":307.0756149999955,"velocity":0.7637795275590551,"duration":0.2815449427083081},{"name":"C5","midi":72,"time":307.35863399999545,"velocity":0.7637795275590551,"duration":0.7060734427083162},{"name":"E4","midi":64,"time":307.35863399999545,"velocity":0.7637795275590551,"duration":2.262677942708308},{"name":"G4","midi":67,"time":307.35863399999545,"velocity":0.7637795275590551,"duration":1.684847484374984},{"name":"A#2","midi":46,"time":307.35863399999545,"velocity":0.7637795275590551,"duration":1.2676892708333867},{"name":"G3","midi":55,"time":307.35863399999545,"velocity":0.7637795275590551,"duration":1.5477601562500354},{"name":"D5","midi":74,"time":308.07060367187046,"velocity":0.7637795275590551,"duration":0.14445761458335937},{"name":"D#5","midi":75,"time":308.2165353437455,"velocity":0.7637795275590551,"duration":0.14445761458335937},{"name":"D5","midi":74,"time":308.3624670156205,"velocity":0.7637795275590551,"duration":0.14445761458335937},{"name":"C5","midi":72,"time":308.5083986874955,"velocity":0.7637795275590551,"duration":0.25501191145832536},{"name":"A#4","midi":70,"time":308.7648846562455,"velocity":0.7637795275590551,"duration":0.2727005989582949},{"name":"A4","midi":69,"time":309.03905931249545,"velocity":0.7637795275590551,"duration":0.14887978645833755},{"name":"A#4","midi":70,"time":309.18941315624545,"velocity":0.7637795275590551,"duration":0.14887978645833755},{"name":"G4","midi":67,"time":309.33976699999545,"velocity":0.7637795275590551,"duration":0.2815449427083081},{"name":"G4","midi":67,"time":309.6227859999954,"velocity":0.7637795275590551,"duration":0.2815449427083081},{"name":"A3","midi":57,"time":309.6227859999954,"velocity":0.7637795275590551,"duration":1.1306019427082106},{"name":"C4","midi":60,"time":309.6227859999954,"velocity":0.7637795275590551,"duration":1.1306019427082106},{"name":"F#4","midi":66,"time":309.9058049999954,"velocity":0.7637795275590551,"duration":0.2815449427083081},{"name":"A4","midi":69,"time":310.18882399999535,"velocity":0.7637795275590551,"duration":0.2815449427083081},{"name":"C5","midi":72,"time":310.4718429999953,"velocity":0.7637795275590551,"duration":0.14003544270832435},{"name":"D#5","midi":75,"time":310.6133524999953,"velocity":0.7637795275590551,"duration":0.14003544270832435},{"name":"D#5","midi":75,"time":310.7548619999953,"velocity":0.7637795275590551,"duration":0.8475829427083568},{"name":"F#4","midi":66,"time":310.7548619999953,"velocity":0.7637795275590551,"duration":2.262677942708308},{"name":"C5","midi":72,"time":310.7548619999953,"velocity":0.7637795275590551,"duration":0.9876183854166811},{"name":"A2","midi":45,"time":310.7548619999953,"velocity":0.7637795275590551,"duration":1.1306019427083243},{"name":"A3","midi":57,"time":310.7548619999953,"velocity":0.7637795275590551,"duration":1.415095000000008},{"name":"D5","midi":74,"time":311.6039189999953,"velocity":0.7637795275590551,"duration":0.14003544270832435},{"name":"C5","midi":72,"time":311.7454284999953,"velocity":0.7637795275590551,"duration":0.14003544270832435},{"name":"D5","midi":74,"time":311.88693799999527,"velocity":0.7637795275590551,"duration":0.14887978645833755},{"name":"C5","midi":72,"time":312.03729184374527,"velocity":0.7637795275590551,"duration":0.14887978645833755},{"name":"A#4","midi":70,"time":312.18764568749526,"velocity":0.7637795275590551,"duration":0.26385625520833855},{"name":"C5","midi":72,"time":312.45297599999526,"velocity":0.7637795275590551,"duration":0.14887978645833755},{"name":"A#4","midi":70,"time":312.60332984374526,"velocity":0.7637795275590551,"duration":0.14887978645833755},{"name":"A4","midi":69,"time":312.75368368749525,"velocity":0.7637795275590551,"duration":0.26385625520833855},{"name":"A#4","midi":70,"time":313.01901399999525,"velocity":0.7637795275590551,"duration":0.36998838020832636},{"name":"G3","midi":55,"time":313.01901399999525,"velocity":0.7637795275590551,"duration":2.2553076562497836},{"name":"D4","midi":62,"time":313.01901399999525,"velocity":0.7637795275590551,"duration":1.1306019427082106},{"name":"A4","midi":69,"time":313.39047643749524,"velocity":0.7637795275590551,"duration":0.07222880729165126},{"name":"G4","midi":67,"time":313.46417930207855,"velocity":0.7637795275590551,"duration":0.07222880729165126},{"name":"F#4","midi":66,"time":313.53788216666186,"velocity":0.7637795275590551,"duration":0.07222880729165126},{"name":"G4","midi":67,"time":313.61158503124517,"velocity":0.7637795275590551,"duration":0.26827842708331673},{"name":"A4","midi":69,"time":313.88133751562015,"velocity":0.7637795275590551,"duration":0.26827842708331673},{"name":"A#4","midi":70,"time":314.1510899999951,"velocity":0.7637795275590551,"duration":0.2815449427083081},{"name":"G2","midi":43,"time":314.1510899999951,"velocity":0.7637795275590551,"duration":2.2553076562498973},{"name":"G4","midi":67,"time":314.4341089999951,"velocity":0.7637795275590551,"duration":0.14003544270832435},{"name":"A4","midi":69,"time":314.5756184999951,"velocity":0.7637795275590551,"duration":0.14003544270832435},{"name":"A#4","midi":70,"time":314.71712799999506,"velocity":0.7637795275590551,"duration":0.14003544270832435},{"name":"C5","midi":72,"time":314.85863749999504,"velocity":0.7637795275590551,"duration":0.14003544270832435},{"name":"D5","midi":74,"time":315.000146999995,"velocity":0.7637795275590551,"duration":0.5011794791666944},{"name":"F3","midi":53,"time":315.28316599999505,"velocity":0.7637795275590551,"duration":1.1306019427083243},{"name":"E5","midi":76,"time":315.5661849999951,"velocity":0.7637795275590551,"duration":0.14003544270832435},{"name":"F5","midi":77,"time":315.70769449999506,"velocity":0.7637795275590551,"duration":0.14003544270832435},{"name":"G5","midi":79,"time":315.84920399999504,"velocity":0.7637795275590551,"duration":0.14003544270832435},{"name":"F5","midi":77,"time":315.990713499995,"velocity":0.7637795275590551,"duration":0.14003544270832435},{"name":"E5","midi":76,"time":316.132222999995,"velocity":0.7637795275590551,"duration":0.14003544270832435},{"name":"F5","midi":77,"time":316.273732499995,"velocity":0.7637795275590551,"duration":0.1400354427083812},{"name":"G5","midi":79,"time":316.41524199999503,"velocity":0.7637795275590551,"duration":0.14003544270832435},{"name":"E3","midi":52,"time":316.41524199999503,"velocity":0.7637795275590551,"duration":1.1306019427082106},{"name":"C4","midi":60,"time":316.41524199999503,"velocity":0.7637795275590551,"duration":1.1306019427082106},{"name":"C5","midi":72,"time":316.556751499995,"velocity":0.7637795275590551,"duration":0.14003544270832435},{"name":"A#4","midi":70,"time":316.698260999995,"velocity":0.7637795275590551,"duration":0.14003544270832435},{"name":"A4","midi":69,"time":316.839770499995,"velocity":0.7637795275590551,"duration":0.14003544270832435},{"name":"A#4","midi":70,"time":316.98127999999497,"velocity":0.7637795275590551,"duration":0.2815449427083081},{"name":"G5","midi":79,"time":317.26429899999494,"velocity":0.7637795275590551,"duration":0.2815449427083081},{"name":"G5","midi":79,"time":317.5473179999949,"velocity":0.7637795275590551,"duration":0.7060734427083162},{"name":"G4","midi":67,"time":317.5473179999949,"velocity":0.7637795275590551,"duration":2.262677942708308},{"name":"A#4","midi":70,"time":317.5473179999949,"velocity":0.7637795275590551,"duration":1.1306019427083243},{"name":"C5","midi":72,"time":317.5473179999949,"velocity":0.7637795275590551,"duration":1.1306019427083243},{"name":"E2","midi":40,"time":317.5473179999949,"velocity":0.7637795275590551,"duration":1.415095000000008},{"name":"E3","midi":52,"time":317.5473179999949,"velocity":0.7637795275590551,"duration":1.6951658854166567},{"name":"F5","midi":77,"time":318.26813201561987,"velocity":0.7637795275590551,"duration":0.13561327083334618},{"name":"E5","midi":76,"time":318.4052193437449,"velocity":0.7637795275590551,"duration":0.13561327083334618},{"name":"D5","midi":74,"time":318.5423066718699,"velocity":0.7637795275590551,"duration":0.13561327083334618},{"name":"C5","midi":72,"time":318.6793939999949,"velocity":0.7637795275590551,"duration":0.27270059895835175},{"name":"A#4","midi":70,"time":318.9535686562449,"velocity":0.7637795275590551,"duration":0.27270059895835175},{"name":"C5","midi":72,"time":319.2277433124949,"velocity":0.7637795275590551,"duration":0.07812503645834568},{"name":"A#4","midi":70,"time":319.3073424062449,"velocity":0.7637795275590551,"duration":0.07812503645834568},{"name":"C5","midi":72,"time":319.3869414999949,"velocity":0.7637795275590551,"duration":0.06928069270833248},{"name":"A#4","midi":70,"time":319.4576962499949,"velocity":0.7637795275590551,"duration":0.06928069270833248},{"name":"A4","midi":69,"time":319.5284509999949,"velocity":0.7637795275590551,"duration":0.2815449427083081},{"name":"A4","midi":69,"time":319.81146999999487,"velocity":0.7637795275590551,"duration":0.2815449427083081},{"name":"F3","midi":53,"time":319.81146999999487,"velocity":0.7637795275590551,"duration":2.2553076562498973},{"name":"C4","midi":60,"time":320.09448899999484,"velocity":0.7637795275590551,"duration":0.14003544270832435},{"name":"E4","midi":64,"time":320.2359984999948,"velocity":0.7637795275590551,"duration":0.14003544270832435},{"name":"F4","midi":65,"time":320.3775079999948,"velocity":0.7637795275590551,"duration":0.2815449427083081},{"name":"A4","midi":69,"time":320.6605269999948,"velocity":0.7637795275590551,"duration":0.5011794791666944},{"name":"F2","midi":41,"time":320.9435459999948,"velocity":0.7637795275590551,"duration":1.20872697916667},{"name":"F4","midi":65,"time":321.2265649999948,"velocity":0.7637795275590551,"duration":0.14003544270832435},{"name":"G4","midi":67,"time":321.3680744999948,"velocity":0.7637795275590551,"duration":0.14003544270832435},{"name":"A4","midi":69,"time":321.5095839999948,"velocity":0.7637795275590551,"duration":0.2815449427083081},{"name":"C5","midi":72,"time":321.79260299999476,"velocity":0.7637795275590551,"duration":0.5306606250000527},{"name":"E3","midi":52,"time":322.0756219999948,"velocity":0.7637795275590551,"duration":1.1306019427082674},{"name":"A4","midi":69,"time":322.3586409999948,"velocity":0.7637795275590551,"duration":0.14003544270832435},{"name":"A#4","midi":70,"time":322.5001504999948,"velocity":0.7637795275590551,"duration":0.14003544270832435},{"name":"C5","midi":72,"time":322.6416599999948,"velocity":0.7637795275590551,"duration":0.2815449427083081},{"name":"F5","midi":77,"time":322.92467899999474,"velocity":0.7637795275590551,"duration":0.5159200520832883},{"name":"D3","midi":50,"time":323.2076979999947,"velocity":0.7637795275590551,"duration":2.2553076562497836},{"name":"A5","midi":81,"time":323.4907169999947,"velocity":0.7637795275590551,"duration":0.14003544270832435},{"name":"G5","midi":79,"time":323.63222649999466,"velocity":0.7637795275590551,"duration":0.14003544270832435},{"name":"F5","midi":77,"time":323.77373599999464,"velocity":0.7637795275590551,"duration":0.14003544270832435},{"name":"E5","midi":76,"time":323.9152454999946,"velocity":0.7637795275590551,"duration":0.14003544270832435},{"name":"D5","midi":74,"time":324.0567549999946,"velocity":0.7637795275590551,"duration":0.2815449427083081},{"name":"C5","midi":72,"time":324.3397739999946,"velocity":0.7637795275590551,"duration":0.2815449427083081},{"name":"D2","midi":38,"time":324.3397739999946,"velocity":0.7637795275590551,"duration":1.208726979166613},{"name":"F5","midi":77,"time":324.62279299999454,"velocity":0.7637795275590551,"duration":0.14003544270832435},{"name":"E5","midi":76,"time":324.7643024999945,"velocity":0.7637795275590551,"duration":0.14003544270832435},{"name":"D5","midi":74,"time":324.9058119999945,"velocity":0.7637795275590551,"duration":0.14003544270832435},{"name":"C5","midi":72,"time":325.0473214999945,"velocity":0.7637795275590551,"duration":0.14003544270832435},{"name":"A#4","midi":70,"time":325.1888309999945,"velocity":0.7637795275590551,"duration":0.28154494270836494},{"name":"A4","midi":69,"time":325.4718499999945,"velocity":0.7637795275590551,"duration":0.257960026041701},{"name":"C3","midi":48,"time":325.4718499999945,"velocity":0.7637795275590551,"duration":1.1306019427082674},{"name":"C5","midi":72,"time":325.7548689999945,"velocity":0.7637795275590551,"duration":0.14003544270832435},{"name":"A#4","midi":70,"time":325.8963784999945,"velocity":0.7637795275590551,"duration":0.14003544270832435},{"name":"A4","midi":69,"time":326.0378879999945,"velocity":0.7637795275590551,"duration":0.14003544270832435},{"name":"G4","midi":67,"time":326.1793974999945,"velocity":0.7637795275590551,"duration":0.14003544270832435},{"name":"F4","midi":65,"time":326.32090699999446,"velocity":0.7637795275590551,"duration":0.2815449427083081},{"name":"D5","midi":74,"time":326.60392599999443,"velocity":0.7637795275590551,"duration":0.3744105520833614},{"name":"A#2","midi":46,"time":326.60392599999443,"velocity":0.7637795275590551,"duration":1.1306019427085516},{"name":"C5","midi":72,"time":327.02845449999444,"velocity":0.7637795275590551,"duration":0.13413921354168679},{"name":"A#4","midi":70,"time":327.1699639999945,"velocity":0.7637795275590551,"duration":0.13413921354168679},{"name":"A4","midi":69,"time":327.3114734999945,"velocity":0.7637795275590551,"duration":0.13413921354168679},{"name":"A#4","midi":70,"time":327.45298299999456,"velocity":0.7637795275590551,"duration":0.13413921354168679},{"name":"G4","midi":67,"time":327.5944924999946,"velocity":0.7637795275590551,"duration":0.13413921354168679},{"name":"F4","midi":65,"time":327.73600199999464,"velocity":0.7637795275590551,"duration":0.4702242760416766},{"name":"C3","midi":48,"time":327.73600199999464,"velocity":0.7637795275590551,"duration":2.255307656250011},{"name":"G4","midi":67,"time":328.207700333328,"velocity":0.7637795275590551,"duration":0.08254720833332385},{"name":"F4","midi":65,"time":328.2902475416613,"velocity":0.7637795275590551,"duration":0.09876183854169085},{"name":"E4","midi":64,"time":328.39048343749465,"velocity":0.7637795275590551,"duration":0.09876183854169085},{"name":"F4","midi":65,"time":328.490719333328,"velocity":0.7637795275590551,"duration":0.09876183854169085},{"name":"D4","midi":62,"time":328.59095522916135,"velocity":0.7637795275590551,"duration":0.10613212499998781},{"name":"A#4","midi":70,"time":328.694139239578,"velocity":0.7637795275590551,"duration":0.1724647031250015},{"name":"F4","midi":65,"time":328.8680779999947,"velocity":0.7637795275590551,"duration":0.19310150520834668},{"name":"C2","midi":36,"time":328.8680779999947,"velocity":0.7637795275590551,"duration":1.1306019427083243},{"name":"E4","midi":64,"time":329.0626535624947,"velocity":0.7637795275590551,"duration":0.08254720833332385},{"name":"F4","midi":65,"time":329.1422526562447,"velocity":0.7637795275590551,"duration":0.07812503645834568},{"name":"E4","midi":64,"time":329.2218517499947,"velocity":0.7637795275590551,"duration":0.06928069270833248},{"name":"F4","midi":65,"time":329.2926064999947,"velocity":0.7637795275590551,"duration":0.06928069270833248},{"name":"E4","midi":64,"time":329.3633612499947,"velocity":0.7637795275590551,"duration":0.06928069270833248},{"name":"F4","midi":65,"time":329.4341159999947,"velocity":0.7637795275590551,"duration":0.06928069270833248},{"name":"E4","midi":64,"time":329.50487074999467,"velocity":0.7637795275590551,"duration":0.21079019270831623},{"name":"F4","midi":65,"time":329.71713499999464,"velocity":0.7637795275590551,"duration":0.28154494270836494},{"name":"F4","midi":65,"time":330.00015399999467,"velocity":0.7637795275590551,"duration":1.1306019427083243},{"name":"F2","midi":41,"time":330.00015399999467,"velocity":0.7637795275590551,"duration":2.255307656250011},{"name":"A2","midi":45,"time":330.7784562499947,"velocity":0.7637795275590551,"duration":0.14003544270832435},{"name":"C3","midi":48,"time":330.9199657499947,"velocity":0.7637795275590551,"duration":0.21079019270831623},{"name":"F4","midi":65,"time":331.13222999999465,"velocity":0.7637795275590551,"duration":1.7688687500000242},{"name":"F3","midi":53,"time":331.13222999999465,"velocity":0.7637795275590551,"duration":2.247937369791714},{"name":"A3","midi":57,"time":331.13222999999465,"velocity":0.7637795275590551,"duration":1.9162744791667023},{"name":"C4","midi":60,"time":331.13222999999465,"velocity":0.7637795275590551,"duration":1.783609322916675},{"name":"C5","midi":72,"time":333.3963819999947,"velocity":0.7637795275590551,"duration":0.8475829427083568},{"name":"F3","midi":53,"time":333.3963819999947,"velocity":0.7637795275590551,"duration":1.1306019427083243},{"name":"A3","midi":57,"time":333.3963819999947,"velocity":0.7637795275590551,"duration":1.1306019427083243},{"name":"C4","midi":60,"time":333.3963819999947,"velocity":0.7637795275590551,"duration":1.1306019427083243},{"name":"F4","midi":65,"time":333.3963819999947,"velocity":0.7637795275590551,"duration":1.1306019427083243},{"name":"A4","midi":69,"time":333.3963819999947,"velocity":0.7637795275590551,"duration":1.1306019427083243},{"name":"C5","midi":72,"time":334.2454389999947,"velocity":0.7637795275590551,"duration":0.2815449427083081},{"name":"C5","midi":72,"time":334.52845799999466,"velocity":0.7637795275590551,"duration":0.7532432760416441},{"name":"F2","midi":41,"time":334.52845799999466,"velocity":0.7637795275590551,"duration":2.137383072916691},{"name":"F3","midi":53,"time":334.52845799999466,"velocity":0.7637795275590551,"duration":2.2626779427083648},{"name":"F4","midi":65,"time":334.52845799999466,"velocity":0.7637795275590551,"duration":2.010614145833358},{"name":"A4","midi":69,"time":334.52845799999466,"velocity":0.7637795275590551,"duration":1.2382081249999715},{"name":"D5","midi":74,"time":335.28317533332796,"velocity":0.7637795275590551,"duration":0.1238208125000142},{"name":"C5","midi":72,"time":335.40847020311963,"velocity":0.7637795275590551,"duration":0.1252948697916736},{"name":"A#4","midi":70,"time":335.53523913020297,"velocity":0.7637795275590551,"duration":0.1238208125000142},{"name":"C5","midi":72,"time":335.66053399999464,"velocity":0.7637795275590551,"duration":0.1238208125000142},{"name":"A#4","midi":70,"time":335.7858288697863,"velocity":0.7637795275590551,"duration":0.1252948697916736},{"name":"A4","midi":69,"time":335.91259779686965,"velocity":0.7637795275590551,"duration":0.1238208125000142},{"name":"A#4","midi":70,"time":336.0378926666613,"velocity":0.7637795275590551,"duration":0.1238208125000142},{"name":"A4","midi":69,"time":336.163187536453,"velocity":0.7637795275590551,"duration":0.1252948697916736},{"name":"G4","midi":67,"time":336.2899564635363,"velocity":0.7637795275590551,"duration":0.1238208125000142},{"name":"A4","midi":69,"time":336.415251333328,"velocity":0.7637795275590551,"duration":0.1238208125000142},{"name":"G4","midi":67,"time":336.5405462031197,"velocity":0.7637795275590551,"duration":0.1252948697916736},{"name":"F4","midi":65,"time":336.667315130203,"velocity":0.7637795275590551,"duration":0.1238208125000142},{"name":"F5","midi":77,"time":336.7926099999947,"velocity":0.7637795275590551,"duration":0.8475829427083568},{"name":"D#3","midi":51,"time":336.7926099999947,"velocity":0.7637795275590551,"duration":1.1306019427083243},{"name":"A3","midi":57,"time":336.7926099999947,"velocity":0.7637795275590551,"duration":1.1306019427083243},{"name":"F5","midi":77,"time":337.6416669999947,"velocity":0.7637795275590551,"duration":0.2815449427083081},{"name":"F5","midi":77,"time":337.92468599999467,"velocity":0.7637795275590551,"duration":0.678066354166674},{"name":"D#2","midi":39,"time":337.92468599999467,"velocity":0.7637795275590551,"duration":2.0636802083334373},{"name":"D#3","midi":51,"time":337.92468599999467,"velocity":0.7637795275590551,"duration":2.2110859375000587},{"name":"A4","midi":69,"time":337.92468599999467,"velocity":0.7637795275590551,"duration":2.0636802083334373},{"name":"C5","midi":72,"time":337.92468599999467,"velocity":0.7637795275590551,"duration":1.130601942708381},{"name":"G5","midi":79,"time":338.604226411453,"velocity":0.7637795275590551,"duration":0.11202835416668222},{"name":"F5","midi":77,"time":338.71772882291134,"velocity":0.7637795275590551,"duration":0.11055429687502283},{"name":"D#5","midi":75,"time":338.829757177078,"velocity":0.7637795275590551,"duration":0.11202835416668222},{"name":"F5","midi":77,"time":338.94325958853636,"velocity":0.7637795275590551,"duration":0.11202835416668222},{"name":"D#5","midi":75,"time":339.0567619999947,"velocity":0.7637795275590551,"duration":0.11202835416668222},{"name":"D5","midi":74,"time":339.17026441145305,"velocity":0.7637795275590551,"duration":0.11202835416668222},{"name":"D#5","midi":75,"time":339.2837668229114,"velocity":0.7637795275590551,"duration":0.11055429687502283},{"name":"D5","midi":74,"time":339.39579517707807,"velocity":0.7637795275590551,"duration":0.11202835416668222},{"name":"C5","midi":72,"time":339.5092975885364,"velocity":0.7637795275590551,"duration":0.11202835416668222},{"name":"D5","midi":74,"time":339.62279999999475,"velocity":0.7637795275590551,"duration":0.11202835416668222},{"name":"C5","midi":72,"time":339.7363024114531,"velocity":0.7637795275590551,"duration":0.11202835416668222},{"name":"A#4","midi":70,"time":339.84980482291144,"velocity":0.7637795275590551,"duration":0.11055429687502283},{"name":"C5","midi":72,"time":339.9618331770781,"velocity":0.7637795275590551,"duration":0.11202835416662538},{"name":"A4","midi":69,"time":340.0753355885364,"velocity":0.7637795275590551,"duration":0.11202835416662538},{"name":"A#4","midi":70,"time":340.1888379999947,"velocity":0.7637795275590551,"duration":0.2815449427083081},{"name":"D3","midi":50,"time":340.1888379999947,"velocity":0.7637795275590551,"duration":1.1306019427082106},{"name":"F4","midi":65,"time":340.47185699999466,"velocity":0.7637795275590551,"duration":0.14003544270832435},{"name":"A4","midi":69,"time":340.61336649999464,"velocity":0.7637795275590551,"duration":0.14003544270832435},{"name":"A#4","midi":70,"time":340.7548759999946,"velocity":0.7637795275590551,"duration":0.2815449427083081},{"name":"D5","midi":74,"time":341.0378949999946,"velocity":0.7637795275590551,"duration":0.2815449427083081},{"name":"D#5","midi":75,"time":341.32091399999456,"velocity":0.7637795275590551,"duration":1.1306019427082674},{"name":"C3","midi":48,"time":341.32091399999456,"velocity":0.7637795275590551,"duration":1.1306019427082674},{"name":"G4","midi":67,"time":341.6039329999946,"velocity":0.7637795275590551,"duration":0.14003544270832435},{"name":"A4","midi":69,"time":341.74544249999457,"velocity":0.7637795275590551,"duration":0.14003544270832435},{"name":"A#4","midi":70,"time":341.88695199999455,"velocity":0.7637795275590551,"duration":0.14003544270832435},{"name":"A4","midi":69,"time":342.02846149999453,"velocity":0.7637795275590551,"duration":0.14003544270832435},{"name":"G4","midi":67,"time":342.1699709999945,"velocity":0.7637795275590551,"duration":0.2815449427083081},{"name":"A4","midi":69,"time":342.4529899999945,"velocity":0.7637795275590551,"duration":1.1306019427082674},{"name":"F3","midi":53,"time":342.4529899999945,"velocity":0.7637795275590551,"duration":1.1306019427082674},{"name":"C5","midi":72,"time":342.7360089999945,"velocity":0.7637795275590551,"duration":0.14003544270832435},{"name":"D5","midi":74,"time":342.8775184999945,"velocity":0.7637795275590551,"duration":0.14003544270832435},{"name":"D#5","midi":75,"time":343.0190279999945,"velocity":0.7637795275590551,"duration":0.14003544270832435},{"name":"D5","midi":74,"time":343.16053749999446,"velocity":0.7637795275590551,"duration":0.14003544270832435},{"name":"C5","midi":72,"time":343.30204699999445,"velocity":0.7637795275590551,"duration":0.2815449427083081},{"name":"D5","midi":74,"time":343.5850659999944,"velocity":0.7637795275590551,"duration":0.8402126562499461},{"name":"A#3","midi":58,"time":343.5850659999944,"velocity":0.7637795275590551,"duration":1.1306019427083243},{"name":"C5","midi":72,"time":343.7265754999944,"velocity":0.7637795275590551,"duration":0.14003544270832435},{"name":"A#4","midi":70,"time":343.8680849999944,"velocity":0.7637795275590551,"duration":0.14003544270832435},{"name":"A4","midi":69,"time":344.00959449999436,"velocity":0.7637795275590551,"duration":0.14003544270832435},{"name":"A#4","midi":70,"time":344.15110399999435,"velocity":0.7637795275590551,"duration":0.5454011979167035},{"name":"D5","midi":74,"time":344.4341229999944,"velocity":0.7637795275590551,"duration":0.28154494270836494},{"name":"D5","midi":74,"time":344.7171419999944,"velocity":0.7637795275590551,"duration":0.7060734427083162},{"name":"A#2","midi":46,"time":344.7171419999944,"velocity":0.7637795275590551,"duration":1.1306019427082674},{"name":"A#3","midi":58,"time":344.7171419999944,"velocity":0.7637795275590551,"duration":1.4150949999998943},{"name":"F4","midi":65,"time":344.7171419999944,"velocity":0.7637795275590551,"duration":1.1306019427082674},{"name":"A#4","midi":70,"time":344.7171419999944,"velocity":0.7637795275590551,"duration":0.7060734427083162},{"name":"C5","midi":72,"time":345.4246894999944,"velocity":0.7637795275590551,"duration":0.14003544270832435},{"name":"A#4","midi":70,"time":345.56619899999436,"velocity":0.7637795275590551,"duration":0.14003544270832435},{"name":"A4","midi":69,"time":345.70770849999434,"velocity":0.7637795275590551,"duration":0.14003544270832435},{"name":"A#4","midi":70,"time":345.8492179999943,"velocity":0.7637795275590551,"duration":0.14003544270832435},{"name":"F4","midi":65,"time":345.9907274999943,"velocity":0.7637795275590551,"duration":0.14003544270832435},{"name":"A#4","midi":70,"time":346.1322369999943,"velocity":0.7637795275590551,"duration":0.14003544270832435},{"name":"C5","midi":72,"time":346.2737464999943,"velocity":0.7637795275590551,"duration":0.14003544270832435},{"name":"D5","midi":74,"time":346.41525599999426,"velocity":0.7637795275590551,"duration":0.14003544270832435},{"name":"D#5","midi":75,"time":346.55676549999424,"velocity":0.7637795275590551,"duration":0.14003544270832435},{"name":"F5","midi":77,"time":346.6982749999942,"velocity":0.7637795275590551,"duration":0.14003544270832435},{"name":"G5","midi":79,"time":346.8397844999942,"velocity":0.7637795275590551,"duration":0.14003544270832435},{"name":"G#5","midi":80,"time":346.9812939999942,"velocity":0.7637795275590551,"duration":0.14003544270832435},{"name":"B3","midi":59,"time":346.9812939999942,"velocity":0.7637795275590551,"duration":1.1306019427082106},{"name":"D4","midi":62,"time":346.9812939999942,"velocity":0.7637795275590551,"duration":1.1306019427082106},{"name":"G5","midi":79,"time":347.1228034999942,"velocity":0.7637795275590551,"duration":0.14003544270832435},{"name":"F5","midi":77,"time":347.26431299999416,"velocity":0.7637795275590551,"duration":0.14003544270832435},{"name":"D#5","midi":75,"time":347.40582249999414,"velocity":0.7637795275590551,"duration":0.14003544270832435},{"name":"D5","midi":74,"time":347.5473319999941,"velocity":0.7637795275590551,"duration":0.14003544270832435},{"name":"D#5","midi":75,"time":347.6888414999941,"velocity":0.7637795275590551,"duration":0.14003544270832435},{"name":"F5","midi":77,"time":347.8303509999941,"velocity":0.7637795275590551,"duration":0.2815449427083081},{"name":"B4","midi":71,"time":348.11336999999406,"velocity":0.7637795275590551,"duration":0.2815449427083081},{"name":"G3","midi":55,"time":348.11336999999406,"velocity":0.7637795275590551,"duration":1.695165885416543},{"name":"D4","midi":62,"time":348.11336999999406,"velocity":0.7637795275590551,"duration":2.2626779427081374},{"name":"D5","midi":74,"time":348.39638899999403,"velocity":0.7637795275590551,"duration":0.2815449427083081},{"name":"F5","midi":77,"time":348.679407999994,"velocity":0.7637795275590551,"duration":0.2815449427083081},{"name":"G#5","midi":80,"time":348.96242699999397,"velocity":0.7637795275590551,"duration":0.2815449427083081},{"name":"G#5","midi":80,"time":349.24544599999393,"velocity":0.7637795275590551,"duration":0.19310150520834668},{"name":"G5","midi":79,"time":349.44002156249394,"velocity":0.7637795275590551,"duration":0.08254720833332385},{"name":"G#5","midi":80,"time":349.51962065624394,"velocity":0.7637795275590551,"duration":0.07812503645834568},{"name":"G5","midi":79,"time":349.59921974999395,"velocity":0.7637795275590551,"duration":0.06928069270833248},{"name":"G#5","midi":80,"time":349.66997449999394,"velocity":0.7637795275590551,"duration":0.06928069270833248},{"name":"G5","midi":79,"time":349.74072924999393,"velocity":0.7637795275590551,"duration":0.21079019270831623},{"name":"F5","midi":77,"time":349.9529934999939,"velocity":0.7637795275590551,"duration":0.14003544270832435},{"name":"D#5","midi":75,"time":350.0945029999939,"velocity":0.7637795275590551,"duration":0.14003544270832435},{"name":"D5","midi":74,"time":350.2360124999939,"velocity":0.7637795275590551,"duration":0.14003544270832435},{"name":"D#5","midi":75,"time":350.37752199999386,"velocity":0.7637795275590551,"duration":0.14003544270832435},{"name":"C4","midi":60,"time":350.37752199999386,"velocity":0.7637795275590551,"duration":1.1306019427082106},{"name":"C3","midi":48,"time":350.37752199999386,"velocity":0.7637795275590551,"duration":1.1306019427082106},{"name":"D5","midi":74,"time":350.51903149999384,"velocity":0.7637795275590551,"duration":0.14003544270832435},{"name":"C5","midi":72,"time":350.6605409999938,"velocity":0.7637795275590551,"duration":0.14003544270832435},{"name":"A#4","midi":70,"time":350.8020504999938,"velocity":0.7637795275590551,"duration":0.14003544270832435},{"name":"G#4","midi":68,"time":350.9435599999938,"velocity":0.7637795275590551,"duration":0.14003544270832435},{"name":"A#4","midi":70,"time":351.0850694999938,"velocity":0.7637795275590551,"duration":0.14003544270832435},{"name":"C5","midi":72,"time":351.22657899999376,"velocity":0.7637795275590551,"duration":0.2815449427083081},{"name":"F4","midi":65,"time":351.50959799999373,"velocity":0.7637795275590551,"duration":0.2815449427083081},{"name":"C4","midi":60,"time":351.50959799999373,"velocity":0.7637795275590551,"duration":2.2626779427081374},{"name":"G#3","midi":56,"time":351.50959799999373,"velocity":0.7637795275590551,"duration":2.063680208333153},{"name":"G#4","midi":68,"time":351.7926169999937,"velocity":0.7637795275590551,"duration":0.2815449427083081},{"name":"C5","midi":72,"time":352.07563599999366,"velocity":0.7637795275590551,"duration":0.2815449427083081},{"name":"D#5","midi":75,"time":352.35865499999363,"velocity":0.7637795275590551,"duration":0.2815449427083081},{"name":"D#5","midi":75,"time":352.6416739999936,"velocity":0.7637795275590551,"duration":0.19310150520834668},{"name":"D5","midi":74,"time":352.8362495624936,"velocity":0.7637795275590551,"duration":0.08254720833332385},{"name":"D#5","midi":75,"time":352.91437459895195,"velocity":0.7637795275590551,"duration":0.07959909375000507},{"name":"D5","midi":74,"time":352.9954477499936,"velocity":0.7637795275590551,"duration":0.06928069270833248},{"name":"D#5","midi":75,"time":353.0662024999936,"velocity":0.7637795275590551,"duration":0.06928069270833248},{"name":"D5","midi":74,"time":353.1369572499936,"velocity":0.7637795275590551,"duration":0.06928069270833248},{"name":"D#5","midi":75,"time":353.2077119999936,"velocity":0.7637795275590551,"duration":0.06928069270833248},{"name":"D5","midi":74,"time":353.2784667499936,"velocity":0.7637795275590551,"duration":0.06928069270833248},{"name":"D#5","midi":75,"time":353.3492214999936,"velocity":0.7637795275590551,"duration":0.06928069270833248},{"name":"D5","midi":74,"time":353.41997624999357,"velocity":0.7637795275590551,"duration":0.06928069270833248},{"name":"C5","midi":72,"time":353.49073099999356,"velocity":0.7637795275590551,"duration":0.14003544270832435},{"name":"B4","midi":71,"time":353.63224049999354,"velocity":0.7637795275590551,"duration":0.14003544270832435},{"name":"C5","midi":72,"time":353.7737499999935,"velocity":0.7637795275590551,"duration":0.2815449427083081},{"name":"F#3","midi":54,"time":353.7737499999935,"velocity":0.7637795275590551,"duration":1.1306019427082674},{"name":"A3","midi":57,"time":353.7737499999935,"velocity":0.7637795275590551,"duration":1.1306019427082674},{"name":"D#4","midi":63,"time":354.0567689999935,"velocity":0.7637795275590551,"duration":0.2815449427083081},{"name":"F4","midi":65,"time":354.33978799999346,"velocity":0.7637795275590551,"duration":0.09286560937499644},{"name":"D#4","midi":63,"time":354.4341276666601,"velocity":0.7637795275590551,"duration":0.09286560937499644},{"name":"D4","midi":62,"time":354.5284673333268,"velocity":0.7637795275590551,"duration":0.09286560937499644},{"name":"D#4","midi":63,"time":354.62280699999343,"velocity":0.7637795275590551,"duration":0.20636802083333805},{"name":"A4","midi":69,"time":354.90582599999345,"velocity":0.7637795275590551,"duration":0.2815449427083081},{"name":"G3","midi":55,"time":354.90582599999345,"velocity":0.7637795275590551,"duration":2.2553076562497267},{"name":"F#4","midi":66,"time":355.1888449999934,"velocity":0.7637795275590551,"duration":0.2815449427083081},{"name":"G4","midi":67,"time":355.4718639999934,"velocity":0.7637795275590551,"duration":0.09286560937499644},{"name":"F#4","midi":66,"time":355.56620366666004,"velocity":0.7637795275590551,"duration":0.09286560937499644},{"name":"E4","midi":64,"time":355.6605433333267,"velocity":0.7637795275590551,"duration":0.09286560937499644},{"name":"F#4","midi":66,"time":355.75488299999336,"velocity":0.7637795275590551,"duration":0.23584916666663958},{"name":"D#5","midi":75,"time":356.0379019999933,"velocity":0.7637795275590551,"duration":0.2815449427083081},{"name":"G2","midi":43,"time":356.0379019999933,"velocity":0.7637795275590551,"duration":1.1306019427082106},{"name":"B4","midi":71,"time":356.3209209999933,"velocity":0.7637795275590551,"duration":0.2815449427083081},{"name":"C5","midi":72,"time":356.60393999999326,"velocity":0.7637795275590551,"duration":0.09286560937499644},{"name":"B4","midi":71,"time":356.6982796666599,"velocity":0.7637795275590551,"duration":0.09286560937499644},{"name":"C5","midi":72,"time":356.79261933332657,"velocity":0.7637795275590551,"duration":0.09286560937499644},{"name":"B4","midi":71,"time":356.8869589999932,"velocity":0.7637795275590551,"duration":0.09286560937499644},{"name":"A4","midi":69,"time":356.9812986666599,"velocity":0.7637795275590551,"duration":0.09286560937499644},{"name":"B4","midi":71,"time":357.07563833332654,"velocity":0.7637795275590551,"duration":0.09286560937499644},{"name":"C5","midi":72,"time":357.1699779999932,"velocity":0.7637795275590551,"duration":0.8475829427083568},{"name":"C3","midi":48,"time":357.1699779999932,"velocity":0.7637795275590551,"duration":1.1306019427083243},{"name":"C5","midi":72,"time":358.03377557290986,"velocity":0.7637795275590551,"duration":0.26238219791667916},{"name":"C5","midi":72,"time":358.3020539999932,"velocity":0.7637795275590551,"duration":0.7060734427083162},{"name":"C2","midi":36,"time":358.3020539999932,"velocity":0.7637795275590551,"duration":2.06368020833321},{"name":"C3","midi":48,"time":358.3020539999932,"velocity":0.7637795275590551,"duration":2.2626779427081942},{"name":"C4","midi":60,"time":358.3020539999932,"velocity":0.7637795275590551,"duration":2.2626779427081942},{"name":"D#4","midi":63,"time":358.3020539999932,"velocity":0.7637795275590551,"duration":2.2626779427081942},{"name":"G4","midi":67,"time":358.3020539999932,"velocity":0.7637795275590551,"duration":0.6928069270833248},{"name":"G4","midi":67,"time":359.00960149999315,"velocity":0.7637795275590551,"duration":0.14003544270832435},{"name":"A4","midi":69,"time":359.15111099999314,"velocity":0.7637795275590551,"duration":0.14003544270832435},{"name":"B4","midi":71,"time":359.2926204999931,"velocity":0.7637795275590551,"duration":0.14003544270832435},{"name":"C5","midi":72,"time":359.4341299999931,"velocity":0.7637795275590551,"duration":0.14003544270832435},{"name":"D5","midi":74,"time":359.5756394999931,"velocity":0.7637795275590551,"duration":0.14003544270832435},{"name":"C5","midi":72,"time":359.71714899999307,"velocity":0.7637795275590551,"duration":0.14003544270832435},{"name":"B4","midi":71,"time":359.85865849999306,"velocity":0.7637795275590551,"duration":0.14003544270832435},{"name":"C5","midi":72,"time":360.00016799999304,"velocity":0.7637795275590551,"duration":0.32281854687499845},{"name":"D5","midi":74,"time":360.3244606041597,"velocity":0.7637795275590551,"duration":0.22405670833336444},{"name":"D5","midi":74,"time":360.56620599999303,"velocity":0.7637795275590551,"duration":0.14003544270832435},{"name":"C3","midi":48,"time":360.56620599999303,"velocity":0.7637795275590551,"duration":0.2815449427083081},{"name":"D#5","midi":75,"time":360.6959230416597,"velocity":0.7637795275590551,"duration":0.14003544270832435},{"name":"F5","midi":77,"time":360.827114140618,"velocity":0.7637795275590551,"duration":0.11939864062503602},{"name":"D3","midi":50,"time":360.849224999993,"velocity":0.7637795275590551,"duration":0.28154494270836494},{"name":"D#5","midi":75,"time":360.91408352082635,"velocity":0.7637795275590551,"duration":0.11939864062503602},{"name":"F5","midi":77,"time":361.0010529010347,"velocity":0.7637795275590551,"duration":0.11939864062497918},{"name":"D#5","midi":75,"time":361.07328170832636,"velocity":0.7637795275590551,"duration":0.11939864062503602},{"name":"D#3","midi":51,"time":361.132243999993,"velocity":0.7637795275590551,"duration":0.2815449427084218},{"name":"F5","midi":77,"time":361.1749916614514,"velocity":0.7637795275590551,"duration":0.11939864062503602},{"name":"D#5","midi":75,"time":361.25164264061806,"velocity":0.7637795275590551,"duration":0.11939864062503602},{"name":"F5","midi":77,"time":361.32829361978474,"velocity":0.7637795275590551,"duration":0.11939864062503602},{"name":"D#5","midi":75,"time":361.40494459895143,"velocity":0.7637795275590551,"duration":0.11939864062503602},{"name":"G3","midi":55,"time":361.4152629999931,"velocity":0.7637795275590551,"duration":0.2815449427084218},{"name":"F5","midi":77,"time":361.4815955781181,"velocity":0.7637795275590551,"duration":0.11939864062503602},{"name":"D#5","midi":75,"time":361.5582465572848,"velocity":0.7637795275590551,"duration":0.11939864062503602},{"name":"F5","midi":77,"time":361.6348975364515,"velocity":0.7637795275590551,"duration":0.11939864062503602},{"name":"C4","midi":60,"time":361.6982819999932,"velocity":0.7637795275590551,"duration":0.28154494270836494},{"name":"D#5","midi":75,"time":361.7115485156182,"velocity":0.7637795275590551,"duration":0.11939864062503602},{"name":"F5","midi":77,"time":361.78819949478486,"velocity":0.7637795275590551,"duration":0.11939864062503602},{"name":"D#5","midi":75,"time":361.86485047395155,"velocity":0.7637795275590551,"duration":0.11939864062497918},{"name":"F5","midi":77,"time":361.94150145311824,"velocity":0.7637795275590551,"duration":0.11939864062497918},{"name":"G3","midi":55,"time":361.9813009999932,"velocity":0.7637795275590551,"duration":0.28154494270836494},{"name":"D#5","midi":75,"time":362.01815243228486,"velocity":0.7637795275590551,"duration":0.11939864062503602},{"name":"F5","midi":77,"time":362.09480341145155,"velocity":0.7637795275590551,"duration":0.11939864062503602},{"name":"D#5","midi":75,"time":362.17145439061824,"velocity":0.7637795275590551,"duration":0.11939864062497918},{"name":"F5","midi":77,"time":362.2481053697849,"velocity":0.7637795275590551,"duration":0.11939864062497918},{"name":"F3","midi":53,"time":362.26431999999323,"velocity":0.7637795275590551,"duration":0.28154494270836494},{"name":"D#5","midi":75,"time":362.32475634895155,"velocity":0.7637795275590551,"duration":0.11939864062503602},{"name":"F5","midi":77,"time":362.40140732811824,"velocity":0.7637795275590551,"duration":0.11939864062503602},{"name":"D#5","midi":75,"time":362.4780583072849,"velocity":0.7637795275590551,"duration":0.11939864062503602},{"name":"D#3","midi":51,"time":362.54733899999326,"velocity":0.7637795275590551,"duration":0.2815449427084218},{"name":"F5","midi":77,"time":362.55323522915995,"velocity":0.7637795275590551,"duration":0.11939864062503602},{"name":"D#5","midi":75,"time":362.62988620832664,"velocity":0.7637795275590551,"duration":0.11939864062503602},{"name":"F5","midi":77,"time":362.7065371874933,"velocity":0.7637795275590551,"duration":0.11939864062503602},{"name":"D#5","midi":75,"time":362.78318816666,"velocity":0.7637795275590551,"duration":0.11939864062503602},{"name":"D3","midi":50,"time":362.83035799999334,"velocity":0.7637795275590551,"duration":0.2815449427084218},{"name":"F5","midi":77,"time":362.8598391458267,"velocity":0.7637795275590551,"duration":0.11939864062503602},{"name":"D#5","midi":75,"time":362.9364901249934,"velocity":0.7637795275590551,"duration":0.11939864062503602},{"name":"F5","midi":77,"time":363.01314110416007,"velocity":0.7637795275590551,"duration":0.11939864062503602},{"name":"D#5","midi":75,"time":363.08979208332676,"velocity":0.7637795275590551,"duration":0.11939864062503602},{"name":"C3","midi":48,"time":363.1133769999934,"velocity":0.7637795275590551,"duration":0.2815449427084218},{"name":"F5","midi":77,"time":363.16644306249344,"velocity":0.7637795275590551,"duration":0.11939864062503602},{"name":"D#5","midi":75,"time":363.24309404166013,"velocity":0.7637795275590551,"duration":0.11939864062503602},{"name":"F5","midi":77,"time":363.3197450208268,"velocity":0.7637795275590551,"duration":0.11939864062503602},{"name":"D#5","midi":75,"time":363.3963959999935,"velocity":0.7637795275590551,"duration":0.11939864062503602},{"name":"A#2","midi":46,"time":363.3963959999935,"velocity":0.7637795275590551,"duration":0.2815449427084218},{"name":"F5","midi":77,"time":363.4730469791602,"velocity":0.7637795275590551,"duration":0.11939864062503602},{"name":"D#5","midi":75,"time":363.5496979583269,"velocity":0.7637795275590551,"duration":0.11939864062503602},{"name":"F5","midi":77,"time":363.62634893749356,"velocity":0.7637795275590551,"duration":0.11939864062503602},{"name":"G3","midi":55,"time":363.6794149999936,"velocity":0.7637795275590551,"duration":0.28154494270836494},{"name":"D#5","midi":75,"time":363.70299991666025,"velocity":0.7637795275590551,"duration":0.11939864062503602},{"name":"F5","midi":77,"time":363.77965089582693,"velocity":0.7637795275590551,"duration":0.11939864062503602},{"name":"D#5","midi":75,"time":363.8563018749936,"velocity":0.7637795275590551,"duration":0.11939864062497918},{"name":"F5","midi":77,"time":363.9329528541603,"velocity":0.7637795275590551,"duration":0.11939864062497918},{"name":"A2","midi":45,"time":363.9624339999936,"velocity":0.7637795275590551,"duration":0.28154494270836494},{"name":"D#5","midi":75,"time":364.00960383332693,"velocity":0.7637795275590551,"duration":0.11939864062503602},{"name":"F5","midi":77,"time":364.0862548124936,"velocity":0.7637795275590551,"duration":0.11939864062503602},{"name":"D#5","midi":75,"time":364.1629057916603,"velocity":0.7637795275590551,"duration":0.11939864062497918},{"name":"F5","midi":77,"time":364.239556770827,"velocity":0.7637795275590551,"duration":0.11939864062497918},{"name":"A#2","midi":46,"time":364.24545299999363,"velocity":0.7637795275590551,"duration":0.28154494270836494},{"name":"D#5","midi":75,"time":364.31473369270196,"velocity":0.7637795275590551,"duration":0.11939864062503602},{"name":"F5","midi":77,"time":364.39138467186865,"velocity":0.7637795275590551,"duration":0.11939864062503602},{"name":"D#5","midi":75,"time":364.4665615937437,"velocity":0.7637795275590551,"duration":0.11939864062497918},{"name":"C3","midi":48,"time":364.52847199999366,"velocity":0.7637795275590551,"duration":0.28154494270836494},{"name":"F5","midi":77,"time":364.5432125729103,"velocity":0.7637795275590551,"duration":0.11939864062503602},{"name":"D#5","midi":75,"time":364.619863552077,"velocity":0.7637795275590551,"duration":0.11939864062503602},{"name":"F5","midi":77,"time":364.6965145312437,"velocity":0.7637795275590551,"duration":0.11939864062497918},{"name":"D#5","midi":75,"time":364.77316551041037,"velocity":0.7637795275590551,"duration":0.11939864062497918},{"name":"F3","midi":53,"time":364.8114909999937,"velocity":0.7637795275590551,"duration":0.28154494270836494},{"name":"F5","midi":77,"time":364.85129054686865,"velocity":0.7637795275590551,"duration":0.11939864062503602},{"name":"D#5","midi":75,"time":364.92794152603534,"velocity":0.7637795275590551,"duration":0.11939864062503602},{"name":"F5","midi":77,"time":365.004592505202,"velocity":0.7637795275590551,"duration":0.11939864062503602},{"name":"D#5","midi":75,"time":365.0812434843687,"velocity":0.7637795275590551,"duration":0.11939864062503602},{"name":"A3","midi":57,"time":365.0945099999937,"velocity":0.7637795275590551,"duration":0.2815449427084218},{"name":"F5","midi":77,"time":365.1578944635354,"velocity":0.7637795275590551,"duration":0.11939864062503602},{"name":"D#5","midi":75,"time":365.2345454427021,"velocity":0.7637795275590551,"duration":0.11939864062503602},{"name":"F5","midi":77,"time":365.3111964218688,"velocity":0.7637795275590551,"duration":0.11939864062503602},{"name":"C4","midi":60,"time":365.3775289999938,"velocity":0.7637795275590551,"duration":0.2815449427084218},{"name":"D#5","midi":75,"time":365.38784740103546,"velocity":0.7637795275590551,"duration":0.11939864062503602},{"name":"F5","midi":77,"time":365.46449838020214,"velocity":0.7637795275590551,"duration":0.11939864062503602},{"name":"D#5","midi":75,"time":365.54114935936883,"velocity":0.7637795275590551,"duration":0.11939864062503602},{"name":"F5","midi":77,"time":365.6178003385355,"velocity":0.7637795275590551,"duration":0.11939864062503602},{"name":"A#3","midi":58,"time":365.66054799999387,"velocity":0.7637795275590551,"duration":0.2815449427084218},{"name":"D#5","midi":75,"time":365.6944513177022,"velocity":0.7637795275590551,"duration":0.11939864062503602},{"name":"F5","midi":77,"time":365.7711022968689,"velocity":0.7637795275590551,"duration":0.11939864062503602},{"name":"D#5","midi":75,"time":365.8477532760356,"velocity":0.7637795275590551,"duration":0.11939864062503602},{"name":"F5","midi":77,"time":365.92440425520226,"velocity":0.7637795275590551,"duration":0.11939864062503602},{"name":"A3","midi":57,"time":365.94356699999395,"velocity":0.7637795275590551,"duration":0.28154494270836494},{"name":"D#5","midi":75,"time":366.00105523436895,"velocity":0.7637795275590551,"duration":0.11939864062503602},{"name":"F5","midi":77,"time":366.07770621353563,"velocity":0.7637795275590551,"duration":0.11939864062503602},{"name":"D#5","midi":75,"time":366.1543571927023,"velocity":0.7637795275590551,"duration":0.11939864062497918},{"name":"G3","midi":55,"time":366.226585999994,"velocity":0.7637795275590551,"duration":0.2815449427084218},{"name":"F5","midi":77,"time":366.23100817186895,"velocity":0.7637795275590551,"duration":0.11939864062503602},{"name":"D#5","midi":75,"time":366.30765915103564,"velocity":0.7637795275590551,"duration":0.11939864062503602},{"name":"F5","midi":77,"time":366.38283607291066,"velocity":0.7637795275590551,"duration":0.11939864062503602},{"name":"D#5","midi":75,"time":366.45948705207735,"velocity":0.7637795275590551,"duration":0.11939864062503602},{"name":"F3","midi":53,"time":366.50960499999405,"velocity":0.7637795275590551,"duration":0.28154494270836494},{"name":"F5","midi":77,"time":366.53613803124404,"velocity":0.7637795275590551,"duration":0.11939864062503602},{"name":"D#5","midi":75,"time":366.6127890104107,"velocity":0.7637795275590551,"duration":0.11939864062503602},{"name":"F5","midi":77,"time":366.6894399895774,"velocity":0.7637795275590551,"duration":0.11939864062497918},{"name":"D#5","midi":75,"time":366.7660909687441,"velocity":0.7637795275590551,"duration":0.11939864062497918},{"name":"F4","midi":65,"time":366.7926239999941,"velocity":0.7637795275590551,"duration":0.28154494270836494},{"name":"F5","midi":77,"time":366.8427419479107,"velocity":0.7637795275590551,"duration":0.11939864062503602},{"name":"D#5","midi":75,"time":366.9193929270774,"velocity":0.7637795275590551,"duration":0.11939864062503602},{"name":"F5","midi":77,"time":366.9960439062441,"velocity":0.7637795275590551,"duration":0.11939864062497918},{"name":"D#5","midi":75,"time":367.0726948854108,"velocity":0.7637795275590551,"duration":0.11939864062497918},{"name":"A3","midi":57,"time":367.0756429999941,"velocity":0.7637795275590551,"duration":0.28154494270836494},{"name":"F5","midi":77,"time":367.1493458645774,"velocity":0.7637795275590551,"duration":0.11939864062503602},{"name":"D#5","midi":75,"time":367.2259968437441,"velocity":0.7637795275590551,"duration":0.28007088541670555},{"name":"A#3","midi":58,"time":367.3586619999941,"velocity":0.7637795275590551,"duration":0.8475829427082999},{"name":"D5","midi":74,"time":367.64168099999415,"velocity":0.7637795275590551,"duration":0.14003544270832435},{"name":"C5","midi":72,"time":367.78319049999413,"velocity":0.7637795275590551,"duration":0.14003544270832435},{"name":"D5","midi":74,"time":367.9246999999941,"velocity":0.7637795275590551,"duration":0.2815449427083081},{"name":"A#5","midi":82,"time":368.2077189999941,"velocity":0.7637795275590551,"duration":0.4540096458333096},{"name":"G4","midi":67,"time":368.2077189999941,"velocity":0.7637795275590551,"duration":0.2815449427083081},{"name":"E4","midi":64,"time":368.49073799999405,"velocity":0.7637795275590551,"duration":0.8475829427082999},{"name":"A5","midi":81,"time":368.7737569999941,"velocity":0.7637795275590551,"duration":0.14003544270832435},{"name":"G5","midi":79,"time":368.91526649999406,"velocity":0.7637795275590551,"duration":0.14003544270832435},{"name":"A5","midi":81,"time":369.05677599999404,"velocity":0.7637795275590551,"duration":0.2815449427083081},{"name":"C5","midi":72,"time":369.339794999994,"velocity":0.7637795275590551,"duration":0.5380309114582928},{"name":"F4","midi":65,"time":369.339794999994,"velocity":0.7637795275590551,"duration":0.2815449427083081},{"name":"G3","midi":55,"time":369.622813999994,"velocity":0.7637795275590551,"duration":0.8475829427082431},{"name":"A#4","midi":70,"time":369.90583299999395,"velocity":0.7637795275590551,"duration":0.14003544270832435},{"name":"A4","midi":69,"time":370.04734249999393,"velocity":0.7637795275590551,"duration":0.14003544270832435},{"name":"A#4","midi":70,"time":370.1888519999939,"velocity":0.7637795275590551,"duration":0.2815449427083081},{"name":"G5","midi":79,"time":370.4718709999939,"velocity":0.7637795275590551,"duration":0.2815449427083081},{"name":"E4","midi":64,"time":370.4718709999939,"velocity":0.7637795275590551,"duration":0.2815449427083081},{"name":"C5","midi":72,"time":370.75488999999385,"velocity":0.7637795275590551,"duration":0.20784207812499744},{"name":"F3","midi":53,"time":370.75488999999385,"velocity":0.7637795275590551,"duration":1.8130904687500333},{"name":"A#4","midi":70,"time":370.9642061354105,"velocity":0.7637795275590551,"duration":0.1252948697916736},{"name":"C5","midi":72,"time":371.09097506249384,"velocity":0.7637795275590551,"duration":0.1252948697916736},{"name":"A#4","midi":70,"time":371.2177439895772,"velocity":0.7637795275590551,"duration":0.1252948697916736},{"name":"A4","midi":69,"time":371.3445129166605,"velocity":0.7637795275590551,"duration":0.13413921354168679},{"name":"G4","midi":67,"time":371.48012618749385,"velocity":0.7637795275590551,"duration":0.13413921354168679},{"name":"A4","midi":69,"time":371.6157394583272,"velocity":0.7637795275590551,"duration":0.13413921354168679},{"name":"C5","midi":72,"time":371.75135272916054,"velocity":0.7637795275590551,"duration":0.13413921354168679},{"name":"F4","midi":65,"time":371.8869659999939,"velocity":0.7637795275590551,"duration":2.2553076562502383},{"name":"G3","midi":55,"time":372.7714003749939,"velocity":0.7637795275590551,"duration":0.14003544270832435},{"name":"F3","midi":53,"time":372.8804806145772,"velocity":0.7637795275590551,"duration":0.1400354427083812},{"name":"D#3","midi":51,"time":372.9792424531189,"velocity":0.7637795275590551,"duration":0.1400354427083812},{"name":"F3","midi":53,"time":373.0780042916606,"velocity":0.7637795275590551,"duration":0.1400354427083812},{"name":"D#3","midi":51,"time":373.1767661302023,"velocity":0.7637795275590551,"duration":0.1400354427083812},{"name":"F3","midi":53,"time":373.275527968744,"velocity":0.7637795275590551,"duration":0.1400354427083812},{"name":"D#3","midi":51,"time":373.37428980728566,"velocity":0.7637795275590551,"duration":0.1400354427083812},{"name":"F3","midi":53,"time":373.47305164582735,"velocity":0.7637795275590551,"duration":0.1400354427083812},{"name":"D#3","midi":51,"time":373.57181348436904,"velocity":0.7637795275590551,"duration":0.1400354427083812},{"name":"F3","midi":53,"time":373.67057532291074,"velocity":0.7637795275590551,"duration":0.1400354427083812},{"name":"D#3","midi":51,"time":373.7693371614524,"velocity":0.7637795275590551,"duration":0.1400354427083812},{"name":"D3","midi":50,"time":373.8680989999941,"velocity":0.7637795275590551,"duration":0.27564871354167053},{"name":"D3","midi":50,"time":374.15111799999414,"velocity":0.7637795275590551,"duration":1.1306019427082674},{"name":"A#3","midi":58,"time":374.43413699999417,"velocity":0.7637795275590551,"duration":0.14003544270832435},{"name":"C4","midi":60,"time":374.57564649999415,"velocity":0.7637795275590551,"duration":0.14003544270832435},{"name":"D4","midi":62,"time":374.71715599999413,"velocity":0.7637795275590551,"duration":0.2815449427083081},{"name":"F4","midi":65,"time":375.0001749999941,"velocity":0.7637795275590551,"duration":0.5645639427082756},{"name":"D2","midi":38,"time":375.28319399999407,"velocity":0.7637795275590551,"duration":0.8475829427082431},{"name":"D4","midi":62,"time":375.56621299999404,"velocity":0.7637795275590551,"duration":0.14003544270832435},{"name":"D#4","midi":63,"time":375.707722499994,"velocity":0.7637795275590551,"duration":0.14003544270832435},{"name":"F4","midi":65,"time":375.849231999994,"velocity":0.7637795275590551,"duration":0.2815449427083081},{"name":"G#4","midi":68,"time":376.13225099999397,"velocity":0.7637795275590551,"duration":0.2815449427083081},{"name":"D3","midi":50,"time":376.13225099999397,"velocity":0.7637795275590551,"duration":0.2815449427083081},{"name":"G#4","midi":68,"time":376.41526999999394,"velocity":0.7637795275590551,"duration":1.1306019427082106},{"name":"D3","midi":50,"time":376.41526999999394,"velocity":0.7637795275590551,"duration":0.09286560937499644},{"name":"C3","midi":48,"time":376.5096096666606,"velocity":0.7637795275590551,"duration":0.09286560937499644},{"name":"D3","midi":50,"time":376.60394933332725,"velocity":0.7637795275590551,"duration":0.09286560937499644},{"name":"C3","midi":48,"time":376.6982889999939,"velocity":0.7637795275590551,"duration":0.09286560937499644},{"name":"D3","midi":50,"time":376.79262866666056,"velocity":0.7637795275590551,"duration":0.09286560937499644},{"name":"C3","midi":48,"time":376.8869683333272,"velocity":0.7637795275590551,"duration":0.09286560937499644},{"name":"D3","midi":50,"time":376.9813079999939,"velocity":0.7637795275590551,"duration":0.09286560937499644},{"name":"C3","midi":48,"time":377.07564766666053,"velocity":0.7637795275590551,"duration":0.18720527604165227},{"name":"A#2","midi":46,"time":377.26432699999384,"velocity":0.7637795275590551,"duration":0.2815449427083081},{"name":"D#3","midi":51,"time":377.5473459999938,"velocity":0.7637795275590551,"duration":1.0686915364582887},{"name":"G4","midi":67,"time":377.83036499999383,"velocity":0.7637795275590551,"duration":0.14003544270832435},{"name":"G#4","midi":68,"time":377.9718744999938,"velocity":0.7637795275590551,"duration":0.14003544270832435},{"name":"A#4","midi":70,"time":378.1133839999938,"velocity":0.7637795275590551,"duration":0.2815449427083081},{"name":"C#5","midi":73,"time":378.39640299999377,"velocity":0.7637795275590551,"duration":0.2815449427083081},{"name":"C#5","midi":73,"time":378.67942199999374,"velocity":0.7637795275590551,"duration":0.2815449427083081},{"name":"D3","midi":50,"time":378.67942199999374,"velocity":0.7637795275590551,"duration":0.14003544270832435},{"name":"E3","midi":52,"time":378.8179833854104,"velocity":0.7637795275590551,"duration":0.14003544270832435},{"name":"F3","midi":53,"time":378.95654477082707,"velocity":0.7637795275590551,"duration":0.0928656093749396},{"name":"A#4","midi":70,"time":378.9624409999937,"velocity":0.7637795275590551,"duration":0.14003544270832435},{"name":"E3","midi":52,"time":379.04793632291035,"velocity":0.7637795275590551,"duration":0.09286560937499644},{"name":"C5","midi":72,"time":379.1039504999937,"velocity":0.7637795275590551,"duration":0.14003544270832435},{"name":"F3","midi":53,"time":379.1393278749937,"velocity":0.7637795275590551,"duration":0.09286560937499644},{"name":"E3","midi":52,"time":379.230719427077,"velocity":0.7637795275590551,"duration":0.09286560937499644},{"name":"C#5","midi":73,"time":379.24545999999367,"velocity":0.7637795275590551,"duration":0.28154494270836494},{"name":"F3","midi":53,"time":379.32211097916036,"velocity":0.7637795275590551,"duration":0.09286560937499644},{"name":"E3","midi":52,"time":379.4135025312437,"velocity":0.7637795275590551,"duration":0.09286560937499644},{"name":"F3","midi":53,"time":379.50489408332703,"velocity":0.7637795275590551,"duration":0.09286560937499644},{"name":"G5","midi":79,"time":379.5284789999937,"velocity":0.7637795275590551,"duration":0.28154494270836494},{"name":"E3","midi":52,"time":379.59628563541037,"velocity":0.7637795275590551,"duration":0.09286560937499644},{"name":"F3","midi":53,"time":379.6876771874937,"velocity":0.7637795275590551,"duration":0.09286560937499644},{"name":"E3","midi":52,"time":379.77906873957704,"velocity":0.7637795275590551,"duration":0.09286560937499644},{"name":"G5","midi":79,"time":379.8114979999937,"velocity":0.7637795275590551,"duration":0.2815449427083081},{"name":"F3","midi":53,"time":379.8704602916604,"velocity":0.7637795275590551,"duration":0.09286560937499644},{"name":"E3","midi":52,"time":379.9618518437437,"velocity":0.7637795275590551,"duration":0.09286560937499644},{"name":"F3","midi":53,"time":380.05324339582705,"velocity":0.7637795275590551,"duration":0.0928656093749396},{"name":"A#4","midi":70,"time":380.0945169999937,"velocity":0.7637795275590551,"duration":0.2815449427083081},{"name":"E3","midi":52,"time":380.14463494791033,"velocity":0.7637795275590551,"duration":0.09286560937499644},{"name":"F3","midi":53,"time":380.23602649999367,"velocity":0.7637795275590551,"duration":0.09286560937499644},{"name":"E3","midi":52,"time":380.327418052077,"velocity":0.7637795275590551,"duration":0.09286560937499644},{"name":"A4","midi":69,"time":380.37753599999365,"velocity":0.7637795275590551,"duration":0.28154494270836494},{"name":"F3","midi":53,"time":380.41880960416034,"velocity":0.7637795275590551,"duration":0.09286560937499644},{"name":"E3","midi":52,"time":380.5102011562437,"velocity":0.7637795275590551,"duration":0.09286560937499644},{"name":"F3","midi":53,"time":380.601592708327,"velocity":0.7637795275590551,"duration":0.09286560937499644},{"name":"A#4","midi":70,"time":380.6605549999937,"velocity":0.7637795275590551,"duration":0.4245285000000081},{"name":"E3","midi":52,"time":380.69298426041036,"velocity":0.7637795275590551,"duration":0.09286560937499644},{"name":"D3","midi":50,"time":380.7843758124937,"velocity":0.7637795275590551,"duration":0.08254720833332385},{"name":"E3","midi":52,"time":380.8639749062437,"velocity":0.7637795275590551,"duration":0.07812503645834568},{"name":"F3","midi":53,"time":380.9435739999937,"velocity":0.7637795275590551,"duration":1.130601942708438},{"name":"D4","midi":62,"time":381.1263571041604,"velocity":0.7637795275590551,"duration":0.13413921354168679},{"name":"D#4","midi":63,"time":381.2619703749937,"velocity":0.7637795275590551,"duration":0.13413921354168679},{"name":"F4","midi":65,"time":381.39758364582707,"velocity":0.7637795275590551,"duration":0.13413921354168679},{"name":"G4","midi":67,"time":381.5331969166604,"velocity":0.7637795275590551,"duration":0.13413921354168679},{"name":"A4","midi":69,"time":381.66881018749376,"velocity":0.7637795275590551,"duration":0.13413921354168679},{"name":"A#4","midi":70,"time":381.8044234583271,"velocity":0.7637795275590551,"duration":0.13413921354168679},{"name":"C5","midi":72,"time":381.94003672916045,"velocity":0.7637795275590551,"duration":0.13413921354168679},{"name":"D5","midi":74,"time":382.0756499999938,"velocity":0.7637795275590551,"duration":0.2815449427083081},{"name":"D#3","midi":51,"time":382.0756499999938,"velocity":0.7637795275590551,"duration":1.1306019427082106},{"name":"D#5","midi":75,"time":382.35866899999377,"velocity":0.7637795275590551,"duration":0.14003544270832435},{"name":"D5","midi":74,"time":382.50017849999375,"velocity":0.7637795275590551,"duration":0.14003544270832435},{"name":"C5","midi":72,"time":382.64168799999374,"velocity":0.7637795275590551,"duration":0.14003544270832435},{"name":"D5","midi":74,"time":382.7831974999937,"velocity":0.7637795275590551,"duration":0.14003544270832435},{"name":"D#5","midi":75,"time":382.9247069999937,"velocity":0.7637795275590551,"duration":0.14003544270832435},{"name":"C5","midi":72,"time":383.0662164999937,"velocity":0.7637795275590551,"duration":0.14003544270832435},{"name":"A#4","midi":70,"time":383.20772599999367,"velocity":0.7637795275590551,"duration":0.2815449427083081},{"name":"F3","midi":53,"time":383.20772599999367,"velocity":0.7637795275590551,"duration":1.1306019427082106},{"name":"G4","midi":67,"time":383.49074499999364,"velocity":0.7637795275590551,"duration":0.2815449427083081},{"name":"A#4","midi":70,"time":383.7737639999936,"velocity":0.7637795275590551,"duration":0.06928069270833248},{"name":"A4","midi":69,"time":383.8445187499936,"velocity":0.7637795275590551,"duration":0.06928069270833248},{"name":"A#4","midi":70,"time":383.9152734999936,"velocity":0.7637795275590551,"duration":0.06928069270833248},{"name":"A4","midi":69,"time":383.9860282499936,"velocity":0.7637795275590551,"duration":0.20489396354167866},{"name":"A#4","midi":70,"time":384.2248255312436,"velocity":0.7637795275590551,"duration":0.10908023958330659},{"name":"A#4","midi":70,"time":384.33980199999354,"velocity":0.7637795275590551,"duration":1.1306019427083243},{"name":"A#2","midi":46,"time":384.33980199999354,"velocity":0.7637795275590551,"duration":2.830189999999959},{"name":"D3","midi":50,"time":385.11810424999356,"velocity":0.7637795275590551,"duration":0.14003544270832435},{"name":"F3","midi":53,"time":385.25961374999355,"velocity":0.7637795275590551,"duration":0.21079019270831623},{"name":"A#4","midi":70,"time":385.4718779999935,"velocity":0.7637795275590551,"duration":2.2612038854166485},{"name":"A#3","midi":58,"time":385.4718779999935,"velocity":0.7637795275590551,"duration":2.2612038854166485},{"name":"D4","midi":62,"time":385.4718779999935,"velocity":0.7637795275590551,"duration":2.2612038854166485},{"name":"F4","midi":65,"time":385.4718779999935,"velocity":0.7637795275590551,"duration":2.2612038854166485},{"name":"D5","midi":74,"time":391.1322579999935,"velocity":0.7637795275590551,"duration":1.4150949999998943},{"name":"A#3","midi":58,"time":391.1322579999935,"velocity":0.7637795275590551,"duration":0.5645639427083324},{"name":"A#4","midi":70,"time":391.4152769999935,"velocity":0.7637795275590551,"duration":0.2815449427083081},{"name":"A4","midi":69,"time":391.6982959999935,"velocity":0.7637795275590551,"duration":0.2815449427083081},{"name":"F3","midi":53,"time":391.6982959999935,"velocity":0.7637795275590551,"duration":0.5645639427082756},{"name":"A#4","midi":70,"time":391.98131499999346,"velocity":0.7637795275590551,"duration":0.2815449427083081},{"name":"F4","midi":65,"time":392.2643339999934,"velocity":0.7637795275590551,"duration":0.2815449427083081},{"name":"D3","midi":50,"time":392.2643339999934,"velocity":0.7637795275590551,"duration":0.5645639427082756},{"name":"A#4","midi":70,"time":392.5473529999934,"velocity":0.7637795275590551,"duration":0.2815449427083081},{"name":"D5","midi":74,"time":392.83037199999336,"velocity":0.7637795275590551,"duration":0.5601417708333543},{"name":"A#2","midi":46,"time":392.83037199999336,"velocity":0.7637795275590551,"duration":0.5645639427083324},{"name":"A#4","midi":70,"time":393.1133909999934,"velocity":0.7637795275590551,"duration":0.2815449427083081},{"name":"D#5","midi":75,"time":393.39640999999335,"velocity":0.7637795275590551,"duration":0.5601417708333543},{"name":"C3","midi":48,"time":393.39640999999335,"velocity":0.7637795275590551,"duration":0.5645639427083324},{"name":"A#4","midi":70,"time":393.6794289999934,"velocity":0.7637795275590551,"duration":0.2815449427083081},{"name":"F5","midi":77,"time":393.96244799999334,"velocity":0.7637795275590551,"duration":0.4245285000000081},{"name":"D3","midi":50,"time":393.96244799999334,"velocity":0.7637795275590551,"duration":0.5645639427083324},{"name":"A#4","midi":70,"time":394.24546699999337,"velocity":0.7637795275590551,"duration":0.2815449427083081},{"name":"C5","midi":72,"time":394.52848599999334,"velocity":0.7637795275590551,"duration":1.4150949999998943},{"name":"A2","midi":45,"time":394.52848599999334,"velocity":0.7637795275590551,"duration":0.5645639427083324},{"name":"A4","midi":69,"time":394.81150499999336,"velocity":0.7637795275590551,"duration":0.2815449427083081},{"name":"G4","midi":67,"time":395.0945239999933,"velocity":0.7637795275590551,"duration":0.2815449427083081},{"name":"C3","midi":48,"time":395.0945239999933,"velocity":0.7637795275590551,"duration":0.5645639427082756},{"name":"A4","midi":69,"time":395.3775429999933,"velocity":0.7637795275590551,"duration":0.2815449427083081},{"name":"F4","midi":65,"time":395.66056199999326,"velocity":0.7637795275590551,"duration":0.2815449427083081},{"name":"F3","midi":53,"time":395.66056199999326,"velocity":0.7637795275590551,"duration":0.5645639427082756},{"name":"A4","midi":69,"time":395.94358099999323,"velocity":0.7637795275590551,"duration":0.2815449427083081},{"name":"C5","midi":72,"time":396.2265999999932,"velocity":0.7637795275590551,"duration":0.5601417708333543},{"name":"A3","midi":57,"time":396.2265999999932,"velocity":0.7637795275590551,"duration":0.5645639427083324},{"name":"F4","midi":65,"time":396.5096189999932,"velocity":0.7637795275590551,"duration":0.2815449427083081},{"name":"D5","midi":74,"time":396.7926379999932,"velocity":0.7637795275590551,"duration":0.5601417708332974},{"name":"A#3","midi":58,"time":396.7926379999932,"velocity":0.7637795275590551,"duration":0.2815449427083081},{"name":"F4","midi":65,"time":397.07565699999316,"velocity":0.7637795275590551,"duration":0.2815449427083081},{"name":"A3","midi":57,"time":397.07565699999316,"velocity":0.7637795275590551,"duration":0.2815449427083081},{"name":"D#5","midi":75,"time":397.3586759999931,"velocity":0.7637795275590551,"duration":0.42452849999995124},{"name":"G3","midi":55,"time":397.3586759999931,"velocity":0.7637795275590551,"duration":0.2815449427083081},{"name":"F4","midi":65,"time":397.6416949999931,"velocity":0.7637795275590551,"duration":0.2815449427083081},{"name":"F3","midi":53,"time":397.6416949999931,"velocity":0.7637795275590551,"duration":0.2815449427083081},{"name":"D5","midi":74,"time":397.92471399999306,"velocity":0.7637795275590551,"duration":0.5601417708333543},{"name":"A#3","midi":58,"time":397.92471399999306,"velocity":0.7637795275590551,"duration":0.5645639427083324},{"name":"G#4","midi":68,"time":398.2077329999931,"velocity":0.7637795275590551,"duration":0.2815449427083081},{"name":"D#5","midi":75,"time":398.49075199999305,"velocity":0.7637795275590551,"duration":0.5601417708333543},{"name":"C4","midi":60,"time":398.49075199999305,"velocity":0.7637795275590551,"duration":0.5645639427083324},{"name":"G4","midi":67,"time":398.7737709999931,"velocity":0.7637795275590551,"duration":0.2815449427083081},{"name":"F5","midi":77,"time":399.05678999999304,"velocity":0.7637795275590551,"duration":0.5601417708333543},{"name":"D4","midi":62,"time":399.05678999999304,"velocity":0.7637795275590551,"duration":0.5645639427083324},{"name":"F4","midi":65,"time":399.33980899999307,"velocity":0.7637795275590551,"duration":0.2815449427083081},{"name":"G5","midi":79,"time":399.62282799999304,"velocity":0.7637795275590551,"duration":0.5601417708333543},{"name":"D#4","midi":63,"time":399.62282799999304,"velocity":0.7637795275590551,"duration":0.5645639427083324},{"name":"F5","midi":77,"time":399.90584699999306,"velocity":0.7637795275590551,"duration":0.2815449427083081},{"name":"A5","midi":81,"time":400.188865999993,"velocity":0.7637795275590551,"duration":0.5601417708333543},{"name":"F4","midi":65,"time":400.188865999993,"velocity":0.7637795275590551,"duration":0.5645639427083324},{"name":"D#5","midi":75,"time":400.47188499999305,"velocity":0.7637795275590551,"duration":0.2815449427083081},{"name":"A#5","midi":82,"time":400.754903999993,"velocity":0.7637795275590551,"duration":0.4245285000000081},{"name":"G4","midi":67,"time":400.754903999993,"velocity":0.7637795275590551,"duration":0.5645639427083324},{"name":"D5","midi":74,"time":401.03792299999304,"velocity":0.7637795275590551,"duration":0.2815449427083081},{"name":"C5","midi":72,"time":401.320941999993,"velocity":0.7637795275590551,"duration":0.5601417708333543},{"name":"A4","midi":69,"time":401.320941999993,"velocity":0.7637795275590551,"duration":0.5645639427083324},{"name":"D#5","midi":75,"time":401.60396099999303,"velocity":0.7637795275590551,"duration":0.2815449427083081},{"name":"D5","midi":74,"time":401.886979999993,"velocity":0.7637795275590551,"duration":0.2815449427083081},{"name":"A#4","midi":70,"time":401.886979999993,"velocity":0.7637795275590551,"duration":0.5645639427082756},{"name":"C5","midi":72,"time":402.16999899999297,"velocity":0.7637795275590551,"duration":0.2815449427083081},{"name":"D5","midi":74,"time":402.45301799999294,"velocity":0.7637795275590551,"duration":0.2815449427083081},{"name":"A#3","midi":58,"time":402.45301799999294,"velocity":0.7637795275590551,"duration":0.5645639427082756},{"name":"A#4","midi":70,"time":402.7360369999929,"velocity":0.7637795275590551,"duration":0.2815449427083081},{"name":"C5","midi":72,"time":403.0190559999929,"velocity":0.7637795275590551,"duration":1.4150949999998943},{"name":"F4","midi":65,"time":403.0190559999929,"velocity":0.7637795275590551,"duration":0.5645639427083324},{"name":"A4","midi":69,"time":403.3020749999929,"velocity":0.7637795275590551,"duration":0.2815449427083081},{"name":"G4","midi":67,"time":403.58509399999286,"velocity":0.7637795275590551,"duration":0.2815449427083081},{"name":"F3","midi":53,"time":403.58509399999286,"velocity":0.7637795275590551,"duration":0.5645639427082756},{"name":"A4","midi":69,"time":403.86811299999283,"velocity":0.7637795275590551,"duration":0.2815449427083081},{"name":"F4","midi":65,"time":404.1511319999928,"velocity":0.7637795275590551,"duration":0.2815449427083081},{"name":"A3","midi":57,"time":404.1511319999928,"velocity":0.7637795275590551,"duration":0.5645639427082756},{"name":"D#5","midi":75,"time":404.43415099999277,"velocity":0.7637795275590551,"duration":0.2815449427083081},{"name":"D5","midi":74,"time":404.71716999999273,"velocity":0.7637795275590551,"duration":1.4150949999998943},{"name":"A#3","midi":58,"time":404.71716999999273,"velocity":0.7637795275590551,"duration":0.5645639427083324},{"name":"A#4","midi":70,"time":405.00018899999276,"velocity":0.7637795275590551,"duration":0.2815449427083081},{"name":"A4","midi":69,"time":405.2832079999927,"velocity":0.7637795275590551,"duration":0.2815449427083081},{"name":"F3","midi":53,"time":405.2832079999927,"velocity":0.7637795275590551,"duration":0.5645639427082756},{"name":"A#4","midi":70,"time":405.5662269999927,"velocity":0.7637795275590551,"duration":0.2815449427083081},{"name":"F4","midi":65,"time":405.84924599999266,"velocity":0.7637795275590551,"duration":0.2815449427083081},{"name":"D3","midi":50,"time":405.84924599999266,"velocity":0.7637795275590551,"duration":0.5645639427082756},{"name":"A#4","midi":70,"time":406.1322649999926,"velocity":0.7637795275590551,"duration":0.2815449427083081},{"name":"D5","midi":74,"time":406.4152839999926,"velocity":0.7637795275590551,"duration":0.5601417708333543},{"name":"A#2","midi":46,"time":406.4152839999926,"velocity":0.7637795275590551,"duration":0.5645639427083324},{"name":"A#4","midi":70,"time":406.6983029999926,"velocity":0.7637795275590551,"duration":0.2815449427083081},{"name":"D#5","midi":75,"time":406.9813219999926,"velocity":0.7637795275590551,"duration":0.4245285000000081},{"name":"C3","midi":48,"time":406.9813219999926,"velocity":0.7637795275590551,"duration":0.5645639427083324},{"name":"A#4","midi":70,"time":407.2643409999926,"velocity":0.7637795275590551,"duration":0.2815449427083081},{"name":"F5","midi":77,"time":407.5473599999926,"velocity":0.7637795275590551,"duration":0.4245285000000081},{"name":"D3","midi":50,"time":407.5473599999926,"velocity":0.7637795275590551,"duration":0.5645639427083324},{"name":"A#4","midi":70,"time":407.8303789999926,"velocity":0.7637795275590551,"duration":0.2815449427083081},{"name":"C5","midi":72,"time":408.11339799999257,"velocity":0.7637795275590551,"duration":1.4150949999998943},{"name":"A2","midi":45,"time":408.11339799999257,"velocity":0.7637795275590551,"duration":0.5645639427083324},{"name":"A4","midi":69,"time":408.3964169999926,"velocity":0.7637795275590551,"duration":0.2815449427083081},{"name":"G4","midi":67,"time":408.67943599999256,"velocity":0.7637795275590551,"duration":0.2815449427083081},{"name":"C3","midi":48,"time":408.67943599999256,"velocity":0.7637795275590551,"duration":0.5645639427082756},{"name":"A4","midi":69,"time":408.96245499999253,"velocity":0.7637795275590551,"duration":0.2815449427083081},{"name":"F4","midi":65,"time":409.2454739999925,"velocity":0.7637795275590551,"duration":0.2815449427083081},{"name":"F3","midi":53,"time":409.2454739999925,"velocity":0.7637795275590551,"duration":0.5645639427082756},{"name":"A4","midi":69,"time":409.52849299999247,"velocity":0.7637795275590551,"duration":0.2815449427083081},{"name":"C5","midi":72,"time":409.81151199999243,"velocity":0.7637795275590551,"duration":0.5601417708333543},{"name":"A3","midi":57,"time":409.81151199999243,"velocity":0.7637795275590551,"duration":0.5645639427083324},{"name":"F4","midi":65,"time":410.09453099999246,"velocity":0.7637795275590551,"duration":0.2815449427083081},{"name":"D5","midi":74,"time":410.3775499999924,"velocity":0.7637795275590551,"duration":0.42452849999995124},{"name":"A#3","midi":58,"time":410.3775499999924,"velocity":0.7637795275590551,"duration":0.2815449427083081},{"name":"F4","midi":65,"time":410.6605689999924,"velocity":0.7637795275590551,"duration":0.2815449427083081},{"name":"A3","midi":57,"time":410.6605689999924,"velocity":0.7637795275590551,"duration":0.2815449427083081},{"name":"D#5","midi":75,"time":410.94358799999236,"velocity":0.7637795275590551,"duration":0.42452849999995124},{"name":"G3","midi":55,"time":410.94358799999236,"velocity":0.7637795275590551,"duration":0.2815449427083081},{"name":"F4","midi":65,"time":411.2266069999923,"velocity":0.7637795275590551,"duration":0.2815449427083081},{"name":"F3","midi":53,"time":411.2266069999923,"velocity":0.7637795275590551,"duration":0.2815449427083081},{"name":"D5","midi":74,"time":411.5096259999923,"velocity":0.7637795275590551,"duration":0.5601417708333543},{"name":"A#3","midi":58,"time":411.5096259999923,"velocity":0.7637795275590551,"duration":0.5645639427083324},{"name":"C5","midi":72,"time":411.7926449999923,"velocity":0.7637795275590551,"duration":0.2815449427083081},{"name":"E5","midi":76,"time":412.0756639999923,"velocity":0.7637795275590551,"duration":0.4245285000000081},{"name":"C4","midi":60,"time":412.0756639999923,"velocity":0.7637795275590551,"duration":0.5645639427083324},{"name":"A#4","midi":70,"time":412.3586829999923,"velocity":0.7637795275590551,"duration":0.2815449427083081},{"name":"F5","midi":77,"time":412.6417019999923,"velocity":0.7637795275590551,"duration":0.4245285000000081},{"name":"D4","midi":62,"time":412.6417019999923,"velocity":0.7637795275590551,"duration":0.5645639427083324},{"name":"A4","midi":69,"time":412.9247209999923,"velocity":0.7637795275590551,"duration":0.2815449427083081},{"name":"G4","midi":67,"time":413.20773999999227,"velocity":0.7637795275590551,"duration":0.5601417708333543},{"name":"E3","midi":52,"time":413.20773999999227,"velocity":0.7637795275590551,"duration":0.5645639427083324},{"name":"A#4","midi":70,"time":413.4907589999923,"velocity":0.7637795275590551,"duration":0.2815449427083081},{"name":"F4","midi":65,"time":413.77377799999226,"velocity":0.7637795275590551,"duration":0.4245285000000081},{"name":"D3","midi":50,"time":413.77377799999226,"velocity":0.7637795275590551,"duration":0.5645639427083324},{"name":"A#4","midi":70,"time":414.0567969999923,"velocity":0.7637795275590551,"duration":0.2815449427083081},{"name":"E4","midi":64,"time":414.33981599999225,"velocity":0.7637795275590551,"duration":0.4245285000000081},{"name":"C3","midi":48,"time":414.33981599999225,"velocity":0.7637795275590551,"duration":0.5645639427083324},{"name":"A#4","midi":70,"time":414.6228349999923,"velocity":0.7637795275590551,"duration":0.2815449427083081},{"name":"A4","midi":69,"time":414.90585399999225,"velocity":0.7637795275590551,"duration":0.5601417708333543},{"name":"F3","midi":53,"time":414.90585399999225,"velocity":0.7637795275590551,"duration":0.5645639427083324},{"name":"C5","midi":72,"time":415.18887299999227,"velocity":0.7637795275590551,"duration":0.2815449427083081},{"name":"A4","midi":69,"time":415.47189199999224,"velocity":0.7637795275590551,"duration":0.2815449427083081},{"name":"A#2","midi":46,"time":415.47189199999224,"velocity":0.7637795275590551,"duration":0.5645639427082756},{"name":"F4","midi":65,"time":415.7549109999922,"velocity":0.7637795275590551,"duration":0.2815449427083081},{"name":"C4","midi":60,"time":416.0379299999922,"velocity":0.7637795275590551,"duration":0.2815449427083081},{"name":"C3","midi":48,"time":416.0379299999922,"velocity":0.7637795275590551,"duration":0.5645639427082756},{"name":"E4","midi":64,"time":416.32094899999214,"velocity":0.7637795275590551,"duration":0.2815449427083081},{"name":"F4","midi":65,"time":416.6039679999921,"velocity":0.7637795275590551,"duration":1.1306019427083243},{"name":"F3","midi":53,"time":416.6039679999921,"velocity":0.7637795275590551,"duration":0.5645639427083324},{"name":"C3","midi":48,"time":417.1700059999921,"velocity":0.7637795275590551,"duration":0.5645639427083324},{"name":"A2","midi":45,"time":417.7360439999921,"velocity":0.7637795275590551,"duration":0.5645639427083324},{"name":"A5","midi":81,"time":418.3020819999921,"velocity":0.7637795275590551,"duration":1.4150949999998943},{"name":"F2","midi":41,"time":418.3020819999921,"velocity":0.7637795275590551,"duration":0.5645639427083324},{"name":"F5","midi":77,"time":418.5851009999921,"velocity":0.7637795275590551,"duration":0.2815449427083081},{"name":"E5","midi":76,"time":418.8681199999921,"velocity":0.7637795275590551,"duration":0.2815449427083081},{"name":"C3","midi":48,"time":418.8681199999921,"velocity":0.7637795275590551,"duration":0.5645639427082756},{"name":"F5","midi":77,"time":419.15113899999204,"velocity":0.7637795275590551,"duration":0.2815449427083081},{"name":"C5","midi":72,"time":419.434157999992,"velocity":0.7637795275590551,"duration":0.2815449427083081},{"name":"F3","midi":53,"time":419.434157999992,"velocity":0.7637795275590551,"duration":0.5645639427082756},{"name":"F5","midi":77,"time":419.717176999992,"velocity":0.7637795275590551,"duration":0.2815449427083081},{"name":"A5","midi":81,"time":420.00019599999194,"velocity":0.7637795275590551,"duration":0.5601417708333543},{"name":"D#3","midi":51,"time":420.00019599999194,"velocity":0.7637795275590551,"duration":0.5645639427083324},{"name":"F5","midi":77,"time":420.28321499999197,"velocity":0.7637795275590551,"duration":0.2815449427083081},{"name":"A#5","midi":82,"time":420.56623399999194,"velocity":0.7637795275590551,"duration":0.5601417708333543},{"name":"D3","midi":50,"time":420.56623399999194,"velocity":0.7637795275590551,"duration":0.5645639427083324},{"name":"F5","midi":77,"time":420.84925299999196,"velocity":0.7637795275590551,"duration":0.2815449427083081},{"name":"A5","midi":81,"time":421.13227199999193,"velocity":0.7637795275590551,"duration":0.5601417708333543},{"name":"A#2","midi":46,"time":421.13227199999193,"velocity":0.7637795275590551,"duration":0.5645639427083324},{"name":"F5","midi":77,"time":421.41529099999195,"velocity":0.7637795275590551,"duration":0.2815449427083081},{"name":"G5","midi":79,"time":421.6983099999919,"velocity":0.7637795275590551,"duration":1.695165885416543},{"name":"D#3","midi":51,"time":421.6983099999919,"velocity":0.7637795275590551,"duration":0.5645639427083324},{"name":"D#5","midi":75,"time":421.98132899999194,"velocity":0.7637795275590551,"duration":0.2815449427083081},{"name":"D5","midi":74,"time":422.2643479999919,"velocity":0.7637795275590551,"duration":0.2815449427083081},{"name":"G3","midi":55,"time":422.2643479999919,"velocity":0.7637795275590551,"duration":0.5645639427082756},{"name":"D#5","midi":75,"time":422.5473669999919,"velocity":0.7637795275590551,"duration":0.2815449427083081},{"name":"C5","midi":72,"time":422.83038599999185,"velocity":0.7637795275590551,"duration":0.2815449427083081},{"name":"G#3","midi":56,"time":422.83038599999185,"velocity":0.7637795275590551,"duration":0.5645639427082756},{"name":"D#5","midi":75,"time":423.1134049999918,"velocity":0.7637795275590551,"duration":0.2815449427083081},{"name":"F5","midi":77,"time":423.3964239999918,"velocity":0.7637795275590551,"duration":0.2815449427083081},{"name":"D3","midi":50,"time":423.3964239999918,"velocity":0.7637795275590551,"duration":0.5645639427082756},{"name":"D5","midi":74,"time":423.67944299999175,"velocity":0.7637795275590551,"duration":0.5601417708332974},{"name":"F5","midi":77,"time":423.9624619999917,"velocity":0.7637795275590551,"duration":0.2815449427083081},{"name":"G3","midi":55,"time":423.9624619999917,"velocity":0.7637795275590551,"duration":0.5645639427082756},{"name":"C5","midi":72,"time":424.2454809999917,"velocity":0.7637795275590551,"duration":0.5601417708332974},{"name":"F5","midi":77,"time":424.52849999999165,"velocity":0.7637795275590551,"duration":0.2815449427083081},{"name":"G2","midi":43,"time":424.52849999999165,"velocity":0.7637795275590551,"duration":0.5645639427082756},{"name":"B4","midi":71,"time":424.8115189999916,"velocity":0.7637795275590551,"duration":0.2815449427083081},{"name":"C5","midi":72,"time":425.0945379999916,"velocity":0.7637795275590551,"duration":0.5601417708333543},{"name":"C3","midi":48,"time":425.0945379999916,"velocity":0.7637795275590551,"duration":0.5645639427083324},{"name":"D#5","midi":75,"time":425.3775569999916,"velocity":0.7637795275590551,"duration":0.2815449427083081},{"name":"F#5","midi":78,"time":425.6605759999916,"velocity":0.7637795275590551,"duration":0.5601417708333543},{"name":"A3","midi":57,"time":425.6605759999916,"velocity":0.7637795275590551,"duration":0.5645639427083324},{"name":"C5","midi":72,"time":425.9435949999916,"velocity":0.7637795275590551,"duration":0.2815449427083081},{"name":"A5","midi":81,"time":426.22661399999157,"velocity":0.7637795275590551,"duration":0.4245285000000081},{"name":"G3","midi":55,"time":426.22661399999157,"velocity":0.7637795275590551,"duration":0.5645639427083324},{"name":"C5","midi":72,"time":426.5096329999916,"velocity":0.7637795275590551,"duration":0.2815449427083081},{"name":"A4","midi":69,"time":426.79265199999156,"velocity":0.7637795275590551,"duration":0.5601417708333543},{"name":"F#3","midi":54,"time":426.79265199999156,"velocity":0.7637795275590551,"duration":0.5645639427083324},{"name":"C5","midi":72,"time":427.0756709999916,"velocity":0.7637795275590551,"duration":0.2815449427083081},{"name":"F#4","midi":66,"time":427.35868999999155,"velocity":0.7637795275590551,"duration":0.5601417708333543},{"name":"D3","midi":50,"time":427.35868999999155,"velocity":0.7637795275590551,"duration":0.5645639427083324},{"name":"C5","midi":72,"time":427.6417089999916,"velocity":0.7637795275590551,"duration":0.2815449427083081},{"name":"D4","midi":62,"time":427.92472799999155,"velocity":0.7637795275590551,"duration":0.4245285000000081},{"name":"F#3","midi":54,"time":427.92472799999155,"velocity":0.7637795275590551,"duration":0.5645639427083324},{"name":"C5","midi":72,"time":428.20774699999157,"velocity":0.7637795275590551,"duration":0.2815449427083081},{"name":"A#4","midi":70,"time":428.49076599999154,"velocity":0.7637795275590551,"duration":0.8475829427082999},{"name":"G3","midi":55,"time":428.49076599999154,"velocity":0.7637795275590551,"duration":0.5645639427083324},{"name":"D#5","midi":75,"time":428.77378499999156,"velocity":0.7637795275590551,"duration":0.2815449427083081},{"name":"D5","midi":74,"time":429.05680399999153,"velocity":0.7637795275590551,"duration":0.2815449427083081},{"name":"A#2","midi":46,"time":429.05680399999153,"velocity":0.7637795275590551,"duration":0.5645639427082756},{"name":"A#4","midi":70,"time":429.3398229999915,"velocity":0.7637795275590551,"duration":0.2815449427083081},{"name":"C5","midi":72,"time":429.62284199999146,"velocity":0.7637795275590551,"duration":0.2815449427083081},{"name":"D3","midi":50,"time":429.62284199999146,"velocity":0.7637795275590551,"duration":0.5645639427082756},{"name":"A4","midi":69,"time":429.90586099999143,"velocity":0.7637795275590551,"duration":0.2815449427083081},{"name":"G4","midi":67,"time":430.1888799999914,"velocity":0.7637795275590551,"duration":0.7665097916665786},{"name":"G2","midi":43,"time":430.1888799999914,"velocity":0.7637795275590551,"duration":0.2815449427083081},{"name":"A2","midi":45,"time":430.47189899999137,"velocity":0.7637795275590551,"duration":0.2815449427083081},{"name":"A#2","midi":46,"time":430.75491799999133,"velocity":0.7637795275590551,"duration":0.2815449427083081},{"name":"A4","midi":69,"time":431.0379369999913,"velocity":0.7637795275590551,"duration":0.14003544270832435},{"name":"C3","midi":48,"time":431.0379369999913,"velocity":0.7637795275590551,"duration":0.2815449427083081},{"name":"A#4","midi":70,"time":431.1794464999913,"velocity":0.7637795275590551,"duration":0.14003544270832435},{"name":"A4","midi":69,"time":431.32095599999127,"velocity":0.7637795275590551,"duration":0.14003544270832435},{"name":"D3","midi":50,"time":431.32095599999127,"velocity":0.7637795275590551,"duration":0.2815449427083081},{"name":"G4","midi":67,"time":431.46246549999125,"velocity":0.7637795275590551,"duration":0.14003544270832435},{"name":"F4","midi":65,"time":431.60397499999124,"velocity":0.7637795275590551,"duration":0.14003544270832435},{"name":"D#3","midi":51,"time":431.60397499999124,"velocity":0.7637795275590551,"duration":0.2815449427083081},{"name":"D#4","midi":63,"time":431.7454844999912,"velocity":0.7637795275590551,"duration":0.14003544270832435},{"name":"D4","midi":62,"time":431.8869939999912,"velocity":0.7637795275590551,"duration":1.1306019427082674},{"name":"F3","midi":53,"time":431.8869939999912,"velocity":0.7637795275590551,"duration":0.5645639427083324},{"name":"A#4","midi":70,"time":432.17001299999123,"velocity":0.7637795275590551,"duration":0.2815449427083081},{"name":"A4","midi":69,"time":432.4530319999912,"velocity":0.7637795275590551,"duration":0.2815449427083081},{"name":"D#3","midi":51,"time":432.4530319999912,"velocity":0.7637795275590551,"duration":0.5645639427082756},{"name":"A#4","midi":70,"time":432.73605099999116,"velocity":0.7637795275590551,"duration":0.5601417708332974},{"name":"F5","midi":77,"time":433.01906999999113,"velocity":0.7637795275590551,"duration":0.5601417708333543},{"name":"D3","midi":50,"time":433.01906999999113,"velocity":0.7637795275590551,"duration":0.5645639427083324},{"name":"A#4","midi":70,"time":433.30208899999116,"velocity":0.7637795275590551,"duration":0.5601417708332974},{"name":"G#5","midi":80,"time":433.5851079999911,"velocity":0.7637795275590551,"duration":0.5601417708333543},{"name":"F3","midi":53,"time":433.5851079999911,"velocity":0.7637795275590551,"duration":0.5645639427083324},{"name":"A#4","midi":70,"time":433.86812699999115,"velocity":0.7637795275590551,"duration":0.5601417708332974},{"name":"G5","midi":79,"time":434.1511459999911,"velocity":0.7637795275590551,"duration":0.5601417708333543},{"name":"D#3","midi":51,"time":434.1511459999911,"velocity":0.7637795275590551,"duration":0.5645639427083324},{"name":"A#4","midi":70,"time":434.43416499999114,"velocity":0.7637795275590551,"duration":0.5601417708332974},{"name":"F5","midi":77,"time":434.7171839999911,"velocity":0.7637795275590551,"duration":0.4245285000000081},{"name":"D3","midi":50,"time":434.7171839999911,"velocity":0.7637795275590551,"duration":0.5645639427083324},{"name":"A#4","midi":70,"time":435.00020299999113,"velocity":0.7637795275590551,"duration":0.2815449427083081},{"name":"D#4","midi":63,"time":435.2832219999911,"velocity":0.7637795275590551,"duration":1.1306019427082674},{"name":"G3","midi":55,"time":435.2832219999911,"velocity":0.7637795275590551,"duration":0.5645639427083324},{"name":"A#4","midi":70,"time":435.5662409999911,"velocity":0.7637795275590551,"duration":0.2815449427083081},{"name":"A4","midi":69,"time":435.8492599999911,"velocity":0.7637795275590551,"duration":0.2815449427083081},{"name":"F3","midi":53,"time":435.8492599999911,"velocity":0.7637795275590551,"duration":0.5645639427082756},{"name":"A#4","midi":70,"time":436.13227899999106,"velocity":0.7637795275590551,"duration":0.5601417708332974},{"name":"G5","midi":79,"time":436.415297999991,"velocity":0.7637795275590551,"duration":0.4245285000000081},{"name":"D#3","midi":51,"time":436.415297999991,"velocity":0.7637795275590551,"duration":0.5645639427083324},{"name":"A#4","midi":70,"time":436.69831699999105,"velocity":0.7637795275590551,"duration":0.2815449427083081},{"name":"D#4","midi":63,"time":436.981335999991,"velocity":0.7637795275590551,"duration":0.5601417708333543},{"name":"G3","midi":55,"time":436.981335999991,"velocity":0.7637795275590551,"duration":0.5645639427083324},{"name":"A#4","midi":70,"time":437.26435499999104,"velocity":0.7637795275590551,"duration":0.2815449427083081},{"name":"F4","midi":65,"time":437.547373999991,"velocity":0.7637795275590551,"duration":0.5601417708333543},{"name":"F3","midi":53,"time":437.547373999991,"velocity":0.7637795275590551,"duration":0.5645639427083324},{"name":"A#4","midi":70,"time":437.83039299999103,"velocity":0.7637795275590551,"duration":0.2815449427083081},{"name":"G4","midi":67,"time":438.113411999991,"velocity":0.7637795275590551,"duration":0.5601417708333543},{"name":"D#3","midi":51,"time":438.113411999991,"velocity":0.7637795275590551,"duration":0.5645639427083324},{"name":"A#4","midi":70,"time":438.396430999991,"velocity":0.7637795275590551,"duration":0.2815449427083081},{"name":"C5","midi":72,"time":438.679449999991,"velocity":0.7637795275590551,"duration":0.5601417708333543},{"name":"G#3","midi":56,"time":438.679449999991,"velocity":0.7637795275590551,"duration":0.5645639427083324},{"name":"A#4","midi":70,"time":438.962468999991,"velocity":0.7637795275590551,"duration":0.2815449427083081},{"name":"D5","midi":74,"time":439.245487999991,"velocity":0.7637795275590551,"duration":0.5601417708333543},{"name":"A#3","midi":58,"time":439.245487999991,"velocity":0.7637795275590551,"duration":0.5645639427083324},{"name":"G#4","midi":68,"time":439.528506999991,"velocity":0.7637795275590551,"duration":0.2815449427083081},{"name":"D#5","midi":75,"time":439.811525999991,"velocity":0.7637795275590551,"duration":0.5601417708333543},{"name":"C4","midi":60,"time":439.811525999991,"velocity":0.7637795275590551,"duration":0.5645639427083324},{"name":"G4","midi":67,"time":440.094544999991,"velocity":0.7637795275590551,"duration":0.2815449427083081},{"name":"F5","midi":77,"time":440.37756399999097,"velocity":0.7637795275590551,"duration":0.5601417708333543},{"name":"D4","midi":62,"time":440.37756399999097,"velocity":0.7637795275590551,"duration":0.5645639427083324},{"name":"D#5","midi":75,"time":440.660582999991,"velocity":0.7637795275590551,"duration":0.2815449427083081},{"name":"G5","midi":79,"time":440.94360199999096,"velocity":0.7637795275590551,"duration":0.5601417708333543},{"name":"D#4","midi":63,"time":440.94360199999096,"velocity":0.7637795275590551,"duration":0.5645639427083324},{"name":"D5","midi":74,"time":441.226620999991,"velocity":0.7637795275590551,"duration":0.2815449427083081},{"name":"A5","midi":81,"time":441.50963999999095,"velocity":0.7637795275590551,"duration":0.5601417708333543},{"name":"F4","midi":65,"time":441.50963999999095,"velocity":0.7637795275590551,"duration":0.5645639427083324},{"name":"C5","midi":72,"time":441.792658999991,"velocity":0.7637795275590551,"duration":0.2815449427083081},{"name":"A#5","midi":82,"time":442.07567799999094,"velocity":0.7637795275590551,"duration":0.2815449427083081},{"name":"G4","midi":67,"time":442.07567799999094,"velocity":0.7637795275590551,"duration":0.5645639427082756},{"name":"A5","midi":81,"time":442.3586969999909,"velocity":0.7637795275590551,"duration":0.2815449427083081},{"name":"G5","midi":79,"time":442.6417159999909,"velocity":0.7637795275590551,"duration":0.2815449427083081},{"name":"A4","midi":69,"time":442.6417159999909,"velocity":0.7637795275590551,"duration":0.5645639427082756},{"name":"F5","midi":77,"time":442.92473499999085,"velocity":0.7637795275590551,"duration":0.2815449427083081},{"name":"D#5","midi":75,"time":443.2077539999908,"velocity":0.7637795275590551,"duration":0.2815449427083081},{"name":"A#4","midi":70,"time":443.2077539999908,"velocity":0.7637795275590551,"duration":0.5645639427082756},{"name":"D5","midi":74,"time":443.4907729999908,"velocity":0.7637795275590551,"duration":0.2815449427083081},{"name":"C5","midi":72,"time":443.77379199999075,"velocity":0.7637795275590551,"duration":0.2815449427083081},{"name":"F4","midi":65,"time":443.77379199999075,"velocity":0.7637795275590551,"duration":0.5645639427082756},{"name":"A#4","midi":70,"time":444.0568109999907,"velocity":0.7637795275590551,"duration":0.2815449427083081},{"name":"A4","midi":69,"time":444.3398299999907,"velocity":0.7637795275590551,"duration":0.2815449427083081},{"name":"F3","midi":53,"time":444.3398299999907,"velocity":0.7637795275590551,"duration":0.5645639427082756},{"name":"G4","midi":67,"time":444.62284899999065,"velocity":0.7637795275590551,"duration":0.2815449427083081},{"name":"F4","midi":65,"time":444.9058679999906,"velocity":0.7637795275590551,"duration":0.2815449427083081},{"name":"A3","midi":57,"time":444.9058679999906,"velocity":0.7637795275590551,"duration":0.5645639427082756},{"name":"D#4","midi":63,"time":445.1888869999906,"velocity":0.7637795275590551,"duration":0.2815449427083081},{"name":"D4","midi":62,"time":445.47190599999055,"velocity":0.7637795275590551,"duration":0.5645639427083324},{"name":"F5","midi":77,"time":445.7549249999906,"velocity":0.7637795275590551,"duration":0.2815449427083081},{"name":"G5","midi":79,"time":446.03794399999055,"velocity":0.7637795275590551,"duration":0.2815449427083081},{"name":"D3","midi":50,"time":446.03794399999055,"velocity":0.7637795275590551,"duration":0.5645639427082756},{"name":"F5","midi":77,"time":446.3209629999905,"velocity":0.7637795275590551,"duration":0.42452849999995124},{"name":"C5","midi":72,"time":446.6039819999905,"velocity":0.7637795275590551,"duration":0.5601417708332974},{"name":"F3","midi":53,"time":446.6039819999905,"velocity":0.7637795275590551,"duration":0.5645639427082756},{"name":"F5","midi":77,"time":446.88700099999045,"velocity":0.7637795275590551,"duration":0.42452849999995124},{"name":"B4","midi":71,"time":447.1700199999904,"velocity":0.7637795275590551,"duration":0.5601417708332974},{"name":"G3","midi":55,"time":447.1700199999904,"velocity":0.7637795275590551,"duration":0.5645639427082756},{"name":"F5","midi":77,"time":447.4530389999904,"velocity":0.7637795275590551,"duration":0.42452849999995124},{"name":"A4","midi":69,"time":447.73605799999035,"velocity":0.7637795275590551,"duration":0.5601417708332974},{"name":"A3","midi":57,"time":447.73605799999035,"velocity":0.7637795275590551,"duration":0.5645639427082756},{"name":"F5","midi":77,"time":448.0190769999903,"velocity":0.7637795275590551,"duration":0.42452849999995124},{"name":"G4","midi":67,"time":448.3020959999903,"velocity":0.7637795275590551,"duration":0.42452849999995124},{"name":"B3","midi":59,"time":448.3020959999903,"velocity":0.7637795275590551,"duration":0.5645639427082756},{"name":"F5","midi":77,"time":448.58511499999025,"velocity":0.7637795275590551,"duration":0.2815449427083081},{"name":"C4","midi":60,"time":448.8681339999902,"velocity":0.7637795275590551,"duration":0.5645639427083324},{"name":"D#5","midi":75,"time":449.15115299999025,"velocity":0.7637795275590551,"duration":0.2815449427083081},{"name":"F5","midi":77,"time":449.4341719999902,"velocity":0.7637795275590551,"duration":0.2815449427083081},{"name":"C3","midi":48,"time":449.4341719999902,"velocity":0.7637795275590551,"duration":0.5645639427082756},{"name":"D#5","midi":75,"time":449.7171909999902,"velocity":0.7637795275590551,"duration":0.42452849999995124},{"name":"A#4","midi":70,"time":450.00020999999015,"velocity":0.7637795275590551,"duration":0.5601417708332974},{"name":"D#3","midi":51,"time":450.00020999999015,"velocity":0.7637795275590551,"duration":0.5645639427082756},{"name":"D#5","midi":75,"time":450.2832289999901,"velocity":0.7637795275590551,"duration":0.42452849999995124},{"name":"A4","midi":69,"time":450.5662479999901,"velocity":0.7637795275590551,"duration":0.5601417708332974},{"name":"F3","midi":53,"time":450.5662479999901,"velocity":0.7637795275590551,"duration":0.5645639427082756},{"name":"D#5","midi":75,"time":450.84926699999005,"velocity":0.7637795275590551,"duration":0.42452849999995124},{"name":"G4","midi":67,"time":451.13228599999,"velocity":0.7637795275590551,"duration":0.5601417708332974},{"name":"G3","midi":55,"time":451.13228599999,"velocity":0.7637795275590551,"duration":0.5645639427082756},{"name":"D#5","midi":75,"time":451.41530499999,"velocity":0.7637795275590551,"duration":0.42452849999995124},{"name":"F4","midi":65,"time":451.69832399998995,"velocity":0.7637795275590551,"duration":0.42452849999995124},{"name":"A3","midi":57,"time":451.69832399998995,"velocity":0.7637795275590551,"duration":0.5645639427082756},{"name":"D#5","midi":75,"time":451.9813429999899,"velocity":0.7637795275590551,"duration":0.2815449427083081},{"name":"D5","midi":74,"time":452.2643619999899,"velocity":0.7637795275590551,"duration":0.5601417708333543},{"name":"A#3","midi":58,"time":452.2643619999899,"velocity":0.7637795275590551,"duration":0.5645639427083324},{"name":"F5","midi":77,"time":452.5473809999899,"velocity":0.7637795275590551,"duration":0.2815449427083081},{"name":"D5","midi":74,"time":452.8303999999899,"velocity":0.7637795275590551,"duration":0.2815449427083081},{"name":"D#3","midi":51,"time":452.8303999999899,"velocity":0.7637795275590551,"duration":0.5645639427082756},{"name":"A#4","midi":70,"time":453.11341899998985,"velocity":0.7637795275590551,"duration":0.2815449427083081},{"name":"F4","midi":65,"time":453.3964379999898,"velocity":0.7637795275590551,"duration":0.2815449427083081},{"name":"F3","midi":53,"time":453.3964379999898,"velocity":0.7637795275590551,"duration":0.5645639427082756},{"name":"A4","midi":69,"time":453.6794569999898,"velocity":0.7637795275590551,"duration":0.2815449427083081},{"name":"A#4","midi":70,"time":453.96247599998975,"velocity":0.7637795275590551,"duration":1.1306019427083243},{"name":"A#2","midi":46,"time":453.96247599998975,"velocity":0.7637795275590551,"duration":0.5645639427083324},{"name":"D3","midi":50,"time":454.52851399998974,"velocity":0.7637795275590551,"duration":0.5645639427083324},{"name":"F3","midi":53,"time":455.09455199998973,"velocity":0.7637795275590551,"duration":0.5645639427083324},{"name":"A#4","midi":70,"time":455.6605899999897,"velocity":0.7637795275590551,"duration":1.1306019427083243},{"name":"A#3","midi":58,"time":455.6605899999897,"velocity":0.7637795275590551,"duration":3.3903317708333134},{"name":"C4","midi":60,"time":456.2266279999897,"velocity":0.7637795275590551,"duration":0.5645639427083324},{"name":"F4","midi":65,"time":456.7926659999897,"velocity":0.7637795275590551,"duration":0.5645639427083324},{"name":"D4","midi":62,"time":456.7926659999897,"velocity":0.7637795275590551,"duration":0.5645639427083324},{"name":"G4","midi":67,"time":457.3587039999897,"velocity":0.7637795275590551,"duration":0.5645639427083324},{"name":"D#4","midi":63,"time":457.3587039999897,"velocity":0.7637795275590551,"duration":0.5645639427083324},{"name":"G#4","midi":68,"time":457.9247419999897,"velocity":0.7637795275590551,"duration":0.943396666666672},{"name":"F4","midi":65,"time":457.9247419999897,"velocity":0.7637795275590551,"duration":1.1306019427083243},{"name":"D4","midi":62,"time":458.4907799999897,"velocity":0.7637795275590551,"duration":0.5645639427083324},{"name":"G4","midi":67,"time":459.0568179999897,"velocity":0.7637795275590551,"duration":0.5645639427083324},{"name":"D#4","midi":63,"time":459.0568179999897,"velocity":0.7637795275590551,"duration":1.1306019427083243},{"name":"D#5","midi":75,"time":459.62285599998967,"velocity":0.7637795275590551,"duration":0.5645639427083324},{"name":"A4","midi":69,"time":459.62285599998967,"velocity":0.7637795275590551,"duration":0.5645639427083324},{"name":"C4","midi":60,"time":459.62285599998967,"velocity":0.7637795275590551,"duration":0.5645639427083324},{"name":"D5","midi":74,"time":460.18889399998966,"velocity":0.7637795275590551,"duration":0.5645639427083324},{"name":"A#4","midi":70,"time":460.18889399998966,"velocity":0.7637795275590551,"duration":0.5645639427083324},{"name":"A#3","midi":58,"time":460.18889399998966,"velocity":0.7637795275590551,"duration":0.5645639427083324},{"name":"F4","midi":65,"time":460.18889399998966,"velocity":0.7637795275590551,"duration":1.1306019427083243},{"name":"C5","midi":72,"time":460.75493199998965,"velocity":0.7637795275590551,"duration":0.5645639427083324},{"name":"A4","midi":69,"time":460.75493199998965,"velocity":0.7637795275590551,"duration":0.5645639427083324},{"name":"F3","midi":53,"time":460.75493199998965,"velocity":0.7637795275590551,"duration":1.5477601562499217},{"name":"A#4","midi":70,"time":461.32096999998964,"velocity":0.7637795275590551,"duration":0.2815449427083081},{"name":"C4","midi":60,"time":461.32096999998964,"velocity":0.7637795275590551,"duration":0.5645639427082756},{"name":"A4","midi":69,"time":461.6039889999896,"velocity":0.7637795275590551,"duration":0.2815449427083081},{"name":"G4","midi":67,"time":461.8870079999896,"velocity":0.7637795275590551,"duration":0.2815449427083081},{"name":"D#4","midi":63,"time":461.8870079999896,"velocity":0.7637795275590551,"duration":0.5645639427083324},{"name":"F4","midi":65,"time":462.17002699998955,"velocity":0.7637795275590551,"duration":1.403302541666676},{"name":"A#4","midi":70,"time":462.45304599998957,"velocity":0.7637795275590551,"duration":1.1306019427083243},{"name":"A#3","midi":58,"time":462.45304599998957,"velocity":0.7637795275590551,"duration":3.396227999999951},{"name":"C4","midi":60,"time":463.01908399998956,"velocity":0.7637795275590551,"duration":0.5645639427083324},{"name":"F4","midi":65,"time":463.58512199998955,"velocity":0.7637795275590551,"duration":0.5645639427083324},{"name":"D4","midi":62,"time":463.58512199998955,"velocity":0.7637795275590551,"duration":0.5645639427083324},{"name":"G4","midi":67,"time":464.15115999998955,"velocity":0.7637795275590551,"duration":0.5645639427083324},{"name":"D#4","midi":63,"time":464.15115999998955,"velocity":0.7637795275590551,"duration":0.5645639427083324},{"name":"G#4","midi":68,"time":464.71719799998954,"velocity":0.7637795275590551,"duration":0.8475829427082999},{"name":"F4","midi":65,"time":464.71719799998954,"velocity":0.7637795275590551,"duration":0.5645639427083324},{"name":"D4","midi":62,"time":465.28323599998953,"velocity":0.7637795275590551,"duration":0.5645639427083324},{"name":"G4","midi":67,"time":465.8492739999895,"velocity":0.7637795275590551,"duration":0.5645639427083324},{"name":"D#4","midi":63,"time":465.8492739999895,"velocity":0.7637795275590551,"duration":1.1306019427083243},{"name":"D#5","midi":75,"time":466.4153119999895,"velocity":0.7637795275590551,"duration":0.5645639427083324},{"name":"A4","midi":69,"time":466.4153119999895,"velocity":0.7637795275590551,"duration":0.5645639427083324},{"name":"C4","midi":60,"time":466.4153119999895,"velocity":0.7637795275590551,"duration":0.5645639427083324},{"name":"D5","midi":74,"time":466.9813499999895,"velocity":0.7637795275590551,"duration":0.5645639427083324},{"name":"A#4","midi":70,"time":466.9813499999895,"velocity":0.7637795275590551,"duration":0.5645639427083324},{"name":"A#3","midi":58,"time":466.9813499999895,"velocity":0.7637795275590551,"duration":0.5645639427083324},{"name":"F4","midi":65,"time":466.9813499999895,"velocity":0.7637795275590551,"duration":0.5645639427083324},{"name":"D5","midi":74,"time":467.5473879999895,"velocity":0.7637795275590551,"duration":0.2800708854166487},{"name":"A4","midi":69,"time":467.5473879999895,"velocity":0.7637795275590551,"duration":1.6951658854164862},{"name":"F3","midi":53,"time":467.5473879999895,"velocity":0.7637795275590551,"duration":1.547760156249808},{"name":"F4","midi":65,"time":467.5473879999895,"velocity":0.7637795275590551,"duration":1.6966399427081456},{"name":"C5","midi":72,"time":467.83040699998946,"velocity":0.7637795275590551,"duration":0.2800708854166487},{"name":"D5","midi":74,"time":468.11342599998943,"velocity":0.7637795275590551,"duration":0.18720527604165227},{"name":"C5","midi":72,"time":468.30210533332274,"velocity":0.7637795275590551,"duration":0.18720527604165227},{"name":"D5","midi":74,"time":468.49078466665605,"velocity":0.7637795275590551,"duration":0.18720527604165227},{"name":"C5","midi":72,"time":468.67946399998937,"velocity":0.7637795275590551,"duration":0.18720527604165227},{"name":"A#4","midi":70,"time":468.8681433333227,"velocity":0.7637795275590551,"duration":0.18720527604165227},{"name":"C5","midi":72,"time":469.056822666656,"velocity":0.7637795275590551,"duration":0.18720527604165227},{"name":"A#4","midi":70,"time":469.2455019999893,"velocity":0.7637795275590551,"duration":1.1306019427083243},{"name":"A#3","midi":58,"time":469.2455019999893,"velocity":0.7637795275590551,"duration":2.830190000000016},{"name":"C4","midi":60,"time":469.8115399999893,"velocity":0.7637795275590551,"duration":0.5645639427083324},{"name":"F4","midi":65,"time":470.3775779999893,"velocity":0.7637795275590551,"duration":0.5601417708333543},{"name":"D4","midi":62,"time":470.3775779999893,"velocity":0.7637795275590551,"duration":0.5601417708333543},{"name":"G4","midi":67,"time":470.94361599998933,"velocity":0.7637795275590551,"duration":0.5645639427083324},{"name":"D#4","midi":63,"time":470.94361599998933,"velocity":0.7637795275590551,"duration":0.5645639427083324},{"name":"G#4","midi":68,"time":471.5096539999893,"velocity":0.7637795275590551,"duration":1.0318401041666334},{"name":"F4","midi":65,"time":471.5096539999893,"velocity":0.7637795275590551,"duration":1.0318401041666334},{"name":"D4","midi":62,"time":472.0756919999893,"velocity":0.7637795275590551,"duration":0.5601417708332974},{"name":"G4","midi":67,"time":472.6417299999893,"velocity":0.7637795275590551,"duration":0.5645639427083324},{"name":"D#4","midi":63,"time":472.6417299999893,"velocity":0.7637795275590551,"duration":1.1306019427083243},{"name":"D#5","midi":75,"time":473.2077679999893,"velocity":0.7637795275590551,"duration":0.5645639427083324},{"name":"A4","midi":69,"time":473.2077679999893,"velocity":0.7637795275590551,"duration":0.5645639427083324},{"name":"C4","midi":60,"time":473.2077679999893,"velocity":0.7637795275590551,"duration":0.5645639427083324},{"name":"D5","midi":74,"time":473.7738059999893,"velocity":0.7637795275590551,"duration":0.5645639427083324},{"name":"A#4","midi":70,"time":473.7738059999893,"velocity":0.7637795275590551,"duration":0.5645639427083324},{"name":"A#3","midi":58,"time":473.7738059999893,"velocity":0.7637795275590551,"duration":0.5645639427083324},{"name":"F4","midi":65,"time":474.3398439999893,"velocity":0.7637795275590551,"duration":1.1306019427082674},{"name":"C5","midi":72,"time":474.3398439999893,"velocity":0.7637795275590551,"duration":0.5645639427083324},{"name":"A4","midi":69,"time":474.3398439999893,"velocity":0.7637795275590551,"duration":0.5601417708333543},{"name":"F3","midi":53,"time":474.3398439999893,"velocity":0.7637795275590551,"duration":1.1306019427082674},{"name":"A#4","midi":70,"time":474.9058819999893,"velocity":0.7637795275590551,"duration":0.2815449427083081},{"name":"C4","midi":60,"time":474.9058819999893,"velocity":0.7637795275590551,"duration":0.5645639427082756},{"name":"A4","midi":69,"time":475.18890099998924,"velocity":0.7637795275590551,"duration":0.8475829427082431},{"name":"G4","midi":67,"time":475.4719199999892,"velocity":0.7637795275590551,"duration":0.2815449427083081},{"name":"D#4","midi":63,"time":475.4719199999892,"velocity":0.7637795275590551,"duration":0.5645639427082756},{"name":"F4","midi":65,"time":475.7549389999892,"velocity":0.7637795275590551,"duration":1.4136209427082918},{"name":"A#4","midi":70,"time":476.03795799998915,"velocity":0.7637795275590551,"duration":2.255307656249954},{"name":"A#3","midi":58,"time":476.03795799998915,"velocity":0.7637795275590551,"duration":2.830190000000016},{"name":"C4","midi":60,"time":476.60399599998914,"velocity":0.7637795275590551,"duration":0.5645639427083324},{"name":"F4","midi":65,"time":477.17003399998913,"velocity":0.7637795275590551,"duration":0.5645639427083324},{"name":"D4","midi":62,"time":477.17003399998913,"velocity":0.7637795275590551,"duration":0.5645639427083324},{"name":"G4","midi":67,"time":477.7360719999891,"velocity":0.7637795275590551,"duration":0.5645639427083324},{"name":"D#4","midi":63,"time":477.7360719999891,"velocity":0.7637795275590551,"duration":0.5645639427083324},{"name":"G#4","midi":68,"time":478.3021099999891,"velocity":0.7637795275590551,"duration":0.5601417708333543},{"name":"F4","midi":65,"time":478.3021099999891,"velocity":0.7637795275590551,"duration":1.1291278854167217},{"name":"D4","midi":62,"time":478.86814799998916,"velocity":0.7637795275590551,"duration":0.5601417708333543},{"name":"G4","midi":67,"time":479.43418599998915,"velocity":0.7637795275590551,"duration":0.5645639427083324},{"name":"D#4","midi":63,"time":479.43418599998915,"velocity":0.7637795275590551,"duration":0.5645639427083324},{"name":"D#5","midi":75,"time":480.00022399998915,"velocity":0.7637795275590551,"duration":0.5645639427083324},{"name":"A4","midi":69,"time":480.00022399998915,"velocity":0.7637795275590551,"duration":0.5645639427083324},{"name":"C4","midi":60,"time":480.00022399998915,"velocity":0.7637795275590551,"duration":0.5645639427083324},{"name":"D5","midi":74,"time":480.56626199998914,"velocity":0.7637795275590551,"duration":0.5645639427083324},{"name":"A#4","midi":70,"time":480.56626199998914,"velocity":0.7637795275590551,"duration":0.5645639427083324},{"name":"A#3","midi":58,"time":480.56626199998914,"velocity":0.7637795275590551,"duration":0.5645639427083324},{"name":"F4","midi":65,"time":480.56626199998914,"velocity":0.7637795275590551,"duration":0.5645639427083324},{"name":"C5","midi":72,"time":481.13229999998913,"velocity":0.7637795275590551,"duration":1.1306019427083243},{"name":"A4","midi":69,"time":481.13229999998913,"velocity":0.7637795275590551,"duration":2.2553076562498973},{"name":"F3","midi":53,"time":481.13229999998913,"velocity":0.7637795275590551,"duration":1.63620359374994},{"name":"F4","midi":65,"time":481.13229999998913,"velocity":0.7637795275590551,"duration":1.1792458333333116},{"name":"D5","midi":74,"time":482.2643759999891,"velocity":0.7637795275590551,"duration":0.2800708854166487},{"name":"E5","midi":76,"time":482.5473949999891,"velocity":0.7637795275590551,"duration":0.2800708854166487},{"name":"F5","midi":77,"time":482.83041399998905,"velocity":0.7637795275590551,"duration":1.1306019427083243},{"name":"F3","midi":53,"time":482.83041399998905,"velocity":0.7637795275590551,"duration":0.5645639427083324},{"name":"C4","midi":60,"time":482.83041399998905,"velocity":0.7637795275590551,"duration":1.1306019427083243},{"name":"A#4","midi":70,"time":483.39645199998904,"velocity":0.7637795275590551,"duration":0.5645639427083324},{"name":"G3","midi":55,"time":483.39645199998904,"velocity":0.7637795275590551,"duration":0.5645639427083324},{"name":"C5","midi":72,"time":483.96248999998903,"velocity":0.7637795275590551,"duration":0.5645639427083324},{"name":"A3","midi":57,"time":483.96248999998903,"velocity":0.7637795275590551,"duration":0.5645639427083324},{"name":"F4","midi":65,"time":483.96248999998903,"velocity":0.7637795275590551,"duration":0.5645639427083324},{"name":"A#4","midi":70,"time":484.528527999989,"velocity":0.7637795275590551,"duration":0.5645639427083324},{"name":"D5","midi":74,"time":484.528527999989,"velocity":0.7637795275590551,"duration":0.5645639427083324},{"name":"A#3","midi":58,"time":484.528527999989,"velocity":0.7637795275590551,"duration":0.5645639427083324},{"name":"A4","midi":69,"time":485.094565999989,"velocity":0.7637795275590551,"duration":0.5645639427083324},{"name":"D#5","midi":75,"time":485.094565999989,"velocity":0.7637795275590551,"duration":1.6951658854166567},{"name":"C4","midi":60,"time":485.094565999989,"velocity":0.7637795275590551,"duration":0.5645639427083324},{"name":"G4","midi":67,"time":485.660603999989,"velocity":0.7637795275590551,"duration":0.5645639427083324},{"name":"A#3","midi":58,"time":485.660603999989,"velocity":0.7637795275590551,"duration":0.5645639427083324},{"name":"F#4","midi":66,"time":486.226641999989,"velocity":0.7637795275590551,"duration":0.5645639427083324},{"name":"A3","midi":57,"time":486.226641999989,"velocity":0.7637795275590551,"duration":0.5645639427083324},{"name":"D4","midi":62,"time":486.792679999989,"velocity":0.7637795275590551,"duration":0.5645639427082756},{"name":"D5","midi":74,"time":486.792679999989,"velocity":0.7637795275590551,"duration":0.5645639427082756},{"name":"F#3","midi":54,"time":486.792679999989,"velocity":0.7637795275590551,"duration":0.5601417708332974},{"name":"A#3","midi":58,"time":486.792679999989,"velocity":0.7637795275590551,"duration":0.2800708854166487},{"name":"A3","midi":57,"time":487.07569899998896,"velocity":0.7637795275590551,"duration":0.2815449427083081},{"name":"A4","midi":69,"time":487.3587179999889,"velocity":0.7637795275590551,"duration":0.5645639427082756},{"name":"C5","midi":72,"time":487.3587179999889,"velocity":0.7637795275590551,"duration":0.5645639427082756},{"name":"D3","midi":50,"time":487.3587179999889,"velocity":0.7637795275590551,"duration":0.5601417708332974},{"name":"G3","midi":55,"time":487.3587179999889,"velocity":0.7637795275590551,"duration":0.2815449427083081},{"name":"F#3","midi":54,"time":487.6417369999889,"velocity":0.7637795275590551,"duration":0.2815449427083081},{"name":"G4","midi":67,"time":487.92475599998886,"velocity":0.7637795275590551,"duration":0.5645639427083324},{"name":"A#4","midi":70,"time":487.92475599998886,"velocity":0.7637795275590551,"duration":0.5645639427083324},{"name":"G3","midi":55,"time":487.92475599998886,"velocity":0.7637795275590551,"duration":0.5645639427083324},{"name":"F#4","midi":66,"time":488.49079399998885,"velocity":0.7637795275590551,"duration":0.5601417708332974},{"name":"A4","midi":69,"time":488.49079399998885,"velocity":0.7637795275590551,"duration":0.2815449427083081},{"name":"D3","midi":50,"time":488.49079399998885,"velocity":0.7637795275590551,"duration":0.5645639427082756},{"name":"A#4","midi":70,"time":488.7738129999888,"velocity":0.7637795275590551,"duration":0.2815449427083081},{"name":"G4","midi":67,"time":489.0568319999888,"velocity":0.7637795275590551,"duration":1.6951658854167704},{"name":"G2","midi":43,"time":489.0568319999888,"velocity":0.7637795275590551,"duration":0.5601417708333543},{"name":"G3","midi":55,"time":489.62286999998884,"velocity":0.7637795275590551,"duration":0.5601417708333543},{"name":"A#4","midi":70,"time":489.62286999998884,"velocity":0.7637795275590551,"duration":1.130601942708381},{"name":"D#5","midi":75,"time":489.62286999998884,"velocity":0.7637795275590551,"duration":1.130601942708381},{"name":"A3","midi":57,"time":490.1889079999889,"velocity":0.7637795275590551,"duration":0.5645639427083324},{"name":"G#4","midi":68,"time":490.7549459999889,"velocity":0.7637795275590551,"duration":0.5645639427083324},{"name":"D5","midi":74,"time":490.7549459999889,"velocity":0.7637795275590551,"duration":0.5645639427083324},{"name":"F3","midi":53,"time":490.7549459999889,"velocity":0.7637795275590551,"duration":0.5645639427083324},{"name":"A#3","midi":58,"time":490.7549459999889,"velocity":0.7637795275590551,"duration":0.5645639427083324},{"name":"G4","midi":67,"time":491.32098399998887,"velocity":0.7637795275590551,"duration":0.5645639427083324},{"name":"G5","midi":79,"time":491.32098399998887,"velocity":0.7637795275590551,"duration":0.5645639427083324},{"name":"D#3","midi":51,"time":491.32098399998887,"velocity":0.7637795275590551,"duration":1.1306019427083243},{"name":"A4","midi":69,"time":491.88702199998886,"velocity":0.7637795275590551,"duration":0.5645639427083324},{"name":"F5","midi":77,"time":491.88702199998886,"velocity":0.7637795275590551,"duration":1.6951658854166567},{"name":"C4","midi":60,"time":491.88702199998886,"velocity":0.7637795275590551,"duration":0.5645639427083324},{"name":"A#4","midi":70,"time":492.45305999998885,"velocity":0.7637795275590551,"duration":0.5645639427083324},{"name":"D3","midi":50,"time":492.45305999998885,"velocity":0.7637795275590551,"duration":0.5645639427083324},{"name":"D4","midi":62,"time":492.45305999998885,"velocity":0.7637795275590551,"duration":0.5645639427083324},{"name":"F4","midi":65,"time":493.01909799998884,"velocity":0.7637795275590551,"duration":0.5645639427083324},{"name":"F3","midi":53,"time":493.01909799998884,"velocity":0.7637795275590551,"duration":1.5477601562499785},{"name":"A4","midi":69,"time":493.58513599998884,"velocity":0.7637795275590551,"duration":0.8652716302083263},{"name":"C4","midi":60,"time":493.58513599998884,"velocity":0.7637795275590551,"duration":0.5645639427083324},{"name":"D#4","midi":63,"time":494.1511739999888,"velocity":0.7637795275590551,"duration":0.5645639427083324},{"name":"A#4","midi":70,"time":494.4518816874888,"velocity":0.7637795275590551,"duration":0.2594340833333604},{"name":"F4","midi":65,"time":494.7172119999888,"velocity":0.7637795275590551,"duration":1.696639942708316},{"name":"A#4","midi":70,"time":494.7172119999888,"velocity":0.7637795275590551,"duration":1.696639942708316},{"name":"D4","midi":62,"time":494.7172119999888,"velocity":0.7637795275590551,"duration":1.6951658854166567},{"name":"A#3","midi":58,"time":494.7172119999888,"velocity":0.7637795275590551,"duration":1.1306019427083243},{"name":"A#2","midi":46,"time":495.2832499999888,"velocity":0.7637795275590551,"duration":0.5645639427083324},{"name":"D3","midi":50,"time":495.8492879999888,"velocity":0.7637795275590551,"duration":0.5645639427083324},{"name":"F5","midi":77,"time":496.4153259999888,"velocity":0.7637795275590551,"duration":1.1306019427083243},{"name":"A4","midi":69,"time":496.4153259999888,"velocity":0.7637795275590551,"duration":0.5645639427083324},{"name":"F3","midi":53,"time":496.4153259999888,"velocity":0.7637795275590551,"duration":0.5645639427083324},{"name":"C4","midi":60,"time":496.4153259999888,"velocity":0.7637795275590551,"duration":1.1306019427083243},{"name":"A#4","midi":70,"time":496.9813639999888,"velocity":0.7637795275590551,"duration":0.5645639427083324},{"name":"G3","midi":55,"time":496.9813639999888,"velocity":0.7637795275590551,"duration":0.5645639427083324},{"name":"C5","midi":72,"time":497.5474019999888,"velocity":0.7637795275590551,"duration":0.5645639427083324},{"name":"A3","midi":57,"time":497.5474019999888,"velocity":0.7637795275590551,"duration":0.5645639427083324},{"name":"F4","midi":65,"time":497.5474019999888,"velocity":0.7637795275590551,"duration":1.1306019427083243},{"name":"A#4","midi":70,"time":498.11343999998877,"velocity":0.7637795275590551,"duration":0.5645639427083324},{"name":"D5","midi":74,"time":498.11343999998877,"velocity":0.7637795275590551,"duration":0.5645639427083324},{"name":"A#3","midi":58,"time":498.11343999998877,"velocity":0.7637795275590551,"duration":0.5645639427083324},{"name":"A4","midi":69,"time":498.67947799998876,"velocity":0.7637795275590551,"duration":0.5645639427083324},{"name":"D#5","midi":75,"time":498.67947799998876,"velocity":0.7637795275590551,"duration":1.6951658854166567},{"name":"C4","midi":60,"time":498.67947799998876,"velocity":0.7637795275590551,"duration":0.5645639427083324},{"name":"G4","midi":67,"time":499.24551599998875,"velocity":0.7637795275590551,"duration":0.5645639427083324},{"name":"A#3","midi":58,"time":499.24551599998875,"velocity":0.7637795275590551,"duration":0.5645639427083324},{"name":"F#4","midi":66,"time":499.81155399998875,"velocity":0.7637795275590551,"duration":0.5645639427083324},{"name":"A3","midi":57,"time":499.81155399998875,"velocity":0.7637795275590551,"duration":0.5645639427083324},{"name":"F#3","midi":54,"time":500.37759199998874,"velocity":0.7637795275590551,"duration":0.42452849999995124},{"name":"D4","midi":62,"time":500.37759199998874,"velocity":0.7637795275590551,"duration":0.5645639427082756},{"name":"D5","midi":74,"time":500.37759199998874,"velocity":0.7637795275590551,"duration":0.5645639427082756},{"name":"A#3","midi":58,"time":500.37759199998874,"velocity":0.7637795275590551,"duration":0.2815449427083081},{"name":"A3","midi":57,"time":500.6606109999887,"velocity":0.7637795275590551,"duration":0.2815449427083081},{"name":"D3","midi":50,"time":500.9436299999887,"velocity":0.7637795275590551,"duration":0.42452849999995124},{"name":"A4","midi":69,"time":500.9436299999887,"velocity":0.7637795275590551,"duration":0.5645639427082756},{"name":"C5","midi":72,"time":500.9436299999887,"velocity":0.7637795275590551,"duration":0.5645639427082756},{"name":"G3","midi":55,"time":500.9436299999887,"velocity":0.7637795275590551,"duration":0.2815449427083081},{"name":"F#3","midi":54,"time":501.22664899998864,"velocity":0.7637795275590551,"duration":0.2815449427083081},{"name":"G4","midi":67,"time":501.5096679999886,"velocity":0.7637795275590551,"duration":0.5645639427083324},{"name":"A#4","midi":70,"time":501.5096679999886,"velocity":0.7637795275590551,"duration":0.5645639427083324},{"name":"G3","midi":55,"time":501.5096679999886,"velocity":0.7637795275590551,"duration":0.563089885416673},{"name":"F#4","midi":66,"time":502.0757059999886,"velocity":0.7637795275590551,"duration":0.42452849999995124},{"name":"A4","midi":69,"time":502.0757059999886,"velocity":0.7637795275590551,"duration":0.2815449427083081},{"name":"D3","midi":50,"time":502.0757059999886,"velocity":0.7637795275590551,"duration":0.5645639427082756},{"name":"A#4","midi":70,"time":502.35872499998857,"velocity":0.7637795275590551,"duration":0.2815449427083081},{"name":"G4","midi":67,"time":502.64174399998853,"velocity":0.7637795275590551,"duration":0.5645639427083324},{"name":"G2","midi":43,"time":502.64174399998853,"velocity":0.7637795275590551,"duration":1.6951658854166567},{"name":"A#4","midi":70,"time":503.2077819999885,"velocity":0.7637795275590551,"duration":1.1306019427083243},{"name":"D#5","midi":75,"time":503.2077819999885,"velocity":0.7637795275590551,"duration":1.1306019427083243},{"name":"A3","midi":57,"time":503.7738199999885,"velocity":0.7637795275590551,"duration":0.5645639427083324},{"name":"G#4","midi":68,"time":504.3398579999885,"velocity":0.7637795275590551,"duration":0.5645639427083324},{"name":"D5","midi":74,"time":504.3398579999885,"velocity":0.7637795275590551,"duration":0.5645639427083324},{"name":"F3","midi":53,"time":504.3398579999885,"velocity":0.7637795275590551,"duration":0.5645639427083324},{"name":"A#3","midi":58,"time":504.3398579999885,"velocity":0.7637795275590551,"duration":0.5645639427083324},{"name":"G4","midi":67,"time":504.9058959999885,"velocity":0.7637795275590551,"duration":0.5645639427083324},{"name":"G5","midi":79,"time":504.9058959999885,"velocity":0.7637795275590551,"duration":0.5645639427083324},{"name":"D#3","midi":51,"time":504.9058959999885,"velocity":0.7637795275590551,"duration":1.1306019427083243},{"name":"A4","midi":69,"time":505.4719339999885,"velocity":0.7637795275590551,"duration":0.5645639427083324},{"name":"F5","midi":77,"time":505.4719339999885,"velocity":0.7637795275590551,"duration":0.5645639427083324},{"name":"C4","midi":60,"time":505.4719339999885,"velocity":0.7637795275590551,"duration":0.5645639427083324},{"name":"A#4","midi":70,"time":506.0379719999885,"velocity":0.7637795275590551,"duration":1.1306019427083243},{"name":"D3","midi":50,"time":506.0379719999885,"velocity":0.7637795275590551,"duration":0.5645639427083324},{"name":"D4","midi":62,"time":506.0379719999885,"velocity":0.7637795275590551,"duration":0.5645639427083324},{"name":"F4","midi":65,"time":506.6040099999885,"velocity":0.7637795275590551,"duration":0.5645639427083324},{"name":"F3","midi":53,"time":506.6040099999885,"velocity":0.7637795275590551,"duration":1.6951658854166567},{"name":"A#4","midi":70,"time":507.17004799998847,"velocity":0.7637795275590551,"duration":0.5645639427083324},{"name":"C4","midi":60,"time":507.17004799998847,"velocity":0.7637795275590551,"duration":0.5645639427083324},{"name":"A4","midi":69,"time":507.73608599998846,"velocity":0.7637795275590551,"duration":0.5645639427083324},{"name":"D#4","midi":63,"time":507.73608599998846,"velocity":0.7637795275590551,"duration":0.5645639427083324},{"name":"F4","midi":65,"time":508.30212399998845,"velocity":0.7637795275590551,"duration":1.696639942708316},{"name":"A#4","midi":70,"time":508.30212399998845,"velocity":0.7637795275590551,"duration":1.696639942708316},{"name":"A#2","midi":46,"time":508.30212399998845,"velocity":0.7637795275590551,"duration":0.5645639427083324},{"name":"D4","midi":62,"time":508.30212399998845,"velocity":0.7637795275590551,"duration":0.5645639427083324},{"name":"A#3","midi":58,"time":508.30212399998845,"velocity":0.7637795275590551,"duration":1.1306019427083243},{"name":"D3","midi":50,"time":508.86816199998844,"velocity":0.7637795275590551,"duration":0.5645639427083324},{"name":"F3","midi":53,"time":509.43419999998844,"velocity":0.7637795275590551,"duration":0.5645639427083324},{"name":"D5","midi":74,"time":510.0002379999884,"velocity":0.7637795275590551,"duration":0.8475829427082999},{"name":"A#3","midi":58,"time":510.0002379999884,"velocity":0.7637795275590551,"duration":0.5645639427083324},{"name":"A#4","midi":70,"time":510.28325699998845,"velocity":0.7637795275590551,"duration":0.2815449427083081},{"name":"A4","midi":69,"time":510.5662759999884,"velocity":0.7637795275590551,"duration":0.2815449427083081},{"name":"F3","midi":53,"time":510.5662759999884,"velocity":0.7637795275590551,"duration":0.5645639427082756},{"name":"A#4","midi":70,"time":510.8492949999884,"velocity":0.7637795275590551,"duration":0.24321945312499338},{"name":"F4","midi":65,"time":511.13231399998836,"velocity":0.7637795275590551,"duration":0.24321945312499338},{"name":"D3","midi":50,"time":511.13231399998836,"velocity":0.7637795275590551,"duration":0.5645639427082756},{"name":"A#4","midi":70,"time":511.4153329999883,"velocity":0.7637795275590551,"duration":0.24321945312499338},{"name":"D5","midi":74,"time":511.6983519999883,"velocity":0.7637795275590551,"duration":0.5601417708334111},{"name":"A#2","midi":46,"time":511.6983519999883,"velocity":0.7637795275590551,"duration":0.5645639427084461},{"name":"A#4","midi":70,"time":511.9813709999883,"velocity":0.7637795275590551,"duration":0.2815449427084218},{"name":"D#5","midi":75,"time":512.2643899999885,"velocity":0.7637795275590551,"duration":0.28154494270836494},{"name":"C3","midi":48,"time":512.2643899999885,"velocity":0.7637795275590551,"duration":0.5645639427084461},{"name":"A#4","midi":70,"time":512.5474089999885,"velocity":0.7637795275590551,"duration":0.24321945312499338},{"name":"F5","midi":77,"time":512.8304279999886,"velocity":0.7637795275590551,"duration":0.24321945312499338},{"name":"D3","midi":50,"time":512.8304279999886,"velocity":0.7637795275590551,"duration":0.5645639427083324},{"name":"A#4","midi":70,"time":513.1134469999886,"velocity":0.7637795275590551,"duration":0.24321945312499338},{"name":"C5","midi":72,"time":513.3964659999887,"velocity":0.7637795275590551,"duration":0.8475829427084136},{"name":"A2","midi":45,"time":513.3964659999887,"velocity":0.7637795275590551,"duration":0.5645639427083324},{"name":"A4","midi":69,"time":513.6794849999886,"velocity":0.7637795275590551,"duration":0.28154494270836494},{"name":"G4","midi":67,"time":513.9625039999887,"velocity":0.7637795275590551,"duration":0.28154494270836494},{"name":"C3","midi":48,"time":513.9625039999887,"velocity":0.7637795275590551,"duration":0.5645639427084461},{"name":"A4","midi":69,"time":514.2455229999888,"velocity":0.7637795275590551,"duration":0.24321945312499338},{"name":"F4","midi":65,"time":514.5285419999889,"velocity":0.7637795275590551,"duration":0.24321945312499338},{"name":"F3","midi":53,"time":514.5285419999889,"velocity":0.7637795275590551,"duration":0.5645639427083324},{"name":"A4","midi":69,"time":514.8115609999888,"velocity":0.7637795275590551,"duration":0.24321945312499338},{"name":"C5","midi":72,"time":515.0945799999889,"velocity":0.7637795275590551,"duration":0.5601417708332974},{"name":"A3","midi":57,"time":515.0945799999889,"velocity":0.7637795275590551,"duration":0.5645639427083324},{"name":"F4","midi":65,"time":515.3775989999889,"velocity":0.7637795275590551,"duration":0.28154494270836494},{"name":"D5","midi":74,"time":515.660617999989,"velocity":0.7637795275590551,"duration":0.28154494270836494},{"name":"A#3","midi":58,"time":515.660617999989,"velocity":0.7637795275590551,"duration":0.28154494270836494},{"name":"F4","midi":65,"time":515.943636999989,"velocity":0.7637795275590551,"duration":0.24321945312499338},{"name":"A3","midi":57,"time":515.943636999989,"velocity":0.7637795275590551,"duration":0.257960026041701},{"name":"D#5","midi":75,"time":516.2266559999891,"velocity":0.7637795275590551,"duration":0.24321945312499338},{"name":"G3","midi":55,"time":516.2266559999891,"velocity":0.7637795275590551,"duration":0.257960026041701},{"name":"F4","midi":65,"time":516.5096749999892,"velocity":0.7637795275590551,"duration":0.24321945312499338},{"name":"F3","midi":53,"time":516.5096749999892,"velocity":0.7637795275590551,"duration":0.257960026041701},{"name":"D5","midi":74,"time":516.7926939999893,"velocity":0.7637795275590551,"duration":0.5601417708332974},{"name":"A#3","midi":58,"time":516.7926939999893,"velocity":0.7637795275590551,"duration":0.5645639427083324},{"name":"G#4","midi":68,"time":517.0757129999893,"velocity":0.7637795275590551,"duration":0.28154494270836494},{"name":"D#5","midi":75,"time":517.3587319999893,"velocity":0.7637795275590551,"duration":0.28154494270836494},{"name":"C4","midi":60,"time":517.3587319999893,"velocity":0.7637795275590551,"duration":0.5645639427084461},{"name":"G4","midi":67,"time":517.6417509999894,"velocity":0.7637795275590551,"duration":0.28154494270836494},{"name":"F5","midi":77,"time":517.9247699999895,"velocity":0.7637795275590551,"duration":0.24321945312499338},{"name":"D4","midi":62,"time":517.9247699999895,"velocity":0.7637795275590551,"duration":0.5645639427083324},{"name":"F4","midi":65,"time":518.2077889999895,"velocity":0.7637795275590551,"duration":0.24321945312499338},{"name":"G5","midi":79,"time":518.4908079999896,"velocity":0.7637795275590551,"duration":0.28154494270836494},{"name":"D#4","midi":63,"time":518.4908079999896,"velocity":0.7637795275590551,"duration":0.5645639427084461},{"name":"F5","midi":77,"time":518.7738269999896,"velocity":0.7637795275590551,"duration":0.5601417708334111},{"name":"A5","midi":81,"time":519.0568459999897,"velocity":0.7637795275590551,"duration":0.28154494270836494},{"name":"F4","midi":65,"time":519.0568459999897,"velocity":0.7637795275590551,"duration":0.5645639427084461},{"name":"D#5","midi":75,"time":519.3398649999898,"velocity":0.7637795275590551,"duration":0.28154494270836494},{"name":"A#5","midi":82,"time":519.6228839999899,"velocity":0.7637795275590551,"duration":0.24321945312499338},{"name":"G4","midi":67,"time":519.6228839999899,"velocity":0.7637795275590551,"duration":0.5645639427083324},{"name":"D5","midi":74,"time":519.9059029999898,"velocity":0.7637795275590551,"duration":0.24321945312499338},{"name":"C5","midi":72,"time":520.1889219999899,"velocity":0.7637795275590551,"duration":0.5601417708332974},{"name":"A4","midi":69,"time":520.1889219999899,"velocity":0.7637795275590551,"duration":0.5645639427083324},{"name":"D#5","midi":75,"time":520.4719409999899,"velocity":0.7637795275590551,"duration":0.28154494270836494},{"name":"D5","midi":74,"time":520.75495999999,"velocity":0.7637795275590551,"duration":0.28154494270836494},{"name":"A#4","midi":70,"time":520.75495999999,"velocity":0.7637795275590551,"duration":0.8475829427084136},{"name":"C5","midi":72,"time":521.0379789999901,"velocity":0.7637795275590551,"duration":0.24321945312499338},{"name":"D5","midi":74,"time":521.32099799999,"velocity":0.7637795275590551,"duration":0.24321945312499338},{"name":"A#3","midi":58,"time":521.32099799999,"velocity":0.7637795275590551,"duration":0.5645639427084461},{"name":"A#4","midi":70,"time":521.6040169999901,"velocity":0.7637795275590551,"duration":0.24321945312499338},{"name":"C5","midi":72,"time":521.8870359999902,"velocity":0.7637795275590551,"duration":0.28154494270836494},{"name":"F4","midi":65,"time":521.8870359999902,"velocity":0.7637795275590551,"duration":0.5645639427084461},{"name":"A4","midi":69,"time":522.1700549999903,"velocity":0.7637795275590551,"duration":0.28154494270836494},{"name":"G4","midi":67,"time":522.4530739999904,"velocity":0.7637795275590551,"duration":0.28154494270836494},{"name":"F3","midi":53,"time":522.4530739999904,"velocity":0.7637795275590551,"duration":0.5645639427084461},{"name":"A4","midi":69,"time":522.7360929999904,"velocity":0.7637795275590551,"duration":0.24321945312499338},{"name":"F4","midi":65,"time":523.0191119999905,"velocity":0.7637795275590551,"duration":0.24321945312499338},{"name":"A3","midi":57,"time":523.0191119999905,"velocity":0.7637795275590551,"duration":0.5645639427083324},{"name":"D#5","midi":75,"time":523.3021309999905,"velocity":0.7637795275590551,"duration":0.24321945312499338},{"name":"D5","midi":74,"time":523.5851499999906,"velocity":0.7637795275590551,"duration":0.7075475000000324},{"name":"A#3","midi":58,"time":523.5851499999906,"velocity":0.7637795275590551,"duration":0.5645639427083324},{"name":"A#4","midi":70,"time":523.8681689999905,"velocity":0.7637795275590551,"duration":0.28154494270836494},{"name":"A4","midi":69,"time":524.1511879999906,"velocity":0.7637795275590551,"duration":0.28154494270836494},{"name":"F3","midi":53,"time":524.1511879999906,"velocity":0.7637795275590551,"duration":0.5645639427084461},{"name":"A#4","midi":70,"time":524.4342069999907,"velocity":0.7637795275590551,"duration":0.24321945312499338},{"name":"F4","midi":65,"time":524.7172259999908,"velocity":0.7637795275590551,"duration":0.24321945312499338},{"name":"D3","midi":50,"time":524.7172259999908,"velocity":0.7637795275590551,"duration":0.5645639427083324},{"name":"A#4","midi":70,"time":525.0002449999907,"velocity":0.7637795275590551,"duration":0.24321945312499338},{"name":"D5","midi":74,"time":525.2832639999908,"velocity":0.7637795275590551,"duration":0.28154494270836494},{"name":"A#2","midi":46,"time":525.2832639999908,"velocity":0.7637795275590551,"duration":0.5645639427084461},{"name":"A#4","midi":70,"time":525.5662829999909,"velocity":0.7637795275590551,"duration":0.28154494270836494},{"name":"D#5","midi":75,"time":525.849301999991,"velocity":0.7637795275590551,"duration":0.28154494270836494},{"name":"C3","midi":48,"time":525.849301999991,"velocity":0.7637795275590551,"duration":0.5645639427084461},{"name":"A#4","midi":70,"time":526.1323209999911,"velocity":0.7637795275590551,"duration":0.24321945312499338},{"name":"F5","midi":77,"time":526.4153399999911,"velocity":0.7637795275590551,"duration":0.24321945312499338},{"name":"D3","midi":50,"time":526.4153399999911,"velocity":0.7637795275590551,"duration":0.5645639427083324},{"name":"A#4","midi":70,"time":526.6983589999911,"velocity":0.7637795275590551,"duration":0.24321945312499338},{"name":"C5","midi":72,"time":526.9813779999912,"velocity":0.7637795275590551,"duration":0.7075475000000324},{"name":"A2","midi":45,"time":526.9813779999912,"velocity":0.7637795275590551,"duration":0.5645639427083324},{"name":"A4","midi":69,"time":527.2643969999912,"velocity":0.7637795275590551,"duration":0.28154494270836494},{"name":"G4","midi":67,"time":527.5474159999912,"velocity":0.7637795275590551,"duration":0.28154494270836494},{"name":"C3","midi":48,"time":527.5474159999912,"velocity":0.7637795275590551,"duration":0.5645639427084461},{"name":"A4","midi":69,"time":527.8304349999913,"velocity":0.7637795275590551,"duration":0.24321945312499338},{"name":"F4","midi":65,"time":528.1134539999914,"velocity":0.7637795275590551,"duration":0.24321945312499338},{"name":"F3","midi":53,"time":528.1134539999914,"velocity":0.7637795275590551,"duration":0.5645639427083324},{"name":"A4","midi":69,"time":528.3964729999914,"velocity":0.7637795275590551,"duration":0.24321945312499338},{"name":"C5","midi":72,"time":528.6794919999915,"velocity":0.7637795275590551,"duration":0.28154494270836494},{"name":"A3","midi":57,"time":528.6794919999915,"velocity":0.7637795275590551,"duration":0.5645639427084461},{"name":"F4","midi":65,"time":528.9625109999915,"velocity":0.7637795275590551,"duration":0.28154494270836494},{"name":"D5","midi":74,"time":529.2455299999916,"velocity":0.7637795275590551,"duration":0.28154494270836494},{"name":"A#3","midi":58,"time":529.2455299999916,"velocity":0.7637795275590551,"duration":0.28154494270836494},{"name":"F4","midi":65,"time":529.5285489999917,"velocity":0.7637795275590551,"duration":0.24321945312499338},{"name":"A3","midi":57,"time":529.5285489999917,"velocity":0.7637795275590551,"duration":0.2505897395833472},{"name":"D#5","midi":75,"time":529.8115679999917,"velocity":0.7637795275590551,"duration":0.24321945312499338},{"name":"G3","midi":55,"time":529.8115679999917,"velocity":0.7637795275590551,"duration":0.2505897395833472},{"name":"F4","midi":65,"time":530.0945869999916,"velocity":0.7637795275590551,"duration":0.24321945312499338},{"name":"F3","midi":53,"time":530.0945869999916,"velocity":0.7637795275590551,"duration":0.2505897395833472},{"name":"D5","midi":74,"time":530.3776059999916,"velocity":0.7637795275590551,"duration":0.28154494270836494},{"name":"A#3","midi":58,"time":530.3776059999916,"velocity":0.7637795275590551,"duration":0.5645639427084461},{"name":"C5","midi":72,"time":530.6606249999917,"velocity":0.7637795275590551,"duration":0.28154494270836494},{"name":"E5","midi":76,"time":530.9436439999918,"velocity":0.7637795275590551,"duration":0.28154494270836494},{"name":"C4","midi":60,"time":530.9436439999918,"velocity":0.7637795275590551,"duration":0.5645639427084461},{"name":"A#4","midi":70,"time":531.2266629999918,"velocity":0.7637795275590551,"duration":0.24321945312499338},{"name":"F5","midi":77,"time":531.5096819999919,"velocity":0.7637795275590551,"duration":0.24321945312499338},{"name":"D4","midi":62,"time":531.5096819999919,"velocity":0.7637795275590551,"duration":0.5645639427083324},{"name":"A4","midi":69,"time":531.7927009999919,"velocity":0.7637795275590551,"duration":0.24321945312499338},{"name":"G4","midi":67,"time":532.075719999992,"velocity":0.7637795275590551,"duration":0.28154494270836494},{"name":"E3","midi":52,"time":532.075719999992,"velocity":0.7637795275590551,"duration":0.5645639427084461},{"name":"A#4","midi":70,"time":532.358738999992,"velocity":0.7637795275590551,"duration":0.28154494270836494},{"name":"F4","midi":65,"time":532.6417579999921,"velocity":0.7637795275590551,"duration":0.28154494270836494},{"name":"D3","midi":50,"time":532.6417579999921,"velocity":0.7637795275590551,"duration":0.5645639427084461},{"name":"A#4","midi":70,"time":532.9247769999922,"velocity":0.7637795275590551,"duration":0.24321945312499338},{"name":"E4","midi":64,"time":533.2077959999923,"velocity":0.7637795275590551,"duration":0.24321945312499338},{"name":"C3","midi":48,"time":533.2077959999923,"velocity":0.7637795275590551,"duration":0.5645639427083324},{"name":"A#4","midi":70,"time":533.4908149999923,"velocity":0.7637795275590551,"duration":0.24321945312499338},{"name":"A4","midi":69,"time":533.7738339999923,"velocity":0.7637795275590551,"duration":0.28154494270836494},{"name":"F3","midi":53,"time":533.7738339999923,"velocity":0.7637795275590551,"duration":0.5645639427084461},{"name":"C5","midi":72,"time":534.0568529999924,"velocity":0.7637795275590551,"duration":0.28154494270836494},{"name":"A4","midi":69,"time":534.3398719999925,"velocity":0.7637795275590551,"duration":0.28154494270836494},{"name":"A#2","midi":46,"time":534.3398719999925,"velocity":0.7637795275590551,"duration":0.5645639427084461},{"name":"F4","midi":65,"time":534.6228909999926,"velocity":0.7637795275590551,"duration":0.24321945312499338},{"name":"C4","midi":60,"time":534.9059099999927,"velocity":0.7637795275590551,"duration":0.24321945312499338},{"name":"C3","midi":48,"time":534.9059099999927,"velocity":0.7637795275590551,"duration":0.5645639427083324},{"name":"E4","midi":64,"time":535.1889289999926,"velocity":0.7637795275590551,"duration":0.24321945312499338},{"name":"F4","midi":65,"time":535.4719479999927,"velocity":0.7637795275590551,"duration":1.5477601562500922},{"name":"F3","midi":53,"time":535.4719479999927,"velocity":0.7637795275590551,"duration":0.5645639427083324},{"name":"C3","midi":48,"time":536.0379859999928,"velocity":0.7637795275590551,"duration":0.5645639427083324},{"name":"A2","midi":45,"time":536.6040239999928,"velocity":0.7637795275590551,"duration":0.5645639427083324},{"name":"A5","midi":81,"time":537.1700619999929,"velocity":0.7637795275590551,"duration":0.8475829427084136},{"name":"F2","midi":41,"time":537.1700619999929,"velocity":0.7637795275590551,"duration":0.5645639427083324},{"name":"F5","midi":77,"time":537.4530809999928,"velocity":0.7637795275590551,"duration":0.28154494270836494},{"name":"E5","midi":76,"time":537.7360999999929,"velocity":0.7637795275590551,"duration":0.28154494270836494},{"name":"C3","midi":48,"time":537.7360999999929,"velocity":0.7637795275590551,"duration":0.5645639427084461},{"name":"F5","midi":77,"time":538.019118999993,"velocity":0.7637795275590551,"duration":0.24321945312499338},{"name":"C5","midi":72,"time":538.3021379999931,"velocity":0.7637795275590551,"duration":0.24321945312499338},{"name":"F3","midi":53,"time":538.3021379999931,"velocity":0.7637795275590551,"duration":0.5645639427083324},{"name":"F5","midi":77,"time":538.585156999993,"velocity":0.7637795275590551,"duration":0.24321945312499338},{"name":"A5","midi":81,"time":538.8681759999931,"velocity":0.7637795275590551,"duration":0.5601417708332974},{"name":"D#3","midi":51,"time":538.8681759999931,"velocity":0.7637795275590551,"duration":0.5645639427083324},{"name":"F5","midi":77,"time":539.1511949999931,"velocity":0.7637795275590551,"duration":0.28154494270836494},{"name":"A#5","midi":82,"time":539.4342139999932,"velocity":0.7637795275590551,"duration":0.28154494270836494},{"name":"D3","midi":50,"time":539.4342139999932,"velocity":0.7637795275590551,"duration":0.5645639427084461},{"name":"F5","midi":77,"time":539.7172329999933,"velocity":0.7637795275590551,"duration":0.24321945312499338},{"name":"A5","midi":81,"time":540.0002519999933,"velocity":0.7637795275590551,"duration":0.24321945312499338},{"name":"A#2","midi":46,"time":540.0002519999933,"velocity":0.7637795275590551,"duration":0.5645639427083324},{"name":"F5","midi":77,"time":540.2832709999933,"velocity":0.7637795275590551,"duration":0.24321945312499338},{"name":"G5","midi":79,"time":540.5662899999934,"velocity":0.7637795275590551,"duration":0.8475829427084136},{"name":"D#3","midi":51,"time":540.5662899999934,"velocity":0.7637795275590551,"duration":0.5645639427083324},{"name":"D#5","midi":75,"time":540.8493089999934,"velocity":0.7637795275590551,"duration":0.28154494270836494},{"name":"D5","midi":74,"time":541.1323279999934,"velocity":0.7637795275590551,"duration":0.28154494270836494},{"name":"G3","midi":55,"time":541.1323279999934,"velocity":0.7637795275590551,"duration":0.5645639427084461},{"name":"D#5","midi":75,"time":541.4153469999935,"velocity":0.7637795275590551,"duration":0.24321945312499338},{"name":"C5","midi":72,"time":541.6983659999936,"velocity":0.7637795275590551,"duration":0.24321945312499338},{"name":"G#3","midi":56,"time":541.6983659999936,"velocity":0.7637795275590551,"duration":0.5645639427083324},{"name":"D#5","midi":75,"time":541.9813849999936,"velocity":0.7637795275590551,"duration":0.24321945312499338},{"name":"F5","midi":77,"time":542.2644039999936,"velocity":0.7637795275590551,"duration":0.5601417708332974},{"name":"D3","midi":50,"time":542.2644039999936,"velocity":0.7637795275590551,"duration":0.5645639427083324},{"name":"D5","midi":74,"time":542.5474229999936,"velocity":0.7637795275590551,"duration":0.28154494270836494},{"name":"F5","midi":77,"time":542.8304419999937,"velocity":0.7637795275590551,"duration":0.28154494270836494},{"name":"G3","midi":55,"time":542.8304419999937,"velocity":0.7637795275590551,"duration":0.5645639427084461},{"name":"C5","midi":72,"time":543.1134609999938,"velocity":0.7637795275590551,"duration":0.24321945312499338},{"name":"F5","midi":77,"time":543.3964799999939,"velocity":0.7637795275590551,"duration":0.24321945312499338},{"name":"G2","midi":43,"time":543.3964799999939,"velocity":0.7637795275590551,"duration":0.5645639427083324},{"name":"B4","midi":71,"time":543.6794989999938,"velocity":0.7637795275590551,"duration":0.24321945312499338},{"name":"C5","midi":72,"time":543.9625179999939,"velocity":0.7637795275590551,"duration":0.8475829427084136},{"name":"C3","midi":48,"time":543.9625179999939,"velocity":0.7637795275590551,"duration":0.5645639427083324},{"name":"D#5","midi":75,"time":544.2455369999939,"velocity":0.7637795275590551,"duration":0.28154494270836494},{"name":"F#5","midi":78,"time":544.528555999994,"velocity":0.7637795275590551,"duration":0.28154494270836494},{"name":"A3","midi":57,"time":544.528555999994,"velocity":0.7637795275590551,"duration":0.5645639427084461},{"name":"C5","midi":72,"time":544.811574999994,"velocity":0.7637795275590551,"duration":0.24321945312499338},{"name":"A5","midi":81,"time":545.0945939999941,"velocity":0.7637795275590551,"duration":0.24321945312499338},{"name":"G3","midi":55,"time":545.0945939999941,"velocity":0.7637795275590551,"duration":0.5645639427083324},{"name":"C5","midi":72,"time":545.3776129999941,"velocity":0.7637795275590551,"duration":0.24321945312499338},{"name":"A4","midi":69,"time":545.6606319999942,"velocity":0.7637795275590551,"duration":0.5601417708332974},{"name":"F#3","midi":54,"time":545.6606319999942,"velocity":0.7637795275590551,"duration":0.5645639427083324},{"name":"C5","midi":72,"time":545.9436509999941,"velocity":0.7637795275590551,"duration":0.28154494270836494},{"name":"F#4","midi":66,"time":546.2266699999942,"velocity":0.7637795275590551,"duration":0.28154494270836494},{"name":"D3","midi":50,"time":546.2266699999942,"velocity":0.7637795275590551,"duration":0.5645639427084461},{"name":"C5","midi":72,"time":546.5096889999943,"velocity":0.7637795275590551,"duration":0.24321945312499338},{"name":"D4","midi":62,"time":546.7927079999944,"velocity":0.7637795275590551,"duration":0.24321945312499338},{"name":"F#3","midi":54,"time":546.7927079999944,"velocity":0.7637795275590551,"duration":0.5645639427083324},{"name":"C5","midi":72,"time":547.0757269999943,"velocity":0.7637795275590551,"duration":0.24321945312499338},{"name":"A#4","midi":70,"time":547.3587459999944,"velocity":0.7637795275590551,"duration":0.8475829427084136},{"name":"G3","midi":55,"time":547.3587459999944,"velocity":0.7637795275590551,"duration":0.5645639427083324},{"name":"D#5","midi":75,"time":547.6417649999944,"velocity":0.7637795275590551,"duration":0.28154494270836494},{"name":"D5","midi":74,"time":547.9247839999945,"velocity":0.7637795275590551,"duration":0.28154494270836494},{"name":"A#2","midi":46,"time":547.9247839999945,"velocity":0.7637795275590551,"duration":0.5645639427084461},{"name":"A#4","midi":70,"time":548.2078029999946,"velocity":0.7637795275590551,"duration":0.24321945312499338},{"name":"C5","midi":72,"time":548.4908219999946,"velocity":0.7637795275590551,"duration":0.24321945312499338},{"name":"D3","midi":50,"time":548.4908219999946,"velocity":0.7637795275590551,"duration":0.5645639427083324},{"name":"A4","midi":69,"time":548.7738409999946,"velocity":0.7637795275590551,"duration":0.24321945312499338},{"name":"G4","midi":67,"time":549.0568599999947,"velocity":0.7637795275590551,"duration":0.5601417708334111},{"name":"G2","midi":43,"time":549.0568599999947,"velocity":0.7637795275590551,"duration":0.28154494270836494},{"name":"A2","midi":45,"time":549.3398789999948,"velocity":0.7637795275590551,"duration":0.28154494270836494},{"name":"A#2","midi":46,"time":549.6228979999948,"velocity":0.7637795275590551,"duration":0.28154494270836494},{"name":"A4","midi":69,"time":549.9059169999949,"velocity":0.7637795275590551,"duration":0.1400354427083812},{"name":"C3","midi":48,"time":549.9059169999949,"velocity":0.7637795275590551,"duration":0.28154494270847863},{"name":"A#4","midi":70,"time":550.047426499995,"velocity":0.7637795275590551,"duration":0.1400354427083812},{"name":"A4","midi":69,"time":550.1889359999951,"velocity":0.7637795275590551,"duration":0.1400354427083812},{"name":"D3","midi":50,"time":550.1889359999951,"velocity":0.7637795275590551,"duration":0.28154494270847863},{"name":"G4","midi":67,"time":550.3304454999952,"velocity":0.7637795275590551,"duration":0.1400354427083812},{"name":"F4","midi":65,"time":550.4719549999953,"velocity":0.7637795275590551,"duration":0.1400354427083812},{"name":"D#3","midi":51,"time":550.4719549999953,"velocity":0.7637795275590551,"duration":0.28154494270847863},{"name":"D#4","midi":63,"time":550.6134644999954,"velocity":0.7637795275590551,"duration":0.1400354427083812},{"name":"D4","midi":62,"time":550.7549739999955,"velocity":0.7637795275590551,"duration":0.5601417708332974},{"name":"F3","midi":53,"time":550.7549739999955,"velocity":0.7637795275590551,"duration":0.5645639427083324},{"name":"A#4","midi":70,"time":551.0379929999955,"velocity":0.7637795275590551,"duration":0.28154494270836494},{"name":"A4","midi":69,"time":551.3210119999956,"velocity":0.7637795275590551,"duration":0.28154494270836494},{"name":"D#3","midi":51,"time":551.3210119999956,"velocity":0.7637795275590551,"duration":0.5645639427084461},{"name":"A#4","midi":70,"time":551.6040309999956,"velocity":0.7637795275590551,"duration":0.24321945312499338},{"name":"F5","midi":77,"time":551.8870499999957,"velocity":0.7637795275590551,"duration":0.24321945312499338},{"name":"D3","midi":50,"time":551.8870499999957,"velocity":0.7637795275590551,"duration":0.5645639427083324},{"name":"A#4","midi":70,"time":552.1700689999957,"velocity":0.7637795275590551,"duration":0.24321945312499338},{"name":"G#5","midi":80,"time":552.4530879999958,"velocity":0.7637795275590551,"duration":0.5601417708332974},{"name":"F3","midi":53,"time":552.4530879999958,"velocity":0.7637795275590551,"duration":0.5645639427083324},{"name":"A#4","midi":70,"time":552.7361069999957,"velocity":0.7637795275590551,"duration":0.28154494270836494},{"name":"G5","midi":79,"time":553.0191259999958,"velocity":0.7637795275590551,"duration":0.28154494270836494},{"name":"D#3","midi":51,"time":553.0191259999958,"velocity":0.7637795275590551,"duration":0.5645639427084461},{"name":"A#4","midi":70,"time":553.3021449999959,"velocity":0.7637795275590551,"duration":0.24321945312499338},{"name":"F5","midi":77,"time":553.585163999996,"velocity":0.7637795275590551,"duration":0.24321945312499338},{"name":"D3","midi":50,"time":553.585163999996,"velocity":0.7637795275590551,"duration":0.5645639427083324},{"name":"A#4","midi":70,"time":553.868182999996,"velocity":0.7637795275590551,"duration":0.24321945312499338},{"name":"D#4","midi":63,"time":554.151201999996,"velocity":0.7637795275590551,"duration":0.5601417708332974},{"name":"G3","midi":55,"time":554.151201999996,"velocity":0.7637795275590551,"duration":0.5645639427083324},{"name":"A#4","midi":70,"time":554.434220999996,"velocity":0.7637795275590551,"duration":0.28154494270836494},{"name":"A4","midi":69,"time":554.7172399999961,"velocity":0.7637795275590551,"duration":0.28154494270836494},{"name":"F3","midi":53,"time":554.7172399999961,"velocity":0.7637795275590551,"duration":0.5645639427084461},{"name":"A#4","midi":70,"time":555.0002589999962,"velocity":0.7637795275590551,"duration":0.24321945312499338},{"name":"G5","midi":79,"time":555.2832779999962,"velocity":0.7637795275590551,"duration":0.24321945312499338},{"name":"D#3","midi":51,"time":555.2832779999962,"velocity":0.7637795275590551,"duration":0.5645639427083324},{"name":"A#4","midi":70,"time":555.5662969999962,"velocity":0.7637795275590551,"duration":0.24321945312499338},{"name":"D#4","midi":63,"time":555.8493159999963,"velocity":0.7637795275590551,"duration":0.5601417708332974},{"name":"G3","midi":55,"time":555.8493159999963,"velocity":0.7637795275590551,"duration":0.5645639427083324},{"name":"A#4","midi":70,"time":556.1323349999963,"velocity":0.7637795275590551,"duration":0.5601417708334111},{"name":"F4","midi":65,"time":556.4153539999963,"velocity":0.7637795275590551,"duration":0.28154494270836494},{"name":"F3","midi":53,"time":556.4153539999963,"velocity":0.7637795275590551,"duration":0.5645639427084461},{"name":"A#4","midi":70,"time":556.6983729999964,"velocity":0.7637795275590551,"duration":0.24321945312499338},{"name":"G4","midi":67,"time":556.9813919999965,"velocity":0.7637795275590551,"duration":0.24321945312499338},{"name":"D#3","midi":51,"time":556.9813919999965,"velocity":0.7637795275590551,"duration":0.5645639427083324},{"name":"A#4","midi":70,"time":557.2644109999965,"velocity":0.7637795275590551,"duration":0.24321945312499338},{"name":"C5","midi":72,"time":557.5474299999966,"velocity":0.7637795275590551,"duration":0.28154494270836494},{"name":"G#3","midi":56,"time":557.5474299999966,"velocity":0.7637795275590551,"duration":0.5645639427084461},{"name":"A#4","midi":70,"time":557.8304489999966,"velocity":0.7637795275590551,"duration":0.5601417708334111},{"name":"D5","midi":74,"time":558.1134679999967,"velocity":0.7637795275590551,"duration":0.28154494270836494},{"name":"A#3","midi":58,"time":558.1134679999967,"velocity":0.7637795275590551,"duration":0.5645639427084461},{"name":"G#4","midi":68,"time":558.3964869999968,"velocity":0.7637795275590551,"duration":0.24321945312499338},{"name":"D#5","midi":75,"time":558.6795059999969,"velocity":0.7637795275590551,"duration":0.24321945312499338},{"name":"C4","midi":60,"time":558.6795059999969,"velocity":0.7637795275590551,"duration":0.5645639427083324},{"name":"G4","midi":67,"time":558.9625249999968,"velocity":0.7637795275590551,"duration":0.24321945312499338},{"name":"F5","midi":77,"time":559.2455439999969,"velocity":0.7637795275590551,"duration":0.28154494270836494},{"name":"D4","midi":62,"time":559.2455439999969,"velocity":0.7637795275590551,"duration":0.5645639427084461},{"name":"D#5","midi":75,"time":559.528562999997,"velocity":0.7637795275590551,"duration":0.5601417708334111},{"name":"G5","midi":79,"time":559.8115819999971,"velocity":0.7637795275590551,"duration":0.28154494270836494},{"name":"D#4","midi":63,"time":559.8115819999971,"velocity":0.7637795275590551,"duration":0.5645639427084461},{"name":"D5","midi":74,"time":560.0946009999972,"velocity":0.7637795275590551,"duration":0.24321945312499338},{"name":"A5","midi":81,"time":560.3776199999973,"velocity":0.7637795275590551,"duration":0.24321945312499338},{"name":"F4","midi":65,"time":560.3776199999973,"velocity":0.7637795275590551,"duration":0.5645639427083324},{"name":"C5","midi":72,"time":560.6606389999972,"velocity":0.7637795275590551,"duration":0.24321945312499338},{"name":"A#5","midi":82,"time":560.9436579999973,"velocity":0.7637795275590551,"duration":0.28154494270836494},{"name":"G4","midi":67,"time":560.9436579999973,"velocity":0.7637795275590551,"duration":0.5645639427084461},{"name":"A5","midi":81,"time":561.2266769999974,"velocity":0.7637795275590551,"duration":0.28154494270836494},{"name":"G5","midi":79,"time":561.5096959999975,"velocity":0.7637795275590551,"duration":0.28154494270836494},{"name":"A4","midi":69,"time":561.5096959999975,"velocity":0.7637795275590551,"duration":0.5645639427084461},{"name":"F5","midi":77,"time":561.7927149999975,"velocity":0.7637795275590551,"duration":0.28154494270836494},{"name":"D#5","midi":75,"time":562.0757339999976,"velocity":0.7637795275590551,"duration":0.24321945312499338},{"name":"A#4","midi":70,"time":562.0757339999976,"velocity":0.7637795275590551,"duration":0.5645639427083324},{"name":"D5","midi":74,"time":562.3587529999976,"velocity":0.7637795275590551,"duration":0.24321945312499338},{"name":"C5","midi":72,"time":562.6417719999977,"velocity":0.7637795275590551,"duration":1.6951658854167135},{"name":"F4","midi":65,"time":562.6417719999977,"velocity":0.7637795275590551,"duration":0.5645639427083324},{"name":"A#4","midi":70,"time":562.9247909999976,"velocity":0.7637795275590551,"duration":0.28154494270836494},{"name":"A4","midi":69,"time":563.2078099999977,"velocity":0.7637795275590551,"duration":0.24321945312499338},{"name":"F3","midi":53,"time":563.2078099999977,"velocity":0.7637795275590551,"duration":0.5645639427083324},{"name":"G4","midi":67,"time":563.4908289999977,"velocity":0.7637795275590551,"duration":0.24321945312499338},{"name":"F4","midi":65,"time":563.7738479999978,"velocity":0.7637795275590551,"duration":0.24321945312499338},{"name":"A3","midi":57,"time":563.7738479999978,"velocity":0.7637795275590551,"duration":0.5645639427083324},{"name":"D#4","midi":63,"time":564.0568669999977,"velocity":0.7637795275590551,"duration":0.24321945312499338},{"name":"D4","midi":62,"time":564.3398859999978,"velocity":0.7637795275590551,"duration":1.1306019427084948},{"name":"F5","midi":77,"time":564.6229049999978,"velocity":0.7637795275590551,"duration":0.28154494270836494},{"name":"G5","midi":79,"time":564.9059239999979,"velocity":0.7637795275590551,"duration":0.28154494270836494},{"name":"D3","midi":50,"time":564.9059239999979,"velocity":0.7637795275590551,"duration":0.5645639427084461},{"name":"F5","midi":77,"time":565.188942999998,"velocity":0.7637795275590551,"duration":0.24321945312499338},{"name":"C5","midi":72,"time":565.471961999998,"velocity":0.7637795275590551,"duration":0.24321945312499338},{"name":"F3","midi":53,"time":565.471961999998,"velocity":0.7637795275590551,"duration":0.5645639427083324},{"name":"F5","midi":77,"time":565.754980999998,"velocity":0.7637795275590551,"duration":0.24321945312499338},{"name":"B4","midi":71,"time":566.0379999999981,"velocity":0.7637795275590551,"duration":0.28154494270836494},{"name":"G3","midi":55,"time":566.0379999999981,"velocity":0.7637795275590551,"duration":0.5645639427084461},{"name":"F5","midi":77,"time":566.3210189999982,"velocity":0.7637795275590551,"duration":0.28154494270836494},{"name":"A4","midi":69,"time":566.6040379999982,"velocity":0.7637795275590551,"duration":0.28154494270836494},{"name":"A3","midi":57,"time":566.6040379999982,"velocity":0.7637795275590551,"duration":0.5645639427084461},{"name":"F5","midi":77,"time":566.8870569999983,"velocity":0.7637795275590551,"duration":0.24321945312499338},{"name":"G4","midi":67,"time":567.1700759999984,"velocity":0.7637795275590551,"duration":0.24321945312499338},{"name":"B3","midi":59,"time":567.1700759999984,"velocity":0.7637795275590551,"duration":0.5645639427083324},{"name":"F5","midi":77,"time":567.4530949999984,"velocity":0.7637795275590551,"duration":0.24321945312499338},{"name":"C4","midi":60,"time":567.7361139999985,"velocity":0.7637795275590551,"duration":1.1306019427084948},{"name":"D#5","midi":75,"time":568.0191329999984,"velocity":0.7637795275590551,"duration":0.28154494270836494},{"name":"F5","midi":77,"time":568.3021519999985,"velocity":0.7637795275590551,"duration":0.28154494270836494},{"name":"C3","midi":48,"time":568.3021519999985,"velocity":0.7637795275590551,"duration":0.5645639427084461},{"name":"D#5","midi":75,"time":568.5851709999986,"velocity":0.7637795275590551,"duration":0.24321945312499338},{"name":"A#4","midi":70,"time":568.8681899999987,"velocity":0.7637795275590551,"duration":0.24321945312499338},{"name":"D#3","midi":51,"time":568.8681899999987,"velocity":0.7637795275590551,"duration":0.5645639427083324},{"name":"D#5","midi":75,"time":569.1512089999986,"velocity":0.7637795275590551,"duration":0.24321945312499338},{"name":"A4","midi":69,"time":569.4342279999987,"velocity":0.7637795275590551,"duration":0.28154494270836494},{"name":"F3","midi":53,"time":569.4342279999987,"velocity":0.7637795275590551,"duration":0.5645639427084461},{"name":"D#5","midi":75,"time":569.7172469999988,"velocity":0.7637795275590551,"duration":0.28154494270836494},{"name":"G4","midi":67,"time":570.0002659999989,"velocity":0.7637795275590551,"duration":0.28154494270836494},{"name":"G3","midi":55,"time":570.0002659999989,"velocity":0.7637795275590551,"duration":0.5645639427084461},{"name":"D#5","midi":75,"time":570.283284999999,"velocity":0.7637795275590551,"duration":0.24321945312499338},{"name":"F4","midi":65,"time":570.566303999999,"velocity":0.7637795275590551,"duration":0.24321945312499338},{"name":"A3","midi":57,"time":570.566303999999,"velocity":0.7637795275590551,"duration":0.5645639427083324},{"name":"D#5","midi":75,"time":570.849322999999,"velocity":0.7637795275590551,"duration":0.24321945312499338},{"name":"D5","midi":74,"time":571.1323419999991,"velocity":0.7637795275590551,"duration":0.28154494270836494},{"name":"A#3","midi":58,"time":571.1323419999991,"velocity":0.7637795275590551,"duration":0.5645639427084461},{"name":"F5","midi":77,"time":571.4153609999992,"velocity":0.7637795275590551,"duration":0.28154494270836494},{"name":"D5","midi":74,"time":571.6983799999992,"velocity":0.7637795275590551,"duration":0.24321945312499338},{"name":"D#3","midi":51,"time":571.6983799999992,"velocity":0.7637795275590551,"duration":0.5645639427083324},{"name":"A#4","midi":70,"time":571.9813989999992,"velocity":0.7637795275590551,"duration":0.24321945312499338},{"name":"F4","midi":65,"time":572.2732623437493,"velocity":0.7637795275590551,"duration":0.4245285000000649},{"name":"F3","midi":53,"time":572.2732623437493,"velocity":0.7637795275590551,"duration":0.5645639427084461},{"name":"A4","midi":69,"time":572.5651256874993,"velocity":0.7637795275590551,"duration":0.2653303125000548},{"name":"A#4","midi":70,"time":572.8776258333327,"velocity":0.7637795275590551,"duration":4.348469010416693},{"name":"A#2","midi":46,"time":572.8776258333327,"velocity":0.7637795275590551,"duration":2.0636802083333805},{"name":"F5","midi":77,"time":577.3587599999994,"velocity":0.7637795275590551,"duration":0.27859682812493247},{"name":"D4","midi":62,"time":577.453099666666,"velocity":0.7637795275590551,"duration":0.2771227708333299},{"name":"A#4","midi":70,"time":577.5474393333327,"velocity":0.7637795275590551,"duration":0.2771227708333299},{"name":"A#3","midi":58,"time":577.6417789999994,"velocity":0.7637795275590551,"duration":0.19162744791663044},{"name":"D4","midi":62,"time":577.736118666666,"velocity":0.7637795275590551,"duration":0.2771227708333299},{"name":"A#4","midi":70,"time":577.8304583333327,"velocity":0.7637795275590551,"duration":0.2771227708333299},{"name":"A#2","midi":46,"time":577.9247979999993,"velocity":0.7637795275590551,"duration":0.19162744791663044},{"name":"D4","midi":62,"time":578.019137666666,"velocity":0.7637795275590551,"duration":0.2771227708333299},{"name":"A#4","midi":70,"time":578.1134773333326,"velocity":0.7637795275590551,"duration":0.2771227708333299},{"name":"F5","midi":77,"time":578.2078169999993,"velocity":0.7637795275590551,"duration":0.19162744791663044},{"name":"D4","midi":62,"time":578.302156666666,"velocity":0.7637795275590551,"duration":0.18720527604159543},{"name":"A#4","midi":70,"time":578.3964963333326,"velocity":0.7637795275590551,"duration":0.2771227708333299},{"name":"G5","midi":79,"time":578.4908359999993,"velocity":0.7637795275590551,"duration":0.27859682812493247},{"name":"D#4","midi":63,"time":578.5851756666659,"velocity":0.7637795275590551,"duration":0.2771227708333299},{"name":"A#4","midi":70,"time":578.6795153333326,"velocity":0.7637795275590551,"duration":0.2771227708333299},{"name":"G#4","midi":68,"time":578.7738549999992,"velocity":0.7637795275590551,"duration":0.19162744791663044},{"name":"D#4","midi":63,"time":578.8681946666659,"velocity":0.7637795275590551,"duration":0.2771227708333299},{"name":"A#4","midi":70,"time":578.9625343333325,"velocity":0.7637795275590551,"duration":0.2771227708333299},{"name":"G4","midi":67,"time":579.0568739999992,"velocity":0.7637795275590551,"duration":0.19162744791663044},{"name":"D#4","midi":63,"time":579.1512136666659,"velocity":0.7637795275590551,"duration":0.2771227708333299},{"name":"A#4","midi":70,"time":579.2455533333325,"velocity":0.7637795275590551,"duration":0.2771227708333299},{"name":"G5","midi":79,"time":579.3398929999992,"velocity":0.7637795275590551,"duration":0.19162744791663044},{"name":"D#4","midi":63,"time":579.4342326666658,"velocity":0.7637795275590551,"duration":0.2771227708333299},{"name":"A#4","midi":70,"time":579.5285723333325,"velocity":0.7637795275590551,"duration":0.09433966666665583},{"name":"C5","midi":72,"time":579.6229119999991,"velocity":0.7637795275590551,"duration":0.27859682812493247},{"name":"D#4","midi":63,"time":579.7172516666658,"velocity":0.7637795275590551,"duration":0.2771227708333299},{"name":"A4","midi":69,"time":579.8115913333324,"velocity":0.7637795275590551,"duration":0.2771227708333299},{"name":"F#4","midi":66,"time":579.9059309999991,"velocity":0.7637795275590551,"duration":0.19162744791663044},{"name":"D#4","midi":63,"time":580.0002706666658,"velocity":0.7637795275590551,"duration":0.2771227708333299},{"name":"A4","midi":69,"time":580.0946103333324,"velocity":0.7637795275590551,"duration":0.2771227708333299},{"name":"F4","midi":65,"time":580.1889499999991,"velocity":0.7637795275590551,"duration":0.19162744791663044},{"name":"D#4","midi":63,"time":580.2832896666657,"velocity":0.7637795275590551,"duration":0.2771227708333299},{"name":"A4","midi":69,"time":580.3776293333324,"velocity":0.7637795275590551,"duration":0.2771227708333299},{"name":"C5","midi":72,"time":580.471968999999,"velocity":0.7637795275590551,"duration":0.19162744791663044},{"name":"D#4","midi":63,"time":580.5663086666657,"velocity":0.7637795275590551,"duration":0.18720527604159543},{"name":"A4","midi":69,"time":580.6606483333323,"velocity":0.7637795275590551,"duration":0.09433966666665583},{"name":"D5","midi":74,"time":580.754987999999,"velocity":0.7637795275590551,"duration":0.27859682812493247},{"name":"F4","midi":65,"time":580.8493276666657,"velocity":0.7637795275590551,"duration":0.2771227708333299},{"name":"A#4","midi":70,"time":580.9436673333323,"velocity":0.7637795275590551,"duration":0.2771227708333299},{"name":"A#3","midi":58,"time":581.038006999999,"velocity":0.7637795275590551,"duration":0.19162744791663044},{"name":"F4","midi":65,"time":581.1323466666656,"velocity":0.7637795275590551,"duration":0.2771227708333299},{"name":"A#4","midi":70,"time":581.2266863333323,"velocity":0.7637795275590551,"duration":0.2771227708333299},{"name":"A#2","midi":46,"time":581.3210259999989,"velocity":0.7637795275590551,"duration":0.19162744791663044},{"name":"F4","midi":65,"time":581.4153656666656,"velocity":0.7637795275590551,"duration":0.2771227708333299},{"name":"A#4","midi":70,"time":581.5097053333322,"velocity":0.7637795275590551,"duration":0.2771227708333299},{"name":"D5","midi":74,"time":581.6040449999989,"velocity":0.7637795275590551,"duration":0.19162744791663044},{"name":"F4","midi":65,"time":581.6983846666656,"velocity":0.7637795275590551,"duration":0.2771227708333299},{"name":"A#4","midi":70,"time":581.7927243333322,"velocity":0.7637795275590551,"duration":0.18425716145839033},{"name":"G5","midi":79,"time":581.8870639999989,"velocity":0.7637795275590551,"duration":0.27859682812504616},{"name":"A#4","midi":70,"time":581.9814036666656,"velocity":0.7637795275590551,"duration":0.2771227708333299},{"name":"D5","midi":74,"time":582.0757433333323,"velocity":0.7637795275590551,"duration":0.2771227708333299},{"name":"A4","midi":69,"time":582.170082999999,"velocity":0.7637795275590551,"duration":0.19162744791663044},{"name":"A#4","midi":70,"time":582.2644226666656,"velocity":0.7637795275590551,"duration":0.2771227708333299},{"name":"D5","midi":74,"time":582.3587623333323,"velocity":0.7637795275590551,"duration":0.2771227708333299},{"name":"G4","midi":67,"time":582.4531019999989,"velocity":0.7637795275590551,"duration":0.19162744791663044},{"name":"A#4","midi":70,"time":582.5474416666656,"velocity":0.7637795275590551,"duration":0.2771227708333299},{"name":"D5","midi":74,"time":582.6417813333322,"velocity":0.7637795275590551,"duration":0.2771227708333299},{"name":"F4","midi":65,"time":582.7361209999989,"velocity":0.7637795275590551,"duration":0.19162744791663044},{"name":"A#4","midi":70,"time":582.8304606666655,"velocity":0.7637795275590551,"duration":0.2771227708333299},{"name":"D5","midi":74,"time":582.9248003333322,"velocity":0.7637795275590551,"duration":0.2771227708333299},{"name":"E4","midi":64,"time":583.0191399999989,"velocity":0.7637795275590551,"duration":0.5601417708332974},{"name":"A#4","midi":70,"time":583.1134796666655,"velocity":0.7637795275590551,"duration":0.2771227708333299},{"name":"C5","midi":72,"time":583.2078193333322,"velocity":0.7637795275590551,"duration":0.2771227708333299},{"name":"G4","midi":67,"time":583.3021589999988,"velocity":0.7637795275590551,"duration":0.2800708854166487},{"name":"A#4","midi":70,"time":583.3964986666655,"velocity":0.7637795275590551,"duration":0.2771227708333299},{"name":"C5","midi":72,"time":583.4908383333321,"velocity":0.7637795275590551,"duration":0.2771227708333299},{"name":"C4","midi":60,"time":583.5851779999988,"velocity":0.7637795275590551,"duration":0.19162744791663044},{"name":"A#4","midi":70,"time":583.6795176666654,"velocity":0.7637795275590551,"duration":0.2771227708333299},{"name":"C5","midi":72,"time":583.7738573333321,"velocity":0.7637795275590551,"duration":0.2771227708333299},{"name":"E5","midi":76,"time":583.8681969999988,"velocity":0.7637795275590551,"duration":0.19162744791663044},{"name":"A#4","midi":70,"time":583.9625366666654,"velocity":0.7637795275590551,"duration":0.18720527604159543},{"name":"C5","midi":72,"time":584.0568763333321,"velocity":0.7637795275590551,"duration":0.09433966666665583},{"name":"F5","midi":77,"time":584.1512159999987,"velocity":0.7637795275590551,"duration":0.27859682812493247},{"name":"A4","midi":69,"time":584.2455556666654,"velocity":0.7637795275590551,"duration":0.2771227708333299},{"name":"C5","midi":72,"time":584.339895333332,"velocity":0.7637795275590551,"duration":0.2771227708333299},{"name":"G4","midi":67,"time":584.4342349999987,"velocity":0.7637795275590551,"duration":0.19162744791663044},{"name":"A4","midi":69,"time":584.5285746666653,"velocity":0.7637795275590551,"duration":0.2771227708333299},{"name":"C5","midi":72,"time":584.622914333332,"velocity":0.7637795275590551,"duration":0.2771227708333299},{"name":"F4","midi":65,"time":584.7172539999987,"velocity":0.7637795275590551,"duration":0.19162744791663044},{"name":"A4","midi":69,"time":584.8115936666653,"velocity":0.7637795275590551,"duration":0.2771227708333299},{"name":"C5","midi":72,"time":584.905933333332,"velocity":0.7637795275590551,"duration":0.2771227708333299},{"name":"E4","midi":64,"time":585.0002729999986,"velocity":0.7637795275590551,"duration":0.19162744791663044},{"name":"A4","midi":69,"time":585.0946126666653,"velocity":0.7637795275590551,"duration":0.2771227708333299},{"name":"C5","midi":72,"time":585.1889523333319,"velocity":0.7637795275590551,"duration":0.2771227708333299},{"name":"D4","midi":62,"time":585.2832919999986,"velocity":0.7637795275590551,"duration":0.5601417708332974},{"name":"A4","midi":69,"time":585.3776316666653,"velocity":0.7637795275590551,"duration":0.2771227708333299},{"name":"A#4","midi":70,"time":585.4719713333319,"velocity":0.7637795275590551,"duration":0.2771227708333299},{"name":"F4","midi":65,"time":585.5663109999986,"velocity":0.7637795275590551,"duration":0.2800708854166487},{"name":"A4","midi":69,"time":585.6606506666652,"velocity":0.7637795275590551,"duration":0.2771227708333299},{"name":"A#4","midi":70,"time":585.7549903333319,"velocity":0.7637795275590551,"duration":0.2771227708333299},{"name":"A#3","midi":58,"time":585.8493299999985,"velocity":0.7637795275590551,"duration":0.19162744791663044},{"name":"A4","midi":69,"time":585.9436696666652,"velocity":0.7637795275590551,"duration":0.2771227708333299},{"name":"A#4","midi":70,"time":586.0380093333318,"velocity":0.7637795275590551,"duration":0.2771227708333299},{"name":"D5","midi":74,"time":586.1323489999985,"velocity":0.7637795275590551,"duration":0.19162744791663044},{"name":"A4","midi":69,"time":586.2266886666652,"velocity":0.7637795275590551,"duration":0.18720527604159543},{"name":"A#4","midi":70,"time":586.3210283333318,"velocity":0.7637795275590551,"duration":0.09433966666665583},{"name":"E5","midi":76,"time":586.4153679999985,"velocity":0.7637795275590551,"duration":0.27859682812493247},{"name":"G4","midi":67,"time":586.5097076666651,"velocity":0.7637795275590551,"duration":0.2771227708333299},{"name":"A#4","midi":70,"time":586.6040473333318,"velocity":0.7637795275590551,"duration":0.2771227708333299},{"name":"C#4","midi":61,"time":586.6983869999984,"velocity":0.7637795275590551,"duration":0.19162744791663044},{"name":"G4","midi":67,"time":586.7927266666651,"velocity":0.7637795275590551,"duration":0.2771227708333299},{"name":"A#4","midi":70,"time":586.8870663333317,"velocity":0.7637795275590551,"duration":0.2771227708333299},{"name":"C4","midi":60,"time":586.9814059999984,"velocity":0.7637795275590551,"duration":0.19162744791663044},{"name":"G4","midi":67,"time":587.0757456666651,"velocity":0.7637795275590551,"duration":0.2771227708333299},{"name":"A#4","midi":70,"time":587.1700853333317,"velocity":0.7637795275590551,"duration":0.2771227708333299},{"name":"E5","midi":76,"time":587.2644249999984,"velocity":0.7637795275590551,"duration":0.19162744791663044},{"name":"G4","midi":67,"time":587.358764666665,"velocity":0.7637795275590551,"duration":0.2771227708333299},{"name":"A#4","midi":70,"time":587.4531043333317,"velocity":0.7637795275590551,"duration":0.1872052760417091},{"name":"F5","midi":77,"time":587.5474439999983,"velocity":0.7637795275590551,"duration":0.27859682812504616},{"name":"F4","midi":65,"time":587.6417836666651,"velocity":0.7637795275590551,"duration":0.2771227708333299},{"name":"G#4","midi":68,"time":587.7361233333318,"velocity":0.7637795275590551,"duration":0.2771227708333299},{"name":"C#4","midi":61,"time":587.8304629999984,"velocity":0.7637795275590551,"duration":0.19162744791663044},{"name":"F4","midi":65,"time":587.9248026666651,"velocity":0.7637795275590551,"duration":0.2771227708333299},{"name":"G#4","midi":68,"time":588.0191423333317,"velocity":0.7637795275590551,"duration":0.2771227708333299},{"name":"C4","midi":60,"time":588.1134819999984,"velocity":0.7637795275590551,"duration":0.19162744791663044},{"name":"F4","midi":65,"time":588.207821666665,"velocity":0.7637795275590551,"duration":0.2771227708333299},{"name":"G#4","midi":68,"time":588.3021613333317,"velocity":0.7637795275590551,"duration":0.2771227708333299},{"name":"F5","midi":77,"time":588.3965009999984,"velocity":0.7637795275590551,"duration":0.19162744791663044},{"name":"F4","midi":65,"time":588.490840666665,"velocity":0.7637795275590551,"duration":0.2771227708333299},{"name":"G#4","midi":68,"time":588.5851803333317,"velocity":0.7637795275590551,"duration":0.1872052760417091},{"name":"G5","midi":79,"time":588.6795199999983,"velocity":0.7637795275590551,"duration":0.27859682812504616},{"name":"E4","midi":64,"time":588.7738596666651,"velocity":0.7637795275590551,"duration":0.2771227708333299},{"name":"G4","midi":67,"time":588.8681993333317,"velocity":0.7637795275590551,"duration":0.2771227708333299},{"name":"C#4","midi":61,"time":588.9625389999984,"velocity":0.7637795275590551,"duration":0.19162744791663044},{"name":"E4","midi":64,"time":589.056878666665,"velocity":0.7637795275590551,"duration":0.2771227708333299},{"name":"G4","midi":67,"time":589.1512183333317,"velocity":0.7637795275590551,"duration":0.2771227708333299},{"name":"C4","midi":60,"time":589.2455579999984,"velocity":0.7637795275590551,"duration":0.19162744791663044},{"name":"E4","midi":64,"time":589.339897666665,"velocity":0.7637795275590551,"duration":0.2771227708333299},{"name":"G4","midi":67,"time":589.4342373333317,"velocity":0.7637795275590551,"duration":0.2771227708333299},{"name":"G5","midi":79,"time":589.5285769999983,"velocity":0.7637795275590551,"duration":0.19162744791663044},{"name":"E4","midi":64,"time":589.622916666665,"velocity":0.7637795275590551,"duration":0.2771227708333299},{"name":"G4","midi":67,"time":589.7172563333316,"velocity":0.7637795275590551,"duration":0.1872052760417091},{"name":"G#5","midi":80,"time":589.8115959999983,"velocity":0.7637795275590551,"duration":0.27859682812504616},{"name":"E4","midi":64,"time":589.9059356666651,"velocity":0.7637795275590551,"duration":0.2771227708333299},{"name":"F4","midi":65,"time":590.0002753333317,"velocity":0.7637795275590551,"duration":0.2771227708333299},{"name":"C#4","midi":61,"time":590.0946149999984,"velocity":0.7637795275590551,"duration":0.19162744791663044},{"name":"E4","midi":64,"time":590.188954666665,"velocity":0.7637795275590551,"duration":0.2771227708333299},{"name":"F4","midi":65,"time":590.2832943333317,"velocity":0.7637795275590551,"duration":0.2771227708333299},{"name":"C4","midi":60,"time":590.3776339999984,"velocity":0.7637795275590551,"duration":0.19162744791663044},{"name":"E4","midi":64,"time":590.471973666665,"velocity":0.7637795275590551,"duration":0.2771227708333299},{"name":"F4","midi":65,"time":590.5663133333317,"velocity":0.7637795275590551,"duration":0.2771227708333299},{"name":"G#5","midi":80,"time":590.6606529999983,"velocity":0.7637795275590551,"duration":0.19162744791663044},{"name":"E4","midi":64,"time":590.754992666665,"velocity":0.7637795275590551,"duration":0.18720527604159543},{"name":"F4","midi":65,"time":590.8493323333316,"velocity":0.7637795275590551,"duration":0.2771227708333299},{"name":"B4","midi":71,"time":590.9436719999983,"velocity":0.7637795275590551,"duration":0.27859682812493247},{"name":"D4","midi":62,"time":591.0380116666649,"velocity":0.7637795275590551,"duration":0.2771227708333299},{"name":"F4","midi":65,"time":591.1323513333316,"velocity":0.7637795275590551,"duration":0.2771227708333299},{"name":"G#3","midi":56,"time":591.2266909999983,"velocity":0.7637795275590551,"duration":0.19162744791663044},{"name":"D4","midi":62,"time":591.3210306666649,"velocity":0.7637795275590551,"duration":0.2771227708333299},{"name":"F4","midi":65,"time":591.4153703333316,"velocity":0.7637795275590551,"duration":0.2771227708333299},{"name":"G3","midi":55,"time":591.5097099999982,"velocity":0.7637795275590551,"duration":0.19162744791663044},{"name":"D4","midi":62,"time":591.6040496666649,"velocity":0.7637795275590551,"duration":0.2771227708333299},{"name":"F4","midi":65,"time":591.6983893333315,"velocity":0.7637795275590551,"duration":0.2771227708333299},{"name":"B4","midi":71,"time":591.7927289999982,"velocity":0.7637795275590551,"duration":0.19162744791663044},{"name":"D4","midi":62,"time":591.8870686666648,"velocity":0.7637795275590551,"duration":0.2771227708333299},{"name":"F4","midi":65,"time":591.9814083333315,"velocity":0.7637795275590551,"duration":0.1872052760417091},{"name":"C5","midi":72,"time":592.0757479999982,"velocity":0.7637795275590551,"duration":0.27859682812504616},{"name":"E4","midi":64,"time":592.1700876666649,"velocity":0.7637795275590551,"duration":0.2771227708333299},{"name":"G4","midi":67,"time":592.2644273333316,"velocity":0.7637795275590551,"duration":0.2771227708333299},{"name":"C#3","midi":49,"time":592.3587669999982,"velocity":0.7637795275590551,"duration":0.19162744791663044},{"name":"E4","midi":64,"time":592.4531066666649,"velocity":0.7637795275590551,"duration":0.2771227708333299},{"name":"G4","midi":67,"time":592.5474463333315,"velocity":0.7637795275590551,"duration":0.2771227708333299},{"name":"C3","midi":48,"time":592.6417859999982,"velocity":0.7637795275590551,"duration":0.19162744791663044},{"name":"E4","midi":64,"time":592.7361256666649,"velocity":0.7637795275590551,"duration":0.2771227708333299},{"name":"G4","midi":67,"time":592.8304653333315,"velocity":0.7637795275590551,"duration":0.2771227708333299},{"name":"A#4","midi":70,"time":592.9248049999982,"velocity":0.7637795275590551,"duration":0.19162744791663044},{"name":"E4","midi":64,"time":593.0191446666648,"velocity":0.7637795275590551,"duration":0.2771227708333299},{"name":"G4","midi":67,"time":593.1134843333315,"velocity":0.7637795275590551,"duration":0.1872052760417091},{"name":"G#4","midi":68,"time":593.2078239999981,"velocity":0.7637795275590551,"duration":0.27859682812504616},{"name":"E4","midi":64,"time":593.3021636666649,"velocity":0.7637795275590551,"duration":0.2771227708333299},{"name":"F4","midi":65,"time":593.3965033333316,"velocity":0.7637795275590551,"duration":0.2771227708333299},{"name":"B3","midi":59,"time":593.4908429999982,"velocity":0.7637795275590551,"duration":0.19162744791663044},{"name":"E4","midi":64,"time":593.5851826666649,"velocity":0.7637795275590551,"duration":0.2771227708333299},{"name":"F4","midi":65,"time":593.6795223333315,"velocity":0.7637795275590551,"duration":0.2771227708333299},{"name":"C4","midi":60,"time":593.7738619999982,"velocity":0.7637795275590551,"duration":0.19162744791663044},{"name":"E4","midi":64,"time":593.8682016666648,"velocity":0.7637795275590551,"duration":0.2771227708333299},{"name":"F4","midi":65,"time":593.9625413333315,"velocity":0.7637795275590551,"duration":0.2771227708333299},{"name":"C3","midi":48,"time":594.0568809999982,"velocity":0.7637795275590551,"duration":0.19162744791663044},{"name":"E4","midi":64,"time":594.1512206666648,"velocity":0.7637795275590551,"duration":0.19457556249994923},{"name":"F4","midi":65,"time":594.2455603333315,"velocity":0.7637795275590551,"duration":0.1002358958332934},{"name":"F2","midi":41,"time":594.3398999999981,"velocity":0.7637795275590551,"duration":0.5601417708332974},{"name":"A3","midi":57,"time":594.4342396666648,"velocity":0.7637795275590551,"duration":0.11792458333331979},{"name":"C4","midi":60,"time":594.5285793333314,"velocity":0.7637795275590551,"duration":0.11792458333331979},{"name":"F4","midi":65,"time":594.6229189999981,"velocity":0.7637795275590551,"duration":0.11792458333331979},{"name":"A4","midi":69,"time":594.7172586666647,"velocity":0.7637795275590551,"duration":0.11792458333331979},{"name":"C5","midi":72,"time":594.8115983333314,"velocity":0.7637795275590551,"duration":0.11792458333331979},{"name":"F5","midi":77,"time":594.9059379999981,"velocity":0.7637795275590551,"duration":0.5616158281249},{"name":"C5","midi":72,"time":595.0002776666647,"velocity":0.7637795275590551,"duration":0.11792458333331979},{"name":"A4","midi":69,"time":595.0946173333314,"velocity":0.7637795275590551,"duration":0.11792458333331979},{"name":"F4","midi":65,"time":595.188956999998,"velocity":0.7637795275590551,"duration":0.11792458333331979},{"name":"C4","midi":60,"time":595.2832966666647,"velocity":0.7637795275590551,"duration":0.11792458333331979},{"name":"A3","midi":57,"time":595.3776363333313,"velocity":0.7637795275590551,"duration":0.11792458333331979},{"name":"A5","midi":81,"time":595.471975999998,"velocity":0.7637795275590551,"duration":0.27859682812493247},{"name":"F3","midi":53,"time":595.471975999998,"velocity":0.7637795275590551,"duration":0.11792458333331979},{"name":"F4","midi":65,"time":595.5663156666647,"velocity":0.7637795275590551,"duration":0.2771227708333299},{"name":"C5","midi":72,"time":595.6606553333313,"velocity":0.7637795275590551,"duration":0.2771227708333299},{"name":"D#4","midi":63,"time":595.754994999998,"velocity":0.7637795275590551,"duration":0.19162744791663044},{"name":"F4","midi":65,"time":595.8493346666646,"velocity":0.7637795275590551,"duration":0.2771227708333299},{"name":"C5","midi":72,"time":595.9436743333313,"velocity":0.7637795275590551,"duration":0.2771227708333299},{"name":"F3","midi":53,"time":596.0380139999979,"velocity":0.7637795275590551,"duration":0.19162744791663044},{"name":"F4","midi":65,"time":596.1323536666646,"velocity":0.7637795275590551,"duration":0.2771227708333299},{"name":"C5","midi":72,"time":596.2266933333312,"velocity":0.7637795275590551,"duration":0.2771227708333299},{"name":"A5","midi":81,"time":596.3210329999979,"velocity":0.7637795275590551,"duration":0.19162744791663044},{"name":"F4","midi":65,"time":596.4153726666646,"velocity":0.7637795275590551,"duration":0.2771227708333299},{"name":"C5","midi":72,"time":596.5097123333312,"velocity":0.7637795275590551,"duration":0.09433966666665583},{"name":"A#5","midi":82,"time":596.6040519999979,"velocity":0.7637795275590551,"duration":0.27859682812493247},{"name":"F4","midi":65,"time":596.6983916666645,"velocity":0.7637795275590551,"duration":0.2771227708333299},{"name":"D5","midi":74,"time":596.7927313333312,"velocity":0.7637795275590551,"duration":0.2771227708333299},{"name":"G#4","midi":68,"time":596.8870709999978,"velocity":0.7637795275590551,"duration":0.19162744791663044},{"name":"F4","midi":65,"time":596.9814106666645,"velocity":0.7637795275590551,"duration":0.2771227708333299},{"name":"D5","midi":74,"time":597.0757503333311,"velocity":0.7637795275590551,"duration":0.2771227708333299},{"name":"A#3","midi":58,"time":597.1700899999978,"velocity":0.7637795275590551,"duration":0.19162744791663044},{"name":"F4","midi":65,"time":597.2644296666645,"velocity":0.7637795275590551,"duration":0.2771227708333299},{"name":"D5","midi":74,"time":597.3587693333311,"velocity":0.7637795275590551,"duration":0.2771227708333299},{"name":"A#5","midi":82,"time":597.4531089999978,"velocity":0.7637795275590551,"duration":0.19162744791663044},{"name":"F4","midi":65,"time":597.5474486666644,"velocity":0.7637795275590551,"duration":0.18720527604159543},{"name":"D5","midi":74,"time":597.6417883333311,"velocity":0.7637795275590551,"duration":0.2771227708333299},{"name":"G5","midi":79,"time":597.7361279999977,"velocity":0.7637795275590551,"duration":0.27859682812493247},{"name":"D#4","midi":63,"time":597.8304676666644,"velocity":0.7637795275590551,"duration":0.2771227708333299},{"name":"D5","midi":74,"time":597.924807333331,"velocity":0.7637795275590551,"duration":0.1872052760417091},{"name":"A#4","midi":70,"time":598.0191469999977,"velocity":0.7637795275590551,"duration":0.19162744791674413},{"name":"D#4","midi":63,"time":598.1134866666645,"velocity":0.7637795275590551,"duration":0.2771227708333299},{"name":"D5","midi":74,"time":598.2078263333311,"velocity":0.7637795275590551,"duration":0.1872052760417091},{"name":"A4","midi":69,"time":598.3021659999978,"velocity":0.7637795275590551,"duration":0.19162744791674413},{"name":"D#4","midi":63,"time":598.3965056666646,"velocity":0.7637795275590551,"duration":0.2771227708333299},{"name":"C5","midi":72,"time":598.4908453333312,"velocity":0.7637795275590551,"duration":0.1872052760417091},{"name":"G5","midi":79,"time":598.5851849999979,"velocity":0.7637795275590551,"duration":0.19162744791674413},{"name":"D#4","midi":63,"time":598.6795246666646,"velocity":0.7637795275590551,"duration":0.18720527604159543},{"name":"C5","midi":72,"time":598.7738643333313,"velocity":0.7637795275590551,"duration":0.1872052760417091},{"name":"F#5","midi":78,"time":598.868203999998,"velocity":0.7637795275590551,"duration":0.27859682812504616},{"name":"D4","midi":62,"time":598.9625436666647,"velocity":0.7637795275590551,"duration":0.18720527604159543},{"name":"C5","midi":72,"time":599.0568833333314,"velocity":0.7637795275590551,"duration":0.2771227708333299},{"name":"G4","midi":67,"time":599.151222999998,"velocity":0.7637795275590551,"duration":0.19162744791663044},{"name":"E4","midi":64,"time":599.2455626666647,"velocity":0.7637795275590551,"duration":0.18720527604159543},{"name":"C5","midi":72,"time":599.3399023333313,"velocity":0.7637795275590551,"duration":0.2771227708333299},{"name":"A4","midi":69,"time":599.434241999998,"velocity":0.7637795275590551,"duration":0.19162744791663044},{"name":"F#4","midi":66,"time":599.5285816666646,"velocity":0.7637795275590551,"duration":0.18720527604159543},{"name":"C5","midi":72,"time":599.6229213333313,"velocity":0.7637795275590551,"duration":0.2771227708333299},{"name":"F#5","midi":78,"time":599.717260999998,"velocity":0.7637795275590551,"duration":0.19162744791663044},{"name":"A4","midi":69,"time":599.8116006666646,"velocity":0.7637795275590551,"duration":0.18720527604159543},{"name":"C5","midi":72,"time":599.9059403333313,"velocity":0.7637795275590551,"duration":0.1872052760417091},{"name":"G5","midi":79,"time":600.0002799999979,"velocity":0.7637795275590551,"duration":0.27859682812504616},{"name":"G4","midi":67,"time":600.0946196666647,"velocity":0.7637795275590551,"duration":0.2771227708333299},{"name":"A#4","midi":70,"time":600.1889593333314,"velocity":0.7637795275590551,"duration":0.2771227708333299},{"name":"D#4","midi":63,"time":600.283298999998,"velocity":0.7637795275590551,"duration":0.19162744791663044},{"name":"G4","midi":67,"time":600.3776386666647,"velocity":0.7637795275590551,"duration":0.2771227708333299},{"name":"A#4","midi":70,"time":600.4719783333313,"velocity":0.7637795275590551,"duration":0.2771227708333299},{"name":"D4","midi":62,"time":600.566317999998,"velocity":0.7637795275590551,"duration":0.19162744791663044},{"name":"G4","midi":67,"time":600.6606576666646,"velocity":0.7637795275590551,"duration":0.2771227708333299},{"name":"A#4","midi":70,"time":600.7549973333313,"velocity":0.7637795275590551,"duration":0.2771227708333299},{"name":"G5","midi":79,"time":600.849336999998,"velocity":0.7637795275590551,"duration":0.19162744791663044},{"name":"G4","midi":67,"time":600.9436766666646,"velocity":0.7637795275590551,"duration":0.2771227708333299},{"name":"A#4","midi":70,"time":601.0380163333313,"velocity":0.7637795275590551,"duration":0.09433966666665583},{"name":"A5","midi":81,"time":601.1323559999979,"velocity":0.7637795275590551,"duration":0.27859682812493247},{"name":"F#4","midi":66,"time":601.2266956666646,"velocity":0.7637795275590551,"duration":0.2771227708333299},{"name":"A4","midi":69,"time":601.3210353333312,"velocity":0.7637795275590551,"duration":0.2771227708333299},{"name":"D#4","midi":63,"time":601.4153749999979,"velocity":0.7637795275590551,"duration":0.19162744791663044},{"name":"F#4","midi":66,"time":601.5097146666645,"velocity":0.7637795275590551,"duration":0.2771227708333299},{"name":"A4","midi":69,"time":601.6040543333312,"velocity":0.7637795275590551,"duration":0.2771227708333299},{"name":"D4","midi":62,"time":601.6983939999978,"velocity":0.7637795275590551,"duration":0.19162744791663044},{"name":"F#4","midi":66,"time":601.7927336666645,"velocity":0.7637795275590551,"duration":0.2771227708333299},{"name":"A4","midi":69,"time":601.8870733333312,"velocity":0.7637795275590551,"duration":0.2771227708333299},{"name":"A5","midi":81,"time":601.9814129999978,"velocity":0.7637795275590551,"duration":0.19162744791663044},{"name":"F#4","midi":66,"time":602.0757526666645,"velocity":0.7637795275590551,"duration":0.2771227708333299},{"name":"A4","midi":69,"time":602.1700923333311,"velocity":0.7637795275590551,"duration":0.09433966666665583},{"name":"A#5","midi":82,"time":602.2644319999978,"velocity":0.7637795275590551,"duration":0.27859682812493247},{"name":"F#4","midi":66,"time":602.3587716666644,"velocity":0.7637795275590551,"duration":0.2771227708333299},{"name":"G4","midi":67,"time":602.4531113333311,"velocity":0.7637795275590551,"duration":0.2771227708333299},{"name":"D#4","midi":63,"time":602.5474509999977,"velocity":0.7637795275590551,"duration":0.19162744791663044},{"name":"F#4","midi":66,"time":602.6417906666644,"velocity":0.7637795275590551,"duration":0.2771227708333299},{"name":"G4","midi":67,"time":602.7361303333311,"velocity":0.7637795275590551,"duration":0.2771227708333299},{"name":"D4","midi":62,"time":602.8304699999977,"velocity":0.7637795275590551,"duration":0.19162744791663044},{"name":"F#4","midi":66,"time":602.9248096666644,"velocity":0.7637795275590551,"duration":0.2771227708333299},{"name":"G4","midi":67,"time":603.019149333331,"velocity":0.7637795275590551,"duration":0.2771227708333299},{"name":"A#5","midi":82,"time":603.1134889999977,"velocity":0.7637795275590551,"duration":0.19162744791663044},{"name":"F#4","midi":66,"time":603.2078286666643,"velocity":0.7637795275590551,"duration":0.2771227708333299},{"name":"G4","midi":67,"time":603.302168333331,"velocity":0.7637795275590551,"duration":0.09433966666665583},{"name":"C6","midi":84,"time":603.3965079999977,"velocity":0.7637795275590551,"duration":0.27859682812493247},{"name":"F#4","midi":66,"time":603.4908476666643,"velocity":0.7637795275590551,"duration":0.2771227708333299},{"name":"A4","midi":69,"time":603.585187333331,"velocity":0.7637795275590551,"duration":0.2771227708333299},{"name":"D#4","midi":63,"time":603.6795269999976,"velocity":0.7637795275590551,"duration":0.19162744791663044},{"name":"F#4","midi":66,"time":603.7738666666643,"velocity":0.7637795275590551,"duration":0.2771227708333299},{"name":"A4","midi":69,"time":603.8682063333309,"velocity":0.7637795275590551,"duration":0.2771227708333299},{"name":"D4","midi":62,"time":603.9625459999976,"velocity":0.7637795275590551,"duration":0.19162744791663044},{"name":"F#4","midi":66,"time":604.0568856666642,"velocity":0.7637795275590551,"duration":0.2771227708333299},{"name":"A4","midi":69,"time":604.1512253333309,"velocity":0.7637795275590551,"duration":0.2771227708333299},{"name":"C6","midi":84,"time":604.2455649999976,"velocity":0.7637795275590551,"duration":0.19162744791663044},{"name":"F#4","midi":66,"time":604.3399046666642,"velocity":0.7637795275590551,"duration":0.18720527604159543},{"name":"A4","midi":69,"time":604.4342443333309,"velocity":0.7637795275590551,"duration":0.1872052760417091},{"name":"A#5","midi":82,"time":604.5285839999975,"velocity":0.7637795275590551,"duration":0.2800708854167624},{"name":"G4","midi":67,"time":604.6229236666643,"velocity":0.7637795275590551,"duration":0.1872052760417091},{"name":"A#4","midi":70,"time":604.717263333331,"velocity":0.7637795275590551,"duration":0.1872052760418228},{"name":"F#5","midi":78,"time":604.8116029999977,"velocity":0.7637795275590551,"duration":0.2800708854167624},{"name":"A4","midi":69,"time":604.9059426666645,"velocity":0.7637795275590551,"duration":0.17688687500003653},{"name":"C5","midi":72,"time":605.0002823333311,"velocity":0.7637795275590551,"duration":0.17688687500003653},{"name":"G5","midi":79,"time":605.0946219999978,"velocity":0.7637795275590551,"duration":0.2800708854167624},{"name":"A#4","midi":70,"time":605.1889616666646,"velocity":0.7637795275590551,"duration":0.16214630208332892},{"name":"D5","midi":74,"time":605.2833013333312,"velocity":0.7637795275590551,"duration":0.16214630208332892},{"name":"C#5","midi":73,"time":605.3776409999979,"velocity":0.7637795275590551,"duration":0.1872052760417091},{"name":"G4","midi":67,"time":605.4719806666645,"velocity":0.7637795275590551,"duration":0.147405729166735},{"name":"E5","midi":76,"time":605.5663203333313,"velocity":0.7637795275590551,"duration":0.1474057291666213},{"name":"D5","midi":74,"time":605.660659999998,"velocity":0.7637795275590551,"duration":0.2800708854166487},{"name":"A4","midi":69,"time":605.7549996666646,"velocity":0.7637795275590551,"duration":0.1474057291666213},{"name":"F#5","midi":78,"time":605.8493393333313,"velocity":0.7637795275590551,"duration":0.1474057291666213},{"name":"G4","midi":67,"time":605.9436789999979,"velocity":0.7637795275590551,"duration":0.2800708854166487},{"name":"A#4","midi":70,"time":606.0380186666646,"velocity":0.7637795275590551,"duration":0.1474057291666213},{"name":"G5","midi":79,"time":606.1323583333312,"velocity":0.7637795275590551,"duration":0.1474057291666213},{"name":"F#4","midi":66,"time":606.2266979999979,"velocity":0.7637795275590551,"duration":0.2800708854166487},{"name":"C5","midi":72,"time":606.3210376666646,"velocity":0.7637795275590551,"duration":0.1474057291666213},{"name":"A5","midi":81,"time":606.4153773333312,"velocity":0.7637795275590551,"duration":0.1474057291666213},{"name":"D#4","midi":63,"time":606.5097169999979,"velocity":0.7637795275590551,"duration":0.1872052760417091},{"name":"C5","midi":72,"time":606.6040566666645,"velocity":0.7637795275590551,"duration":0.13266515625014108},{"name":"F#5","midi":78,"time":606.6983963333313,"velocity":0.7637795275590551,"duration":0.1326651562500274},{"name":"D4","midi":62,"time":606.792735999998,"velocity":0.7637795275590551,"duration":0.2800708854166487},{"name":"B4","midi":71,"time":606.8870756666646,"velocity":0.7637795275590551,"duration":0.1326651562500274},{"name":"G5","midi":79,"time":606.9814153333313,"velocity":0.7637795275590551,"duration":0.16214630208332892},{"name":"C#4","midi":61,"time":607.0757549999979,"velocity":0.7637795275590551,"duration":0.1326651562500274},{"name":"A#4","midi":70,"time":607.1700946666646,"velocity":0.7637795275590551,"duration":0.1326651562500274},{"name":"E5","midi":76,"time":607.2644343333312,"velocity":0.7637795275590551,"duration":0.1326651562500274},{"name":"D4","midi":62,"time":607.3587739999979,"velocity":0.7637795275590551,"duration":0.2505897395833472},{"name":"A4","midi":69,"time":607.4531136666645,"velocity":0.7637795275590551,"duration":0.1326651562500274},{"name":"F#5","midi":78,"time":607.5474533333312,"velocity":0.7637795275590551,"duration":0.16214630208332892},{"name":"D3","midi":50,"time":607.6417929999978,"velocity":0.7637795275590551,"duration":0.1326651562500274},{"name":"C5","midi":72,"time":607.7361326666645,"velocity":0.7637795275590551,"duration":0.1326651562500274},{"name":"F#5","midi":78,"time":607.8304723333312,"velocity":0.7637795275590551,"duration":0.09433966666665583},{"name":"G2","midi":43,"time":607.9248119999978,"velocity":0.7637795275590551,"duration":0.27859682812493247},{"name":"A#4","midi":70,"time":608.0191516666645,"velocity":0.7637795275590551,"duration":0.2771227708333299},{"name":"G5","midi":79,"time":608.1134913333311,"velocity":0.7637795275590551,"duration":0.2771227708333299},{"name":"D3","midi":50,"time":608.2078309999978,"velocity":0.7637795275590551,"duration":0.19162744791663044},{"name":"A#4","midi":70,"time":608.3021706666644,"velocity":0.7637795275590551,"duration":0.2771227708333299},{"name":"G5","midi":79,"time":608.3965103333311,"velocity":0.7637795275590551,"duration":0.2771227708333299},{"name":"G3","midi":55,"time":608.4908499999977,"velocity":0.7637795275590551,"duration":0.19162744791663044},{"name":"A#4","midi":70,"time":608.5851896666644,"velocity":0.7637795275590551,"duration":0.2771227708333299},{"name":"G5","midi":79,"time":608.6795293333311,"velocity":0.7637795275590551,"duration":0.2771227708333299},{"name":"A#3","midi":58,"time":608.7738689999977,"velocity":0.7637795275590551,"duration":0.19162744791663044},{"name":"A#4","midi":70,"time":608.8682086666644,"velocity":0.7637795275590551,"duration":0.2771227708333299},{"name":"G5","midi":79,"time":608.962548333331,"velocity":0.7637795275590551,"duration":0.2771227708333299},{"name":"D4","midi":62,"time":609.0568879999977,"velocity":0.7637795275590551,"duration":0.27859682812493247},{"name":"G#4","midi":68,"time":609.1512276666643,"velocity":0.7637795275590551,"duration":0.2771227708333299},{"name":"F5","midi":77,"time":609.245567333331,"velocity":0.7637795275590551,"duration":0.2771227708333299},{"name":"F4","midi":65,"time":609.3399069999977,"velocity":0.7637795275590551,"duration":0.19162744791663044},{"name":"G#4","midi":68,"time":609.4342466666643,"velocity":0.7637795275590551,"duration":0.2771227708333299},{"name":"F5","midi":77,"time":609.528586333331,"velocity":0.7637795275590551,"duration":0.2771227708333299},{"name":"A#4","midi":70,"time":609.6229259999976,"velocity":0.7637795275590551,"duration":0.19162744791663044},{"name":"G#4","midi":68,"time":609.7172656666643,"velocity":0.7637795275590551,"duration":0.2771227708333299},{"name":"F5","midi":77,"time":609.8116053333309,"velocity":0.7637795275590551,"duration":0.2771227708333299},{"name":"D5","midi":74,"time":609.9059449999976,"velocity":0.7637795275590551,"duration":0.19162744791663044},{"name":"G#4","midi":68,"time":610.0002846666642,"velocity":0.7637795275590551,"duration":0.2771227708333299},{"name":"F5","midi":77,"time":610.0946243333309,"velocity":0.7637795275590551,"duration":0.1872052760417091},{"name":"D#4","midi":63,"time":610.1889639999976,"velocity":0.7637795275590551,"duration":0.27859682812504616},{"name":"G4","midi":67,"time":610.2833036666643,"velocity":0.7637795275590551,"duration":0.2771227708333299},{"name":"D#5","midi":75,"time":610.377643333331,"velocity":0.7637795275590551,"duration":0.2771227708333299},{"name":"A#4","midi":70,"time":610.4719829999976,"velocity":0.7637795275590551,"duration":0.19162744791663044},{"name":"G4","midi":67,"time":610.5663226666643,"velocity":0.7637795275590551,"duration":0.2771227708333299},{"name":"D#5","midi":75,"time":610.660662333331,"velocity":0.7637795275590551,"duration":0.2771227708333299},{"name":"G5","midi":79,"time":610.7550019999976,"velocity":0.7637795275590551,"duration":0.19162744791663044},{"name":"G4","midi":67,"time":610.8493416666643,"velocity":0.7637795275590551,"duration":0.2771227708333299},{"name":"D#5","midi":75,"time":610.9436813333309,"velocity":0.7637795275590551,"duration":0.2771227708333299},{"name":"D4","midi":62,"time":611.0380209999976,"velocity":0.7637795275590551,"duration":0.19162744791663044},{"name":"G4","midi":67,"time":611.1323606666642,"velocity":0.7637795275590551,"duration":0.18720527604159543},{"name":"D#5","midi":75,"time":611.2267003333309,"velocity":0.7637795275590551,"duration":0.2771227708333299},{"name":"C4","midi":60,"time":611.3210399999975,"velocity":0.7637795275590551,"duration":0.27859682812493247},{"name":"A4","midi":69,"time":611.4153796666642,"velocity":0.7637795275590551,"duration":0.2771227708333299},{"name":"D#5","midi":75,"time":611.5097193333308,"velocity":0.7637795275590551,"duration":0.2771227708333299},{"name":"F4","midi":65,"time":611.6040589999975,"velocity":0.7637795275590551,"duration":0.19162744791663044},{"name":"A4","midi":69,"time":611.6983986666642,"velocity":0.7637795275590551,"duration":0.18720527604159543},{"name":"D#5","midi":75,"time":611.7927383333308,"velocity":0.7637795275590551,"duration":0.1872052760417091},{"name":"A#3","midi":58,"time":611.8870779999975,"velocity":0.7637795275590551,"duration":0.19162744791674413},{"name":"A#4","midi":70,"time":611.9814176666642,"velocity":0.7637795275590551,"duration":0.2771227708333299},{"name":"D5","midi":74,"time":612.0757573333309,"velocity":0.7637795275590551,"duration":0.2771227708333299},{"name":"E5","midi":76,"time":612.1700969999976,"velocity":0.7637795275590551,"duration":0.19162744791663044},{"name":"A#4","midi":70,"time":612.2644366666642,"velocity":0.7637795275590551,"duration":0.18720527604159543},{"name":"C#5","midi":73,"time":612.3587763333309,"velocity":0.7637795275590551,"duration":0.1872052760417091},{"name":"F5","midi":77,"time":612.4531159999975,"velocity":0.7637795275590551,"duration":0.5601417708334111},{"name":"A4","midi":69,"time":612.5474556666643,"velocity":0.7637795275590551,"duration":0.2771227708333299},{"name":"C5","midi":72,"time":612.641795333331,"velocity":0.7637795275590551,"duration":0.2771227708333299},{"name":"F4","midi":65,"time":612.7361349999976,"velocity":0.7637795275590551,"duration":0.5601417708332974},{"name":"A4","midi":69,"time":612.8304746666643,"velocity":0.7637795275590551,"duration":0.2771227708333299},{"name":"C5","midi":72,"time":612.9248143333309,"velocity":0.7637795275590551,"duration":0.2771227708333299},{"name":"F5","midi":77,"time":613.0191539999976,"velocity":0.7637795275590551,"duration":0.5601417708332974},{"name":"A4","midi":69,"time":613.1134936666642,"velocity":0.7637795275590551,"duration":0.2771227708333299},{"name":"C5","midi":72,"time":613.2078333333309,"velocity":0.7637795275590551,"duration":0.2771227708333299},{"name":"F4","midi":65,"time":613.3021729999975,"velocity":0.7637795275590551,"duration":0.5601417708332974},{"name":"A4","midi":69,"time":613.3965126666642,"velocity":0.7637795275590551,"duration":0.2771227708333299},{"name":"C5","midi":72,"time":613.4908523333308,"velocity":0.7637795275590551,"duration":0.2771227708333299},{"name":"D#5","midi":75,"time":613.5851919999975,"velocity":0.7637795275590551,"duration":0.5601417708332974},{"name":"A4","midi":69,"time":613.6795316666642,"velocity":0.7637795275590551,"duration":0.2771227708333299},{"name":"C5","midi":72,"time":613.7738713333308,"velocity":0.7637795275590551,"duration":0.2771227708333299},{"name":"F4","midi":65,"time":613.8682109999975,"velocity":0.7637795275590551,"duration":0.5601417708332974},{"name":"A4","midi":69,"time":613.9625506666641,"velocity":0.7637795275590551,"duration":0.2771227708333299},{"name":"C5","midi":72,"time":614.0568903333308,"velocity":0.7637795275590551,"duration":0.2771227708333299},{"name":"D#5","midi":75,"time":614.1512299999974,"velocity":0.7637795275590551,"duration":0.5601417708332974},{"name":"A4","midi":69,"time":614.2455696666641,"velocity":0.7637795275590551,"duration":0.2771227708333299},{"name":"C5","midi":72,"time":614.3399093333308,"velocity":0.7637795275590551,"duration":0.2771227708333299},{"name":"F4","midi":65,"time":614.4342489999974,"velocity":0.7637795275590551,"duration":0.5601417708334111},{"name":"A4","midi":69,"time":614.5285886666641,"velocity":0.7637795275590551,"duration":0.2771227708333299},{"name":"C5","midi":72,"time":614.6229283333307,"velocity":0.7637795275590551,"duration":0.1872052760417091},{"name":"D5","midi":74,"time":614.7172679999974,"velocity":0.7637795275590551,"duration":0.5601417708334111},{"name":"G#4","midi":68,"time":614.8116076666641,"velocity":0.7637795275590551,"duration":0.2771227708333299},{"name":"B4","midi":71,"time":614.9059473333308,"velocity":0.7637795275590551,"duration":0.2771227708333299},{"name":"F4","midi":65,"time":615.0002869999975,"velocity":0.7637795275590551,"duration":0.5601417708332974},{"name":"G#4","midi":68,"time":615.0946266666641,"velocity":0.7637795275590551,"duration":0.2771227708333299},{"name":"B4","midi":71,"time":615.1889663333308,"velocity":0.7637795275590551,"duration":0.2771227708333299},{"name":"D5","midi":74,"time":615.2833059999974,"velocity":0.7637795275590551,"duration":0.5601417708332974},{"name":"G#4","midi":68,"time":615.3776456666641,"velocity":0.7637795275590551,"duration":0.2771227708333299},{"name":"B4","midi":71,"time":615.4719853333307,"velocity":0.7637795275590551,"duration":0.2771227708333299},{"name":"F4","midi":65,"time":615.5663249999974,"velocity":0.7637795275590551,"duration":0.2800708854166487},{"name":"G#4","midi":68,"time":615.660664666664,"velocity":0.7637795275590551,"duration":0.2771227708333299},{"name":"B4","midi":71,"time":615.7550043333307,"velocity":0.7637795275590551,"duration":0.2771227708333299},{"name":"C#5","midi":73,"time":615.8493439999974,"velocity":0.7637795275590551,"duration":0.5601417708332974},{"name":"G4","midi":67,"time":615.943683666664,"velocity":0.7637795275590551,"duration":0.2771227708333299},{"name":"A#4","midi":70,"time":616.0380233333307,"velocity":0.7637795275590551,"duration":0.2771227708333299},{"name":"E4","midi":64,"time":616.1323629999973,"velocity":0.7637795275590551,"duration":0.5601417708332974},{"name":"G4","midi":67,"time":616.226702666664,"velocity":0.7637795275590551,"duration":0.2771227708333299},{"name":"A#4","midi":70,"time":616.3210423333306,"velocity":0.7637795275590551,"duration":0.2771227708333299},{"name":"C#5","midi":73,"time":616.4153819999973,"velocity":0.7637795275590551,"duration":0.5601417708332974},{"name":"G4","midi":67,"time":616.509721666664,"velocity":0.7637795275590551,"duration":0.2771227708333299},{"name":"A#4","midi":70,"time":616.6040613333306,"velocity":0.7637795275590551,"duration":0.2771227708333299},{"name":"E4","midi":64,"time":616.6984009999973,"velocity":0.7637795275590551,"duration":0.27859682812504616},{"name":"G4","midi":67,"time":616.7927406666639,"velocity":0.7637795275590551,"duration":0.2771227708334436},{"name":"A#4","midi":70,"time":616.8870803333306,"velocity":0.7637795275590551,"duration":0.2771227708334436},{"name":"C5","midi":72,"time":616.9814199999973,"velocity":0.7637795275590551,"duration":0.5601417708332974},{"name":"F#4","midi":66,"time":617.075759666664,"velocity":0.7637795275590551,"duration":0.2771227708333299},{"name":"A4","midi":69,"time":617.1700993333307,"velocity":0.7637795275590551,"duration":0.2771227708333299},{"name":"D#4","midi":63,"time":617.2644389999973,"velocity":0.7637795275590551,"duration":0.5601417708332974},{"name":"F#4","midi":66,"time":617.358778666664,"velocity":0.7637795275590551,"duration":0.2771227708333299},{"name":"A4","midi":69,"time":617.4531183333306,"velocity":0.7637795275590551,"duration":0.2771227708333299},{"name":"C5","midi":72,"time":617.5474579999973,"velocity":0.7637795275590551,"duration":0.5601417708332974},{"name":"F#4","midi":66,"time":617.6417976666639,"velocity":0.7637795275590551,"duration":0.2771227708333299},{"name":"A4","midi":69,"time":617.7361373333306,"velocity":0.7637795275590551,"duration":0.2771227708333299},{"name":"D#4","midi":63,"time":617.8304769999972,"velocity":0.7637795275590551,"duration":0.27859682812504616},{"name":"F#4","midi":66,"time":617.9248166666639,"velocity":0.7637795275590551,"duration":0.2771227708334436},{"name":"A4","midi":69,"time":618.0191563333306,"velocity":0.7637795275590551,"duration":0.2771227708334436},{"name":"B4","midi":71,"time":618.1134959999973,"velocity":0.7637795275590551,"duration":0.5601417708332974},{"name":"F4","midi":65,"time":618.207835666664,"velocity":0.7637795275590551,"duration":0.2771227708333299},{"name":"G#4","midi":68,"time":618.3021753333306,"velocity":0.7637795275590551,"duration":0.2771227708333299},{"name":"D4","midi":62,"time":618.3965149999973,"velocity":0.7637795275590551,"duration":0.5601417708332974},{"name":"F4","midi":65,"time":618.490854666664,"velocity":0.7637795275590551,"duration":0.2771227708333299},{"name":"G#4","midi":68,"time":618.5851943333306,"velocity":0.7637795275590551,"duration":0.2771227708333299},{"name":"B4","midi":71,"time":618.6795339999973,"velocity":0.7637795275590551,"duration":0.5601417708332974},{"name":"F4","midi":65,"time":618.7738736666639,"velocity":0.7637795275590551,"duration":0.2771227708333299},{"name":"G#4","midi":68,"time":618.8682133333306,"velocity":0.7637795275590551,"duration":0.2771227708333299},{"name":"D4","midi":62,"time":618.9625529999972,"velocity":0.7637795275590551,"duration":0.27859682812504616},{"name":"F4","midi":65,"time":619.0568926666639,"velocity":0.7637795275590551,"duration":0.2771227708334436},{"name":"G#4","midi":68,"time":619.1512323333305,"velocity":0.7637795275590551,"duration":0.2771227708334436},{"name":"A#4","midi":70,"time":619.2455719999973,"velocity":0.7637795275590551,"duration":0.5601417708332974},{"name":"E4","midi":64,"time":619.339911666664,"velocity":0.7637795275590551,"duration":0.2771227708333299},{"name":"G4","midi":67,"time":619.4342513333306,"velocity":0.7637795275590551,"duration":0.2771227708333299},{"name":"C#4","midi":61,"time":619.5285909999973,"velocity":0.7637795275590551,"duration":0.5601417708332974},{"name":"E4","midi":64,"time":619.6229306666639,"velocity":0.7637795275590551,"duration":0.2771227708333299},{"name":"G4","midi":67,"time":619.7172703333306,"velocity":0.7637795275590551,"duration":0.2771227708333299},{"name":"A#4","midi":70,"time":619.8116099999972,"velocity":0.7637795275590551,"duration":0.5601417708332974},{"name":"E4","midi":64,"time":619.9059496666639,"velocity":0.7637795275590551,"duration":0.2771227708333299},{"name":"G4","midi":67,"time":620.0002893333306,"velocity":0.7637795275590551,"duration":0.2771227708333299},{"name":"C#4","midi":61,"time":620.0946289999972,"velocity":0.7637795275590551,"duration":0.27859682812504616},{"name":"E4","midi":64,"time":620.1889686666639,"velocity":0.7637795275590551,"duration":0.2771227708334436},{"name":"G4","midi":67,"time":620.2833083333305,"velocity":0.7637795275590551,"duration":0.2771227708334436},{"name":"A4","midi":69,"time":620.3776479999973,"velocity":0.7637795275590551,"duration":0.5601417708332974},{"name":"D#4","midi":63,"time":620.471987666664,"velocity":0.7637795275590551,"duration":0.2771227708333299},{"name":"F#4","midi":66,"time":620.5663273333306,"velocity":0.7637795275590551,"duration":0.2771227708333299},{"name":"C4","midi":60,"time":620.6606669999973,"velocity":0.7637795275590551,"duration":0.5601417708332974},{"name":"D#4","midi":63,"time":620.7550066666639,"velocity":0.7637795275590551,"duration":0.2771227708333299},{"name":"F#4","midi":66,"time":620.8493463333306,"velocity":0.7637795275590551,"duration":0.2771227708333299},{"name":"A4","midi":69,"time":620.9436859999972,"velocity":0.7637795275590551,"duration":0.5601417708332974},{"name":"D#4","midi":63,"time":621.0380256666639,"velocity":0.7637795275590551,"duration":0.2771227708333299},{"name":"F#4","midi":66,"time":621.1323653333305,"velocity":0.7637795275590551,"duration":0.2771227708333299},{"name":"C4","midi":60,"time":621.2267049999972,"velocity":0.7637795275590551,"duration":0.27859682812504616},{"name":"D#4","midi":63,"time":621.3210446666639,"velocity":0.7637795275590551,"duration":0.2771227708334436},{"name":"F#4","midi":66,"time":621.4153843333305,"velocity":0.7637795275590551,"duration":0.2771227708334436},{"name":"G4","midi":67,"time":621.5097239999973,"velocity":0.7637795275590551,"duration":0.5601417708332974},{"name":"C#4","midi":61,"time":621.6040636666639,"velocity":0.7637795275590551,"duration":0.2771227708333299},{"name":"E4","midi":64,"time":621.6984033333306,"velocity":0.7637795275590551,"duration":0.2771227708333299},{"name":"A#3","midi":58,"time":621.7927429999972,"velocity":0.7637795275590551,"duration":0.5601417708332974},{"name":"C#4","midi":61,"time":621.8870826666639,"velocity":0.7637795275590551,"duration":0.2771227708333299},{"name":"E4","midi":64,"time":621.9814223333306,"velocity":0.7637795275590551,"duration":0.2771227708333299},{"name":"G4","midi":67,"time":622.0757619999972,"velocity":0.7637795275590551,"duration":0.5601417708332974},{"name":"C#4","midi":61,"time":622.1701016666639,"velocity":0.7637795275590551,"duration":0.2771227708333299},{"name":"E4","midi":64,"time":622.2644413333305,"velocity":0.7637795275590551,"duration":0.2771227708333299},{"name":"A#3","midi":58,"time":622.3587809999972,"velocity":0.7637795275590551,"duration":0.27859682812504616},{"name":"C#4","midi":61,"time":622.4531206666638,"velocity":0.7637795275590551,"duration":0.1872052760417091},{"name":"E4","midi":64,"time":622.5474603333305,"velocity":0.7637795275590551,"duration":0.1872052760418228},{"name":"A4","midi":69,"time":622.6417999999973,"velocity":0.7637795275590551,"duration":0.27859682812504616},{"name":"C4","midi":60,"time":622.736139666664,"velocity":0.7637795275590551,"duration":0.2771227708333299},{"name":"D#4","midi":63,"time":622.8304793333307,"velocity":0.7637795275590551,"duration":0.2771227708333299},{"name":"F#3","midi":54,"time":622.9248189999973,"velocity":0.7637795275590551,"duration":0.19162744791663044},{"name":"C4","midi":60,"time":623.019158666664,"velocity":0.7637795275590551,"duration":0.2771227708333299},{"name":"D#4","midi":63,"time":623.1134983333307,"velocity":0.7637795275590551,"duration":0.2771227708333299},{"name":"F3","midi":53,"time":623.2078379999973,"velocity":0.7637795275590551,"duration":0.19162744791663044},{"name":"C4","midi":60,"time":623.302177666664,"velocity":0.7637795275590551,"duration":0.2771227708333299},{"name":"D#4","midi":63,"time":623.3965173333306,"velocity":0.7637795275590551,"duration":0.2771227708333299},{"name":"A4","midi":69,"time":623.4908569999973,"velocity":0.7637795275590551,"duration":0.19162744791663044},{"name":"C4","midi":60,"time":623.5851966666639,"velocity":0.7637795275590551,"duration":0.18720527604159543},{"name":"D#4","midi":63,"time":623.6795363333306,"velocity":0.7637795275590551,"duration":0.1872052760417091},{"name":"A#4","midi":70,"time":623.7738759999972,"velocity":0.7637795275590551,"duration":0.27859682812504616},{"name":"A#3","midi":58,"time":623.868215666664,"velocity":0.7637795275590551,"duration":0.2771227708333299},{"name":"C#4","midi":61,"time":623.9625553333307,"velocity":0.7637795275590551,"duration":0.2771227708333299},{"name":"F#3","midi":54,"time":624.0568949999973,"velocity":0.7637795275590551,"duration":0.19162744791663044},{"name":"A#3","midi":58,"time":624.151234666664,"velocity":0.7637795275590551,"duration":0.2771227708333299},{"name":"C#4","midi":61,"time":624.2455743333306,"velocity":0.7637795275590551,"duration":0.2771227708333299},{"name":"F3","midi":53,"time":624.3399139999973,"velocity":0.7637795275590551,"duration":0.19162744791663044},{"name":"A#3","midi":58,"time":624.434253666664,"velocity":0.7637795275590551,"duration":0.2771227708333299},{"name":"C#4","midi":61,"time":624.5285933333306,"velocity":0.7637795275590551,"duration":0.2771227708333299},{"name":"A#4","midi":70,"time":624.6229329999973,"velocity":0.7637795275590551,"duration":0.19162744791663044},{"name":"A#3","midi":58,"time":624.7172726666639,"velocity":0.7637795275590551,"duration":0.18720527604159543},{"name":"C#4","midi":61,"time":624.8116123333306,"velocity":0.7637795275590551,"duration":0.1872052760417091},{"name":"C5","midi":72,"time":624.9059519999972,"velocity":0.7637795275590551,"duration":0.27859682812504616},{"name":"A3","midi":57,"time":625.000291666664,"velocity":0.7637795275590551,"duration":0.2771227708333299},{"name":"C4","midi":60,"time":625.0946313333307,"velocity":0.7637795275590551,"duration":0.2771227708333299},{"name":"F#3","midi":54,"time":625.1889709999973,"velocity":0.7637795275590551,"duration":0.19162744791663044},{"name":"A3","midi":57,"time":625.283310666664,"velocity":0.7637795275590551,"duration":0.2771227708333299},{"name":"C4","midi":60,"time":625.3776503333306,"velocity":0.7637795275590551,"duration":0.2771227708333299},{"name":"F3","midi":53,"time":625.4719899999973,"velocity":0.7637795275590551,"duration":0.19162744791663044},{"name":"A3","midi":57,"time":625.5663296666639,"velocity":0.7637795275590551,"duration":0.2771227708333299},{"name":"C4","midi":60,"time":625.6606693333306,"velocity":0.7637795275590551,"duration":0.2771227708333299},{"name":"C5","midi":72,"time":625.7550089999972,"velocity":0.7637795275590551,"duration":0.19162744791663044},{"name":"A3","midi":57,"time":625.8493486666639,"velocity":0.7637795275590551,"duration":0.2771227708333299},{"name":"C4","midi":60,"time":625.9436883333306,"velocity":0.7637795275590551,"duration":0.09433966666665583},{"name":"C#5","midi":73,"time":626.0380279999972,"velocity":0.7637795275590551,"duration":0.27859682812493247},{"name":"A3","midi":57,"time":626.1323676666639,"velocity":0.7637795275590551,"duration":0.2771227708333299},{"name":"A#3","midi":58,"time":626.2267073333305,"velocity":0.7637795275590551,"duration":0.2771227708333299},{"name":"F#3","midi":54,"time":626.3210469999972,"velocity":0.7637795275590551,"duration":0.19162744791663044},{"name":"A3","midi":57,"time":626.4153866666638,"velocity":0.7637795275590551,"duration":0.2771227708333299},{"name":"A#3","midi":58,"time":626.5097263333305,"velocity":0.7637795275590551,"duration":0.2771227708333299},{"name":"F3","midi":53,"time":626.6040659999971,"velocity":0.7637795275590551,"duration":0.19162744791663044},{"name":"A3","midi":57,"time":626.6984056666638,"velocity":0.7637795275590551,"duration":0.2771227708333299},{"name":"A#3","midi":58,"time":626.7927453333305,"velocity":0.7637795275590551,"duration":0.2771227708333299},{"name":"C#5","midi":73,"time":626.8870849999971,"velocity":0.7637795275590551,"duration":0.19162744791663044},{"name":"A3","midi":57,"time":626.9814246666638,"velocity":0.7637795275590551,"duration":0.18720527604159543},{"name":"A#3","midi":58,"time":627.0757643333304,"velocity":0.7637795275590551,"duration":0.2771227708333299},{"name":"E5","midi":76,"time":627.1701039999971,"velocity":0.7637795275590551,"duration":0.27859682812493247},{"name":"G3","midi":55,"time":627.2644436666637,"velocity":0.7637795275590551,"duration":0.2771227708333299},{"name":"A#3","midi":58,"time":627.3587833333304,"velocity":0.7637795275590551,"duration":0.2771227708333299},{"name":"C#3","midi":49,"time":627.453122999997,"velocity":0.7637795275590551,"duration":0.19162744791663044},{"name":"G3","midi":55,"time":627.5474626666637,"velocity":0.7637795275590551,"duration":0.2771227708333299},{"name":"A#3","midi":58,"time":627.6418023333304,"velocity":0.7637795275590551,"duration":0.2771227708333299},{"name":"C3","midi":48,"time":627.736141999997,"velocity":0.7637795275590551,"duration":0.19162744791663044},{"name":"G3","midi":55,"time":627.8304816666637,"velocity":0.7637795275590551,"duration":0.2771227708333299},{"name":"A#3","midi":58,"time":627.9248213333303,"velocity":0.7637795275590551,"duration":0.2771227708333299},{"name":"E5","midi":76,"time":628.019160999997,"velocity":0.7637795275590551,"duration":0.19162744791663044},{"name":"G3","midi":55,"time":628.1135006666636,"velocity":0.7637795275590551,"duration":0.18720527604159543},{"name":"A#3","midi":58,"time":628.2078403333303,"velocity":0.7637795275590551,"duration":0.1872052760417091},{"name":"F5","midi":77,"time":628.302179999997,"velocity":0.7637795275590551,"duration":0.27859682812504616},{"name":"A3","midi":57,"time":628.3965196666637,"velocity":0.7637795275590551,"duration":0.2771227708333299},{"name":"C4","midi":60,"time":628.4908593333304,"velocity":0.7637795275590551,"duration":0.2771227708333299},{"name":"F#2","midi":42,"time":628.585198999997,"velocity":0.7637795275590551,"duration":0.19162744791663044},{"name":"A3","midi":57,"time":628.6795386666637,"velocity":0.7637795275590551,"duration":0.2771227708333299},{"name":"C4","midi":60,"time":628.7738783333303,"velocity":0.7637795275590551,"duration":0.2771227708333299},{"name":"F2","midi":41,"time":628.868217999997,"velocity":0.7637795275590551,"duration":0.19162744791663044},{"name":"A3","midi":57,"time":628.9625576666637,"velocity":0.7637795275590551,"duration":0.2771227708333299},{"name":"C4","midi":60,"time":629.0568973333303,"velocity":0.7637795275590551,"duration":0.2771227708333299},{"name":"D#5","midi":75,"time":629.151236999997,"velocity":0.7637795275590551,"duration":0.19162744791663044},{"name":"A3","midi":57,"time":629.2455766666636,"velocity":0.7637795275590551,"duration":0.2771227708333299},{"name":"C4","midi":60,"time":629.3399163333303,"velocity":0.7637795275590551,"duration":0.09433966666665583},{"name":"C#5","midi":73,"time":629.4342559999969,"velocity":0.7637795275590551,"duration":0.27859682812493247},{"name":"A3","midi":57,"time":629.5285956666636,"velocity":0.7637795275590551,"duration":0.2771227708333299},{"name":"A#3","midi":58,"time":629.6229353333302,"velocity":0.7637795275590551,"duration":0.2771227708333299},{"name":"E3","midi":52,"time":629.7172749999969,"velocity":0.7637795275590551,"duration":0.19162744791663044},{"name":"A3","midi":57,"time":629.8116146666636,"velocity":0.7637795275590551,"duration":0.2771227708333299},{"name":"A#3","midi":58,"time":629.9059543333302,"velocity":0.7637795275590551,"duration":0.2771227708333299},{"name":"F3","midi":53,"time":630.0002939999969,"velocity":0.7637795275590551,"duration":0.19162744791663044},{"name":"A3","midi":57,"time":630.0946336666635,"velocity":0.7637795275590551,"duration":0.2771227708333299},{"name":"A#3","midi":58,"time":630.1889733333302,"velocity":0.7637795275590551,"duration":0.2771227708333299},{"name":"F2","midi":41,"time":630.2833129999968,"velocity":0.7637795275590551,"duration":0.19162744791663044},{"name":"A3","midi":57,"time":630.3776526666635,"velocity":0.7637795275590551,"duration":0.18720527604159543},{"name":"A#3","midi":58,"time":630.4719923333301,"velocity":0.7637795275590551,"duration":0.0928656093749396},{"name":"A#2","midi":46,"time":630.5663319999968,"velocity":0.7637795275590551,"duration":0.6323705781248918},{"name":"D3","midi":50,"time":630.6370867499968,"velocity":0.7637795275590551,"duration":0.11055429687496598},{"name":"F3","midi":53,"time":630.7078414999968,"velocity":0.7637795275590551,"duration":0.11055429687496598},{"name":"A#3","midi":58,"time":630.7785962499968,"velocity":0.7637795275590551,"duration":0.11055429687496598},{"name":"D4","midi":62,"time":630.8493509999968,"velocity":0.7637795275590551,"duration":0.11055429687496598},{"name":"F4","midi":65,"time":630.9201057499968,"velocity":0.7637795275590551,"duration":0.11055429687496598},{"name":"A#4","midi":70,"time":630.9908604999968,"velocity":0.7637795275590551,"duration":0.11055429687496598},{"name":"D5","midi":74,"time":631.0616152499967,"velocity":0.7637795275590551,"duration":0.11055429687496598},{"name":"F5","midi":77,"time":631.1323699999967,"velocity":0.7637795275590551,"duration":0.11055429687496598},{"name":"A#5","midi":82,"time":631.2031247499967,"velocity":0.7637795275590551,"duration":1.5787153593749963}],"controlChanges":{"7":[{"number":7,"time":0,"value":0.7874015748031497}]},"id":1,"name":"Harpsichord","instrumentNumber":7,"instrument":"clavi","instrumentFamily":"piano","channelNumber":0,"isPercussion":false}]}