{"header":{"PPQ":480,"timeSignature":[12,8],"bpm":229.99961666730556,"name":"Bach's 3rd English Suite: 6. Gigue"},"startTime":0,"duration":139.18827545833335,"tracks":[{"startTime":0,"duration":0,"length":0,"notes":[],"controlChanges":{},"id":0,"name":"Bach's 3rd English Suite: 6. Gigue"},{"startTime":1.4217415,"duration":139.17360152083296,"length":936,"notes":[{"name":"D5","midi":74,"time":1.4217415,"velocity":0.7401574803149606,"duration":0.1440219791666666},{"name":"D#5","midi":75,"time":1.5543504166666666,"velocity":0.7401574803149606,"duration":0.14619589583333337},{"name":"D5","midi":74,"time":1.6896767291666666,"velocity":0.7401574803149606,"duration":0.12880456250000005},{"name":"C5","midi":72,"time":1.8195682499999999,"velocity":0.7401574803149606,"duration":0.13586979166666668},{"name":"A#4","midi":70,"time":1.9510902083333332,"velocity":0.7401574803149606,"duration":0.13532631249999993},{"name":"A4","midi":69,"time":2.08043825,"velocity":0.7401574803149606,"duration":0.12228281249999995},{"name":"G4","midi":67,"time":2.2097862916666666,"velocity":0.7401574803149606,"duration":0.13804370833333346},{"name":"F#4","midi":66,"time":2.351634354166667,"velocity":0.7401574803149606,"duration":0.18043508333333325},{"name":"A4","midi":69,"time":2.4684823750000002,"velocity":0.7401574803149606,"duration":0.12336977083333345},{"name":"D4","midi":62,"time":2.599460854166667,"velocity":0.7401574803149606,"duration":0.1353263124999997},{"name":"C4","midi":60,"time":2.7331567291666667,"velocity":0.7401574803149606,"duration":0.14293502083333287},{"name":"A#3","midi":58,"time":2.8679395624999997,"velocity":0.7401574803149606,"duration":0.13423935416666666},{"name":"A3","midi":57,"time":2.9983745624999996,"velocity":0.7401574803149606,"duration":0.13369587500000035},{"name":"A#3","midi":58,"time":3.125005208333333,"velocity":0.7322834645669292,"duration":0.1440219791666668},{"name":"D4","midi":62,"time":3.2592445624999997,"velocity":0.7322834645669292,"duration":0.1440219791666668},{"name":"G4","midi":67,"time":3.3951143541666666,"velocity":0.7322834645669292,"duration":0.11956541666666665},{"name":"A3","midi":57,"time":3.519027604166667,"velocity":0.7322834645669292,"duration":0.14565241666666662},{"name":"G4","midi":67,"time":3.6532669583333335,"velocity":0.7322834645669292,"duration":0.12934804166666636},{"name":"F#4","midi":66,"time":3.7809845625,"velocity":0.7322834645669292,"duration":0.12934804166666636},{"name":"G4","midi":67,"time":3.9097891249999996,"velocity":0.7322834645669292,"duration":0.1369567500000004},{"name":"A#4","midi":70,"time":4.0451154375,"velocity":0.7322834645669292,"duration":0.1250002083333337},{"name":"A4","midi":69,"time":4.169572166666667,"velocity":0.7322834645669292,"duration":0.14456545833333312},{"name":"A#4","midi":70,"time":4.302181083333333,"velocity":0.7322834645669292,"duration":0.1380437083333339},{"name":"D5","midi":74,"time":4.432072604166667,"velocity":0.7322834645669292,"duration":0.13206543749999966},{"name":"C5","midi":72,"time":4.560877166666667,"velocity":0.7322834645669292,"duration":0.14293502083333287},{"name":"D5","midi":74,"time":4.691855645833333,"velocity":0.7244094488188977,"duration":0.5445661250000002},{"name":"E5","midi":76,"time":5.2222913124999994,"velocity":0.7244094488188977,"duration":0.12771760416666655},{"name":"F5","midi":77,"time":5.345117604166666,"velocity":0.7244094488188977,"duration":0.14565241666666662},{"name":"E5","midi":76,"time":5.478813479166666,"velocity":0.7244094488188977,"duration":0.5429356875},{"name":"F5","midi":77,"time":6.008162187499999,"velocity":0.7244094488188977,"duration":0.1315219583333338},{"name":"G5","midi":79,"time":6.132075437499999,"velocity":0.7244094488188977,"duration":0.14184806250000026},{"name":"A5","midi":81,"time":6.265771312499999,"velocity":0.7322834645669292,"duration":0.1402176250000009},{"name":"G5","midi":79,"time":6.397293270833333,"velocity":0.7322834645669292,"duration":0.1282610833333342},{"name":"F5","midi":77,"time":6.5233804375,"velocity":0.7322834645669292,"duration":0.13206543750000055},{"name":"G5","midi":79,"time":6.650554562500001,"velocity":0.7322834645669292,"duration":0.14347849999999962},{"name":"F5","midi":77,"time":6.782076520833334,"velocity":0.7322834645669292,"duration":0.13097847916666616},{"name":"E5","midi":76,"time":6.909794125,"velocity":0.7322834645669292,"duration":0.14565241666666662},{"name":"F5","midi":77,"time":7.0429465208333335,"velocity":0.7322834645669292,"duration":0.1391306666666665},{"name":"G5","midi":79,"time":7.170664125,"velocity":0.7322834645669292,"duration":0.1391306666666665},{"name":"A5","midi":81,"time":7.298925208333333,"velocity":0.7322834645669292,"duration":0.13858718749999976},{"name":"D5","midi":74,"time":7.4331645625,"velocity":0.7322834645669292,"duration":0.5304356666666665},{"name":"C5","midi":72,"time":7.9581654375,"velocity":0.7165354330708661,"duration":0.13315239583333316},{"name":"A#4","midi":70,"time":8.087513479166667,"velocity":0.7007874015748031,"duration":0.14076110416666587},{"name":"C5","midi":72,"time":8.219578916666666,"velocity":0.6850393700787402,"duration":0.6625011041666653},{"name":"D5","midi":74,"time":8.872297395833332,"velocity":0.5905511811023622,"duration":0.13641327083333366},{"name":"A#4","midi":70,"time":9.004362833333332,"velocity":0.5905511811023622,"duration":0.27010914583333445},{"name":"C5","midi":72,"time":9.264145874999999,"velocity":0.5905511811023622,"duration":0.140217625},{"name":"A4","midi":69,"time":9.395667833333333,"velocity":0.5905511811023622,"duration":0.2635873958333317},{"name":"A#4","midi":70,"time":9.650559562499998,"velocity":0.5905511811023622,"duration":0.14673937499999923},{"name":"C5","midi":72,"time":9.784255437499997,"velocity":0.5905511811023622,"duration":0.26358739583333346},{"name":"F#4","midi":66,"time":10.041321083333331,"velocity":0.6692913385826772,"duration":0.13532631249999838},{"name":"D5","midi":74,"time":10.041321083333331,"velocity":0.6692913385826772,"duration":0.13478283333333252},{"name":"A#4","midi":70,"time":10.174473479166664,"velocity":0.6692913385826772,"duration":0.2733700208333314},{"name":"G4","midi":67,"time":10.177190874999996,"velocity":0.6692913385826772,"duration":0.5342400208333338},{"name":"C5","midi":72,"time":10.438060874999996,"velocity":0.6850393700787402,"duration":0.1413045833333335},{"name":"D5","midi":74,"time":10.569039354166662,"velocity":0.6850393700787402,"duration":0.6478271666666675},{"name":"A4","midi":69,"time":10.713604812499996,"velocity":0.6929133858267716,"duration":0.13532631250000016},{"name":"A#4","midi":70,"time":10.835887624999996,"velocity":0.7007874015748031,"duration":0.1293480416666668},{"name":"A4","midi":69,"time":10.96414870833333,"velocity":0.7007874015748031,"duration":0.5059791041666646},{"name":"E5","midi":76,"time":11.210888249999996,"velocity":0.7165354330708661,"duration":0.13478283333333252},{"name":"F#5","midi":78,"time":11.347301520833328,"velocity":0.7244094488188977,"duration":0.394022395833332},{"name":"A#4","midi":70,"time":11.484801749999994,"velocity":0.7401574803149606,"duration":0.13641327083333366},{"name":"C5","midi":72,"time":11.616867187499993,"velocity":0.7480314960629921,"duration":0.1260871666666663},{"name":"G5","midi":79,"time":11.741867395833326,"velocity":0.7559055118110236,"duration":0.3934789166666661},{"name":"D5","midi":74,"time":11.75110654166666,"velocity":0.7559055118110236,"duration":0.14891329166666623},{"name":"C5","midi":72,"time":11.879367624999993,"velocity":0.7637795275590551,"duration":0.13478283333333252},{"name":"A#4","midi":70,"time":12.01360697916666,"velocity":0.7716535433070866,"duration":0.12445672916666517},{"name":"C5","midi":72,"time":12.136976749999992,"velocity":0.7795275590551181,"duration":0.14184806249999937},{"name":"A5","midi":81,"time":12.140781104166658,"velocity":0.7795275590551181,"duration":0.7728273750000003},{"name":"A#4","midi":70,"time":12.266324791666658,"velocity":0.7874015748031497,"duration":0.13586979166666602},{"name":"A4","midi":69,"time":12.400564145833325,"velocity":0.7952755905511811,"duration":0.12663064583333217},{"name":"A#4","midi":70,"time":12.523390437499991,"velocity":0.8031496062992126,"duration":0.7820665208333342},{"name":"G5","midi":79,"time":12.909260645833324,"velocity":0.8346456692913385,"duration":0.5690226875000004},{"name":"A4","midi":69,"time":13.299478687499992,"velocity":0.84251968503937,"duration":0.7864143541666682},{"name":"F5","midi":77,"time":13.436435437499991,"velocity":0.84251968503937,"duration":0.13097847916666794},{"name":"E5","midi":76,"time":13.563066083333325,"velocity":0.84251968503937,"duration":0.17934812500000064},{"name":"F5","midi":77,"time":13.696218479166658,"velocity":0.84251968503937,"duration":0.7766317291666667},{"name":"G4","midi":67,"time":14.083719124999993,"velocity":0.84251968503937,"duration":0.7793491249999978},{"name":"D#5","midi":75,"time":14.47230672916666,"velocity":0.8031496062992126,"duration":0.5304356666666639},{"name":"F4","midi":65,"time":14.860350854166658,"velocity":0.7637795275590551,"duration":0.7869578333333322},{"name":"D5","midi":74,"time":14.99513368749999,"velocity":0.7559055118110236,"duration":0.12934804166666503},{"name":"C5","midi":72,"time":15.121764333333322,"velocity":0.7401574803149606,"duration":0.14728285416666687},{"name":"D5","midi":74,"time":15.257634124999989,"velocity":0.7322834645669292,"duration":0.7750012916666691},{"name":"D#4","midi":63,"time":15.64241737499999,"velocity":0.7007874015748031,"duration":0.7967404583333355},{"name":"C5","midi":72,"time":16.027744104166658,"velocity":0.6614173228346457,"duration":0.5798922708333336},{"name":"D4","midi":62,"time":16.430462166666658,"velocity":0.6299212598425197,"duration":0.5331530624999985},{"name":"A#4","midi":70,"time":16.563614562499993,"velocity":0.6141732283464567,"duration":0.13532631249999838},{"name":"A4","midi":69,"time":16.69296260416666,"velocity":0.6062992125984252,"duration":0.14402197916666282},{"name":"A#4","midi":70,"time":16.82448456249999,"velocity":0.5905511811023622,"duration":0.3798919374999983},{"name":"F4","midi":65,"time":16.95274564583332,"velocity":0.5826771653543307,"duration":0.1358697916666678},{"name":"E4","midi":64,"time":17.08046324999999,"velocity":0.5669291338582677,"duration":0.14130458333332996},{"name":"F4","midi":65,"time":17.214702604166654,"velocity":0.5590551181102362,"duration":0.19782641666666478},{"name":"A4","midi":69,"time":17.349485437499986,"velocity":0.5433070866141733,"duration":0.25923956249999947},{"name":"E4","midi":64,"time":17.47937695833332,"velocity":0.5354330708661418,"duration":0.13478283333333252},{"name":"D4","midi":62,"time":17.607094562499984,"velocity":0.5354330708661418,"duration":0.2027177291666682},{"name":"A4","midi":69,"time":17.740790437499985,"velocity":0.5275590551181102,"duration":0.13586979166666424},{"name":"G4","midi":67,"time":17.870681958333318,"velocity":0.5196850393700787,"duration":0.14239154166666523},{"name":"A4","midi":69,"time":17.999486520833315,"velocity":0.5118110236220472,"duration":0.4576094583333372},{"name":"C#4","midi":61,"time":18.123399770833316,"velocity":0.5039370078740157,"duration":0.12826108333333508},{"name":"B3","midi":59,"time":18.249486937499984,"velocity":0.5039370078740157,"duration":0.1456524166666675},{"name":"C#4","midi":61,"time":18.384813249999986,"velocity":0.49606299212598426,"duration":0.39565283333332957},{"name":"E4","midi":64,"time":18.515248249999985,"velocity":0.5511811023622047,"duration":0.1271741249999998},{"name":"G4","midi":67,"time":18.64677020833332,"velocity":0.5905511811023622,"duration":0.13097847916666439},{"name":"D4","midi":62,"time":18.772313895833317,"velocity":0.6220472440944882,"duration":0.5956531666666649},{"name":"F4","midi":65,"time":18.779379124999984,"velocity":0.6220472440944882,"duration":0.5766313958333313},{"name":"E4","midi":64,"time":19.307097395833317,"velocity":0.6535433070866141,"duration":0.1222828124999964},{"name":"G4","midi":67,"time":19.309271312499984,"velocity":0.6535433070866141,"duration":0.12173933333333053},{"name":"F4","midi":65,"time":19.42829324999998,"velocity":0.6614173228346457,"duration":0.13641327083333366},{"name":"A4","midi":69,"time":19.43318456249998,"velocity":0.6614173228346457,"duration":0.19076118750000148},{"name":"E4","midi":64,"time":19.558184770833314,"velocity":0.6771653543307087,"duration":0.5429356875000018},{"name":"G4","midi":67,"time":19.572315229166648,"velocity":0.6771653543307087,"duration":0.5168486875000013},{"name":"F4","midi":65,"time":20.087533479166648,"velocity":0.7795275590551181,"duration":0.13097847916666794},{"name":"A4","midi":69,"time":20.091881312499982,"velocity":0.7795275590551181,"duration":0.12826108333333508},{"name":"G4","midi":67,"time":20.215794562499983,"velocity":0.8031496062992126,"duration":0.18858727083333449},{"name":"A#4","midi":70,"time":20.216881520833315,"velocity":0.8031496062992126,"duration":0.12717412500000336},{"name":"A4","midi":69,"time":20.352207833333317,"velocity":0.8267716535433071,"duration":0.20434816666666578},{"name":"D5","midi":74,"time":20.479381958333317,"velocity":0.84251968503937,"duration":0.2076090416666645},{"name":"F5","midi":77,"time":20.617425666666648,"velocity":0.8503937007874016,"duration":0.12065237499999881},{"name":"G4","midi":67,"time":20.738621520833313,"velocity":0.8582677165354331,"duration":0.4494572708333351},{"name":"G5","midi":79,"time":20.87286087499998,"velocity":0.8661417322834646,"duration":0.12228281249999995},{"name":"E5","midi":76,"time":20.998948041666647,"velocity":0.8740157480314961,"duration":0.1293480416666668},{"name":"F5","midi":77,"time":21.131013479166647,"velocity":0.8818897637795275,"duration":0.13423935416666666},{"name":"A5","midi":81,"time":21.259274562499982,"velocity":0.889763779527559,"duration":0.1315219583333338},{"name":"G5","midi":79,"time":21.386448687499982,"velocity":0.8976377952755905,"duration":0.1391306666666665},{"name":"A5","midi":81,"time":21.515253249999983,"velocity":0.905511811023622,"duration":0.2282612499999992},{"name":"A4","midi":69,"time":21.911449562499982,"velocity":0.7716535433070866,"duration":0.19945685416666592},{"name":"C#5","midi":73,"time":22.045145437499983,"velocity":0.7637795275590551,"duration":0.12391324999999753},{"name":"B4","midi":71,"time":22.17286304166665,"velocity":0.7480314960629921,"duration":0.13750022916666538},{"name":"C#5","midi":73,"time":22.30275456249998,"velocity":0.7401574803149606,"duration":0.14239154166666879},{"name":"E5","midi":76,"time":22.43862435416665,"velocity":0.7322834645669292,"duration":0.11902193750000123},{"name":"D5","midi":74,"time":22.561994124999984,"velocity":0.7244094488188977,"duration":0.14402197916666637},{"name":"E5","midi":76,"time":22.697320437499982,"velocity":0.7165354330708661,"duration":0.2706526250000003},{"name":"E4","midi":64,"time":23.080473249999983,"velocity":0.6929133858267716,"duration":0.1429350208333311},{"name":"G4","midi":67,"time":23.21579956249998,"velocity":0.6850393700787402,"duration":0.13532631249999838},{"name":"F4","midi":65,"time":23.345147604166648,"velocity":0.6771653543307087,"duration":0.13532631249999838},{"name":"G4","midi":67,"time":23.476126083333313,"velocity":0.6692913385826772,"duration":0.1434785000000005},{"name":"A#4","midi":70,"time":23.609278479166647,"velocity":0.6614173228346457,"duration":0.12663064583333394},{"name":"A4","midi":69,"time":23.73427868749998,"velocity":0.6535433070866141,"duration":0.1391306666666665},{"name":"A#4","midi":70,"time":23.86308324999998,"velocity":0.6377952755905512,"duration":0.28804395833333274},{"name":"C#4","midi":61,"time":24.25601868749998,"velocity":0.6141732283464567,"duration":0.14184806249999937},{"name":"E4","midi":64,"time":24.39134499999998,"velocity":0.6062992125984252,"duration":0.12717412500000336},{"name":"D4","midi":62,"time":24.516888687499982,"velocity":0.5984251968503937,"duration":0.13097847916666794},{"name":"E4","midi":64,"time":24.644062812499982,"velocity":0.5905511811023622,"duration":0.18967422916666976},{"name":"G4","midi":67,"time":24.783736958333318,"velocity":0.5826771653543307,"duration":0.11739150000000009},{"name":"F4","midi":65,"time":24.906019770833318,"velocity":0.5748031496062992,"duration":0.13260891666666907},{"name":"G4","midi":67,"time":25.03482433333332,"velocity":0.5669291338582677,"duration":0.14402197916666637},{"name":"A#4","midi":70,"time":25.169063687499985,"velocity":0.5669291338582677,"duration":0.13260891666666552},{"name":"A4","midi":69,"time":25.29569433333332,"velocity":0.5826771653543307,"duration":0.14673937499999923},{"name":"A#4","midi":70,"time":25.433194562499985,"velocity":0.5905511811023622,"duration":0.19076118750000148},{"name":"A4","midi":69,"time":25.57612958333332,"velocity":0.6062992125984252,"duration":0.1065219166666651},{"name":"G4","midi":67,"time":25.688629770833316,"velocity":0.6220472440944882,"duration":0.1380437083333348},{"name":"C#5","midi":73,"time":25.822325645833317,"velocity":0.6377952755905512,"duration":0.1451089374999981},{"name":"A#4","midi":70,"time":25.954391083333316,"velocity":0.6456692913385826,"duration":0.13315239583333138},{"name":"A4","midi":69,"time":26.08428260416665,"velocity":0.6614173228346457,"duration":0.14836981250000036},{"name":"D5","midi":74,"time":26.21906543749998,"velocity":0.6771653543307087,"duration":0.14184806249999937},{"name":"A4","midi":69,"time":26.35330479166665,"velocity":0.6929133858267716,"duration":0.12826108333333153},{"name":"G4","midi":67,"time":26.480478916666648,"velocity":0.7007874015748031,"duration":0.1945655416666625},{"name":"E5","midi":76,"time":26.616348708333312,"velocity":0.7165354330708661,"duration":0.1266306458333304},{"name":"A4","midi":69,"time":26.742435874999977,"velocity":0.7322834645669292,"duration":0.1271741249999998},{"name":"G4","midi":67,"time":26.871783916666644,"velocity":0.7165354330708661,"duration":0.13532631249999838},{"name":"F4","midi":65,"time":27.003849354166643,"velocity":0.7086614173228346,"duration":0.1429350208333311},{"name":"G4","midi":67,"time":27.134827833333308,"velocity":0.7007874015748031,"duration":0.12445672916666695},{"name":"E4","midi":64,"time":27.252219333333308,"velocity":0.6929133858267716,"duration":0.15326112500000022},{"name":"F4","midi":65,"time":27.39678479166664,"velocity":0.6850393700787402,"duration":0.13532631249999838},{"name":"E4","midi":64,"time":27.52395891666664,"velocity":0.6771653543307087,"duration":0.12010889583333295},{"name":"D4","midi":62,"time":27.646785208333306,"velocity":0.6692913385826772,"duration":0.1402176250000018},{"name":"G4","midi":67,"time":27.777763687499974,"velocity":0.6535433070866141,"duration":0.14510893750000164},{"name":"E4","midi":64,"time":27.913089999999976,"velocity":0.6456692913385826,"duration":0.1315219583333338},{"name":"D4","midi":62,"time":28.04080760416664,"velocity":0.6377952755905512,"duration":0.17771768750000305},{"name":"A4","midi":69,"time":28.169068687499976,"velocity":0.6299212598425197,"duration":0.14673937500000278},{"name":"E4","midi":64,"time":28.306568916666645,"velocity":0.6220472440944882,"duration":0.12771760416666922},{"name":"D4","midi":62,"time":28.432656083333313,"velocity":0.6141732283464567,"duration":0.18152204166666763},{"name":"A#4","midi":70,"time":28.55874324999998,"velocity":0.6062992125984252,"duration":0.1402176250000018},{"name":"E4","midi":64,"time":28.692439124999982,"velocity":0.5905511811023622,"duration":0.1250002083333328},{"name":"D4","midi":62,"time":28.822330645833315,"velocity":0.5826771653543307,"duration":0.13369587499999724},{"name":"C#4","midi":61,"time":28.95004824999998,"velocity":0.5748031496062992,"duration":0.13804370833333124},{"name":"D4","midi":62,"time":29.08048324999998,"velocity":0.5669291338582677,"duration":0.14347849999999696},{"name":"E4","midi":64,"time":29.210918249999978,"velocity":0.5590551181102362,"duration":0.14782633333333095},{"name":"A3","midi":57,"time":29.35167935416664,"velocity":0.5433070866141733,"duration":0.25923956249999947},{"name":"A5","midi":81,"time":29.61581022916664,"velocity":0.7007874015748031,"duration":0.13967414583333237},{"name":"A#5","midi":82,"time":29.74624522916664,"velocity":0.7874015748031497,"duration":0.13858718750000065},{"name":"A5","midi":81,"time":29.872875874999973,"velocity":0.6614173228346457,"duration":0.12228281249999995},{"name":"G5","midi":79,"time":29.999506520833307,"velocity":0.7165354330708661,"duration":0.12880456250000094},{"name":"F5","midi":77,"time":30.13102847916664,"velocity":0.7165354330708661,"duration":0.1391306666666665},{"name":"E5","midi":76,"time":30.262550437499975,"velocity":0.7244094488188977,"duration":0.11956541666666709},{"name":"D5","midi":74,"time":30.388637604166643,"velocity":0.7244094488188977,"duration":0.1293480416666668},{"name":"C#5","midi":73,"time":30.513637812499976,"velocity":0.7244094488188977,"duration":0.13858718750000065},{"name":"E5","midi":76,"time":30.64352933333331,"velocity":0.7322834645669292,"duration":0.13097847916666794},{"name":"A4","midi":69,"time":30.776138249999978,"velocity":0.7244094488188977,"duration":0.1358697916666678},{"name":"G4","midi":67,"time":30.905486291666644,"velocity":0.7165354330708661,"duration":0.14076110416666765},{"name":"F4","midi":65,"time":31.037008249999978,"velocity":0.7086614173228346,"duration":0.12826108333333508},{"name":"E4","midi":64,"time":31.166356291666645,"velocity":0.7007874015748031,"duration":0.1434785000000005},{"name":"F4","midi":65,"time":31.31526958333331,"velocity":0.6929133858267716,"duration":0.1434785000000005},{"name":"A4","midi":69,"time":31.43103064583331,"velocity":0.6929133858267716,"duration":0.14728285416666864},{"name":"D5","midi":74,"time":31.565813479166646,"velocity":0.6850393700787402,"duration":0.12282629166666581},{"name":"E4","midi":64,"time":31.694074562499978,"velocity":0.6771653543307087,"duration":0.18152204166666408},{"name":"D5","midi":74,"time":31.826683479166643,"velocity":0.6692913385826772,"duration":0.11141322916666496},{"name":"C#5","midi":73,"time":31.945161937499975,"velocity":0.6614173228346457,"duration":0.13858718750000065},{"name":"D5","midi":74,"time":32.078857812499976,"velocity":0.6456692913385826,"duration":0.13097847916666439},{"name":"A4","midi":69,"time":32.215271083333306,"velocity":0.6062992125984252,"duration":0.1320654374999961},{"name":"F#4","midi":66,"time":32.34135824999997,"velocity":0.5669291338582677,"duration":0.20163077083333292},{"name":"D4","midi":62,"time":32.482119354166635,"velocity":0.5275590551181102,"duration":0.26087000000000415},{"name":"D5","midi":74,"time":32.72614149999997,"velocity":0.7401574803149606,"duration":0.14402197916666637},{"name":"D#5","midi":75,"time":32.85875041666664,"velocity":0.7401574803149606,"duration":0.14619589583332981},{"name":"D5","midi":74,"time":32.994076729166636,"velocity":0.7401574803149606,"duration":0.12880456250000094},{"name":"C5","midi":72,"time":33.12396824999997,"velocity":0.7401574803149606,"duration":0.13586979166666424},{"name":"A#4","midi":70,"time":33.2554902083333,"velocity":0.7401574803149606,"duration":0.13532631249999838},{"name":"A4","midi":69,"time":33.384838249999966,"velocity":0.7401574803149606,"duration":0.1222828124999964},{"name":"G4","midi":67,"time":33.514186291666626,"velocity":0.7401574803149606,"duration":0.1380437083333348},{"name":"F#4","midi":66,"time":33.65603435416663,"velocity":0.7401574803149606,"duration":0.1804350833333288},{"name":"A4","midi":69,"time":33.77288237499996,"velocity":0.7401574803149606,"duration":0.12336977083332812},{"name":"D4","midi":62,"time":33.90386085416662,"velocity":0.7401574803149606,"duration":0.13532631249999838},{"name":"C4","midi":60,"time":34.037556729166624,"velocity":0.7401574803149606,"duration":0.14293502083333465},{"name":"A#3","midi":58,"time":34.17233956249996,"velocity":0.7401574803149606,"duration":0.13423935416667376},{"name":"A3","midi":57,"time":34.30277456249996,"velocity":0.7401574803149606,"duration":0.1336958750000008},{"name":"A#3","midi":58,"time":34.4294052083333,"velocity":0.7322834645669292,"duration":0.14402197916666637},{"name":"D4","midi":62,"time":34.56364456249997,"velocity":0.7322834645669292,"duration":0.14402197916666637},{"name":"G4","midi":67,"time":34.69951435416663,"velocity":0.7322834645669292,"duration":0.11956541666666709},{"name":"A3","midi":57,"time":34.82342760416663,"velocity":0.7322834645669292,"duration":0.14565241666666395},{"name":"G4","midi":67,"time":34.9576669583333,"velocity":0.7322834645669292,"duration":0.1293480416666597},{"name":"F#4","midi":66,"time":35.08538456249996,"velocity":0.7322834645669292,"duration":0.1293480416666668},{"name":"G4","midi":67,"time":35.21418912499996,"velocity":0.7322834645669292,"duration":0.13695674999999596},{"name":"A#4","midi":70,"time":35.34951543749996,"velocity":0.7322834645669292,"duration":0.1250002083333328},{"name":"A4","midi":69,"time":35.47397216666663,"velocity":0.7322834645669292,"duration":0.14456545833333223},{"name":"A#4","midi":70,"time":35.606581083333296,"velocity":0.7322834645669292,"duration":0.1380437083333348},{"name":"D5","midi":74,"time":35.73647260416663,"velocity":0.7322834645669292,"duration":0.1320654375000032},{"name":"C5","midi":72,"time":35.86527716666663,"velocity":0.7322834645669292,"duration":0.14293502083333465},{"name":"D5","midi":74,"time":35.9962556458333,"velocity":0.7244094488188977,"duration":0.5445661249999958},{"name":"E5","midi":76,"time":36.52669131249996,"velocity":0.7244094488188977,"duration":0.12771760416666922},{"name":"F5","midi":77,"time":36.64951760416663,"velocity":0.7244094488188977,"duration":0.14565241666666395},{"name":"E5","midi":76,"time":36.78321347916663,"velocity":0.7244094488188977,"duration":0.5429356874999982},{"name":"F5","midi":77,"time":37.312562187499964,"velocity":0.7244094488188977,"duration":0.13152195833333735},{"name":"G5","midi":79,"time":37.436475437499965,"velocity":0.7244094488188977,"duration":0.14184806250000292},{"name":"A5","midi":81,"time":37.570171312499966,"velocity":0.7322834645669292,"duration":0.14021762500000534},{"name":"G5","midi":79,"time":37.7016932708333,"velocity":0.7322834645669292,"duration":0.12826108333332797},{"name":"F5","midi":77,"time":37.82778043749997,"velocity":0.7322834645669292,"duration":0.1320654374999961},{"name":"G5","midi":79,"time":37.954954562499964,"velocity":0.7322834645669292,"duration":0.1434784999999934},{"name":"F5","midi":77,"time":38.086476520833294,"velocity":0.7322834645669292,"duration":0.13097847916666439},{"name":"E5","midi":76,"time":38.214194124999956,"velocity":0.7322834645669292,"duration":0.14565241666667106},{"name":"F5","midi":77,"time":38.34734652083329,"velocity":0.7322834645669292,"duration":0.1391306666666665},{"name":"G5","midi":79,"time":38.47506412499996,"velocity":0.7322834645669292,"duration":0.1391306666666594},{"name":"A5","midi":81,"time":38.60332520833329,"velocity":0.7322834645669292,"duration":0.13858718750000065},{"name":"D5","midi":74,"time":38.737564562499955,"velocity":0.7322834645669292,"duration":0.5304356666666692},{"name":"C5","midi":72,"time":39.26256543749996,"velocity":0.7165354330708661,"duration":0.13315239583333494},{"name":"A#4","midi":70,"time":39.391913479166625,"velocity":0.7007874015748031,"duration":0.1407611041666712},{"name":"C5","midi":72,"time":39.52397891666663,"velocity":0.6850393700787402,"duration":0.6625011041666653},{"name":"D5","midi":74,"time":40.176697395833294,"velocity":0.5905511811023622,"duration":0.1364132708333372},{"name":"A#4","midi":70,"time":40.3087628333333,"velocity":0.5905511811023622,"duration":0.2701091458333309},{"name":"C5","midi":72,"time":40.56854587499996,"velocity":0.5905511811023622,"duration":0.14021762499999824},{"name":"A4","midi":69,"time":40.70006783333329,"velocity":0.5905511811023622,"duration":0.26358739583333346},{"name":"A#4","midi":70,"time":40.95495956249996,"velocity":0.5905511811023622,"duration":0.14673937500000278},{"name":"C5","midi":72,"time":41.08865543749996,"velocity":0.5905511811023622,"duration":0.26358739583333346},{"name":"F#4","midi":66,"time":41.345721083333295,"velocity":0.6692913385826772,"duration":0.13532631249999127},{"name":"D5","midi":74,"time":41.345721083333295,"velocity":0.6692913385826772,"duration":0.1347828333333254},{"name":"A#4","midi":70,"time":41.47887347916662,"velocity":0.6692913385826772,"duration":0.27337002083332607},{"name":"G4","midi":67,"time":41.48159087499995,"velocity":0.6692913385826772,"duration":0.5342400208333302},{"name":"C5","midi":72,"time":41.74246087499995,"velocity":0.6850393700787402,"duration":0.14130458333332996},{"name":"D5","midi":74,"time":41.873439354166614,"velocity":0.6850393700787402,"duration":0.6478271666666657},{"name":"A4","midi":69,"time":42.018004812499946,"velocity":0.6929133858267716,"duration":0.13532631250000549},{"name":"A#4","midi":70,"time":42.14028762499995,"velocity":0.7007874015748031,"duration":0.1293480416666668},{"name":"A4","midi":69,"time":42.268548708333284,"velocity":0.7007874015748031,"duration":0.5059791041666628},{"name":"E5","midi":76,"time":42.51528824999995,"velocity":0.7165354330708661,"duration":0.13478283333333252},{"name":"F#5","midi":78,"time":42.65170152083328,"velocity":0.7244094488188977,"duration":0.3940223958333391},{"name":"A#4","midi":70,"time":42.78920174999995,"velocity":0.7401574803149606,"duration":0.1364132708333372},{"name":"C5","midi":72,"time":42.92126718749995,"velocity":0.7480314960629921,"duration":0.12608716666666453},{"name":"G5","midi":79,"time":43.04626739583328,"velocity":0.7559055118110236,"duration":0.3934789166666661},{"name":"D5","midi":74,"time":43.05550654166662,"velocity":0.7559055118110236,"duration":0.14891329166666623},{"name":"C5","midi":72,"time":43.18376762499995,"velocity":0.7637795275590551,"duration":0.13478283333333252},{"name":"A#4","midi":70,"time":43.31800697916662,"velocity":0.7716535433070866,"duration":0.12445672916665984},{"name":"C5","midi":72,"time":43.44137674999995,"velocity":0.7795275590551181,"duration":0.14184806250000292},{"name":"A5","midi":81,"time":43.445181104166615,"velocity":0.7795275590551181,"duration":0.7728273749999985},{"name":"A#4","midi":70,"time":43.57072479166661,"velocity":0.7874015748031497,"duration":0.13586979166666424},{"name":"A4","midi":69,"time":43.70496414583328,"velocity":0.7952755905511811,"duration":0.1266306458333304},{"name":"A#4","midi":70,"time":43.82779043749994,"velocity":0.8031496062992126,"duration":0.7820665208333324},{"name":"G5","midi":79,"time":44.21366064583328,"velocity":0.8346456692913385,"duration":0.5690226874999951},{"name":"A4","midi":69,"time":44.60387868749994,"velocity":0.84251968503937,"duration":0.7864143541666664},{"name":"F5","midi":77,"time":44.74083543749994,"velocity":0.84251968503937,"duration":0.1309784791666715},{"name":"E5","midi":76,"time":44.86746608333328,"velocity":0.84251968503937,"duration":0.1793481250000042},{"name":"F5","midi":77,"time":45.00061847916661,"velocity":0.84251968503937,"duration":0.7766317291666667},{"name":"G4","midi":67,"time":45.388119124999946,"velocity":0.84251968503937,"duration":0.7793491250000031},{"name":"D#5","midi":75,"time":45.77670672916661,"velocity":0.8031496062992126,"duration":0.5304356666666763},{"name":"F4","midi":65,"time":46.16475085416661,"velocity":0.7637795275590551,"duration":0.7869578333333465},{"name":"D5","midi":74,"time":46.29953368749995,"velocity":0.7559055118110236,"duration":0.1293480416666739},{"name":"C5","midi":72,"time":46.42616433333329,"velocity":0.7401574803149606,"duration":0.14728285416666864},{"name":"D5","midi":74,"time":46.56203412499996,"velocity":0.7322834645669292,"duration":0.775001291666662},{"name":"D#4","midi":63,"time":46.94681737499996,"velocity":0.7007874015748031,"duration":0.796740458333332},{"name":"C5","midi":72,"time":47.33214410416662,"velocity":0.6614173228346457,"duration":0.5798922708333336},{"name":"D4","midi":62,"time":47.73486216666662,"velocity":0.6299212598425197,"duration":0.5331530624999985},{"name":"A#4","midi":70,"time":47.86801456249996,"velocity":0.6141732283464567,"duration":0.13532631249999838},{"name":"A4","midi":69,"time":47.997362604166625,"velocity":0.6062992125984252,"duration":0.14402197916666637},{"name":"A#4","midi":70,"time":48.128884562499955,"velocity":0.5905511811023622,"duration":0.3798919374999983},{"name":"F4","midi":65,"time":48.25714564583329,"velocity":0.5826771653543307,"duration":0.13586979166666424},{"name":"E4","midi":64,"time":48.38486324999995,"velocity":0.5669291338582677,"duration":0.14130458333332996},{"name":"F4","midi":65,"time":48.51910260416662,"velocity":0.5590551181102362,"duration":0.19782641666666478},{"name":"A4","midi":69,"time":48.65388543749995,"velocity":0.5433070866141733,"duration":0.25923956249999947},{"name":"E4","midi":64,"time":48.783776958333284,"velocity":0.5354330708661418,"duration":0.13478283333333252},{"name":"D4","midi":62,"time":48.91149456249995,"velocity":0.5354330708661418,"duration":0.20271772916665753},{"name":"A4","midi":69,"time":49.04519043749995,"velocity":0.5275590551181102,"duration":0.13586979166666424},{"name":"G4","midi":67,"time":49.17508195833328,"velocity":0.5196850393700787,"duration":0.14239154166666879},{"name":"A4","midi":69,"time":49.30388652083328,"velocity":0.5118110236220472,"duration":0.4576094583333301},{"name":"C#4","midi":61,"time":49.42779977083328,"velocity":0.5039370078740157,"duration":0.12826108333332797},{"name":"B3","midi":59,"time":49.553886937499946,"velocity":0.5039370078740157,"duration":0.14565241666666395},{"name":"C#4","midi":61,"time":49.689213249999945,"velocity":0.49606299212598426,"duration":0.39565283333332957},{"name":"E4","midi":64,"time":49.81964824999994,"velocity":0.5511811023622047,"duration":0.12717412500000336},{"name":"G4","midi":67,"time":49.95117020833328,"velocity":0.5905511811023622,"duration":0.13097847916666439},{"name":"D4","midi":62,"time":50.07671389583328,"velocity":0.6220472440944882,"duration":0.5956531666666578},{"name":"F4","midi":65,"time":50.08377912499994,"velocity":0.6220472440944882,"duration":0.5766313958333313},{"name":"E4","midi":64,"time":50.611497395833275,"velocity":0.6535433070866141,"duration":0.1222828124999964},{"name":"G4","midi":67,"time":50.61367131249994,"velocity":0.6535433070866141,"duration":0.12173933333333053},{"name":"F4","midi":65,"time":50.73269324999994,"velocity":0.6614173228346457,"duration":0.136413270833323},{"name":"A4","midi":69,"time":50.73758456249993,"velocity":0.6614173228346457,"duration":0.19076118750000148},{"name":"E4","midi":64,"time":50.862584770833266,"velocity":0.6771653543307087,"duration":0.5429356875000053},{"name":"G4","midi":67,"time":50.8767152291666,"velocity":0.6771653543307087,"duration":0.5168486875000013},{"name":"F4","midi":65,"time":51.3919334791666,"velocity":0.7795275590551181,"duration":0.13097847916666439},{"name":"A4","midi":69,"time":51.39628131249994,"velocity":0.7795275590551181,"duration":0.12826108333332797},{"name":"G4","midi":67,"time":51.52019456249994,"velocity":0.8031496062992126,"duration":0.18858727083333093},{"name":"A#4","midi":70,"time":51.52128152083327,"velocity":0.8031496062992126,"duration":0.12717412499999625},{"name":"A4","midi":69,"time":51.65660783333327,"velocity":0.8267716535433071,"duration":0.20434816666666933},{"name":"D5","midi":74,"time":51.78378195833327,"velocity":0.84251968503937,"duration":0.2076090416666716},{"name":"F5","midi":77,"time":51.92182566666661,"velocity":0.8503937007874016,"duration":0.12065237500000592},{"name":"G4","midi":67,"time":52.04302152083328,"velocity":0.8582677165354331,"duration":0.4494572708333422},{"name":"G5","midi":79,"time":52.177260874999945,"velocity":0.8661417322834646,"duration":0.1222828125000035},{"name":"E5","midi":76,"time":52.30334804166662,"velocity":0.8740157480314961,"duration":0.1293480416666668},{"name":"F5","midi":77,"time":52.43541347916662,"velocity":0.8818897637795275,"duration":0.13423935416666666},{"name":"A5","midi":81,"time":52.563674562499955,"velocity":0.889763779527559,"duration":0.13152195833333025},{"name":"G5","midi":79,"time":52.69084868749995,"velocity":0.8976377952755905,"duration":0.1391306666666665},{"name":"A5","midi":81,"time":52.81965324999995,"velocity":0.905511811023622,"duration":0.22826124999999564},{"name":"A4","midi":69,"time":53.21584956249995,"velocity":0.7716535433070866,"duration":0.19945685416666947},{"name":"C#5","midi":73,"time":53.34954543749995,"velocity":0.7637795275590551,"duration":0.12391325000000109},{"name":"B4","midi":71,"time":53.47726304166662,"velocity":0.7480314960629921,"duration":0.13750022916666893},{"name":"C#5","midi":73,"time":53.60715456249995,"velocity":0.7401574803149606,"duration":0.14239154166666879},{"name":"E5","midi":76,"time":53.74302435416662,"velocity":0.7322834645669292,"duration":0.11902193749999412},{"name":"D5","midi":74,"time":53.86639412499995,"velocity":0.7244094488188977,"duration":0.14402197916666637},{"name":"E5","midi":76,"time":54.00172043749995,"velocity":0.7165354330708661,"duration":0.27065262500000387},{"name":"E4","midi":64,"time":54.38487324999995,"velocity":0.6929133858267716,"duration":0.14293502083333465},{"name":"G4","midi":67,"time":54.52019956249995,"velocity":0.6850393700787402,"duration":0.13532631249999838},{"name":"F4","midi":65,"time":54.649547604166614,"velocity":0.6771653543307087,"duration":0.13532631249999838},{"name":"G4","midi":67,"time":54.78052608333328,"velocity":0.6692913385826772,"duration":0.1434785000000005},{"name":"A#4","midi":70,"time":54.91367847916661,"velocity":0.6614173228346457,"duration":0.1266306458333304},{"name":"A4","midi":69,"time":55.038678687499946,"velocity":0.6535433070866141,"duration":0.1391306666666665},{"name":"A#4","midi":70,"time":55.16748324999995,"velocity":0.6377952755905512,"duration":0.28804395833333274},{"name":"C#4","midi":61,"time":55.56041868749995,"velocity":0.6141732283464567,"duration":0.14184806249999582},{"name":"E4","midi":64,"time":55.695744999999945,"velocity":0.6062992125984252,"duration":0.12717412499999625},{"name":"D4","midi":62,"time":55.821288687499944,"velocity":0.5984251968503937,"duration":0.13097847916666439},{"name":"E4","midi":64,"time":55.94846281249994,"velocity":0.5905511811023622,"duration":0.18967422916666266},{"name":"G4","midi":67,"time":56.08813695833327,"velocity":0.5826771653543307,"duration":0.11739149999999654},{"name":"F4","midi":65,"time":56.21041977083327,"velocity":0.5748031496062992,"duration":0.13260891666666907},{"name":"G4","midi":67,"time":56.33922433333327,"velocity":0.5669291338582677,"duration":0.14402197916666637},{"name":"A#4","midi":70,"time":56.47346368749994,"velocity":0.5669291338582677,"duration":0.13260891666666197},{"name":"A4","midi":69,"time":56.60009433333327,"velocity":0.5826771653543307,"duration":0.14673937499999568},{"name":"A#4","midi":70,"time":56.73759456249993,"velocity":0.5905511811023622,"duration":0.19076118750000148},{"name":"A4","midi":69,"time":56.880529583333264,"velocity":0.6062992125984252,"duration":0.1065219166666651},{"name":"G4","midi":67,"time":56.99302977083326,"velocity":0.6220472440944882,"duration":0.1380437083333348},{"name":"C#5","midi":73,"time":57.12672564583326,"velocity":0.6377952755905512,"duration":0.1451089375000052},{"name":"A#4","midi":70,"time":57.258791083333264,"velocity":0.6456692913385826,"duration":0.13315239583333494},{"name":"A4","midi":69,"time":57.3886826041666,"velocity":0.6614173228346457,"duration":0.14836981250000036},{"name":"D5","midi":74,"time":57.52346543749993,"velocity":0.6771653543307087,"duration":0.14184806250000292},{"name":"A4","midi":69,"time":57.657704791666596,"velocity":0.6929133858267716,"duration":0.12826108333333508},{"name":"G4","midi":67,"time":57.7848789166666,"velocity":0.7007874015748031,"duration":0.1945655416666625},{"name":"E5","midi":76,"time":57.920748708333264,"velocity":0.7165354330708661,"duration":0.1266306458333304},{"name":"A4","midi":69,"time":58.04683587499993,"velocity":0.7322834645669292,"duration":0.12717412499999625},{"name":"G4","midi":67,"time":58.17618391666659,"velocity":0.7165354330708661,"duration":0.13532631250000549},{"name":"F4","midi":65,"time":58.30824935416659,"velocity":0.7086614173228346,"duration":0.14293502083333465},{"name":"G4","midi":67,"time":58.43922783333326,"velocity":0.7007874015748031,"duration":0.12445672916665984},{"name":"E4","midi":64,"time":58.55661933333326,"velocity":0.6929133858267716,"duration":0.15326112500000022},{"name":"F4","midi":65,"time":58.70118479166659,"velocity":0.6850393700787402,"duration":0.13532631250000549},{"name":"E4","midi":64,"time":58.828358916666595,"velocity":0.6771653543307087,"duration":0.12010889583333295},{"name":"D4","midi":62,"time":58.951185208333264,"velocity":0.6692913385826772,"duration":0.14021762499999824},{"name":"G4","midi":67,"time":59.08216368749993,"velocity":0.6535433070866141,"duration":0.1451089374999981},{"name":"E4","midi":64,"time":59.21748999999993,"velocity":0.6456692913385826,"duration":0.13152195833333735},{"name":"D4","midi":62,"time":59.345207604166596,"velocity":0.6377952755905512,"duration":0.1777176874999995},{"name":"A4","midi":69,"time":59.47346868749993,"velocity":0.6299212598425197,"duration":0.14673937499999568},{"name":"E4","midi":64,"time":59.61096891666659,"velocity":0.6220472440944882,"duration":0.1277176041666621},{"name":"D4","midi":62,"time":59.73705608333326,"velocity":0.6141732283464567,"duration":0.18152204166666763},{"name":"A#4","midi":70,"time":59.86314324999992,"velocity":0.6062992125984252,"duration":0.14021762499999824},{"name":"E4","midi":64,"time":59.99683912499992,"velocity":0.5905511811023622,"duration":0.1250002083333328},{"name":"D4","midi":62,"time":60.126730645833256,"velocity":0.5826771653543307,"duration":0.1336958750000008},{"name":"C#4","midi":61,"time":60.254448249999925,"velocity":0.5748031496062992,"duration":0.1380437083333348},{"name":"D4","midi":62,"time":60.38488324999992,"velocity":0.5669291338582677,"duration":0.1434785000000076},{"name":"E4","midi":64,"time":60.51531824999993,"velocity":0.5590551181102362,"duration":0.1478263333333345},{"name":"A3","midi":57,"time":60.6560793541666,"velocity":0.5433070866141733,"duration":0.25923956249999947},{"name":"A5","midi":81,"time":60.9202102291666,"velocity":0.7007874015748031,"duration":0.13967414583333237},{"name":"A#5","midi":82,"time":61.0506452291666,"velocity":0.7874015748031497,"duration":0.13858718749999355},{"name":"A5","midi":81,"time":61.17727587499993,"velocity":0.6614173228346457,"duration":0.1222828124999964},{"name":"G5","midi":79,"time":61.30390652083326,"velocity":0.7165354330708661,"duration":0.12880456250000094},{"name":"F5","midi":77,"time":61.435428479166596,"velocity":0.7165354330708661,"duration":0.1391306666666665},{"name":"E5","midi":76,"time":61.566950437499926,"velocity":0.7244094488188977,"duration":0.11956541666666709},{"name":"D5","midi":74,"time":61.69303760416659,"velocity":0.7244094488188977,"duration":0.1293480416666668},{"name":"C#5","midi":73,"time":61.818037812499924,"velocity":0.7244094488188977,"duration":0.13858718750000065},{"name":"E5","midi":76,"time":61.947929333333256,"velocity":0.7322834645669292,"duration":0.1309784791666715},{"name":"A4","midi":69,"time":62.080538249999925,"velocity":0.7244094488188977,"duration":0.13586979166666424},{"name":"G4","midi":67,"time":62.20988629166659,"velocity":0.7165354330708661,"duration":0.1407611041666641},{"name":"F4","midi":65,"time":62.34140824999992,"velocity":0.7086614173228346,"duration":0.12826108333333508},{"name":"E4","midi":64,"time":62.47075629166659,"velocity":0.7007874015748031,"duration":0.1434785000000005},{"name":"F4","midi":65,"time":62.619669583333256,"velocity":0.6929133858267716,"duration":0.1434785000000005},{"name":"A4","midi":69,"time":62.735430645833254,"velocity":0.6929133858267716,"duration":0.14728285416666864},{"name":"D5","midi":74,"time":62.87021347916659,"velocity":0.6850393700787402,"duration":0.12282629166666936},{"name":"E4","midi":64,"time":62.99847456249992,"velocity":0.6771653543307087,"duration":0.18152204166666763},{"name":"D5","midi":74,"time":63.13108347916659,"velocity":0.6692913385826772,"duration":0.11141322916666496},{"name":"C#5","midi":73,"time":63.24956193749992,"velocity":0.6614173228346457,"duration":0.13858718750000065},{"name":"D5","midi":74,"time":63.38325781249992,"velocity":0.6456692913385826,"duration":0.13097847916666439},{"name":"A4","midi":69,"time":63.51967108333325,"velocity":0.6062992125984252,"duration":0.1320654374999961},{"name":"F#4","midi":66,"time":63.645758249999915,"velocity":0.5669291338582677,"duration":0.1336958750000008},{"name":"D4","midi":62,"time":63.78651935416658,"velocity":0.5275590551181102,"duration":0.26087000000000415},{"name":"A3","midi":57,"time":64.04738935416658,"velocity":0.7401574803149606,"duration":0.13913066666667362},{"name":"F#3","midi":54,"time":64.18108522916658,"velocity":0.7401574803149606,"duration":0.13260891666666907},{"name":"G3","midi":55,"time":64.31097674999992,"velocity":0.7401574803149606,"duration":0.1364132708333301},{"name":"A3","midi":57,"time":64.44195522916658,"velocity":0.7401574803149606,"duration":0.1820655208333335},{"name":"A#3","midi":58,"time":64.57239022916659,"velocity":0.7401574803149606,"duration":0.14239154166665458},{"name":"C4","midi":60,"time":64.70173827083325,"velocity":0.7401574803149606,"duration":0.1250002083333328},{"name":"D4","midi":62,"time":64.82510804166658,"velocity":0.7401574803149606,"duration":0.12119585416665757},{"name":"D#4","midi":63,"time":64.95717347916657,"velocity":0.7401574803149606,"duration":0.12119585416667178},{"name":"C4","midi":60,"time":65.08326064583325,"velocity":0.7401574803149606,"duration":0.13097847916665728},{"name":"G4","midi":67,"time":65.20989129166658,"velocity":0.7401574803149606,"duration":0.13695674999999596},{"name":"A4","midi":69,"time":65.3414132499999,"velocity":0.7322834645669292,"duration":0.1434785000000005},{"name":"A#4","midi":70,"time":65.47184824999991,"velocity":0.7322834645669292,"duration":0.14293502083332044},{"name":"C5","midi":72,"time":65.6039136874999,"velocity":0.7322834645669292,"duration":0.14184806249998871},{"name":"A#4","midi":70,"time":65.73434868749989,"velocity":0.7322834645669292,"duration":0.20380468749999636},{"name":"G4","midi":67,"time":65.86858804166656,"velocity":0.7322834645669292,"duration":0.1309784791666715},{"name":"D4","midi":62,"time":65.99413172916655,"velocity":0.7322834645669292,"duration":0.1864133541666746},{"name":"C5","midi":72,"time":66.12728412499989,"velocity":0.7322834645669292,"duration":0.18315247916667943},{"name":"E4","midi":64,"time":66.26206695833324,"velocity":0.7322834645669292,"duration":0.13858718749999355},{"name":"F#4","midi":66,"time":66.38924108333323,"velocity":0.7322834645669292,"duration":0.14021762499999113},{"name":"G4","midi":67,"time":66.51967608333322,"velocity":0.7007874015748031,"duration":0.14184806250000292},{"name":"E4","midi":64,"time":66.65337195833322,"velocity":0.6850393700787402,"duration":0.13423935416666666},{"name":"F4","midi":65,"time":66.78054608333322,"velocity":0.6771653543307087,"duration":0.1706524583333362},{"name":"E4","midi":64,"time":66.91369847916656,"velocity":0.6614173228346457,"duration":0.12989152083333977},{"name":"C#4","midi":61,"time":67.04413347916656,"velocity":0.6456692913385826,"duration":0.11956541666665998},{"name":"D4","midi":62,"time":67.16804672916655,"velocity":0.6377952755905512,"duration":0.14673937499999568},{"name":"A4","midi":69,"time":67.30174260416655,"velocity":0.6220472440944882,"duration":0.58206618749999},{"name":"G4","midi":67,"time":67.8256565208332,"velocity":0.6377952755905512,"duration":0.13532631249999838},{"name":"F4","midi":65,"time":67.95554804166653,"velocity":0.6377952755905512,"duration":0.1380437083333419},{"name":"G4","midi":67,"time":68.08706999999987,"velocity":0.6377952755905512,"duration":0.5722835625000045},{"name":"F4","midi":65,"time":68.61207087499987,"velocity":0.6377952755905512,"duration":0.13750022916667604},{"name":"E4","midi":64,"time":68.74087543749988,"velocity":0.6299212598425197,"duration":0.1266306458333304},{"name":"D4","midi":62,"time":68.86859304166654,"velocity":0.6299212598425197,"duration":0.13750022916666182},{"name":"E4","midi":64,"time":69.00283239583321,"velocity":0.6299212598425197,"duration":0.1336958750000008},{"name":"F4","midi":65,"time":69.1316369583332,"velocity":0.6299212598425197,"duration":0.1293480416666739},{"name":"E4","midi":64,"time":69.26152847916654,"velocity":0.6299212598425197,"duration":0.13750022916667604},{"name":"A4","midi":69,"time":69.39305043749988,"velocity":0.6299212598425197,"duration":0.1434785000000005},{"name":"G4","midi":67,"time":69.52620283333322,"velocity":0.6299212598425197,"duration":0.1451089374999981},{"name":"F4","midi":65,"time":69.65826827083322,"velocity":0.6299212598425197,"duration":0.13804370833332769},{"name":"E4","midi":64,"time":69.78924674999988,"velocity":0.5984251968503937,"duration":0.12065237500000592},{"name":"D4","midi":62,"time":69.91587739583322,"velocity":0.5984251968503937,"duration":0.1451089374999981},{"name":"A#4","midi":70,"time":70.05229066666655,"velocity":0.5433070866141733,"duration":0.5282617499999986},{"name":"A4","midi":69,"time":70.56696543749989,"velocity":0.5433070866141733,"duration":0.132065437499989},{"name":"G4","midi":67,"time":70.69631347916655,"velocity":0.5433070866141733,"duration":0.13532631249999838},{"name":"A4","midi":69,"time":70.82674847916654,"velocity":0.5433070866141733,"duration":0.1467393750000099},{"name":"G4","midi":67,"time":70.96153131249989,"velocity":0.5433070866141733,"duration":0.12826108333332797},{"name":"F#4","midi":66,"time":71.08870543749988,"velocity":0.5433070866141733,"duration":0.13423935416666666},{"name":"G4","midi":67,"time":71.22131435416655,"velocity":0.5433070866141733,"duration":0.3228266249999905},{"name":"D#5","midi":75,"time":71.48327131249988,"velocity":0.5433070866141733,"duration":0.14239154166666879},{"name":"F4","midi":65,"time":71.61642370833322,"velocity":0.5433070866141733,"duration":0.21521774999999366},{"name":"D5","midi":74,"time":71.88001110416654,"velocity":0.5433070866141733,"duration":0.13586979166667845},{"name":"D#4","midi":63,"time":72.01044610416655,"velocity":0.5433070866141733,"duration":0.12554368749999867},{"name":"D4","midi":62,"time":72.13435935416655,"velocity":0.5433070866141733,"duration":0.13586979166666424},{"name":"C4","midi":60,"time":72.26859870833322,"velocity":0.5433070866141733,"duration":0.1222828125000035},{"name":"D4","midi":62,"time":72.39957718749989,"velocity":0.5433070866141733,"duration":0.12445672916666695},{"name":"C4","midi":60,"time":72.52620783333322,"velocity":0.5433070866141733,"duration":0.13315239583333494},{"name":"A#3","midi":58,"time":72.65718631249989,"velocity":0.5433070866141733,"duration":0.14293502083332044},{"name":"C4","midi":60,"time":72.78653435416655,"velocity":0.5433070866141733,"duration":0.20163077083333292},{"name":"A4","midi":69,"time":73.04142608333322,"velocity":0.5433070866141733,"duration":0.13804370833332769},{"name":"A#3","midi":58,"time":73.17512195833322,"velocity":0.5433070866141733,"duration":0.2527178124999949},{"name":"G4","midi":67,"time":73.43218760416654,"velocity":0.5433070866141733,"duration":0.1364132708333443},{"name":"F#4","midi":66,"time":73.56207912499988,"velocity":0.5590551181102362,"duration":0.1364132708333301},{"name":"G4","midi":67,"time":73.69523152083322,"velocity":0.5826771653543307,"duration":0.1347828333333183},{"name":"A4","midi":69,"time":73.82566652083321,"velocity":0.5984251968503937,"duration":0.14402197916666637},{"name":"A#4","midi":70,"time":73.96153631249987,"velocity":0.6220472440944882,"duration":0.12282629166666936},{"name":"C5","midi":72,"time":74.09034087499988,"velocity":0.6377952755905512,"duration":0.1353263125000126},{"name":"D5","midi":74,"time":74.22077587499989,"velocity":0.6614173228346457,"duration":0.1353263125000126},{"name":"D#5","midi":75,"time":74.34903695833323,"velocity":0.6771653543307087,"duration":0.1293480416666739},{"name":"C5","midi":72,"time":74.4800154374999,"velocity":0.7007874015748031,"duration":0.1434785000000005},{"name":"G5","midi":79,"time":74.62458089583323,"velocity":0.7244094488188977,"duration":0.1293480416666597},{"name":"A5","midi":81,"time":74.7441463124999,"velocity":0.7401574803149606,"duration":0.11956541666665998},{"name":"A#5","midi":82,"time":74.86045085416656,"velocity":0.7559055118110236,"duration":0.18152204166666763},{"name":"C6","midi":84,"time":74.99577716666656,"velocity":0.7795275590551181,"duration":0.14130458333333706},{"name":"A#5","midi":82,"time":75.12675564583323,"velocity":0.7952755905511811,"duration":0.2059786041666598},{"name":"G5","midi":79,"time":75.26208195833323,"velocity":0.8188976377952756,"duration":0.12880456249999384},{"name":"D5","midi":74,"time":75.38871260416656,"velocity":0.8346456692913385,"duration":0.13260891666665486},{"name":"C6","midi":84,"time":75.51806064583322,"velocity":0.8582677165354331,"duration":0.140761104166657},{"name":"E5","midi":76,"time":75.64958260416654,"velocity":0.8582677165354331,"duration":0.13478283333333252},{"name":"F#5","midi":78,"time":75.77621324999987,"velocity":0.8503937007874016,"duration":0.18369595833333108},{"name":"G5","midi":79,"time":75.90990912499987,"velocity":0.84251968503937,"duration":0.1320654375000032},{"name":"D5","midi":74,"time":76.0430615208332,"velocity":0.8346456692913385,"duration":0.13260891666666907},{"name":"D#5","midi":75,"time":76.17077912499987,"velocity":0.8267716535433071,"duration":0.13913066666667362},{"name":"F5","midi":77,"time":76.30121412499987,"velocity":0.8188976377952756,"duration":0.14565241666666395},{"name":"C5","midi":72,"time":76.43817087499987,"velocity":0.8110236220472441,"duration":0.13586979166667845},{"name":"D5","midi":74,"time":76.56697543749988,"velocity":0.8031496062992126,"duration":0.18097856250000177},{"name":"D#5","midi":75,"time":76.69904087499988,"velocity":0.8031496062992126,"duration":0.29673962500000073},{"name":"F5","midi":77,"time":77.09306327083321,"velocity":0.7401574803149606,"duration":0.07554360416666839},{"name":"E5","midi":76,"time":77.17078079166654,"velocity":0.7244094488188977,"duration":0.05815227083333241},{"name":"F5","midi":77,"time":77.23273741666654,"velocity":0.7165354330708661,"duration":0.04130441666666229},{"name":"E5","midi":76,"time":77.28925924999987,"velocity":0.7086614173228346,"duration":0.06358706249999102},{"name":"F5","midi":77,"time":77.33219410416653,"velocity":0.7007874015748031,"duration":0.0836957916666563},{"name":"E5","midi":76,"time":77.41208554166653,"velocity":0.6929133858267716,"duration":0.06467402083332274},{"name":"F5","midi":77,"time":77.49143349999986,"velocity":0.6771653543307087,"duration":0.11902193749999412},{"name":"C5","midi":72,"time":77.61480327083318,"velocity":0.6614173228346457,"duration":0.12010889583334006},{"name":"D5","midi":74,"time":77.73599912499985,"velocity":0.6377952755905512,"duration":0.1293480416666597},{"name":"D#5","midi":75,"time":77.86534716666651,"velocity":0.6220472440944882,"duration":0.1222828125000035},{"name":"A#4","midi":70,"time":77.99034737499984,"velocity":0.5984251968503937,"duration":0.13750022916667604},{"name":"C5","midi":72,"time":78.12023889583318,"velocity":0.5826771653543307,"duration":0.13858718750000776},{"name":"D5","midi":74,"time":78.24795649999986,"velocity":0.5590551181102362,"duration":0.13315239583333494},{"name":"A4","midi":69,"time":78.38491324999985,"velocity":0.5433070866141733,"duration":0.1277176041666621},{"name":"A#4","midi":70,"time":78.50991345833319,"velocity":0.5196850393700787,"duration":0.13369587499998659},{"name":"C5","midi":72,"time":78.64034845833318,"velocity":0.5039370078740157,"duration":0.14184806250000292},{"name":"G4","midi":67,"time":78.77730520833317,"velocity":0.4881889763779528,"duration":0.1451089375000123},{"name":"A4","midi":69,"time":78.91480543749985,"velocity":0.4881889763779528,"duration":0.13043499999999142},{"name":"A#4","midi":70,"time":79.04143608333318,"velocity":0.4881889763779528,"duration":0.25108737499999734},{"name":"G5","midi":79,"time":79.30121912499985,"velocity":0.4881889763779528,"duration":0.12608716666666453},{"name":"G#4","midi":68,"time":79.43708891666651,"velocity":0.4881889763779528,"duration":0.257065645833336},{"name":"F5","midi":77,"time":79.69741543749984,"velocity":0.4881889763779528,"duration":0.1277176041666621},{"name":"G4","midi":67,"time":79.82730695833317,"velocity":0.4881889763779528,"duration":0.27065262499999676},{"name":"D#5","midi":75,"time":80.0908943541665,"velocity":0.4881889763779528,"duration":0.13695675000001017},{"name":"F4","midi":65,"time":80.22024239583317,"velocity":0.4881889763779528,"duration":0.253261291666675},{"name":"D5","midi":74,"time":80.48328631249984,"velocity":0.4881889763779528,"duration":0.13586979166666424},{"name":"D#4","midi":63,"time":80.61535174999985,"velocity":0.4881889763779528,"duration":0.14130458333332285},{"name":"F4","midi":65,"time":80.74687370833317,"velocity":0.4881889763779528,"duration":0.1336958750000008},{"name":"G4","midi":67,"time":80.87676522916651,"velocity":0.4881889763779528,"duration":0.13423935416666666},{"name":"D4","midi":62,"time":81.00448283333317,"velocity":0.4881889763779528,"duration":0.1336958750000008},{"name":"D#4","midi":63,"time":81.13546131249984,"velocity":0.4881889763779528,"duration":0.13152195833332314},{"name":"C4","midi":60,"time":81.26263543749984,"velocity":0.4881889763779528,"duration":0.13043499999999142},{"name":"B3","midi":59,"time":81.39470087499983,"velocity":0.4881889763779528,"duration":0.1336958750000008},{"name":"C4","midi":60,"time":81.52622283333316,"velocity":0.4881889763779528,"duration":0.1364132708333301},{"name":"D4","midi":62,"time":81.66046218749983,"velocity":0.4881889763779528,"duration":0.11902193749999412},{"name":"D#4","midi":63,"time":81.78111456249982,"velocity":0.4881889763779528,"duration":0.1353263125000126},{"name":"F4","midi":65,"time":81.91100608333316,"velocity":0.5196850393700787,"duration":0.13315239583334915},{"name":"G4","midi":67,"time":82.03763672916651,"velocity":0.5511811023622047,"duration":0.14184806250000292},{"name":"G#4","midi":68,"time":82.1729630416665,"velocity":0.5826771653543307,"duration":0.13750022916666182},{"name":"F4","midi":65,"time":82.30720239583317,"velocity":0.6141732283464567,"duration":0.12989152083332556},{"name":"C5","midi":72,"time":82.43437652083317,"velocity":0.6535433070866141,"duration":0.1250002083333328},{"name":"D5","midi":74,"time":82.55883324999984,"velocity":0.6850393700787402,"duration":0.12608716666666453},{"name":"D#5","midi":75,"time":82.68383345833317,"velocity":0.7165354330708661,"duration":0.12336977083333522},{"name":"F5","midi":77,"time":82.82133368749983,"velocity":0.7480314960629921,"duration":0.0695653333333297},{"name":"G5","midi":79,"time":82.95611652083316,"velocity":0.7795275590551181,"duration":0.14130458333333706},{"name":"D#5","midi":75,"time":83.0860080416665,"velocity":0.7795275590551181,"duration":0.12989152083332556},{"name":"C5","midi":72,"time":83.21263868749983,"velocity":0.7795275590551181,"duration":0.13858718749999355},{"name":"F5","midi":77,"time":83.34416064583316,"velocity":0.7795275590551181,"duration":0.2505438958333457},{"name":"A4","midi":69,"time":83.48166087499983,"velocity":0.7795275590551181,"duration":0.12391325000000109},{"name":"B4","midi":71,"time":83.6077480416665,"velocity":0.7795275590551181,"duration":0.1451089374999981},{"name":"D#5","midi":75,"time":83.74198739583316,"velocity":0.7795275590551181,"duration":0.13913066666667362},{"name":"C5","midi":72,"time":83.87296587499984,"velocity":0.7795275590551181,"duration":0.1293480416666739},{"name":"A4","midi":69,"time":84.00177043749984,"velocity":0.7795275590551181,"duration":0.13750022916666182},{"name":"D5","midi":74,"time":84.1311184791665,"velocity":0.7795275590551181,"duration":0.1451089374999981},{"name":"F#4","midi":66,"time":84.26264043749984,"velocity":0.7795275590551181,"duration":0.1320654375000032},{"name":"G4","midi":67,"time":84.3870971666665,"velocity":0.7795275590551181,"duration":0.18586987500000873},{"name":"C5","midi":72,"time":84.52459739583318,"velocity":0.7795275590551181,"duration":0.13967414583333948},{"name":"A4","midi":69,"time":84.65829327083318,"velocity":0.7716535433070866,"duration":0.12336977083333522},{"name":"F#4","midi":66,"time":84.77894564583319,"velocity":0.7480314960629921,"duration":0.19293510416666493},{"name":"A#4","midi":70,"time":84.91698935416652,"velocity":0.7244094488188977,"duration":0.14456545833334644},{"name":"D4","midi":62,"time":85.0544895833332,"velocity":0.7007874015748031,"duration":0.13315239583333494},{"name":"D#4","midi":63,"time":85.18003327083319,"velocity":0.6850393700787402,"duration":0.13478283333334673},{"name":"A4","midi":69,"time":85.3088378333332,"velocity":0.6614173228346457,"duration":0.18260899999999936},{"name":"F4","midi":65,"time":85.44144674999987,"velocity":0.6377952755905512,"duration":0.13532631249999838},{"name":"D4","midi":62,"time":85.58166437499987,"velocity":0.6141732283464567,"duration":0.1309784791666715},{"name":"G4","midi":67,"time":85.69633847916654,"velocity":0.5984251968503937,"duration":0.18260899999999936},{"name":"A#3","midi":58,"time":85.82188216666654,"velocity":0.5748031496062992,"duration":0.13695675000001017},{"name":"C4","midi":60,"time":85.95123020833321,"velocity":0.5590551181102362,"duration":0.13967414583333948},{"name":"D4","midi":62,"time":86.08220868749989,"velocity":0.5354330708661418,"duration":0.5885879375000087},{"name":"E4","midi":64,"time":86.60720956249989,"velocity":0.5275590551181102,"duration":0.13315239583333494},{"name":"F#4","midi":66,"time":86.73275324999989,"velocity":0.5275590551181102,"duration":0.13152195833333735},{"name":"G4","midi":67,"time":86.86427520833323,"velocity":0.5275590551181102,"duration":0.13152195833332314},{"name":"A4","midi":69,"time":86.99362324999989,"velocity":0.5275590551181102,"duration":0.14239154166666879},{"name":"A#4","midi":70,"time":87.12568868749989,"velocity":0.5590551181102362,"duration":0.1293480416666597},{"name":"C5","midi":72,"time":87.25775412499988,"velocity":0.5905511811023622,"duration":0.1266306458333304},{"name":"D5","midi":74,"time":87.38275433333321,"velocity":0.6141732283464567,"duration":0.12717412499999625},{"name":"D#5","midi":75,"time":87.50829802083321,"velocity":0.6456692913385826,"duration":0.1293480416666597},{"name":"D5","midi":74,"time":87.63981997916653,"velocity":0.6692913385826772,"duration":0.316848354166666},{"name":"A#5","midi":82,"time":87.90992912499986,"velocity":0.7007874015748031,"duration":0.14619589583332981},{"name":"D#5","midi":75,"time":88.04416847916653,"velocity":0.7165354330708661,"duration":0.1266306458333304},{"name":"D5","midi":74,"time":88.17351652083319,"velocity":0.7244094488188977,"duration":0.12989152083332556},{"name":"C5","midi":72,"time":88.30286456249985,"velocity":0.7322834645669292,"duration":0.13967414583332527},{"name":"A#4","midi":70,"time":88.43873435416651,"velocity":0.7165354330708661,"duration":0.2673917500000016},{"name":"G5","midi":79,"time":88.69851739583318,"velocity":0.7007874015748031,"duration":0.1336958750000008},{"name":"C5","midi":72,"time":88.82895239583318,"velocity":0.6850393700787402,"duration":0.12989152083332556},{"name":"A#4","midi":70,"time":88.96645262499985,"velocity":0.6771653543307087,"duration":0.13478283333333252},{"name":"G#4","midi":68,"time":89.09688762499985,"velocity":0.6692913385826772,"duration":0.12608716666666453},{"name":"G4","midi":67,"time":89.22460522916651,"velocity":0.6614173228346457,"duration":0.26250043750000884},{"name":"D#5","midi":75,"time":89.48221435416652,"velocity":0.6141732283464567,"duration":0.13586979166666424},{"name":"G#4","midi":68,"time":89.61482327083318,"velocity":0.5826771653543307,"duration":0.13586979166666424},{"name":"G4","midi":67,"time":89.74308435416651,"velocity":0.5590551181102362,"duration":0.1309784791666715},{"name":"F4","midi":65,"time":89.87080195833319,"velocity":0.5354330708661418,"duration":0.1364132708333301},{"name":"D#4","midi":63,"time":90.00123695833318,"velocity":0.5118110236220472,"duration":0.13152195833333735},{"name":"C5","midi":72,"time":90.13004152083319,"velocity":0.47244094488188976,"duration":0.12717412499999625},{"name":"D#4","midi":63,"time":90.25558520833319,"velocity":0.47244094488188976,"duration":0.14021762500000534},{"name":"D4","midi":62,"time":90.38710716666652,"velocity":0.47244094488188976,"duration":0.17554377083334316},{"name":"C5","midi":72,"time":90.5164552083332,"velocity":0.47244094488188976,"duration":0.14130458333333706},{"name":"A#4","midi":70,"time":90.64906412499987,"velocity":0.47244094488188976,"duration":0.12336977083333522},{"name":"C4","midi":60,"time":90.7740643333332,"velocity":0.5039370078740157,"duration":0.1989133750000036},{"name":"A#4","midi":70,"time":90.90667324999987,"velocity":0.5196850393700787,"duration":0.19402206249999665},{"name":"A4","midi":69,"time":91.0398256458332,"velocity":0.5354330708661418,"duration":0.12717412499999625},{"name":"D4","midi":62,"time":91.1702606458332,"velocity":0.5511811023622047,"duration":0.20706556250000574},{"name":"C5","midi":72,"time":91.30178260416653,"velocity":0.5669291338582677,"duration":0.13532631249999838},{"name":"A#4","midi":70,"time":91.42678281249987,"velocity":0.5826771653543307,"duration":0.12880456249999384},{"name":"E4","midi":64,"time":91.56047868749987,"velocity":0.6062992125984252,"duration":0.19565249999999423},{"name":"D5","midi":74,"time":91.68602237499987,"velocity":0.6220472440944882,"duration":0.15000024999999084},{"name":"C5","midi":72,"time":91.8224356458332,"velocity":0.6377952755905512,"duration":0.11304366666665544},{"name":"F#4","midi":66,"time":91.94363149999985,"velocity":0.6535433070866141,"duration":0.21413079166666193},{"name":"D#5","midi":75,"time":92.07950129166652,"velocity":0.6692913385826772,"duration":0.18967422916666976},{"name":"D5","midi":74,"time":92.21211020833319,"velocity":0.6929133858267716,"duration":0.1277176041666621},{"name":"G4","midi":67,"time":92.34254520833318,"velocity":0.7086614173228346,"duration":0.19945685416666947},{"name":"C5","midi":72,"time":92.48548022916651,"velocity":0.7244094488188977,"duration":0.13750022916666182},{"name":"A#4","midi":70,"time":92.61319783333317,"velocity":0.7401574803149606,"duration":0.11684802083333068},{"name":"A4","midi":69,"time":92.73819804166651,"velocity":0.7559055118110236,"duration":0.14891329166665912},{"name":"A#4","midi":70,"time":92.8735243541665,"velocity":0.7795275590551181,"duration":0.14293502083333465},{"name":"G4","midi":67,"time":93.0072202291665,"velocity":0.7952755905511811,"duration":0.1320654375000032},{"name":"F#4","midi":66,"time":93.12895956249984,"velocity":0.8110236220472441,"duration":0.13913066666667362},{"name":"D#4","midi":63,"time":93.26048152083318,"velocity":0.8267716535433071,"duration":0.13586979166667845},{"name":"D4","midi":62,"time":93.38819912499986,"velocity":0.84251968503937,"duration":0.12391325000000109},{"name":"G4","midi":67,"time":93.51754716666653,"velocity":0.8582677165354331,"duration":0.14402197916666637},{"name":"D4","midi":62,"time":93.65124304166653,"velocity":0.8740157480314961,"duration":0.1309784791666715},{"name":"C4","midi":60,"time":93.77678672916653,"velocity":0.8976377952755905,"duration":0.1293480416666739},{"name":"A4","midi":69,"time":93.90722172916654,"velocity":0.9133858267716536,"duration":0.1434785000000005},{"name":"D4","midi":62,"time":94.03874368749987,"velocity":0.9212598425196851,"duration":0.1336958750000008},{"name":"C4","midi":60,"time":94.1670047708332,"velocity":0.9212598425196851,"duration":0.13478283333333252},{"name":"A#3","midi":58,"time":94.29743977083321,"velocity":0.9212598425196851,"duration":0.13369587499998659},{"name":"C4","midi":60,"time":94.42896172916653,"velocity":0.9212598425196851,"duration":0.13858718749999355},{"name":"A3","midi":57,"time":94.55830977083319,"velocity":0.9212598425196851,"duration":0.12826108333332797},{"name":"A#3","midi":58,"time":94.68602737499985,"velocity":0.9212598425196851,"duration":0.13315239583333494},{"name":"A3","midi":57,"time":94.83167979166652,"velocity":0.9212598425196851,"duration":0.13532631249999838},{"name":"G3","midi":55,"time":94.94798433333318,"velocity":0.9212598425196851,"duration":0.13750022916666182},{"name":"C4","midi":60,"time":95.08331064583318,"velocity":0.9212598425196851,"duration":0.18097856250000177},{"name":"A3","midi":57,"time":95.20722389583318,"velocity":0.9212598425196851,"duration":0.13858718750000776},{"name":"G3","midi":55,"time":95.33711541666652,"velocity":0.9212598425196851,"duration":0.14619589583332981},{"name":"D4","midi":62,"time":95.47461564583318,"velocity":0.9212598425196851,"duration":0.1434785000000005},{"name":"A3","midi":57,"time":95.60668108333319,"velocity":0.8976377952755905,"duration":0.13804370833332769},{"name":"G3","midi":55,"time":95.73657260416651,"velocity":0.8582677165354331,"duration":0.12989152083332556},{"name":"D#4","midi":63,"time":95.86320324999984,"velocity":0.8188976377952756,"duration":0.1565219999999954},{"name":"A3","midi":57,"time":96.00668174999984,"velocity":0.7716535433070866,"duration":0.13043499999999142},{"name":"G3","midi":55,"time":96.13494283333317,"velocity":0.7244094488188977,"duration":0.12826108333332797},{"name":"F#3","midi":54,"time":96.26048652083317,"velocity":0.7007874015748031,"duration":0.18423943749999694},{"name":"G3","midi":55,"time":96.3887476041665,"velocity":0.7401574803149606,"duration":0.12989152083333977},{"name":"A3","midi":57,"time":96.51863912499984,"velocity":0.7716535433070866,"duration":0.13478283333333252},{"name":"A#3","midi":58,"time":96.64581324999983,"velocity":0.8110236220472441,"duration":0.14021762500000534},{"name":"C4","midi":60,"time":96.77407433333317,"velocity":0.84251968503937,"duration":0.13586979166666424},{"name":"D4","midi":62,"time":96.90124845833317,"velocity":0.8740157480314961,"duration":0.14021762499999113},{"name":"D#4","midi":63,"time":97.0376617291665,"velocity":0.9133858267716536,"duration":0.1391306666666594},{"name":"C4","midi":60,"time":97.16700977083316,"velocity":0.9212598425196851,"duration":0.1293480416666597},{"name":"G4","midi":67,"time":97.30450999999982,"velocity":0.9212598425196851,"duration":0.07608708333333425},{"name":"A4","midi":69,"time":97.43222760416648,"velocity":0.9212598425196851,"duration":0.13152195833333735},{"name":"A#4","midi":70,"time":97.56429304166649,"velocity":0.9212598425196851,"duration":0.13532631249999838},{"name":"C5","midi":72,"time":97.68874977083316,"velocity":0.9212598425196851,"duration":0.14402197916666637},{"name":"D5","midi":74,"time":97.81972824999983,"velocity":0.9212598425196851,"duration":0.1336958750000008},{"name":"A#4","midi":70,"time":97.94798933333315,"velocity":0.9212598425196851,"duration":0.13423935416666666},{"name":"G4","midi":67,"time":98.08005477083316,"velocity":0.9212598425196851,"duration":0.132065437499989},{"name":"C5","midi":72,"time":98.20777237499982,"velocity":0.9212598425196851,"duration":0.2548917291666726},{"name":"E4","midi":64,"time":98.35125087499982,"velocity":0.9212598425196851,"duration":0.1195654166666742},{"name":"F#4","midi":66,"time":98.47407716666649,"velocity":0.9212598425196851,"duration":0.13695674999999596},{"name":"G4","midi":67,"time":98.61212087499982,"velocity":0.9212598425196851,"duration":0.26250043749999463},{"name":"D5","midi":74,"time":98.87136043749982,"velocity":0.9212598425196851,"duration":0.14619589583332981},{"name":"G5","midi":79,"time":99.00614327083315,"velocity":0.9212598425196851,"duration":0.13750022916666182},{"name":"F5","midi":77,"time":99.13386087499981,"velocity":0.9212598425196851,"duration":0.13967414583332527},{"name":"D#5","midi":75,"time":99.26157847916647,"velocity":0.9212598425196851,"duration":0.13967414583332527},{"name":"D5","midi":74,"time":99.3882091249998,"velocity":0.9212598425196851,"duration":0.12010889583332585},{"name":"C5","midi":72,"time":99.51320933333314,"velocity":0.9291338582677166,"duration":0.13315239583333494},{"name":"A#4","midi":70,"time":99.63983997916647,"velocity":0.952755905511811,"duration":0.1978264166666719},{"name":"A4","midi":69,"time":99.77353585416647,"velocity":0.968503937007874,"duration":0.12989152083333977},{"name":"G4","midi":67,"time":99.9066882499998,"velocity":0.9921259842519685,"duration":0.13858718750000776},{"name":"F#4","midi":66,"time":100.03657977083314,"velocity":1,"duration":0.1336958750000008},{"name":"G4","midi":67,"time":100.17081912499981,"velocity":1,"duration":0.14565241666666395},{"name":"D#5","midi":75,"time":100.30397152083314,"velocity":1,"duration":0.17717420833332653},{"name":"D5","midi":74,"time":100.43386304166647,"velocity":0.9921259842519685,"duration":0.1195654166666742},{"name":"A#4","midi":70,"time":100.56158064583315,"velocity":0.9448818897637795,"duration":0.05760879166666655},{"name":"C5","midi":72,"time":100.58984156249981,"velocity":0.937007874015748,"duration":0.07771752083333183},{"name":"A#4","midi":70,"time":100.63821120833315,"velocity":0.9133858267716536,"duration":0.09510885416666781},{"name":"A4","midi":69,"time":100.70886349999981,"velocity":0.889763779527559,"duration":0.12554368749999867},{"name":"G4","midi":67,"time":100.83277674999981,"velocity":0.84251968503937,"duration":0.06467402083333695},{"name":"G4","midi":67,"time":100.96919002083314,"velocity":0.7874015748031497,"duration":0.1293480416666597},{"name":"D4","midi":62,"time":101.09745110416647,"velocity":0.7401574803149606,"duration":0.12391325000000109},{"name":"A#3","midi":58,"time":101.22190783333313,"velocity":0.6929133858267716,"duration":0.13097847916665728},{"name":"G3","midi":55,"time":101.34853847916646,"velocity":0.6456692913385826,"duration":0.2597830416666653},{"name":"A3","midi":57,"time":101.61266935416646,"velocity":0.5433070866141733,"duration":0.13913066666667362},{"name":"F#3","midi":54,"time":101.74636522916646,"velocity":0.5433070866141733,"duration":0.13260891666666907},{"name":"G3","midi":55,"time":101.8762567499998,"velocity":0.5433070866141733,"duration":0.1364132708333301},{"name":"A3","midi":57,"time":102.00723522916645,"velocity":0.5433070866141733,"duration":0.1820655208333335},{"name":"A#3","midi":58,"time":102.13767022916646,"velocity":0.5433070866141733,"duration":0.14239154166665458},{"name":"C4","midi":60,"time":102.26701827083312,"velocity":0.5433070866141733,"duration":0.1250002083333328},{"name":"D4","midi":62,"time":102.39038804166645,"velocity":0.5433070866141733,"duration":0.12119585416665757},{"name":"D#4","midi":63,"time":102.52245347916644,"velocity":0.5433070866141733,"duration":0.12119585416667178},{"name":"C4","midi":60,"time":102.64854064583312,"velocity":0.5433070866141733,"duration":0.13097847916665728},{"name":"G4","midi":67,"time":102.77517129166645,"velocity":0.5433070866141733,"duration":0.13695674999999596},{"name":"A4","midi":69,"time":102.90669324999978,"velocity":0.5433070866141733,"duration":0.1434785000000005},{"name":"A#4","midi":70,"time":103.03712824999978,"velocity":0.5433070866141733,"duration":0.14293502083332044},{"name":"C5","midi":72,"time":103.16919368749977,"velocity":0.5433070866141733,"duration":0.14184806249998871},{"name":"A#4","midi":70,"time":103.29962868749976,"velocity":0.5433070866141733,"duration":0.20380468749999636},{"name":"G4","midi":67,"time":103.43386804166643,"velocity":0.5433070866141733,"duration":0.1309784791666715},{"name":"D4","midi":62,"time":103.55941172916643,"velocity":0.5433070866141733,"duration":0.1864133541666746},{"name":"C5","midi":72,"time":103.69256412499976,"velocity":0.5433070866141733,"duration":0.18315247916667943},{"name":"E4","midi":64,"time":103.82734695833311,"velocity":0.5433070866141733,"duration":0.13858718749999355},{"name":"F#4","midi":66,"time":103.9545210833331,"velocity":0.5433070866141733,"duration":0.14021762499999113},{"name":"G4","midi":67,"time":104.0849560833331,"velocity":0.5433070866141733,"duration":0.14184806250000292},{"name":"E4","midi":64,"time":104.2186519583331,"velocity":0.5433070866141733,"duration":0.13423935416666666},{"name":"F4","midi":65,"time":104.3458260833331,"velocity":0.5433070866141733,"duration":0.1706524583333362},{"name":"E4","midi":64,"time":104.47897847916643,"velocity":0.5433070866141733,"duration":0.12989152083333977},{"name":"C#4","midi":61,"time":104.60941347916643,"velocity":0.5433070866141733,"duration":0.11956541666665998},{"name":"D4","midi":62,"time":104.73332672916642,"velocity":0.5433070866141733,"duration":0.14673937499999568},{"name":"A4","midi":69,"time":104.86702260416642,"velocity":0.5433070866141733,"duration":0.58206618749999},{"name":"G4","midi":67,"time":105.39093652083308,"velocity":0.5433070866141733,"duration":0.13532631249999838},{"name":"F4","midi":65,"time":105.5208280416664,"velocity":0.5433070866141733,"duration":0.1380437083333419},{"name":"G4","midi":67,"time":105.65234999999974,"velocity":0.5433070866141733,"duration":0.5722835625000045},{"name":"F4","midi":65,"time":106.17735087499975,"velocity":0.5433070866141733,"duration":0.13750022916667604},{"name":"E4","midi":64,"time":106.30615543749975,"velocity":0.5433070866141733,"duration":0.1266306458333304},{"name":"D4","midi":62,"time":106.43387304166642,"velocity":0.5433070866141733,"duration":0.13750022916666182},{"name":"E4","midi":64,"time":106.56811239583308,"velocity":0.5433070866141733,"duration":0.1336958750000008},{"name":"F4","midi":65,"time":106.69691695833308,"velocity":0.5433070866141733,"duration":0.1293480416666739},{"name":"E4","midi":64,"time":106.82680847916642,"velocity":0.5433070866141733,"duration":0.13750022916667604},{"name":"A4","midi":69,"time":106.95833043749975,"velocity":0.5433070866141733,"duration":0.1434785000000005},{"name":"G4","midi":67,"time":107.09148283333309,"velocity":0.5433070866141733,"duration":0.1451089374999981},{"name":"F4","midi":65,"time":107.22354827083309,"velocity":0.5433070866141733,"duration":0.13804370833332769},{"name":"E4","midi":64,"time":107.35452674999975,"velocity":0.5433070866141733,"duration":0.12065237500000592},{"name":"D4","midi":62,"time":107.4811573958331,"velocity":0.5433070866141733,"duration":0.1451089374999981},{"name":"A#4","midi":70,"time":107.61757066666642,"velocity":0.5433070866141733,"duration":0.5282617499999986},{"name":"A4","midi":69,"time":108.13224543749976,"velocity":0.5433070866141733,"duration":0.132065437499989},{"name":"G4","midi":67,"time":108.26159347916642,"velocity":0.5433070866141733,"duration":0.13532631249999838},{"name":"A4","midi":69,"time":108.39202847916641,"velocity":0.5433070866141733,"duration":0.1467393750000099},{"name":"G4","midi":67,"time":108.52681131249976,"velocity":0.5433070866141733,"duration":0.12826108333332797},{"name":"F#4","midi":66,"time":108.65398543749976,"velocity":0.5433070866141733,"duration":0.13423935416666666},{"name":"G4","midi":67,"time":108.78659435416643,"velocity":0.5433070866141733,"duration":0.3228266249999905},{"name":"D#5","midi":75,"time":109.04855131249975,"velocity":0.5433070866141733,"duration":0.14239154166666879},{"name":"F4","midi":65,"time":109.18170370833309,"velocity":0.5433070866141733,"duration":0.21521774999999366},{"name":"D5","midi":74,"time":109.44529110416642,"velocity":0.5433070866141733,"duration":0.13586979166667845},{"name":"D#4","midi":63,"time":109.57572610416642,"velocity":0.5433070866141733,"duration":0.12554368749999867},{"name":"D4","midi":62,"time":109.69963935416642,"velocity":0.5433070866141733,"duration":0.13586979166666424},{"name":"C4","midi":60,"time":109.83387870833309,"velocity":0.5433070866141733,"duration":0.1222828125000035},{"name":"D4","midi":62,"time":109.96485718749976,"velocity":0.5433070866141733,"duration":0.12445672916666695},{"name":"C4","midi":60,"time":110.09148783333309,"velocity":0.5433070866141733,"duration":0.13315239583333494},{"name":"A#3","midi":58,"time":110.22246631249976,"velocity":0.5433070866141733,"duration":0.14293502083332044},{"name":"C4","midi":60,"time":110.35181435416642,"velocity":0.5433070866141733,"duration":0.20163077083333292},{"name":"A4","midi":69,"time":110.6067060833331,"velocity":0.5433070866141733,"duration":0.13804370833332769},{"name":"A#3","midi":58,"time":110.7404019583331,"velocity":0.5433070866141733,"duration":0.2527178124999949},{"name":"G4","midi":67,"time":110.99746760416642,"velocity":0.5433070866141733,"duration":0.1364132708333443},{"name":"F#4","midi":66,"time":111.12735912499976,"velocity":0.5590551181102362,"duration":0.1364132708333301},{"name":"G4","midi":67,"time":111.26051152083309,"velocity":0.5826771653543307,"duration":0.1347828333333183},{"name":"A4","midi":69,"time":111.39094652083308,"velocity":0.5984251968503937,"duration":0.14402197916666637},{"name":"A#4","midi":70,"time":111.52681631249975,"velocity":0.6220472440944882,"duration":0.12282629166666936},{"name":"C5","midi":72,"time":111.65562087499976,"velocity":0.6377952755905512,"duration":0.1353263125000126},{"name":"D5","midi":74,"time":111.78605587499976,"velocity":0.6614173228346457,"duration":0.1353263125000126},{"name":"D#5","midi":75,"time":111.9143169583331,"velocity":0.6771653543307087,"duration":0.1293480416666739},{"name":"C5","midi":72,"time":112.04529543749977,"velocity":0.7007874015748031,"duration":0.1434785000000005},{"name":"G5","midi":79,"time":112.1898608958331,"velocity":0.7244094488188977,"duration":0.1293480416666597},{"name":"A5","midi":81,"time":112.30942631249977,"velocity":0.7401574803149606,"duration":0.11956541666665998},{"name":"A#5","midi":82,"time":112.42573085416643,"velocity":0.7559055118110236,"duration":0.18152204166666763},{"name":"C6","midi":84,"time":112.56105716666643,"velocity":0.7795275590551181,"duration":0.14130458333333706},{"name":"A#5","midi":82,"time":112.6920356458331,"velocity":0.7952755905511811,"duration":0.2059786041666598},{"name":"G5","midi":79,"time":112.8273619583331,"velocity":0.8188976377952756,"duration":0.12880456249999384},{"name":"D5","midi":74,"time":112.95399260416643,"velocity":0.8346456692913385,"duration":0.13260891666665486},{"name":"C6","midi":84,"time":113.08334064583309,"velocity":0.8582677165354331,"duration":0.140761104166657},{"name":"E5","midi":76,"time":113.21486260416641,"velocity":0.8582677165354331,"duration":0.13478283333333252},{"name":"F#5","midi":78,"time":113.34149324999974,"velocity":0.8503937007874016,"duration":0.18369595833333108},{"name":"G5","midi":79,"time":113.47518912499974,"velocity":0.84251968503937,"duration":0.1320654375000032},{"name":"D5","midi":74,"time":113.60834152083308,"velocity":0.8346456692913385,"duration":0.13260891666666907},{"name":"D#5","midi":75,"time":113.73605912499974,"velocity":0.8267716535433071,"duration":0.13913066666667362},{"name":"F5","midi":77,"time":113.86649412499975,"velocity":0.8188976377952756,"duration":0.14565241666666395},{"name":"C5","midi":72,"time":114.00345087499974,"velocity":0.8110236220472441,"duration":0.13586979166667845},{"name":"D5","midi":74,"time":114.13225543749975,"velocity":0.8031496062992126,"duration":0.18097856250000177},{"name":"D#5","midi":75,"time":114.26432087499975,"velocity":0.8031496062992126,"duration":0.29673962500000073},{"name":"F5","midi":77,"time":114.65834327083309,"velocity":0.7401574803149606,"duration":0.07554360416666839},{"name":"E5","midi":76,"time":114.73606079166642,"velocity":0.7244094488188977,"duration":0.05815227083333241},{"name":"F5","midi":77,"time":114.79801741666641,"velocity":0.7165354330708661,"duration":0.04130441666666229},{"name":"E5","midi":76,"time":114.85453924999975,"velocity":0.7086614173228346,"duration":0.06358706249999102},{"name":"F5","midi":77,"time":114.8974741041664,"velocity":0.7007874015748031,"duration":0.0836957916666563},{"name":"E5","midi":76,"time":114.9773655416664,"velocity":0.6929133858267716,"duration":0.06467402083332274},{"name":"F5","midi":77,"time":115.05671349999973,"velocity":0.6771653543307087,"duration":0.11902193749999412},{"name":"C5","midi":72,"time":115.18008327083305,"velocity":0.6614173228346457,"duration":0.12010889583334006},{"name":"D5","midi":74,"time":115.30127912499972,"velocity":0.6377952755905512,"duration":0.1293480416666597},{"name":"D#5","midi":75,"time":115.43062716666638,"velocity":0.6220472440944882,"duration":0.1222828125000035},{"name":"A#4","midi":70,"time":115.55562737499972,"velocity":0.5984251968503937,"duration":0.13750022916667604},{"name":"C5","midi":72,"time":115.68551889583306,"velocity":0.5826771653543307,"duration":0.13858718750000776},{"name":"D5","midi":74,"time":115.81323649999973,"velocity":0.5590551181102362,"duration":0.13315239583333494},{"name":"A4","midi":69,"time":115.95019324999973,"velocity":0.5433070866141733,"duration":0.1277176041666621},{"name":"A#4","midi":70,"time":116.07519345833306,"velocity":0.5196850393700787,"duration":0.13369587499998659},{"name":"C5","midi":72,"time":116.20562845833305,"velocity":0.5039370078740157,"duration":0.14184806250000292},{"name":"G4","midi":67,"time":116.34258520833305,"velocity":0.4881889763779528,"duration":0.1451089375000123},{"name":"A4","midi":69,"time":116.48008543749972,"velocity":0.4881889763779528,"duration":0.13043499999999142},{"name":"A#4","midi":70,"time":116.60671608333305,"velocity":0.4881889763779528,"duration":0.25108737499999734},{"name":"G5","midi":79,"time":116.86649912499972,"velocity":0.4881889763779528,"duration":0.12608716666666453},{"name":"G#4","midi":68,"time":117.00236891666638,"velocity":0.4881889763779528,"duration":0.257065645833336},{"name":"F5","midi":77,"time":117.26269543749972,"velocity":0.4881889763779528,"duration":0.1277176041666621},{"name":"G4","midi":67,"time":117.39258695833304,"velocity":0.4881889763779528,"duration":0.27065262499999676},{"name":"D#5","midi":75,"time":117.65617435416637,"velocity":0.4881889763779528,"duration":0.13695675000001017},{"name":"F4","midi":65,"time":117.78552239583304,"velocity":0.4881889763779528,"duration":0.253261291666675},{"name":"D5","midi":74,"time":118.04856631249972,"velocity":0.4881889763779528,"duration":0.13586979166666424},{"name":"D#4","midi":63,"time":118.18063174999972,"velocity":0.4881889763779528,"duration":0.14130458333332285},{"name":"F4","midi":65,"time":118.31215370833304,"velocity":0.4881889763779528,"duration":0.1336958750000008},{"name":"G4","midi":67,"time":118.44204522916638,"velocity":0.4881889763779528,"duration":0.13423935416666666},{"name":"D4","midi":62,"time":118.56976283333304,"velocity":0.4881889763779528,"duration":0.1336958750000008},{"name":"D#4","midi":63,"time":118.70074131249972,"velocity":0.4881889763779528,"duration":0.13152195833332314},{"name":"C4","midi":60,"time":118.82791543749971,"velocity":0.4881889763779528,"duration":0.13043499999999142},{"name":"B3","midi":59,"time":118.9599808749997,"velocity":0.4881889763779528,"duration":0.1336958750000008},{"name":"C4","midi":60,"time":119.09150283333304,"velocity":0.4881889763779528,"duration":0.1364132708333301},{"name":"D4","midi":62,"time":119.2257421874997,"velocity":0.4881889763779528,"duration":0.11902193749999412},{"name":"D#4","midi":63,"time":119.3463945624997,"velocity":0.4881889763779528,"duration":0.1353263125000126},{"name":"F4","midi":65,"time":119.47628608333304,"velocity":0.5196850393700787,"duration":0.13315239583334915},{"name":"G4","midi":67,"time":119.60291672916638,"velocity":0.5511811023622047,"duration":0.14184806250000292},{"name":"G#4","midi":68,"time":119.73824304166638,"velocity":0.5826771653543307,"duration":0.13750022916666182},{"name":"F4","midi":65,"time":119.87248239583305,"velocity":0.6141732283464567,"duration":0.12989152083332556},{"name":"C5","midi":72,"time":119.99965652083304,"velocity":0.6535433070866141,"duration":0.1250002083333328},{"name":"D5","midi":74,"time":120.12411324999971,"velocity":0.6850393700787402,"duration":0.12608716666666453},{"name":"D#5","midi":75,"time":120.24911345833304,"velocity":0.7165354330708661,"duration":0.12336977083333522},{"name":"F5","midi":77,"time":120.3866136874997,"velocity":0.7480314960629921,"duration":0.0695653333333297},{"name":"G5","midi":79,"time":120.52139652083304,"velocity":0.7795275590551181,"duration":0.14130458333333706},{"name":"D#5","midi":75,"time":120.65128804166638,"velocity":0.7795275590551181,"duration":0.12989152083332556},{"name":"C5","midi":72,"time":120.7779186874997,"velocity":0.7795275590551181,"duration":0.13858718749999355},{"name":"F5","midi":77,"time":120.90944064583303,"velocity":0.7795275590551181,"duration":0.2505438958333457},{"name":"A4","midi":69,"time":121.0469408749997,"velocity":0.7795275590551181,"duration":0.12391325000000109},{"name":"B4","midi":71,"time":121.17302804166637,"velocity":0.7795275590551181,"duration":0.1451089374999981},{"name":"D#5","midi":75,"time":121.30726739583304,"velocity":0.7795275590551181,"duration":0.13913066666667362},{"name":"C5","midi":72,"time":121.43824587499971,"velocity":0.7795275590551181,"duration":0.1293480416666739},{"name":"A4","midi":69,"time":121.56705043749972,"velocity":0.7795275590551181,"duration":0.13750022916666182},{"name":"D5","midi":74,"time":121.69639847916638,"velocity":0.7795275590551181,"duration":0.1451089374999981},{"name":"F#4","midi":66,"time":121.82792043749971,"velocity":0.7795275590551181,"duration":0.1320654375000032},{"name":"G4","midi":67,"time":121.95237716666638,"velocity":0.7795275590551181,"duration":0.18586987500000873},{"name":"C5","midi":72,"time":122.08987739583306,"velocity":0.7795275590551181,"duration":0.13967414583333948},{"name":"A4","midi":69,"time":122.22357327083306,"velocity":0.7716535433070866,"duration":0.12336977083333522},{"name":"F#4","midi":66,"time":122.34422564583306,"velocity":0.7480314960629921,"duration":0.19293510416666493},{"name":"A#4","midi":70,"time":122.48226935416639,"velocity":0.7244094488188977,"duration":0.14456545833334644},{"name":"D4","midi":62,"time":122.61976958333307,"velocity":0.7007874015748031,"duration":0.13315239583333494},{"name":"D#4","midi":63,"time":122.74531327083307,"velocity":0.6850393700787402,"duration":0.13478283333334673},{"name":"A4","midi":69,"time":122.87411783333307,"velocity":0.6614173228346457,"duration":0.18260899999999936},{"name":"F4","midi":65,"time":123.00672674999974,"velocity":0.6377952755905512,"duration":0.13532631249999838},{"name":"D4","midi":62,"time":123.14694437499975,"velocity":0.6141732283464567,"duration":0.1309784791666715},{"name":"G4","midi":67,"time":123.26161847916642,"velocity":0.5984251968503937,"duration":0.18260899999999936},{"name":"A#3","midi":58,"time":123.38716216666641,"velocity":0.5748031496062992,"duration":0.13695675000001017},{"name":"C4","midi":60,"time":123.51651020833309,"velocity":0.5590551181102362,"duration":0.13967414583333948},{"name":"D4","midi":62,"time":123.64748868749976,"velocity":0.5354330708661418,"duration":0.5885879375000087},{"name":"E4","midi":64,"time":124.17248956249976,"velocity":0.5275590551181102,"duration":0.13315239583333494},{"name":"F#4","midi":66,"time":124.29803324999976,"velocity":0.5275590551181102,"duration":0.13152195833333735},{"name":"G4","midi":67,"time":124.4295552083331,"velocity":0.5275590551181102,"duration":0.13152195833332314},{"name":"A4","midi":69,"time":124.55890324999976,"velocity":0.5275590551181102,"duration":0.14239154166666879},{"name":"A#4","midi":70,"time":124.69096868749976,"velocity":0.5590551181102362,"duration":0.1293480416666597},{"name":"C5","midi":72,"time":124.82303412499975,"velocity":0.5905511811023622,"duration":0.1266306458333304},{"name":"D5","midi":74,"time":124.94803433333308,"velocity":0.6141732283464567,"duration":0.12717412499999625},{"name":"D#5","midi":75,"time":125.07357802083308,"velocity":0.6456692913385826,"duration":0.1293480416666597},{"name":"D5","midi":74,"time":125.2050999791664,"velocity":0.6692913385826772,"duration":0.316848354166666},{"name":"A#5","midi":82,"time":125.47520912499974,"velocity":0.7007874015748031,"duration":0.14619589583332981},{"name":"D#5","midi":75,"time":125.6094484791664,"velocity":0.7165354330708661,"duration":0.1266306458333304},{"name":"D5","midi":74,"time":125.73879652083306,"velocity":0.7244094488188977,"duration":0.12989152083332556},{"name":"C5","midi":72,"time":125.86814456249972,"velocity":0.7322834645669292,"duration":0.13967414583332527},{"name":"A#4","midi":70,"time":126.00401435416639,"velocity":0.7165354330708661,"duration":0.2673917500000016},{"name":"G5","midi":79,"time":126.26379739583305,"velocity":0.7007874015748031,"duration":0.1336958750000008},{"name":"C5","midi":72,"time":126.39423239583306,"velocity":0.6850393700787402,"duration":0.12989152083332556},{"name":"A#4","midi":70,"time":126.53173262499972,"velocity":0.6771653543307087,"duration":0.13478283333333252},{"name":"G#4","midi":68,"time":126.66216762499973,"velocity":0.6692913385826772,"duration":0.12608716666666453},{"name":"G4","midi":67,"time":126.78988522916639,"velocity":0.6614173228346457,"duration":0.26250043750000884},{"name":"D#5","midi":75,"time":127.04749435416639,"velocity":0.6141732283464567,"duration":0.13586979166666424},{"name":"G#4","midi":68,"time":127.18010327083306,"velocity":0.5826771653543307,"duration":0.13586979166666424},{"name":"G4","midi":67,"time":127.30836435416639,"velocity":0.5590551181102362,"duration":0.1309784791666715},{"name":"F4","midi":65,"time":127.43608195833306,"velocity":0.5354330708661418,"duration":0.1364132708333301},{"name":"D#4","midi":63,"time":127.56651695833305,"velocity":0.5118110236220472,"duration":0.13152195833333735},{"name":"C5","midi":72,"time":127.69532152083306,"velocity":0.47244094488188976,"duration":0.12717412499999625},{"name":"D#4","midi":63,"time":127.82086520833306,"velocity":0.47244094488188976,"duration":0.14021762500000534},{"name":"D4","midi":62,"time":127.9523871666664,"velocity":0.47244094488188976,"duration":0.17554377083334316},{"name":"C5","midi":72,"time":128.08173520833307,"velocity":0.47244094488188976,"duration":0.14130458333332285},{"name":"A#4","midi":70,"time":128.21434412499974,"velocity":0.47244094488188976,"duration":0.1233697708333068},{"name":"C4","midi":60,"time":128.33934433333306,"velocity":0.5039370078740157,"duration":0.1989133749999894},{"name":"A#4","midi":70,"time":128.47195324999973,"velocity":0.5196850393700787,"duration":0.19402206249998244},{"name":"A4","midi":69,"time":128.60510564583305,"velocity":0.5354330708661418,"duration":0.12717412499998204},{"name":"D4","midi":62,"time":128.73554064583303,"velocity":0.5511811023622047,"duration":0.20706556249999153},{"name":"C5","midi":72,"time":128.86706260416636,"velocity":0.5669291338582677,"duration":0.13532631249998417},{"name":"A#4","midi":70,"time":128.99206281249968,"velocity":0.5826771653543307,"duration":0.12880456249999384},{"name":"E4","midi":64,"time":129.12575868749968,"velocity":0.6062992125984252,"duration":0.19565249999999423},{"name":"D5","midi":74,"time":129.25130237499968,"velocity":0.6220472440944882,"duration":0.15000024999997663},{"name":"C5","midi":72,"time":129.387715645833,"velocity":0.6377952755905512,"duration":0.11304366666666965},{"name":"F#4","midi":66,"time":129.50891149999967,"velocity":0.6535433070866141,"duration":0.21413079166666193},{"name":"D#5","midi":75,"time":129.64478129166633,"velocity":0.6692913385826772,"duration":0.18967422916665555},{"name":"D5","midi":74,"time":129.777390208333,"velocity":0.6929133858267716,"duration":0.1277176041666621},{"name":"G4","midi":67,"time":129.907825208333,"velocity":0.7086614173228346,"duration":0.19945685416666947},{"name":"C5","midi":72,"time":130.05076022916634,"velocity":0.7244094488188977,"duration":0.13750022916667604},{"name":"A#4","midi":70,"time":130.178477833333,"velocity":0.7401574803149606,"duration":0.11684802083334489},{"name":"A4","midi":69,"time":130.30347804166635,"velocity":0.7559055118110236,"duration":0.14891329166667333},{"name":"A#4","midi":70,"time":130.43880435416636,"velocity":0.7795275590551181,"duration":0.14293502083333465},{"name":"G4","midi":67,"time":130.57250022916637,"velocity":0.7952755905511811,"duration":0.132065437499989},{"name":"F#4","midi":66,"time":130.6942395624997,"velocity":0.8110236220472441,"duration":0.1391306666666594},{"name":"D#4","midi":63,"time":130.82576152083303,"velocity":0.8267716535433071,"duration":0.13586979166666424},{"name":"D4","midi":62,"time":130.9534791249997,"velocity":0.84251968503937,"duration":0.1239132500000153},{"name":"G4","midi":67,"time":131.08282716666636,"velocity":0.8582677165354331,"duration":0.14402197916666637},{"name":"D4","midi":62,"time":131.21652304166636,"velocity":0.8740157480314961,"duration":0.13097847916665728},{"name":"C4","midi":60,"time":131.34206672916636,"velocity":0.8976377952755905,"duration":0.12934804166664549},{"name":"A4","midi":69,"time":131.47250172916634,"velocity":0.9133858267716536,"duration":0.14347850000001472},{"name":"D4","midi":62,"time":131.60402368749968,"velocity":0.9212598425196851,"duration":0.1336958750000008},{"name":"C4","midi":60,"time":131.73228477083302,"velocity":0.9212598425196851,"duration":0.13478283333333252},{"name":"A#3","midi":58,"time":131.86271977083302,"velocity":0.9212598425196851,"duration":0.1336958750000008},{"name":"C4","midi":60,"time":131.99424172916636,"velocity":0.9212598425196851,"duration":0.13858718750000776},{"name":"A3","midi":57,"time":132.12358977083304,"velocity":0.9212598425196851,"duration":0.12826108333334219},{"name":"A#3","midi":58,"time":132.2513073749997,"velocity":0.9212598425196851,"duration":0.13315239583334915},{"name":"A3","midi":57,"time":132.39695979166638,"velocity":0.9212598425196851,"duration":0.13532631249998417},{"name":"G3","midi":55,"time":132.51326433333304,"velocity":0.9212598425196851,"duration":0.13750022916664761},{"name":"C4","midi":60,"time":132.64859064583302,"velocity":0.9212598425196851,"duration":0.18097856249997335},{"name":"A3","midi":57,"time":132.772503895833,"velocity":0.9212598425196851,"duration":0.13858718749997934},{"name":"G3","midi":55,"time":132.90239541666634,"velocity":0.9212598425196851,"duration":0.1461958958333014},{"name":"D4","midi":62,"time":133.03989564583298,"velocity":0.9212598425196851,"duration":0.1434784999999863},{"name":"A3","midi":57,"time":133.17196108333297,"velocity":0.8976377952755905,"duration":0.13804370833332769},{"name":"G3","midi":55,"time":133.3018526041663,"velocity":0.8582677165354331,"duration":0.12989152083332556},{"name":"D#4","midi":63,"time":133.42848324999963,"velocity":0.8188976377952756,"duration":0.1565219999999954},{"name":"A3","midi":57,"time":133.57196174999962,"velocity":0.7716535433070866,"duration":0.13043500000000563},{"name":"G3","midi":55,"time":133.70022283333296,"velocity":0.7244094488188977,"duration":0.12826108333334219},{"name":"F#3","midi":54,"time":133.82576652083296,"velocity":0.7007874015748031,"duration":0.18423943749999694},{"name":"G3","midi":55,"time":133.9540276041663,"velocity":0.7401574803149606,"duration":0.12989152083332556},{"name":"A3","midi":57,"time":134.08391912499962,"velocity":0.7716535433070866,"duration":0.13478283333333252},{"name":"A#3","midi":58,"time":134.21109324999964,"velocity":0.8110236220472441,"duration":0.14021762499999113},{"name":"C4","midi":60,"time":134.33935433333295,"velocity":0.84251968503937,"duration":0.13586979166666424},{"name":"D4","midi":62,"time":134.46652845833296,"velocity":0.8740157480314961,"duration":0.14021762499999113},{"name":"D#4","midi":63,"time":134.60294172916628,"velocity":0.9133858267716536,"duration":0.13913066666668783},{"name":"C4","midi":60,"time":134.73228977083295,"velocity":0.9212598425196851,"duration":0.1293480416666739},{"name":"G4","midi":67,"time":134.86978999999963,"velocity":0.9212598425196851,"duration":0.07608708333333425},{"name":"A4","midi":69,"time":134.9975076041663,"velocity":0.9212598425196851,"duration":0.13152195833333735},{"name":"A#4","midi":70,"time":135.1295730416663,"velocity":0.9212598425196851,"duration":0.1353263125000126},{"name":"C5","midi":72,"time":135.25402977083297,"velocity":0.9212598425196851,"duration":0.1440219791666948},{"name":"D5","midi":74,"time":135.38500824999966,"velocity":0.9212598425196851,"duration":0.1336958750000008},{"name":"A#4","midi":70,"time":135.513269333333,"velocity":0.9212598425196851,"duration":0.13423935416665245},{"name":"G4","midi":67,"time":135.645334770833,"velocity":0.9212598425196851,"duration":0.132065437499989},{"name":"C5","midi":72,"time":135.77305237499965,"velocity":0.9212598425196851,"duration":0.25489172916664415},{"name":"E4","midi":64,"time":135.91653087499964,"velocity":0.9212598425196851,"duration":0.11956541666665998},{"name":"F#4","midi":66,"time":136.0393571666663,"velocity":0.9212598425196851,"duration":0.13695674999999596},{"name":"G4","midi":67,"time":136.17740087499962,"velocity":0.9212598425196851,"duration":0.26250043749999463},{"name":"D5","midi":74,"time":136.43664043749962,"velocity":0.9212598425196851,"duration":0.14619589583332981},{"name":"G5","midi":79,"time":136.57142327083295,"velocity":0.9212598425196851,"duration":0.13750022916667604},{"name":"F5","midi":77,"time":136.6991408749996,"velocity":0.9212598425196851,"duration":0.1396741458333679},{"name":"D#5","midi":75,"time":136.8268584791663,"velocity":0.9212598425196851,"duration":0.13967414583333948},{"name":"D5","midi":74,"time":136.95348912499963,"velocity":0.9212598425196851,"duration":0.12010889583334006},{"name":"C5","midi":72,"time":137.07848933333298,"velocity":0.9291338582677166,"duration":0.13315239583332072},{"name":"A#4","midi":70,"time":137.2051199791663,"velocity":0.952755905511811,"duration":0.19782641666665768},{"name":"A4","midi":69,"time":137.3388158541663,"velocity":0.968503937007874,"duration":0.12989152083332556},{"name":"G4","midi":67,"time":137.47196824999963,"velocity":0.9921259842519685,"duration":0.13858718749997934},{"name":"F#4","midi":66,"time":137.60185977083296,"velocity":1,"duration":0.1336958750000008},{"name":"G4","midi":67,"time":137.73609912499964,"velocity":1,"duration":0.14565241666664974},{"name":"D#5","midi":75,"time":137.86925152083296,"velocity":1,"duration":0.17717420833332653},{"name":"D5","midi":74,"time":137.9991430416663,"velocity":1,"duration":0.11956541666665998},{"name":"A#4","midi":70,"time":138.12686064583295,"velocity":1,"duration":0.05760879166666655},{"name":"C5","midi":72,"time":138.1551215624996,"velocity":1,"duration":0.07771752083334604},{"name":"A#4","midi":70,"time":138.20349120833293,"velocity":1,"duration":0.09510885416668202},{"name":"A4","midi":69,"time":138.2741434999996,"velocity":1,"duration":0.1255436875000271},{"name":"G4","midi":67,"time":138.39805674999963,"velocity":1,"duration":0.06467402083333695},{"name":"G4","midi":67,"time":138.53447002083297,"velocity":1,"duration":0.1293480416666739},{"name":"D4","midi":62,"time":138.6627311041663,"velocity":1,"duration":0.12391324999998687},{"name":"A#3","midi":58,"time":138.78718783333298,"velocity":1,"duration":0.13097847916665728},{"name":"G3","midi":55,"time":138.9138184791663,"velocity":1,"duration":0.2597830416666511}],"controlChanges":{"7":[{"number":7,"time":0,"value":0.905511811023622}],"10":[{"number":10,"time":0,"value":0.6299212598425197}],"91":[{"number":91,"time":0,"value":1}],"121":[{"number":121,"time":0,"value":1},{"number":121,"time":139.30457999999962,"value":1}]},"id":1,"name":"Piano 1","instrumentNumber":6,"instrument":"harpsichord","instrumentFamily":"piano","channelNumber":0,"isPercussion":false},{"startTime":4.558703250000001,"duration":139.18827545833335,"length":760,"notes":[{"name":"G4","midi":67,"time":4.558703250000001,"velocity":0.7322834645669292,"duration":0.14782633333333361},{"name":"A#4","midi":70,"time":4.694029562500001,"velocity":0.7244094488188977,"duration":0.140217625},{"name":"A4","midi":69,"time":4.823377604166668,"velocity":0.7244094488188977,"duration":0.1336958749999999},{"name":"G4","midi":67,"time":4.953812604166668,"velocity":0.7244094488188977,"duration":0.14021762499999912},{"name":"F4","midi":65,"time":5.084247604166667,"velocity":0.7244094488188977,"duration":0.14184806249999937},{"name":"E4","midi":64,"time":5.2157695625,"velocity":0.7244094488188977,"duration":0.11739150000000009},{"name":"D4","midi":62,"time":5.3396828125,"velocity":0.7244094488188977,"duration":0.1326089166666664},{"name":"C#4","midi":61,"time":5.4684873750000005,"velocity":0.7244094488188977,"duration":0.2565221666666666},{"name":"E4","midi":64,"time":5.601639770833334,"velocity":0.7244094488188977,"duration":0.12119585416666645},{"name":"A3","midi":57,"time":5.727183458333334,"velocity":0.7244094488188977,"duration":0.14184806249999937},{"name":"G3","midi":55,"time":5.8597923750000005,"velocity":0.7244094488188977,"duration":0.14836981249999948},{"name":"F3","midi":53,"time":5.9951186875,"velocity":0.7244094488188977,"duration":0.12880456250000005},{"name":"E3","midi":52,"time":6.1222928125,"velocity":0.7244094488188977,"duration":0.1369567500000004},{"name":"F3","midi":53,"time":6.2527278125,"velocity":0.7244094488188977,"duration":0.14619589583333337},{"name":"A3","midi":57,"time":6.3864236875,"velocity":0.7322834645669292,"duration":0.1413045833333335},{"name":"D4","midi":62,"time":6.516315208333333,"velocity":0.7322834645669292,"duration":0.1271741249999998},{"name":"E3","midi":52,"time":6.647837166666666,"velocity":0.7322834645669292,"duration":0.1413045833333335},{"name":"D4","midi":62,"time":6.780446083333333,"velocity":0.7322834645669292,"duration":0.13532631250000016},{"name":"C#4","midi":61,"time":6.909250645833333,"velocity":0.7322834645669292,"duration":0.1347828333333334},{"name":"D4","midi":62,"time":7.040229125,"velocity":0.7322834645669292,"duration":0.5271747916666669},{"name":"E4","midi":64,"time":7.5603386875,"velocity":0.7322834645669292,"duration":0.14782633333333361},{"name":"F4","midi":65,"time":7.6967519583333335,"velocity":0.7322834645669292,"duration":0.1282610833333333},{"name":"E4","midi":64,"time":7.823926083333333,"velocity":0.7322834645669292,"duration":0.5701096458333339},{"name":"F#4","midi":66,"time":8.34784,"velocity":0.6614173228346457,"duration":0.13641327083333543},{"name":"G4","midi":67,"time":8.475014125000001,"velocity":0.6456692913385826,"duration":0.1413045833333335},{"name":"A4","midi":69,"time":8.606536083333335,"velocity":0.6299212598425197,"duration":0.140217625},{"name":"G4","midi":67,"time":8.737514562500001,"velocity":0.6062992125984252,"duration":0.13423935416666666},{"name":"F#4","midi":66,"time":8.866862604166668,"velocity":0.5905511811023622,"duration":0.13641327083333188},{"name":"G4","midi":67,"time":8.994580208333334,"velocity":0.5905511811023622,"duration":0.1951090208333337},{"name":"F#4","midi":66,"time":9.131536958333333,"velocity":0.5905511811023622,"duration":0.1380437083333348},{"name":"E4","midi":64,"time":9.264145875,"velocity":0.5905511811023622,"duration":0.1347828333333343},{"name":"F#4","midi":66,"time":9.390776520833334,"velocity":0.5905511811023622,"duration":0.1994568541666677},{"name":"E4","midi":64,"time":9.527189791666668,"velocity":0.5905511811023622,"duration":0.12663064583333394},{"name":"D4","midi":62,"time":9.651646520833335,"velocity":0.5905511811023622,"duration":0.13967414583333415},{"name":"E4","midi":64,"time":9.782081520833335,"velocity":0.5905511811023622,"duration":0.13750022916666715},{"name":"G4","midi":67,"time":9.912516520833336,"velocity":0.5905511811023622,"duration":0.12445672916666695},{"name":"D4","midi":62,"time":10.041321083333337,"velocity":0.6692913385826772,"duration":0.1413045833333335},{"name":"D#4","midi":63,"time":10.17284304166667,"velocity":0.6692913385826772,"duration":0.17934812499999886},{"name":"D4","midi":62,"time":10.303821520833337,"velocity":0.6771653543307087,"duration":0.13315239583333138},{"name":"C4","midi":60,"time":10.434256520833335,"velocity":0.6850393700787402,"duration":0.140217625},{"name":"A#3","midi":58,"time":10.563604562500002,"velocity":0.6850393700787402,"duration":0.1434785000000005},{"name":"A3","midi":57,"time":10.692952604166669,"velocity":0.6929133858267716,"duration":0.12228281249999995},{"name":"G3","midi":55,"time":10.821757166666668,"velocity":0.7007874015748031,"duration":0.1391306666666665},{"name":"F#3","midi":54,"time":10.9516486875,"velocity":0.7007874015748031,"duration":0.2673917500000016},{"name":"A3","midi":57,"time":11.087518479166668,"velocity":0.7086614173228346,"duration":0.12228281249999995},{"name":"D3","midi":50,"time":11.217953479166669,"velocity":0.7165354330708661,"duration":0.12880456250000094},{"name":"C3","midi":48,"time":11.348931958333337,"velocity":0.7244094488188977,"duration":0.13369587499999902},{"name":"A#2","midi":46,"time":11.476106083333336,"velocity":0.7401574803149606,"duration":0.13097847916666616},{"name":"A2","midi":45,"time":11.602736729166669,"velocity":0.7480314960629921,"duration":0.13695674999999952},{"name":"A#2","midi":46,"time":11.733171729166669,"velocity":0.7559055118110236,"duration":0.1885872708333327},{"name":"D3","midi":50,"time":11.867411083333335,"velocity":0.7637795275590551,"duration":0.140217625},{"name":"G3","midi":55,"time":11.996759125000002,"velocity":0.7716535433070866,"duration":0.142391541666667},{"name":"A2","midi":45,"time":12.12936804166667,"velocity":0.7795275590551181,"duration":0.1896742291666662},{"name":"G3","midi":55,"time":12.267411750000003,"velocity":0.7874015748031497,"duration":0.13641327083333366},{"name":"F#3","midi":54,"time":12.395672833333336,"velocity":0.7952755905511811,"duration":0.13206543749999966},{"name":"G3","midi":55,"time":12.526651312500002,"velocity":0.8110236220472441,"duration":0.13750022916666715},{"name":"A#3","midi":58,"time":12.65436891666667,"velocity":0.8188976377952756,"duration":0.1304350000000003},{"name":"A3","midi":57,"time":12.780456083333336,"velocity":0.8267716535433071,"duration":0.1842394375000005},{"name":"A#3","midi":58,"time":12.914151958333337,"velocity":0.8346456692913385,"duration":0.13750022916666538},{"name":"D4","midi":62,"time":13.042956520833336,"velocity":0.84251968503937,"duration":0.1315219583333338},{"name":"C4","midi":60,"time":13.170130645833336,"velocity":0.84251968503937,"duration":0.18478291666666813},{"name":"D4","midi":62,"time":13.306000437500003,"velocity":0.84251968503937,"duration":0.5353269791666673},{"name":"A3","midi":57,"time":13.82991435416667,"velocity":0.84251968503937,"duration":0.13315239583333316},{"name":"D3","midi":50,"time":13.958175437500003,"velocity":0.84251968503937,"duration":0.1304350000000003},{"name":"D#3","midi":51,"time":14.093501750000003,"velocity":0.84251968503937,"duration":0.13750022916666715},{"name":"G3","midi":55,"time":14.21795847916667,"velocity":0.8267716535433071,"duration":0.19782641666666656},{"name":"F3","midi":53,"time":14.35817610416667,"velocity":0.8110236220472441,"duration":0.1108697499999991},{"name":"G3","midi":55,"time":14.479371958333337,"velocity":0.8031496062992126,"duration":0.1326089166666673},{"name":"A#3","midi":58,"time":14.60600260416667,"velocity":0.7874015748031497,"duration":0.12336977083333345},{"name":"A3","midi":57,"time":14.72828541666667,"velocity":0.7795275590551181,"duration":0.1983698958333342},{"name":"A#3","midi":58,"time":14.869590000000004,"velocity":0.7637795275590551,"duration":0.5358704583333331},{"name":"F3","midi":53,"time":15.391873479166671,"velocity":0.7165354330708661,"duration":0.1260871666666663},{"name":"A#2","midi":46,"time":15.519591083333337,"velocity":0.7086614173228346,"duration":0.13695674999999952},{"name":"C3","midi":48,"time":15.648395645833336,"velocity":0.7007874015748031,"duration":0.13423935416666666},{"name":"D#3","midi":51,"time":15.781004562500003,"velocity":0.6850393700787402,"duration":0.13641327083333366},{"name":"D3","midi":50,"time":15.914156958333336,"velocity":0.6771653543307087,"duration":0.13532631250000193},{"name":"D#3","midi":51,"time":16.045135437500004,"velocity":0.6614173228346457,"duration":0.1336958750000008},{"name":"G3","midi":55,"time":16.175026958333337,"velocity":0.6535433070866141,"duration":0.11250018750000024},{"name":"F3","midi":53,"time":16.292418458333337,"velocity":0.6377952755905512,"duration":0.1956524999999978},{"name":"G3","midi":55,"time":16.432636083333335,"velocity":0.6299212598425197,"duration":0.6641315416666664},{"name":"C#3","midi":49,"time":17.088071958333334,"velocity":0.5669291338582677,"duration":0.12826108333333508},{"name":"D3","midi":50,"time":17.215789562500003,"velocity":0.5590551181102362,"duration":0.2603265208333312},{"name":"C3","midi":48,"time":17.475029125000002,"velocity":0.5354330708661418,"duration":0.11739150000000009},{"name":"A#2","midi":46,"time":17.598942375000004,"velocity":0.5354330708661418,"duration":0.02173916666666642},{"name":"C3","midi":48,"time":17.613616312500003,"velocity":0.5354330708661418,"duration":0.07282620833333553},{"name":"A#2","midi":46,"time":17.675572937500004,"velocity":0.5275590551181102,"duration":0.3766310625000031},{"name":"A2","midi":45,"time":18.016334375000007,"velocity":0.5118110236220472,"duration":0.4815225416666671},{"name":"A3","midi":57,"time":18.65166152083334,"velocity":0.5905511811023622,"duration":0.1472828541666651},{"name":"A#3","midi":58,"time":18.786444354166672,"velocity":0.6299212598425197,"duration":0.14239154166666523},{"name":"A3","midi":57,"time":18.91687935416667,"velocity":0.6299212598425197,"duration":0.13043500000000208},{"name":"G3","midi":55,"time":19.045140437500006,"velocity":0.6377952755905512,"duration":0.13750022916666538},{"name":"F3","midi":53,"time":19.17285804166667,"velocity":0.6456692913385826,"duration":0.1380437083333348},{"name":"E3","midi":52,"time":19.301662604166673,"velocity":0.6535433070866141,"duration":0.12173933333333409},{"name":"D3","midi":50,"time":19.428293250000007,"velocity":0.6614173228346457,"duration":0.13532631250000193},{"name":"C#3","midi":49,"time":19.557097812500007,"velocity":0.6771653543307087,"duration":0.14836981250000392},{"name":"E3","midi":52,"time":19.691880645833344,"velocity":0.7007874015748031,"duration":0.2059786041666669},{"name":"A2","midi":45,"time":19.823402604166677,"velocity":0.7244094488188977,"duration":0.12336977083333167},{"name":"G2","midi":43,"time":19.94840281250001,"velocity":0.7559055118110236,"duration":0.1407611041666641},{"name":"F2","midi":41,"time":20.07883781250001,"velocity":0.7795275590551181,"duration":0.12771760416666567},{"name":"E2","midi":40,"time":20.204924979166673,"velocity":0.8031496062992126,"duration":0.13967414583333237},{"name":"F2","midi":41,"time":20.338620854166674,"velocity":0.8267716535433071,"duration":0.1875003124999992},{"name":"A2","midi":45,"time":20.47775152083334,"velocity":0.84251968503937,"duration":0.13206543749999966},{"name":"D3","midi":50,"time":20.607099562500007,"velocity":0.8503937007874016,"duration":0.12989152083333266},{"name":"E2","midi":40,"time":20.73209977083334,"velocity":0.8582677165354331,"duration":0.1864133541666675},{"name":"D3","midi":50,"time":20.870143479166675,"velocity":0.8661417322834646,"duration":0.12826108333333508},{"name":"C#3","midi":49,"time":20.994600208333342,"velocity":0.8740157480314961,"duration":0.14619589583333337},{"name":"D3","midi":50,"time":21.132643916666677,"velocity":0.8818897637795275,"duration":0.5250008749999964},{"name":"F3","midi":53,"time":21.654383916666674,"velocity":0.8661417322834646,"duration":0.12826108333333153},{"name":"E3","midi":52,"time":21.781014562500005,"velocity":0.8188976377952756,"duration":0.1413045833333335},{"name":"F3","midi":53,"time":21.91036260416667,"velocity":0.7716535433070866,"duration":0.14510893750000164},{"name":"A3","midi":57,"time":22.04623239583334,"velocity":0.7637795275590551,"duration":0.13043499999999852},{"name":"G3","midi":55,"time":22.17340652083334,"velocity":0.7480314960629921,"duration":0.21086991666666677},{"name":"A3","midi":57,"time":22.30547195833334,"velocity":0.7401574803149606,"duration":0.3114135625000003},{"name":"A2","midi":45,"time":22.702211750000007,"velocity":0.7165354330708661,"duration":0.13478283333333607},{"name":"C#3","midi":49,"time":22.830472833333342,"velocity":0.7086614173228346,"duration":0.12771760416666567},{"name":"B2","midi":47,"time":22.95492956250001,"velocity":0.7007874015748031,"duration":0.14021762499999824},{"name":"C#3","midi":49,"time":23.08699500000001,"velocity":0.6929133858267716,"duration":0.19891337500000006},{"name":"E3","midi":52,"time":23.219603916666674,"velocity":0.6850393700787402,"duration":0.12934804166667035},{"name":"D3","midi":50,"time":23.345147604166677,"velocity":0.6771653543307087,"duration":0.14728285416666864},{"name":"E3","midi":52,"time":23.478843479166677,"velocity":0.6692913385826772,"duration":0.5260878333333316},{"name":"G3","midi":55,"time":23.99677912500001,"velocity":0.6299212598425197,"duration":0.14021762499999824},{"name":"F3","midi":53,"time":24.127757604166675,"velocity":0.6220472440944882,"duration":0.14728285416666864},{"name":"G3","midi":55,"time":24.261453479166676,"velocity":0.6141732283464567,"duration":0.6500010833333327},{"name":"A#3","midi":58,"time":24.792976104166677,"velocity":0.5826771653543307,"duration":0.13967414583332882},{"name":"A3","midi":57,"time":24.924498062500007,"velocity":0.5748031496062992,"duration":0.1413045833333335},{"name":"A#3","midi":58,"time":25.05438958333334,"velocity":0.5669291338582677,"duration":0.1293480416666668},{"name":"G3","midi":55,"time":25.18319414583334,"velocity":0.5669291338582677,"duration":0.1288045624999974},{"name":"F3","midi":53,"time":25.306563916666672,"velocity":0.5826771653543307,"duration":0.13260891666666552},{"name":"E3","midi":52,"time":25.433194562500006,"velocity":0.5905511811023622,"duration":0.14184806249999582},{"name":"F3","midi":53,"time":25.561999125000003,"velocity":0.6062992125984252,"duration":0.13532631249999838},{"name":"G3","midi":55,"time":25.689173250000003,"velocity":0.6220472440944882,"duration":0.13586979166666424},{"name":"A2","midi":45,"time":25.820151729166668,"velocity":0.6377952755905512,"duration":0.21684818749999835},{"name":"B2","midi":47,"time":26.219608916666665,"velocity":0.6771653543307087,"duration":0.18586987500000163},{"name":"C#3","midi":49,"time":26.609826958333333,"velocity":0.7165354330708661,"duration":0.19456554166666606},{"name":"A2","midi":45,"time":26.878305666666666,"velocity":0.7165354330708661,"duration":0.13858718750000065},{"name":"B2","midi":47,"time":27.0081971875,"velocity":0.7086614173228346,"duration":0.2467395416666669},{"name":"C#3","midi":49,"time":27.266893270833332,"velocity":0.6929133858267716,"duration":0.12880456250000094},{"name":"D3","midi":50,"time":27.3929804375,"velocity":0.6850393700787402,"duration":0.2586960833333336},{"name":"E3","midi":52,"time":27.775589770833335,"velocity":0.6535433070866141,"duration":0.19728293749999892},{"name":"F3","midi":53,"time":28.171242604166668,"velocity":0.6299212598425197,"duration":0.18586987500000163},{"name":"G3","midi":55,"time":28.558199770833337,"velocity":0.6062992125984252,"duration":0.5836966250000017},{"name":"F3","midi":53,"time":29.082113687500005,"velocity":0.5669291338582677,"duration":0.1434785000000005},{"name":"E3","midi":52,"time":29.21472260416667,"velocity":0.5590551181102362,"duration":0.11630454166666837},{"name":"F3","midi":53,"time":29.335374979166673,"velocity":0.5511811023622047,"duration":0.2097829583333315},{"name":"C#4","midi":61,"time":29.47287520833334,"velocity":0.5590551181102362,"duration":0.19293510416666493},{"name":"D4","midi":62,"time":29.603310208333337,"velocity":0.6929133858267716,"duration":0.13206543749999966},{"name":"G3","midi":55,"time":29.72994085416667,"velocity":0.7795275590551181,"duration":0.20380468749999636},{"name":"C#4","midi":61,"time":29.865810645833335,"velocity":0.7086614173228346,"duration":0.1777176874999995},{"name":"D4","midi":62,"time":29.994071729166667,"velocity":0.7165354330708661,"duration":0.18858727083333449},{"name":"G#3","midi":56,"time":30.1223328125,"velocity":0.7165354330708661,"duration":0.2032612083333305},{"name":"C#4","midi":61,"time":30.257659125,"velocity":0.7244094488188977,"duration":0.17717420833333364},{"name":"D4","midi":62,"time":30.38483325,"velocity":0.7244094488188977,"duration":0.14076110416666765},{"name":"A3","midi":57,"time":30.515811729166668,"velocity":0.7244094488188977,"duration":0.18097856250000177},{"name":"C#4","midi":61,"time":30.640268458333335,"velocity":0.7322834645669292,"duration":0.1875003124999992},{"name":"D4","midi":62,"time":30.77179041666667,"velocity":0.7244094488188977,"duration":0.13858718750000065},{"name":"E4","midi":64,"time":30.9016819375,"velocity":0.7165354330708661,"duration":0.1940220625000002},{"name":"D4","midi":62,"time":31.035921291666668,"velocity":0.7086614173228346,"duration":0.1288045624999974},{"name":"C#4","midi":61,"time":31.161464979166666,"velocity":0.7007874015748031,"duration":0.1429350208333311},{"name":"D4","midi":62,"time":31.30874783333333,"velocity":0.6929133858267716,"duration":0.1619567916666682},{"name":"F3","midi":53,"time":31.421248020833332,"velocity":0.6929133858267716,"duration":0.16739158333333393},{"name":"G3","midi":55,"time":31.5522265,"velocity":0.6850393700787402,"duration":0.14619589583332981},{"name":"A3","midi":57,"time":31.68537889583333,"velocity":0.6771653543307087,"duration":0.14456545833333223},{"name":"G3","midi":55,"time":31.82070520833333,"velocity":0.6692913385826772,"duration":0.1429350208333311},{"name":"A3","midi":57,"time":31.950596729166662,"velocity":0.6614173228346457,"duration":0.1277176041666621},{"name":"D3","midi":50,"time":32.083205645833324,"velocity":0.6456692913385826,"duration":0.14239154166666168},{"name":"F#3","midi":54,"time":32.21418412499999,"velocity":0.6062992125984252,"duration":0.1364132708333301},{"name":"A3","midi":57,"time":32.34407564583332,"velocity":0.5669291338582677,"duration":0.1391306666666665},{"name":"D4","midi":62,"time":32.479945437499985,"velocity":0.5275590551181102,"duration":0.235869958333339},{"name":"G4","midi":67,"time":35.863103249999995,"velocity":0.7322834645669292,"duration":0.1478263333333345},{"name":"A#4","midi":70,"time":35.99842956249999,"velocity":0.7244094488188977,"duration":0.14021762499999824},{"name":"A4","midi":69,"time":36.12777760416666,"velocity":0.7244094488188977,"duration":0.1336958750000008},{"name":"G4","midi":67,"time":36.25821260416666,"velocity":0.7244094488188977,"duration":0.14021762500000534},{"name":"F4","midi":65,"time":36.388647604166664,"velocity":0.7244094488188977,"duration":0.14184806249999582},{"name":"E4","midi":64,"time":36.520169562499994,"velocity":0.7244094488188977,"duration":0.11739149999999654},{"name":"D4","midi":62,"time":36.64408281249999,"velocity":0.7244094488188977,"duration":0.13260891666666907},{"name":"C#4","midi":61,"time":36.77288737499999,"velocity":0.7244094488188977,"duration":0.25652216666666305},{"name":"E4","midi":64,"time":36.906039770833324,"velocity":0.7244094488188977,"duration":0.12119585416666467},{"name":"A3","midi":57,"time":37.031583458333316,"velocity":0.7244094488188977,"duration":0.14184806250000292},{"name":"G3","midi":55,"time":37.164192374999985,"velocity":0.7244094488188977,"duration":0.14836981250000036},{"name":"F3","midi":53,"time":37.29951868749998,"velocity":0.7244094488188977,"duration":0.12880456250000094},{"name":"E3","midi":52,"time":37.42669281249999,"velocity":0.7244094488188977,"duration":0.13695674999999596},{"name":"F3","midi":53,"time":37.557127812499985,"velocity":0.7244094488188977,"duration":0.14619589583333692},{"name":"A3","midi":57,"time":37.690823687499986,"velocity":0.7322834645669292,"duration":0.14130458333332996},{"name":"D4","midi":62,"time":37.82071520833332,"velocity":0.7322834645669292,"duration":0.12717412499999625},{"name":"E3","midi":52,"time":37.95223716666665,"velocity":0.7322834645669292,"duration":0.14130458333333706},{"name":"D4","midi":62,"time":38.08484608333332,"velocity":0.7322834645669292,"duration":0.13532631249999838},{"name":"C#4","midi":61,"time":38.21365064583332,"velocity":0.7322834645669292,"duration":0.13478283333333252},{"name":"D4","midi":62,"time":38.34462912499998,"velocity":0.7322834645669292,"duration":0.5271747916666669},{"name":"E4","midi":64,"time":38.86473868749999,"velocity":0.7322834645669292,"duration":0.1478263333333274},{"name":"F4","midi":65,"time":39.00115195833332,"velocity":0.7322834645669292,"duration":0.12826108333332797},{"name":"E4","midi":64,"time":39.12832608333331,"velocity":0.7322834645669292,"duration":0.5701096458333339},{"name":"F#4","midi":66,"time":39.65223999999998,"velocity":0.6614173228346457,"duration":0.1364132708333372},{"name":"G4","midi":67,"time":39.77941412499998,"velocity":0.6456692913385826,"duration":0.14130458333333706},{"name":"A4","midi":69,"time":39.91093608333332,"velocity":0.6299212598425197,"duration":0.14021762499999824},{"name":"G4","midi":67,"time":40.04191456249998,"velocity":0.6062992125984252,"duration":0.13423935416666666},{"name":"F#4","midi":66,"time":40.17126260416665,"velocity":0.5905511811023622,"duration":0.1364132708333372},{"name":"G4","midi":67,"time":40.29898020833332,"velocity":0.5905511811023622,"duration":0.19510902083333548},{"name":"F#4","midi":66,"time":40.43593695833332,"velocity":0.5905511811023622,"duration":0.1380437083333348},{"name":"E4","midi":64,"time":40.56854587499999,"velocity":0.5905511811023622,"duration":0.13478283333333252},{"name":"F#4","midi":66,"time":40.69517652083332,"velocity":0.5905511811023622,"duration":0.19945685416666947},{"name":"E4","midi":64,"time":40.83158979166666,"velocity":0.5905511811023622,"duration":0.1266306458333304},{"name":"D4","midi":62,"time":40.956046520833326,"velocity":0.5905511811023622,"duration":0.13967414583333237},{"name":"E4","midi":64,"time":41.086481520833324,"velocity":0.5905511811023622,"duration":0.13750022916666182},{"name":"G4","midi":67,"time":41.21691652083332,"velocity":0.5905511811023622,"duration":0.12445672916665984},{"name":"D4","midi":62,"time":41.345721083333316,"velocity":0.6692913385826772,"duration":0.14130458333332996},{"name":"D#4","midi":63,"time":41.47724304166665,"velocity":0.6692913385826772,"duration":0.17934812499999708},{"name":"D4","midi":62,"time":41.60822152083331,"velocity":0.6771653543307087,"duration":0.13315239583333494},{"name":"C4","midi":60,"time":41.73865652083331,"velocity":0.6850393700787402,"duration":0.14021762499999824},{"name":"A#3","midi":58,"time":41.868004562499976,"velocity":0.6850393700787402,"duration":0.1434785000000005},{"name":"A3","midi":57,"time":41.99735260416664,"velocity":0.6929133858267716,"duration":0.1222828125000035},{"name":"G3","midi":55,"time":42.126157166666644,"velocity":0.7007874015748031,"duration":0.1391306666666665},{"name":"F#3","midi":54,"time":42.25604868749998,"velocity":0.7007874015748031,"duration":0.2673917500000016},{"name":"A3","midi":57,"time":42.39191847916664,"velocity":0.7086614173228346,"duration":0.1222828125000035},{"name":"D3","midi":50,"time":42.52235347916665,"velocity":0.7165354330708661,"duration":0.12880456250000094},{"name":"C3","midi":48,"time":42.65333195833331,"velocity":0.7244094488188977,"duration":0.1336958750000008},{"name":"A#2","midi":46,"time":42.780506083333314,"velocity":0.7401574803149606,"duration":0.13097847916666439},{"name":"A2","midi":45,"time":42.907136729166645,"velocity":0.7480314960629921,"duration":0.13695674999999596},{"name":"A#2","midi":46,"time":43.03757172916664,"velocity":0.7559055118110236,"duration":0.18858727083333093},{"name":"D3","midi":50,"time":43.17181108333331,"velocity":0.7637795275590551,"duration":0.14021762499999824},{"name":"G3","midi":55,"time":43.30115912499998,"velocity":0.7716535433070866,"duration":0.14239154166666168},{"name":"A2","midi":45,"time":43.43376804166664,"velocity":0.7795275590551181,"duration":0.18967422916666976},{"name":"G3","midi":55,"time":43.57181174999997,"velocity":0.7874015748031497,"duration":0.1364132708333372},{"name":"F#3","midi":54,"time":43.70007283333331,"velocity":0.7952755905511811,"duration":0.1320654375000032},{"name":"G3","midi":55,"time":43.83105131249998,"velocity":0.8110236220472441,"duration":0.13750022916666182},{"name":"A#3","midi":58,"time":43.95876891666664,"velocity":0.8188976377952756,"duration":0.13043499999999852},{"name":"A3","midi":57,"time":44.08485608333331,"velocity":0.8267716535433071,"duration":0.18423943750000404},{"name":"A#3","midi":58,"time":44.21855195833331,"velocity":0.8346456692913385,"duration":0.13750022916666893},{"name":"D4","midi":62,"time":44.34735652083331,"velocity":0.84251968503937,"duration":0.13152195833333735},{"name":"C4","midi":60,"time":44.47453064583331,"velocity":0.84251968503937,"duration":0.1847829166666628},{"name":"D4","midi":62,"time":44.610400437499976,"velocity":0.84251968503937,"duration":0.5353269791666619},{"name":"A3","midi":57,"time":45.13431435416664,"velocity":0.84251968503937,"duration":0.13315239583332783},{"name":"D3","midi":50,"time":45.26257543749997,"velocity":0.84251968503937,"duration":0.13043499999999852},{"name":"D#3","midi":51,"time":45.39790174999997,"velocity":0.84251968503937,"duration":0.13750022916666893},{"name":"G3","midi":55,"time":45.522358479166634,"velocity":0.8267716535433071,"duration":0.1978264166666719},{"name":"F3","midi":53,"time":45.66257610416664,"velocity":0.8110236220472441,"duration":0.1108697499999991},{"name":"G3","midi":55,"time":45.783771958333304,"velocity":0.8031496062992126,"duration":0.13260891666666197},{"name":"A#3","midi":58,"time":45.910402604166634,"velocity":0.7874015748031497,"duration":0.12336977083332812},{"name":"A3","midi":57,"time":46.03268541666663,"velocity":0.7795275590551181,"duration":0.19836989583333065},{"name":"A#3","midi":58,"time":46.17398999999996,"velocity":0.7637795275590551,"duration":0.5358704583333349},{"name":"F3","midi":53,"time":46.69627347916663,"velocity":0.7165354330708661,"duration":0.12608716666666453},{"name":"A#2","midi":46,"time":46.82399108333329,"velocity":0.7086614173228346,"duration":0.13695675000000307},{"name":"C3","midi":48,"time":46.95279564583329,"velocity":0.7007874015748031,"duration":0.13423935416666666},{"name":"D#3","midi":51,"time":47.08540456249996,"velocity":0.6850393700787402,"duration":0.1364132708333301},{"name":"D3","midi":50,"time":47.21855695833329,"velocity":0.6771653543307087,"duration":0.13532631250000549},{"name":"D#3","midi":51,"time":47.34953543749996,"velocity":0.6614173228346457,"duration":0.1336958750000008},{"name":"G3","midi":55,"time":47.47942695833329,"velocity":0.6535433070866141,"duration":0.11250018750000379},{"name":"F3","midi":53,"time":47.596818458333296,"velocity":0.6377952755905512,"duration":0.19565250000000134},{"name":"G3","midi":55,"time":47.737036083333294,"velocity":0.6299212598425197,"duration":0.66413154166667},{"name":"C#3","midi":49,"time":48.392471958333296,"velocity":0.5669291338582677,"duration":0.12826108333333508},{"name":"D3","midi":50,"time":48.520189562499965,"velocity":0.5590551181102362,"duration":0.2603265208333312},{"name":"C3","midi":48,"time":48.779429124999965,"velocity":0.5354330708661418,"duration":0.11739149999999654},{"name":"A#2","midi":46,"time":48.90334237499996,"velocity":0.5354330708661418,"duration":0.021739166666662868},{"name":"C3","midi":48,"time":48.91801631249996,"velocity":0.5354330708661418,"duration":0.07282620833332487},{"name":"A#2","midi":46,"time":48.97997293749995,"velocity":0.5275590551181102,"duration":0.376631062499996},{"name":"A2","midi":45,"time":49.32073437499995,"velocity":0.5118110236220472,"duration":0.48152254166666353},{"name":"A3","midi":57,"time":49.95606152083328,"velocity":0.5905511811023622,"duration":0.14728285416666864},{"name":"A#3","midi":58,"time":50.09084435416661,"velocity":0.6299212598425197,"duration":0.14239154166666879},{"name":"A3","midi":57,"time":50.22127935416662,"velocity":0.6299212598425197,"duration":0.13043499999999142},{"name":"G3","midi":55,"time":50.34954043749995,"velocity":0.6377952755905512,"duration":0.13750022916666182},{"name":"F3","midi":53,"time":50.47725804166661,"velocity":0.6456692913385826,"duration":0.1380437083333348},{"name":"E3","midi":52,"time":50.60606260416661,"velocity":0.6535433070866141,"duration":0.12173933333333053},{"name":"D3","midi":50,"time":50.73269324999994,"velocity":0.6614173228346457,"duration":0.13532631249999838},{"name":"C#3","midi":49,"time":50.86149781249994,"velocity":0.6771653543307087,"duration":0.14836981250000036},{"name":"E3","midi":52,"time":50.996280645833274,"velocity":0.7007874015748031,"duration":0.20597860416667402},{"name":"A2","midi":45,"time":51.12780260416661,"velocity":0.7244094488188977,"duration":0.12336977083333522},{"name":"G2","midi":43,"time":51.252802812499944,"velocity":0.7559055118110236,"duration":0.1407611041666641},{"name":"F2","midi":41,"time":51.38323781249994,"velocity":0.7795275590551181,"duration":0.1277176041666621},{"name":"E2","midi":40,"time":51.50932497916661,"velocity":0.8031496062992126,"duration":0.13967414583333237},{"name":"F2","midi":41,"time":51.64302085416661,"velocity":0.8267716535433071,"duration":0.1875003124999992},{"name":"A2","midi":45,"time":51.782151520833274,"velocity":0.84251968503937,"duration":0.1320654375000032},{"name":"D3","midi":50,"time":51.91149956249994,"velocity":0.8503937007874016,"duration":0.12989152083333977},{"name":"E2","midi":40,"time":52.03649977083328,"velocity":0.8582677165354331,"duration":0.1864133541666675},{"name":"D3","midi":50,"time":52.174543479166616,"velocity":0.8661417322834646,"duration":0.12826108333333508},{"name":"C#3","midi":49,"time":52.29900020833328,"velocity":0.8740157480314961,"duration":0.14619589583333692},{"name":"D3","midi":50,"time":52.43704391666662,"velocity":0.8818897637795275,"duration":0.5250008750000035},{"name":"F3","midi":53,"time":52.95878391666662,"velocity":0.8661417322834646,"duration":0.12826108333333508},{"name":"E3","midi":52,"time":53.085414562499956,"velocity":0.8188976377952756,"duration":0.14130458333332996},{"name":"F3","midi":53,"time":53.21476260416662,"velocity":0.7716535433070866,"duration":0.1451089374999981},{"name":"A3","midi":57,"time":53.35063239583329,"velocity":0.7637795275590551,"duration":0.13043500000000563},{"name":"G3","midi":55,"time":53.47780652083329,"velocity":0.7480314960629921,"duration":0.21086991666666677},{"name":"A3","midi":57,"time":53.609871958333294,"velocity":0.7401574803149606,"duration":0.3114135625000003},{"name":"A2","midi":45,"time":54.00661174999996,"velocity":0.7165354330708661,"duration":0.13478283333333252},{"name":"C#3","midi":49,"time":54.1348728333333,"velocity":0.7086614173228346,"duration":0.12771760416666922},{"name":"B2","midi":47,"time":54.259329562499964,"velocity":0.7007874015748031,"duration":0.14021762500000534},{"name":"C#3","midi":49,"time":54.39139499999997,"velocity":0.6929133858267716,"duration":0.1989133750000036},{"name":"E3","midi":52,"time":54.524003916666636,"velocity":0.6850393700787402,"duration":0.1293480416666668},{"name":"D3","midi":50,"time":54.649547604166635,"velocity":0.6771653543307087,"duration":0.14728285416666864},{"name":"E3","midi":52,"time":54.783243479166636,"velocity":0.6692913385826772,"duration":0.5260878333333352},{"name":"G3","midi":55,"time":55.30117912499997,"velocity":0.6299212598425197,"duration":0.14021762500000534},{"name":"F3","midi":53,"time":55.43215760416664,"velocity":0.6220472440944882,"duration":0.14728285416666864},{"name":"G3","midi":55,"time":55.56585347916664,"velocity":0.6141732283464567,"duration":0.6500010833333363},{"name":"A#3","midi":58,"time":56.09737610416664,"velocity":0.5826771653543307,"duration":0.13967414583333948},{"name":"A3","midi":57,"time":56.22889806249998,"velocity":0.5748031496062992,"duration":0.14130458333332996},{"name":"A#3","midi":58,"time":56.35878958333331,"velocity":0.5669291338582677,"duration":0.1293480416666597},{"name":"G3","midi":55,"time":56.487594145833306,"velocity":0.5669291338582677,"duration":0.12880456250000094},{"name":"F3","midi":53,"time":56.61096391666664,"velocity":0.5826771653543307,"duration":0.13260891666666197},{"name":"E3","midi":52,"time":56.73759456249997,"velocity":0.5905511811023622,"duration":0.14184806250000292},{"name":"F3","midi":53,"time":56.86639912499997,"velocity":0.6062992125984252,"duration":0.13532631250000549},{"name":"G3","midi":55,"time":56.993573249999976,"velocity":0.6220472440944882,"duration":0.13586979166667135},{"name":"A2","midi":45,"time":57.12455172916665,"velocity":0.6377952755905512,"duration":0.21684818749999835},{"name":"B2","midi":47,"time":57.524008916666645,"velocity":0.6771653543307087,"duration":0.18586987500000163},{"name":"C#3","midi":49,"time":57.914226958333316,"velocity":0.7165354330708661,"duration":0.19456554166666962},{"name":"A2","midi":45,"time":58.18270566666665,"velocity":0.7165354330708661,"duration":0.13858718750000065},{"name":"B2","midi":47,"time":58.31259718749998,"velocity":0.7086614173228346,"duration":0.24673954166667045},{"name":"C#3","midi":49,"time":58.571293270833316,"velocity":0.6929133858267716,"duration":0.12880456250000094},{"name":"D3","midi":50,"time":58.69738043749998,"velocity":0.6850393700787402,"duration":0.2586960833333336},{"name":"E3","midi":52,"time":59.079989770833315,"velocity":0.6535433070866141,"duration":0.19728293749999892},{"name":"F3","midi":53,"time":59.475642604166644,"velocity":0.6299212598425197,"duration":0.18586987500000163},{"name":"G3","midi":55,"time":59.86259977083331,"velocity":0.6062992125984252,"duration":0.5836966249999946},{"name":"F3","midi":53,"time":60.38651368749998,"velocity":0.5669291338582677,"duration":0.1434784999999934},{"name":"E3","midi":52,"time":60.51912260416664,"velocity":0.5590551181102362,"duration":0.11630454166666482},{"name":"F3","midi":53,"time":60.63977497916664,"velocity":0.5511811023622047,"duration":0.20978295833333505},{"name":"C#4","midi":61,"time":60.77727520833331,"velocity":0.5590551181102362,"duration":0.19293510416666493},{"name":"D4","midi":62,"time":60.907710208333306,"velocity":0.6929133858267716,"duration":0.1320654374999961},{"name":"G3","midi":55,"time":61.034340854166636,"velocity":0.7795275590551181,"duration":0.20380468749999636},{"name":"C#4","midi":61,"time":61.1702106458333,"velocity":0.7086614173228346,"duration":0.1777176874999995},{"name":"D4","midi":62,"time":61.298471729166636,"velocity":0.7165354330708661,"duration":0.18858727083333093},{"name":"G#3","midi":56,"time":61.426732812499964,"velocity":0.7165354330708661,"duration":0.2032612083333376},{"name":"C#4","midi":61,"time":61.56205912499997,"velocity":0.7244094488188977,"duration":0.17717420833332653},{"name":"D4","midi":62,"time":61.689233249999965,"velocity":0.7244094488188977,"duration":0.1407611041666641},{"name":"A3","midi":57,"time":61.82021172916663,"velocity":0.7244094488188977,"duration":0.18097856250000177},{"name":"C#4","midi":61,"time":61.9446684583333,"velocity":0.7322834645669292,"duration":0.18750031250000632},{"name":"D4","midi":62,"time":62.076190416666634,"velocity":0.7244094488188977,"duration":0.13858718750000065},{"name":"E4","midi":64,"time":62.20608193749997,"velocity":0.7165354330708661,"duration":0.19402206249999665},{"name":"D4","midi":62,"time":62.34032129166663,"velocity":0.7086614173228346,"duration":0.12880456250000094},{"name":"C#4","midi":61,"time":62.46586497916663,"velocity":0.7007874015748031,"duration":0.14293502083333465},{"name":"D4","midi":62,"time":62.6131478333333,"velocity":0.6929133858267716,"duration":0.1619567916666611},{"name":"F3","midi":53,"time":62.7256480208333,"velocity":0.6929133858267716,"duration":0.16739158333333393},{"name":"G3","midi":55,"time":62.85662649999996,"velocity":0.6850393700787402,"duration":0.14619589583333692},{"name":"A3","midi":57,"time":62.9897788958333,"velocity":0.6771653543307087,"duration":0.14456545833333934},{"name":"G3","midi":55,"time":63.1251052083333,"velocity":0.6692913385826772,"duration":0.14293502083333465},{"name":"A3","midi":57,"time":63.254996729166635,"velocity":0.6614173228346457,"duration":0.12771760416666922},{"name":"D3","midi":50,"time":63.387605645833304,"velocity":0.6456692913385826,"duration":0.14239154166666168},{"name":"F#3","midi":54,"time":63.51858412499997,"velocity":0.6062992125984252,"duration":0.1364132708333301},{"name":"A3","midi":57,"time":63.6484756458333,"velocity":0.5669291338582677,"duration":0.1391306666666665},{"name":"D4","midi":62,"time":63.784345437499965,"velocity":0.5275590551181102,"duration":0.235869958333339},{"name":"D2","midi":38,"time":67.1702206458333,"velocity":0.7401574803149606,"duration":0.15000025000000505},{"name":"C#2","midi":37,"time":67.31152522916663,"velocity":0.7401574803149606,"duration":0.13586979166666424},{"name":"D2","midi":38,"time":67.4376123958333,"velocity":0.7401574803149606,"duration":0.13043499999999142},{"name":"E2","midi":40,"time":67.56424304166663,"velocity":0.7401574803149606,"duration":0.14184806249998871},{"name":"F2","midi":41,"time":67.69630847916662,"velocity":0.7401574803149606,"duration":0.1434785000000005},{"name":"G2","midi":43,"time":67.82837391666662,"velocity":0.7401574803149606,"duration":0.13478283333333252},{"name":"A2","midi":45,"time":67.96206979166662,"velocity":0.7401574803149606,"duration":0.14239154166665458},{"name":"A#2","midi":46,"time":68.10174393749995,"velocity":0.7401574803149606,"duration":0.12608716666665032},{"name":"G2","midi":43,"time":68.22402674999994,"velocity":0.7401574803149606,"duration":0.13532631249999838},{"name":"D3","midi":50,"time":68.34793999999994,"velocity":0.7401574803149606,"duration":0.13152195833332314},{"name":"E3","midi":52,"time":68.4756576041666,"velocity":0.7401574803149606,"duration":0.1364132708333301},{"name":"F3","midi":53,"time":68.60391868749993,"velocity":0.7401574803149606,"duration":0.14456545833333223},{"name":"G3","midi":55,"time":68.73870152083326,"velocity":0.7401574803149606,"duration":0.11956541666665998},{"name":"F3","midi":53,"time":68.86478868749992,"velocity":0.7244094488188977,"duration":0.13858718750000776},{"name":"D3","midi":50,"time":68.9957671666666,"velocity":0.7007874015748031,"duration":0.13750022916667604},{"name":"A2","midi":45,"time":69.12674564583327,"velocity":0.6771653543307087,"duration":0.13750022916667604},{"name":"G3","midi":55,"time":69.25718064583327,"velocity":0.6535433070866141,"duration":0.14021762500000534},{"name":"B2","midi":47,"time":69.38978956249994,"velocity":0.6299212598425197,"duration":0.13695674999999596},{"name":"C#3","midi":49,"time":69.51642020833327,"velocity":0.6062992125984252,"duration":0.14021762500000534},{"name":"D3","midi":50,"time":69.6512030416666,"velocity":0.5826771653543307,"duration":0.5217400000000083},{"name":"C3","midi":48,"time":70.17185608333328,"velocity":0.5433070866141733,"duration":0.13858718750000776},{"name":"A#2","midi":46,"time":70.30392152083328,"velocity":0.5433070866141733,"duration":0.13315239583333494},{"name":"C3","midi":48,"time":70.43435652083329,"velocity":0.5433070866141733,"duration":0.6527184791666656},{"name":"D3","midi":50,"time":71.09033587499995,"velocity":0.5433070866141733,"duration":0.12608716666666453},{"name":"D#3","midi":51,"time":71.22131435416662,"velocity":0.5433070866141733,"duration":0.13913066666667362},{"name":"D3","midi":50,"time":71.35174935416663,"velocity":0.5433070866141733,"duration":0.12608716666666453},{"name":"C3","midi":48,"time":71.4745756458333,"velocity":0.5433070866141733,"duration":0.13858718749999355},{"name":"D3","midi":50,"time":71.6099019583333,"velocity":0.5433070866141733,"duration":0.13097847916665728},{"name":"C3","midi":48,"time":71.73707608333329,"velocity":0.5433070866141733,"duration":0.13532631249999838},{"name":"B2","midi":47,"time":71.87675022916662,"velocity":0.5433070866141733,"duration":0.1760872499999948},{"name":"C3","midi":48,"time":71.99577216666661,"velocity":0.5433070866141733,"duration":0.26358739583334057},{"name":"A3","midi":57,"time":72.25446824999995,"velocity":0.5433070866141733,"duration":0.17989160416667005},{"name":"A#2","midi":46,"time":72.38816412499995,"velocity":0.5433070866141733,"duration":0.25815260416666774},{"name":"G3","midi":55,"time":72.64849064583328,"velocity":0.5433070866141733,"duration":0.15000025000000505},{"name":"A3","midi":57,"time":72.78816479166662,"velocity":0.5433070866141733,"duration":0.13478283333333252},{"name":"G3","midi":55,"time":72.92023022916662,"velocity":0.5433070866141733,"duration":0.1266306458333304},{"name":"F#3","midi":54,"time":73.04523043749995,"velocity":0.5433070866141733,"duration":0.14184806250000292},{"name":"G3","midi":55,"time":73.18001327083329,"velocity":0.5433070866141733,"duration":0.13043500000000563},{"name":"F3","midi":53,"time":73.30936131249996,"velocity":0.5433070866141733,"duration":0.13804370833332769},{"name":"D#3","midi":51,"time":73.43653543749996,"velocity":0.5433070866141733,"duration":0.14565241666666395},{"name":"C4","midi":60,"time":73.44305718749996,"velocity":0.5433070866141733,"duration":0.1179349791666624},{"name":"D3","midi":50,"time":73.57186174999995,"velocity":0.5669291338582677,"duration":0.15000025000000505},{"name":"D4","midi":62,"time":73.57838349999996,"velocity":0.5669291338582677,"duration":0.5130443333333261},{"name":"E3","midi":52,"time":73.70555762499995,"velocity":0.5826771653543307,"duration":0.14184806250000292},{"name":"F#3","midi":54,"time":73.83979697916662,"velocity":0.6062992125984252,"duration":0.12010889583334006},{"name":"G3","midi":55,"time":73.96371022916662,"velocity":0.6220472440944882,"duration":0.5184791250000131},{"name":"C4","midi":60,"time":74.09523218749995,"velocity":0.6377952755905512,"duration":0.1353263125000126},{"name":"A#3","midi":58,"time":74.22566718749995,"velocity":0.6614173228346457,"duration":0.12554368750001288},{"name":"C4","midi":60,"time":74.35284131249996,"velocity":0.6771653543307087,"duration":0.5271747916666669},{"name":"A3","midi":57,"time":74.4762110833333,"velocity":0.7007874015748031,"duration":0.1293480416666739},{"name":"A#3","midi":58,"time":74.6050156458333,"velocity":0.7165354330708661,"duration":0.1478263333333274},{"name":"F#3","midi":54,"time":74.74142891666664,"velocity":0.7401574803149606,"duration":0.3880441250000075},{"name":"A#3","midi":58,"time":74.87132043749996,"velocity":0.7559055118110236,"duration":0.1364132708333443},{"name":"A3","midi":57,"time":75.0028423958333,"velocity":0.7795275590551181,"duration":0.2630439166666747},{"name":"G3","midi":55,"time":75.13382087499997,"velocity":0.7952755905511811,"duration":0.2744569791666578},{"name":"D#3","midi":51,"time":75.39469087499997,"velocity":0.8346456692913385,"duration":0.14239154166666879},{"name":"C3","midi":48,"time":75.52512587499996,"velocity":0.8582677165354331,"duration":0.27065262500001097},{"name":"A3","midi":57,"time":75.53001718749996,"velocity":0.8582677165354331,"duration":0.13695675000001017},{"name":"A#3","midi":58,"time":75.65773479166664,"velocity":0.8582677165354331,"duration":0.13315239583332072},{"name":"C4","midi":60,"time":75.78490891666664,"velocity":0.8503937007874016,"duration":0.13913066666667362},{"name":"D3","midi":50,"time":75.78653935416664,"velocity":0.8503937007874016,"duration":0.13260891666666907},{"name":"A#3","midi":58,"time":75.91588739583331,"velocity":0.84251968503937,"duration":0.3913050000000027},{"name":"G3","midi":55,"time":75.91806131249997,"velocity":0.84251968503937,"duration":0.7597838749999966},{"name":"C4","midi":60,"time":76.29523585416665,"velocity":0.8188976377952756,"duration":0.05978270833332999},{"name":"B3","midi":59,"time":76.37838816666664,"velocity":0.8188976377952756,"duration":0.05978270833332999},{"name":"C4","midi":60,"time":76.43654043749997,"velocity":0.8110236220472441,"duration":0.05978270833332999},{"name":"B3","midi":59,"time":76.50664924999997,"velocity":0.8110236220472441,"duration":0.05978270833332999},{"name":"C4","midi":60,"time":76.56425804166663,"velocity":0.8031496062992126,"duration":0.05978270833332999},{"name":"B3","midi":59,"time":76.62947554166664,"velocity":0.8031496062992126,"duration":0.05978270833332999},{"name":"C4","midi":60,"time":76.68762781249997,"velocity":0.8031496062992126,"duration":0.21521774999999366},{"name":"G3","midi":55,"time":76.82186716666664,"velocity":0.7795275590551181,"duration":0.13043499999999142},{"name":"A3","midi":57,"time":76.95175868749996,"velocity":0.7637795275590551,"duration":0.13043500000000563},{"name":"A#3","midi":58,"time":77.08599804166663,"velocity":0.7401574803149606,"duration":0.13043499999999142},{"name":"F3","midi":53,"time":77.21534608333329,"velocity":0.7165354330708661,"duration":0.13043499999999142},{"name":"G3","midi":55,"time":77.34469412499995,"velocity":0.7007874015748031,"duration":0.13097847916665728},{"name":"A3","midi":57,"time":77.47295520833327,"velocity":0.6771653543307087,"duration":0.31739183333331766},{"name":"F3","midi":53,"time":77.7381730416666,"velocity":0.6377952755905512,"duration":0.14891329166665912},{"name":"G3","midi":55,"time":77.87458631249993,"velocity":0.6220472440944882,"duration":0.26521783333332394},{"name":"A3","midi":57,"time":78.13110847916658,"velocity":0.5826771653543307,"duration":0.1407611041666712},{"name":"A#3","midi":58,"time":78.26371739583325,"velocity":0.5590551181102362,"duration":0.14293502083333465},{"name":"F#3","midi":54,"time":78.3936089166666,"velocity":0.5354330708661418,"duration":0.140761104166657},{"name":"G3","midi":55,"time":78.52295695833325,"velocity":0.5196850393700787,"duration":0.13423935416666666},{"name":"A3","midi":57,"time":78.65230499999991,"velocity":0.49606299212598426,"duration":0.13586979166667845},{"name":"E3","midi":52,"time":78.78056608333326,"velocity":0.4881889763779528,"duration":0.14021762500000534},{"name":"F#3","midi":54,"time":78.90991412499993,"velocity":0.4881889763779528,"duration":0.1380437083333419},{"name":"G3","midi":55,"time":79.04306652083326,"velocity":0.4881889763779528,"duration":0.18423943750001115},{"name":"D3","midi":50,"time":79.17893631249994,"velocity":0.4881889763779528,"duration":0.13532631249999838},{"name":"D#3","midi":51,"time":79.30284956249994,"velocity":0.4881889763779528,"duration":0.14402197916666637},{"name":"F3","midi":53,"time":79.43871935416661,"velocity":0.4881889763779528,"duration":0.14184806250000292},{"name":"C3","midi":48,"time":79.57024131249995,"velocity":0.4881889763779528,"duration":0.13260891666665486},{"name":"D3","midi":50,"time":79.69850239583327,"velocity":0.4881889763779528,"duration":0.13097847916665728},{"name":"D#3","midi":51,"time":79.82785043749993,"velocity":0.4881889763779528,"duration":0.13260891666666907},{"name":"B2","midi":47,"time":79.95339412499993,"velocity":0.4881889763779528,"duration":0.14184806250000292},{"name":"C3","midi":48,"time":80.0827421666666,"velocity":0.4881889763779528,"duration":0.1347828333333183},{"name":"D3","midi":50,"time":80.21372064583326,"velocity":0.4881889763779528,"duration":0.14293502083332044},{"name":"A2","midi":45,"time":80.34578608333325,"velocity":0.4881889763779528,"duration":0.13423935416666666},{"name":"B2","midi":47,"time":80.47296020833325,"velocity":0.4881889763779528,"duration":0.14945677083332498},{"name":"C3","midi":48,"time":80.60937347916658,"velocity":0.4881889763779528,"duration":0.1434785000000005},{"name":"D3","midi":50,"time":80.74633022916657,"velocity":0.4881889763779528,"duration":0.13260891666666907},{"name":"D#3","midi":51,"time":80.87187391666657,"velocity":0.4881889763779528,"duration":0.1407611041666712},{"name":"F3","midi":53,"time":81.00176543749991,"velocity":0.4881889763779528,"duration":0.13750022916666182},{"name":"G3","midi":55,"time":81.12948304166657,"velocity":0.4881889763779528,"duration":0.14239154166666879},{"name":"G#3","midi":56,"time":81.26426587499991,"velocity":0.4881889763779528,"duration":0.1320654375000032},{"name":"G3","midi":55,"time":81.3898095624999,"velocity":0.4881889763779528,"duration":0.18315247916667943},{"name":"A3","midi":57,"time":81.52676631249992,"velocity":0.4881889763779528,"duration":0.13858718750000776},{"name":"B3","midi":59,"time":81.65828827083325,"velocity":0.4881889763779528,"duration":0.14130458333333706},{"name":"C3","midi":48,"time":81.79089718749992,"velocity":0.4881889763779528,"duration":0.13804370833332769},{"name":"D3","midi":50,"time":81.91752783333325,"velocity":0.5196850393700787,"duration":0.14021762499999113},{"name":"D#3","midi":51,"time":82.04687587499991,"velocity":0.5511811023622047,"duration":0.13586979166666424},{"name":"F3","midi":53,"time":82.17296304166658,"velocity":0.5826771653543307,"duration":0.14456545833333223},{"name":"G3","midi":55,"time":82.30611543749991,"velocity":0.6141732283464567,"duration":0.11902193749999412},{"name":"G#3","midi":56,"time":82.43274608333324,"velocity":0.6456692913385826,"duration":0.1505437291666567},{"name":"B2","midi":47,"time":82.5702463124999,"velocity":0.6850393700787402,"duration":0.13152195833332314},{"name":"C3","midi":48,"time":82.69850739583323,"velocity":0.7165354330708661,"duration":0.13750022916666182},{"name":"D3","midi":50,"time":82.8245945624999,"velocity":0.7480314960629921,"duration":0.140761104166657},{"name":"D#3","midi":51,"time":82.95557304166655,"velocity":0.7795275590551181,"duration":0.2489134583333339},{"name":"G#3","midi":56,"time":83.20992129166656,"velocity":0.7795275590551181,"duration":0.1548915624999978},{"name":"D3","midi":50,"time":83.35068239583323,"velocity":0.7795275590551181,"duration":0.2559786874999901},{"name":"G3","midi":55,"time":83.61046543749988,"velocity":0.7795275590551181,"duration":0.19130466666666734},{"name":"C3","midi":48,"time":83.74307435416655,"velocity":0.7795275590551181,"duration":0.4777181875000025},{"name":"A#3","midi":58,"time":84.40014066666656,"velocity":0.7795275590551181,"duration":0.1407611041666712},{"name":"A3","midi":57,"time":84.5300321874999,"velocity":0.7795275590551181,"duration":0.3309788124999926},{"name":"G3","midi":55,"time":85.17948979166655,"velocity":0.6850393700787402,"duration":0.1451089374999981},{"name":"F3","midi":53,"time":85.31101174999989,"velocity":0.6614173228346457,"duration":0.3369570833333313},{"name":"D#3","midi":51,"time":85.95720847916655,"velocity":0.5590551181102362,"duration":0.12717412499999625},{"name":"F#2","midi":42,"time":86.08927391666656,"velocity":0.5354330708661418,"duration":0.12989152083333977},{"name":"F2","midi":41,"time":86.22296979166656,"velocity":0.5275590551181102,"duration":0.020652208333331146},{"name":"G2","midi":43,"time":86.22296979166656,"velocity":0.5275590551181102,"duration":0.12336977083333522},{"name":"A2","midi":45,"time":86.34579608333323,"velocity":0.5275590551181102,"duration":0.13804370833332769},{"name":"A#2","midi":46,"time":86.47514412499989,"velocity":0.5275590551181102,"duration":0.13967414583333948},{"name":"C3","midi":48,"time":86.60503564583323,"velocity":0.5275590551181102,"duration":0.13043499999999142},{"name":"D3","midi":50,"time":86.73384020833322,"velocity":0.5275590551181102,"duration":0.1434785000000005},{"name":"D#3","midi":51,"time":86.86644912499989,"velocity":0.5275590551181102,"duration":0.14184806250000292},{"name":"C3","midi":48,"time":87.00068847916656,"velocity":0.5354330708661418,"duration":0.13315239583333494},{"name":"G3","midi":55,"time":87.12568868749989,"velocity":0.5590551181102362,"duration":0.13315239583333494},{"name":"A3","midi":57,"time":87.25340629166655,"velocity":0.5905511811023622,"duration":0.21141339583334684},{"name":"A#3","midi":58,"time":87.3898195624999,"velocity":0.6141732283464567,"duration":0.13586979166667845},{"name":"C4","midi":60,"time":87.51808064583324,"velocity":0.6456692913385826,"duration":0.14021762500000534},{"name":"A#3","midi":58,"time":87.64797216666658,"velocity":0.6692913385826772,"duration":0.18423943749999694},{"name":"G3","midi":55,"time":87.78221152083324,"velocity":0.6929133858267716,"duration":0.13423935416666666},{"name":"D3","midi":50,"time":87.90884216666657,"velocity":0.7007874015748031,"duration":0.14293502083333465},{"name":"C4","midi":60,"time":88.04579891666657,"velocity":0.7165354330708661,"duration":0.1434785000000005},{"name":"E3","midi":52,"time":88.17949479166657,"velocity":0.7244094488188977,"duration":0.13695674999999596},{"name":"F#3","midi":54,"time":88.3077558749999,"velocity":0.7322834645669292,"duration":0.13315239583333494},{"name":"G3","midi":55,"time":88.43764739583324,"velocity":0.7165354330708661,"duration":0.13967414583332527},{"name":"D3","midi":50,"time":88.56808239583323,"velocity":0.7086614173228346,"duration":0.1320654375000032},{"name":"A#2","midi":46,"time":88.69145216666656,"velocity":0.7007874015748031,"duration":0.1434785000000005},{"name":"G#3","midi":56,"time":88.82569152083323,"velocity":0.6929133858267716,"duration":0.13695675000001017},{"name":"C3","midi":48,"time":88.95721347916657,"velocity":0.6771653543307087,"duration":0.12608716666667874},{"name":"D3","midi":50,"time":89.08493108333325,"velocity":0.6692913385826772,"duration":0.14293502083333465},{"name":"D#3","midi":51,"time":89.21645304166658,"velocity":0.6614173228346457,"duration":0.13532631249999838},{"name":"A#2","midi":46,"time":89.34634456249991,"velocity":0.6377952755905512,"duration":0.13750022916667604},{"name":"G2","midi":43,"time":89.47514912499992,"velocity":0.6141732283464567,"duration":0.14619589583332981},{"name":"F3","midi":53,"time":89.61047543749991,"velocity":0.5826771653543307,"duration":0.13967414583332527},{"name":"A2","midi":45,"time":89.73873652083324,"velocity":0.5590551181102362,"duration":0.13315239583333494},{"name":"B2","midi":47,"time":89.86319324999991,"velocity":0.5354330708661418,"duration":0.1364132708333301},{"name":"C3","midi":48,"time":89.99688912499991,"velocity":0.5118110236220472,"duration":0.20163077083333292},{"name":"G2","midi":43,"time":90.39036804166658,"velocity":0.47244094488188976,"duration":0.1934785833333308},{"name":"E2","midi":40,"time":90.78004260416657,"velocity":0.5039370078740157,"duration":0.1989133750000036},{"name":"F#2","midi":42,"time":91.17026064583324,"velocity":0.5511811023622047,"duration":0.2059786041666598},{"name":"G2","midi":43,"time":91.5670004374999,"velocity":0.6062992125984252,"duration":0.21956558333333476},{"name":"A2","midi":45,"time":91.96210979166656,"velocity":0.6535433070866141,"duration":0.21576122916667373},{"name":"A#2","midi":46,"time":92.34254520833323,"velocity":0.7086614173228346,"duration":0.2304351666666662},{"name":"C3","midi":48,"time":92.74091543749991,"velocity":0.7559055118110236,"duration":0.1978264166666719},{"name":"D3","midi":50,"time":93.12298129166658,"velocity":0.8110236220472441,"duration":0.20652208333333988},{"name":"E3","midi":52,"time":93.50885149999992,"velocity":0.8582677165354331,"duration":0.23532647916667315},{"name":"F#3","midi":54,"time":93.90287389583327,"velocity":0.9133858267716536,"duration":0.21250035416666435},{"name":"D2","midi":38,"time":94.16809172916659,"velocity":0.9212598425196851,"duration":0.1364132708333301},{"name":"E2","midi":40,"time":94.29635281249992,"velocity":0.9212598425196851,"duration":0.265761312500004},{"name":"F#2","midi":42,"time":94.55722281249992,"velocity":0.9212598425196851,"duration":0.13858718750000776},{"name":"G2","midi":43,"time":94.68602737499992,"velocity":0.9212598425196851,"duration":0.18152204166666763},{"name":"A2","midi":45,"time":95.08765847916659,"velocity":0.9212598425196851,"duration":0.20108729166666706},{"name":"A#2","midi":46,"time":95.48222435416659,"velocity":0.9212598425196851,"duration":0.21141339583333263},{"name":"C3","midi":48,"time":95.87515979166659,"velocity":0.8110236220472441,"duration":0.1777176875000066},{"name":"D3","midi":50,"time":96.2632039166666,"velocity":0.7007874015748031,"duration":0.13695674999999596},{"name":"E3","midi":52,"time":96.39092152083326,"velocity":0.7401574803149606,"duration":0.13478283333333252},{"name":"F#3","midi":54,"time":96.51809564583326,"velocity":0.7716535433070866,"duration":0.12771760416667632},{"name":"G2","midi":43,"time":96.6479871666666,"velocity":0.8110236220472441,"duration":0.18586987500000873},{"name":"A2","midi":45,"time":96.77787868749994,"velocity":0.84251968503937,"duration":0.13695674999999596},{"name":"A#2","midi":46,"time":96.90505281249993,"velocity":0.8818897637795275,"duration":0.19673945833332596},{"name":"C3","midi":48,"time":97.04200956249993,"velocity":0.9133858267716536,"duration":0.12717412499999625},{"name":"D3","midi":50,"time":97.16864020833326,"velocity":0.9212598425196851,"duration":0.14021762499999113},{"name":"D#3","midi":51,"time":97.29853172916658,"velocity":0.9212598425196851,"duration":0.13260891666666907},{"name":"F#2","midi":42,"time":97.43385804166658,"velocity":0.9212598425196851,"duration":0.140761104166657},{"name":"G2","midi":43,"time":97.56320608333324,"velocity":0.9212598425196851,"duration":0.13967414583332527},{"name":"A2","midi":45,"time":97.69201064583324,"velocity":0.9212598425196851,"duration":0.18804379166665797},{"name":"A#2","midi":46,"time":97.83005435416656,"velocity":0.9212598425196851,"duration":0.15163068750000264},{"name":"D#3","midi":51,"time":98.08114172916656,"velocity":0.9212598425196851,"duration":0.1266306458333304},{"name":"A2","midi":45,"time":98.21320716666656,"velocity":0.9212598425196851,"duration":0.18369595833333108},{"name":"C4","midi":60,"time":98.4735336874999,"velocity":0.9212598425196851,"duration":0.11956541666665998},{"name":"D#4","midi":63,"time":98.60777304166656,"velocity":0.9212598425196851,"duration":0.13152195833333735},{"name":"D4","midi":62,"time":98.7409254374999,"velocity":0.9212598425196851,"duration":0.1336958750000008},{"name":"C4","midi":60,"time":98.87190391666657,"velocity":0.9212598425196851,"duration":0.13097847916665728},{"name":"A#3","midi":58,"time":99.00342587499989,"velocity":0.9212598425196851,"duration":0.1293480416666597},{"name":"A3","midi":57,"time":99.13005652083322,"velocity":0.9212598425196851,"duration":0.12717412499999625},{"name":"G3","midi":55,"time":99.25777412499988,"velocity":0.9212598425196851,"duration":0.1293480416666597},{"name":"F#3","midi":54,"time":99.38983956249987,"velocity":0.9212598425196851,"duration":0.13586979166666424},{"name":"A3","midi":57,"time":99.52136152083321,"velocity":0.9291338582677166,"duration":0.132065437499989},{"name":"D3","midi":50,"time":99.65070956249987,"velocity":0.952755905511811,"duration":0.1347828333333183},{"name":"C3","midi":48,"time":99.7822315208332,"velocity":0.9763779527559056,"duration":0.13152195833332314},{"name":"A#2","midi":46,"time":99.91212304166652,"velocity":0.9921259842519685,"duration":0.1293480416666597},{"name":"A2","midi":45,"time":100.04092760416651,"velocity":1,"duration":0.13423935416666666},{"name":"A#2","midi":46,"time":100.17136260416652,"velocity":1,"duration":0.13750022916666182},{"name":"G3","midi":55,"time":100.30560195833318,"velocity":1,"duration":0.13097847916665728},{"name":"C3","midi":48,"time":100.43549347916651,"velocity":0.9921259842519685,"duration":0.13423935416666666},{"name":"D3","midi":50,"time":100.56701543749985,"velocity":0.9448818897637795,"duration":0.13369587499998659},{"name":"C3","midi":48,"time":100.69908087499984,"velocity":0.889763779527559,"duration":0.13532631249999838},{"name":"D3","midi":50,"time":100.83114631249984,"velocity":0.84251968503937,"duration":0.13967414583333948},{"name":"G2","midi":43,"time":100.96484218749984,"velocity":0.7874015748031497,"duration":0.18858727083333804},{"name":"A#2","midi":46,"time":101.09201631249985,"velocity":0.7401574803149606,"duration":0.13097847916665728},{"name":"D3","midi":50,"time":101.21375564583317,"velocity":0.6929133858267716,"duration":0.14836981250000747},{"name":"G3","midi":55,"time":101.35397327083318,"velocity":0.6377952755905512,"duration":0.2690221874999992},{"name":"D2","midi":38,"time":104.73550064583318,"velocity":0.5433070866141733,"duration":0.15000025000000505},{"name":"C#2","midi":37,"time":104.87680522916652,"velocity":0.5433070866141733,"duration":0.13586979166666424},{"name":"D2","midi":38,"time":105.00289239583319,"velocity":0.5433070866141733,"duration":0.13043499999999142},{"name":"E2","midi":40,"time":105.12952304166652,"velocity":0.5433070866141733,"duration":0.14184806249998871},{"name":"F2","midi":41,"time":105.2615884791665,"velocity":0.5433070866141733,"duration":0.1434785000000005},{"name":"G2","midi":43,"time":105.39365391666651,"velocity":0.5433070866141733,"duration":0.13478283333333252},{"name":"A2","midi":45,"time":105.52734979166651,"velocity":0.5433070866141733,"duration":0.14239154166665458},{"name":"A#2","midi":46,"time":105.66702393749983,"velocity":0.5433070866141733,"duration":0.12608716666665032},{"name":"G2","midi":43,"time":105.78930674999982,"velocity":0.5433070866141733,"duration":0.13532631249999838},{"name":"D3","midi":50,"time":105.91321999999982,"velocity":0.5433070866141733,"duration":0.13152195833332314},{"name":"E3","midi":52,"time":106.04093760416649,"velocity":0.5433070866141733,"duration":0.1364132708333301},{"name":"F3","midi":53,"time":106.16919868749982,"velocity":0.5433070866141733,"duration":0.14456545833333223},{"name":"G3","midi":55,"time":106.30398152083315,"velocity":0.5433070866141733,"duration":0.11956541666665998},{"name":"F3","midi":53,"time":106.43006868749981,"velocity":0.5433070866141733,"duration":0.13858718750000776},{"name":"D3","midi":50,"time":106.56104716666648,"velocity":0.5433070866141733,"duration":0.13750022916667604},{"name":"A2","midi":45,"time":106.69202564583316,"velocity":0.5433070866141733,"duration":0.13750022916667604},{"name":"G3","midi":55,"time":106.82246064583316,"velocity":0.5433070866141733,"duration":0.14021762500000534},{"name":"B2","midi":47,"time":106.95506956249983,"velocity":0.5433070866141733,"duration":0.13695674999999596},{"name":"C#3","midi":49,"time":107.08170020833316,"velocity":0.5433070866141733,"duration":0.14021762500000534},{"name":"D3","midi":50,"time":107.21648304166649,"velocity":0.5433070866141733,"duration":0.5217400000000083},{"name":"C3","midi":48,"time":107.73713608333317,"velocity":0.5433070866141733,"duration":0.13858718750000776},{"name":"A#2","midi":46,"time":107.86920152083317,"velocity":0.5433070866141733,"duration":0.13315239583333494},{"name":"C3","midi":48,"time":107.99963652083318,"velocity":0.5433070866141733,"duration":0.6527184791666656},{"name":"D3","midi":50,"time":108.65561587499984,"velocity":0.5433070866141733,"duration":0.12608716666666453},{"name":"D#3","midi":51,"time":108.78659435416651,"velocity":0.5433070866141733,"duration":0.13913066666667362},{"name":"D3","midi":50,"time":108.91702935416652,"velocity":0.5433070866141733,"duration":0.12608716666666453},{"name":"C3","midi":48,"time":109.03985564583319,"velocity":0.5433070866141733,"duration":0.13858718749999355},{"name":"D3","midi":50,"time":109.17518195833318,"velocity":0.5433070866141733,"duration":0.13097847916665728},{"name":"C3","midi":48,"time":109.30235608333318,"velocity":0.5433070866141733,"duration":0.13532631249999838},{"name":"B2","midi":47,"time":109.4420302291665,"velocity":0.5433070866141733,"duration":0.1760872499999948},{"name":"C3","midi":48,"time":109.5610521666665,"velocity":0.5433070866141733,"duration":0.26358739583334057},{"name":"A3","midi":57,"time":109.81974824999983,"velocity":0.5433070866141733,"duration":0.17989160416667005},{"name":"A#2","midi":46,"time":109.95344412499983,"velocity":0.5433070866141733,"duration":0.25815260416666774},{"name":"G3","midi":55,"time":110.21377064583316,"velocity":0.5433070866141733,"duration":0.15000025000000505},{"name":"A3","midi":57,"time":110.3534447916665,"velocity":0.5433070866141733,"duration":0.13478283333333252},{"name":"G3","midi":55,"time":110.48551022916651,"velocity":0.5433070866141733,"duration":0.1266306458333304},{"name":"F#3","midi":54,"time":110.61051043749984,"velocity":0.5433070866141733,"duration":0.14184806250000292},{"name":"G3","midi":55,"time":110.74529327083317,"velocity":0.5433070866141733,"duration":0.13043500000000563},{"name":"F3","midi":53,"time":110.87464131249985,"velocity":0.5433070866141733,"duration":0.13804370833332769},{"name":"D#3","midi":51,"time":111.00181543749984,"velocity":0.5433070866141733,"duration":0.14565241666666395},{"name":"C4","midi":60,"time":111.00833718749985,"velocity":0.5433070866141733,"duration":0.1179349791666624},{"name":"D3","midi":50,"time":111.13714174999984,"velocity":0.5669291338582677,"duration":0.15000025000000505},{"name":"D4","midi":62,"time":111.14366349999985,"velocity":0.5669291338582677,"duration":0.5130443333333261},{"name":"E3","midi":52,"time":111.27083762499984,"velocity":0.5826771653543307,"duration":0.14184806250000292},{"name":"F#3","midi":54,"time":111.40507697916651,"velocity":0.6062992125984252,"duration":0.12010889583334006},{"name":"G3","midi":55,"time":111.52899022916651,"velocity":0.6220472440944882,"duration":0.5184791250000131},{"name":"C4","midi":60,"time":111.66051218749983,"velocity":0.6377952755905512,"duration":0.1353263125000126},{"name":"A#3","midi":58,"time":111.79094718749984,"velocity":0.6614173228346457,"duration":0.12554368750001288},{"name":"C4","midi":60,"time":111.91812131249985,"velocity":0.6771653543307087,"duration":0.5271747916666669},{"name":"A3","midi":57,"time":112.04149108333318,"velocity":0.7007874015748031,"duration":0.1293480416666739},{"name":"A#3","midi":58,"time":112.17029564583319,"velocity":0.7165354330708661,"duration":0.1478263333333274},{"name":"F#3","midi":54,"time":112.30670891666652,"velocity":0.7401574803149606,"duration":0.3880441250000075},{"name":"A#3","midi":58,"time":112.43660043749985,"velocity":0.7559055118110236,"duration":0.1364132708333443},{"name":"A3","midi":57,"time":112.56812239583319,"velocity":0.7795275590551181,"duration":0.2630439166666747},{"name":"G3","midi":55,"time":112.69910087499986,"velocity":0.7952755905511811,"duration":0.2744569791666578},{"name":"D#3","midi":51,"time":112.95997087499985,"velocity":0.8346456692913385,"duration":0.14239154166666879},{"name":"C3","midi":48,"time":113.09040587499985,"velocity":0.8582677165354331,"duration":0.27065262500001097},{"name":"A3","midi":57,"time":113.09529718749985,"velocity":0.8582677165354331,"duration":0.13695675000001017},{"name":"A#3","midi":58,"time":113.22301479166653,"velocity":0.8582677165354331,"duration":0.13315239583332072},{"name":"C4","midi":60,"time":113.35018891666653,"velocity":0.8503937007874016,"duration":0.13913066666667362},{"name":"D3","midi":50,"time":113.35181935416652,"velocity":0.8503937007874016,"duration":0.13260891666666907},{"name":"A#3","midi":58,"time":113.4811673958332,"velocity":0.84251968503937,"duration":0.3913050000000027},{"name":"G3","midi":55,"time":113.48334131249986,"velocity":0.84251968503937,"duration":0.7597838749999966},{"name":"C4","midi":60,"time":113.86051585416654,"velocity":0.8188976377952756,"duration":0.05978270833332999},{"name":"B3","midi":59,"time":113.94366816666653,"velocity":0.8188976377952756,"duration":0.05978270833332999},{"name":"C4","midi":60,"time":114.00182043749986,"velocity":0.8110236220472441,"duration":0.05978270833332999},{"name":"B3","midi":59,"time":114.07192924999985,"velocity":0.8110236220472441,"duration":0.05978270833332999},{"name":"C4","midi":60,"time":114.12953804166652,"velocity":0.8031496062992126,"duration":0.05978270833332999},{"name":"B3","midi":59,"time":114.19475554166652,"velocity":0.8031496062992126,"duration":0.05978270833332999},{"name":"C4","midi":60,"time":114.25290781249986,"velocity":0.8031496062992126,"duration":0.21521774999999366},{"name":"G3","midi":55,"time":114.38714716666652,"velocity":0.7795275590551181,"duration":0.13043499999999142},{"name":"A3","midi":57,"time":114.51703868749985,"velocity":0.7637795275590551,"duration":0.13043500000000563},{"name":"A#3","midi":58,"time":114.65127804166652,"velocity":0.7401574803149606,"duration":0.13043499999999142},{"name":"F3","midi":53,"time":114.78062608333317,"velocity":0.7165354330708661,"duration":0.13043499999999142},{"name":"G3","midi":55,"time":114.90997412499983,"velocity":0.7007874015748031,"duration":0.13097847916665728},{"name":"A3","midi":57,"time":115.03823520833316,"velocity":0.6771653543307087,"duration":0.31739183333331766},{"name":"F3","midi":53,"time":115.30345304166649,"velocity":0.6377952755905512,"duration":0.14891329166665912},{"name":"G3","midi":55,"time":115.43986631249982,"velocity":0.6220472440944882,"duration":0.26521783333332394},{"name":"A3","midi":57,"time":115.69638847916647,"velocity":0.5826771653543307,"duration":0.1407611041666712},{"name":"A#3","midi":58,"time":115.82899739583314,"velocity":0.5590551181102362,"duration":0.14293502083333465},{"name":"F#3","midi":54,"time":115.95888891666648,"velocity":0.5354330708661418,"duration":0.140761104166657},{"name":"G3","midi":55,"time":116.08823695833314,"velocity":0.5196850393700787,"duration":0.13423935416666666},{"name":"A3","midi":57,"time":116.2175849999998,"velocity":0.49606299212598426,"duration":0.13586979166667845},{"name":"E3","midi":52,"time":116.34584608333314,"velocity":0.4881889763779528,"duration":0.14021762500000534},{"name":"F#3","midi":54,"time":116.47519412499982,"velocity":0.4881889763779528,"duration":0.1380437083333419},{"name":"G3","midi":55,"time":116.60834652083315,"velocity":0.4881889763779528,"duration":0.18423943750001115},{"name":"D3","midi":50,"time":116.74421631249983,"velocity":0.4881889763779528,"duration":0.13532631249999838},{"name":"D#3","midi":51,"time":116.86812956249983,"velocity":0.4881889763779528,"duration":0.14402197916666637},{"name":"F3","midi":53,"time":117.0039993541665,"velocity":0.4881889763779528,"duration":0.14184806250000292},{"name":"C3","midi":48,"time":117.13552131249983,"velocity":0.4881889763779528,"duration":0.13260891666665486},{"name":"D3","midi":50,"time":117.26378239583316,"velocity":0.4881889763779528,"duration":0.13097847916665728},{"name":"D#3","midi":51,"time":117.39313043749982,"velocity":0.4881889763779528,"duration":0.13260891666666907},{"name":"B2","midi":47,"time":117.51867412499982,"velocity":0.4881889763779528,"duration":0.14184806250000292},{"name":"C3","midi":48,"time":117.6480221666665,"velocity":0.4881889763779528,"duration":0.1347828333333183},{"name":"D3","midi":50,"time":117.77900064583315,"velocity":0.4881889763779528,"duration":0.14293502083332044},{"name":"A2","midi":45,"time":117.91106608333314,"velocity":0.4881889763779528,"duration":0.13423935416666666},{"name":"B2","midi":47,"time":118.03824020833314,"velocity":0.4881889763779528,"duration":0.14945677083332498},{"name":"C3","midi":48,"time":118.17465347916647,"velocity":0.4881889763779528,"duration":0.1434785000000005},{"name":"D3","midi":50,"time":118.31161022916646,"velocity":0.4881889763779528,"duration":0.13260891666666907},{"name":"D#3","midi":51,"time":118.43715391666646,"velocity":0.4881889763779528,"duration":0.1407611041666712},{"name":"F3","midi":53,"time":118.5670454374998,"velocity":0.4881889763779528,"duration":0.13750022916666182},{"name":"G3","midi":55,"time":118.69476304166646,"velocity":0.4881889763779528,"duration":0.14239154166666879},{"name":"G#3","midi":56,"time":118.8295458749998,"velocity":0.4881889763779528,"duration":0.1320654375000032},{"name":"G3","midi":55,"time":118.9550895624998,"velocity":0.4881889763779528,"duration":0.18315247916667943},{"name":"A3","midi":57,"time":119.0920463124998,"velocity":0.4881889763779528,"duration":0.13858718750000776},{"name":"B3","midi":59,"time":119.22356827083314,"velocity":0.4881889763779528,"duration":0.14130458333333706},{"name":"C3","midi":48,"time":119.35617718749981,"velocity":0.4881889763779528,"duration":0.13804370833332769},{"name":"D3","midi":50,"time":119.48280783333314,"velocity":0.5196850393700787,"duration":0.14021762499999113},{"name":"D#3","midi":51,"time":119.6121558749998,"velocity":0.5511811023622047,"duration":0.13586979166666424},{"name":"F3","midi":53,"time":119.73824304166646,"velocity":0.5826771653543307,"duration":0.14456545833333223},{"name":"G3","midi":55,"time":119.8713954374998,"velocity":0.6141732283464567,"duration":0.11902193749999412},{"name":"G#3","midi":56,"time":119.99802608333313,"velocity":0.6456692913385826,"duration":0.1505437291666567},{"name":"B2","midi":47,"time":120.13552631249979,"velocity":0.6850393700787402,"duration":0.13152195833332314},{"name":"C3","midi":48,"time":120.26378739583312,"velocity":0.7165354330708661,"duration":0.13750022916666182},{"name":"D3","midi":50,"time":120.38987456249978,"velocity":0.7480314960629921,"duration":0.140761104166657},{"name":"D#3","midi":51,"time":120.52085304166644,"velocity":0.7795275590551181,"duration":0.2489134583333339},{"name":"G#3","midi":56,"time":120.77520129166645,"velocity":0.7795275590551181,"duration":0.1548915624999978},{"name":"D3","midi":50,"time":120.91596239583312,"velocity":0.7795275590551181,"duration":0.2559786874999901},{"name":"G3","midi":55,"time":121.17574543749977,"velocity":0.7795275590551181,"duration":0.19130466666666734},{"name":"C3","midi":48,"time":121.30835435416644,"velocity":0.7795275590551181,"duration":0.4777181875000025},{"name":"A#3","midi":58,"time":121.96542066666645,"velocity":0.7795275590551181,"duration":0.1407611041666712},{"name":"A3","midi":57,"time":122.09531218749979,"velocity":0.7795275590551181,"duration":0.3309788124999926},{"name":"G3","midi":55,"time":122.74476979166644,"velocity":0.6850393700787402,"duration":0.1451089374999981},{"name":"F3","midi":53,"time":122.87629174999978,"velocity":0.6614173228346457,"duration":0.3369570833333313},{"name":"D#3","midi":51,"time":123.52248847916644,"velocity":0.5590551181102362,"duration":0.12717412499999625},{"name":"F#2","midi":42,"time":123.65455391666644,"velocity":0.5354330708661418,"duration":0.12989152083333977},{"name":"F2","midi":41,"time":123.78824979166644,"velocity":0.5275590551181102,"duration":0.020652208333331146},{"name":"G2","midi":43,"time":123.78824979166644,"velocity":0.5275590551181102,"duration":0.12336977083333522},{"name":"A2","midi":45,"time":123.91107608333311,"velocity":0.5275590551181102,"duration":0.13804370833332769},{"name":"A#2","midi":46,"time":124.04042412499977,"velocity":0.5275590551181102,"duration":0.13967414583333948},{"name":"C3","midi":48,"time":124.17031564583311,"velocity":0.5275590551181102,"duration":0.13043499999999142},{"name":"D3","midi":50,"time":124.29912020833311,"velocity":0.5275590551181102,"duration":0.1434785000000005},{"name":"D#3","midi":51,"time":124.43172912499978,"velocity":0.5275590551181102,"duration":0.14184806250000292},{"name":"C3","midi":48,"time":124.56596847916644,"velocity":0.5354330708661418,"duration":0.13315239583333494},{"name":"G3","midi":55,"time":124.69096868749978,"velocity":0.5590551181102362,"duration":0.13315239583333494},{"name":"A3","midi":57,"time":124.81868629166644,"velocity":0.5905511811023622,"duration":0.21141339583334684},{"name":"A#3","midi":58,"time":124.95509956249978,"velocity":0.6141732283464567,"duration":0.13586979166667845},{"name":"C4","midi":60,"time":125.08336064583312,"velocity":0.6456692913385826,"duration":0.14021762500000534},{"name":"A#3","midi":58,"time":125.21325216666646,"velocity":0.6692913385826772,"duration":0.18423943749999694},{"name":"G3","midi":55,"time":125.34749152083313,"velocity":0.6929133858267716,"duration":0.13423935416666666},{"name":"D3","midi":50,"time":125.47412216666646,"velocity":0.7007874015748031,"duration":0.14293502083333465},{"name":"C4","midi":60,"time":125.61107891666646,"velocity":0.7165354330708661,"duration":0.1434785000000005},{"name":"E3","midi":52,"time":125.74477479166646,"velocity":0.7244094488188977,"duration":0.13695674999999596},{"name":"F#3","midi":54,"time":125.87303587499979,"velocity":0.7322834645669292,"duration":0.13315239583333494},{"name":"G3","midi":55,"time":126.00292739583313,"velocity":0.7165354330708661,"duration":0.13967414583332527},{"name":"D3","midi":50,"time":126.13336239583312,"velocity":0.7086614173228346,"duration":0.1320654375000032},{"name":"A#2","midi":46,"time":126.25673216666645,"velocity":0.7007874015748031,"duration":0.1434785000000005},{"name":"G#3","midi":56,"time":126.39097152083312,"velocity":0.6929133858267716,"duration":0.13695675000001017},{"name":"C3","midi":48,"time":126.52249347916646,"velocity":0.6771653543307087,"duration":0.12608716666667874},{"name":"D3","midi":50,"time":126.65021108333313,"velocity":0.6692913385826772,"duration":0.14293502083333465},{"name":"D#3","midi":51,"time":126.78173304166647,"velocity":0.6614173228346457,"duration":0.13532631249999838},{"name":"A#2","midi":46,"time":126.9116245624998,"velocity":0.6377952755905512,"duration":0.13750022916667604},{"name":"G2","midi":43,"time":127.0404291249998,"velocity":0.6141732283464567,"duration":0.14619589583332981},{"name":"F3","midi":53,"time":127.1757554374998,"velocity":0.5826771653543307,"duration":0.13967414583332527},{"name":"A2","midi":45,"time":127.30401652083313,"velocity":0.5590551181102362,"duration":0.13315239583333494},{"name":"B2","midi":47,"time":127.4284732499998,"velocity":0.5354330708661418,"duration":0.1364132708333301},{"name":"C3","midi":48,"time":127.5621691249998,"velocity":0.5118110236220472,"duration":0.20163077083333292},{"name":"G2","midi":43,"time":127.95564804166646,"velocity":0.47244094488188976,"duration":0.193478583333345},{"name":"E2","midi":40,"time":128.34532260416648,"velocity":0.5039370078740157,"duration":0.1989133749999894},{"name":"F#2","midi":42,"time":128.73554064583314,"velocity":0.5511811023622047,"duration":0.2059786041666598},{"name":"G2","midi":43,"time":129.1322804374998,"velocity":0.6062992125984252,"duration":0.21956558333332055},{"name":"A2","midi":45,"time":129.52738979166645,"velocity":0.6535433070866141,"duration":0.21576122916667373},{"name":"A#2","midi":46,"time":129.90782520833312,"velocity":0.7086614173228346,"duration":0.2304351666666662},{"name":"C3","midi":48,"time":130.30619543749978,"velocity":0.7559055118110236,"duration":0.19782641666665768},{"name":"D3","midi":50,"time":130.68826129166644,"velocity":0.8110236220472441,"duration":0.20652208333333988},{"name":"E3","midi":52,"time":131.07413149999977,"velocity":0.8582677165354331,"duration":0.23532647916667315},{"name":"F#3","midi":54,"time":131.4681538958331,"velocity":0.9133858267716536,"duration":0.21250035416667856},{"name":"D2","midi":38,"time":131.73337172916644,"velocity":0.9212598425196851,"duration":0.1364132708333443},{"name":"E2","midi":40,"time":131.86163281249978,"velocity":0.9212598425196851,"duration":0.2657613125000182},{"name":"F#2","midi":42,"time":132.1225028124998,"velocity":0.9212598425196851,"duration":0.13858718750000776},{"name":"G2","midi":43,"time":132.25130737499978,"velocity":0.9212598425196851,"duration":0.18152204166668184},{"name":"A2","midi":45,"time":132.65293847916647,"velocity":0.9212598425196851,"duration":0.20108729166665285},{"name":"A#2","midi":46,"time":133.04750435416645,"velocity":0.9212598425196851,"duration":0.21141339583334684},{"name":"C3","midi":48,"time":133.44043979166645,"velocity":0.8110236220472441,"duration":0.1777176875000066},{"name":"D3","midi":50,"time":133.82848391666644,"velocity":0.7007874015748031,"duration":0.13695674999999596},{"name":"E3","midi":52,"time":133.9562015208331,"velocity":0.7401574803149606,"duration":0.13478283333333252},{"name":"F#3","midi":54,"time":134.08337564583312,"velocity":0.7716535433070866,"duration":0.1277176041666621},{"name":"G2","midi":43,"time":134.21326716666644,"velocity":0.8110236220472441,"duration":0.1858698749999803},{"name":"A2","midi":45,"time":134.34315868749977,"velocity":0.84251968503937,"duration":0.13695674999999596},{"name":"A#2","midi":46,"time":134.47033281249975,"velocity":0.8818897637795275,"duration":0.19673945833335438},{"name":"C3","midi":48,"time":134.60728956249977,"velocity":0.9133858267716536,"duration":0.12717412500001046},{"name":"D3","midi":50,"time":134.7339202083331,"velocity":0.9212598425196851,"duration":0.14021762500001955},{"name":"D#3","midi":51,"time":134.86381172916646,"velocity":0.9212598425196851,"duration":0.13260891666666907},{"name":"F#2","midi":42,"time":134.99913804166647,"velocity":0.9212598425196851,"duration":0.1407611041666712},{"name":"G2","midi":43,"time":135.12848608333314,"velocity":0.9212598425196851,"duration":0.13967414583333948},{"name":"A2","midi":45,"time":135.25729064583314,"velocity":0.9212598425196851,"duration":0.1880437916667006},{"name":"A#2","midi":46,"time":135.3953343541665,"velocity":0.9212598425196851,"duration":0.15163068750001685},{"name":"D#3","midi":51,"time":135.64642172916652,"velocity":0.9212598425196851,"duration":0.1266306458333304},{"name":"A2","midi":45,"time":135.7784871666665,"velocity":0.9212598425196851,"duration":0.1836959583333453},{"name":"C4","midi":60,"time":136.03881368749984,"velocity":0.9212598425196851,"duration":0.11956541666665998},{"name":"D#4","midi":63,"time":136.1730530416665,"velocity":0.9212598425196851,"duration":0.13152195833333735},{"name":"D4","midi":62,"time":136.30620543749984,"velocity":0.9212598425196851,"duration":0.1336958750000008},{"name":"C4","midi":60,"time":136.4371839166665,"velocity":0.9212598425196851,"duration":0.1309784791666857},{"name":"A#3","midi":58,"time":136.56870587499986,"velocity":0.9212598425196851,"duration":0.1293480416666739},{"name":"A3","midi":57,"time":136.6953365208332,"velocity":0.9212598425196851,"duration":0.12717412500001046},{"name":"G3","midi":55,"time":136.82305412499989,"velocity":0.9212598425196851,"duration":0.1293480416666739},{"name":"F#3","midi":54,"time":136.9551195624999,"velocity":0.9212598425196851,"duration":0.13586979166666424},{"name":"A3","midi":57,"time":137.08664152083324,"velocity":0.9291338582677166,"duration":0.13206543750001742},{"name":"D3","midi":50,"time":137.2159895624999,"velocity":0.952755905511811,"duration":0.13478283333333252},{"name":"C3","midi":48,"time":137.34751152083325,"velocity":0.9763779527559056,"duration":0.13152195833333735},{"name":"A#2","midi":46,"time":137.47740304166658,"velocity":0.9921259842519685,"duration":0.12934804166670233},{"name":"A2","midi":45,"time":137.6062076041666,"velocity":1,"duration":0.13423935416668087},{"name":"A#2","midi":46,"time":137.7366426041666,"velocity":1,"duration":0.13750022916667604},{"name":"G3","midi":55,"time":137.87088195833329,"velocity":1,"duration":0.13097847916665728},{"name":"C3","midi":48,"time":138.0007734791666,"velocity":1,"duration":0.13423935416668087},{"name":"D3","midi":50,"time":138.13229543749995,"velocity":1,"duration":0.13369587500002922},{"name":"C3","midi":48,"time":138.26436087499997,"velocity":1,"duration":0.1353263125000126},{"name":"D3","midi":50,"time":138.39642631249998,"velocity":1,"duration":0.13967414583333948},{"name":"G2","midi":43,"time":138.53012218749998,"velocity":1,"duration":0.18858727083335225},{"name":"A#2","midi":46,"time":138.6572963125,"velocity":1,"duration":0.1309784791666857},{"name":"D3","midi":50,"time":138.77903564583335,"velocity":1,"duration":0.14836981249999326},{"name":"G3","midi":55,"time":138.91925327083334,"velocity":1,"duration":0.2690221875000134}],"controlChanges":{"7":[{"number":7,"time":0,"value":0.905511811023622}],"10":[{"number":10,"time":0,"value":0.3700787401574803}]},"id":2,"name":"seq. by David Siu dss@po.cwru.edu","instrumentNumber":6,"instrument":"harpsichord","instrumentFamily":"piano","channelNumber":0,"isPercussion":false}]}