{"header":{"PPQ":240,"timeSignature":[1,4],"bpm":120,"name":""},"startTime":5.464583333333333,"duration":259.85625000000203,"tracks":[{"startTime":5.464583333333333,"duration":259.85625000000203,"length":1889,"notes":[{"name":"F4","midi":65,"time":5.464583333333333,"velocity":0.7401574803149606,"duration":0.9250000000000007},{"name":"F3","midi":53,"time":5.466666666666666,"velocity":0.7401574803149606,"duration":4.389583333333333},{"name":"G#3","midi":56,"time":5.466666666666666,"velocity":0.7401574803149606,"duration":0.9208333333333343},{"name":"G#4","midi":68,"time":5.695833333333333,"velocity":0.7480314960629921,"duration":0.23125000000000018},{"name":"C5","midi":72,"time":5.927083333333333,"velocity":0.7322834645669292,"duration":0.22916666666666696},{"name":"F5","midi":77,"time":6.158333333333333,"velocity":0.7322834645669292,"duration":0.22916666666666696},{"name":"A#3","midi":58,"time":6.389583333333333,"velocity":0.8031496062992126,"duration":0.8854166666666661},{"name":"G4","midi":67,"time":6.391666666666667,"velocity":0.8031496062992126,"duration":0.8833333333333329},{"name":"F5","midi":77,"time":6.610416666666667,"velocity":0.7322834645669292,"duration":0.22499999999999964},{"name":"E5","midi":76,"time":6.835416666666666,"velocity":0.7322834645669292,"duration":0.22083333333333321},{"name":"G5","midi":79,"time":7.058333333333333,"velocity":0.7322834645669292,"duration":0.21666666666666679},{"name":"G#4","midi":68,"time":7.2749999999999995,"velocity":0.7480314960629921,"duration":0.8812500000000005},{"name":"C4","midi":60,"time":7.277083333333333,"velocity":0.8031496062992126,"duration":0.8770833333333341},{"name":"C5","midi":72,"time":7.489583333333333,"velocity":0.7322834645669292,"duration":0.21875},{"name":"F5","midi":77,"time":7.708333333333333,"velocity":0.7322834645669292,"duration":0.22083333333333321},{"name":"E5","midi":76,"time":7.9312499999999995,"velocity":0.7322834645669292,"duration":0.22291666666666732},{"name":"F5","midi":77,"time":8.15625,"velocity":0.7322834645669292,"duration":0.8833333333333329},{"name":"G#3","midi":56,"time":8.158333333333333,"velocity":0.8031496062992126,"duration":0.8812499999999996},{"name":"C5","midi":72,"time":8.375,"velocity":0.7322834645669292,"duration":0.22291666666666643},{"name":"A#4","midi":70,"time":8.6,"velocity":0.7480314960629921,"duration":0.21875},{"name":"G#4","midi":68,"time":8.81875,"velocity":0.7480314960629921,"duration":0.21875},{"name":"C#5","midi":73,"time":9.041666666666666,"velocity":0.7322834645669292,"duration":1.0395833333333329},{"name":"A#3","midi":58,"time":9.041666666666666,"velocity":0.8031496062992126,"duration":0.8583333333333325},{"name":"G#4","midi":68,"time":9.25625,"velocity":0.7480314960629921,"duration":0.21458333333333357},{"name":"G4","midi":67,"time":9.470833333333333,"velocity":0.6535433070866141,"duration":0.21250000000000036},{"name":"A#4","midi":70,"time":9.685416666666667,"velocity":0.7480314960629921,"duration":0.2145833333333318},{"name":"E4","midi":64,"time":9.902083333333332,"velocity":0.8031496062992126,"duration":0.8770833333333332},{"name":"G3","midi":55,"time":9.902083333333332,"velocity":0.8031496062992126,"duration":0.8770833333333332},{"name":"C#5","midi":73,"time":10.118749999999999,"velocity":0.7480314960629921,"duration":0.21875},{"name":"C5","midi":72,"time":10.339583333333332,"velocity":0.7480314960629921,"duration":0.21875},{"name":"A#4","midi":70,"time":10.558333333333332,"velocity":0.7480314960629921,"duration":0.21875},{"name":"G#4","midi":68,"time":10.781249999999998,"velocity":0.7480314960629921,"duration":0.6500000000000004},{"name":"F4","midi":65,"time":10.781249999999998,"velocity":0.8031496062992126,"duration":0.43333333333333357},{"name":"F3","midi":53,"time":10.783333333333331,"velocity":0.8031496062992126,"duration":0.8645833333333339},{"name":"G#3","midi":56,"time":10.995833333333332,"velocity":0.8031496062992126,"duration":0.21875},{"name":"C4","midi":60,"time":11.216666666666665,"velocity":0.8031496062992126,"duration":0.21250000000000036},{"name":"A#4","midi":70,"time":11.431249999999999,"velocity":0.7559055118110236,"duration":0.17916666666666714},{"name":"F4","midi":65,"time":11.433333333333332,"velocity":0.8031496062992126,"duration":0.21250000000000036},{"name":"C5","midi":72,"time":11.647916666666665,"velocity":0.7559055118110236,"duration":0.0770833333333325},{"name":"G3","midi":55,"time":11.649999999999999,"velocity":0.8031496062992126,"duration":0.8666666666666654},{"name":"A#4","midi":70,"time":11.724999999999998,"velocity":0.7559055118110236,"duration":0.0791666666666675},{"name":"C5","midi":72,"time":11.804166666666665,"velocity":0.7559055118110236,"duration":0.07708333333333428},{"name":"F4","midi":65,"time":11.860416666666666,"velocity":0.8031496062992126,"duration":0.21666666666666679},{"name":"A#4","midi":70,"time":11.883333333333333,"velocity":0.7559055118110236,"duration":0.0770833333333325},{"name":"C5","midi":72,"time":11.960416666666665,"velocity":0.7559055118110236,"duration":0.0791666666666675},{"name":"A#4","midi":70,"time":12.039583333333333,"velocity":0.7559055118110236,"duration":0.21250000000000036},{"name":"E4","midi":64,"time":12.077083333333333,"velocity":0.8031496062992126,"duration":0.22083333333333321},{"name":"G#4","midi":68,"time":12.297916666666666,"velocity":0.7559055118110236,"duration":0.09999999999999964},{"name":"G4","midi":67,"time":12.297916666666666,"velocity":0.6456692913385826,"duration":0.21874999999999822},{"name":"A#4","midi":70,"time":12.406249999999998,"velocity":0.7559055118110236,"duration":0.10208333333333286},{"name":"C5","midi":72,"time":12.518749999999997,"velocity":0.7559055118110236,"duration":0.8520833333333346},{"name":"G#3","midi":56,"time":12.52083333333333,"velocity":0.7401574803149606,"duration":0.8500000000000014},{"name":"G#4","midi":68,"time":12.731249999999998,"velocity":0.7559055118110236,"duration":0.21458333333333357},{"name":"E4","midi":64,"time":12.945833333333331,"velocity":0.8031496062992126,"duration":0.21250000000000036},{"name":"F4","midi":65,"time":13.160416666666665,"velocity":0.8031496062992126,"duration":0.20833333333333393},{"name":"C#4","midi":61,"time":13.372916666666665,"velocity":0.8031496062992126,"duration":0.8520833333333346},{"name":"A#3","midi":58,"time":13.372916666666665,"velocity":0.8031496062992126,"duration":0.8541666666666679},{"name":"C#5","midi":73,"time":13.581249999999999,"velocity":0.7559055118110236,"duration":0.21250000000000036},{"name":"G4","midi":67,"time":13.79375,"velocity":0.8031496062992126,"duration":0.21458333333333357},{"name":"A#4","midi":70,"time":14.010416666666666,"velocity":0.7559055118110236,"duration":0.21458333333333357},{"name":"E4","midi":64,"time":14.227083333333333,"velocity":0.8031496062992126,"duration":0.6437500000000007},{"name":"C4","midi":60,"time":14.229166666666666,"velocity":0.8031496062992126,"duration":0.4270833333333339},{"name":"C3","midi":48,"time":14.229166666666666,"velocity":0.8031496062992126,"duration":0.8541666666666679},{"name":"E3","midi":52,"time":14.439583333333333,"velocity":0.8031496062992126,"duration":0.21458333333333357},{"name":"G3","midi":55,"time":14.65625,"velocity":0.8031496062992126,"duration":0.21250000000000036},{"name":"F4","midi":65,"time":14.870833333333334,"velocity":0.8031496062992126,"duration":0.17708333333333393},{"name":"C4","midi":60,"time":14.872916666666667,"velocity":0.8031496062992126,"duration":0.21041666666666714},{"name":"C#3","midi":49,"time":15.085416666666667,"velocity":0.8031496062992126,"duration":0.8520833333333293},{"name":"G4","midi":67,"time":15.085416666666667,"velocity":0.8031496062992126,"duration":0.07499999999999929},{"name":"F4","midi":65,"time":15.1625,"velocity":0.8031496062992126,"duration":0.0770833333333325},{"name":"G4","midi":67,"time":15.239583333333332,"velocity":0.8031496062992126,"duration":0.0791666666666675},{"name":"C4","midi":60,"time":15.297916666666666,"velocity":0.8031496062992126,"duration":0.21249999999999858},{"name":"F4","midi":65,"time":15.320833333333333,"velocity":0.8031496062992126,"duration":0.0770833333333325},{"name":"G4","midi":67,"time":15.397916666666665,"velocity":0.8031496062992126,"duration":0.0770833333333325},{"name":"F4","midi":65,"time":15.474999999999998,"velocity":0.8031496062992126,"duration":0.25},{"name":"A#3","midi":58,"time":15.512499999999998,"velocity":0.8031496062992126,"duration":0.21041666666666714},{"name":"E4","midi":64,"time":15.724999999999998,"velocity":0.8031496062992126,"duration":0.10416666666666607},{"name":"C#4","midi":61,"time":15.724999999999998,"velocity":0.8031496062992126,"duration":0.21041666666666536},{"name":"F4","midi":65,"time":15.831249999999997,"velocity":0.8031496062992126,"duration":0.10416666666666607},{"name":"E3","midi":52,"time":15.937499999999996,"velocity":0.8031496062992126,"duration":0.8520833333333364},{"name":"G4","midi":67,"time":15.93958333333333,"velocity":0.8031496062992126,"duration":0.8479166666666682},{"name":"C5","midi":72,"time":16.147916666666664,"velocity":0.7716535433070866,"duration":0.21458333333333357},{"name":"A#4","midi":70,"time":16.364583333333332,"velocity":0.7716535433070866,"duration":0.21041666666666714},{"name":"G3","midi":55,"time":16.364583333333332,"velocity":0.8031496062992126,"duration":0.4229166666666657},{"name":"C#5","midi":73,"time":16.575,"velocity":0.7716535433070866,"duration":0.4250000000000007},{"name":"C4","midi":60,"time":16.789583333333333,"velocity":0.8031496062992126,"duration":0.8562500000000028},{"name":"E4","midi":64,"time":16.791666666666668,"velocity":0.8031496062992126,"duration":0.8520833333333329},{"name":"C#5","midi":73,"time":17,"velocity":0.7716535433070866,"duration":0.21458333333333357},{"name":"C5","midi":72,"time":17.214583333333334,"velocity":0.7716535433070866,"duration":0.21249999999999858},{"name":"C3","midi":48,"time":17.214583333333334,"velocity":0.8031496062992126,"duration":0.42916666666666714},{"name":"A#4","midi":70,"time":17.429166666666667,"velocity":0.7716535433070866,"duration":0.21249999999999858},{"name":"A4","midi":69,"time":17.645833333333336,"velocity":0.7716535433070866,"duration":0.6333333333333364},{"name":"D#4","midi":63,"time":17.645833333333336,"velocity":0.8031496062992126,"duration":0.8479166666666735},{"name":"F2","midi":41,"time":17.64791666666667,"velocity":0.8031496062992126,"duration":0.8458333333333385},{"name":"A2","midi":45,"time":17.85416666666667,"velocity":0.8031496062992126,"duration":0.21458333333333357},{"name":"C3","midi":48,"time":18.068750000000005,"velocity":0.8031496062992126,"duration":0.20833333333333215},{"name":"A#4","midi":70,"time":18.279166666666672,"velocity":0.7716535433070866,"duration":0.1770833333333357},{"name":"F3","midi":53,"time":18.281250000000007,"velocity":0.8031496062992126,"duration":0.21041666666666714},{"name":"C5","midi":72,"time":18.495833333333344,"velocity":0.7716535433070866,"duration":0.07708333333333428},{"name":"C#4","midi":61,"time":18.495833333333344,"velocity":0.8031496062992126,"duration":0.9520833333333414},{"name":"F#2","midi":42,"time":18.49791666666668,"velocity":0.8031496062992126,"duration":0.8541666666666714},{"name":"A#4","midi":70,"time":18.57291666666668,"velocity":0.7716535433070866,"duration":0.07708333333333428},{"name":"C5","midi":72,"time":18.650000000000013,"velocity":0.7716535433070866,"duration":0.07708333333333073},{"name":"F3","midi":53,"time":18.70625000000001,"velocity":0.8031496062992126,"duration":0.21666666666666856},{"name":"A#4","midi":70,"time":18.72916666666668,"velocity":0.7716535433070866,"duration":0.07708333333333428},{"name":"C5","midi":72,"time":18.806250000000013,"velocity":0.7716535433070866,"duration":0.07916666666666572},{"name":"A#4","midi":70,"time":18.887500000000014,"velocity":0.7716535433070866,"duration":0.25},{"name":"D#3","midi":51,"time":18.92291666666668,"velocity":0.8031496062992126,"duration":0.21249999999999858},{"name":"A4","midi":69,"time":19.137500000000014,"velocity":0.7716535433070866,"duration":0.10416666666666785},{"name":"F#3","midi":54,"time":19.13958333333335,"velocity":0.8031496062992126,"duration":0.21041666666666714},{"name":"A#4","midi":70,"time":19.243750000000016,"velocity":0.7716535433070866,"duration":0.10624999999999929},{"name":"C5","midi":72,"time":19.35208333333335,"velocity":0.7716535433070866,"duration":1.8666666666666778},{"name":"A2","midi":45,"time":19.354166666666686,"velocity":0.8031496062992126,"duration":0.8416666666666686},{"name":"F4","midi":65,"time":19.562500000000018,"velocity":0.8031496062992126,"duration":0.21041666666666714},{"name":"D#4","midi":63,"time":19.772916666666685,"velocity":0.8031496062992126,"duration":0.21041666666666714},{"name":"C3","midi":48,"time":19.77500000000002,"velocity":0.8031496062992126,"duration":0.4187499999999993},{"name":"F#4","midi":66,"time":19.985416666666687,"velocity":0.8031496062992126,"duration":0.38541666666666785},{"name":"A2","midi":45,"time":20.195833333333354,"velocity":0.8031496062992126,"duration":0.8458333333333385},{"name":"F#4","midi":66,"time":20.40625000000002,"velocity":0.8031496062992126,"duration":0.21249999999999858},{"name":"F4","midi":65,"time":20.61875000000002,"velocity":0.8031496062992126,"duration":0.2083333333333357},{"name":"F2","midi":41,"time":20.620833333333355,"velocity":0.8031496062992126,"duration":0.42083333333333783},{"name":"D#4","midi":63,"time":20.82916666666669,"velocity":0.8031496062992126,"duration":0.21041666666666714},{"name":"D4","midi":62,"time":21.043750000000028,"velocity":0.8031496062992126,"duration":1.8916666666666728},{"name":"A#2","midi":46,"time":21.043750000000028,"velocity":0.8031496062992126,"duration":1.0187500000000007},{"name":"C5","midi":72,"time":21.254166666666695,"velocity":0.7716535433070866,"duration":0.21458333333333357},{"name":"A#4","midi":70,"time":21.46875000000003,"velocity":0.7716535433070866,"duration":0.21041666666666714},{"name":"C#5","midi":73,"time":21.68125000000003,"velocity":0.7716535433070866,"duration":0.21249999999999858},{"name":"G4","midi":67,"time":21.89375000000003,"velocity":0.8031496062992126,"duration":0.41041666666666643},{"name":"A#2","midi":46,"time":22.097916666666695,"velocity":0.8031496062992126,"duration":0.20416666666666572},{"name":"A#4","midi":70,"time":22.304166666666696,"velocity":0.7716535433070866,"duration":0.07291666666666785},{"name":"C3","midi":48,"time":22.304166666666696,"velocity":0.8031496062992126,"duration":0.2083333333333357},{"name":"G#4","midi":68,"time":22.3791666666667,"velocity":0.7716535433070866,"duration":0.07708333333333428},{"name":"A#4","midi":70,"time":22.456250000000033,"velocity":0.7716535433070866,"duration":0.07708333333333073},{"name":"C#3","midi":49,"time":22.51250000000003,"velocity":0.8031496062992126,"duration":0.21250000000000213},{"name":"G#4","midi":68,"time":22.5354166666667,"velocity":0.7716535433070866,"duration":0.189583333333335},{"name":"A#4","midi":70,"time":22.72708333333337,"velocity":0.7716535433070866,"duration":1.9166666666666785},{"name":"G2","midi":43,"time":22.72708333333337,"velocity":0.8031496062992126,"duration":0.42083333333333073},{"name":"C4","midi":60,"time":22.9354166666667,"velocity":0.8031496062992126,"duration":0.21249999999999858},{"name":"C#4","midi":61,"time":23.150000000000034,"velocity":0.8031496062992126,"duration":0.21041666666666714},{"name":"A#2","midi":46,"time":23.150000000000034,"velocity":0.8031496062992126,"duration":0.4270833333333357},{"name":"F4","midi":65,"time":23.362500000000036,"velocity":0.8031496062992126,"duration":0.39166666666666927},{"name":"D#3","midi":51,"time":23.57708333333337,"velocity":0.8031496062992126,"duration":0.4291666666666707},{"name":"G3","midi":55,"time":23.579166666666705,"velocity":0.8031496062992126,"duration":0.4270833333333357},{"name":"F4","midi":65,"time":23.791666666666707,"velocity":0.8031496062992126,"duration":0.21249999999999858},{"name":"D#4","midi":63,"time":24.008333333333375,"velocity":0.8031496062992126,"duration":0.21041666666666714},{"name":"D#2","midi":39,"time":24.008333333333375,"velocity":0.8031496062992126,"duration":0.42291666666666927},{"name":"C#4","midi":61,"time":24.220833333333378,"velocity":0.8031496062992126,"duration":0.21041666666666714},{"name":"C4","midi":60,"time":24.43333333333338,"velocity":0.8031496062992126,"duration":0.8458333333333385},{"name":"G#2","midi":44,"time":24.43333333333338,"velocity":0.8031496062992126,"duration":0.8437500000000036},{"name":"G#4","midi":68,"time":24.643750000000047,"velocity":0.7874015748031497,"duration":0.21250000000000213},{"name":"C3","midi":48,"time":24.645833333333382,"velocity":0.8031496062992126,"duration":0.20833333333333215},{"name":"C5","midi":72,"time":24.85625000000005,"velocity":0.7874015748031497,"duration":0.6354166666666714},{"name":"D#3","midi":51,"time":24.858333333333384,"velocity":0.8031496062992126,"duration":0.20833333333333215},{"name":"G#3","midi":56,"time":25.06875000000005,"velocity":0.8031496062992126,"duration":0.20833333333333215},{"name":"C#4","midi":61,"time":25.27916666666672,"velocity":0.8031496062992126,"duration":0.8583333333333449},{"name":"A#2","midi":46,"time":25.281250000000053,"velocity":0.8031496062992126,"duration":0.854166666666675},{"name":"A#4","midi":70,"time":25.49166666666672,"velocity":0.7874015748031497,"duration":0.21458333333333712},{"name":"G#3","midi":56,"time":25.493750000000055,"velocity":0.8031496062992126,"duration":0.21041666666666714},{"name":"C#5","midi":73,"time":25.706250000000058,"velocity":0.7874015748031497,"duration":0.6437500000000078},{"name":"G3","midi":55,"time":25.708333333333393,"velocity":0.8031496062992126,"duration":0.21041666666666714},{"name":"A#3","midi":58,"time":25.920833333333395,"velocity":0.8031496062992126,"duration":0.21458333333333357},{"name":"D#4","midi":63,"time":26.137500000000063,"velocity":0.8031496062992126,"duration":0.8562500000000064},{"name":"C3","midi":48,"time":26.1395833333334,"velocity":0.8031496062992126,"duration":0.8520833333333364},{"name":"C5","midi":72,"time":26.350000000000065,"velocity":0.7874015748031497,"duration":0.21458333333333357},{"name":"D#3","midi":51,"time":26.350000000000065,"velocity":0.8031496062992126,"duration":0.21249999999999858},{"name":"D#5","midi":75,"time":26.5645833333334,"velocity":0.7874015748031497,"duration":0.6395833333333378},{"name":"G#3","midi":56,"time":26.566666666666734,"velocity":0.8031496062992126,"duration":0.21041666666666714},{"name":"C4","midi":60,"time":26.7770833333334,"velocity":0.8031496062992126,"duration":0.21458333333333357},{"name":"C#3","midi":49,"time":26.99375000000007,"velocity":0.8031496062992126,"duration":0.8562500000000064},{"name":"F4","midi":65,"time":26.995833333333405,"velocity":0.8031496062992126,"duration":0.8541666666666714},{"name":"C#5","midi":73,"time":27.20625000000007,"velocity":0.7874015748031497,"duration":0.21458333333333357},{"name":"C4","midi":60,"time":27.208333333333407,"velocity":0.8031496062992126,"duration":0.21249999999999858},{"name":"F5","midi":77,"time":27.42291666666674,"velocity":0.7874015748031497,"duration":0.6375000000000028},{"name":"A#3","midi":58,"time":27.42291666666674,"velocity":0.8031496062992126,"duration":0.21249999999999858},{"name":"C#4","midi":61,"time":27.637500000000074,"velocity":0.8031496062992126,"duration":0.21041666666666714},{"name":"D#3","midi":51,"time":27.850000000000076,"velocity":0.8031496062992126,"duration":0.8437500000000107},{"name":"G4","midi":67,"time":27.850000000000076,"velocity":0.8031496062992126,"duration":0.42291666666666927},{"name":"D#5","midi":75,"time":28.060416666666743,"velocity":0.7716535433070866,"duration":0.21041666666666714},{"name":"G3","midi":55,"time":28.062500000000078,"velocity":0.8031496062992126,"duration":0.20833333333333215},{"name":"C#5","midi":73,"time":28.272916666666745,"velocity":0.7716535433070866,"duration":0.2104166666666707},{"name":"A#3","midi":58,"time":28.27500000000008,"velocity":0.8031496062992126,"duration":0.2062500000000007},{"name":"C5","midi":72,"time":28.483333333333416,"velocity":0.7716535433070866,"duration":0.2104166666666707},{"name":"D#4","midi":63,"time":28.48541666666675,"velocity":0.8031496062992126,"duration":0.2062500000000007},{"name":"A#4","midi":70,"time":28.69583333333342,"velocity":0.7716535433070866,"duration":0.20416666666666572},{"name":"F3","midi":53,"time":28.69583333333342,"velocity":0.8031496062992126,"duration":0.8437500000000036},{"name":"G4","midi":67,"time":28.900000000000087,"velocity":0.8031496062992126,"duration":0.2083333333333357},{"name":"D#4","midi":63,"time":28.902083333333422,"velocity":0.8031496062992126,"duration":0.2062500000000007},{"name":"G#4","midi":68,"time":29.110416666666758,"velocity":0.7716535433070866,"duration":0.21249999999999858},{"name":"C#4","midi":61,"time":29.110416666666758,"velocity":0.8031496062992126,"duration":0.21249999999999858},{"name":"C#5","midi":73,"time":29.32500000000009,"velocity":0.7716535433070866,"duration":0.21458333333333357},{"name":"F4","midi":65,"time":29.32500000000009,"velocity":0.8031496062992126,"duration":0.21249999999999858},{"name":"C5","midi":72,"time":29.54166666666676,"velocity":0.7716535433070866,"duration":0.07291666666666785},{"name":"G3","midi":55,"time":29.54166666666676,"velocity":0.8031496062992126,"duration":0.8416666666666721},{"name":"A#4","midi":70,"time":29.614583333333428,"velocity":0.7716535433070866,"duration":0.07708333333333428},{"name":"C5","midi":72,"time":29.693750000000097,"velocity":0.7716535433070866,"duration":0.07708333333333428},{"name":"F4","midi":65,"time":29.747916666666764,"velocity":0.8031496062992126,"duration":0.21250000000000213},{"name":"A#4","midi":70,"time":29.77083333333343,"velocity":0.7716535433070866,"duration":0.07708333333333428},{"name":"C5","midi":72,"time":29.8500000000001,"velocity":0.7716535433070866,"duration":0.07499999999999929},{"name":"A#4","midi":70,"time":29.9250000000001,"velocity":0.7716535433070866,"duration":0.6687499999999993},{"name":"D#4","midi":63,"time":29.960416666666767,"velocity":0.8031496062992126,"duration":0.21249999999999858},{"name":"C#4","midi":61,"time":30.172916666666765,"velocity":0.8031496062992126,"duration":0.20833333333333215},{"name":"G#3","midi":56,"time":30.383333333333432,"velocity":0.8031496062992126,"duration":0.4208333333333343},{"name":"C4","midi":60,"time":30.385416666666767,"velocity":0.8031496062992126,"duration":1.6562500000000036},{"name":"D#4","midi":63,"time":30.595833333333434,"velocity":0.8031496062992126,"duration":0.20833333333333215},{"name":"G3","midi":55,"time":30.8062500000001,"velocity":0.8031496062992126,"duration":0.4187499999999993},{"name":"F4","midi":65,"time":30.8062500000001,"velocity":0.8031496062992126,"duration":0.21041666666666714},{"name":"G4","midi":67,"time":31.01666666666677,"velocity":0.8031496062992126,"duration":0.20833333333333215},{"name":"G#4","midi":68,"time":31.2250000000001,"velocity":0.7716535433070866,"duration":0.21041666666666714},{"name":"F3","midi":53,"time":31.227083333333436,"velocity":0.8031496062992126,"duration":0.4250000000000007},{"name":"G4","midi":67,"time":31.437500000000103,"velocity":0.8031496062992126,"duration":0.21458333333333357},{"name":"G#4","midi":68,"time":31.65416666666677,"velocity":0.7716535433070866,"duration":0.21249999999999858},{"name":"C#3","midi":49,"time":31.65416666666677,"velocity":0.8031496062992126,"duration":0.42291666666666927},{"name":"F5","midi":77,"time":31.86666666666677,"velocity":0.7716535433070866,"duration":0.2104166666666707},{"name":"D#5","midi":75,"time":32.07916666666677,"velocity":0.7716535433070866,"duration":0.6270833333333385},{"name":"D#3","midi":51,"time":32.07916666666677,"velocity":0.8031496062992126,"duration":0.83958333333333},{"name":"C4","midi":60,"time":32.07916666666677,"velocity":0.8031496062992126,"duration":0.07500000000000284},{"name":"A#3","midi":58,"time":32.154166666666775,"velocity":0.8031496062992126,"duration":0.08125000000000426},{"name":"C4","midi":60,"time":32.23125000000011,"velocity":0.8031496062992126,"duration":0.08125000000000426},{"name":"G#4","midi":68,"time":32.28958333333345,"velocity":0.7716535433070866,"duration":0.21041666666666714},{"name":"A#3","midi":58,"time":32.308333333333444,"velocity":0.8031496062992126,"duration":0.08125000000000426},{"name":"C4","midi":60,"time":32.38541666666678,"velocity":0.8031496062992126,"duration":0.07916666666667282},{"name":"A#3","midi":58,"time":32.46666666666678,"velocity":0.8031496062992126,"duration":0.44999999999998863},{"name":"G4","midi":67,"time":32.500000000000114,"velocity":0.8031496062992126,"duration":0.4166666666666572},{"name":"C#5","midi":73,"time":32.70833333333344,"velocity":0.7716535433070866,"duration":0.20624999999999716},{"name":"C5","midi":72,"time":32.9187500000001,"velocity":0.7716535433070866,"duration":0.2083333333333286},{"name":"G#3","midi":56,"time":32.920833333333434,"velocity":0.8031496062992126,"duration":0.8416666666666615},{"name":"G#2","midi":44,"time":32.920833333333434,"velocity":0.8031496062992126,"duration":1.0520833333333286},{"name":"G#4","midi":68,"time":33.12708333333343,"velocity":0.7716535433070866,"duration":0.21249999999999858},{"name":"C5","midi":72,"time":33.33958333333343,"velocity":0.7716535433070866,"duration":0.21041666666666714},{"name":"E5","midi":76,"time":33.5500000000001,"velocity":0.7716535433070866,"duration":0.21041666666666714},{"name":"F5","midi":77,"time":33.762500000000095,"velocity":0.7716535433070866,"duration":0.2083333333333357},{"name":"G5","midi":79,"time":33.97291666666676,"velocity":0.7716535433070866,"duration":0.21041666666666714},{"name":"G#3","midi":56,"time":33.975000000000094,"velocity":0.8031496062992126,"duration":0.2083333333333357},{"name":"E5","midi":76,"time":34.18541666666676,"velocity":0.7716535433070866,"duration":0.2083333333333357},{"name":"G3","midi":55,"time":34.18541666666676,"velocity":0.8031496062992126,"duration":0.2083333333333357},{"name":"F5","midi":77,"time":34.39583333333343,"velocity":0.7716535433070866,"duration":0.20624999999999716},{"name":"F3","midi":53,"time":34.39583333333343,"velocity":0.8031496062992126,"duration":0.20416666666666572},{"name":"G5","midi":79,"time":34.602083333333425,"velocity":0.7716535433070866,"duration":1.8958333333333215},{"name":"E3","midi":52,"time":34.60416666666676,"velocity":0.8031496062992126,"duration":0.83958333333333},{"name":"G3","midi":55,"time":34.80833333333342,"velocity":0.8031496062992126,"duration":0.21249999999999858},{"name":"A#3","midi":58,"time":35.02291666666675,"velocity":0.8031496062992126,"duration":0.21041666666666714},{"name":"C#4","midi":61,"time":35.23333333333342,"velocity":0.8031496062992126,"duration":0.21041666666666714},{"name":"C3","midi":48,"time":35.44583333333342,"velocity":0.8031496062992126,"duration":0.8416666666666615},{"name":"F3","midi":53,"time":35.652083333333415,"velocity":0.8031496062992126,"duration":0.2083333333333357},{"name":"E3","midi":52,"time":35.86250000000008,"velocity":0.8031496062992126,"duration":0.21041666666666714},{"name":"G3","midi":55,"time":36.07500000000008,"velocity":0.8031496062992126,"duration":0.21249999999999858},{"name":"G#3","midi":56,"time":36.28958333333341,"velocity":0.8031496062992126,"duration":1.68333333333333},{"name":"F3","midi":53,"time":36.28958333333341,"velocity":0.8031496062992126,"duration":1.0187499999999972},{"name":"C5","midi":72,"time":36.49791666666675,"velocity":0.7716535433070866,"duration":0.21249999999999858},{"name":"F5","midi":77,"time":36.710416666666745,"velocity":0.7716535433070866,"duration":0.21041666666666714},{"name":"G#5","midi":80,"time":36.922916666666744,"velocity":0.7716535433070866,"duration":0.2083333333333357},{"name":"D5","midi":74,"time":37.13333333333341,"velocity":0.7716535433070866,"duration":0.21041666666666714},{"name":"F5","midi":77,"time":37.34583333333341,"velocity":0.7716535433070866,"duration":0.2083333333333357},{"name":"F3","midi":53,"time":37.34583333333341,"velocity":0.8031496062992126,"duration":0.2083333333333357},{"name":"B4","midi":71,"time":37.554166666666745,"velocity":0.7716535433070866,"duration":0.2083333333333286},{"name":"D#3","midi":51,"time":37.55625000000008,"velocity":0.8031496062992126,"duration":0.20624999999999716},{"name":"C5","midi":72,"time":37.764583333333405,"velocity":0.7716535433070866,"duration":0.17291666666666572},{"name":"D3","midi":50,"time":37.764583333333405,"velocity":0.8031496062992126,"duration":0.2083333333333357},{"name":"C5","midi":72,"time":37.97500000000007,"velocity":0.7007874015748031,"duration":0.0729166666666643},{"name":"G3","midi":55,"time":37.97500000000007,"velocity":0.8031496062992126,"duration":0.83958333333333},{"name":"B4","midi":71,"time":38.04791666666674,"velocity":0.7007874015748031,"duration":0.07916666666666572},{"name":"C5","midi":72,"time":38.12500000000007,"velocity":0.7007874015748031,"duration":0.07916666666666572},{"name":"B3","midi":59,"time":38.17916666666674,"velocity":0.8031496062992126,"duration":0.21249999999999858},{"name":"B4","midi":71,"time":38.202083333333405,"velocity":0.7007874015748031,"duration":0.07916666666666572},{"name":"C5","midi":72,"time":38.2770833333334,"velocity":0.7007874015748031,"duration":0.08125000000000426},{"name":"B4","midi":71,"time":38.356250000000074,"velocity":0.7007874015748031,"duration":0.24583333333333002},{"name":"D4","midi":62,"time":38.39375000000007,"velocity":0.8031496062992126,"duration":0.2083333333333357},{"name":"C5","midi":72,"time":38.604166666666735,"velocity":0.7716535433070866,"duration":0.17291666666666572},{"name":"G4","midi":67,"time":38.604166666666735,"velocity":0.8031496062992126,"duration":0.21041666666666714},{"name":"D5","midi":74,"time":38.816666666666734,"velocity":0.7007874015748031,"duration":0.07500000000000284},{"name":"G#3","midi":56,"time":38.816666666666734,"velocity":0.8031496062992126,"duration":0.8520833333333258},{"name":"C5","midi":72,"time":38.89375000000007,"velocity":0.7007874015748031,"duration":0.07500000000000284},{"name":"D5","midi":74,"time":38.96875000000007,"velocity":0.7007874015748031,"duration":0.07708333333333428},{"name":"G4","midi":67,"time":39.02500000000007,"velocity":0.8031496062992126,"duration":0.21041666666666714},{"name":"C5","midi":72,"time":39.04791666666674,"velocity":0.7007874015748031,"duration":0.07708333333333428},{"name":"D5","midi":74,"time":39.12500000000007,"velocity":0.7007874015748031,"duration":0.07708333333333428},{"name":"C5","midi":72,"time":39.202083333333405,"velocity":0.7007874015748031,"duration":0.2499999999999929},{"name":"F4","midi":65,"time":39.23750000000007,"velocity":0.8031496062992126,"duration":0.21458333333333002},{"name":"G#4","midi":68,"time":39.45416666666673,"velocity":0.7716535433070866,"duration":0.21249999999999858},{"name":"B4","midi":71,"time":39.45416666666673,"velocity":0.7716535433070866,"duration":0.1041666666666643},{"name":"C5","midi":72,"time":39.558333333333394,"velocity":0.7716535433070866,"duration":0.10833333333333428},{"name":"D5","midi":74,"time":39.66875000000006,"velocity":0.7716535433070866,"duration":0.8562499999999886},{"name":"B3","midi":59,"time":39.67083333333339,"velocity":0.8031496062992126,"duration":0.8520833333333258},{"name":"G5","midi":79,"time":39.87916666666673,"velocity":0.7480314960629921,"duration":0.21458333333333002},{"name":"F5","midi":77,"time":40.09583333333339,"velocity":0.7480314960629921,"duration":0.21249999999999858},{"name":"D4","midi":62,"time":40.09583333333339,"velocity":0.8031496062992126,"duration":0.4270833333333286},{"name":"G#5","midi":80,"time":40.30833333333339,"velocity":0.7480314960629921,"duration":0.38749999999999574},{"name":"B4","midi":71,"time":40.52500000000005,"velocity":0.7716535433070866,"duration":0.8333333333333286},{"name":"G4","midi":67,"time":40.52500000000005,"velocity":0.8031496062992126,"duration":0.8333333333333286},{"name":"G#5","midi":80,"time":40.729166666666714,"velocity":0.7480314960629921,"duration":0.2083333333333357},{"name":"G5","midi":79,"time":40.93958333333338,"velocity":0.7480314960629921,"duration":0.2083333333333357},{"name":"G3","midi":55,"time":40.93958333333338,"velocity":0.8031496062992126,"duration":0.4166666666666643},{"name":"F5","midi":77,"time":41.15000000000005,"velocity":0.7480314960629921,"duration":0.20624999999999716},{"name":"D#5","midi":75,"time":41.36041666666671,"velocity":0.7480314960629921,"duration":0.41875000000000284},{"name":"C4","midi":60,"time":41.36041666666671,"velocity":0.8031496062992126,"duration":2.968749999999986},{"name":"C6","midi":84,"time":41.568750000000044,"velocity":0.7480314960629921,"duration":0.42499999999999716},{"name":"F5","midi":77,"time":41.77916666666671,"velocity":0.7480314960629921,"duration":0.42916666666666003},{"name":"G#3","midi":56,"time":41.77916666666671,"velocity":0.8031496062992126,"duration":0.42916666666666003},{"name":"B5","midi":83,"time":41.99375000000004,"velocity":0.7480314960629921,"duration":0.21249999999999858},{"name":"C6","midi":84,"time":42.2104166666667,"velocity":0.7480314960629921,"duration":0.8499999999999943},{"name":"D#3","midi":51,"time":42.2104166666667,"velocity":0.8031496062992126,"duration":0.42499999999999716},{"name":"G5","midi":79,"time":42.42083333333337,"velocity":0.7480314960629921,"duration":0.21458333333333002},{"name":"G#5","midi":80,"time":42.63750000000003,"velocity":0.7480314960629921,"duration":0.21249999999999858},{"name":"F3","midi":53,"time":42.63750000000003,"velocity":0.8031496062992126,"duration":0.4229166666666657},{"name":"G5","midi":79,"time":42.85000000000003,"velocity":0.7480314960629921,"duration":0.2083333333333357},{"name":"D#5","midi":75,"time":43.06250000000003,"velocity":0.7480314960629921,"duration":1.0541666666666671},{"name":"G3","midi":55,"time":43.06250000000003,"velocity":0.8031496062992126,"duration":1.6895833333333314},{"name":"B4","midi":71,"time":43.270833333333364,"velocity":0.7716535433070866,"duration":0.21249999999999858},{"name":"C5","midi":72,"time":43.48333333333336,"velocity":0.7716535433070866,"duration":0.21249999999999858},{"name":"F#4","midi":66,"time":43.69583333333336,"velocity":0.8031496062992126,"duration":0.2083333333333357},{"name":"G4","midi":67,"time":43.90625000000003,"velocity":0.8031496062992126,"duration":0.6333333333333329},{"name":"C5","midi":72,"time":44.11875000000003,"velocity":0.7716535433070866,"duration":0.21041666666666714},{"name":"D5","midi":74,"time":44.331250000000026,"velocity":0.7716535433070866,"duration":0.4208333333333343},{"name":"B3","midi":59,"time":44.331250000000026,"velocity":0.8031496062992126,"duration":0.41875000000000284},{"name":"F4","midi":65,"time":44.53958333333336,"velocity":0.8031496062992126,"duration":0.38749999999999574},{"name":"C5","midi":72,"time":44.75416666666669,"velocity":0.7716535433070866,"duration":1.6895833333333243},{"name":"C4","midi":60,"time":44.75416666666669,"velocity":0.8031496062992126,"duration":0.4208333333333343},{"name":"C3","midi":48,"time":44.75625000000002,"velocity":0.8031496062992126,"duration":1.687499999999993},{"name":"F4","midi":65,"time":44.96250000000003,"velocity":0.8031496062992126,"duration":0.21249999999999858},{"name":"G3","midi":55,"time":45.17708333333336,"velocity":0.8031496062992126,"duration":0.6291666666666629},{"name":"E4","midi":64,"time":45.17708333333336,"velocity":0.8031496062992126,"duration":0.2083333333333357},{"name":"G4","midi":67,"time":45.38541666666669,"velocity":0.8031496062992126,"duration":0.2541666666666629},{"name":"C4","midi":60,"time":45.59791666666669,"velocity":0.8031496062992126,"duration":0.8458333333333243},{"name":"F3","midi":53,"time":45.80833333333335,"velocity":0.8031496062992126,"duration":0.21041666666666714},{"name":"E3","midi":52,"time":46.02083333333335,"velocity":0.8031496062992126,"duration":0.21041666666666714},{"name":"G3","midi":55,"time":46.23125000000002,"velocity":0.8031496062992126,"duration":0.21041666666666714},{"name":"F4","midi":65,"time":46.44583333333335,"velocity":0.8031496062992126,"duration":0.8437499999999929},{"name":"A2","midi":45,"time":46.44583333333335,"velocity":0.8031496062992126,"duration":0.8416666666666615},{"name":"A4","midi":69,"time":46.65416666666668,"velocity":0.7716535433070866,"duration":0.21041666666666714},{"name":"C5","midi":72,"time":46.86666666666668,"velocity":0.7716535433070866,"duration":0.2083333333333286},{"name":"F3","midi":53,"time":46.86875000000001,"velocity":0.8031496062992126,"duration":0.8416666666666615},{"name":"D#5","midi":75,"time":47.07500000000001,"velocity":0.7716535433070866,"duration":0.42499999999999716},{"name":"A4","midi":69,"time":47.28958333333334,"velocity":0.7716535433070866,"duration":0.8458333333333314},{"name":"F2","midi":41,"time":47.29166666666667,"velocity":0.8031496062992126,"duration":0.8416666666666686},{"name":"F#5","midi":78,"time":47.50000000000001,"velocity":0.7716535433070866,"duration":0.21041666666666714},{"name":"C5","midi":72,"time":47.712500000000006,"velocity":0.7716535433070866,"duration":0.21041666666666714},{"name":"F3","midi":53,"time":47.712500000000006,"velocity":0.8031496062992126,"duration":0.4208333333333343},{"name":"D#5","midi":75,"time":47.92291666666667,"velocity":0.7716535433070866,"duration":0.2083333333333357},{"name":"C#5","midi":73,"time":48.13541666666667,"velocity":0.7716535433070866,"duration":1.2645833333333272},{"name":"A#2","midi":46,"time":48.1375,"velocity":0.8031496062992126,"duration":0.8416666666666615},{"name":"C#3","midi":49,"time":48.34375,"velocity":0.8031496062992126,"duration":0.21875},{"name":"A#4","midi":70,"time":48.55625,"velocity":0.7874015748031497,"duration":0.4208333333333343},{"name":"F3","midi":53,"time":48.55625,"velocity":0.8031496062992126,"duration":0.21875},{"name":"A#3","midi":58,"time":48.766666666666666,"velocity":0.8031496062992126,"duration":0.4229166666666657},{"name":"E4","midi":64,"time":48.979166666666664,"velocity":0.8031496062992126,"duration":0.84375},{"name":"C3","midi":48,"time":48.981249999999996,"velocity":0.8031496062992126,"duration":0.8416666666666686},{"name":"A#3","midi":58,"time":49.19166666666666,"velocity":0.8031496062992126,"duration":0.21666666666666856},{"name":"C5","midi":72,"time":49.4,"velocity":0.8031496062992126,"duration":0.6333333333333329},{"name":"G#3","midi":56,"time":49.40208333333333,"velocity":0.8031496062992126,"duration":0.21666666666666856},{"name":"C4","midi":60,"time":49.6125,"velocity":0.8031496062992126,"duration":0.21666666666666856},{"name":"D3","midi":50,"time":49.824999999999996,"velocity":0.8031496062992126,"duration":0.4229166666666657},{"name":"F3","midi":53,"time":49.824999999999996,"velocity":0.8031496062992126,"duration":0.4229166666666657},{"name":"F4","midi":65,"time":49.824999999999996,"velocity":0.8031496062992126,"duration":0.42499999999999716},{"name":"A#4","midi":70,"time":50.03541666666666,"velocity":0.8031496062992126,"duration":0.21041666666666714},{"name":"G3","midi":55,"time":50.24999999999999,"velocity":0.8031496062992126,"duration":0.41874999999999574},{"name":"G4","midi":67,"time":50.24999999999999,"velocity":0.8031496062992126,"duration":0.21458333333333002},{"name":"E3","midi":52,"time":50.252083333333324,"velocity":0.8031496062992126,"duration":0.4166666666666643},{"name":"E4","midi":64,"time":50.45624999999999,"velocity":0.8031496062992126,"duration":0.2187499999999929},{"name":"G#3","midi":56,"time":50.67083333333332,"velocity":0.8031496062992126,"duration":0.8416666666666615},{"name":"C4","midi":60,"time":50.67083333333332,"velocity":0.8031496062992126,"duration":0.21458333333333002},{"name":"F3","midi":53,"time":50.67291666666665,"velocity":0.8031496062992126,"duration":0.83958333333333},{"name":"E4","midi":64,"time":50.87708333333332,"velocity":0.8031496062992126,"duration":0.21041666666666714},{"name":"F4","midi":65,"time":51.089583333333316,"velocity":0.8031496062992126,"duration":0.4229166666666657},{"name":"B4","midi":71,"time":51.29999999999998,"velocity":0.8031496062992126,"duration":0.21041666666666714},{"name":"C5","midi":72,"time":51.51458333333331,"velocity":0.8031496062992126,"duration":0.8270833333333272},{"name":"G3","midi":55,"time":51.51458333333331,"velocity":0.8031496062992126,"duration":1.6729166666666515},{"name":"C3","midi":48,"time":51.516666666666644,"velocity":0.8031496062992126,"duration":1.45624999999999},{"name":"F4","midi":65,"time":51.72291666666664,"velocity":0.8031496062992126,"duration":0.20624999999999716},{"name":"E4","midi":64,"time":51.92916666666664,"velocity":0.8031496062992126,"duration":1.2583333333333258},{"name":"G4","midi":67,"time":52.137499999999974,"velocity":0.8031496062992126,"duration":0.20416666666666572},{"name":"A#4","midi":70,"time":52.34374999999997,"velocity":0.8031496062992126,"duration":0.20624999999999716},{"name":"C#5","midi":73,"time":52.54999999999997,"velocity":0.8031496062992126,"duration":0.2083333333333357},{"name":"C5","midi":72,"time":52.760416666666636,"velocity":0.8031496062992126,"duration":0.21041666666666714},{"name":"A#4","midi":70,"time":52.972916666666634,"velocity":0.8031496062992126,"duration":0.21249999999999858},{"name":"C#3","midi":49,"time":52.974999999999966,"velocity":0.8031496062992126,"duration":0.21041666666666714},{"name":"A4","midi":69,"time":53.189583333333296,"velocity":0.8031496062992126,"duration":0.21041666666666714},{"name":"F3","midi":53,"time":53.189583333333296,"velocity":0.8031496062992126,"duration":0.42499999999999716},{"name":"D#3","midi":51,"time":53.19166666666663,"velocity":0.8031496062992126,"duration":0.4229166666666657},{"name":"F4","midi":65,"time":53.39999999999996,"velocity":0.8031496062992126,"duration":0.21249999999999858},{"name":"A4","midi":69,"time":53.616666666666625,"velocity":0.8031496062992126,"duration":0.2083333333333357},{"name":"D#4","midi":63,"time":53.616666666666625,"velocity":0.8031496062992126,"duration":0.4208333333333343},{"name":"C5","midi":72,"time":53.82499999999996,"velocity":0.7874015748031497,"duration":0.21249999999999858},{"name":"F5","midi":77,"time":54.03958333333329,"velocity":0.7874015748031497,"duration":0.6229166666666615},{"name":"C#4","midi":61,"time":54.03958333333329,"velocity":0.8031496062992126,"duration":0.4166666666666643},{"name":"A#4","midi":70,"time":54.247916666666626,"velocity":0.7874015748031497,"duration":0.20624999999999716},{"name":"A4","midi":69,"time":54.456249999999955,"velocity":0.7874015748031497,"duration":0.4166666666666572},{"name":"C4","midi":60,"time":54.458333333333286,"velocity":0.8031496062992126,"duration":0.41458333333332575},{"name":"D#5","midi":75,"time":54.66458333333328,"velocity":0.7874015748031497,"duration":0.20624999999999716},{"name":"C#5","midi":73,"time":54.87499999999994,"velocity":0.7874015748031497,"duration":1.0395833333333186},{"name":"A#3","midi":58,"time":54.87499999999994,"velocity":0.8031496062992126,"duration":0.83124999999999},{"name":"G#4","midi":68,"time":55.08124999999994,"velocity":0.7874015748031497,"duration":0.2083333333333357},{"name":"F3","midi":53,"time":55.08124999999994,"velocity":0.8031496062992126,"duration":0.2083333333333357},{"name":"C#3","midi":49,"time":55.29166666666661,"velocity":0.8031496062992126,"duration":0.20624999999999716},{"name":"G4","midi":67,"time":55.29166666666661,"velocity":0.8031496062992126,"duration":0.20624999999999716},{"name":"G#4","midi":68,"time":55.499999999999936,"velocity":0.7874015748031497,"duration":0.20416666666666572},{"name":"A#2","midi":46,"time":55.499999999999936,"velocity":0.8031496062992126,"duration":0.4124999999999943},{"name":"G3","midi":55,"time":55.70624999999993,"velocity":0.8031496062992126,"duration":0.8354166666666458},{"name":"E4","midi":64,"time":55.708333333333265,"velocity":0.8031496062992126,"duration":0.41458333333332575},{"name":"C5","midi":72,"time":55.91458333333326,"velocity":0.7874015748031497,"duration":0.4166666666666572},{"name":"C3","midi":48,"time":55.91666666666659,"velocity":0.8031496062992126,"duration":0.20416666666666572},{"name":"C#3","midi":49,"time":56.12291666666659,"velocity":0.8031496062992126,"duration":0.2083333333333286},{"name":"F4","midi":65,"time":56.12499999999992,"velocity":0.8031496062992126,"duration":0.41458333333332575},{"name":"A#4","midi":70,"time":56.33333333333325,"velocity":0.7874015748031497,"duration":0.4166666666666572},{"name":"A#2","midi":46,"time":56.33333333333325,"velocity":0.8031496062992126,"duration":0.20624999999999716},{"name":"E4","midi":64,"time":56.54374999999991,"velocity":0.8031496062992126,"duration":0.6312499999999943},{"name":"C3","midi":48,"time":56.54374999999991,"velocity":0.8031496062992126,"duration":1.26458333333332},{"name":"C#5","midi":73,"time":56.75208333333324,"velocity":0.7874015748031497,"duration":0.21041666666666714},{"name":"G3","midi":55,"time":56.75416666666657,"velocity":0.8031496062992126,"duration":0.2083333333333357},{"name":"C5","midi":72,"time":56.96458333333324,"velocity":0.7874015748031497,"duration":0.4229166666666657},{"name":"G#3","midi":56,"time":56.96458333333324,"velocity":0.8031496062992126,"duration":0.21041666666666714},{"name":"F4","midi":65,"time":57.174999999999905,"velocity":0.8031496062992126,"duration":0.38749999999999574},{"name":"B3","midi":59,"time":57.174999999999905,"velocity":0.8031496062992126,"duration":0.21041666666666714},{"name":"G#4","midi":68,"time":57.3874999999999,"velocity":0.7874015748031497,"duration":0.6333333333333258},{"name":"C4","midi":60,"time":57.389583333333235,"velocity":0.8031496062992126,"duration":1.6874999999999858},{"name":"F4","midi":65,"time":57.59583333333323,"velocity":0.8031496062992126,"duration":0.21249999999999858},{"name":"E4","midi":64,"time":57.81041666666656,"velocity":0.8031496062992126,"duration":0.4229166666666657},{"name":"C3","midi":48,"time":57.81041666666656,"velocity":0.8031496062992126,"duration":0.4229166666666657},{"name":"G4","midi":67,"time":58.02083333333323,"velocity":0.8031496062992126,"duration":0.21041666666666714},{"name":"C#3","midi":49,"time":58.23541666666656,"velocity":0.8031496062992126,"duration":1.6854166666666544},{"name":"F4","midi":65,"time":58.23541666666656,"velocity":0.8031496062992126,"duration":0.83958333333333},{"name":"G#4","midi":68,"time":58.441666666666556,"velocity":0.7874015748031497,"duration":0.21249999999999858},{"name":"C5","midi":72,"time":58.654166666666555,"velocity":0.7874015748031497,"duration":0.21041666666666714},{"name":"F5","midi":77,"time":58.86458333333322,"velocity":0.7874015748031497,"duration":0.38749999999999574},{"name":"A#3","midi":58,"time":59.07708333333322,"velocity":0.8031496062992126,"duration":0.8416666666666615},{"name":"G4","midi":67,"time":59.07916666666655,"velocity":0.8031496062992126,"duration":0.83958333333333},{"name":"F5","midi":77,"time":59.28749999999989,"velocity":0.7874015748031497,"duration":0.2083333333333357},{"name":"E5","midi":76,"time":59.497916666666555,"velocity":0.7874015748031497,"duration":0.21458333333333002},{"name":"G5","midi":79,"time":59.70416666666655,"velocity":0.7874015748031497,"duration":0.22083333333332433},{"name":"G#4","midi":68,"time":59.92083333333321,"velocity":0.7874015748031497,"duration":0.8437499999999929},{"name":"C4","midi":60,"time":59.922916666666545,"velocity":0.8031496062992126,"duration":0.8416666666666615},{"name":"C3","midi":48,"time":59.922916666666545,"velocity":0.8031496062992126,"duration":14.287499999999802},{"name":"C5","midi":72,"time":60.12916666666654,"velocity":0.7874015748031497,"duration":0.21875},{"name":"F5","midi":77,"time":60.33958333333321,"velocity":0.7874015748031497,"duration":0.22083333333333144},{"name":"E5","midi":76,"time":60.55208333333321,"velocity":0.7874015748031497,"duration":0.21875},{"name":"F5","midi":77,"time":60.76666666666654,"velocity":0.7874015748031497,"duration":0.8437500000000071},{"name":"G#3","midi":56,"time":60.76666666666654,"velocity":0.8031496062992126,"duration":0.8437500000000071},{"name":"C5","midi":72,"time":60.97499999999987,"velocity":0.7874015748031497,"duration":0.21666666666666856},{"name":"A#4","midi":70,"time":61.18749999999987,"velocity":0.7874015748031497,"duration":0.21250000000000568},{"name":"G#4","midi":68,"time":61.39999999999988,"velocity":0.7874015748031497,"duration":0.2083333333333357},{"name":"C#5","midi":73,"time":61.610416666666545,"velocity":0.7874015748031497,"duration":1.00416666666667},{"name":"A#3","midi":58,"time":61.612499999999876,"velocity":0.8031496062992126,"duration":0.8291666666666728},{"name":"G#4","midi":68,"time":61.81666666666654,"velocity":0.7874015748031497,"duration":0.2083333333333357},{"name":"G4","midi":67,"time":62.02499999999988,"velocity":0.8031496062992126,"duration":0.2083333333333357},{"name":"A#4","midi":70,"time":62.23333333333321,"velocity":0.7874015748031497,"duration":0.2083333333333357},{"name":"E4","midi":64,"time":62.44374999999988,"velocity":0.8031496062992126,"duration":0.8312499999999972},{"name":"G3","midi":55,"time":62.44374999999988,"velocity":0.8031496062992126,"duration":0.8333333333333286},{"name":"C#5","midi":73,"time":62.649999999999885,"velocity":0.7874015748031497,"duration":0.2083333333333357},{"name":"C5","midi":72,"time":62.86041666666655,"velocity":0.7874015748031497,"duration":0.20624999999999716},{"name":"A#4","midi":70,"time":63.06874999999988,"velocity":0.7874015748031497,"duration":0.20624999999999716},{"name":"G#4","midi":68,"time":63.27708333333321,"velocity":0.7874015748031497,"duration":1.02291666666666},{"name":"G#3","midi":56,"time":63.27916666666654,"velocity":0.8031496062992126,"duration":0.8458333333333314},{"name":"F4","midi":65,"time":63.27916666666654,"velocity":0.8031496062992126,"duration":0.20416666666666572},{"name":"D#4","midi":63,"time":63.483333333333206,"velocity":0.8031496062992126,"duration":0.21041666666666714},{"name":"D4","midi":62,"time":63.69374999999987,"velocity":0.8031496062992126,"duration":0.21458333333333002},{"name":"F4","midi":65,"time":63.910416666666535,"velocity":0.8031496062992126,"duration":0.21250000000000568},{"name":"B3","midi":59,"time":64.12499999999987,"velocity":0.8031496062992126,"duration":0.8395833333333229},{"name":"F3","midi":53,"time":64.12499999999987,"velocity":0.8031496062992126,"duration":0.8395833333333229},{"name":"G#4","midi":68,"time":64.33541666666653,"velocity":0.7874015748031497,"duration":0.21250000000000568},{"name":"G4","midi":67,"time":64.54791666666654,"velocity":0.8031496062992126,"duration":0.20624999999999716},{"name":"F4","midi":65,"time":64.75624999999987,"velocity":0.8031496062992126,"duration":0.20624999999999716},{"name":"E4","midi":64,"time":64.96666666666653,"velocity":0.8031496062992126,"duration":1.6791666666666458},{"name":"G3","midi":55,"time":64.96666666666653,"velocity":0.8031496062992126,"duration":0.8270833333333201},{"name":"C4","midi":60,"time":65.17291666666652,"velocity":0.8031496062992126,"duration":0.20624999999999716},{"name":"A#3","midi":58,"time":65.37916666666652,"velocity":0.8031496062992126,"duration":0.2083333333333286},{"name":"C#4","midi":61,"time":65.58749999999985,"velocity":0.8031496062992126,"duration":0.20624999999999716},{"name":"E3","midi":52,"time":65.79583333333318,"velocity":0.8031496062992126,"duration":0.8499999999999943},{"name":"G3","midi":55,"time":65.79583333333318,"velocity":0.8031496062992126,"duration":0.20624999999999716},{"name":"C#4","midi":61,"time":66.00208333333318,"velocity":0.8031496062992126,"duration":0.21041666666666003},{"name":"C4","midi":60,"time":66.21249999999984,"velocity":0.8031496062992126,"duration":0.21250000000000568},{"name":"A#3","midi":58,"time":66.42708333333317,"velocity":0.8031496062992126,"duration":0.21666666666666856},{"name":"F3","midi":53,"time":66.6479166666665,"velocity":0.8031496062992126,"duration":0.8333333333333144},{"name":"G#3","midi":56,"time":66.6479166666665,"velocity":0.8031496062992126,"duration":0.8333333333333144},{"name":"C5","midi":72,"time":66.8541666666665,"velocity":0.7874015748031497,"duration":0.21041666666666003},{"name":"A#4","midi":70,"time":67.06458333333316,"velocity":0.7874015748031497,"duration":0.21041666666666003},{"name":"C#5","midi":73,"time":67.27499999999982,"velocity":0.7874015748031497,"duration":0.20416666666666572},{"name":"A#3","midi":58,"time":67.48333333333315,"velocity":0.8031496062992126,"duration":0.8354166666666458},{"name":"E4","midi":64,"time":67.48333333333315,"velocity":0.8031496062992126,"duration":0.20624999999999716},{"name":"G3","midi":55,"time":67.48541666666648,"velocity":0.8031496062992126,"duration":0.831249999999983},{"name":"C#5","midi":73,"time":67.69166666666648,"velocity":0.7874015748031497,"duration":0.21041666666666003},{"name":"C5","midi":72,"time":67.90208333333314,"velocity":0.7874015748031497,"duration":0.2083333333333286},{"name":"A#4","midi":70,"time":68.11041666666647,"velocity":0.7874015748031497,"duration":0.20624999999999716},{"name":"G#4","midi":68,"time":68.3187499999998,"velocity":0.7874015748031497,"duration":0.20624999999999716},{"name":"G#3","midi":56,"time":68.32083333333313,"velocity":0.8031496062992126,"duration":0.8437499999999858},{"name":"C4","midi":60,"time":68.32083333333313,"velocity":0.8031496062992126,"duration":0.8458333333333172},{"name":"G5","midi":79,"time":68.52499999999979,"velocity":0.7716535433070866,"duration":0.21041666666666003},{"name":"F5","midi":77,"time":68.73749999999978,"velocity":0.7716535433070866,"duration":0.21041666666666003},{"name":"G#5","midi":80,"time":68.94999999999978,"velocity":0.7716535433070866,"duration":0.21458333333333712},{"name":"B4","midi":71,"time":69.16666666666644,"velocity":0.7716535433070866,"duration":0.21041666666666003},{"name":"F3","midi":53,"time":69.16874999999978,"velocity":0.8031496062992126,"duration":0.8437499999999858},{"name":"G#3","midi":56,"time":69.16874999999978,"velocity":0.8031496062992126,"duration":0.8458333333333172},{"name":"G#5","midi":80,"time":69.37916666666644,"velocity":0.7716535433070866,"duration":0.21250000000000568},{"name":"G5","midi":79,"time":69.59374999999977,"velocity":0.7716535433070866,"duration":0.21041666666666003},{"name":"F5","midi":77,"time":69.80416666666643,"velocity":0.7716535433070866,"duration":0.2083333333333286},{"name":"E5","midi":76,"time":70.01458333333309,"velocity":0.7716535433070866,"duration":0.20624999999999716},{"name":"G3","midi":55,"time":70.01666666666642,"velocity":0.8031496062992126,"duration":0.8374999999999773},{"name":"A#3","midi":58,"time":70.01666666666642,"velocity":0.8031496062992126,"duration":0.8395833333333087},{"name":"F5","midi":77,"time":70.22083333333309,"velocity":0.7716535433070866,"duration":0.21041666666666003},{"name":"G5","midi":79,"time":70.43333333333308,"velocity":0.7716535433070866,"duration":0.21041666666666003},{"name":"E5","midi":76,"time":70.64583333333307,"velocity":0.7716535433070866,"duration":0.2083333333333286},{"name":"A#5","midi":82,"time":70.85624999999973,"velocity":0.7716535433070866,"duration":0.21041666666666003},{"name":"E3","midi":52,"time":70.85833333333306,"velocity":0.8031496062992126,"duration":0.8291666666666515},{"name":"G3","midi":55,"time":70.85833333333306,"velocity":0.8031496062992126,"duration":0.8291666666666515},{"name":"C#5","midi":73,"time":71.06874999999972,"velocity":0.7716535433070866,"duration":0.20624999999999716},{"name":"C5","midi":72,"time":71.27708333333305,"velocity":0.7716535433070866,"duration":0.2083333333333286},{"name":"A#4","midi":70,"time":71.48541666666638,"velocity":0.7716535433070866,"duration":0.20208333333333428},{"name":"G#4","midi":68,"time":71.68958333333305,"velocity":0.7716535433070866,"duration":0.20208333333333428},{"name":"F3","midi":53,"time":71.68958333333305,"velocity":0.8031496062992126,"duration":1.662499999999966},{"name":"C4","midi":60,"time":71.69166666666638,"velocity":0.8031496062992126,"duration":0.831249999999983},{"name":"A#4","midi":70,"time":71.89166666666638,"velocity":0.7716535433070866,"duration":0.2083333333333286},{"name":"C5","midi":72,"time":72.10208333333304,"velocity":0.7716535433070866,"duration":0.2083333333333286},{"name":"F4","midi":65,"time":72.3124999999997,"velocity":0.8031496062992126,"duration":0.2083333333333286},{"name":"D5","midi":74,"time":72.52291666666636,"velocity":0.7716535433070866,"duration":0.20208333333333428},{"name":"B3","midi":59,"time":72.5249999999997,"velocity":0.8031496062992126,"duration":0.8270833333333201},{"name":"G#4","midi":68,"time":72.7249999999997,"velocity":0.7716535433070866,"duration":0.20624999999999716},{"name":"G4","midi":67,"time":72.9312499999997,"velocity":0.8031496062992126,"duration":0.21041666666666003},{"name":"F4","midi":65,"time":73.14166666666635,"velocity":0.8031496062992126,"duration":0.2083333333333286},{"name":"E4","midi":64,"time":73.35416666666634,"velocity":0.8031496062992126,"duration":0.8562500000000028},{"name":"G3","midi":55,"time":73.35416666666634,"velocity":0.8031496062992126,"duration":0.36249999999999716},{"name":"C4","midi":60,"time":73.56249999999967,"velocity":0.8031496062992126,"duration":0.21041666666667425},{"name":"G3","midi":55,"time":73.77499999999968,"velocity":0.8031496062992126,"duration":0.21666666666666856},{"name":"A#3","midi":58,"time":73.99166666666635,"velocity":0.8031496062992126,"duration":0.21666666666666856},{"name":"F4","midi":65,"time":74.21249999999968,"velocity":0.8031496062992126,"duration":1.9124999999999943},{"name":"G#3","midi":56,"time":74.21249999999968,"velocity":0.8031496062992126,"duration":0.9124999999999943},{"name":"F3","midi":53,"time":74.43333333333301,"velocity":0.8031496062992126,"duration":0.22291666666666288},{"name":"B2","midi":47,"time":74.658333333333,"velocity":0.8031496062992126,"duration":0.23333333333333428},{"name":"D3","midi":50,"time":74.89166666666634,"velocity":0.8031496062992126,"duration":0.23333333333333428},{"name":"G3","midi":55,"time":75.127083333333,"velocity":0.8031496062992126,"duration":0.4833333333333343},{"name":"C2","midi":36,"time":75.127083333333,"velocity":0.8031496062992126,"duration":2.5791666666666515},{"name":"D4","midi":62,"time":75.36666666666633,"velocity":0.8031496062992126,"duration":0.24375000000000568},{"name":"F3","midi":53,"time":75.61249999999967,"velocity":0.8031496062992126,"duration":0.5125000000000028},{"name":"B3","midi":59,"time":75.61249999999967,"velocity":0.8031496062992126,"duration":0.25208333333333144},{"name":"C4","midi":60,"time":75.86666666666633,"velocity":0.8031496062992126,"duration":0.25833333333333997},{"name":"G3","midi":55,"time":76.12499999999967,"velocity":0.8031496062992126,"duration":1.5791666666666515},{"name":"A#3","midi":58,"time":76.458333333333,"velocity":0.8031496062992126,"duration":1.245833333333323},{"name":"C4","midi":60,"time":76.79166666666633,"velocity":0.8031496062992126,"duration":0.9104166666666629},{"name":"E4","midi":64,"time":77.21874999999966,"velocity":0.8031496062992126,"duration":0.4833333333333343},{"name":"C4","midi":60,"time":77.70624999999966,"velocity":0.5196850393700787,"duration":4.568749999999994},{"name":"A3","midi":57,"time":77.70833333333299,"velocity":0.5196850393700787,"duration":4.564583333333331},{"name":"F3","midi":53,"time":77.70833333333299,"velocity":0.5196850393700787,"duration":4.564583333333331},{"name":"F4","midi":65,"time":77.71041666666632,"velocity":0.5196850393700787,"duration":4.5625},{"name":"F2","midi":41,"time":77.71041666666632,"velocity":0.7637795275590551,"duration":4.560416666666669},{"name":"C4","midi":60,"time":83.99583333333298,"velocity":0.8031496062992126,"duration":0.8250000000000028},{"name":"C#4","midi":61,"time":84.82291666666632,"velocity":0.8031496062992126,"duration":0.82083333333334},{"name":"C4","midi":60,"time":85.64583333333299,"velocity":0.8031496062992126,"duration":0.7979166666666657},{"name":"B3","midi":59,"time":86.44583333333298,"velocity":0.8031496062992126,"duration":0.7979166666666657},{"name":"E4","midi":64,"time":87.24583333333298,"velocity":0.8031496062992126,"duration":0.7874999999999943},{"name":"F4","midi":65,"time":88.03541666666631,"velocity":0.8031496062992126,"duration":0.78958333333334},{"name":"A#3","midi":58,"time":88.82499999999965,"velocity":0.8031496062992126,"duration":0.78958333333334},{"name":"A3","midi":57,"time":89.61458333333299,"velocity":0.8031496062992126,"duration":0.7791666666666686},{"name":"G#3","midi":56,"time":90.39374999999966,"velocity":0.8031496062992126,"duration":0.78125},{"name":"G3","midi":55,"time":91.17499999999966,"velocity":0.8031496062992126,"duration":1.5416666666666714},{"name":"F3","midi":53,"time":92.71874999999966,"velocity":0.8031496062992126,"duration":0.3708333333333371},{"name":"F3","midi":53,"time":93.089583333333,"velocity":0.8031496062992126,"duration":0.18958333333333144},{"name":"G3","midi":55,"time":93.27916666666633,"velocity":0.8031496062992126,"duration":0.18958333333334565},{"name":"F4","midi":65,"time":93.470833333333,"velocity":0.8031496062992126,"duration":0.7437500000000057},{"name":"G#3","midi":56,"time":93.470833333333,"velocity":0.8031496062992126,"duration":0.37291666666666856},{"name":"G#3","midi":56,"time":93.84374999999967,"velocity":0.8031496062992126,"duration":0.18333333333333712},{"name":"A#3","midi":58,"time":94.02708333333301,"velocity":0.8031496062992126,"duration":0.18541666666666856},{"name":"G#4","midi":68,"time":94.21458333333301,"velocity":0.7874015748031497,"duration":0.7333333333333485},{"name":"C4","midi":60,"time":94.21666666666634,"velocity":0.8031496062992126,"duration":0.18125000000000568},{"name":"B2","midi":47,"time":94.39791666666635,"velocity":0.8031496062992126,"duration":0.18333333333333712},{"name":"C3","midi":48,"time":94.58124999999968,"velocity":0.8031496062992126,"duration":0.18125000000000568},{"name":"D3","midi":50,"time":94.76458333333302,"velocity":0.8031496062992126,"duration":0.18333333333333712},{"name":"G4","midi":67,"time":94.94999999999969,"velocity":0.8031496062992126,"duration":0.72708333333334},{"name":"D#3","midi":51,"time":94.94999999999969,"velocity":0.8031496062992126,"duration":0.7291666666666714},{"name":"F#4","midi":66,"time":95.67916666666636,"velocity":0.8031496062992126,"duration":0.731250000000017},{"name":"C3","midi":48,"time":95.8624999999997,"velocity":0.8031496062992126,"duration":0.18125000000000568},{"name":"D3","midi":50,"time":96.04583333333304,"velocity":0.8031496062992126,"duration":0.18125000000000568},{"name":"D#3","midi":51,"time":96.22708333333304,"velocity":0.8031496062992126,"duration":0.18333333333333712},{"name":"B4","midi":71,"time":96.41249999999971,"velocity":0.7874015748031497,"duration":0.7270833333333258},{"name":"F3","midi":53,"time":96.41249999999971,"velocity":0.8031496062992126,"duration":0.7249999999999943},{"name":"C5","midi":72,"time":97.13958333333304,"velocity":0.7874015748031497,"duration":0.72708333333334},{"name":"D#3","midi":51,"time":97.32083333333304,"velocity":0.8031496062992126,"duration":0.18333333333333712},{"name":"F3","midi":53,"time":97.50416666666638,"velocity":0.8031496062992126,"duration":0.18125000000000568},{"name":"G3","midi":55,"time":97.68749999999972,"velocity":0.8031496062992126,"duration":0.17916666666666003},{"name":"F4","midi":65,"time":97.86874999999971,"velocity":0.8031496062992126,"duration":0.7208333333333314},{"name":"G#3","midi":56,"time":97.86874999999971,"velocity":0.8031496062992126,"duration":0.7229166666666629},{"name":"E4","midi":64,"time":98.59166666666637,"velocity":0.8031496062992126,"duration":0.7395833333333428},{"name":"G3","midi":55,"time":98.77499999999971,"velocity":0.8031496062992126,"duration":0.18541666666666856},{"name":"A3","midi":57,"time":98.96041666666638,"velocity":0.8031496062992126,"duration":0.18333333333333712},{"name":"B3","midi":59,"time":99.14583333333304,"velocity":0.8031496062992126,"duration":0.18333333333333712},{"name":"C4","midi":60,"time":99.33124999999971,"velocity":0.8031496062992126,"duration":1.1104166666666657},{"name":"D#4","midi":63,"time":99.33333333333304,"velocity":0.8031496062992126,"duration":0.7374999999999972},{"name":"D4","midi":62,"time":100.07083333333304,"velocity":0.8031496062992126,"duration":1.4833333333333343},{"name":"B3","midi":59,"time":100.44166666666638,"velocity":0.8031496062992126,"duration":0.18541666666666856},{"name":"A3","midi":57,"time":100.62708333333305,"velocity":0.8031496062992126,"duration":0.18541666666666856},{"name":"C4","midi":60,"time":100.81249999999972,"velocity":0.8031496062992126,"duration":0.06666666666666288},{"name":"B3","midi":59,"time":100.88124999999971,"velocity":0.8031496062992126,"duration":0.07916666666666572},{"name":"C4","midi":60,"time":100.94791666666637,"velocity":0.8031496062992126,"duration":0.08125000000001137},{"name":"B3","midi":59,"time":101.01666666666638,"velocity":0.8031496062992126,"duration":0.07916666666666572},{"name":"C4","midi":60,"time":101.08124999999971,"velocity":0.8031496062992126,"duration":0.06874999999999432},{"name":"B3","midi":59,"time":101.15208333333304,"velocity":0.8031496062992126,"duration":0.4000000000000057},{"name":"C4","midi":60,"time":101.55416666666638,"velocity":0.8031496062992126,"duration":0.3687500000000057},{"name":"C4","midi":60,"time":101.92499999999971,"velocity":0.8031496062992126,"duration":0.18333333333333712},{"name":"G3","midi":55,"time":101.92499999999971,"velocity":0.8031496062992126,"duration":0.3687500000000057},{"name":"D4","midi":62,"time":102.11041666666638,"velocity":0.8031496062992126,"duration":0.18333333333333712},{"name":"C4","midi":60,"time":102.29583333333305,"velocity":0.8031496062992126,"duration":0.3687499999999915},{"name":"E4","midi":64,"time":102.29583333333305,"velocity":0.8031496062992126,"duration":0.3708333333333229},{"name":"C3","midi":48,"time":102.29791666666638,"velocity":0.8031496062992126,"duration":0.7395833333333286},{"name":"A#3","midi":58,"time":102.66666666666637,"velocity":0.8031496062992126,"duration":0.3687500000000057},{"name":"D4","midi":62,"time":102.6687499999997,"velocity":0.8031496062992126,"duration":0.18125000000000568},{"name":"E4","midi":64,"time":102.84999999999971,"velocity":0.8031496062992126,"duration":0.18541666666666856},{"name":"C#3","midi":49,"time":103.03749999999971,"velocity":0.8031496062992126,"duration":0.737499999999983},{"name":"F4","midi":65,"time":103.03958333333304,"velocity":0.8031496062992126,"duration":0.17916666666666003},{"name":"G#3","midi":56,"time":103.03958333333304,"velocity":0.8031496062992126,"duration":0.3666666666666458},{"name":"E3","midi":52,"time":103.22083333333303,"velocity":0.8031496062992126,"duration":0.1833333333333229},{"name":"F4","midi":65,"time":103.40624999999969,"velocity":0.8031496062992126,"duration":0.7395833333333428},{"name":"F3","midi":53,"time":103.40833333333302,"velocity":0.8031496062992126,"duration":0.18333333333333712},{"name":"G3","midi":55,"time":103.59166666666636,"velocity":0.8031496062992126,"duration":0.18333333333333712},{"name":"G#3","midi":56,"time":103.77708333333302,"velocity":0.8031496062992126,"duration":0.7416666666666742},{"name":"C3","midi":48,"time":103.77708333333302,"velocity":0.8031496062992126,"duration":0.7416666666666742},{"name":"D#4","midi":63,"time":104.14583333333303,"velocity":0.8031496062992126,"duration":0.3708333333333371},{"name":"D4","midi":62,"time":104.52083333333303,"velocity":0.8031496062992126,"duration":0.36249999999999716},{"name":"B2","midi":47,"time":104.52083333333303,"velocity":0.8031496062992126,"duration":0.7291666666666572},{"name":"F3","midi":53,"time":104.69999999999969,"velocity":0.8031496062992126,"duration":0.18333333333333712},{"name":"D#4","midi":63,"time":104.88541666666636,"velocity":0.8031496062992126,"duration":0.17916666666666003},{"name":"G3","midi":55,"time":104.88541666666636,"velocity":0.8031496062992126,"duration":0.18124999999999147},{"name":"G#3","midi":56,"time":105.06666666666635,"velocity":0.8031496062992126,"duration":0.18333333333333712},{"name":"F4","midi":65,"time":105.06874999999968,"velocity":0.8031496062992126,"duration":0.18125000000000568},{"name":"E3","midi":52,"time":105.25208333333302,"velocity":0.8031496062992126,"duration":0.7354166666666657},{"name":"G4","midi":67,"time":105.25208333333302,"velocity":0.8031496062992126,"duration":0.17916666666666003},{"name":"A#3","midi":58,"time":105.25416666666635,"velocity":0.8031496062992126,"duration":0.7333333333333343},{"name":"F4","midi":65,"time":105.43124999999968,"velocity":0.8031496062992126,"duration":0.18541666666666856},{"name":"E4","midi":64,"time":105.61666666666635,"velocity":0.8031496062992126,"duration":0.18541666666666856},{"name":"D4","midi":62,"time":105.80208333333302,"velocity":0.8031496062992126,"duration":0.18333333333333712},{"name":"F3","midi":53,"time":105.98749999999968,"velocity":0.8031496062992126,"duration":0.7416666666666742},{"name":"C4","midi":60,"time":105.98958333333302,"velocity":0.8031496062992126,"duration":0.7375000000000114},{"name":"G#3","midi":56,"time":106.17083333333302,"velocity":0.8031496062992126,"duration":0.1875},{"name":"A#3","midi":58,"time":106.35833333333302,"velocity":0.8031496062992126,"duration":0.18333333333333712},{"name":"C4","midi":60,"time":106.54374999999969,"velocity":0.8031496062992126,"duration":0.18541666666666856},{"name":"C#4","midi":61,"time":106.73124999999969,"velocity":0.8031496062992126,"duration":0.731250000000017},{"name":"A#2","midi":46,"time":106.73124999999969,"velocity":0.8031496062992126,"duration":0.7291666666666856},{"name":"A#3","midi":58,"time":106.9124999999997,"velocity":0.8031496062992126,"duration":0.18125000000000568},{"name":"G#3","midi":56,"time":107.09583333333303,"velocity":0.8031496062992126,"duration":0.18125000000000568},{"name":"G3","midi":55,"time":107.27916666666637,"velocity":0.8031496062992126,"duration":0.18125000000000568},{"name":"F3","midi":53,"time":107.46249999999971,"velocity":0.8031496062992126,"duration":0.7333333333333343},{"name":"A2","midi":45,"time":107.46458333333304,"velocity":0.8031496062992126,"duration":0.7291666666666714},{"name":"C4","midi":60,"time":107.6437499999997,"velocity":0.8031496062992126,"duration":0.18333333333333712},{"name":"D4","midi":62,"time":107.82916666666637,"velocity":0.8031496062992126,"duration":0.18125000000000568},{"name":"E4","midi":64,"time":108.01041666666637,"velocity":0.8031496062992126,"duration":0.18333333333333712},{"name":"F4","midi":65,"time":108.19583333333304,"velocity":0.8031496062992126,"duration":1.09375},{"name":"G#2","midi":44,"time":108.19791666666637,"velocity":0.8031496062992126,"duration":0.72708333333334},{"name":"F3","midi":53,"time":108.3749999999997,"velocity":0.8031496062992126,"duration":0.18333333333333712},{"name":"G3","midi":55,"time":108.55833333333304,"velocity":0.8031496062992126,"duration":0.18541666666666856},{"name":"G#3","midi":56,"time":108.74374999999971,"velocity":0.8031496062992126,"duration":0.18125000000000568},{"name":"A#3","midi":58,"time":108.92499999999971,"velocity":0.8031496062992126,"duration":1.0979166666666629},{"name":"G2","midi":43,"time":108.92708333333304,"velocity":0.8031496062992126,"duration":1.4645833333333371},{"name":"E4","midi":64,"time":109.29166666666637,"velocity":0.8031496062992126,"duration":0.18333333333333712},{"name":"D4","midi":62,"time":109.47499999999971,"velocity":0.8031496062992126,"duration":0.18125000000000568},{"name":"E4","midi":64,"time":109.65624999999972,"velocity":0.8031496062992126,"duration":0.7333333333333343},{"name":"G#3","midi":56,"time":110.02291666666638,"velocity":0.8031496062992126,"duration":0.18333333333333712},{"name":"G3","midi":55,"time":110.20624999999971,"velocity":0.8031496062992126,"duration":0.18125000000000568},{"name":"G#3","midi":56,"time":110.39166666666638,"velocity":0.8031496062992126,"duration":0.74166666666666},{"name":"F4","midi":65,"time":110.39166666666638,"velocity":0.8031496062992126,"duration":0.36666666666666003},{"name":"F2","midi":41,"time":110.39374999999971,"velocity":0.8031496062992126,"duration":0.7374999999999972},{"name":"F4","midi":65,"time":110.75833333333304,"velocity":0.8031496062992126,"duration":0.1875},{"name":"G4","midi":67,"time":110.94583333333304,"velocity":0.8031496062992126,"duration":0.18541666666666856},{"name":"G#4","midi":68,"time":111.13333333333304,"velocity":0.8031496062992126,"duration":0.36666666666666003},{"name":"G#4","midi":68,"time":111.4999999999997,"velocity":0.8031496062992126,"duration":0.18125000000000568},{"name":"F3","midi":53,"time":111.4999999999997,"velocity":0.8031496062992126,"duration":0.18125000000000568},{"name":"A#4","midi":70,"time":111.68333333333304,"velocity":0.8031496062992126,"duration":0.18333333333333712},{"name":"G3","midi":55,"time":111.68333333333304,"velocity":0.8031496062992126,"duration":0.18125000000000568},{"name":"C5","midi":72,"time":111.86666666666638,"velocity":0.8031496062992126,"duration":0.9124999999999801},{"name":"G#3","midi":56,"time":111.86874999999971,"velocity":0.8031496062992126,"duration":0.36249999999999716},{"name":"G#3","midi":56,"time":112.2312499999997,"velocity":0.8031496062992126,"duration":0.1833333333333229},{"name":"C4","midi":60,"time":112.23333333333304,"velocity":0.8031496062992126,"duration":0.17916666666666003},{"name":"A#3","midi":58,"time":112.41458333333303,"velocity":0.8031496062992126,"duration":0.18124999999999147},{"name":"C#4","midi":61,"time":112.41666666666636,"velocity":0.8031496062992126,"duration":0.17916666666666003},{"name":"D#4","midi":63,"time":112.59791666666635,"velocity":0.8031496062992126,"duration":1.1041666666666714},{"name":"C4","midi":60,"time":112.59791666666635,"velocity":0.8031496062992126,"duration":0.3645833333333428},{"name":"A#4","midi":70,"time":112.77916666666636,"velocity":0.8031496062992126,"duration":0.18125000000000568},{"name":"G#4","midi":68,"time":112.9624999999997,"velocity":0.8031496062992126,"duration":0.18541666666666856},{"name":"C3","midi":48,"time":112.96458333333302,"velocity":0.8031496062992126,"duration":0.3687500000000057},{"name":"F#4","midi":66,"time":113.14791666666636,"velocity":0.8031496062992126,"duration":0.18541666666666856},{"name":"C#3","midi":49,"time":113.33541666666636,"velocity":0.8031496062992126,"duration":0.7395833333333286},{"name":"F4","midi":65,"time":113.33541666666636,"velocity":0.8031496062992126,"duration":0.7395833333333286},{"name":"C#4","midi":61,"time":113.70416666666635,"velocity":0.8031496062992126,"duration":0.18333333333333712},{"name":"D#4","midi":63,"time":113.88749999999969,"velocity":0.8031496062992126,"duration":0.18541666666666856},{"name":"F4","midi":65,"time":114.07499999999969,"velocity":0.8031496062992126,"duration":0.3687500000000057},{"name":"C#3","midi":49,"time":114.4437499999997,"velocity":0.8031496062992126,"duration":0.18541666666666856},{"name":"F4","midi":65,"time":114.44583333333303,"velocity":0.8031496062992126,"duration":0.18333333333333712},{"name":"D#3","midi":51,"time":114.6312499999997,"velocity":0.8031496062992126,"duration":0.18124999999999147},{"name":"G4","midi":67,"time":114.6312499999997,"velocity":0.8031496062992126,"duration":0.17916666666666003},{"name":"G#4","midi":68,"time":114.81249999999969,"velocity":0.8031496062992126,"duration":0.9124999999999801},{"name":"F3","midi":53,"time":114.81458333333302,"velocity":0.8031496062992126,"duration":0.36249999999999716},{"name":"F3","midi":53,"time":115.17916666666635,"velocity":0.8031496062992126,"duration":0.18124999999999147},{"name":"G#3","midi":56,"time":115.17916666666635,"velocity":0.8031496062992126,"duration":0.17916666666666003},{"name":"A#3","midi":58,"time":115.36249999999967,"velocity":0.8031496062992126,"duration":0.18125000000000568},{"name":"G3","midi":55,"time":115.36249999999967,"velocity":0.8031496062992126,"duration":0.18333333333333712},{"name":"C4","midi":60,"time":115.54583333333301,"velocity":0.8031496062992126,"duration":1.09999999999998},{"name":"G#3","midi":56,"time":115.54583333333301,"velocity":0.8031496062992126,"duration":0.3645833333333286},{"name":"F#4","midi":66,"time":115.72499999999967,"velocity":0.8031496062992126,"duration":0.18541666666666856},{"name":"F4","midi":65,"time":115.91041666666634,"velocity":0.8031496062992126,"duration":0.18124999999999147},{"name":"G#2","midi":44,"time":115.91249999999967,"velocity":0.8031496062992126,"duration":0.3645833333333286},{"name":"D#4","midi":63,"time":116.09374999999966,"velocity":0.8031496062992126,"duration":0.18125000000000568},{"name":"C#4","midi":61,"time":116.277083333333,"velocity":0.8031496062992126,"duration":0.74166666666666},{"name":"A#2","midi":46,"time":116.27916666666633,"velocity":0.8031496062992126,"duration":0.7374999999999972},{"name":"A#3","midi":58,"time":116.64791666666632,"velocity":0.8031496062992126,"duration":0.18125000000000568},{"name":"C4","midi":60,"time":116.83124999999966,"velocity":0.8031496062992126,"duration":0.18541666666666856},{"name":"C#4","midi":61,"time":117.01874999999966,"velocity":0.8031496062992126,"duration":0.36666666666666003},{"name":"C#4","midi":61,"time":117.38749999999965,"velocity":0.8031496062992126,"duration":0.18541666666666856},{"name":"A#2","midi":46,"time":117.38749999999965,"velocity":0.8031496062992126,"duration":0.18541666666666856},{"name":"D#4","midi":63,"time":117.57499999999965,"velocity":0.8031496062992126,"duration":0.18333333333333712},{"name":"C3","midi":48,"time":117.57499999999965,"velocity":0.8031496062992126,"duration":0.18333333333333712},{"name":"F4","midi":65,"time":117.76041666666632,"velocity":0.8031496062992126,"duration":1.4812500000000028},{"name":"C#3","midi":49,"time":117.76041666666632,"velocity":0.8031496062992126,"duration":0.36666666666666003},{"name":"C#3","midi":49,"time":118.12916666666631,"velocity":0.8031496062992126,"duration":0.18541666666666856},{"name":"F3","midi":53,"time":118.12916666666631,"velocity":0.8031496062992126,"duration":0.18541666666666856},{"name":"D#3","midi":51,"time":118.31666666666631,"velocity":0.8031496062992126,"duration":0.18333333333333712},{"name":"G3","midi":55,"time":118.31666666666631,"velocity":0.8031496062992126,"duration":0.18125000000000568},{"name":"F3","midi":53,"time":118.49999999999964,"velocity":0.8031496062992126,"duration":0.3687500000000057},{"name":"G#3","midi":56,"time":118.49999999999964,"velocity":0.8031496062992126,"duration":0.3687500000000057},{"name":"G#3","midi":56,"time":118.87083333333298,"velocity":0.8031496062992126,"duration":0.18333333333333712},{"name":"F2","midi":41,"time":118.87083333333298,"velocity":0.8031496062992126,"duration":0.3708333333333371},{"name":"A#3","midi":58,"time":119.05416666666632,"velocity":0.8031496062992126,"duration":0.18541666666666856},{"name":"C4","midi":60,"time":119.24374999999965,"velocity":0.8031496062992126,"duration":0.36666666666666003},{"name":"C3","midi":48,"time":119.24374999999965,"velocity":0.8031496062992126,"duration":0.36666666666666003},{"name":"E4","midi":64,"time":119.61249999999964,"velocity":0.8031496062992126,"duration":0.1833333333333229},{"name":"G3","midi":55,"time":119.61249999999964,"velocity":0.8031496062992126,"duration":0.3687499999999915},{"name":"C3","midi":48,"time":119.61458333333297,"velocity":0.8031496062992126,"duration":0.17916666666666003},{"name":"D3","midi":50,"time":119.79583333333296,"velocity":0.8031496062992126,"duration":0.18541666666666856},{"name":"F4","midi":65,"time":119.7979166666663,"velocity":0.8031496062992126,"duration":0.18333333333333712},{"name":"C5","midi":72,"time":119.98333333333296,"velocity":0.8031496062992126,"duration":0.7395833333333286},{"name":"G4","midi":67,"time":119.98333333333296,"velocity":0.8031496062992126,"duration":1.1104166666666657},{"name":"E3","midi":52,"time":119.9854166666663,"velocity":0.8031496062992126,"duration":0.3645833333333286},{"name":"C4","midi":60,"time":119.9854166666663,"velocity":0.8031496062992126,"duration":0.36666666666666003},{"name":"A#3","midi":58,"time":120.35208333333296,"velocity":0.8031496062992126,"duration":0.3708333333333371},{"name":"D3","midi":50,"time":120.35208333333296,"velocity":0.8031496062992126,"duration":0.18541666666666856},{"name":"E3","midi":52,"time":120.53749999999962,"velocity":0.8031496062992126,"duration":0.18333333333333712},{"name":"C#5","midi":73,"time":120.72499999999962,"velocity":0.8031496062992126,"duration":0.7395833333333428},{"name":"G#3","midi":56,"time":120.72499999999962,"velocity":0.8031496062992126,"duration":0.18333333333333712},{"name":"F3","midi":53,"time":120.72499999999962,"velocity":0.8031496062992126,"duration":0.18125000000000568},{"name":"E2","midi":40,"time":120.90833333333296,"velocity":0.8031496062992126,"duration":0.18541666666666856},{"name":"F4","midi":65,"time":121.09583333333296,"velocity":0.8031496062992126,"duration":0.7375000000000114},{"name":"F2","midi":41,"time":121.09583333333296,"velocity":0.8031496062992126,"duration":0.18125000000000568},{"name":"G2","midi":43,"time":121.27708333333297,"velocity":0.8031496062992126,"duration":0.18541666666666856},{"name":"C5","midi":72,"time":121.46458333333297,"velocity":0.8031496062992126,"duration":0.7416666666666742},{"name":"G#2","midi":44,"time":121.4666666666663,"velocity":0.8031496062992126,"duration":0.7375000000000114},{"name":"C3","midi":48,"time":121.6479166666663,"velocity":0.8031496062992126,"duration":0.18541666666666856},{"name":"D#4","midi":63,"time":121.8354166666663,"velocity":0.8031496062992126,"duration":0.3687500000000057},{"name":"D3","midi":50,"time":121.8354166666663,"velocity":0.8031496062992126,"duration":0.18333333333333712},{"name":"D#3","midi":51,"time":122.02083333333297,"velocity":0.8031496062992126,"duration":0.18125000000000568},{"name":"B4","midi":71,"time":122.20624999999964,"velocity":0.8031496062992126,"duration":0.7416666666666742},{"name":"F3","midi":53,"time":122.20833333333297,"velocity":0.8031496062992126,"duration":0.7395833333333428},{"name":"D4","midi":62,"time":122.20833333333297,"velocity":0.8031496062992126,"duration":0.36666666666667425},{"name":"F2","midi":41,"time":122.38958333333298,"velocity":0.8031496062992126,"duration":0.18333333333333712},{"name":"D#4","midi":63,"time":122.57499999999965,"velocity":0.8031496062992126,"duration":0.18541666666666856},{"name":"G2","midi":43,"time":122.57499999999965,"velocity":0.8031496062992126,"duration":0.18333333333333712},{"name":"F4","midi":65,"time":122.76041666666632,"velocity":0.8031496062992126,"duration":0.18541666666666856},{"name":"G#2","midi":44,"time":122.76249999999965,"velocity":0.8031496062992126,"duration":0.18333333333333712},{"name":"E5","midi":76,"time":122.94999999999965,"velocity":0.8031496062992126,"duration":0.7374999999999972},{"name":"G4","midi":67,"time":122.94999999999965,"velocity":0.8031496062992126,"duration":0.17916666666666003},{"name":"A#2","midi":46,"time":122.94999999999965,"velocity":0.8031496062992126,"duration":0.7374999999999972},{"name":"F4","midi":65,"time":123.12916666666631,"velocity":0.8031496062992126,"duration":0.18541666666666856},{"name":"E4","midi":64,"time":123.31666666666631,"velocity":0.8031496062992126,"duration":0.18333333333333712},{"name":"G3","midi":55,"time":123.31666666666631,"velocity":0.8031496062992126,"duration":0.3687500000000057},{"name":"D4","midi":62,"time":123.49999999999964,"velocity":0.8031496062992126,"duration":0.18541666666666856},{"name":"F5","midi":77,"time":123.68958333333298,"velocity":0.8031496062992126,"duration":0.7374999999999972},{"name":"C4","midi":60,"time":123.68958333333298,"velocity":0.8031496062992126,"duration":0.36666666666666003},{"name":"G#3","midi":56,"time":123.69166666666631,"velocity":0.8031496062992126,"duration":0.3645833333333286},{"name":"G#2","midi":44,"time":123.86874999999964,"velocity":0.8031496062992126,"duration":0.18541666666666856},{"name":"A#2","midi":46,"time":124.05833333333297,"velocity":0.8031496062992126,"duration":0.18333333333333712},{"name":"C3","midi":48,"time":124.2416666666663,"velocity":0.8031496062992126,"duration":0.18541666666666856},{"name":"A#4","midi":70,"time":124.4291666666663,"velocity":0.8031496062992126,"duration":0.7416666666666742},{"name":"C#3","midi":49,"time":124.4291666666663,"velocity":0.8031496062992126,"duration":0.7416666666666742},{"name":"A#3","midi":58,"time":124.61041666666631,"velocity":0.8031496062992126,"duration":0.16249999999999432},{"name":"A#3","midi":58,"time":124.79791666666631,"velocity":0.8031496062992126,"duration":0.3708333333333371},{"name":"G#3","midi":56,"time":124.79791666666631,"velocity":0.8031496062992126,"duration":0.18541666666666856},{"name":"G3","midi":55,"time":124.98333333333298,"velocity":0.8031496062992126,"duration":0.18541666666666856},{"name":"A4","midi":69,"time":125.17083333333298,"velocity":0.8031496062992126,"duration":0.7395833333333428},{"name":"C4","midi":60,"time":125.17291666666631,"velocity":0.8031496062992126,"duration":0.7354166666666799},{"name":"F3","midi":53,"time":125.17291666666631,"velocity":0.8031496062992126,"duration":0.7104166666666742},{"name":"C3","midi":48,"time":125.35416666666632,"velocity":0.8031496062992126,"duration":0.18333333333333712},{"name":"D3","midi":50,"time":125.53749999999965,"velocity":0.8031496062992126,"duration":0.1875},{"name":"E3","midi":52,"time":125.72499999999965,"velocity":0.8031496062992126,"duration":0.18333333333333712},{"name":"G#4","midi":68,"time":125.91041666666632,"velocity":0.8031496062992126,"duration":0.7416666666666742},{"name":"F3","midi":53,"time":125.91249999999965,"velocity":0.8031496062992126,"duration":0.15625},{"name":"F3","midi":53,"time":126.09374999999966,"velocity":0.8031496062992126,"duration":0.18541666666666856},{"name":"C4","midi":60,"time":126.28124999999966,"velocity":0.8031496062992126,"duration":0.3687500000000057},{"name":"G3","midi":55,"time":126.28124999999966,"velocity":0.8031496062992126,"duration":0.18333333333333712},{"name":"G#3","midi":56,"time":126.464583333333,"velocity":0.8031496062992126,"duration":0.18541666666666856},{"name":"A#3","midi":58,"time":126.652083333333,"velocity":0.8031496062992126,"duration":0.7374999999999972},{"name":"G4","midi":67,"time":126.65416666666633,"velocity":0.8031496062992126,"duration":1.8479166666666629},{"name":"C#4","midi":61,"time":126.65416666666633,"velocity":0.8031496062992126,"duration":0.36666666666666003},{"name":"E3","midi":52,"time":127.02083333333299,"velocity":0.8031496062992126,"duration":0.18541666666666856},{"name":"C4","midi":60,"time":127.02291666666632,"velocity":0.8031496062992126,"duration":0.18333333333333712},{"name":"A#3","midi":58,"time":127.20833333333299,"velocity":0.8031496062992126,"duration":0.5520833333333286},{"name":"D3","midi":50,"time":127.20833333333299,"velocity":0.8031496062992126,"duration":0.18333333333333712},{"name":"C4","midi":60,"time":127.39166666666632,"velocity":0.8031496062992126,"duration":1.4833333333333343},{"name":"E3","midi":52,"time":127.39374999999966,"velocity":0.8031496062992126,"duration":0.7395833333333286},{"name":"G#3","midi":56,"time":127.76041666666632,"velocity":0.8031496062992126,"duration":0.18541666666666856},{"name":"G3","midi":55,"time":127.94791666666632,"velocity":0.8031496062992126,"duration":0.18333333333333712},{"name":"G#3","midi":56,"time":128.13333333333298,"velocity":0.8031496062992126,"duration":0.7416666666666742},{"name":"F3","midi":53,"time":128.13541666666632,"velocity":0.8031496062992126,"duration":0.7375000000000114},{"name":"F4","midi":65,"time":128.502083333333,"velocity":0.8031496062992126,"duration":0.18333333333333712},{"name":"G4","midi":67,"time":128.68749999999966,"velocity":0.8031496062992126,"duration":0.18541666666666856},{"name":"G#4","midi":68,"time":128.87499999999966,"velocity":0.8031496062992126,"duration":2.59583333333336},{"name":"F3","midi":53,"time":129.24166666666633,"velocity":0.8031496062992126,"duration":0.18541666666666856},{"name":"D#3","midi":51,"time":129.42916666666633,"velocity":0.8031496062992126,"duration":0.18333333333333712},{"name":"D3","midi":50,"time":129.61249999999967,"velocity":0.8031496062992126,"duration":0.37291666666666856},{"name":"F4","midi":65,"time":129.98541666666634,"velocity":0.8031496062992126,"duration":0.18333333333333712},{"name":"D3","midi":50,"time":129.98541666666634,"velocity":0.8031496062992126,"duration":0.18541666666666856},{"name":"D#4","midi":63,"time":130.170833333333,"velocity":0.8031496062992126,"duration":0.18541666666666856},{"name":"C3","midi":48,"time":130.170833333333,"velocity":0.8031496062992126,"duration":0.18333333333333712},{"name":"D4","midi":62,"time":130.35624999999968,"velocity":0.8031496062992126,"duration":0.3687500000000057},{"name":"A#2","midi":46,"time":130.35624999999968,"velocity":0.8031496062992126,"duration":0.3687500000000057},{"name":"D4","midi":62,"time":130.72499999999968,"velocity":0.8031496062992126,"duration":0.1875},{"name":"C3","midi":48,"time":130.727083333333,"velocity":0.8031496062992126,"duration":0.18333333333333712},{"name":"D3","midi":50,"time":130.91249999999968,"velocity":0.8031496062992126,"duration":0.18541666666666856},{"name":"C4","midi":60,"time":130.914583333333,"velocity":0.8031496062992126,"duration":0.18333333333333712},{"name":"D#3","midi":51,"time":131.09999999999968,"velocity":0.8031496062992126,"duration":0.7437500000000057},{"name":"A#3","midi":58,"time":131.09999999999968,"velocity":0.8031496062992126,"duration":0.3687500000000057},{"name":"G4","midi":67,"time":131.47083333333302,"velocity":0.8031496062992126,"duration":0.18541666666666856},{"name":"A#3","midi":58,"time":131.47291666666635,"velocity":0.8031496062992126,"duration":0.18125000000000568},{"name":"G#4","midi":68,"time":131.6562499999997,"velocity":0.8031496062992126,"duration":0.18541666666666856},{"name":"G#3","midi":56,"time":131.65833333333302,"velocity":0.8031496062992126,"duration":0.18333333333333712},{"name":"A#4","midi":70,"time":131.8437499999997,"velocity":0.8031496062992126,"duration":2.4062500000000284},{"name":"G3","midi":55,"time":131.84583333333302,"velocity":0.8031496062992126,"duration":0.33125000000001137},{"name":"G3","midi":55,"time":132.2124999999997,"velocity":0.8031496062992126,"duration":0.1875},{"name":"F3","midi":53,"time":132.3999999999997,"velocity":0.8031496062992126,"duration":0.18541666666666856},{"name":"E3","midi":52,"time":132.58541666666636,"velocity":0.8031496062992126,"duration":0.3687500000000057},{"name":"G4","midi":67,"time":132.9562499999997,"velocity":0.8031496062992126,"duration":0.18333333333333712},{"name":"E3","midi":52,"time":132.9562499999997,"velocity":0.8031496062992126,"duration":0.18333333333333712},{"name":"D3","midi":50,"time":133.14166666666637,"velocity":0.8031496062992126,"duration":0.18333333333333712},{"name":"F4","midi":65,"time":133.14166666666637,"velocity":0.8031496062992126,"duration":0.18333333333333712},{"name":"E4","midi":64,"time":133.32708333333304,"velocity":0.8031496062992126,"duration":0.3687500000000057},{"name":"C3","midi":48,"time":133.32708333333304,"velocity":0.8031496062992126,"duration":0.3687500000000057},{"name":"D3","midi":50,"time":133.69791666666637,"velocity":0.8031496062992126,"duration":0.18333333333333712},{"name":"E4","midi":64,"time":133.69791666666637,"velocity":0.8031496062992126,"duration":0.18333333333333712},{"name":"D4","midi":62,"time":133.88333333333304,"velocity":0.8031496062992126,"duration":0.18125000000000568},{"name":"E3","midi":52,"time":133.88333333333304,"velocity":0.8031496062992126,"duration":0.18333333333333712},{"name":"C4","midi":60,"time":134.06666666666638,"velocity":0.8031496062992126,"duration":0.3687500000000057},{"name":"F3","midi":53,"time":134.0687499999997,"velocity":0.8031496062992126,"duration":0.7395833333333428},{"name":"G4","midi":67,"time":134.25208333333305,"velocity":0.8031496062992126,"duration":0.18333333333333712},{"name":"G#4","midi":68,"time":134.43749999999972,"velocity":0.8031496062992126,"duration":0.18541666666666856},{"name":"C4","midi":60,"time":134.43749999999972,"velocity":0.8031496062992126,"duration":0.18541666666666856},{"name":"C5","midi":72,"time":134.62499999999972,"velocity":0.8031496062992126,"duration":0.18333333333333712},{"name":"A#3","midi":58,"time":134.62499999999972,"velocity":0.8031496062992126,"duration":0.18333333333333712},{"name":"F5","midi":77,"time":134.81041666666638,"velocity":0.8031496062992126,"duration":2.5895833333333655},{"name":"G#3","midi":56,"time":134.81041666666638,"velocity":0.8031496062992126,"duration":0.7395833333333428},{"name":"D3","midi":50,"time":135.17708333333306,"velocity":0.8031496062992126,"duration":0.18541666666666856},{"name":"C3","midi":48,"time":135.36249999999973,"velocity":0.8031496062992126,"duration":0.18541666666666856},{"name":"B2","midi":47,"time":135.54999999999973,"velocity":0.8031496062992126,"duration":0.3687500000000057},{"name":"D5","midi":74,"time":135.91874999999973,"velocity":0.8031496062992126,"duration":0.18541666666666856},{"name":"B2","midi":47,"time":135.92083333333306,"velocity":0.8031496062992126,"duration":0.18333333333333712},{"name":"C5","midi":72,"time":136.10624999999973,"velocity":0.8031496062992126,"duration":0.18333333333333712},{"name":"A2","midi":45,"time":136.10624999999973,"velocity":0.8031496062992126,"duration":0.18125000000000568},{"name":"B4","midi":71,"time":136.28958333333307,"velocity":0.8031496062992126,"duration":0.3708333333333371},{"name":"G2","midi":43,"time":136.2916666666664,"velocity":0.8031496062992126,"duration":0.3687500000000057},{"name":"B4","midi":71,"time":136.66249999999974,"velocity":0.8031496062992126,"duration":0.18333333333333712},{"name":"A2","midi":45,"time":136.66249999999974,"velocity":0.8031496062992126,"duration":0.18125000000000568},{"name":"A4","midi":69,"time":136.84583333333308,"velocity":0.8031496062992126,"duration":0.18541666666666856},{"name":"B2","midi":47,"time":136.8479166666664,"velocity":0.8031496062992126,"duration":0.18125000000000568},{"name":"G4","midi":67,"time":137.03124999999974,"velocity":0.8031496062992126,"duration":0.3687500000000057},{"name":"C3","midi":48,"time":137.03333333333308,"velocity":0.8031496062992126,"duration":0.7416666666666742},{"name":"D#5","midi":75,"time":137.40208333333308,"velocity":0.8031496062992126,"duration":0.3708333333333371},{"name":"G4","midi":67,"time":137.40208333333308,"velocity":0.8031496062992126,"duration":0.18333333333333712},{"name":"A4","midi":69,"time":137.58749999999975,"velocity":0.8031496062992126,"duration":0.18541666666666856},{"name":"B4","midi":71,"time":137.77499999999975,"velocity":0.8031496062992126,"duration":0.36666666666667425},{"name":"D5","midi":74,"time":137.77499999999975,"velocity":0.8031496062992126,"duration":0.3687500000000057},{"name":"G3","midi":55,"time":137.77708333333308,"velocity":0.8031496062992126,"duration":0.7375000000000114},{"name":"G5","midi":79,"time":138.14374999999976,"velocity":0.8031496062992126,"duration":0.5583333333333371},{"name":"A4","midi":69,"time":138.1458333333331,"velocity":0.8031496062992126,"duration":0.17916666666667425},{"name":"B4","midi":71,"time":138.3270833333331,"velocity":0.8031496062992126,"duration":0.1875},{"name":"C5","midi":72,"time":138.51666666666642,"velocity":0.8031496062992126,"duration":0.5583333333333371},{"name":"G#3","midi":56,"time":138.51666666666642,"velocity":0.8031496062992126,"duration":0.7479166666666686},{"name":"B4","midi":71,"time":138.7020833333331,"velocity":0.8031496062992126,"duration":0.18541666666666856},{"name":"C5","midi":72,"time":138.8895833333331,"velocity":0.8031496062992126,"duration":0.75},{"name":"D5","midi":74,"time":139.0770833333331,"velocity":0.8031496062992126,"duration":0.1875},{"name":"D#5","midi":75,"time":139.26666666666642,"velocity":0.8031496062992126,"duration":0.75},{"name":"G3","midi":55,"time":139.26666666666642,"velocity":0.8031496062992126,"duration":0.7479166666666686},{"name":"A#4","midi":70,"time":139.6395833333331,"velocity":0.8031496062992126,"duration":0.375},{"name":"A4","midi":69,"time":140.01874999999976,"velocity":0.8031496062992126,"duration":0.36666666666667425},{"name":"F#3","midi":54,"time":140.01874999999976,"velocity":0.8031496062992126,"duration":0.7333333333333485},{"name":"C5","midi":72,"time":140.19999999999976,"velocity":0.8031496062992126,"duration":0.18541666666666856},{"name":"B4","midi":71,"time":140.38749999999976,"velocity":0.8031496062992126,"duration":0.18125000000000568},{"name":"D5","midi":74,"time":140.38749999999976,"velocity":0.8031496062992126,"duration":0.18333333333333712},{"name":"D#5","midi":75,"time":140.5708333333331,"velocity":0.8031496062992126,"duration":0.18125000000000568},{"name":"C5","midi":72,"time":140.5708333333331,"velocity":0.8031496062992126,"duration":0.17916666666667425},{"name":"F5","midi":77,"time":140.75416666666644,"velocity":0.8031496062992126,"duration":0.7333333333333485},{"name":"D5","midi":74,"time":140.75416666666644,"velocity":0.8031496062992126,"duration":0.18125000000000568},{"name":"B3","midi":59,"time":140.75624999999977,"velocity":0.8031496062992126,"duration":0.7291666666666856},{"name":"C5","midi":72,"time":140.93541666666644,"velocity":0.8031496062992126,"duration":0.18125000000000568},{"name":"B4","midi":71,"time":141.11874999999978,"velocity":0.8031496062992126,"duration":0.18125000000000568},{"name":"A4","midi":69,"time":141.29999999999978,"velocity":0.8031496062992126,"duration":0.18541666666666856},{"name":"C4","midi":60,"time":141.48749999999978,"velocity":0.8031496062992126,"duration":0.7395833333333428},{"name":"G4","midi":67,"time":141.48958333333312,"velocity":0.8031496062992126,"duration":0.7354166666666799},{"name":"D#5","midi":75,"time":141.6687499999998,"velocity":0.8031496062992126,"duration":0.18541666666666856},{"name":"F5","midi":77,"time":141.8562499999998,"velocity":0.8031496062992126,"duration":0.18541666666666856},{"name":"G5","midi":79,"time":142.04166666666646,"velocity":0.8031496062992126,"duration":0.18333333333333712},{"name":"G#5","midi":80,"time":142.22708333333313,"velocity":0.8031496062992126,"duration":0.7416666666666742},{"name":"F3","midi":53,"time":142.22916666666646,"velocity":0.8031496062992126,"duration":0.7395833333333428},{"name":"F4","midi":65,"time":142.41041666666646,"velocity":0.8031496062992126,"duration":0.18541666666666856},{"name":"D#4","midi":63,"time":142.59583333333313,"velocity":0.8031496062992126,"duration":0.18541666666666856},{"name":"D4","midi":62,"time":142.7812499999998,"velocity":0.8031496062992126,"duration":0.18541666666666856},{"name":"C4","midi":60,"time":142.97083333333313,"velocity":0.8031496062992126,"duration":0.7375000000000114},{"name":"E3","midi":52,"time":142.97083333333313,"velocity":0.8031496062992126,"duration":0.7375000000000114},{"name":"G5","midi":79,"time":143.1499999999998,"velocity":0.8031496062992126,"duration":0.1875},{"name":"A5","midi":81,"time":143.3374999999998,"velocity":0.7795275590551181,"duration":0.18333333333333712},{"name":"B5","midi":83,"time":143.52291666666648,"velocity":0.7795275590551181,"duration":0.18333333333333712},{"name":"C6","midi":84,"time":143.71041666666648,"velocity":0.7795275590551181,"duration":1.1083333333333485},{"name":"D#3","midi":51,"time":143.71041666666648,"velocity":0.8031496062992126,"duration":0.7395833333333428},{"name":"C5","midi":72,"time":143.8937499999998,"velocity":0.7795275590551181,"duration":0.18541666666666856},{"name":"D5","midi":74,"time":144.07916666666648,"velocity":0.7795275590551181,"duration":0.18333333333333712},{"name":"E5","midi":76,"time":144.26458333333315,"velocity":0.7795275590551181,"duration":0.18541666666666856},{"name":"F5","midi":77,"time":144.44999999999982,"velocity":0.7795275590551181,"duration":1.11041666666668},{"name":"D3","midi":50,"time":144.45208333333315,"velocity":0.8031496062992126,"duration":1.481250000000017},{"name":"B5","midi":83,"time":144.82083333333316,"velocity":0.7795275590551181,"duration":0.18541666666666856},{"name":"A5","midi":81,"time":145.00624999999982,"velocity":0.7795275590551181,"duration":0.18333333333333712},{"name":"B5","midi":83,"time":145.1916666666665,"velocity":0.7795275590551181,"duration":0.7416666666666742},{"name":"D#5","midi":75,"time":145.5604166666665,"velocity":0.7795275590551181,"duration":0.18541666666666856},{"name":"D5","midi":74,"time":145.7479166666665,"velocity":0.7795275590551181,"duration":0.18333333333333712},{"name":"D#5","midi":75,"time":145.9354166666665,"velocity":0.7795275590551181,"duration":0.36666666666667425},{"name":"C6","midi":84,"time":145.9354166666665,"velocity":0.7795275590551181,"duration":0.36666666666667425},{"name":"C3","midi":48,"time":145.93749999999983,"velocity":0.8031496062992126,"duration":0.7375000000000114},{"name":"G5","midi":79,"time":146.3041666666665,"velocity":0.7795275590551181,"duration":0.3687500000000057},{"name":"C5","midi":72,"time":146.3041666666665,"velocity":0.7795275590551181,"duration":0.18125000000000568},{"name":"D5","midi":74,"time":146.48749999999984,"velocity":0.7795275590551181,"duration":0.18541666666666856},{"name":"D#5","midi":75,"time":146.67499999999984,"velocity":0.7795275590551181,"duration":2.59583333333336},{"name":"C6","midi":84,"time":146.67499999999984,"velocity":0.7795275590551181,"duration":1.1083333333333485},{"name":"C5","midi":72,"time":147.04166666666652,"velocity":0.7795275590551181,"duration":0.18541666666666856},{"name":"A#4","midi":70,"time":147.22916666666652,"velocity":0.7795275590551181,"duration":0.18333333333333712},{"name":"A4","midi":69,"time":147.41249999999985,"velocity":0.7795275590551181,"duration":0.3687500000000057},{"name":"C6","midi":84,"time":147.7833333333332,"velocity":0.7795275590551181,"duration":0.18541666666666856},{"name":"A4","midi":69,"time":147.78541666666652,"velocity":0.7795275590551181,"duration":0.18333333333333712},{"name":"A#5","midi":82,"time":147.9708333333332,"velocity":0.7795275590551181,"duration":0.18333333333333712},{"name":"G4","midi":67,"time":147.9708333333332,"velocity":0.8031496062992126,"duration":0.18333333333333712},{"name":"A5","midi":81,"time":148.15624999999986,"velocity":0.7795275590551181,"duration":0.3687500000000057},{"name":"F4","midi":65,"time":148.15624999999986,"velocity":0.8031496062992126,"duration":0.3687500000000057},{"name":"A5","midi":81,"time":148.52499999999986,"velocity":0.7795275590551181,"duration":0.18333333333333712},{"name":"G4","midi":67,"time":148.5270833333332,"velocity":0.8031496062992126,"duration":0.18125000000000568},{"name":"G5","midi":79,"time":148.71041666666653,"velocity":0.7795275590551181,"duration":0.18541666666666856},{"name":"A4","midi":69,"time":148.71041666666653,"velocity":0.7795275590551181,"duration":0.18333333333333712},{"name":"F5","midi":77,"time":148.8958333333332,"velocity":0.7795275590551181,"duration":0.37291666666666856},{"name":"A#4","midi":70,"time":148.89791666666653,"velocity":0.7795275590551181,"duration":0.3708333333333371},{"name":"G5","midi":79,"time":149.2708333333332,"velocity":0.7795275590551181,"duration":0.1875},{"name":"A#4","midi":70,"time":149.27291666666653,"velocity":0.7795275590551181,"duration":0.18333333333333712},{"name":"A#3","midi":58,"time":149.27291666666653,"velocity":0.8031496062992126,"duration":0.375},{"name":"A5","midi":81,"time":149.4583333333332,"velocity":0.7795275590551181,"duration":0.18958333333333144},{"name":"C5","midi":72,"time":149.46041666666653,"velocity":0.7795275590551181,"duration":0.1875},{"name":"C#5","midi":73,"time":149.64999999999986,"velocity":0.7795275590551181,"duration":2.5937500000000284},{"name":"A#5","midi":82,"time":149.64999999999986,"velocity":0.7795275590551181,"duration":0.7375000000000114},{"name":"A#4","midi":70,"time":150.01666666666654,"velocity":0.7795275590551181,"duration":0.18541666666666856},{"name":"G#4","midi":68,"time":150.20416666666654,"velocity":0.7795275590551181,"duration":0.18333333333333712},{"name":"G4","midi":67,"time":150.3895833333332,"velocity":0.8031496062992126,"duration":0.34166666666666856},{"name":"A#5","midi":82,"time":150.7583333333332,"velocity":0.7795275590551181,"duration":0.18541666666666856},{"name":"G4","midi":67,"time":150.76041666666654,"velocity":0.8031496062992126,"duration":0.18333333333333712},{"name":"G#5","midi":80,"time":150.9458333333332,"velocity":0.7795275590551181,"duration":0.18333333333333712},{"name":"F4","midi":65,"time":150.9458333333332,"velocity":0.8031496062992126,"duration":0.18333333333333712},{"name":"G5","midi":79,"time":151.13124999999988,"velocity":0.7795275590551181,"duration":0.3687500000000057},{"name":"D#4","midi":63,"time":151.13124999999988,"velocity":0.8031496062992126,"duration":0.3687500000000057},{"name":"G5","midi":79,"time":151.4999999999999,"velocity":0.7795275590551181,"duration":0.18541666666666856},{"name":"F4","midi":65,"time":151.50208333333322,"velocity":0.8031496062992126,"duration":0.18333333333333712},{"name":"F5","midi":77,"time":151.6874999999999,"velocity":0.7795275590551181,"duration":0.18333333333333712},{"name":"G4","midi":67,"time":151.6874999999999,"velocity":0.8031496062992126,"duration":0.18125000000000568},{"name":"D#5","midi":75,"time":151.87083333333322,"velocity":0.7795275590551181,"duration":0.3708333333333371},{"name":"G#4","midi":68,"time":151.87291666666655,"velocity":0.7795275590551181,"duration":0.3687500000000057},{"name":"F5","midi":77,"time":152.2437499999999,"velocity":0.7795275590551181,"duration":0.18125000000000568},{"name":"G#4","midi":68,"time":152.24583333333322,"velocity":0.7795275590551181,"duration":0.17916666666667425},{"name":"G#3","midi":56,"time":152.24583333333322,"velocity":0.8031496062992126,"duration":0.36666666666667425},{"name":"A#4","midi":70,"time":152.42708333333323,"velocity":0.7795275590551181,"duration":0.18333333333333712},{"name":"G5","midi":79,"time":152.42708333333323,"velocity":0.7795275590551181,"duration":0.18541666666666856},{"name":"C5","midi":72,"time":152.61458333333323,"velocity":0.7795275590551181,"duration":2.5895833333333655},{"name":"G#5","midi":80,"time":152.61458333333323,"velocity":0.7795275590551181,"duration":0.7375000000000114},{"name":"G#4","midi":68,"time":152.9812499999999,"velocity":0.7795275590551181,"duration":0.18541666666666856},{"name":"G4","midi":67,"time":153.1687499999999,"velocity":0.8031496062992126,"duration":0.18125000000000568},{"name":"F4","midi":65,"time":153.35208333333324,"velocity":0.8031496062992126,"duration":0.34583333333333144},{"name":"G#5","midi":80,"time":153.72083333333325,"velocity":0.7795275590551181,"duration":0.1875},{"name":"F4","midi":65,"time":153.72291666666658,"velocity":0.8031496062992126,"duration":0.18541666666666856},{"name":"G5","midi":79,"time":153.90833333333325,"velocity":0.7795275590551181,"duration":0.18333333333333712},{"name":"D#4","midi":63,"time":153.91041666666658,"velocity":0.8031496062992126,"duration":0.18125000000000568},{"name":"F5","midi":77,"time":154.09374999999991,"velocity":0.7795275590551181,"duration":0.3708333333333371},{"name":"C#4","midi":61,"time":154.09374999999991,"velocity":0.8031496062992126,"duration":0.34375},{"name":"F5","midi":77,"time":154.46458333333325,"velocity":0.8031496062992126,"duration":0.18541666666666856},{"name":"C#4","midi":61,"time":154.46458333333325,"velocity":0.8031496062992126,"duration":0.18333333333333712},{"name":"D#5","midi":75,"time":154.64999999999992,"velocity":0.8031496062992126,"duration":0.18541666666666856},{"name":"C4","midi":60,"time":154.64999999999992,"velocity":0.8031496062992126,"duration":0.18333333333333712},{"name":"C#5","midi":73,"time":154.8354166666666,"velocity":0.8031496062992126,"duration":1.11041666666668},{"name":"A#3","midi":58,"time":154.83749999999992,"velocity":0.8031496062992126,"duration":0.36666666666667425},{"name":"A#4","midi":70,"time":155.20624999999993,"velocity":0.8031496062992126,"duration":0.18541666666666856},{"name":"C4","midi":60,"time":155.20624999999993,"velocity":0.8031496062992126,"duration":0.18333333333333712},{"name":"G#4","midi":68,"time":155.3916666666666,"velocity":0.8031496062992126,"duration":0.18333333333333712},{"name":"C#4","midi":61,"time":155.39374999999993,"velocity":0.8031496062992126,"duration":0.18125000000000568},{"name":"D#4","midi":63,"time":155.57499999999993,"velocity":0.8031496062992126,"duration":0.3687500000000057},{"name":"G4","midi":67,"time":155.57708333333326,"velocity":0.8031496062992126,"duration":1.8229166666666856},{"name":"D#5","midi":75,"time":155.94583333333327,"velocity":0.8031496062992126,"duration":0.17916666666667425},{"name":"D#3","midi":51,"time":155.9479166666666,"velocity":0.8031496062992126,"duration":0.36041666666667993},{"name":"C#5","midi":73,"time":156.12708333333327,"velocity":0.8031496062992126,"duration":0.18125000000000568},{"name":"C5","midi":72,"time":156.3104166666666,"velocity":0.8031496062992126,"duration":0.3645833333333428},{"name":"G#3","midi":56,"time":156.3104166666666,"velocity":0.8031496062992126,"duration":0.3645833333333428},{"name":"C5","midi":72,"time":156.67499999999995,"velocity":0.8031496062992126,"duration":0.18333333333333712},{"name":"A#3","midi":58,"time":156.6770833333333,"velocity":0.8031496062992126,"duration":0.18125000000000568},{"name":"A#4","midi":70,"time":156.86041666666662,"velocity":0.8031496062992126,"duration":0.17916666666667425},{"name":"C4","midi":60,"time":156.86041666666662,"velocity":0.8031496062992126,"duration":0.1770833333333428},{"name":"G#4","midi":68,"time":157.0395833333333,"velocity":0.8031496062992126,"duration":1.09375},{"name":"C#4","midi":61,"time":157.04166666666663,"velocity":0.8031496062992126,"duration":1.0895833333333371},{"name":"F4","midi":65,"time":157.39999999999995,"velocity":0.8031496062992126,"duration":0.18333333333333712},{"name":"E4","midi":64,"time":157.58541666666662,"velocity":0.8031496062992126,"duration":0.18125000000000568},{"name":"F4","midi":65,"time":157.76666666666662,"velocity":0.8031496062992126,"duration":1.0979166666666913},{"name":"A#4","midi":70,"time":158.1333333333333,"velocity":0.8031496062992126,"duration":0.18333333333333712},{"name":"C#4","midi":61,"time":158.13541666666663,"velocity":0.8031496062992126,"duration":0.18125000000000568},{"name":"C5","midi":72,"time":158.31874999999997,"velocity":0.8031496062992126,"duration":0.18125000000000568},{"name":"C4","midi":60,"time":158.31874999999997,"velocity":0.8031496062992126,"duration":0.17916666666667425},{"name":"C#5","midi":73,"time":158.49999999999997,"velocity":0.8031496062992126,"duration":0.9166666666666856},{"name":"A#3","midi":58,"time":158.49999999999997,"velocity":0.8031496062992126,"duration":0.3395833333333371},{"name":"A#3","midi":58,"time":158.86458333333331,"velocity":0.8031496062992126,"duration":0.18333333333333712},{"name":"G4","midi":67,"time":158.86666666666665,"velocity":0.8031496062992126,"duration":0.17916666666667425},{"name":"G#4","midi":68,"time":159.04791666666665,"velocity":0.8031496062992126,"duration":0.18333333333333712},{"name":"G#3","midi":56,"time":159.04999999999998,"velocity":0.8031496062992126,"duration":0.18125000000000568},{"name":"A#4","midi":70,"time":159.23125,"velocity":0.8031496062992126,"duration":0.7416666666666742},{"name":"G3","midi":55,"time":159.23333333333332,"velocity":0.8031496062992126,"duration":0.34166666666666856},{"name":"C5","midi":72,"time":159.41666666666666,"velocity":0.8031496062992126,"duration":0.18333333333333712},{"name":"C#5","midi":73,"time":159.6,"velocity":0.8031496062992126,"duration":0.1875},{"name":"G3","midi":55,"time":159.60208333333333,"velocity":0.8031496062992126,"duration":0.18541666666666856},{"name":"A#4","midi":70,"time":159.78958333333333,"velocity":0.8031496062992126,"duration":0.36666666666667425},{"name":"F3","midi":53,"time":159.78958333333333,"velocity":0.8031496062992126,"duration":0.18333333333333712},{"name":"G5","midi":79,"time":159.975,"velocity":0.8031496062992126,"duration":0.9250000000000114},{"name":"E3","midi":52,"time":159.975,"velocity":0.8031496062992126,"duration":0.3687500000000057},{"name":"G#4","midi":68,"time":160.15833333333333,"velocity":0.8031496062992126,"duration":0.18541666666666856},{"name":"A#4","midi":70,"time":160.34583333333333,"velocity":0.8031496062992126,"duration":0.18125000000000568},{"name":"C3","midi":48,"time":160.34583333333333,"velocity":0.8031496062992126,"duration":0.3687500000000057},{"name":"G4","midi":67,"time":160.52708333333334,"velocity":0.8031496062992126,"duration":0.18541666666666856},{"name":"G#4","midi":68,"time":160.71458333333334,"velocity":0.8031496062992126,"duration":0.9250000000000114},{"name":"F3","midi":53,"time":160.71666666666667,"velocity":0.8031496062992126,"duration":0.36666666666667425},{"name":"C5","midi":72,"time":160.9,"velocity":0.8031496062992126,"duration":0.18333333333333712},{"name":"C#5","midi":73,"time":161.08541666666667,"velocity":0.8031496062992126,"duration":0.18541666666666856},{"name":"F4","midi":65,"time":161.08541666666667,"velocity":0.8031496062992126,"duration":0.18333333333333712},{"name":"C5","midi":72,"time":161.27083333333334,"velocity":0.8031496062992126,"duration":0.18125000000000568},{"name":"D#4","midi":63,"time":161.27291666666667,"velocity":0.8031496062992126,"duration":0.15000000000000568},{"name":"F5","midi":77,"time":161.45416666666668,"velocity":0.8031496062992126,"duration":1.112499999999983},{"name":"D#4","midi":63,"time":161.45416666666668,"velocity":0.8031496062992126,"duration":0.06666666666666288},{"name":"C#4","midi":61,"time":161.52083333333334,"velocity":0.8031496062992126,"duration":0.06874999999999432},{"name":"D#4","midi":63,"time":161.58958333333334,"velocity":0.8031496062992126,"duration":0.0666666666666913},{"name":"G4","midi":67,"time":161.63958333333335,"velocity":0.8031496062992126,"duration":0.18541666666666856},{"name":"C#4","midi":61,"time":161.65833333333336,"velocity":0.8031496062992126,"duration":0.06666666666666288},{"name":"D#4","midi":63,"time":161.72500000000002,"velocity":0.8031496062992126,"duration":0.06874999999999432},{"name":"C#4","midi":61,"time":161.79375000000002,"velocity":0.8031496062992126,"duration":0.06666666666666288},{"name":"G#4","midi":68,"time":161.82500000000002,"velocity":0.8031496062992126,"duration":0.1833333333333087},{"name":"D#4","midi":63,"time":161.8625,"velocity":0.8031496062992126,"duration":0.06666666666666288},{"name":"C#4","midi":61,"time":161.92916666666667,"velocity":0.8031496062992126,"duration":0.06874999999999432},{"name":"D#4","midi":63,"time":161.99791666666667,"velocity":0.8031496062992126,"duration":0.06666666666666288},{"name":"F4","midi":65,"time":162.01041666666666,"velocity":0.8031496062992126,"duration":0.18541666666666856},{"name":"C#4","midi":61,"time":162.06666666666666,"velocity":0.8031496062992126,"duration":0.12916666666666288},{"name":"C5","midi":72,"time":162.19791666666666,"velocity":0.8031496062992126,"duration":0.3687500000000057},{"name":"C4","midi":60,"time":162.19791666666666,"velocity":0.8031496062992126,"duration":0.36666666666667425},{"name":"E5","midi":76,"time":162.56875,"velocity":0.8031496062992126,"duration":0.18333333333333712},{"name":"G4","midi":67,"time":162.56875,"velocity":0.8031496062992126,"duration":0.3687500000000057},{"name":"C3","midi":48,"time":162.57083333333333,"velocity":0.8031496062992126,"duration":0.17916666666667425},{"name":"F5","midi":77,"time":162.75208333333333,"velocity":0.8031496062992126,"duration":0.18333333333333712},{"name":"D3","midi":50,"time":162.75416666666666,"velocity":0.8031496062992126,"duration":0.18125000000000568},{"name":"G5","midi":79,"time":162.9375,"velocity":0.8031496062992126,"duration":1.0854166666666742},{"name":"C5","midi":72,"time":162.93958333333333,"velocity":0.8031496062992126,"duration":0.36666666666667425},{"name":"E3","midi":52,"time":162.93958333333333,"velocity":0.8031496062992126,"duration":0.3645833333333428},{"name":"C3","midi":48,"time":162.94166666666666,"velocity":0.8031496062992126,"duration":0.7354166666666799},{"name":"A#4","midi":70,"time":163.30625,"velocity":0.8031496062992126,"duration":0.3687500000000057},{"name":"D3","midi":50,"time":163.30833333333334,"velocity":0.8031496062992126,"duration":0.18333333333333712},{"name":"E3","midi":52,"time":163.49166666666667,"velocity":0.8031496062992126,"duration":0.18333333333333712},{"name":"G#4","midi":68,"time":163.67708333333334,"velocity":0.8031496062992126,"duration":0.3708333333333371},{"name":"C#3","midi":49,"time":163.67916666666667,"velocity":0.8031496062992126,"duration":0.7458333333333371},{"name":"F3","midi":53,"time":163.67916666666667,"velocity":0.8031496062992126,"duration":0.18125000000000568},{"name":"E3","midi":52,"time":163.8625,"velocity":0.8031496062992126,"duration":0.18541666666666856},{"name":"F5","midi":77,"time":164.05,"velocity":0.8031496062992126,"duration":0.7083333333333428},{"name":"A#4","midi":70,"time":164.05,"velocity":0.8031496062992126,"duration":0.37291666666666856},{"name":"F3","midi":53,"time":164.05,"velocity":0.8031496062992126,"duration":0.18333333333333712},{"name":"G3","midi":55,"time":164.23333333333335,"velocity":0.8031496062992126,"duration":0.18958333333333144},{"name":"C5","midi":72,"time":164.425,"velocity":0.8031496062992126,"duration":0.18333333333333712},{"name":"G#3","midi":56,"time":164.425,"velocity":0.8031496062992126,"duration":0.7458333333333371},{"name":"C3","midi":48,"time":164.425,"velocity":0.8031496062992126,"duration":0.7458333333333371},{"name":"C4","midi":60,"time":164.61041666666668,"velocity":0.8031496062992126,"duration":0.1875},{"name":"D#5","midi":75,"time":164.8,"velocity":0.8031496062992126,"duration":0.3687500000000057},{"name":"D4","midi":62,"time":164.8,"velocity":0.8031496062992126,"duration":0.18125000000000568},{"name":"D#4","midi":63,"time":164.98333333333335,"velocity":0.8031496062992126,"duration":0.18541666666666856},{"name":"D5","midi":74,"time":165.17291666666668,"velocity":0.8031496062992126,"duration":0.3645833333333428},{"name":"F4","midi":65,"time":165.17291666666668,"velocity":0.8031496062992126,"duration":0.7270833333333542},{"name":"B2","midi":47,"time":165.17291666666668,"velocity":0.8031496062992126,"duration":0.7250000000000227},{"name":"F3","midi":53,"time":165.35208333333335,"velocity":0.8031496062992126,"duration":0.18333333333333712},{"name":"D#5","midi":75,"time":165.53750000000002,"velocity":0.8031496062992126,"duration":0.17916666666667425},{"name":"G3","midi":55,"time":165.53958333333335,"velocity":0.8031496062992126,"duration":0.1770833333333428},{"name":"F5","midi":77,"time":165.71875000000003,"velocity":0.8031496062992126,"duration":0.17916666666667425},{"name":"G#3","midi":56,"time":165.71875000000003,"velocity":0.8031496062992126,"duration":0.1770833333333428},{"name":"G5","midi":79,"time":165.90000000000003,"velocity":0.8031496062992126,"duration":0.1770833333333428},{"name":"A#3","midi":58,"time":165.90000000000003,"velocity":0.8031496062992126,"duration":0.7250000000000227},{"name":"E3","midi":52,"time":165.90208333333337,"velocity":0.8031496062992126,"duration":0.7229166666666913},{"name":"F5","midi":77,"time":166.0791666666667,"velocity":0.8031496062992126,"duration":0.17916666666667425},{"name":"E5","midi":76,"time":166.25833333333338,"velocity":0.8031496062992126,"duration":0.18125000000000568},{"name":"G4","midi":67,"time":166.2604166666667,"velocity":0.8031496062992126,"duration":0.36250000000001137},{"name":"D5","midi":74,"time":166.44166666666672,"velocity":0.8031496062992126,"duration":0.18125000000000568},{"name":"C5","midi":72,"time":166.62500000000006,"velocity":0.8031496062992126,"duration":0.7354166666666799},{"name":"G#4","midi":68,"time":166.6270833333334,"velocity":0.8031496062992126,"duration":0.7333333333333485},{"name":"F3","midi":53,"time":166.6270833333334,"velocity":0.8031496062992126,"duration":0.731250000000017},{"name":"G#3","midi":56,"time":166.8083333333334,"velocity":0.8031496062992126,"duration":0.18333333333333712},{"name":"A#3","midi":58,"time":166.99375000000006,"velocity":0.8031496062992126,"duration":0.18125000000000568},{"name":"C4","midi":60,"time":167.17500000000007,"velocity":0.8031496062992126,"duration":0.18333333333333712},{"name":"C#4","midi":61,"time":167.36250000000007,"velocity":0.8031496062992126,"duration":0.7375000000000114},{"name":"A#2","midi":46,"time":167.36250000000007,"velocity":0.8031496062992126,"duration":0.7354166666666799},{"name":"A#4","midi":70,"time":167.54166666666674,"velocity":0.8031496062992126,"duration":0.5562500000000057},{"name":"G#4","midi":68,"time":167.7270833333334,"velocity":0.8031496062992126,"duration":0.1875},{"name":"G4","midi":67,"time":167.9145833333334,"velocity":0.8031496062992126,"duration":0.18125000000000568},{"name":"C5","midi":72,"time":168.10000000000008,"velocity":0.8031496062992126,"duration":0.7270833333333542},{"name":"F4","midi":65,"time":168.10000000000008,"velocity":0.8031496062992126,"duration":0.7250000000000227},{"name":"A2","midi":45,"time":168.1020833333334,"velocity":0.8031496062992126,"duration":0.7229166666666913},{"name":"C4","midi":60,"time":168.27916666666675,"velocity":0.8031496062992126,"duration":0.18333333333333712},{"name":"D4","midi":62,"time":168.4625000000001,"velocity":0.8031496062992126,"duration":0.18125000000000568},{"name":"E4","midi":64,"time":168.64583333333343,"velocity":0.8031496062992126,"duration":0.17916666666667425},{"name":"F4","midi":65,"time":168.82708333333343,"velocity":0.8031496062992126,"duration":0.36250000000001137},{"name":"G#2","midi":44,"time":168.82916666666677,"velocity":0.8031496062992126,"duration":0.7270833333333542},{"name":"F4","midi":65,"time":169.0062500000001,"velocity":0.8031496062992126,"duration":0.9124999999999943},{"name":"C5","midi":72,"time":169.18958333333345,"velocity":0.8031496062992126,"duration":0.36666666666667425},{"name":"G4","midi":67,"time":169.18958333333345,"velocity":0.8031496062992126,"duration":0.18125000000000568},{"name":"G#4","midi":68,"time":169.37083333333345,"velocity":0.8031496062992126,"duration":0.18333333333333712},{"name":"C#5","midi":73,"time":169.55625000000012,"velocity":0.8031496062992126,"duration":0.3645833333333144},{"name":"A#4","midi":70,"time":169.55833333333345,"velocity":0.8031496062992126,"duration":0.7270833333333258},{"name":"G#2","midi":44,"time":169.55833333333345,"velocity":0.8031496062992126,"duration":0.0625},{"name":"G2","midi":43,"time":169.62291666666678,"velocity":0.8031496062992126,"duration":0.06458333333333144},{"name":"G#2","midi":44,"time":169.68958333333345,"velocity":0.8031496062992126,"duration":0.06458333333333144},{"name":"G2","midi":43,"time":169.75416666666678,"velocity":0.8031496062992126,"duration":1.2541666666666913},{"name":"C5","midi":72,"time":169.92083333333343,"velocity":0.8031496062992126,"duration":0.18333333333333712},{"name":"E4","midi":64,"time":169.92083333333343,"velocity":0.8031496062992126,"duration":0.18125000000000568},{"name":"A#4","midi":70,"time":170.10416666666677,"velocity":0.8031496062992126,"duration":0.5458333333333485},{"name":"D4","midi":62,"time":170.10416666666677,"velocity":0.8031496062992126,"duration":0.18125000000000568},{"name":"C5","midi":72,"time":170.2875000000001,"velocity":0.8031496062992126,"duration":1.4604166666667027},{"name":"E4","midi":64,"time":170.2875000000001,"velocity":0.8031496062992126,"duration":0.7270833333333542},{"name":"G#4","midi":68,"time":170.65208333333345,"velocity":0.8031496062992126,"duration":0.17916666666667425},{"name":"G4","midi":67,"time":170.83125000000013,"velocity":0.8031496062992126,"duration":0.18125000000000568},{"name":"G#4","midi":68,"time":171.01458333333346,"velocity":0.8031496062992126,"duration":0.7333333333333485},{"name":"F4","midi":65,"time":171.0166666666668,"velocity":0.8031496062992126,"duration":0.7291666666666856},{"name":"F2","midi":41,"time":171.0166666666668,"velocity":0.8031496062992126,"duration":0.36250000000001137},{"name":"F3","midi":53,"time":171.3791666666668,"velocity":0.8031496062992126,"duration":0.18125000000000568},{"name":"G3","midi":55,"time":171.56250000000014,"velocity":0.8031496062992126,"duration":0.18333333333333712},{"name":"G#3","midi":56,"time":171.75000000000014,"velocity":0.8031496062992126,"duration":0.3645833333333428},{"name":"C4","midi":60,"time":172.11666666666682,"velocity":0.8031496062992126,"duration":0.18541666666666856},{"name":"G#3","midi":56,"time":172.11666666666682,"velocity":0.8031496062992126,"duration":0.18333333333333712},{"name":"C#4","midi":61,"time":172.30208333333348,"velocity":0.8031496062992126,"duration":0.18333333333333712},{"name":"A#3","midi":58,"time":172.30416666666682,"velocity":0.8031496062992126,"duration":0.18125000000000568},{"name":"C4","midi":60,"time":172.48750000000015,"velocity":0.8031496062992126,"duration":0.9083333333333599},{"name":"D#4","midi":63,"time":172.48750000000015,"velocity":0.8031496062992126,"duration":0.36250000000001137},{"name":"F#5","midi":78,"time":172.8520833333335,"velocity":0.8031496062992126,"duration":0.17916666666667425},{"name":"D#4","midi":63,"time":172.8520833333335,"velocity":0.8031496062992126,"duration":0.17916666666667425},{"name":"F5","midi":77,"time":173.0333333333335,"velocity":0.8031496062992126,"duration":0.18125000000000568},{"name":"F4","midi":65,"time":173.0333333333335,"velocity":0.8031496062992126,"duration":0.17916666666667425},{"name":"D#5","midi":75,"time":173.2145833333335,"velocity":0.8031496062992126,"duration":0.18125000000000568},{"name":"F#4","midi":66,"time":173.21666666666684,"velocity":0.8031496062992126,"duration":1.0958333333333599},{"name":"C#5","midi":73,"time":173.39791666666684,"velocity":0.8031496062992126,"duration":0.18333333333333712},{"name":"A#3","midi":58,"time":173.39791666666684,"velocity":0.8031496062992126,"duration":0.18333333333333712},{"name":"C5","midi":72,"time":173.5833333333335,"velocity":0.8031496062992126,"duration":0.18333333333333712},{"name":"G#3","midi":56,"time":173.5833333333335,"velocity":0.8031496062992126,"duration":0.18125000000000568},{"name":"A#4","midi":70,"time":173.76666666666685,"velocity":0.8031496062992126,"duration":0.18333333333333712},{"name":"F#3","midi":54,"time":173.76875000000018,"velocity":0.8031496062992126,"duration":0.17916666666667425},{"name":"G#4","midi":68,"time":173.9500000000002,"velocity":0.8031496062992126,"duration":0.36250000000001137},{"name":"F3","midi":53,"time":173.9500000000002,"velocity":0.8031496062992126,"duration":0.36250000000001137},{"name":"A#4","midi":70,"time":174.31458333333353,"velocity":0.8031496062992126,"duration":0.18125000000000568},{"name":"F4","midi":65,"time":174.31458333333353,"velocity":0.8031496062992126,"duration":0.17916666666667425},{"name":"C#3","midi":49,"time":174.31666666666686,"velocity":0.8031496062992126,"duration":0.1770833333333428},{"name":"C5","midi":72,"time":174.49791666666687,"velocity":0.8031496062992126,"duration":0.1770833333333428},{"name":"D#3","midi":51,"time":174.49791666666687,"velocity":0.8031496062992126,"duration":0.1770833333333428},{"name":"D#4","midi":63,"time":174.49791666666687,"velocity":0.8031496062992126,"duration":0.1770833333333428},{"name":"C#5","midi":73,"time":174.67708333333354,"velocity":0.8031496062992126,"duration":0.3645833333333428},{"name":"C#4","midi":61,"time":174.67708333333354,"velocity":0.8031496062992126,"duration":0.3645833333333428},{"name":"F3","midi":53,"time":174.67916666666687,"velocity":0.8031496062992126,"duration":0.36041666666667993},{"name":"G#3","midi":56,"time":175.04375000000022,"velocity":0.8031496062992126,"duration":0.17916666666667425},{"name":"F3","midi":53,"time":175.04375000000022,"velocity":0.8031496062992126,"duration":0.17916666666667425},{"name":"A#3","midi":58,"time":175.2229166666669,"velocity":0.8031496062992126,"duration":0.18333333333333712},{"name":"G3","midi":55,"time":175.22500000000022,"velocity":0.8031496062992126,"duration":0.18125000000000568},{"name":"G#3","midi":56,"time":175.40833333333356,"velocity":0.8031496062992126,"duration":0.904166666666697},{"name":"C4","midi":60,"time":175.40833333333356,"velocity":0.8031496062992126,"duration":0.36041666666667993},{"name":"D#5","midi":75,"time":175.76875000000024,"velocity":0.8031496062992126,"duration":0.17916666666667425},{"name":"C4","midi":60,"time":175.77083333333357,"velocity":0.8031496062992126,"duration":0.17500000000001137},{"name":"C#5","midi":73,"time":175.9479166666669,"velocity":0.8031496062992126,"duration":0.18125000000000568},{"name":"C#4","midi":61,"time":175.95000000000024,"velocity":0.8031496062992126,"duration":0.1770833333333428},{"name":"C5","midi":72,"time":176.12916666666692,"velocity":0.8031496062992126,"duration":0.18333333333333712},{"name":"D#4","midi":63,"time":176.13125000000025,"velocity":0.8031496062992126,"duration":1.0833333333333428},{"name":"A#4","midi":70,"time":176.3145833333336,"velocity":0.8031496062992126,"duration":0.18125000000000568},{"name":"F#3","midi":54,"time":176.3145833333336,"velocity":0.8031496062992126,"duration":0.17916666666667425},{"name":"G#4","midi":68,"time":176.4958333333336,"velocity":0.8031496062992126,"duration":0.1770833333333428},{"name":"F3","midi":53,"time":176.49791666666692,"velocity":0.8031496062992126,"duration":0.17500000000001137},{"name":"F#4","midi":66,"time":176.67500000000027,"velocity":0.8031496062992126,"duration":0.1770833333333428},{"name":"D#3","midi":51,"time":176.67500000000027,"velocity":0.8031496062992126,"duration":0.1770833333333428},{"name":"C#3","midi":49,"time":176.85416666666694,"velocity":0.8031496062992126,"duration":0.35833333333332007},{"name":"F4","midi":65,"time":176.85416666666694,"velocity":0.8031496062992126,"duration":0.35833333333332007},{"name":"G4","midi":67,"time":177.2145833333336,"velocity":0.8031496062992126,"duration":0.18125000000000568},{"name":"C#4","midi":61,"time":177.21666666666692,"velocity":0.8031496062992126,"duration":0.17916666666667425},{"name":"A#2","midi":46,"time":177.21666666666692,"velocity":0.8031496062992126,"duration":0.1770833333333428},{"name":"A4","midi":69,"time":177.39791666666693,"velocity":0.8031496062992126,"duration":0.1770833333333428},{"name":"C4","midi":60,"time":177.39791666666693,"velocity":0.8031496062992126,"duration":0.17500000000001137},{"name":"C3","midi":48,"time":177.40000000000026,"velocity":0.8031496062992126,"duration":0.17291666666667993},{"name":"A#4","midi":70,"time":177.57500000000027,"velocity":0.8031496062992126,"duration":0.35833333333332007},{"name":"A#3","midi":58,"time":177.57500000000027,"velocity":0.8031496062992126,"duration":0.35624999999998863},{"name":"C#3","midi":49,"time":177.5770833333336,"velocity":0.8031496062992126,"duration":0.32499999999998863},{"name":"F3","midi":53,"time":177.9333333333336,"velocity":0.8031496062992126,"duration":0.18333333333333712},{"name":"C#3","midi":49,"time":177.93541666666692,"velocity":0.8031496062992126,"duration":0.18125000000000568},{"name":"G3","midi":55,"time":178.11875000000026,"velocity":0.8031496062992126,"duration":0.18125000000000568},{"name":"D#3","midi":51,"time":178.11875000000026,"velocity":0.8031496062992126,"duration":0.17916666666667425},{"name":"F3","midi":53,"time":178.30000000000027,"velocity":0.8031496062992126,"duration":0.9125000000000227},{"name":"G#3","midi":56,"time":178.30000000000027,"velocity":0.8031496062992126,"duration":0.3645833333333428},{"name":"C5","midi":72,"time":178.6645833333336,"velocity":0.8031496062992126,"duration":0.18541666666666856},{"name":"G#3","midi":56,"time":178.66666666666694,"velocity":0.8031496062992126,"duration":0.18333333333333712},{"name":"A#4","midi":70,"time":178.85000000000028,"velocity":0.8031496062992126,"duration":0.18125000000000568},{"name":"A#3","midi":58,"time":178.85000000000028,"velocity":0.8031496062992126,"duration":0.17916666666667425},{"name":"G#4","midi":68,"time":179.03333333333362,"velocity":0.8031496062992126,"duration":0.1770833333333428},{"name":"C4","midi":60,"time":179.03333333333362,"velocity":0.8031496062992126,"duration":1.077083333333377},{"name":"G4","midi":67,"time":179.2125000000003,"velocity":0.8031496062992126,"duration":0.1770833333333428},{"name":"D#3","midi":51,"time":179.2125000000003,"velocity":0.8031496062992126,"duration":0.1770833333333428},{"name":"C#3","midi":49,"time":179.39166666666696,"velocity":0.8031496062992126,"duration":0.1770833333333428},{"name":"F4","midi":65,"time":179.39166666666696,"velocity":0.8031496062992126,"duration":0.17916666666667425},{"name":"D#4","midi":63,"time":179.57083333333364,"velocity":0.8031496062992126,"duration":0.17916666666667425},{"name":"C3","midi":48,"time":179.57291666666697,"velocity":0.8031496062992126,"duration":0.1770833333333428},{"name":"C#4","midi":61,"time":179.7500000000003,"velocity":0.8031496062992126,"duration":0.8979166666667027},{"name":"A#2","midi":46,"time":179.7500000000003,"velocity":0.8031496062992126,"duration":0.17916666666667425},{"name":"C3","midi":48,"time":179.929166666667,"velocity":0.8031496062992126,"duration":0.17916666666667425},{"name":"A#3","midi":58,"time":180.110416666667,"velocity":0.8031496062992126,"duration":0.1770833333333428},{"name":"C#3","midi":49,"time":180.11250000000032,"velocity":0.8031496062992126,"duration":0.17500000000001137},{"name":"C4","midi":60,"time":180.28958333333367,"velocity":0.8031496062992126,"duration":0.17916666666667425},{"name":"C3","midi":48,"time":180.28958333333367,"velocity":0.8031496062992126,"duration":0.1770833333333428},{"name":"C#4","midi":61,"time":180.46875000000034,"velocity":0.8031496062992126,"duration":1.087500000000034},{"name":"A#2","midi":46,"time":180.47083333333367,"velocity":0.8031496062992126,"duration":0.1770833333333428},{"name":"F4","midi":65,"time":180.65000000000035,"velocity":0.8031496062992126,"duration":0.1770833333333428},{"name":"G#2","midi":44,"time":180.65000000000035,"velocity":0.8031496062992126,"duration":0.1770833333333428},{"name":"A#4","midi":70,"time":180.82916666666702,"velocity":0.8031496062992126,"duration":0.18125000000000568},{"name":"G2","midi":43,"time":180.82916666666702,"velocity":0.8031496062992126,"duration":0.17916666666667425},{"name":"G#4","midi":68,"time":181.01041666666703,"velocity":0.8031496062992126,"duration":0.17916666666667425},{"name":"F2","midi":41,"time":181.01250000000036,"velocity":0.8031496062992126,"duration":0.1770833333333428},{"name":"G4","midi":67,"time":181.19166666666703,"velocity":0.8031496062992126,"duration":0.731250000000017},{"name":"D#2","midi":39,"time":181.19166666666703,"velocity":0.8031496062992126,"duration":0.36250000000001137},{"name":"D#4","midi":63,"time":181.55625000000038,"velocity":0.8031496062992126,"duration":0.18125000000000568},{"name":"A#2","midi":46,"time":181.5583333333337,"velocity":0.8031496062992126,"duration":0.3645833333333428},{"name":"C#4","midi":61,"time":181.73750000000038,"velocity":0.8031496062992126,"duration":0.18333333333333712},{"name":"G#4","midi":68,"time":181.92500000000038,"velocity":0.8031496062992126,"duration":0.8979166666666742},{"name":"D#4","midi":63,"time":181.92500000000038,"velocity":0.8031496062992126,"duration":0.7208333333333314},{"name":"C4","midi":60,"time":181.92500000000038,"velocity":0.8031496062992126,"duration":0.35833333333332007},{"name":"C3","midi":48,"time":181.9270833333337,"velocity":0.8031496062992126,"duration":0.35624999999998863},{"name":"C#4","midi":61,"time":182.28541666666703,"velocity":0.8031496062992126,"duration":0.1770833333333428},{"name":"G#2","midi":44,"time":182.28541666666703,"velocity":0.8031496062992126,"duration":0.3583333333333485},{"name":"C4","midi":60,"time":182.4645833333337,"velocity":0.8031496062992126,"duration":0.17916666666667425},{"name":"A#3","midi":58,"time":182.64791666666704,"velocity":0.8031496062992126,"duration":1.0645833333333599},{"name":"C#3","midi":49,"time":182.64791666666704,"velocity":0.8031496062992126,"duration":0.3541666666666856},{"name":"F4","midi":65,"time":182.64791666666704,"velocity":0.8031496062992126,"duration":0.7125000000000341},{"name":"G4","midi":67,"time":182.8250000000004,"velocity":0.8031496062992126,"duration":0.17500000000001137},{"name":"G#4","midi":68,"time":183.00208333333373,"velocity":0.8031496062992126,"duration":0.17916666666667425},{"name":"A#2","midi":46,"time":183.00416666666706,"velocity":0.8031496062992126,"duration":0.3541666666666856},{"name":"A#4","midi":70,"time":183.1812500000004,"velocity":0.8031496062992126,"duration":0.1770833333333428},{"name":"C5","midi":72,"time":183.36041666666708,"velocity":0.8031496062992126,"duration":0.7145833333333371},{"name":"D#4","midi":63,"time":183.3625000000004,"velocity":0.8031496062992126,"duration":0.7125000000000057},{"name":"D#3","midi":51,"time":183.3625000000004,"velocity":0.8031496062992126,"duration":0.3499999999999943},{"name":"G#3","midi":56,"time":183.7125000000004,"velocity":0.8031496062992126,"duration":0.18125000000000568},{"name":"C3","midi":48,"time":183.71458333333374,"velocity":0.8031496062992126,"duration":0.3583333333333485},{"name":"G3","midi":55,"time":183.8937500000004,"velocity":0.8031496062992126,"duration":0.17916666666667425},{"name":"D4","midi":62,"time":184.07500000000041,"velocity":0.8031496062992126,"duration":0.7250000000000227},{"name":"G#3","midi":56,"time":184.07708333333375,"velocity":0.8031496062992126,"duration":0.36041666666667993},{"name":"F3","midi":53,"time":184.07708333333375,"velocity":0.8031496062992126,"duration":0.36041666666667993},{"name":"G#4","midi":68,"time":184.2541666666671,"velocity":0.8031496062992126,"duration":0.18125000000000568},{"name":"A#4","midi":70,"time":184.43958333333376,"velocity":0.8031496062992126,"duration":0.1770833333333428},{"name":"G3","midi":55,"time":184.43958333333376,"velocity":0.8031496062992126,"duration":0.1770833333333428},{"name":"A#2","midi":46,"time":184.43958333333376,"velocity":0.8031496062992126,"duration":0.7145833333333655},{"name":"C5","midi":72,"time":184.6166666666671,"velocity":0.8031496062992126,"duration":0.18333333333333712},{"name":"G#3","midi":56,"time":184.61875000000043,"velocity":0.8031496062992126,"duration":0.17916666666667425},{"name":"C#5","midi":73,"time":184.80000000000044,"velocity":0.8031496062992126,"duration":0.716666666666697},{"name":"G4","midi":67,"time":184.80208333333377,"velocity":0.8031496062992126,"duration":0.7145833333333655},{"name":"A#3","midi":58,"time":184.80208333333377,"velocity":0.8031496062992126,"duration":0.17291666666667993},{"name":"G#3","midi":56,"time":184.97708333333378,"velocity":0.8031496062992126,"duration":0.1770833333333428},{"name":"G3","midi":55,"time":185.15625000000045,"velocity":0.8031496062992126,"duration":0.17916666666667425},{"name":"D#3","midi":51,"time":185.15625000000045,"velocity":0.8031496062992126,"duration":0.1770833333333428},{"name":"F3","midi":53,"time":185.33541666666713,"velocity":0.8031496062992126,"duration":0.17916666666667425},{"name":"C#3","midi":49,"time":185.33750000000046,"velocity":0.8031496062992126,"duration":0.1770833333333428},{"name":"G#4","midi":68,"time":185.51875000000047,"velocity":0.8031496062992126,"duration":0.7208333333333599},{"name":"D#3","midi":51,"time":185.51875000000047,"velocity":0.8031496062992126,"duration":0.35625000000001705},{"name":"C3","midi":48,"time":185.5208333333338,"velocity":0.8031496062992126,"duration":0.3520833333333542},{"name":"C5","midi":72,"time":185.69375000000048,"velocity":0.8031496062992126,"duration":0.17916666666667425},{"name":"C#5","midi":73,"time":185.87500000000048,"velocity":0.8031496062992126,"duration":0.17916666666667425},{"name":"G#3","midi":56,"time":185.87500000000048,"velocity":0.8031496062992126,"duration":0.5458333333333485},{"name":"F3","midi":53,"time":185.87708333333381,"velocity":0.8031496062992126,"duration":0.543750000000017},{"name":"D#5","midi":75,"time":186.05416666666716,"velocity":0.8031496062992126,"duration":0.18333333333333712},{"name":"F5","midi":77,"time":186.23958333333383,"velocity":0.8031496062992126,"duration":0.7270833333333542},{"name":"C#4","midi":61,"time":186.24166666666716,"velocity":0.8031496062992126,"duration":0.7250000000000227},{"name":"D#3","midi":51,"time":186.42291666666716,"velocity":0.8031496062992126,"duration":0.17916666666667425},{"name":"G3","midi":55,"time":186.42291666666716,"velocity":0.8031496062992126,"duration":0.17916666666667425},{"name":"G#3","midi":56,"time":186.60416666666717,"velocity":0.8031496062992126,"duration":0.18125000000000568},{"name":"F3","midi":53,"time":186.60416666666717,"velocity":0.8031496062992126,"duration":0.17916666666667425},{"name":"A#3","midi":58,"time":186.78541666666717,"velocity":0.8031496062992126,"duration":0.17916666666667425},{"name":"G3","midi":55,"time":186.7875000000005,"velocity":0.8031496062992126,"duration":0.1770833333333428},{"name":"C4","midi":60,"time":186.9687500000005,"velocity":0.8031496062992126,"duration":0.7291666666666856},{"name":"G#3","midi":56,"time":186.9687500000005,"velocity":0.8031496062992126,"duration":0.1770833333333428},{"name":"D#5","midi":75,"time":187.1479166666672,"velocity":0.7874015748031497,"duration":0.18333333333333712},{"name":"G3","midi":55,"time":187.1479166666672,"velocity":0.8031496062992126,"duration":0.18125000000000568},{"name":"F5","midi":77,"time":187.33125000000052,"velocity":0.7874015748031497,"duration":0.18125000000000568},{"name":"F3","midi":53,"time":187.33333333333385,"velocity":0.8031496062992126,"duration":0.17916666666667425},{"name":"G5","midi":79,"time":187.51458333333386,"velocity":0.7874015748031497,"duration":0.18333333333333712},{"name":"D#3","midi":51,"time":187.51458333333386,"velocity":0.8031496062992126,"duration":0.18125000000000568},{"name":"G#5","midi":80,"time":187.70000000000053,"velocity":0.7874015748031497,"duration":1.0833333333333428},{"name":"D3","midi":50,"time":187.70000000000053,"velocity":0.8031496062992126,"duration":0.7229166666666913},{"name":"B3","midi":59,"time":187.70000000000053,"velocity":0.8031496062992126,"duration":0.7250000000000227},{"name":"F3","midi":53,"time":187.87500000000054,"velocity":0.8031496062992126,"duration":0.18125000000000568},{"name":"G3","midi":55,"time":188.05625000000055,"velocity":0.8031496062992126,"duration":0.18125000000000568},{"name":"G#3","midi":56,"time":188.23958333333388,"velocity":0.8031496062992126,"duration":0.18333333333333712},{"name":"A#3","midi":58,"time":188.42500000000055,"velocity":0.8031496062992126,"duration":1.4395833333333599},{"name":"D#3","midi":51,"time":188.42500000000055,"velocity":0.8031496062992126,"duration":0.7145833333333371},{"name":"G5","midi":79,"time":188.78333333333387,"velocity":0.7874015748031497,"duration":0.1770833333333428},{"name":"D3","midi":50,"time":188.78333333333387,"velocity":0.8031496062992126,"duration":0.3541666666666856},{"name":"F5","midi":77,"time":188.96041666666721,"velocity":0.7874015748031497,"duration":0.1770833333333428},{"name":"G5","midi":79,"time":189.1395833333339,"velocity":0.7874015748031497,"duration":0.904166666666697},{"name":"E3","midi":52,"time":189.1395833333339,"velocity":0.8031496062992126,"duration":0.36041666666667993},{"name":"G3","midi":55,"time":189.3145833333339,"velocity":0.8031496062992126,"duration":0.18541666666666856},{"name":"F3","midi":53,"time":189.50000000000057,"velocity":0.8031496062992126,"duration":0.17916666666667425},{"name":"C3","midi":48,"time":189.50000000000057,"velocity":0.8031496062992126,"duration":0.3645833333333428},{"name":"E3","midi":52,"time":189.67916666666724,"velocity":0.8031496062992126,"duration":0.18333333333333712},{"name":"F3","midi":53,"time":189.86666666666724,"velocity":0.8031496062992126,"duration":0.5395833333333542},{"name":"G#3","midi":56,"time":189.86666666666724,"velocity":0.8031496062992126,"duration":0.7229166666666913},{"name":"C5","midi":72,"time":190.04375000000059,"velocity":0.8031496062992126,"duration":0.18125000000000568},{"name":"D5","midi":74,"time":190.2250000000006,"velocity":0.8031496062992126,"duration":0.18333333333333712},{"name":"F3","midi":53,"time":190.22708333333392,"velocity":0.8031496062992126,"duration":0.36250000000001137},{"name":"D#5","midi":75,"time":190.40833333333393,"velocity":0.8031496062992126,"duration":0.17916666666667425},{"name":"D#3","midi":51,"time":190.41041666666726,"velocity":0.8031496062992126,"duration":0.1770833333333428},{"name":"F5","midi":77,"time":190.59166666666727,"velocity":0.8031496062992126,"duration":1.0666666666667197},{"name":"D3","midi":50,"time":190.59166666666727,"velocity":0.8031496062992126,"duration":0.35000000000002274},{"name":"B4","midi":71,"time":190.76458333333395,"velocity":0.8031496062992126,"duration":0.1770833333333428},{"name":"C5","midi":72,"time":190.94375000000062,"velocity":0.8031496062992126,"duration":0.1770833333333428},{"name":"D3","midi":50,"time":190.94375000000062,"velocity":0.8031496062992126,"duration":0.17500000000001137},{"name":"D5","midi":74,"time":191.12083333333396,"velocity":0.8031496062992126,"duration":0.1770833333333428},{"name":"C3","midi":48,"time":191.1229166666673,"velocity":0.8031496062992126,"duration":0.17500000000001137},{"name":"G4","midi":67,"time":191.30000000000064,"velocity":0.8031496062992126,"duration":1.077083333333377},{"name":"B2","midi":47,"time":191.30000000000064,"velocity":0.8031496062992126,"duration":0.1770833333333428},{"name":"G2","midi":43,"time":191.47708333333398,"velocity":0.8031496062992126,"duration":0.17916666666667425},{"name":"D#5","midi":75,"time":191.65833333333399,"velocity":0.8031496062992126,"duration":0.1770833333333428},{"name":"A2","midi":45,"time":191.66041666666732,"velocity":0.8031496062992126,"duration":0.17500000000001137},{"name":"D5","midi":74,"time":191.83750000000066,"velocity":0.8031496062992126,"duration":0.17916666666667425},{"name":"B2","midi":47,"time":191.83750000000066,"velocity":0.8031496062992126,"duration":0.1770833333333428},{"name":"D#5","midi":75,"time":192.01666666666733,"velocity":0.8031496062992126,"duration":0.9104166666666913},{"name":"C3","midi":48,"time":192.01875000000067,"velocity":0.8031496062992126,"duration":0.1770833333333428},{"name":"G#2","midi":44,"time":192.195833333334,"velocity":0.8031496062992126,"duration":0.18125000000000568},{"name":"F#4","midi":66,"time":192.37916666666734,"velocity":0.8031496062992126,"duration":0.3645833333333428},{"name":"A#2","midi":46,"time":192.37916666666734,"velocity":0.8031496062992126,"duration":0.18125000000000568},{"name":"C3","midi":48,"time":192.56250000000068,"velocity":0.8031496062992126,"duration":0.18125000000000568},{"name":"F4","midi":65,"time":192.74583333333402,"velocity":0.8031496062992126,"duration":0.904166666666697},{"name":"C#3","midi":49,"time":192.74583333333402,"velocity":0.8031496062992126,"duration":0.3645833333333428},{"name":"G#4","midi":68,"time":192.92708333333402,"velocity":0.8031496062992126,"duration":0.18125000000000568},{"name":"A#4","midi":70,"time":193.11041666666736,"velocity":0.8031496062992126,"duration":0.1770833333333428},{"name":"C#3","midi":49,"time":193.1125000000007,"velocity":0.8031496062992126,"duration":0.17500000000001137},{"name":"C5","midi":72,"time":193.28958333333404,"velocity":0.8031496062992126,"duration":0.17916666666667425},{"name":"C3","midi":48,"time":193.28958333333404,"velocity":0.8031496062992126,"duration":0.17916666666667425},{"name":"C#5","midi":73,"time":193.47083333333404,"velocity":0.8031496062992126,"duration":1.0708333333333826},{"name":"A#2","midi":46,"time":193.47083333333404,"velocity":0.8031496062992126,"duration":0.36041666666667993},{"name":"G4","midi":67,"time":193.65000000000072,"velocity":0.8031496062992126,"duration":0.17916666666667425},{"name":"G#4","midi":68,"time":193.83125000000072,"velocity":0.8031496062992126,"duration":0.1770833333333428},{"name":"A#2","midi":46,"time":193.83125000000072,"velocity":0.8031496062992126,"duration":0.1770833333333428},{"name":"A#4","midi":70,"time":194.0104166666674,"velocity":0.8031496062992126,"duration":0.1770833333333428},{"name":"G#2","midi":44,"time":194.0104166666674,"velocity":0.8031496062992126,"duration":0.17500000000001137},{"name":"D#4","midi":63,"time":194.18750000000074,"velocity":0.8031496062992126,"duration":0.8916666666667084},{"name":"G2","midi":43,"time":194.18958333333407,"velocity":0.8031496062992126,"duration":0.17291666666667993},{"name":"D#2","midi":39,"time":194.36250000000075,"velocity":0.8031496062992126,"duration":0.1770833333333428},{"name":"C5","midi":72,"time":194.54166666666742,"velocity":0.8031496062992126,"duration":0.17916666666667425},{"name":"F2","midi":41,"time":194.54166666666742,"velocity":0.8031496062992126,"duration":0.17916666666667425},{"name":"A#4","midi":70,"time":194.72291666666743,"velocity":0.8031496062992126,"duration":0.1770833333333428},{"name":"G2","midi":43,"time":194.72291666666743,"velocity":0.8031496062992126,"duration":0.17500000000001137},{"name":"C5","midi":72,"time":194.90000000000077,"velocity":0.8031496062992126,"duration":1.0854166666667027},{"name":"G#2","midi":44,"time":194.90000000000077,"velocity":0.8031496062992126,"duration":0.1770833333333428},{"name":"F#4","midi":66,"time":195.07916666666745,"velocity":0.8031496062992126,"duration":0.17916666666667425},{"name":"F2","midi":41,"time":195.08125000000078,"velocity":0.8031496062992126,"duration":0.1770833333333428},{"name":"F4","midi":65,"time":195.26041666666745,"velocity":0.8031496062992126,"duration":0.1770833333333428},{"name":"G2","midi":43,"time":195.26041666666745,"velocity":0.8031496062992126,"duration":0.17500000000001137},{"name":"D#4","midi":63,"time":195.4375000000008,"velocity":0.8031496062992126,"duration":0.18125000000000568},{"name":"A2","midi":45,"time":195.43958333333413,"velocity":0.8031496062992126,"duration":0.17916666666667425},{"name":"C#4","midi":61,"time":195.62083333333413,"velocity":0.8031496062992126,"duration":1.650000000000034},{"name":"A#2","midi":46,"time":195.62083333333413,"velocity":0.8031496062992126,"duration":0.17916666666667425},{"name":"A2","midi":45,"time":195.8000000000008,"velocity":0.8031496062992126,"duration":0.18333333333333712},{"name":"F4","midi":65,"time":195.98541666666748,"velocity":0.8031496062992126,"duration":0.3687500000000057},{"name":"A#2","midi":46,"time":195.9875000000008,"velocity":0.8031496062992126,"duration":0.18333333333333712},{"name":"C3","midi":48,"time":196.17083333333414,"velocity":0.8031496062992126,"duration":0.18333333333333712},{"name":"A#4","midi":70,"time":196.3562500000008,"velocity":0.8031496062992126,"duration":0.3687500000000057},{"name":"C#3","midi":49,"time":196.3562500000008,"velocity":0.8031496062992126,"duration":0.18333333333333712},{"name":"A#2","midi":46,"time":196.54166666666748,"velocity":0.8031496062992126,"duration":0.18333333333333712},{"name":"G#4","midi":68,"time":196.72500000000082,"velocity":0.8031496062992126,"duration":0.3645833333333428},{"name":"C3","midi":48,"time":196.72708333333415,"velocity":0.8031496062992126,"duration":0.18125000000000568},{"name":"C#3","midi":49,"time":196.90833333333416,"velocity":0.8031496062992126,"duration":0.17916666666667425},{"name":"G4","midi":67,"time":197.08958333333416,"velocity":0.8031496062992126,"duration":0.8687500000000341},{"name":"D#3","midi":51,"time":197.0916666666675,"velocity":0.8031496062992126,"duration":0.3583333333333485},{"name":"A#3","midi":58,"time":197.27083333333417,"velocity":0.8031496062992126,"duration":0.17916666666667425},{"name":"C4","midi":60,"time":197.45208333333417,"velocity":0.8031496062992126,"duration":0.17916666666667425},{"name":"D#3","midi":51,"time":197.45208333333417,"velocity":0.8031496062992126,"duration":0.18125000000000568},{"name":"C#3","midi":49,"time":197.63333333333418,"velocity":0.8031496062992126,"duration":0.1770833333333428},{"name":"C#4","midi":61,"time":197.6354166666675,"velocity":0.8031496062992126,"duration":0.17291666666667993},{"name":"D#4","midi":63,"time":197.81041666666752,"velocity":0.8031496062992126,"duration":0.8645833333333712},{"name":"C3","midi":48,"time":197.81250000000085,"velocity":0.8031496062992126,"duration":0.3520833333333542},{"name":"G4","midi":67,"time":197.98750000000086,"velocity":0.8031496062992126,"duration":0.1770833333333428},{"name":"G#4","midi":68,"time":198.16666666666754,"velocity":0.8031496062992126,"duration":0.17916666666667425},{"name":"C3","midi":48,"time":198.16666666666754,"velocity":0.8031496062992126,"duration":0.1770833333333428},{"name":"A#4","midi":70,"time":198.3458333333342,"velocity":0.8031496062992126,"duration":0.18125000000000568},{"name":"A#2","midi":46,"time":198.34791666666754,"velocity":0.8031496062992126,"duration":0.1770833333333428},{"name":"C5","midi":72,"time":198.52916666666755,"velocity":0.8031496062992126,"duration":0.7145833333333655},{"name":"G#2","midi":44,"time":198.52916666666755,"velocity":0.8031496062992126,"duration":0.3541666666666856},{"name":"D#4","midi":63,"time":198.70416666666756,"velocity":0.8031496062992126,"duration":0.1770833333333428},{"name":"F4","midi":65,"time":198.88541666666757,"velocity":0.8031496062992126,"duration":0.17500000000001137},{"name":"G#3","midi":56,"time":198.88541666666757,"velocity":0.8031496062992126,"duration":0.17500000000001137},{"name":"G3","midi":55,"time":199.0625000000009,"velocity":0.8031496062992126,"duration":0.17916666666667425},{"name":"G4","midi":67,"time":199.06458333333424,"velocity":0.8031496062992126,"duration":0.1770833333333428},{"name":"G#4","midi":68,"time":199.24375000000092,"velocity":0.8031496062992126,"duration":0.8833333333333542},{"name":"F3","midi":53,"time":199.24583333333425,"velocity":0.8031496062992126,"duration":0.3479166666666629},{"name":"C5","midi":72,"time":199.41666666666757,"velocity":0.8031496062992126,"duration":0.1770833333333428},{"name":"D5","midi":74,"time":199.59583333333424,"velocity":0.8031496062992126,"duration":0.17916666666667425},{"name":"F3","midi":53,"time":199.59583333333424,"velocity":0.8031496062992126,"duration":0.17916666666667425},{"name":"D#5","midi":75,"time":199.77708333333425,"velocity":0.8031496062992126,"duration":0.17500000000001137},{"name":"D#3","midi":51,"time":199.77708333333425,"velocity":0.8031496062992126,"duration":0.17291666666667993},{"name":"F5","midi":77,"time":199.95208333333426,"velocity":0.8031496062992126,"duration":0.8770833333333883},{"name":"D3","midi":50,"time":199.9541666666676,"velocity":0.8031496062992126,"duration":0.7000000000000455},{"name":"C5","midi":72,"time":200.12708333333427,"velocity":0.8031496062992126,"duration":0.17500000000001137},{"name":"A#4","midi":70,"time":200.3041666666676,"velocity":0.8031496062992126,"duration":0.17291666666667993},{"name":"G#4","midi":68,"time":200.4770833333343,"velocity":0.8031496062992126,"duration":0.17500000000001137},{"name":"D#3","midi":51,"time":200.65416666666763,"velocity":0.8031496062992126,"duration":0.3541666666666856},{"name":"A#3","midi":58,"time":200.65625000000097,"velocity":0.8031496062992126,"duration":0.7125000000000341},{"name":"G4","midi":67,"time":200.65625000000097,"velocity":0.8031496062992126,"duration":0.5312500000000284},{"name":"A#4","midi":70,"time":200.82916666666765,"velocity":0.8031496062992126,"duration":0.1770833333333428},{"name":"D#5","midi":75,"time":201.00833333333432,"velocity":0.8031496062992126,"duration":0.5416666666666856},{"name":"G3","midi":55,"time":201.01041666666765,"velocity":0.8031496062992126,"duration":0.3583333333333485},{"name":"G4","midi":67,"time":201.187500000001,"velocity":0.8031496062992126,"duration":0.17916666666667425},{"name":"F4","midi":65,"time":201.37083333333433,"velocity":0.8031496062992126,"duration":1.4312500000000625},{"name":"C4","midi":60,"time":201.37083333333433,"velocity":0.8031496062992126,"duration":0.7229166666666913},{"name":"G#3","midi":56,"time":201.37291666666766,"velocity":0.8031496062992126,"duration":0.35625000000001705},{"name":"D#5","midi":75,"time":201.550000000001,"velocity":0.8031496062992126,"duration":0.17916666666667425},{"name":"D5","midi":74,"time":201.731250000001,"velocity":0.8031496062992126,"duration":0.1770833333333428},{"name":"F3","midi":53,"time":201.731250000001,"velocity":0.8031496062992126,"duration":0.36041666666667993},{"name":"C5","midi":72,"time":201.9104166666677,"velocity":0.8031496062992126,"duration":0.18125000000000568},{"name":"D5","midi":74,"time":202.09375000000102,"velocity":0.8031496062992126,"duration":0.1770833333333428},{"name":"A#3","midi":58,"time":202.09583333333435,"velocity":0.8031496062992126,"duration":0.7041666666667084},{"name":"D#5","midi":75,"time":202.2729166666677,"velocity":0.8031496062992126,"duration":0.17500000000001137},{"name":"C5","midi":72,"time":202.4479166666677,"velocity":0.8031496062992126,"duration":0.17500000000001137},{"name":"A#2","midi":46,"time":202.45000000000104,"velocity":0.8031496062992126,"duration":0.35000000000002274},{"name":"D5","midi":74,"time":202.62500000000105,"velocity":0.8031496062992126,"duration":0.17500000000001137},{"name":"D#5","midi":75,"time":202.8020833333344,"velocity":0.8031496062992126,"duration":0.1729166666666515},{"name":"A3","midi":57,"time":202.80416666666773,"velocity":0.8031496062992126,"duration":0.7020833333333485},{"name":"C4","midi":60,"time":202.80416666666773,"velocity":0.8031496062992126,"duration":0.34583333333333144},{"name":"C3","midi":48,"time":202.80625000000106,"velocity":0.8031496062992126,"duration":0.34166666666666856},{"name":"C5","midi":72,"time":202.97500000000105,"velocity":0.8031496062992126,"duration":0.17291666666667993},{"name":"D5","midi":74,"time":203.15000000000106,"velocity":0.8031496062992126,"duration":0.1770833333333428},{"name":"C4","midi":60,"time":203.15000000000106,"velocity":0.8031496062992126,"duration":0.1770833333333428},{"name":"D#5","midi":75,"time":203.32916666666773,"velocity":0.8031496062992126,"duration":0.1770833333333428},{"name":"A#3","midi":58,"time":203.32916666666773,"velocity":0.8031496062992126,"duration":0.1770833333333428},{"name":"F5","midi":77,"time":203.5083333333344,"velocity":0.8031496062992126,"duration":0.1666666666666572},{"name":"D4","midi":62,"time":203.5083333333344,"velocity":0.8031496062992126,"duration":0.7125000000000057},{"name":"G#3","midi":56,"time":203.51041666666774,"velocity":0.8031496062992126,"duration":0.34166666666666856},{"name":"D#5","midi":75,"time":203.6770833333344,"velocity":0.8031496062992126,"duration":0.17500000000001137},{"name":"D5","midi":74,"time":203.85416666666774,"velocity":0.8031496062992126,"duration":0.17916666666667425},{"name":"A#3","midi":58,"time":203.85416666666774,"velocity":0.8031496062992126,"duration":0.17916666666667425},{"name":"C5","midi":72,"time":204.03541666666774,"velocity":0.8031496062992126,"duration":0.18333333333333712},{"name":"G#3","midi":56,"time":204.03750000000107,"velocity":0.8031496062992126,"duration":0.18125000000000568},{"name":"A#4","midi":70,"time":204.2208333333344,"velocity":0.8031496062992126,"duration":1.5958333333333599},{"name":"D#4","midi":63,"time":204.2208333333344,"velocity":0.8031496062992126,"duration":0.7104166666666742},{"name":"G3","midi":55,"time":204.22291666666774,"velocity":0.8031496062992126,"duration":0.36041666666667993},{"name":"C4","midi":60,"time":204.40208333333442,"velocity":0.8031496062992126,"duration":0.17916666666667425},{"name":"D4","midi":62,"time":204.58333333333442,"velocity":0.8031496062992126,"duration":0.17500000000001137},{"name":"A#2","midi":46,"time":204.58541666666775,"velocity":0.8031496062992126,"duration":0.17291666666667993},{"name":"D#4","midi":63,"time":204.76041666666777,"velocity":0.8031496062992126,"duration":0.17083333333332007},{"name":"C3","midi":48,"time":204.76041666666777,"velocity":0.8031496062992126,"duration":0.16874999999998863},{"name":"F4","midi":65,"time":204.93333333333442,"velocity":0.8031496062992126,"duration":0.17083333333332007},{"name":"D3","midi":50,"time":204.93333333333442,"velocity":0.8031496062992126,"duration":0.3479166666666629},{"name":"G#3","midi":56,"time":204.93541666666775,"velocity":0.8031496062992126,"duration":0.7041666666666799},{"name":"D#4","midi":63,"time":205.10416666666774,"velocity":0.8031496062992126,"duration":0.17500000000001137},{"name":"D4","midi":62,"time":205.28125000000108,"velocity":0.8031496062992126,"duration":0.1770833333333428},{"name":"C3","midi":48,"time":205.2833333333344,"velocity":0.8031496062992126,"duration":0.17500000000001137},{"name":"C4","midi":60,"time":205.46041666666775,"velocity":0.8031496062992126,"duration":0.1770833333333428},{"name":"D3","midi":50,"time":205.46041666666775,"velocity":0.8031496062992126,"duration":0.17916666666667425},{"name":"A#3","midi":58,"time":205.64166666666776,"velocity":0.8031496062992126,"duration":1.0812500000000398},{"name":"D#3","midi":51,"time":205.64166666666776,"velocity":0.8031496062992126,"duration":0.35625000000001705},{"name":"G3","midi":55,"time":205.6437500000011,"velocity":0.8031496062992126,"duration":0.716666666666697},{"name":"G#4","midi":68,"time":205.81666666666777,"velocity":0.8031496062992126,"duration":0.17916666666667425},{"name":"G4","midi":67,"time":205.99791666666778,"velocity":0.8031496062992126,"duration":0.18125000000000568},{"name":"D#3","midi":51,"time":206.0000000000011,"velocity":0.8031496062992126,"duration":0.1770833333333428},{"name":"F4","midi":65,"time":206.17916666666778,"velocity":0.8031496062992126,"duration":0.17916666666667425},{"name":"D3","midi":50,"time":206.1812500000011,"velocity":0.8031496062992126,"duration":0.1770833333333428},{"name":"D#4","midi":63,"time":206.3604166666678,"velocity":0.8031496062992126,"duration":0.8791666666666913},{"name":"F#3","midi":54,"time":206.36250000000112,"velocity":0.8031496062992126,"duration":0.7270833333333542},{"name":"C3","midi":48,"time":206.36250000000112,"velocity":0.8031496062992126,"duration":0.36041666666667993},{"name":"A3","midi":57,"time":206.72500000000113,"velocity":0.8031496062992126,"duration":0.17916666666667425},{"name":"C3","midi":48,"time":206.72500000000113,"velocity":0.8031496062992126,"duration":0.17916666666667425},{"name":"A#3","midi":58,"time":206.90625000000114,"velocity":0.8031496062992126,"duration":0.18333333333333712},{"name":"A#2","midi":46,"time":206.90625000000114,"velocity":0.8031496062992126,"duration":0.18125000000000568},{"name":"F3","midi":53,"time":207.0916666666678,"velocity":0.8031496062992126,"duration":1.4583333333333712},{"name":"C4","midi":60,"time":207.0916666666678,"velocity":0.8031496062992126,"duration":0.7291666666666856},{"name":"A2","midi":45,"time":207.09375000000114,"velocity":0.8031496062992126,"duration":0.7250000000000227},{"name":"D#4","midi":63,"time":207.27083333333448,"velocity":0.8031496062992126,"duration":0.18333333333333712},{"name":"F4","midi":65,"time":207.45416666666782,"velocity":0.8031496062992126,"duration":0.18125000000000568},{"name":"D#4","midi":63,"time":207.63750000000115,"velocity":0.8031496062992126,"duration":0.18125000000000568},{"name":"D4","midi":62,"time":207.8208333333345,"velocity":0.8031496062992126,"duration":0.18125000000000568},{"name":"A#3","midi":58,"time":207.82291666666782,"velocity":0.8031496062992126,"duration":1.0875000000000057},{"name":"A#2","midi":46,"time":207.82291666666782,"velocity":0.8031496062992126,"duration":0.7270833333333542},{"name":"C5","midi":72,"time":208.0020833333345,"velocity":0.8031496062992126,"duration":0.18125000000000568},{"name":"A#4","midi":70,"time":208.18541666666783,"velocity":0.8031496062992126,"duration":0.18125000000000568},{"name":"G#4","midi":68,"time":208.36666666666784,"velocity":0.8031496062992126,"duration":0.18125000000000568},{"name":"G4","midi":67,"time":208.55000000000118,"velocity":0.8031496062992126,"duration":0.35833333333332007},{"name":"D#3","midi":51,"time":208.5520833333345,"velocity":0.8031496062992126,"duration":0.7249999999999943},{"name":"A#4","midi":70,"time":208.91041666666783,"velocity":0.8031496062992126,"duration":0.3645833333333428},{"name":"D#4","midi":63,"time":208.91250000000116,"velocity":0.8031496062992126,"duration":0.17916666666667425},{"name":"F4","midi":65,"time":209.09166666666783,"velocity":0.8031496062992126,"duration":0.18333333333333712},{"name":"D#5","midi":75,"time":209.2770833333345,"velocity":0.8031496062992126,"duration":0.9229166666666799},{"name":"G4","midi":67,"time":209.27916666666783,"velocity":0.8031496062992126,"duration":0.36666666666667425},{"name":"D#3","midi":51,"time":209.6458333333345,"velocity":0.8031496062992126,"duration":0.18541666666666856},{"name":"G4","midi":67,"time":209.64791666666784,"velocity":0.8031496062992126,"duration":0.18333333333333712},{"name":"G#4","midi":68,"time":209.8333333333345,"velocity":0.8031496062992126,"duration":0.18333333333333712},{"name":"F3","midi":53,"time":209.8333333333345,"velocity":0.8031496062992126,"duration":0.18125000000000568},{"name":"A#4","midi":70,"time":210.01666666666785,"velocity":0.8031496062992126,"duration":0.9083333333333599},{"name":"G3","midi":55,"time":210.01875000000118,"velocity":0.8031496062992126,"duration":0.3645833333333428},{"name":"G5","midi":79,"time":210.20000000000118,"velocity":0.8031496062992126,"duration":0.18333333333333712},{"name":"F5","midi":77,"time":210.38541666666785,"velocity":0.8031496062992126,"duration":0.17916666666667425},{"name":"A#3","midi":58,"time":210.38541666666785,"velocity":0.8031496062992126,"duration":0.17916666666667425},{"name":"G3","midi":55,"time":210.38750000000118,"velocity":0.8031496062992126,"duration":0.17500000000001137},{"name":"D#5","midi":75,"time":210.56666666666786,"velocity":0.8031496062992126,"duration":0.18125000000000568},{"name":"C4","midi":60,"time":210.56666666666786,"velocity":0.8031496062992126,"duration":0.17916666666667425},{"name":"G#3","midi":56,"time":210.5687500000012,"velocity":0.8031496062992126,"duration":0.1770833333333428},{"name":"D5","midi":74,"time":210.74791666666786,"velocity":0.8031496062992126,"duration":1.106250000000017},{"name":"A#3","midi":58,"time":210.7500000000012,"velocity":0.8031496062992126,"duration":0.35625000000001705},{"name":"D4","midi":62,"time":210.7500000000012,"velocity":0.8031496062992126,"duration":0.17500000000001137},{"name":"G#4","midi":68,"time":210.92708333333454,"velocity":0.8031496062992126,"duration":0.17916666666667425},{"name":"C4","midi":60,"time":210.92708333333454,"velocity":0.8031496062992126,"duration":0.1770833333333428},{"name":"G4","midi":67,"time":211.10833333333454,"velocity":0.8031496062992126,"duration":0.18333333333333712},{"name":"A#3","midi":58,"time":211.10833333333454,"velocity":0.8031496062992126,"duration":0.18333333333333712},{"name":"A#2","midi":46,"time":211.11041666666787,"velocity":0.8031496062992126,"duration":0.3687500000000057},{"name":"G#3","midi":56,"time":211.2937500000012,"velocity":0.8031496062992126,"duration":0.18333333333333712},{"name":"F4","midi":65,"time":211.2937500000012,"velocity":0.8031496062992126,"duration":0.18333333333333712},{"name":"D#4","midi":63,"time":211.47916666666788,"velocity":0.8031496062992126,"duration":0.18541666666666856},{"name":"G3","midi":55,"time":211.4812500000012,"velocity":0.8031496062992126,"duration":0.7437500000000057},{"name":"C3","midi":48,"time":211.4812500000012,"velocity":0.8031496062992126,"duration":0.7437500000000057},{"name":"D4","midi":62,"time":211.66666666666788,"velocity":0.8031496062992126,"duration":0.18541666666666856},{"name":"G4","midi":67,"time":211.85416666666788,"velocity":0.8031496062992126,"duration":0.3708333333333371},{"name":"C4","midi":60,"time":211.8562500000012,"velocity":0.8031496062992126,"duration":0.18125000000000568},{"name":"D4","midi":62,"time":212.03750000000122,"velocity":0.8031496062992126,"duration":0.18541666666666856},{"name":"C5","midi":72,"time":212.22708333333455,"velocity":0.8031496062992126,"duration":0.9208333333333485},{"name":"D#4","midi":63,"time":212.22708333333455,"velocity":0.8031496062992126,"duration":0.36666666666667425},{"name":"D#4","midi":63,"time":212.59375000000122,"velocity":0.8031496062992126,"duration":0.18541666666666856},{"name":"C3","midi":48,"time":212.59583333333455,"velocity":0.8031496062992126,"duration":0.18333333333333712},{"name":"D3","midi":50,"time":212.78125000000122,"velocity":0.8031496062992126,"duration":0.18333333333333712},{"name":"F4","midi":65,"time":212.78125000000122,"velocity":0.8031496062992126,"duration":0.18333333333333712},{"name":"G4","midi":67,"time":212.96458333333456,"velocity":0.8031496062992126,"duration":0.8958333333333712},{"name":"D#3","midi":51,"time":212.9666666666679,"velocity":0.8031496062992126,"duration":0.36041666666667993},{"name":"D#5","midi":75,"time":213.1479166666679,"velocity":0.8031496062992126,"duration":0.17916666666667425},{"name":"D5","midi":74,"time":213.3291666666679,"velocity":0.8031496062992126,"duration":0.1770833333333428},{"name":"G3","midi":55,"time":213.3291666666679,"velocity":0.8031496062992126,"duration":0.1770833333333428},{"name":"D#3","midi":51,"time":213.33125000000123,"velocity":0.8031496062992126,"duration":0.17500000000001137},{"name":"C5","midi":72,"time":213.50833333333458,"velocity":0.8031496062992126,"duration":0.1770833333333428},{"name":"G#3","midi":56,"time":213.50833333333458,"velocity":0.8031496062992126,"duration":0.1770833333333428},{"name":"F3","midi":53,"time":213.5104166666679,"velocity":0.8031496062992126,"duration":0.17291666666667993},{"name":"A#4","midi":70,"time":213.68750000000125,"velocity":0.8031496062992126,"duration":1.0791666666667084},{"name":"G3","midi":55,"time":213.68750000000125,"velocity":0.8031496062992126,"duration":0.3520833333333542},{"name":"A#3","midi":58,"time":213.68750000000125,"velocity":0.8031496062992126,"duration":0.17291666666667993},{"name":"F4","midi":65,"time":213.86250000000126,"velocity":0.8031496062992126,"duration":0.17500000000001137},{"name":"G#3","midi":56,"time":213.86250000000126,"velocity":0.8031496062992126,"duration":0.1770833333333428},{"name":"D#4","midi":63,"time":214.04166666666794,"velocity":0.8031496062992126,"duration":0.1770833333333428},{"name":"G3","midi":55,"time":214.04166666666794,"velocity":0.8031496062992126,"duration":0.1770833333333428},{"name":"G2","midi":43,"time":214.04166666666794,"velocity":0.8031496062992126,"duration":0.36041666666667993},{"name":"F3","midi":53,"time":214.2208333333346,"velocity":0.8031496062992126,"duration":0.17916666666667425},{"name":"C#4","midi":61,"time":214.2208333333346,"velocity":0.8031496062992126,"duration":0.17916666666667425},{"name":"C4","midi":60,"time":214.40208333333462,"velocity":0.8031496062992126,"duration":0.17916666666667425},{"name":"D#3","midi":51,"time":214.40416666666795,"velocity":0.8031496062992126,"duration":0.7354166666666799},{"name":"G#2","midi":44,"time":214.40416666666795,"velocity":0.8031496062992126,"duration":0.7333333333333485},{"name":"A#3","midi":58,"time":214.58333333333462,"velocity":0.8031496062992126,"duration":0.18333333333333712},{"name":"D#4","midi":63,"time":214.7687500000013,"velocity":0.8031496062992126,"duration":0.3687500000000057},{"name":"G#3","midi":56,"time":214.7687500000013,"velocity":0.8031496062992126,"duration":0.18125000000000568},{"name":"A#3","midi":58,"time":214.9500000000013,"velocity":0.8031496062992126,"duration":0.18541666666666856},{"name":"G#4","midi":68,"time":215.13958333333463,"velocity":0.8031496062992126,"duration":0.918750000000017},{"name":"C4","midi":60,"time":215.14166666666796,"velocity":0.8031496062992126,"duration":0.3645833333333428},{"name":"C4","midi":60,"time":215.5062500000013,"velocity":0.8031496062992126,"duration":0.1875},{"name":"G#2","midi":44,"time":215.50833333333463,"velocity":0.8031496062992126,"duration":0.18333333333333712},{"name":"D4","midi":62,"time":215.6937500000013,"velocity":0.8031496062992126,"duration":0.18333333333333712},{"name":"A#2","midi":46,"time":215.69583333333463,"velocity":0.8031496062992126,"duration":0.17916666666667425},{"name":"D#4","midi":63,"time":215.87708333333464,"velocity":0.8031496062992126,"duration":0.9020833333333655},{"name":"C3","midi":48,"time":215.87916666666797,"velocity":0.8031496062992126,"duration":0.36041666666667993},{"name":"C5","midi":72,"time":216.05833333333464,"velocity":0.8031496062992126,"duration":0.17916666666667425},{"name":"A#4","midi":70,"time":216.23958333333465,"velocity":0.8031496062992126,"duration":0.17916666666667425},{"name":"D#3","midi":51,"time":216.24166666666798,"velocity":0.8031496062992126,"duration":0.17500000000001137},{"name":"C3","midi":48,"time":216.24166666666798,"velocity":0.8031496062992126,"duration":0.17500000000001137},{"name":"G#4","midi":68,"time":216.41875000000132,"velocity":0.8031496062992126,"duration":0.17916666666667425},{"name":"D3","midi":50,"time":216.42083333333466,"velocity":0.8031496062992126,"duration":0.17500000000001137},{"name":"F3","midi":53,"time":216.42083333333466,"velocity":0.8031496062992126,"duration":0.1770833333333428},{"name":"G4","midi":67,"time":216.60000000000133,"velocity":0.8031496062992126,"duration":0.904166666666697},{"name":"G3","midi":55,"time":216.60000000000133,"velocity":0.8031496062992126,"duration":0.1770833333333428},{"name":"D#3","midi":51,"time":216.60000000000133,"velocity":0.8031496062992126,"duration":0.3645833333333428},{"name":"F3","midi":53,"time":216.779166666668,"velocity":0.8031496062992126,"duration":0.18333333333333712},{"name":"D4","midi":62,"time":216.78125000000134,"velocity":0.8031496062992126,"duration":0.18125000000000568},{"name":"C4","midi":60,"time":216.96458333333467,"velocity":0.8031496062992126,"duration":0.18125000000000568},{"name":"D#3","midi":51,"time":216.966666666668,"velocity":0.8031496062992126,"duration":0.1770833333333428},{"name":"D#2","midi":39,"time":216.966666666668,"velocity":0.8031496062992126,"duration":0.3583333333333485},{"name":"D3","midi":50,"time":217.14583333333468,"velocity":0.8031496062992126,"duration":0.17916666666667425},{"name":"A#3","midi":58,"time":217.147916666668,"velocity":0.8031496062992126,"duration":0.1770833333333428},{"name":"G#3","midi":56,"time":217.32708333333468,"velocity":0.8031496062992126,"duration":0.36041666666667993},{"name":"F2","midi":41,"time":217.32708333333468,"velocity":0.8031496062992126,"duration":0.3583333333333485},{"name":"C3","midi":48,"time":217.32916666666802,"velocity":0.8031496062992126,"duration":0.35625000000001705},{"name":"F4","midi":65,"time":217.50416666666803,"velocity":0.8031496062992126,"duration":0.17916666666667425},{"name":"G#4","midi":68,"time":217.68750000000136,"velocity":0.8031496062992126,"duration":0.17916666666667425},{"name":"D3","midi":50,"time":217.6895833333347,"velocity":0.8031496062992126,"duration":0.1770833333333428},{"name":"B2","midi":47,"time":217.6895833333347,"velocity":0.8031496062992126,"duration":0.36041666666667993},{"name":"G2","midi":43,"time":217.69166666666803,"velocity":0.8031496062992126,"duration":0.35625000000001705},{"name":"D#3","midi":51,"time":217.86875000000137,"velocity":0.8031496062992126,"duration":0.1770833333333428},{"name":"G4","midi":67,"time":217.86875000000137,"velocity":0.8031496062992126,"duration":0.17916666666667425},{"name":"F4","midi":65,"time":218.05000000000138,"velocity":0.8031496062992126,"duration":0.1770833333333428},{"name":"F3","midi":53,"time":218.05000000000138,"velocity":0.8031496062992126,"duration":0.36250000000001137},{"name":"C3","midi":48,"time":218.0520833333347,"velocity":0.8031496062992126,"duration":0.7270833333333542},{"name":"G#2","midi":44,"time":218.0520833333347,"velocity":0.8031496062992126,"duration":0.36041666666667993},{"name":"D#4","midi":63,"time":218.22708333333472,"velocity":0.8031496062992126,"duration":0.18333333333333712},{"name":"D4","midi":62,"time":218.4125000000014,"velocity":0.8031496062992126,"duration":0.18125000000000568},{"name":"F#3","midi":54,"time":218.41458333333472,"velocity":0.8031496062992126,"duration":0.3645833333333428},{"name":"A2","midi":45,"time":218.41458333333472,"velocity":0.8031496062992126,"duration":0.36250000000001137},{"name":"C4","midi":60,"time":218.5937500000014,"velocity":0.8031496062992126,"duration":0.18333333333333712},{"name":"B3","midi":59,"time":218.77916666666806,"velocity":0.8031496062992126,"duration":0.7291666666666572},{"name":"D3","midi":50,"time":218.7812500000014,"velocity":0.8031496062992126,"duration":0.3604166666666515},{"name":"G3","midi":55,"time":218.7812500000014,"velocity":0.8031496062992126,"duration":0.36249999999998295},{"name":"G2","midi":43,"time":218.78333333333472,"velocity":0.8031496062992126,"duration":0.35833333333332007},{"name":"G3","midi":55,"time":219.14375000000138,"velocity":0.8031496062992126,"duration":0.18125000000000568},{"name":"A3","midi":57,"time":219.32500000000138,"velocity":0.8031496062992126,"duration":0.18125000000000568},{"name":"G5","midi":79,"time":219.50833333333472,"velocity":0.8031496062992126,"duration":0.731250000000017},{"name":"B3","midi":59,"time":219.51041666666805,"velocity":0.8031496062992126,"duration":0.36250000000001137},{"name":"A3","midi":57,"time":219.8750000000014,"velocity":0.8031496062992126,"duration":0.18125000000000568},{"name":"B3","midi":59,"time":220.05833333333473,"velocity":0.8031496062992126,"duration":0.18125000000000568},{"name":"G#5","midi":80,"time":220.24166666666807,"velocity":0.8031496062992126,"duration":0.7291666666666856},{"name":"C4","midi":60,"time":220.24166666666807,"velocity":0.8031496062992126,"duration":0.18125000000000568},{"name":"B3","midi":59,"time":220.4250000000014,"velocity":0.8031496062992126,"duration":0.17916666666667425},{"name":"C5","midi":72,"time":220.6062500000014,"velocity":0.7480314960629921,"duration":0.7229166666666629},{"name":"C4","midi":60,"time":220.6062500000014,"velocity":0.8031496062992126,"duration":0.18125000000000568},{"name":"D4","midi":62,"time":220.78750000000142,"velocity":0.8031496062992126,"duration":0.18125000000000568},{"name":"G5","midi":79,"time":220.97083333333475,"velocity":0.8031496062992126,"duration":0.7270833333333258},{"name":"D#4","midi":63,"time":220.97291666666808,"velocity":0.8031496062992126,"duration":0.7229166666666629},{"name":"A#4","midi":70,"time":221.32916666666807,"velocity":0.8031496062992126,"duration":0.36666666666667425},{"name":"F#5","midi":78,"time":221.69791666666808,"velocity":0.8031496062992126,"duration":0.7291666666666856},{"name":"A4","midi":69,"time":221.7000000000014,"velocity":0.8031496062992126,"duration":0.36041666666667993},{"name":"C4","midi":60,"time":221.87708333333475,"velocity":0.8031496062992126,"duration":0.18125000000000568},{"name":"A#4","midi":70,"time":222.0604166666681,"velocity":0.8031496062992126,"duration":0.18333333333333712},{"name":"D4","midi":62,"time":222.06250000000142,"velocity":0.8031496062992126,"duration":0.18125000000000568},{"name":"C5","midi":72,"time":222.24583333333476,"velocity":0.8031496062992126,"duration":0.17916666666667425},{"name":"D#4","midi":63,"time":222.24583333333476,"velocity":0.8031496062992126,"duration":0.17916666666667425},{"name":"B5","midi":83,"time":222.42708333333476,"velocity":0.8031496062992126,"duration":0.7291666666666856},{"name":"D5","midi":74,"time":222.4291666666681,"velocity":0.8031496062992126,"duration":0.17916666666667425},{"name":"F4","midi":65,"time":222.4291666666681,"velocity":0.8031496062992126,"duration":0.9083333333333599},{"name":"C5","midi":72,"time":222.6104166666681,"velocity":0.8031496062992126,"duration":0.18125000000000568},{"name":"B4","midi":71,"time":222.7916666666681,"velocity":0.8031496062992126,"duration":0.18333333333333712},{"name":"A4","midi":69,"time":222.97500000000144,"velocity":0.8031496062992126,"duration":0.17916666666667425},{"name":"C6","midi":84,"time":223.15833333333478,"velocity":0.8031496062992126,"duration":0.7229166666666913},{"name":"G4","midi":67,"time":223.15833333333478,"velocity":0.8031496062992126,"duration":0.7208333333333599},{"name":"D#4","midi":63,"time":223.3395833333348,"velocity":0.8031496062992126,"duration":0.17916666666667425},{"name":"F4","midi":65,"time":223.51875000000146,"velocity":0.8031496062992126,"duration":0.18125000000000568},{"name":"G4","midi":67,"time":223.70000000000147,"velocity":0.8031496062992126,"duration":0.18125000000000568},{"name":"G#4","midi":68,"time":223.8833333333348,"velocity":0.8031496062992126,"duration":0.7208333333333599},{"name":"F5","midi":77,"time":223.8833333333348,"velocity":0.8031496062992126,"duration":0.7229166666666913},{"name":"G3","midi":55,"time":224.06250000000148,"velocity":0.8031496062992126,"duration":0.17916666666667425},{"name":"G#3","midi":56,"time":224.24375000000148,"velocity":0.8031496062992126,"duration":0.17916666666667425},{"name":"A#3","midi":58,"time":224.42291666666816,"velocity":0.8031496062992126,"duration":0.18125000000000568},{"name":"E5","midi":76,"time":224.6062500000015,"velocity":0.8031496062992126,"duration":0.7208333333333599},{"name":"C4","midi":60,"time":224.60833333333483,"velocity":0.8031496062992126,"duration":0.7187500000000284},{"name":"G4","midi":67,"time":224.78333333333484,"velocity":0.8031496062992126,"duration":0.18125000000000568},{"name":"A4","midi":69,"time":224.96458333333484,"velocity":0.8031496062992126,"duration":0.18125000000000568},{"name":"B4","midi":71,"time":225.14791666666818,"velocity":0.8031496062992126,"duration":0.1770833333333428},{"name":"C5","midi":72,"time":225.3291666666682,"velocity":0.8031496062992126,"duration":1.0708333333333826},{"name":"D#5","midi":75,"time":225.3291666666682,"velocity":0.8031496062992126,"duration":0.7145833333333655},{"name":"C4","midi":60,"time":225.50625000000153,"velocity":0.8031496062992126,"duration":0.1770833333333428},{"name":"D4","midi":62,"time":225.6854166666682,"velocity":0.8031496062992126,"duration":0.1770833333333428},{"name":"E4","midi":64,"time":225.86250000000155,"velocity":0.8031496062992126,"duration":0.17916666666667425},{"name":"D5","midi":74,"time":226.04375000000155,"velocity":0.8031496062992126,"duration":1.4062500000000568},{"name":"F4","midi":65,"time":226.04583333333488,"velocity":0.8031496062992126,"duration":0.17500000000001137},{"name":"D4","midi":62,"time":226.2208333333349,"velocity":0.8031496062992126,"duration":0.1770833333333428},{"name":"B4","midi":71,"time":226.40000000000157,"velocity":0.8031496062992126,"duration":0.17500000000001137},{"name":"E4","midi":64,"time":226.40000000000157,"velocity":0.8031496062992126,"duration":0.17500000000001137},{"name":"A4","midi":69,"time":226.57500000000158,"velocity":0.8031496062992126,"duration":0.17500000000001137},{"name":"F4","midi":65,"time":226.5770833333349,"velocity":0.8031496062992126,"duration":0.17291666666667993},{"name":"B4","midi":71,"time":226.75208333333492,"velocity":0.8031496062992126,"duration":0.17500000000001137},{"name":"G4","midi":67,"time":226.75208333333492,"velocity":0.8031496062992126,"duration":0.17291666666667993},{"name":"G#4","midi":68,"time":226.92708333333493,"velocity":0.8031496062992126,"duration":0.1729166666666515},{"name":"C5","midi":72,"time":226.92916666666827,"velocity":0.8031496062992126,"duration":0.17083333333332007},{"name":"B4","midi":71,"time":227.10208333333492,"velocity":0.8031496062992126,"duration":0.17291666666667993},{"name":"G4","midi":67,"time":227.10208333333492,"velocity":0.8031496062992126,"duration":0.17291666666667993},{"name":"D5","midi":74,"time":227.2750000000016,"velocity":0.8031496062992126,"duration":0.5270833333333655},{"name":"F4","midi":65,"time":227.27708333333493,"velocity":0.8031496062992126,"duration":0.17291666666667993},{"name":"G4","midi":67,"time":227.45208333333494,"velocity":0.8031496062992126,"duration":0.7041666666667084},{"name":"D#4","midi":63,"time":227.45208333333494,"velocity":0.8031496062992126,"duration":0.17291666666667993},{"name":"F4","midi":65,"time":227.62708333333495,"velocity":0.8031496062992126,"duration":0.17500000000001137},{"name":"C5","midi":72,"time":227.8041666666683,"velocity":0.8031496062992126,"duration":0.17500000000001137},{"name":"D#4","midi":63,"time":227.8041666666683,"velocity":0.8031496062992126,"duration":0.17500000000001137},{"name":"D5","midi":74,"time":227.9791666666683,"velocity":0.8031496062992126,"duration":0.1770833333333428},{"name":"D4","midi":62,"time":227.98125000000164,"velocity":0.8031496062992126,"duration":0.17291666666667993},{"name":"D#5","midi":75,"time":228.15625000000165,"velocity":0.8031496062992126,"duration":2.5104166666666856},{"name":"C4","midi":60,"time":228.15833333333498,"velocity":0.8031496062992126,"duration":0.35208333333332575},{"name":"C4","midi":60,"time":228.51250000000164,"velocity":0.8031496062992126,"duration":0.17916666666667425},{"name":"G4","midi":67,"time":228.51250000000164,"velocity":0.8031496062992126,"duration":0.3583333333333485},{"name":"A#3","midi":58,"time":228.6916666666683,"velocity":0.8031496062992126,"duration":0.1770833333333428},{"name":"A3","midi":57,"time":228.87083333333499,"velocity":0.8031496062992126,"duration":0.3541666666666572},{"name":"C4","midi":60,"time":228.87291666666832,"velocity":0.8031496062992126,"duration":0.3499999999999943},{"name":"C5","midi":72,"time":229.22500000000164,"velocity":0.8031496062992126,"duration":0.1770833333333428},{"name":"A3","midi":57,"time":229.22500000000164,"velocity":0.8031496062992126,"duration":0.17500000000001137},{"name":"A#4","midi":70,"time":229.40208333333499,"velocity":0.8031496062992126,"duration":0.1770833333333428},{"name":"G3","midi":55,"time":229.40416666666832,"velocity":0.8031496062992126,"duration":0.17500000000001137},{"name":"A4","midi":69,"time":229.58125000000166,"velocity":0.8031496062992126,"duration":0.35624999999998863},{"name":"F3","midi":53,"time":229.58125000000166,"velocity":0.8031496062992126,"duration":0.35624999999998863},{"name":"A#4","midi":70,"time":229.93958333333498,"velocity":0.8031496062992126,"duration":0.18125000000000568},{"name":"G3","midi":55,"time":229.93958333333498,"velocity":0.8031496062992126,"duration":0.17916666666667425},{"name":"C5","midi":72,"time":230.12083333333499,"velocity":0.8031496062992126,"duration":0.18125000000000568},{"name":"A3","midi":57,"time":230.12291666666832,"velocity":0.8031496062992126,"duration":0.1770833333333428},{"name":"F4","midi":65,"time":230.302083333335,"velocity":0.8031496062992126,"duration":0.3645833333333428},{"name":"A#3","midi":58,"time":230.30416666666832,"velocity":0.8031496062992126,"duration":0.36041666666667993},{"name":"A#4","midi":70,"time":230.66875000000167,"velocity":0.8031496062992126,"duration":0.3645833333333428},{"name":"D5","midi":74,"time":230.66875000000167,"velocity":0.8031496062992126,"duration":0.17916666666667425},{"name":"F4","midi":65,"time":230.670833333335,"velocity":0.8031496062992126,"duration":0.1770833333333428},{"name":"D#5","midi":75,"time":230.85000000000167,"velocity":0.8031496062992126,"duration":0.18125000000000568},{"name":"D#4","midi":63,"time":230.85000000000167,"velocity":0.8031496062992126,"duration":0.18125000000000568},{"name":"F5","midi":77,"time":231.033333333335,"velocity":0.8031496062992126,"duration":2.3479166666667197},{"name":"D4","midi":62,"time":231.03541666666834,"velocity":0.8031496062992126,"duration":0.36041666666667993},{"name":"G#4","midi":68,"time":231.39583333333502,"velocity":0.8031496062992126,"duration":0.3583333333333485},{"name":"D4","midi":62,"time":231.39791666666835,"velocity":0.8031496062992126,"duration":0.1770833333333428},{"name":"C4","midi":60,"time":231.5750000000017,"velocity":0.8031496062992126,"duration":0.1770833333333428},{"name":"B3","midi":59,"time":231.75416666666837,"velocity":0.8031496062992126,"duration":0.36249999999998295},{"name":"G4","midi":67,"time":231.7562500000017,"velocity":0.8031496062992126,"duration":0.35833333333332007},{"name":"D5","midi":74,"time":232.11666666666835,"velocity":0.8031496062992126,"duration":0.17916666666667425},{"name":"B3","midi":59,"time":232.11875000000168,"velocity":0.8031496062992126,"duration":0.1770833333333428},{"name":"C5","midi":72,"time":232.29791666666836,"velocity":0.8031496062992126,"duration":0.1770833333333428},{"name":"A3","midi":57,"time":232.29791666666836,"velocity":0.8031496062992126,"duration":0.1770833333333428},{"name":"B4","midi":71,"time":232.47708333333503,"velocity":0.8031496062992126,"duration":0.36041666666667993},{"name":"G3","midi":55,"time":232.47708333333503,"velocity":0.8031496062992126,"duration":0.36041666666667993},{"name":"C5","midi":72,"time":232.83958333333504,"velocity":0.8031496062992126,"duration":0.17916666666667425},{"name":"A3","midi":57,"time":232.83958333333504,"velocity":0.8031496062992126,"duration":0.17916666666667425},{"name":"D5","midi":74,"time":233.01875000000172,"velocity":0.8031496062992126,"duration":0.18125000000000568},{"name":"B3","midi":59,"time":233.02083333333505,"velocity":0.8031496062992126,"duration":0.17916666666667425},{"name":"G4","midi":67,"time":233.20000000000172,"velocity":0.8031496062992126,"duration":0.7270833333333542},{"name":"C4","midi":60,"time":233.20208333333505,"velocity":0.8031496062992126,"duration":0.36041666666667993},{"name":"D5","midi":74,"time":233.38125000000173,"velocity":0.8031496062992126,"duration":0.18125000000000568},{"name":"E5","midi":76,"time":233.56458333333507,"velocity":0.8031496062992126,"duration":0.17916666666667425},{"name":"A#3","midi":58,"time":233.56458333333507,"velocity":0.8031496062992126,"duration":0.1770833333333428},{"name":"G5","midi":79,"time":233.74375000000174,"velocity":0.8031496062992126,"duration":0.18333333333333712},{"name":"G#3","midi":56,"time":233.74583333333507,"velocity":0.8031496062992126,"duration":0.17916666666667425},{"name":"A#4","midi":70,"time":233.9291666666684,"velocity":0.8031496062992126,"duration":2.5250000000000625},{"name":"G3","midi":55,"time":233.9291666666684,"velocity":0.8031496062992126,"duration":0.36250000000001137},{"name":"G3","midi":55,"time":234.29375000000175,"velocity":0.8031496062992126,"duration":0.18125000000000568},{"name":"C#4","midi":61,"time":234.29583333333508,"velocity":0.8031496062992126,"duration":0.3583333333333485},{"name":"F3","midi":53,"time":234.47500000000176,"velocity":0.8031496062992126,"duration":0.17916666666667425},{"name":"C4","midi":60,"time":234.65625000000176,"velocity":0.8031496062992126,"duration":0.3479166666666629},{"name":"E3","midi":52,"time":234.65625000000176,"velocity":0.8031496062992126,"duration":0.3479166666666629},{"name":"E3","midi":52,"time":235.00625000000176,"velocity":0.8031496062992126,"duration":0.1770833333333428},{"name":"G4","midi":67,"time":235.00625000000176,"velocity":0.8031496062992126,"duration":0.17500000000001137},{"name":"D3","midi":50,"time":235.1833333333351,"velocity":0.8031496062992126,"duration":0.17916666666667425},{"name":"F4","midi":65,"time":235.18541666666843,"velocity":0.8031496062992126,"duration":0.1770833333333428},{"name":"E4","midi":64,"time":235.3645833333351,"velocity":0.8031496062992126,"duration":0.36041666666667993},{"name":"C3","midi":48,"time":235.3645833333351,"velocity":0.8031496062992126,"duration":0.36041666666667993},{"name":"D3","midi":50,"time":235.72500000000178,"velocity":0.8031496062992126,"duration":0.18333333333333712},{"name":"F4","midi":65,"time":235.72708333333512,"velocity":0.8031496062992126,"duration":0.18125000000000568},{"name":"G4","midi":67,"time":235.91041666666845,"velocity":0.8031496062992126,"duration":0.17916666666667425},{"name":"E3","midi":52,"time":235.91041666666845,"velocity":0.8031496062992126,"duration":0.18125000000000568},{"name":"C4","midi":60,"time":236.09166666666846,"velocity":0.8031496062992126,"duration":0.36041666666667993},{"name":"F3","midi":53,"time":236.0937500000018,"velocity":0.8031496062992126,"duration":0.17916666666667425},{"name":"G3","midi":55,"time":236.27291666666846,"velocity":0.8031496062992126,"duration":0.17916666666667425},{"name":"G#4","midi":68,"time":236.45416666666847,"velocity":0.6771653543307087,"duration":0.36250000000001137},{"name":"F4","midi":65,"time":236.4562500000018,"velocity":0.8031496062992126,"duration":0.7270833333333542},{"name":"G#3","midi":56,"time":236.4562500000018,"velocity":0.8031496062992126,"duration":0.1770833333333428},{"name":"A#3","midi":58,"time":236.63541666666848,"velocity":0.8031496062992126,"duration":0.18125000000000568},{"name":"C4","midi":60,"time":236.8187500000018,"velocity":0.8031496062992126,"duration":1.0979166666666913},{"name":"G4","midi":67,"time":236.8187500000018,"velocity":0.8031496062992126,"duration":0.7333333333333485},{"name":"C3","midi":48,"time":236.82083333333514,"velocity":0.8031496062992126,"duration":0.7291666666666856},{"name":"E4","midi":64,"time":237.1854166666685,"velocity":0.8031496062992126,"duration":0.3645833333333428},{"name":"C#3","midi":49,"time":237.55208333333516,"velocity":0.8031496062992126,"duration":0.731250000000017},{"name":"F4","midi":65,"time":237.5541666666685,"velocity":0.8031496062992126,"duration":0.5458333333333485},{"name":"E4","midi":64,"time":237.73333333333517,"velocity":0.8031496062992126,"duration":0.18333333333333712},{"name":"A#3","midi":58,"time":237.91875000000184,"velocity":0.8031496062992126,"duration":0.36250000000001137},{"name":"F4","midi":65,"time":237.91875000000184,"velocity":0.8031496062992126,"duration":0.3645833333333428},{"name":"G4","midi":67,"time":238.10000000000184,"velocity":0.8031496062992126,"duration":0.18125000000000568},{"name":"G#4","midi":68,"time":238.28333333333518,"velocity":0.8031496062992126,"duration":0.7208333333333599},{"name":"C3","midi":48,"time":238.2854166666685,"velocity":0.8031496062992126,"duration":0.7187500000000284},{"name":"G4","midi":67,"time":238.46041666666852,"velocity":0.8031496062992126,"duration":0.18333333333333712},{"name":"G#3","midi":56,"time":238.64375000000186,"velocity":0.8031496062992126,"duration":0.7187500000000284},{"name":"F4","midi":65,"time":238.6458333333352,"velocity":0.8031496062992126,"duration":0.1770833333333428},{"name":"D#4","midi":63,"time":238.82500000000186,"velocity":0.8031496062992126,"duration":0.1770833333333428},{"name":"D4","midi":62,"time":239.00625000000187,"velocity":0.8031496062992126,"duration":0.716666666666697},{"name":"B2","midi":47,"time":239.00625000000187,"velocity":0.8031496062992126,"duration":0.7145833333333655},{"name":"F4","midi":65,"time":239.1833333333352,"velocity":0.8031496062992126,"duration":0.1770833333333428},{"name":"G4","midi":67,"time":239.3625000000019,"velocity":0.8031496062992126,"duration":0.1770833333333428},{"name":"G3","midi":55,"time":239.36458333333522,"velocity":0.8031496062992126,"duration":0.17500000000001137},{"name":"G#4","midi":68,"time":239.54166666666856,"velocity":0.8031496062992126,"duration":0.17916666666667425},{"name":"F3","midi":53,"time":239.54166666666856,"velocity":0.8031496062992126,"duration":0.1770833333333428},{"name":"A#4","midi":70,"time":239.72291666666857,"velocity":0.8031496062992126,"duration":0.7145833333333655},{"name":"E3","midi":52,"time":239.7250000000019,"velocity":0.8031496062992126,"duration":0.7104166666667027},{"name":"G3","midi":55,"time":239.7250000000019,"velocity":0.8031496062992126,"duration":0.17500000000001137},{"name":"A#3","midi":58,"time":239.90208333333524,"velocity":0.8031496062992126,"duration":0.17916666666667425},{"name":"G#3","midi":56,"time":240.08125000000192,"velocity":0.8031496062992126,"duration":0.1770833333333428},{"name":"C#4","midi":61,"time":240.08333333333525,"velocity":0.8031496062992126,"duration":0.7062500000000398},{"name":"G3","midi":55,"time":240.2604166666686,"velocity":0.8031496062992126,"duration":0.17500000000001137},{"name":"F3","midi":53,"time":240.43750000000193,"velocity":0.8031496062992126,"duration":0.7125000000000341},{"name":"G#4","midi":68,"time":240.61250000000194,"velocity":0.8031496062992126,"duration":0.1770833333333428},{"name":"A#4","midi":70,"time":240.79166666666862,"velocity":0.8031496062992126,"duration":0.1770833333333428},{"name":"C4","midi":60,"time":240.79166666666862,"velocity":0.8031496062992126,"duration":0.3583333333333485},{"name":"G3","midi":55,"time":240.79375000000195,"velocity":0.8031496062992126,"duration":0.17291666666667993},{"name":"C5","midi":72,"time":240.96875000000196,"velocity":0.8031496062992126,"duration":0.17916666666667425},{"name":"G#3","midi":56,"time":240.9708333333353,"velocity":0.8031496062992126,"duration":0.1770833333333428},{"name":"C#5","midi":73,"time":241.15000000000197,"velocity":0.8031496062992126,"duration":0.7270833333333542},{"name":"A#3","midi":58,"time":241.1520833333353,"velocity":0.8031496062992126,"duration":0.1770833333333428},{"name":"A#2","midi":46,"time":241.1520833333353,"velocity":0.8031496062992126,"duration":0.7229166666666913},{"name":"F3","midi":53,"time":241.32916666666864,"velocity":0.8031496062992126,"duration":0.18125000000000568},{"name":"F#4","midi":66,"time":241.51250000000198,"velocity":0.8031496062992126,"duration":0.7291666666666856},{"name":"D#3","midi":51,"time":241.51250000000198,"velocity":0.8031496062992126,"duration":0.18333333333333712},{"name":"C#3","midi":49,"time":241.69583333333532,"velocity":0.8031496062992126,"duration":0.17916666666667425},{"name":"A2","midi":45,"time":241.87708333333532,"velocity":0.8031496062992126,"duration":0.7270833333333542},{"name":"C3","midi":48,"time":241.87916666666865,"velocity":0.8031496062992126,"duration":0.904166666666697},{"name":"C5","midi":72,"time":242.056250000002,"velocity":0.8031496062992126,"duration":0.18541666666666856},{"name":"D5","midi":74,"time":242.243750000002,"velocity":0.8031496062992126,"duration":0.18125000000000568},{"name":"F4","midi":65,"time":242.243750000002,"velocity":0.8031496062992126,"duration":0.36041666666667993},{"name":"E5","midi":76,"time":242.425000000002,"velocity":0.8031496062992126,"duration":0.17916666666667425},{"name":"F5","midi":77,"time":242.606250000002,"velocity":0.8031496062992126,"duration":1.0979166666666913},{"name":"G#2","midi":44,"time":242.606250000002,"velocity":0.8031496062992126,"duration":0.7333333333333485},{"name":"D3","midi":50,"time":242.78333333333535,"velocity":0.8031496062992126,"duration":0.1875},{"name":"F4","midi":65,"time":242.78541666666868,"velocity":0.8031496062992126,"duration":0.18541666666666856},{"name":"E3","midi":52,"time":242.97083333333535,"velocity":0.8031496062992126,"duration":0.18333333333333712},{"name":"G4","midi":67,"time":242.97291666666868,"velocity":0.8031496062992126,"duration":0.18125000000000568},{"name":"G#4","midi":68,"time":243.15625000000202,"velocity":0.8031496062992126,"duration":0.18333333333333712},{"name":"F3","midi":53,"time":243.15625000000202,"velocity":0.8031496062992126,"duration":0.18125000000000568},{"name":"A#4","midi":70,"time":243.3416666666687,"velocity":0.8031496062992126,"duration":1.608333333333377},{"name":"G3","midi":55,"time":243.3416666666687,"velocity":0.8031496062992126,"duration":0.9020833333333655},{"name":"G2","midi":43,"time":243.3416666666687,"velocity":0.8031496062992126,"duration":1.433333333333394},{"name":"E5","midi":76,"time":243.7041666666687,"velocity":0.8031496062992126,"duration":0.18333333333333712},{"name":"D5","midi":74,"time":243.88958333333537,"velocity":0.8031496062992126,"duration":0.17916666666667425},{"name":"E5","midi":76,"time":244.06875000000204,"velocity":0.8031496062992126,"duration":0.7062500000000398},{"name":"A2","midi":45,"time":244.24583333333538,"velocity":0.8031496062992126,"duration":0.1770833333333428},{"name":"A#2","midi":46,"time":244.42291666666873,"velocity":0.8031496062992126,"duration":0.17500000000001137},{"name":"C3","midi":48,"time":244.60000000000207,"velocity":0.8031496062992126,"duration":0.17500000000001137},{"name":"F5","midi":77,"time":244.7770833333354,"velocity":0.8031496062992126,"duration":0.8666666666667027},{"name":"C#3","midi":49,"time":244.7770833333354,"velocity":0.8031496062992126,"duration":0.17083333333332007},{"name":"F2","midi":41,"time":244.77916666666874,"velocity":0.8031496062992126,"duration":0.8375000000000341},{"name":"C#5","midi":73,"time":244.95000000000206,"velocity":0.8031496062992126,"duration":0.17291666666667993},{"name":"C3","midi":48,"time":244.95000000000206,"velocity":0.8031496062992126,"duration":0.17291666666667993},{"name":"C5","midi":72,"time":245.12500000000207,"velocity":0.8031496062992126,"duration":0.17500000000001137},{"name":"C#3","midi":49,"time":245.12500000000207,"velocity":0.8031496062992126,"duration":0.17291666666667993},{"name":"A#4","midi":70,"time":245.3000000000021,"velocity":0.8031496062992126,"duration":0.17291666666667993},{"name":"D#3","midi":51,"time":245.3000000000021,"velocity":0.8031496062992126,"duration":0.17291666666667993},{"name":"A4","midi":69,"time":245.4750000000021,"velocity":0.8031496062992126,"duration":0.8666666666666742},{"name":"F3","midi":53,"time":245.4750000000021,"velocity":0.8031496062992126,"duration":0.8375000000000057},{"name":"D#5","midi":75,"time":245.64583333333545,"velocity":0.8031496062992126,"duration":0.17083333333332007},{"name":"F2","midi":41,"time":245.64583333333545,"velocity":0.8031496062992126,"duration":0.17083333333332007},{"name":"C#5","midi":73,"time":245.8187500000021,"velocity":0.8031496062992126,"duration":0.1729166666666515},{"name":"G2","midi":43,"time":245.8187500000021,"velocity":0.8031496062992126,"duration":0.17083333333332007},{"name":"C5","midi":72,"time":245.99166666666875,"velocity":0.8031496062992126,"duration":0.17500000000001137},{"name":"A2","midi":45,"time":245.99375000000208,"velocity":0.8031496062992126,"duration":0.17291666666667993},{"name":"C#5","midi":73,"time":246.1687500000021,"velocity":0.8031496062992126,"duration":0.885416666666714},{"name":"A#2","midi":46,"time":246.1687500000021,"velocity":0.8031496062992126,"duration":0.8833333333333826},{"name":"C5","midi":72,"time":246.3437500000021,"velocity":0.8031496062992126,"duration":0.17291666666667993},{"name":"F3","midi":53,"time":246.3437500000021,"velocity":0.8031496062992126,"duration":0.17291666666667993},{"name":"A#4","midi":70,"time":246.51875000000211,"velocity":0.8031496062992126,"duration":0.17500000000001137},{"name":"G3","midi":55,"time":246.51875000000211,"velocity":0.8031496062992126,"duration":0.17291666666667993},{"name":"G#4","midi":68,"time":246.69375000000213,"velocity":0.8031496062992126,"duration":0.1770833333333428},{"name":"G#3","midi":56,"time":246.69583333333546,"velocity":0.8031496062992126,"duration":0.17500000000001137},{"name":"A#3","midi":58,"time":246.8729166666688,"velocity":0.8031496062992126,"duration":0.8645833333333712},{"name":"G4","midi":67,"time":246.8729166666688,"velocity":0.8031496062992126,"duration":0.17916666666667425},{"name":"A#4","midi":70,"time":247.0541666666688,"velocity":0.8031496062992126,"duration":0.1770833333333428},{"name":"F4","midi":65,"time":247.05625000000214,"velocity":0.8031496062992126,"duration":0.17500000000001137},{"name":"C#3","midi":49,"time":247.05625000000214,"velocity":0.8031496062992126,"duration":0.17291666666667993},{"name":"C5","midi":72,"time":247.23333333333548,"velocity":0.8031496062992126,"duration":0.1770833333333428},{"name":"D#4","midi":63,"time":247.23333333333548,"velocity":0.8031496062992126,"duration":0.17500000000001137},{"name":"C3","midi":48,"time":247.2354166666688,"velocity":0.8031496062992126,"duration":0.17291666666667993},{"name":"C#5","midi":73,"time":247.41041666666882,"velocity":0.8031496062992126,"duration":0.1770833333333428},{"name":"C#4","midi":61,"time":247.41250000000215,"velocity":0.8031496062992126,"duration":0.17500000000001137},{"name":"A#2","midi":46,"time":247.41250000000215,"velocity":0.8031496062992126,"duration":0.17500000000001137},{"name":"C4","midi":60,"time":247.5895833333355,"velocity":0.8031496062992126,"duration":3.6708333333332064},{"name":"E4","midi":64,"time":247.5895833333355,"velocity":0.8031496062992126,"duration":0.36041666666667993},{"name":"C3","midi":48,"time":247.59166666666883,"velocity":0.8031496062992126,"duration":3.683333333333195},{"name":"A#3","midi":58,"time":247.76875000000217,"velocity":0.8031496062992126,"duration":0.17916666666667425},{"name":"C5","midi":72,"time":247.95000000000218,"velocity":0.8031496062992126,"duration":0.5458333333333485},{"name":"G#3","midi":56,"time":247.95000000000218,"velocity":0.8031496062992126,"duration":0.18125000000000568},{"name":"G3","midi":55,"time":248.13125000000218,"velocity":0.8031496062992126,"duration":0.17916666666667425},{"name":"G#3","midi":56,"time":248.3125000000022,"velocity":0.8031496062992126,"duration":0.7375000000000114},{"name":"G4","midi":67,"time":248.49583333333553,"velocity":0.8031496062992126,"duration":0.18541666666666856},{"name":"G#4","midi":68,"time":248.6812500000022,"velocity":0.8031496062992126,"duration":0.1770833333333428},{"name":"F4","midi":65,"time":248.86041666666887,"velocity":0.8031496062992126,"duration":0.3874999999999602},{"name":"F3","midi":53,"time":249.0500000000022,"velocity":0.8031496062992126,"duration":0.0895833333333087},{"name":"G3","midi":55,"time":249.1250000000022,"velocity":0.8031496062992126,"duration":0.08333333333331439},{"name":"G#3","midi":56,"time":249.19583333333551,"velocity":0.8031496062992126,"duration":0.08124999999998295},{"name":"F4","midi":65,"time":249.24791666666883,"velocity":0.8031496062992126,"duration":0.18333333333333712},{"name":"G3","midi":55,"time":249.2645833333355,"velocity":0.8031496062992126,"duration":0.07708333333332007},{"name":"G#3","midi":56,"time":249.33125000000217,"velocity":0.8031496062992126,"duration":0.07916666666665151},{"name":"G3","midi":55,"time":249.39791666666883,"velocity":0.8031496062992126,"duration":0.0895833333333087},{"name":"D#4","midi":63,"time":249.43125000000217,"velocity":0.8031496062992126,"duration":0.2208333333332746},{"name":"G#3","midi":56,"time":249.47291666666882,"velocity":0.8031496062992126,"duration":0.09374999999997158},{"name":"G3","midi":55,"time":249.55208333333547,"velocity":0.8031496062992126,"duration":0.09791666666663446},{"name":"G#3","midi":56,"time":249.6354166666688,"velocity":0.8031496062992126,"duration":0.10416666666665719},{"name":"D4","midi":62,"time":249.65208333333544,"velocity":0.8031496062992126,"duration":0.23750000000001137},{"name":"G3","midi":55,"time":249.72291666666877,"velocity":0.8031496062992126,"duration":0.10416666666668561},{"name":"G#3","midi":56,"time":249.81041666666877,"velocity":0.8031496062992126,"duration":0.09999999999999432},{"name":"G3","midi":55,"time":249.88958333333545,"velocity":0.8031496062992126,"duration":0.09374999999997158},{"name":"F4","midi":65,"time":249.89791666666878,"velocity":0.8031496062992126,"duration":0.09166666666664014},{"name":"G#3","midi":56,"time":249.9687500000021,"velocity":0.8031496062992126,"duration":0.09166666666664014},{"name":"E4","midi":64,"time":249.9750000000021,"velocity":0.8031496062992126,"duration":0.09374999999997158},{"name":"G3","midi":55,"time":250.04791666666875,"velocity":0.8031496062992126,"duration":0.0895833333333087},{"name":"F4","midi":65,"time":250.05416666666875,"velocity":0.8031496062992126,"duration":0.09166666666664014},{"name":"G#3","midi":56,"time":250.12500000000207,"velocity":0.8031496062992126,"duration":0.08541666666664582},{"name":"E4","midi":64,"time":250.12916666666874,"velocity":0.8031496062992126,"duration":0.08749999999997726},{"name":"G3","midi":55,"time":250.19791666666873,"velocity":0.8031496062992126,"duration":0.08749999999997726},{"name":"F4","midi":65,"time":250.20416666666873,"velocity":0.8031496062992126,"duration":0.08749999999997726},{"name":"G#3","midi":56,"time":250.2708333333354,"velocity":0.8031496062992126,"duration":0.11874999999997726},{"name":"E4","midi":64,"time":250.27708333333538,"velocity":0.8031496062992126,"duration":0.9979166666666401},{"name":"G3","midi":55,"time":250.36875000000202,"velocity":0.8031496062992126,"duration":0.924999999999983},{"name":"F4","midi":65,"time":251.27708333333536,"velocity":0.6456692913385826,"duration":8.572916666666657},{"name":"F2","midi":41,"time":251.27708333333536,"velocity":0.7086614173228346,"duration":8.572916666666657},{"name":"A3","midi":57,"time":251.28333333333535,"velocity":0.6456692913385826,"duration":8.568750000000023},{"name":"C4","midi":60,"time":251.293750000002,"velocity":0.6456692913385826,"duration":8.562500000000028}],"controlChanges":{"7":[{"number":7,"time":0,"value":0.8267716535433071},{"number":7,"time":0,"value":0.8661417322834646},{"number":7,"time":0,"value":0.8661417322834646}],"10":[{"number":10,"time":0,"value":0.5039370078740157},{"number":10,"time":0,"value":0.3779527559055118},{"number":10,"time":0,"value":0.3700787401574803},{"number":10,"time":4.958333333333333,"value":0.5275590551181102},{"number":10,"time":4.960416666666666,"value":0.47244094488188976},{"number":10,"time":4.985416666666667,"value":0.6220472440944882},{"number":10,"time":5.0249999999999995,"value":0.5196850393700787},{"number":10,"time":5.0458333333333325,"value":0.4566929133858268},{"number":10,"time":5.085416666666666,"value":0.4330708661417323},{"number":10,"time":5.104166666666666,"value":0.5905511811023622},{"number":10,"time":5.124999999999999,"value":0.4645669291338583},{"number":10,"time":5.185416666666666,"value":0.5826771653543307}]},"id":0,"name":"--------","instrumentNumber":0,"instrument":"acoustic grand piano","instrumentFamily":"piano","channelNumber":0,"isPercussion":false}]}