{"header":{"PPQ":480,"timeSignature":[3,8],"bpm":100,"name":"Bach's 3rd English Suite: 1. Prlude"},"startTime":0,"duration":192.49999999999872,"tracks":[{"startTime":0,"duration":0,"length":0,"notes":[],"controlChanges":{},"id":0,"name":"Bach's 3rd English Suite: 1. Prlude"},{"startTime":1.21125,"duration":192.36999999999773,"length":1411,"notes":[{"name":"D5","midi":74,"time":1.21125,"velocity":0.5354330708661418,"duration":0.12874999999999992},{"name":"D5","midi":74,"time":1.5012499999999998,"velocity":0.5354330708661418,"duration":0.11749999999999994},{"name":"A#4","midi":70,"time":1.8087499999999996,"velocity":0.5354330708661418,"duration":0.10749999999999993},{"name":"A#4","midi":70,"time":2.1049999999999995,"velocity":0.5354330708661418,"duration":0.12624999999999975},{"name":"A#4","midi":70,"time":2.412499999999999,"velocity":0.5354330708661418,"duration":0.1262500000000002},{"name":"A4","midi":69,"time":2.7024999999999997,"velocity":0.5354330708661418,"duration":0.1537499999999996},{"name":"G4","midi":67,"time":2.8537499999999993,"velocity":0.5354330708661418,"duration":0.15249999999999986},{"name":"A4","midi":69,"time":3.0037499999999993,"velocity":0.5354330708661418,"duration":0.1575000000000002},{"name":"A#4","midi":70,"time":3.1574999999999993,"velocity":0.5354330708661418,"duration":0.15625000000000044},{"name":"A4","midi":69,"time":3.3099999999999996,"velocity":0.5354330708661418,"duration":0.1462500000000002},{"name":"A#4","midi":70,"time":3.45375,"velocity":0.5354330708661418,"duration":0.1512500000000001},{"name":"G4","midi":67,"time":3.6025,"velocity":0.5354330708661418,"duration":0.1512500000000001},{"name":"F#4","midi":66,"time":3.75,"velocity":0.5354330708661418,"duration":0.1475000000000004},{"name":"G4","midi":67,"time":3.89625,"velocity":0.5354330708661418,"duration":0.1462500000000002},{"name":"A4","midi":69,"time":4.04,"velocity":0.5354330708661418,"duration":0.15749999999999975},{"name":"A#4","midi":70,"time":4.19625,"velocity":0.5354330708661418,"duration":0.14374999999999982},{"name":"C5","midi":72,"time":4.34125,"velocity":0.5354330708661418,"duration":0.15750000000000064},{"name":"D5","midi":74,"time":4.495,"velocity":0.5354330708661418,"duration":0.14874999999999972},{"name":"C5","midi":72,"time":4.645,"velocity":0.5511811023622047,"duration":0.15250000000000075},{"name":"D5","midi":74,"time":4.795,"velocity":0.5748031496062992,"duration":0.14750000000000085},{"name":"E5","midi":76,"time":4.94,"velocity":0.6062992125984252,"duration":0.17125000000000057},{"name":"F#5","midi":78,"time":5.1000000000000005,"velocity":0.6299212598425197,"duration":0.14374999999999982},{"name":"D5","midi":74,"time":5.242500000000001,"velocity":0.6614173228346457,"duration":0.15250000000000075},{"name":"G5","midi":79,"time":5.392500000000001,"velocity":0.6850393700787402,"duration":0.15375000000000139},{"name":"F#5","midi":78,"time":5.543750000000002,"velocity":0.7165354330708661,"duration":0.1587500000000004},{"name":"G5","midi":79,"time":5.703750000000002,"velocity":0.7480314960629921,"duration":0.14500000000000046},{"name":"A5","midi":81,"time":5.846250000000002,"velocity":0.7716535433070866,"duration":0.16250000000000053},{"name":"A#5","midi":82,"time":6.000000000000003,"velocity":0.8031496062992126,"duration":0.15625},{"name":"G5","midi":79,"time":6.155000000000003,"velocity":0.8346456692913385,"duration":0.15500000000000025},{"name":"A5","midi":81,"time":6.306250000000003,"velocity":0.8582677165354331,"duration":0.2112500000000006},{"name":"G5","midi":79,"time":6.456250000000003,"velocity":0.8110236220472441,"duration":0.15250000000000075},{"name":"F#5","midi":78,"time":6.605000000000004,"velocity":0.7637795275590551,"duration":0.15000000000000036},{"name":"E5","midi":76,"time":6.746250000000004,"velocity":0.7165354330708661,"duration":0.1662499999999998},{"name":"D5","midi":74,"time":6.911250000000004,"velocity":0.6614173228346457,"duration":0.14124999999999943},{"name":"C5","midi":72,"time":7.051250000000004,"velocity":0.6141732283464567,"duration":0.1537499999999996},{"name":"A#4","midi":70,"time":7.2012500000000035,"velocity":0.5669291338582677,"duration":0.14874999999999972},{"name":"G5","midi":79,"time":7.506250000000003,"velocity":0.5118110236220472,"duration":0.12625000000000064},{"name":"D5","midi":74,"time":7.507500000000003,"velocity":0.5118110236220472,"duration":0.11375000000000046},{"name":"A#4","midi":70,"time":7.511250000000003,"velocity":0.5118110236220472,"duration":0.11000000000000032},{"name":"A#4","midi":70,"time":7.806250000000004,"velocity":0.5118110236220472,"duration":0.1275000000000004},{"name":"D5","midi":74,"time":7.806250000000004,"velocity":0.5118110236220472,"duration":0.13000000000000078},{"name":"G5","midi":79,"time":7.810000000000004,"velocity":0.5118110236220472,"duration":0.1562500000000009},{"name":"D#5","midi":75,"time":8.101250000000004,"velocity":0.5039370078740157,"duration":0.16749999999999865},{"name":"A#4","midi":70,"time":8.107500000000003,"velocity":0.5039370078740157,"duration":0.15749999999999886},{"name":"F5","midi":77,"time":8.256250000000003,"velocity":0.5039370078740157,"duration":0.16000000000000014},{"name":"D#5","midi":75,"time":8.405000000000003,"velocity":0.5039370078740157,"duration":0.15875000000000128},{"name":"D5","midi":74,"time":8.552500000000004,"velocity":0.5039370078740157,"duration":0.14750000000000085},{"name":"C5","midi":72,"time":8.701250000000005,"velocity":0.49606299212598426,"duration":0.14250000000000007},{"name":"A#4","midi":70,"time":8.840000000000005,"velocity":0.49606299212598426,"duration":0.1775000000000002},{"name":"A4","midi":69,"time":9.005000000000006,"velocity":0.49606299212598426,"duration":0.1399999999999988},{"name":"C5","midi":72,"time":9.296250000000004,"velocity":0.4881889763779528,"duration":0.15625},{"name":"F5","midi":77,"time":9.302500000000004,"velocity":0.4881889763779528,"duration":0.15000000000000036},{"name":"A4","midi":69,"time":9.305000000000003,"velocity":0.4881889763779528,"duration":0.14000000000000057},{"name":"A4","midi":69,"time":9.595000000000004,"velocity":0.4881889763779528,"duration":0.14250000000000007},{"name":"F5","midi":77,"time":9.598750000000004,"velocity":0.4881889763779528,"duration":0.1537500000000005},{"name":"C5","midi":72,"time":9.600000000000005,"velocity":0.4881889763779528,"duration":0.13124999999999964},{"name":"A4","midi":69,"time":9.892500000000005,"velocity":0.4881889763779528,"duration":0.16249999999999964},{"name":"D5","midi":74,"time":9.897500000000006,"velocity":0.4881889763779528,"duration":0.1587499999999995},{"name":"D#5","midi":75,"time":10.046250000000006,"velocity":0.48031496062992124,"duration":0.16249999999999964},{"name":"D5","midi":74,"time":10.197500000000005,"velocity":0.48031496062992124,"duration":0.15500000000000114},{"name":"C5","midi":72,"time":10.353750000000007,"velocity":0.48031496062992124,"duration":0.15000000000000036},{"name":"A#4","midi":70,"time":10.500000000000007,"velocity":0.48031496062992124,"duration":0.15249999999999986},{"name":"A4","midi":69,"time":10.643750000000008,"velocity":0.47244094488188976,"duration":0.15374999999999872},{"name":"G4","midi":67,"time":10.795000000000007,"velocity":0.47244094488188976,"duration":0.18374999999999986},{"name":"A#4","midi":70,"time":11.097500000000007,"velocity":0.47244094488188976,"duration":0.15500000000000114},{"name":"D#5","midi":75,"time":11.098750000000008,"velocity":0.47244094488188976,"duration":0.14874999999999972},{"name":"G4","midi":67,"time":11.102500000000008,"velocity":0.47244094488188976,"duration":0.1274999999999995},{"name":"G4","midi":67,"time":11.401250000000008,"velocity":0.4645669291338583,"duration":0.14500000000000135},{"name":"D#5","midi":75,"time":11.402500000000009,"velocity":0.4645669291338583,"duration":0.13124999999999964},{"name":"A#4","midi":70,"time":11.405000000000008,"velocity":0.4645669291338583,"duration":0.13625000000000043},{"name":"G4","midi":67,"time":11.697500000000009,"velocity":0.4645669291338583,"duration":0.1637499999999985},{"name":"C5","midi":72,"time":11.700000000000008,"velocity":0.4645669291338583,"duration":0.16249999999999964},{"name":"D5","midi":74,"time":11.851250000000007,"velocity":0.4566929133858268,"duration":0.15750000000000064},{"name":"C5","midi":72,"time":11.996250000000009,"velocity":0.4566929133858268,"duration":0.15249999999999986},{"name":"A#4","midi":70,"time":12.147500000000008,"velocity":0.4566929133858268,"duration":0.15000000000000213},{"name":"A4","midi":69,"time":12.29625000000001,"velocity":0.4566929133858268,"duration":0.14874999999999972},{"name":"G4","midi":67,"time":12.44250000000001,"velocity":0.4566929133858268,"duration":0.15124999999999922},{"name":"F#4","midi":66,"time":12.597500000000009,"velocity":0.44881889763779526,"duration":0.14999999999999858},{"name":"F#4","midi":66,"time":12.898750000000007,"velocity":0.44881889763779526,"duration":0.14000000000000057},{"name":"A4","midi":69,"time":12.898750000000007,"velocity":0.44881889763779526,"duration":0.1412500000000012},{"name":"D5","midi":74,"time":12.901250000000006,"velocity":0.44881889763779526,"duration":0.13625000000000043},{"name":"F#4","midi":66,"time":13.198750000000008,"velocity":0.4409448818897638,"duration":0.13124999999999964},{"name":"A4","midi":69,"time":13.198750000000008,"velocity":0.4409448818897638,"duration":0.1399999999999988},{"name":"D5","midi":74,"time":13.198750000000008,"velocity":0.4409448818897638,"duration":0.1424999999999983},{"name":"D4","midi":62,"time":13.498750000000006,"velocity":0.4409448818897638,"duration":0.12124999999999986},{"name":"A#4","midi":70,"time":13.498750000000006,"velocity":0.4409448818897638,"duration":0.1587499999999995},{"name":"G4","midi":67,"time":13.500000000000007,"velocity":0.4409448818897638,"duration":0.1587499999999995},{"name":"A#4","midi":70,"time":13.796250000000006,"velocity":0.4330708661417323,"duration":0.15499999999999936},{"name":"G4","midi":67,"time":13.797500000000007,"velocity":0.4330708661417323,"duration":0.12374999999999936},{"name":"G4","midi":67,"time":14.098750000000006,"velocity":0.4330708661417323,"duration":0.1225000000000005},{"name":"A#4","midi":70,"time":14.100000000000007,"velocity":0.4330708661417323,"duration":0.1537500000000005},{"name":"D#4","midi":63,"time":14.395000000000007,"velocity":0.4330708661417323,"duration":0.16000000000000014},{"name":"A#4","midi":70,"time":14.398750000000007,"velocity":0.4330708661417323,"duration":0.903750000000004},{"name":"D4","midi":62,"time":14.546250000000008,"velocity":0.41732283464566927,"duration":0.14999999999999858},{"name":"D#4","midi":63,"time":14.692500000000006,"velocity":0.41732283464566927,"duration":0.15625},{"name":"F4","midi":65,"time":14.842500000000006,"velocity":0.41732283464566927,"duration":0.15500000000000114},{"name":"G4","midi":67,"time":14.996250000000007,"velocity":0.41732283464566927,"duration":0.15500000000000114},{"name":"D#4","midi":63,"time":15.145000000000008,"velocity":0.41732283464566927,"duration":0.16000000000000192},{"name":"C4","midi":60,"time":15.29625000000001,"velocity":0.41732283464566927,"duration":0.15000000000000036},{"name":"A4","midi":69,"time":15.29750000000001,"velocity":0.41732283464566927,"duration":1.8074999999999868},{"name":"G4","midi":67,"time":15.45000000000001,"velocity":0.41732283464566927,"duration":0.1462500000000002},{"name":"F4","midi":65,"time":15.59625000000001,"velocity":0.4094488188976378,"duration":0.1537500000000005},{"name":"D#4","midi":63,"time":15.74625000000001,"velocity":0.4094488188976378,"duration":0.161249999999999},{"name":"D4","midi":62,"time":15.90125000000001,"velocity":0.4094488188976378,"duration":0.1487500000000015},{"name":"C4","midi":60,"time":16.04625000000001,"velocity":0.4094488188976378,"duration":0.15374999999999872},{"name":"D4","midi":62,"time":16.19875000000001,"velocity":0.4094488188976378,"duration":0.15499999999999758},{"name":"C4","midi":60,"time":16.35000000000001,"velocity":0.4094488188976378,"duration":0.14750000000000085},{"name":"D4","midi":62,"time":16.49625000000001,"velocity":0.4094488188976378,"duration":0.14874999999999616},{"name":"D#4","midi":63,"time":16.643750000000008,"velocity":0.4094488188976378,"duration":0.1524999999999963},{"name":"F4","midi":65,"time":16.795000000000005,"velocity":0.4015748031496063,"duration":0.1524999999999963},{"name":"D4","midi":62,"time":16.942500000000003,"velocity":0.4015748031496063,"duration":0.15624999999999645},{"name":"G4","midi":67,"time":17.0975,"velocity":0.4015748031496063,"duration":1.8049999999999997},{"name":"A#3","midi":58,"time":17.099999999999998,"velocity":0.4015748031496063,"duration":0.14874999999999972},{"name":"F4","midi":65,"time":17.249999999999996,"velocity":0.4015748031496063,"duration":0.15249999999999986},{"name":"D#4","midi":63,"time":17.398749999999996,"velocity":0.4015748031496063,"duration":0.16250000000000142},{"name":"D4","midi":62,"time":17.554999999999996,"velocity":0.4015748031496063,"duration":0.15749999999999886},{"name":"C4","midi":60,"time":17.707499999999996,"velocity":0.4015748031496063,"duration":0.14750000000000085},{"name":"A#3","midi":58,"time":17.852499999999996,"velocity":0.3937007874015748,"duration":0.16125000000000256},{"name":"C4","midi":60,"time":18.013749999999998,"velocity":0.3937007874015748,"duration":0.14499999999999957},{"name":"A#3","midi":58,"time":18.1575,"velocity":0.3937007874015748,"duration":0.15375000000000227},{"name":"C4","midi":60,"time":18.3075,"velocity":0.3937007874015748,"duration":0.15625},{"name":"D4","midi":62,"time":18.458750000000002,"velocity":0.3937007874015748,"duration":0.14874999999999616},{"name":"D#4","midi":63,"time":18.60625,"velocity":0.3937007874015748,"duration":0.14374999999999716},{"name":"C4","midi":60,"time":18.748749999999998,"velocity":0.3937007874015748,"duration":0.14874999999999972},{"name":"A3","midi":57,"time":18.894999999999996,"velocity":0.3937007874015748,"duration":0.15875000000000483},{"name":"F#4","midi":66,"time":18.9,"velocity":0.3937007874015748,"duration":0.75},{"name":"D#4","midi":63,"time":19.05125,"velocity":0.3858267716535433,"duration":0.15625},{"name":"D4","midi":62,"time":19.2025,"velocity":0.4015748031496063,"duration":0.15499999999999758},{"name":"C4","midi":60,"time":19.353749999999998,"velocity":0.41732283464566927,"duration":0.14000000000000057},{"name":"A#3","midi":58,"time":19.49625,"velocity":0.4251968503937008,"duration":0.15499999999999758},{"name":"A3","midi":57,"time":19.645,"velocity":0.4409448818897638,"duration":0.15249999999999986},{"name":"F#4","midi":66,"time":19.78625,"velocity":0.44881889763779526,"duration":0.10875000000000057},{"name":"G4","midi":67,"time":19.888749999999998,"velocity":0.4566929133858268,"duration":0.11750000000000327},{"name":"A4","midi":69,"time":19.9925,"velocity":0.4645669291338583,"duration":0.08999999999999986},{"name":"G4","midi":67,"time":20.07,"velocity":0.47244094488188976,"duration":0.09374999999999645},{"name":"A4","midi":69,"time":20.158749999999998,"velocity":0.48031496062992124,"duration":0.07499999999999929},{"name":"G4","midi":67,"time":20.231249999999996,"velocity":0.48031496062992124,"duration":0.09000000000000341},{"name":"A4","midi":69,"time":20.31,"velocity":0.4881889763779528,"duration":0.06625000000000014},{"name":"G4","midi":67,"time":20.3725,"velocity":0.49606299212598426,"duration":0.07874999999999943},{"name":"A4","midi":69,"time":20.439999999999998,"velocity":0.49606299212598426,"duration":0.054999999999999716},{"name":"G4","midi":67,"time":20.496249999999996,"velocity":0.5039370078740157,"duration":0.067499999999999},{"name":"A4","midi":69,"time":20.546249999999997,"velocity":0.5039370078740157,"duration":0.06625000000000014},{"name":"G4","midi":67,"time":20.606249999999996,"velocity":0.5118110236220472,"duration":0.0712500000000027},{"name":"A4","midi":69,"time":20.709999999999997,"velocity":0.5196850393700787,"duration":0.1337500000000027},{"name":"A4","midi":69,"time":20.99625,"velocity":0.5433070866141733,"duration":0.12875000000000014},{"name":"F#4","midi":66,"time":20.9975,"velocity":0.5433070866141733,"duration":0.12250000000000227},{"name":"D5","midi":74,"time":21.00125,"velocity":0.5433070866141733,"duration":0.11625000000000085},{"name":"A4","midi":69,"time":21.29625,"velocity":0.5590551181102362,"duration":0.12375000000000114},{"name":"F#4","midi":66,"time":21.2975,"velocity":0.5590551181102362,"duration":0.1025000000000027},{"name":"D5","midi":74,"time":21.3,"velocity":0.5590551181102362,"duration":0.13000000000000256},{"name":"G4","midi":67,"time":21.600000000000005,"velocity":0.5826771653543307,"duration":0.10500000000000043},{"name":"B4","midi":71,"time":21.600000000000005,"velocity":0.5826771653543307,"duration":0.098749999999999},{"name":"D5","midi":74,"time":21.600000000000005,"velocity":0.5826771653543307,"duration":0.11874999999999858},{"name":"F5","midi":77,"time":21.601250000000004,"velocity":0.5826771653543307,"duration":0.11250000000000071},{"name":"F5","midi":77,"time":21.900000000000006,"velocity":0.6062992125984252,"duration":0.11000000000000298},{"name":"G4","midi":67,"time":21.901250000000005,"velocity":0.6062992125984252,"duration":0.09500000000000242},{"name":"D5","midi":74,"time":21.901250000000005,"velocity":0.6062992125984252,"duration":0.1112500000000054},{"name":"B4","midi":71,"time":21.903750000000006,"velocity":0.6062992125984252,"duration":0.09250000000000114},{"name":"G4","midi":67,"time":22.20125000000001,"velocity":0.6299212598425197,"duration":0.11000000000000298},{"name":"F5","midi":77,"time":22.20125000000001,"velocity":0.6299212598425197,"duration":0.12000000000000455},{"name":"B4","midi":71,"time":22.20375000000001,"velocity":0.6299212598425197,"duration":0.09750000000000014},{"name":"D5","midi":74,"time":22.20375000000001,"velocity":0.6299212598425197,"duration":0.11500000000000199},{"name":"D5","midi":74,"time":22.497500000000013,"velocity":0.6535433070866141,"duration":0.2950000000000017},{"name":"G4","midi":67,"time":22.500000000000014,"velocity":0.6535433070866141,"duration":0.23499999999999943},{"name":"B4","midi":71,"time":22.500000000000014,"velocity":0.6535433070866141,"duration":0.29999999999999716},{"name":"F5","midi":77,"time":22.500000000000014,"velocity":0.6535433070866141,"duration":0.2987499999999983},{"name":"G4","midi":67,"time":22.796250000000015,"velocity":0.6299212598425197,"duration":0.13249999999999673},{"name":"C5","midi":72,"time":22.796250000000015,"velocity":0.6299212598425197,"duration":0.13624999999999687},{"name":"E5","midi":76,"time":22.797500000000014,"velocity":0.6299212598425197,"duration":0.129999999999999},{"name":"C5","midi":72,"time":23.10125000000001,"velocity":0.5826771653543307,"duration":0.08375000000000199},{"name":"G4","midi":67,"time":23.103750000000012,"velocity":0.5826771653543307,"duration":0.13374999999999915},{"name":"E5","midi":76,"time":23.103750000000012,"velocity":0.5826771653543307,"duration":0.09375},{"name":"C#5","midi":73,"time":23.39750000000001,"velocity":0.5354330708661418,"duration":0.10624999999999929},{"name":"E5","midi":76,"time":23.39750000000001,"velocity":0.5354330708661418,"duration":0.12750000000000128},{"name":"G5","midi":79,"time":23.39875000000001,"velocity":0.5354330708661418,"duration":0.11500000000000199},{"name":"A4","midi":69,"time":23.40125000000001,"velocity":0.5354330708661418,"duration":0.12375000000000114},{"name":"E5","midi":76,"time":23.696250000000013,"velocity":0.5118110236220472,"duration":0.11875000000000213},{"name":"C#5","midi":73,"time":23.698750000000015,"velocity":0.5118110236220472,"duration":0.10999999999999943},{"name":"G5","midi":79,"time":23.700000000000014,"velocity":0.5118110236220472,"duration":0.11625000000000085},{"name":"A4","midi":69,"time":23.701250000000012,"velocity":0.5118110236220472,"duration":0.1075000000000017},{"name":"G5","midi":79,"time":23.995000000000015,"velocity":0.5984251968503937,"duration":0.12749999999999773},{"name":"C#5","midi":73,"time":23.996250000000014,"velocity":0.5984251968503937,"duration":0.1162499999999973},{"name":"E5","midi":76,"time":23.996250000000014,"velocity":0.5984251968503937,"duration":0.11874999999999858},{"name":"A4","midi":69,"time":24.001250000000013,"velocity":0.5984251968503937,"duration":0.12124999999999986},{"name":"C#5","midi":73,"time":24.297500000000014,"velocity":0.6850393700787402,"duration":0.30874999999999986},{"name":"E5","midi":76,"time":24.297500000000014,"velocity":0.6850393700787402,"duration":0.30249999999999844},{"name":"G5","midi":79,"time":24.297500000000014,"velocity":0.6850393700787402,"duration":0.29125000000000156},{"name":"A4","midi":69,"time":24.301250000000014,"velocity":0.6850393700787402,"duration":0.15875000000000128},{"name":"A4","midi":69,"time":24.590000000000014,"velocity":0.6299212598425197,"duration":0.120000000000001},{"name":"F#5","midi":78,"time":24.595000000000013,"velocity":0.6299212598425197,"duration":0.13625000000000043},{"name":"D5","midi":74,"time":24.598750000000013,"velocity":0.6299212598425197,"duration":0.12750000000000128},{"name":"A4","midi":69,"time":24.891250000000014,"velocity":0.5826771653543307,"duration":0.12375000000000114},{"name":"D5","midi":74,"time":24.895000000000014,"velocity":0.5826771653543307,"duration":0.120000000000001},{"name":"F#5","midi":78,"time":24.895000000000014,"velocity":0.5826771653543307,"duration":0.125},{"name":"C5","midi":72,"time":25.191250000000014,"velocity":0.5354330708661418,"duration":0.11749999999999616},{"name":"D5","midi":74,"time":25.192500000000013,"velocity":0.5354330708661418,"duration":0.11249999999999716},{"name":"A5","midi":81,"time":25.193750000000012,"velocity":0.5275590551181102,"duration":0.12374999999999758},{"name":"C5","midi":72,"time":25.495000000000008,"velocity":0.5826771653543307,"duration":0.12249999999999872},{"name":"D5","midi":74,"time":25.495000000000008,"velocity":0.5826771653543307,"duration":0.13500000000000156},{"name":"A5","midi":81,"time":25.496250000000007,"velocity":0.5826771653543307,"duration":0.13125000000000142},{"name":"C5","midi":72,"time":25.79875000000001,"velocity":0.6535433070866141,"duration":0.12749999999999773},{"name":"D5","midi":74,"time":25.800000000000008,"velocity":0.6535433070866141,"duration":0.129999999999999},{"name":"A5","midi":81,"time":25.801250000000007,"velocity":0.6535433070866141,"duration":0.13250000000000028},{"name":"D5","midi":74,"time":26.106250000000006,"velocity":0.7322834645669292,"duration":0.48750000000000426},{"name":"C5","midi":72,"time":26.107500000000005,"velocity":0.7322834645669292,"duration":0.30000000000000426},{"name":"A5","midi":81,"time":26.107500000000005,"velocity":0.7322834645669292,"duration":0.29125000000000156},{"name":"G5","midi":79,"time":26.401250000000008,"velocity":0.7086614173228346,"duration":0.20250000000000412},{"name":"A#4","midi":70,"time":26.40500000000001,"velocity":0.7086614173228346,"duration":0.20250000000000412},{"name":"G4","midi":67,"time":26.703750000000014,"velocity":0.6850393700787402,"duration":0.17250000000000298},{"name":"F5","midi":77,"time":26.703750000000014,"velocity":0.6850393700787402,"duration":0.1337500000000027},{"name":"D5","midi":74,"time":26.706250000000015,"velocity":0.6850393700787402,"duration":0.17625000000000313},{"name":"G4","midi":67,"time":26.99875000000002,"velocity":0.6614173228346457,"duration":0.7574999999999967},{"name":"D#5","midi":75,"time":26.99875000000002,"velocity":0.6614173228346457,"duration":0.3099999999999987},{"name":"C5","midi":72,"time":27.000000000000018,"velocity":0.6535433070866141,"duration":0.2925000000000004},{"name":"A#4","midi":70,"time":27.29625000000002,"velocity":0.6141732283464567,"duration":0.317499999999999},{"name":"D5","midi":74,"time":27.30000000000002,"velocity":0.6141732283464567,"duration":0.37624999999999886},{"name":"A4","midi":69,"time":27.610000000000017,"velocity":0.5748031496062992,"duration":0.11374999999999957},{"name":"C5","midi":72,"time":27.611250000000016,"velocity":0.5748031496062992,"duration":0.19624999999999915},{"name":"C5","midi":72,"time":27.903750000000016,"velocity":0.5196850393700787,"duration":0.45374999999999943},{"name":"F#4","midi":66,"time":27.905000000000015,"velocity":0.5196850393700787,"duration":0.4574999999999996},{"name":"A4","midi":69,"time":27.907500000000017,"velocity":0.5196850393700787,"duration":0.514999999999997},{"name":"D5","midi":74,"time":28.353750000000016,"velocity":0.48031496062992124,"duration":0.15874999999999773},{"name":"G4","midi":67,"time":28.511250000000015,"velocity":0.4645669291338583,"duration":0.600000000000005},{"name":"C5","midi":72,"time":28.525000000000013,"velocity":0.4645669291338583,"duration":0.11250000000000071},{"name":"D4","midi":62,"time":28.533750000000012,"velocity":0.4645669291338583,"duration":0.12375000000000114},{"name":"A#4","midi":70,"time":28.598750000000013,"velocity":0.4566929133858268,"duration":0.3937500000000007},{"name":"D#4","midi":63,"time":28.822500000000012,"velocity":0.4330708661417323,"duration":0.2150000000000034},{"name":"A4","midi":69,"time":28.973750000000013,"velocity":0.44881889763779526,"duration":0.12125000000000341},{"name":"A#4","midi":70,"time":29.088750000000015,"velocity":0.4409448818897638,"duration":0.07875000000000298},{"name":"F#4","midi":66,"time":29.10875000000002,"velocity":0.4409448818897638,"duration":0.384999999999998},{"name":"A4","midi":69,"time":29.163750000000018,"velocity":0.4330708661417323,"duration":0.06874999999999787},{"name":"A#4","midi":70,"time":29.223750000000017,"velocity":0.4330708661417323,"duration":0.05624999999999858},{"name":"A4","midi":69,"time":29.283750000000015,"velocity":0.4251968503937008,"duration":0.04625000000000057},{"name":"A#4","midi":70,"time":29.380000000000017,"velocity":0.41732283464566927,"duration":0.05874999999999986},{"name":"A4","midi":69,"time":29.413750000000018,"velocity":0.4094488188976378,"duration":0.14124999999999943},{"name":"G4","midi":67,"time":29.551250000000017,"velocity":0.4015748031496063,"duration":0.09499999999999886},{"name":"G4","midi":67,"time":29.700000000000017,"velocity":0.3858267716535433,"duration":0.15000000000000213},{"name":"A4","midi":69,"time":29.84625000000002,"velocity":0.3779527559055118,"duration":0.15875000000000128},{"name":"A#4","midi":70,"time":29.99750000000002,"velocity":0.3779527559055118,"duration":0.14750000000000085},{"name":"G4","midi":67,"time":30.143750000000022,"velocity":0.3779527559055118,"duration":0.15249999999999986},{"name":"F#4","midi":66,"time":30.29250000000002,"velocity":0.3779527559055118,"duration":0.16249999999999787},{"name":"G4","midi":67,"time":30.44625000000002,"velocity":0.3779527559055118,"duration":0.15749999999999886},{"name":"D4","midi":62,"time":30.60000000000002,"velocity":0.3779527559055118,"duration":0.15500000000000114},{"name":"G4","midi":67,"time":30.74750000000002,"velocity":0.3779527559055118,"duration":0.16375000000000028},{"name":"A#4","midi":70,"time":30.90375000000002,"velocity":0.3779527559055118,"duration":0.14750000000000085},{"name":"G4","midi":67,"time":31.05250000000002,"velocity":0.3779527559055118,"duration":0.16000000000000014},{"name":"C#5","midi":73,"time":31.20375000000002,"velocity":0.3779527559055118,"duration":0.15374999999999872},{"name":"G4","midi":67,"time":31.355000000000018,"velocity":0.3779527559055118,"duration":0.15500000000000114},{"name":"D5","midi":74,"time":31.50625000000002,"velocity":0.41732283464566927,"duration":0.14999999999999858},{"name":"A5","midi":81,"time":31.797500000000017,"velocity":0.41732283464566927,"duration":0.13125000000000142},{"name":"A5","midi":81,"time":32.10625000000002,"velocity":0.4251968503937008,"duration":0.1112499999999983},{"name":"F5","midi":77,"time":32.39500000000002,"velocity":0.4330708661417323,"duration":0.29999999999999716},{"name":"D5","midi":74,"time":32.695000000000014,"velocity":0.4409448818897638,"duration":0.13125000000000142},{"name":"D5","midi":74,"time":33.00375000000002,"velocity":0.44881889763779526,"duration":0.14000000000000057},{"name":"D5","midi":74,"time":33.29875000000002,"velocity":0.4566929133858268,"duration":0.16250000000000142},{"name":"B4","midi":71,"time":33.45375000000002,"velocity":0.4645669291338583,"duration":0.14999999999999858},{"name":"C5","midi":72,"time":33.60125000000002,"velocity":0.4645669291338583,"duration":0.15124999999999744},{"name":"E5","midi":76,"time":33.74875000000002,"velocity":0.47244094488188976,"duration":0.16249999999999432},{"name":"F5","midi":77,"time":33.90000000000002,"velocity":0.47244094488188976,"duration":0.14624999999999488},{"name":"C5","midi":72,"time":34.05000000000001,"velocity":0.47244094488188976,"duration":0.1424999999999983},{"name":"A#4","midi":70,"time":34.196250000000006,"velocity":0.48031496062992124,"duration":0.1525000000000034},{"name":"C5","midi":72,"time":34.34250000000001,"velocity":0.48031496062992124,"duration":0.16250000000000142},{"name":"D5","midi":74,"time":34.49500000000001,"velocity":0.4881889763779528,"duration":0.15499999999999403},{"name":"A#4","midi":70,"time":34.64625000000001,"velocity":0.4881889763779528,"duration":0.16249999999999432},{"name":"D#5","midi":75,"time":34.80125,"velocity":0.49606299212598426,"duration":0.16249999999999432},{"name":"A#4","midi":70,"time":34.9525,"velocity":0.49606299212598426,"duration":0.1600000000000037},{"name":"A4","midi":69,"time":35.1075,"velocity":0.5039370078740157,"duration":0.1524999999999963},{"name":"C5","midi":72,"time":35.25625,"velocity":0.5039370078740157,"duration":0.1524999999999963},{"name":"D5","midi":74,"time":35.403749999999995,"velocity":0.5118110236220472,"duration":0.1525000000000034},{"name":"D#5","midi":75,"time":35.54875,"velocity":0.5118110236220472,"duration":0.16625000000000512},{"name":"F5","midi":77,"time":35.7025,"velocity":0.5196850393700787,"duration":0.1425000000000054},{"name":"D5","midi":74,"time":35.847500000000004,"velocity":0.5196850393700787,"duration":0.1525000000000034},{"name":"C5","midi":72,"time":36.00000000000001,"velocity":0.5275590551181102,"duration":0.052499999999994884},{"name":"B4","midi":71,"time":36.050000000000004,"velocity":0.5275590551181102,"duration":0.047499999999992326},{"name":"C5","midi":72,"time":36.095,"velocity":0.5275590551181102,"duration":0.0449999999999946},{"name":"B4","midi":71,"time":36.14249999999999,"velocity":0.5275590551181102,"duration":0.20000000000000284},{"name":"C5","midi":72,"time":36.31999999999999,"velocity":0.5354330708661418,"duration":0.1424999999999983},{"name":"C5","midi":72,"time":36.60624999999999,"velocity":0.5433070866141733,"duration":0.15375000000000227},{"name":"C5","midi":72,"time":36.90124999999999,"velocity":0.5511811023622047,"duration":0.15125000000000455},{"name":"D5","midi":74,"time":37.04749999999999,"velocity":0.5590551181102362,"duration":0.15875000000000483},{"name":"D#5","midi":75,"time":37.1975,"velocity":0.5669291338582677,"duration":0.14499999999999602},{"name":"C5","midi":72,"time":37.34374999999999,"velocity":0.5669291338582677,"duration":0.21875},{"name":"F#5","midi":78,"time":37.49499999999999,"velocity":0.5748031496062992,"duration":0.15375000000000227},{"name":"C5","midi":72,"time":37.647499999999994,"velocity":0.5826771653543307,"duration":0.15375000000000227},{"name":"A5","midi":81,"time":37.8,"velocity":0.5826771653543307,"duration":0.15500000000000114},{"name":"D#5","midi":75,"time":37.949999999999996,"velocity":0.5905511811023622,"duration":0.16250000000000142},{"name":"D5","midi":74,"time":38.1025,"velocity":0.5984251968503937,"duration":0.15499999999999403},{"name":"C5","midi":72,"time":38.254999999999995,"velocity":0.5984251968503937,"duration":0.15124999999999744},{"name":"A#4","midi":70,"time":38.402499999999996,"velocity":0.6062992125984252,"duration":0.14499999999999602},{"name":"A4","midi":69,"time":38.544999999999995,"velocity":0.6141732283464567,"duration":0.16749999999999687},{"name":"A#4","midi":70,"time":38.70374999999999,"velocity":0.6141732283464567,"duration":0.15874999999999773},{"name":"G4","midi":67,"time":38.71124999999999,"velocity":0.6141732283464567,"duration":0.13374999999999915},{"name":"G4","midi":67,"time":39.00249999999999,"velocity":0.6220472440944882,"duration":0.15500000000000114},{"name":"D5","midi":74,"time":39.00249999999999,"velocity":0.6220472440944882,"duration":0.1424999999999983},{"name":"A4","midi":69,"time":39.30499999999999,"velocity":0.6220472440944882,"duration":0.11374999999999602},{"name":"D5","midi":74,"time":39.30749999999999,"velocity":0.6220472440944882,"duration":0.10374999999999801},{"name":"A4","midi":69,"time":39.59749999999999,"velocity":0.6220472440944882,"duration":0.3125},{"name":"A#4","midi":70,"time":39.59999999999999,"velocity":0.6220472440944882,"duration":0.134999999999998},{"name":"G4","midi":67,"time":39.90374999999999,"velocity":0.6220472440944882,"duration":0.16250000000000142},{"name":"A#4","midi":70,"time":39.90499999999999,"velocity":0.6220472440944882,"duration":0.12000000000000455},{"name":"G4","midi":67,"time":40.202499999999986,"velocity":0.6220472440944882,"duration":0.11500000000000199},{"name":"A#4","midi":70,"time":40.203749999999985,"velocity":0.6220472440944882,"duration":0.12000000000000455},{"name":"A4","midi":69,"time":40.493749999999984,"velocity":0.6220472440944882,"duration":0.16499999999999915},{"name":"A5","midi":81,"time":40.65124999999998,"velocity":0.6220472440944882,"duration":0.14374999999999716},{"name":"D5","midi":74,"time":40.79749999999998,"velocity":0.6220472440944882,"duration":0.14500000000000313},{"name":"A5","midi":81,"time":40.94499999999998,"velocity":0.6220472440944882,"duration":0.15874999999999773},{"name":"C#5","midi":73,"time":41.09374999999998,"velocity":0.6220472440944882,"duration":0.15124999999999744},{"name":"G5","midi":79,"time":41.24249999999998,"velocity":0.6220472440944882,"duration":0.166249999999998},{"name":"F5","midi":77,"time":41.401249999999976,"velocity":0.6220472440944882,"duration":0.16375000000000028},{"name":"A5","midi":81,"time":41.557499999999976,"velocity":0.6220472440944882,"duration":0.14124999999999943},{"name":"D5","midi":74,"time":41.699999999999974,"velocity":0.6220472440944882,"duration":0.15875000000000483},{"name":"A5","midi":81,"time":41.85374999999998,"velocity":0.6220472440944882,"duration":0.15750000000000597},{"name":"C#5","midi":73,"time":42.00374999999998,"velocity":0.6220472440944882,"duration":0.14750000000000085},{"name":"G5","midi":79,"time":42.148749999999986,"velocity":0.6220472440944882,"duration":0.15749999999999176},{"name":"F5","midi":77,"time":42.30374999999998,"velocity":0.6220472440944882,"duration":0.15375000000000227},{"name":"D5","midi":74,"time":42.45249999999998,"velocity":0.6220472440944882,"duration":0.14999999999999858},{"name":"B4","midi":71,"time":42.60124999999998,"velocity":0.6299212598425197,"duration":0.1562499999999929},{"name":"F5","midi":77,"time":42.753749999999975,"velocity":0.6377952755905512,"duration":0.14124999999999943},{"name":"A4","midi":69,"time":42.89874999999997,"velocity":0.6456692913385826,"duration":0.15374999999999517},{"name":"F5","midi":77,"time":43.04874999999997,"velocity":0.6535433070866141,"duration":0.14749999999999375},{"name":"G4","midi":67,"time":43.19749999999996,"velocity":0.6614173228346457,"duration":0.14999999999999858},{"name":"F5","midi":77,"time":43.34499999999996,"velocity":0.6614173228346457,"duration":0.14374999999999716},{"name":"A4","midi":69,"time":43.49374999999996,"velocity":0.6692913385826772,"duration":0.15500000000000114},{"name":"F5","midi":77,"time":43.64374999999996,"velocity":0.6771653543307087,"duration":0.15749999999999886},{"name":"B4","midi":71,"time":43.79874999999996,"velocity":0.6850393700787402,"duration":0.14749999999999375},{"name":"F5","midi":77,"time":43.94499999999996,"velocity":0.6929133858267716,"duration":0.15124999999999744},{"name":"D#5","midi":75,"time":44.097499999999954,"velocity":0.6929133858267716,"duration":0.16375000000000028},{"name":"G5","midi":79,"time":44.253749999999954,"velocity":0.6929133858267716,"duration":0.1387499999999946},{"name":"C5","midi":72,"time":44.39749999999995,"velocity":0.6929133858267716,"duration":0.1599999999999966},{"name":"G5","midi":79,"time":44.55374999999995,"velocity":0.6929133858267716,"duration":0.1524999999999963},{"name":"B4","midi":71,"time":44.699999999999946,"velocity":0.6929133858267716,"duration":0.14375000000000426},{"name":"F5","midi":77,"time":44.84499999999995,"velocity":0.6929133858267716,"duration":0.14375000000000426},{"name":"D#5","midi":75,"time":44.993749999999956,"velocity":0.6929133858267716,"duration":0.16374999999999318},{"name":"G5","midi":79,"time":45.151249999999955,"velocity":0.6692913385826772,"duration":0.13999999999999346},{"name":"C5","midi":72,"time":45.29749999999995,"velocity":0.6377952755905512,"duration":0.15875000000000483},{"name":"G5","midi":79,"time":45.45124999999995,"velocity":0.5984251968503937,"duration":0.14000000000000057},{"name":"B4","midi":71,"time":45.597499999999954,"velocity":0.5590551181102362,"duration":0.15124999999999744},{"name":"F5","midi":77,"time":45.74749999999995,"velocity":0.5275590551181102,"duration":0.1524999999999963},{"name":"D#5","midi":75,"time":45.89624999999995,"velocity":0.4881889763779528,"duration":0.15874999999999773},{"name":"C5","midi":72,"time":46.04749999999995,"velocity":0.4409448818897638,"duration":0.15374999999999517},{"name":"A4","midi":69,"time":46.19749999999995,"velocity":0.4409448818897638,"duration":0.15375000000000227},{"name":"D#5","midi":75,"time":46.34624999999995,"velocity":0.4409448818897638,"duration":0.15375000000000227},{"name":"G4","midi":67,"time":46.49499999999995,"velocity":0.4409448818897638,"duration":0.16125000000000256},{"name":"D#5","midi":75,"time":46.64999999999995,"velocity":0.4330708661417323,"duration":0.15500000000000114},{"name":"F4","midi":65,"time":46.80124999999995,"velocity":0.4330708661417323,"duration":0.15499999999999403},{"name":"D#5","midi":75,"time":46.95249999999995,"velocity":0.4330708661417323,"duration":0.15374999999999517},{"name":"G4","midi":67,"time":47.10374999999995,"velocity":0.4251968503937008,"duration":0.15124999999999744},{"name":"D#5","midi":75,"time":47.25249999999995,"velocity":0.4251968503937008,"duration":0.15499999999999403},{"name":"A4","midi":69,"time":47.404999999999944,"velocity":0.4251968503937008,"duration":0.14874999999999972},{"name":"D#5","midi":75,"time":47.54874999999994,"velocity":0.4251968503937008,"duration":0.15500000000000114},{"name":"D5","midi":74,"time":47.701249999999945,"velocity":0.4330708661417323,"duration":0.14750000000000085},{"name":"F5","midi":77,"time":47.998749999999944,"velocity":0.4566929133858268,"duration":0.15874999999999773},{"name":"F5","midi":77,"time":48.303749999999944,"velocity":0.4881889763779528,"duration":0.14500000000000313},{"name":"D5","midi":74,"time":48.60124999999995,"velocity":0.5118110236220472,"duration":0.13750000000000284},{"name":"A#4","midi":70,"time":48.893749999999955,"velocity":0.5354330708661418,"duration":0.14124999999999943},{"name":"D5","midi":74,"time":48.893749999999955,"velocity":0.5354330708661418,"duration":0.14374999999999716},{"name":"A#4","midi":70,"time":49.19749999999995,"velocity":0.5669291338582677,"duration":0.09000000000000341},{"name":"D5","midi":74,"time":49.19749999999995,"velocity":0.5669291338582677,"duration":0.10875000000000057},{"name":"C5","midi":72,"time":49.497499999999945,"velocity":0.5905511811023622,"duration":0.1562500000000071},{"name":"C6","midi":84,"time":49.64874999999995,"velocity":0.5905511811023622,"duration":0.15125000000000455},{"name":"F5","midi":77,"time":49.80124999999995,"velocity":0.5905511811023622,"duration":0.15125000000000455},{"name":"C6","midi":84,"time":49.947499999999955,"velocity":0.5905511811023622,"duration":0.14874999999999972},{"name":"E5","midi":76,"time":50.09374999999996,"velocity":0.5905511811023622,"duration":0.14999999999999858},{"name":"A#5","midi":82,"time":50.24249999999996,"velocity":0.5905511811023622,"duration":0.15499999999999403},{"name":"A5","midi":81,"time":50.39499999999995,"velocity":0.5905511811023622,"duration":0.15874999999999773},{"name":"C6","midi":84,"time":50.54624999999995,"velocity":0.5905511811023622,"duration":0.15749999999999886},{"name":"F5","midi":77,"time":50.69749999999995,"velocity":0.5905511811023622,"duration":0.15750000000000597},{"name":"C6","midi":84,"time":50.84874999999995,"velocity":0.5905511811023622,"duration":0.14375000000000426},{"name":"E5","midi":76,"time":50.996249999999954,"velocity":0.5905511811023622,"duration":0.1524999999999963},{"name":"A#5","midi":82,"time":51.14499999999995,"velocity":0.5905511811023622,"duration":0.1487499999999926},{"name":"A5","midi":81,"time":51.29749999999994,"velocity":0.5905511811023622,"duration":0.16125000000000256},{"name":"F5","midi":77,"time":51.451249999999945,"velocity":0.5984251968503937,"duration":0.14999999999999858},{"name":"D5","midi":74,"time":51.598749999999946,"velocity":0.5826771653543307,"duration":0.15124999999999744},{"name":"G#5","midi":80,"time":51.74499999999994,"velocity":0.5669291338582677,"duration":0.15124999999999744},{"name":"C5","midi":72,"time":51.89374999999994,"velocity":0.5511811023622047,"duration":0.15500000000000114},{"name":"G#5","midi":80,"time":52.04374999999994,"velocity":0.5354330708661418,"duration":0.146250000000002},{"name":"A#4","midi":70,"time":52.19249999999994,"velocity":0.5196850393700787,"duration":0.14874999999999972},{"name":"G#5","midi":80,"time":52.33749999999994,"velocity":0.5039370078740157,"duration":0.16249999999999432},{"name":"C5","midi":72,"time":52.49124999999994,"velocity":0.4881889763779528,"duration":0.16874999999999574},{"name":"G#5","midi":80,"time":52.65124999999993,"velocity":0.4645669291338583,"duration":0.15749999999999886},{"name":"D5","midi":74,"time":52.804999999999936,"velocity":0.44881889763779526,"duration":0.1424999999999983},{"name":"G#5","midi":80,"time":52.946249999999935,"velocity":0.44881889763779526,"duration":0.1600000000000037},{"name":"G5","midi":79,"time":53.101249999999936,"velocity":0.41732283464566927,"duration":0.1600000000000037},{"name":"A#5","midi":82,"time":53.25499999999994,"velocity":0.41732283464566927,"duration":0.14500000000000313},{"name":"D#5","midi":75,"time":53.40124999999994,"velocity":0.41732283464566927,"duration":0.1599999999999966},{"name":"A#5","midi":82,"time":53.55249999999994,"velocity":0.41732283464566927,"duration":0.14999999999999858},{"name":"D5","midi":74,"time":53.697499999999934,"velocity":0.41732283464566927,"duration":0.15375000000000227},{"name":"G#5","midi":80,"time":53.84749999999994,"velocity":0.41732283464566927,"duration":0.1524999999999963},{"name":"G5","midi":79,"time":53.99874999999994,"velocity":0.41732283464566927,"duration":0.16125000000000256},{"name":"A#5","midi":82,"time":54.15374999999994,"velocity":0.41732283464566927,"duration":0.14874999999999972},{"name":"D#5","midi":75,"time":54.29874999999994,"velocity":0.41732283464566927,"duration":0.16124999999999545},{"name":"A#5","midi":82,"time":54.45249999999994,"velocity":0.41732283464566927,"duration":0.14124999999999943},{"name":"D5","midi":74,"time":54.59249999999994,"velocity":0.41732283464566927,"duration":0.16125000000000256},{"name":"G#5","midi":80,"time":54.74749999999994,"velocity":0.41732283464566927,"duration":0.1600000000000037},{"name":"G5","midi":79,"time":54.904999999999944,"velocity":0.41732283464566927,"duration":0.15749999999999886},{"name":"D#5","midi":75,"time":55.05624999999994,"velocity":0.41732283464566927,"duration":0.15375000000000227},{"name":"C5","midi":72,"time":55.20499999999994,"velocity":0.41732283464566927,"duration":0.14999999999999858},{"name":"G5","midi":79,"time":55.35374999999994,"velocity":0.41732283464566927,"duration":0.1424999999999983},{"name":"A#4","midi":70,"time":55.49749999999994,"velocity":0.41732283464566927,"duration":0.15625},{"name":"G5","midi":79,"time":55.64749999999994,"velocity":0.41732283464566927,"duration":0.1524999999999963},{"name":"A4","midi":69,"time":55.79624999999994,"velocity":0.41732283464566927,"duration":0.15749999999999176},{"name":"G5","midi":79,"time":55.95249999999993,"velocity":0.4330708661417323,"duration":0.15124999999999744},{"name":"A#4","midi":70,"time":56.10249999999993,"velocity":0.44881889763779526,"duration":0.14999999999999858},{"name":"G5","midi":79,"time":56.24874999999993,"velocity":0.4645669291338583,"duration":0.14374999999999716},{"name":"C5","midi":72,"time":56.39749999999993,"velocity":0.48031496062992124,"duration":0.15125000000000455},{"name":"G5","midi":79,"time":56.54249999999993,"velocity":0.49606299212598426,"duration":0.15500000000000114},{"name":"F#5","midi":78,"time":56.69374999999994,"velocity":0.5118110236220472,"duration":0.20749999999999602},{"name":"G5","midi":79,"time":57.00124999999993,"velocity":0.5511811023622047,"duration":0.20000000000000284},{"name":"D5","midi":74,"time":57.00249999999993,"velocity":0.5511811023622047,"duration":0.18625000000000114},{"name":"F5","midi":77,"time":57.30624999999993,"velocity":0.5984251968503937,"duration":0.14374999999999716},{"name":"C5","midi":72,"time":57.307499999999926,"velocity":0.5984251968503937,"duration":0.19500000000000028},{"name":"D#5","midi":75,"time":57.60124999999993,"velocity":0.6377952755905512,"duration":0.177500000000002},{"name":"A#4","midi":70,"time":57.60374999999993,"velocity":0.6377952755905512,"duration":0.1737500000000054},{"name":"D5","midi":74,"time":57.90124999999993,"velocity":0.6771653543307087,"duration":0.19624999999999915},{"name":"A4","midi":69,"time":57.90374999999993,"velocity":0.6771653543307087,"duration":0.16375000000000028},{"name":"C5","midi":72,"time":58.20124999999993,"velocity":0.7244094488188977,"duration":0.14374999999999716},{"name":"G4","midi":67,"time":58.20249999999993,"velocity":0.7244094488188977,"duration":0.14624999999999488},{"name":"F4","midi":65,"time":58.496249999999925,"velocity":0.7637795275590551,"duration":0.48749999999999005},{"name":"A#4","midi":70,"time":58.496249999999925,"velocity":0.7637795275590551,"duration":0.20749999999999602},{"name":"F5","midi":77,"time":58.49874999999992,"velocity":0.7637795275590551,"duration":0.20749999999999602},{"name":"D#5","midi":75,"time":58.79749999999992,"velocity":0.7952755905511811,"duration":0.12249999999999517},{"name":"A4","midi":69,"time":58.80124999999992,"velocity":0.7952755905511811,"duration":0.14874999999999972},{"name":"A#4","midi":70,"time":59.101249999999915,"velocity":0.8110236220472441,"duration":0.3237499999999969},{"name":"F4","midi":65,"time":59.10374999999991,"velocity":0.8110236220472441,"duration":0.11749999999999972},{"name":"D5","midi":74,"time":59.10374999999991,"velocity":0.8110236220472441,"duration":0.3200000000000003},{"name":"G4","midi":67,"time":59.414999999999914,"velocity":0.8267716535433071,"duration":0.2049999999999983},{"name":"G5","midi":79,"time":59.58124999999991,"velocity":0.8346456692913385,"duration":0.11249999999999716},{"name":"D5","midi":74,"time":59.71624999999991,"velocity":0.8346456692913385,"duration":0.08374999999999488},{"name":"A4","midi":69,"time":59.71999999999991,"velocity":0.8346456692913385,"duration":0.4512499999999946},{"name":"C5","midi":72,"time":59.7862499999999,"velocity":0.8346456692913385,"duration":0.06875000000000142},{"name":"D5","midi":74,"time":59.84499999999991,"velocity":0.8346456692913385,"duration":0.056249999999991473},{"name":"C5","midi":72,"time":59.8974999999999,"velocity":0.8346456692913385,"duration":0.05749999999999744},{"name":"D5","midi":74,"time":59.934999999999896,"velocity":0.8346456692913385,"duration":0.0762500000000017},{"name":"C5","midi":72,"time":59.9799999999999,"velocity":0.8346456692913385,"duration":0.0762500000000017},{"name":"A#4","midi":70,"time":60.1199999999999,"velocity":0.8346456692913385,"duration":0.08875000000000455},{"name":"A#4","midi":70,"time":60.2962499999999,"velocity":0.8346456692913385,"duration":0.23999999999999488},{"name":"F5","midi":77,"time":60.607499999999895,"velocity":0.8267716535433071,"duration":0.166249999999998},{"name":"F5","midi":77,"time":60.904999999999895,"velocity":0.8267716535433071,"duration":0.12125000000000341},{"name":"D5","midi":74,"time":61.199999999999896,"velocity":0.8267716535433071,"duration":0.15124999999999744},{"name":"D5","midi":74,"time":61.497499999999896,"velocity":0.8267716535433071,"duration":0.14874999999999972},{"name":"D5","midi":74,"time":61.79749999999989,"velocity":0.8267716535433071,"duration":0.1599999999999966},{"name":"C5","midi":72,"time":62.093749999999886,"velocity":0.8267716535433071,"duration":0.15500000000000114},{"name":"A#4","midi":70,"time":62.243749999999885,"velocity":0.8267716535433071,"duration":0.16125000000000256},{"name":"C5","midi":72,"time":62.39624999999989,"velocity":0.8267716535433071,"duration":0.15749999999999886},{"name":"D5","midi":74,"time":62.54499999999989,"velocity":0.8267716535433071,"duration":0.16250000000000142},{"name":"C5","midi":72,"time":62.69999999999989,"velocity":0.8188976377952756,"duration":0.21374999999999744},{"name":"D5","midi":74,"time":62.84749999999989,"velocity":0.8188976377952756,"duration":0.15374999999999517},{"name":"A#4","midi":70,"time":62.99749999999989,"velocity":0.8188976377952756,"duration":0.16250000000000142},{"name":"A4","midi":69,"time":63.15374999999989,"velocity":0.8188976377952756,"duration":0.15124999999999744},{"name":"A#4","midi":70,"time":63.30124999999989,"velocity":0.8188976377952756,"duration":0.15500000000000114},{"name":"C5","midi":72,"time":63.45124999999989,"velocity":0.8188976377952756,"duration":0.1525000000000034},{"name":"D5","midi":74,"time":63.601249999999894,"velocity":0.8188976377952756,"duration":0.15749999999999886},{"name":"D#5","midi":75,"time":63.75124999999989,"velocity":0.8188976377952756,"duration":0.15375000000000227},{"name":"F5","midi":77,"time":63.89999999999989,"velocity":0.8110236220472441,"duration":0.14875000000000682},{"name":"E5","midi":76,"time":64.0474999999999,"velocity":0.8110236220472441,"duration":0.16875000000000284},{"name":"F5","midi":77,"time":64.2074999999999,"velocity":0.8188976377952756,"duration":0.15000000000000568},{"name":"G5","midi":79,"time":64.35124999999991,"velocity":0.8267716535433071,"duration":0.15374999999998806},{"name":"A5","midi":81,"time":64.4999999999999,"velocity":0.8346456692913385,"duration":0.15499999999998693},{"name":"F5","midi":77,"time":64.65124999999989,"velocity":0.8346456692913385,"duration":0.15749999999999886},{"name":"A#5","midi":82,"time":64.8049999999999,"velocity":0.84251968503937,"duration":0.15374999999998806},{"name":"A5","midi":81,"time":64.95374999999989,"velocity":0.8503937007874016,"duration":0.1562499999999858},{"name":"A#5","midi":82,"time":65.10374999999988,"velocity":0.8582677165354331,"duration":0.16124999999998124},{"name":"C6","midi":84,"time":65.25749999999987,"velocity":0.8661417322834646,"duration":0.15374999999998806},{"name":"A5","midi":81,"time":65.40624999999986,"velocity":0.8740157480314961,"duration":0.15749999999998465},{"name":"A#5","midi":82,"time":65.55749999999985,"velocity":0.8740157480314961,"duration":0.14749999999999375},{"name":"C6","midi":84,"time":65.70249999999984,"velocity":0.8818897637795275,"duration":0.1599999999999966},{"name":"A#5","midi":82,"time":65.85499999999985,"velocity":0.8267716535433071,"duration":0.1524999999999892},{"name":"A5","midi":81,"time":66.00249999999984,"velocity":0.7637795275590551,"duration":0.15499999999998693},{"name":"G5","midi":79,"time":66.14999999999984,"velocity":0.7086614173228346,"duration":0.15749999999999886},{"name":"F5","midi":77,"time":66.30499999999984,"velocity":0.6456692913385826,"duration":0.14374999999999716},{"name":"D#5","midi":75,"time":66.44749999999983,"velocity":0.5826771653543307,"duration":0.16250000000000853},{"name":"D5","midi":74,"time":66.60124999999984,"velocity":0.5196850393700787,"duration":0.14750000000000796},{"name":"A#5","midi":82,"time":66.89499999999984,"velocity":0.5196850393700787,"duration":0.16749999999998977},{"name":"D5","midi":74,"time":66.89749999999984,"velocity":0.5196850393700787,"duration":0.1599999999999966},{"name":"F5","midi":77,"time":66.89749999999984,"velocity":0.5196850393700787,"duration":0.15375000000000227},{"name":"F5","midi":77,"time":67.20374999999983,"velocity":0.5196850393700787,"duration":0.14875000000000682},{"name":"A#5","midi":82,"time":67.20374999999983,"velocity":0.5196850393700787,"duration":0.14000000000000057},{"name":"D5","midi":74,"time":67.20499999999983,"velocity":0.5196850393700787,"duration":0.14875000000000682},{"name":"G5","midi":79,"time":67.49749999999983,"velocity":0.5196850393700787,"duration":0.1662499999999767},{"name":"D5","midi":74,"time":67.49999999999983,"velocity":0.5196850393700787,"duration":0.1562499999999858},{"name":"A5","midi":81,"time":67.65124999999982,"velocity":0.5196850393700787,"duration":0.22249999999998238},{"name":"G5","midi":79,"time":67.80499999999981,"velocity":0.5196850393700787,"duration":0.15499999999998693},{"name":"F5","midi":77,"time":67.9537499999998,"velocity":0.5196850393700787,"duration":0.16249999999999432},{"name":"D#5","midi":75,"time":68.10374999999979,"velocity":0.5196850393700787,"duration":0.15500000000000114},{"name":"D5","midi":74,"time":68.2512499999998,"velocity":0.5196850393700787,"duration":0.15124999999999034},{"name":"C5","midi":72,"time":68.3974999999998,"velocity":0.5196850393700787,"duration":0.14374999999999716},{"name":"D#5","midi":75,"time":68.68874999999979,"velocity":0.5196850393700787,"duration":0.15625},{"name":"A5","midi":81,"time":68.69249999999978,"velocity":0.5196850393700787,"duration":0.14000000000000057},{"name":"C5","midi":72,"time":68.69374999999978,"velocity":0.5196850393700787,"duration":0.13500000000000512},{"name":"A5","midi":81,"time":68.99374999999979,"velocity":0.5118110236220472,"duration":0.16500000000000625},{"name":"C5","midi":72,"time":68.99499999999979,"velocity":0.5118110236220472,"duration":0.16625000000000512},{"name":"D#5","midi":75,"time":68.99499999999979,"velocity":0.5118110236220472,"duration":0.15125000000000455},{"name":"C5","midi":72,"time":69.29249999999979,"velocity":0.5118110236220472,"duration":0.16875000000000284},{"name":"F5","midi":77,"time":69.29499999999979,"velocity":0.5118110236220472,"duration":0.16750000000000398},{"name":"G5","midi":79,"time":69.45124999999979,"velocity":0.5118110236220472,"duration":0.16125000000000966},{"name":"F5","midi":77,"time":69.5999999999998,"velocity":0.5118110236220472,"duration":0.22875000000000512},{"name":"D#5","midi":75,"time":69.7512499999998,"velocity":0.5118110236220472,"duration":0.2224999999999966},{"name":"D5","midi":74,"time":69.8987499999998,"velocity":0.5118110236220472,"duration":0.15000000000000568},{"name":"C5","midi":72,"time":70.0449999999998,"velocity":0.5118110236220472,"duration":0.25},{"name":"A#4","midi":70,"time":70.2012499999998,"velocity":0.5118110236220472,"duration":0.16625000000000512},{"name":"D5","midi":74,"time":70.50124999999981,"velocity":0.5118110236220472,"duration":0.15749999999999886},{"name":"G5","midi":79,"time":70.50374999999981,"velocity":0.5118110236220472,"duration":0.14499999999999602},{"name":"A#4","midi":70,"time":70.50749999999981,"velocity":0.5118110236220472,"duration":0.13750000000000284},{"name":"A#4","midi":70,"time":70.80124999999981,"velocity":0.5118110236220472,"duration":0.15874999999998352},{"name":"D5","midi":74,"time":70.80124999999981,"velocity":0.5118110236220472,"duration":0.14624999999999488},{"name":"G5","midi":79,"time":70.80374999999981,"velocity":0.5118110236220472,"duration":0.1487499999999926},{"name":"D#5","midi":75,"time":71.0974999999998,"velocity":0.5118110236220472,"duration":0.17249999999999943},{"name":"A#4","midi":70,"time":71.1012499999998,"velocity":0.5039370078740157,"duration":0.16750000000000398},{"name":"F5","midi":77,"time":71.2574999999998,"velocity":0.5039370078740157,"duration":0.2150000000000034},{"name":"D#5","midi":75,"time":71.4074999999998,"velocity":0.5118110236220472,"duration":0.15874999999999773},{"name":"D5","midi":74,"time":71.55624999999979,"velocity":0.5196850393700787,"duration":0.15500000000000114},{"name":"C5","midi":72,"time":71.7099999999998,"velocity":0.5196850393700787,"duration":0.14000000000000057},{"name":"A#4","midi":70,"time":71.8512499999998,"velocity":0.5275590551181102,"duration":0.23124999999998863},{"name":"A4","midi":69,"time":72.00499999999978,"velocity":0.5354330708661418,"duration":0.14499999999999602},{"name":"C5","midi":72,"time":72.29624999999977,"velocity":0.5433070866141733,"duration":0.14000000000000057},{"name":"F5","midi":77,"time":72.29999999999977,"velocity":0.5433070866141733,"duration":0.13375000000000625},{"name":"A4","midi":69,"time":72.30374999999977,"velocity":0.5433070866141733,"duration":0.12125000000000341},{"name":"A4","midi":69,"time":72.59499999999977,"velocity":0.5511811023622047,"duration":0.15125000000000455},{"name":"C5","midi":72,"time":72.59624999999977,"velocity":0.5511811023622047,"duration":0.125},{"name":"F5","midi":77,"time":72.59749999999977,"velocity":0.5590551181102362,"duration":0.14750000000000796},{"name":"A#4","midi":70,"time":72.89249999999977,"velocity":0.5669291338582677,"duration":0.16874999999998863},{"name":"F4","midi":65,"time":72.89374999999977,"velocity":0.5669291338582677,"duration":0.17749999999999488},{"name":"D5","midi":74,"time":72.89374999999977,"velocity":0.5669291338582677,"duration":0.1599999999999966},{"name":"A#4","midi":70,"time":73.19374999999977,"velocity":0.5748031496062992,"duration":0.1487499999999926},{"name":"D5","midi":74,"time":73.19499999999977,"velocity":0.5748031496062992,"duration":0.15499999999998693},{"name":"A#4","midi":70,"time":73.50624999999975,"velocity":0.5905511811023622,"duration":0.12375000000000114},{"name":"D5","midi":74,"time":73.50624999999975,"velocity":0.5905511811023622,"duration":0.15874999999999773},{"name":"G4","midi":67,"time":73.79249999999975,"velocity":0.6141732283464567,"duration":0.15874999999999773},{"name":"D5","midi":74,"time":73.79624999999974,"velocity":0.6141732283464567,"duration":0.9024999999999608},{"name":"F4","midi":65,"time":73.94624999999975,"velocity":0.6141732283464567,"duration":0.1524999999999892},{"name":"G4","midi":67,"time":74.09249999999975,"velocity":0.6141732283464567,"duration":0.1562499999999858},{"name":"A4","midi":69,"time":74.24624999999973,"velocity":0.6141732283464567,"duration":0.14749999999999375},{"name":"A#4","midi":70,"time":74.39499999999973,"velocity":0.6141732283464567,"duration":0.1487499999999926},{"name":"G4","midi":67,"time":74.54249999999972,"velocity":0.6141732283464567,"duration":0.14624999999999488},{"name":"C5","midi":72,"time":74.69374999999971,"velocity":0.6141732283464567,"duration":1.807499999999962},{"name":"A#4","midi":70,"time":74.8462499999997,"velocity":0.6141732283464567,"duration":0.14750000000000796},{"name":"A4","midi":69,"time":74.9962499999997,"velocity":0.6141732283464567,"duration":0.14624999999999488},{"name":"G4","midi":67,"time":75.1437499999997,"velocity":0.6141732283464567,"duration":0.15500000000000114},{"name":"F4","midi":65,"time":75.2962499999997,"velocity":0.6141732283464567,"duration":0.15124999999999034},{"name":"D#4","midi":63,"time":75.4437499999997,"velocity":0.6141732283464567,"duration":0.1524999999999892},{"name":"F4","midi":65,"time":75.59374999999969,"velocity":0.6062992125984252,"duration":0.1599999999999966},{"name":"D#4","midi":63,"time":75.74624999999969,"velocity":0.6062992125984252,"duration":0.1487499999999926},{"name":"F4","midi":65,"time":75.89374999999968,"velocity":0.6062992125984252,"duration":0.15500000000000114},{"name":"G4","midi":67,"time":76.04249999999969,"velocity":0.6062992125984252,"duration":0.15374999999998806},{"name":"A4","midi":69,"time":76.19374999999968,"velocity":0.6062992125984252,"duration":0.15749999999998465},{"name":"F4","midi":65,"time":76.34374999999967,"velocity":0.6062992125984252,"duration":0.15749999999999886},{"name":"A#4","midi":70,"time":76.49624999999968,"velocity":0.5748031496062992,"duration":1.8574999999999733},{"name":"A4","midi":69,"time":76.65624999999967,"velocity":0.5590551181102362,"duration":0.15000000000000568},{"name":"G4","midi":67,"time":76.80499999999968,"velocity":0.5433070866141733,"duration":0.1524999999999892},{"name":"F4","midi":65,"time":76.95374999999967,"velocity":0.5275590551181102,"duration":0.14999999999999147},{"name":"D#4","midi":63,"time":77.10124999999967,"velocity":0.5118110236220472,"duration":0.1562499999999858},{"name":"D4","midi":62,"time":77.25124999999966,"velocity":0.49606299212598426,"duration":0.14374999999999716},{"name":"D#4","midi":63,"time":77.39499999999965,"velocity":0.48031496062992124,"duration":0.1599999999999966},{"name":"D4","midi":62,"time":77.54749999999966,"velocity":0.4645669291338583,"duration":0.15374999999998806},{"name":"D#4","midi":63,"time":77.69499999999965,"velocity":0.44881889763779526,"duration":0.16249999999999432},{"name":"F4","midi":65,"time":77.84749999999964,"velocity":0.4330708661417323,"duration":0.15375000000000227},{"name":"G4","midi":67,"time":77.99999999999964,"velocity":0.41732283464566927,"duration":0.14624999999999488},{"name":"D#4","midi":63,"time":78.14249999999964,"velocity":0.4094488188976378,"duration":0.15500000000000114},{"name":"C4","midi":60,"time":78.29124999999965,"velocity":0.3937007874015748,"duration":0.15874999999999773},{"name":"A4","midi":69,"time":78.29499999999965,"velocity":0.3937007874015748,"duration":0.9862499999999841},{"name":"G4","midi":67,"time":78.45374999999964,"velocity":0.4015748031496063,"duration":0.14624999999999488},{"name":"F4","midi":65,"time":78.60124999999964,"velocity":0.4015748031496063,"duration":0.15500000000000114},{"name":"D#4","midi":63,"time":78.75124999999964,"velocity":0.4015748031496063,"duration":0.13249999999999318},{"name":"A4","midi":69,"time":79.18624999999963,"velocity":0.4015748031496063,"duration":0.10874999999998636},{"name":"A#4","midi":70,"time":79.28874999999962,"velocity":0.4015748031496063,"duration":0.11749999999999261},{"name":"C5","midi":72,"time":79.39249999999961,"velocity":0.4015748031496063,"duration":0.09000000000000341},{"name":"A#4","midi":70,"time":79.46999999999962,"velocity":0.4015748031496063,"duration":0.09375},{"name":"C5","midi":72,"time":79.55874999999962,"velocity":0.4015748031496063,"duration":0.07499999999998863},{"name":"A#4","midi":70,"time":79.63124999999961,"velocity":0.4015748031496063,"duration":0.09000000000000341},{"name":"C5","midi":72,"time":79.70999999999961,"velocity":0.4015748031496063,"duration":0.06624999999999659},{"name":"A#4","midi":70,"time":79.77249999999961,"velocity":0.4015748031496063,"duration":0.07874999999999943},{"name":"C5","midi":72,"time":79.8399999999996,"velocity":0.4015748031496063,"duration":0.05500000000000682},{"name":"A#4","midi":70,"time":79.89624999999961,"velocity":0.4015748031496063,"duration":0.06749999999999545},{"name":"A4","midi":69,"time":79.94624999999961,"velocity":0.4015748031496063,"duration":0.06624999999999659},{"name":"A#4","midi":70,"time":80.00624999999961,"velocity":0.4015748031496063,"duration":0.07124999999999204},{"name":"C5","midi":72,"time":80.1099999999996,"velocity":0.4015748031496063,"duration":0.13375000000000625},{"name":"F4","midi":65,"time":80.40374999999962,"velocity":0.44881889763779526,"duration":0.16750000000000398},{"name":"A4","midi":69,"time":80.40374999999962,"velocity":0.44881889763779526,"duration":0.15000000000000568},{"name":"C5","midi":72,"time":80.40374999999962,"velocity":0.44881889763779526,"duration":0.15500000000000114},{"name":"F4","midi":65,"time":80.70999999999962,"velocity":0.49606299212598426,"duration":0.08499999999999375},{"name":"A4","midi":69,"time":80.70999999999962,"velocity":0.49606299212598426,"duration":0.0799999999999983},{"name":"C5","midi":72,"time":80.70999999999962,"velocity":0.49606299212598426,"duration":0.10249999999999204},{"name":"G#4","midi":68,"time":81.00499999999961,"velocity":0.5433070866141733,"duration":0.1487499999999926},{"name":"F5","midi":77,"time":81.00624999999961,"velocity":0.5433070866141733,"duration":0.14749999999999375},{"name":"A#4","midi":70,"time":81.00749999999961,"velocity":0.5433070866141733,"duration":1.19374999999998},{"name":"G#4","midi":68,"time":81.3012499999996,"velocity":0.5905511811023622,"duration":0.14374999999999716},{"name":"F5","midi":77,"time":81.3012499999996,"velocity":0.5905511811023622,"duration":0.14749999999999375},{"name":"G#4","midi":68,"time":81.6024999999996,"velocity":0.6377952755905512,"duration":0.12125000000000341},{"name":"F5","midi":77,"time":81.6037499999996,"velocity":0.6377952755905512,"duration":0.12375000000000114},{"name":"G#4","midi":68,"time":81.8937499999996,"velocity":0.6771653543307087,"duration":0.30374999999999375},{"name":"F5","midi":77,"time":81.8937499999996,"velocity":0.6771653543307087,"duration":0.30374999999999375},{"name":"A#4","midi":70,"time":82.19874999999959,"velocity":0.6141732283464567,"duration":0.2074999999999818},{"name":"D#5","midi":75,"time":82.20124999999959,"velocity":0.6141732283464567,"duration":0.14999999999999147},{"name":"G4","midi":67,"time":82.20374999999959,"velocity":0.6141732283464567,"duration":0.18624999999998693},{"name":"D#5","midi":75,"time":82.50374999999957,"velocity":0.5039370078740157,"duration":0.11124999999998408},{"name":"G4","midi":67,"time":82.50499999999957,"velocity":0.5039370078740157,"duration":0.08374999999999488},{"name":"A#4","midi":70,"time":82.50499999999957,"velocity":0.5039370078740157,"duration":0.0899999999999892},{"name":"G5","midi":79,"time":82.79874999999956,"velocity":0.48031496062992124,"duration":0.1487499999999926},{"name":"A#4","midi":70,"time":82.79999999999956,"velocity":0.48031496062992124,"duration":0.28999999999999204},{"name":"C5","midi":72,"time":82.80124999999956,"velocity":0.48031496062992124,"duration":1.3862499999999898},{"name":"G5","midi":79,"time":83.11124999999954,"velocity":0.5433070866141733,"duration":0.1387500000000017},{"name":"A#4","midi":70,"time":83.11499999999954,"velocity":0.5433070866141733,"duration":0.12125000000000341},{"name":"A#4","midi":70,"time":83.40999999999954,"velocity":0.5984251968503937,"duration":0.11375000000001023},{"name":"G5","midi":79,"time":83.40999999999954,"velocity":0.5984251968503937,"duration":0.10500000000000398},{"name":"A#4","midi":70,"time":83.70249999999956,"velocity":0.6535433070866141,"duration":0.3050000000000068},{"name":"G5","midi":79,"time":83.70249999999956,"velocity":0.6535433070866141,"duration":0.3050000000000068},{"name":"F5","midi":77,"time":84.00999999999956,"velocity":0.6299212598425197,"duration":0.09249999999998693},{"name":"A4","midi":69,"time":84.01124999999956,"velocity":0.6299212598425197,"duration":0.052499999999994884},{"name":"C5","midi":72,"time":84.30499999999954,"velocity":0.5826771653543307,"duration":0.14624999999999488},{"name":"A4","midi":69,"time":84.30999999999953,"velocity":0.5826771653543307,"duration":0.11624999999999375},{"name":"F5","midi":77,"time":84.30999999999953,"velocity":0.5826771653543307,"duration":0.12624999999999886},{"name":"C5","midi":72,"time":84.59999999999954,"velocity":0.5590551181102362,"duration":0.14624999999999488},{"name":"D#5","midi":75,"time":84.60249999999954,"velocity":0.5590551181102362,"duration":0.14624999999999488},{"name":"F5","midi":77,"time":84.60249999999954,"velocity":0.5590551181102362,"duration":1.5049999999999812},{"name":"C5","midi":72,"time":84.90124999999954,"velocity":0.6220472440944882,"duration":0.15625},{"name":"D#5","midi":75,"time":84.90124999999954,"velocity":0.6220472440944882,"duration":0.15874999999999773},{"name":"C5","midi":72,"time":85.20624999999953,"velocity":0.6929133858267716,"duration":0.12375000000000114},{"name":"D#5","midi":75,"time":85.20749999999953,"velocity":0.6929133858267716,"duration":0.14124999999999943},{"name":"C5","midi":72,"time":85.50124999999953,"velocity":0.7559055118110236,"duration":0.3125},{"name":"D#5","midi":75,"time":85.50124999999953,"velocity":0.7559055118110236,"duration":0.3787499999999966},{"name":"D5","midi":74,"time":85.80249999999953,"velocity":0.7716535433070866,"duration":0.15749999999999886},{"name":"A#4","midi":70,"time":85.80374999999952,"velocity":0.7716535433070866,"duration":0.16124999999999545},{"name":"A#4","midi":70,"time":86.10499999999952,"velocity":0.7795275590551181,"duration":0.16124999999999545},{"name":"G#4","midi":68,"time":86.10874999999952,"velocity":0.7795275590551181,"duration":0.1387500000000017},{"name":"A#4","midi":70,"time":86.39999999999952,"velocity":0.7874015748031497,"duration":0.8199999999999932},{"name":"G4","midi":67,"time":86.40374999999952,"velocity":0.7874015748031497,"duration":0.19875000000000398},{"name":"D#5","midi":75,"time":86.40374999999952,"velocity":0.7874015748031497,"duration":0.30374999999999375},{"name":"D5","midi":74,"time":86.70249999999952,"velocity":0.7952755905511811,"duration":0.3112499999999869},{"name":"F4","midi":65,"time":86.70749999999951,"velocity":0.7952755905511811,"duration":0.1287499999999966},{"name":"C5","midi":72,"time":87.00624999999951,"velocity":0.8110236220472441,"duration":0.17249999999999943},{"name":"D#4","midi":63,"time":87.0112499999995,"velocity":0.8110236220472441,"duration":0.125},{"name":"A4","midi":69,"time":87.30499999999951,"velocity":0.8188976377952756,"duration":0.821249999999992},{"name":"C5","midi":72,"time":87.30624999999951,"velocity":0.8188976377952756,"duration":0.4437499999999943},{"name":"D#4","midi":63,"time":87.30749999999951,"velocity":0.8188976377952756,"duration":0.43874999999999886},{"name":"D5","midi":74,"time":87.7474999999995,"velocity":0.8346456692913385,"duration":0.16124999999999545},{"name":"A#4","midi":70,"time":87.90124999999951,"velocity":0.8346456692913385,"duration":0.4649999999999892},{"name":"F4","midi":65,"time":87.9037499999995,"velocity":0.8346456692913385,"duration":0.14374999999999716},{"name":"D4","midi":62,"time":87.9049999999995,"velocity":0.8346456692913385,"duration":0.38749999999998863},{"name":"G4","midi":67,"time":88.2074999999995,"velocity":0.8031496062992126,"duration":0.28624999999999545},{"name":"C5","midi":72,"time":88.35499999999949,"velocity":0.7559055118110236,"duration":0.16249999999999432},{"name":"C4","midi":60,"time":88.5087499999995,"velocity":0.7086614173228346,"duration":0.5012499999999847},{"name":"F4","midi":65,"time":88.51499999999949,"velocity":0.7086614173228346,"duration":0.5012499999999847},{"name":"A#4","midi":70,"time":88.53499999999948,"velocity":0.7007874015748031,"duration":0.11749999999999261},{"name":"A4","midi":69,"time":88.63624999999948,"velocity":0.6692913385826772,"duration":0.0662500000000108},{"name":"A#4","midi":70,"time":88.69374999999948,"velocity":0.6535433070866141,"duration":0.05000000000001137},{"name":"A4","midi":69,"time":88.7449999999995,"velocity":0.6299212598425197,"duration":0.0587499999999892},{"name":"A#4","midi":70,"time":88.78249999999949,"velocity":0.6220472440944882,"duration":0.0587499999999892},{"name":"A4","midi":69,"time":88.82374999999948,"velocity":0.6062992125984252,"duration":0.16625000000000512},{"name":"A#4","midi":70,"time":88.96374999999948,"velocity":0.5669291338582677,"duration":0.09124999999998806},{"name":"F4","midi":65,"time":89.10249999999947,"velocity":0.5196850393700787,"duration":0.2875000000000085},{"name":"D4","midi":62,"time":89.10624999999946,"velocity":0.5196850393700787,"duration":0.2825000000000131},{"name":"A#4","midi":70,"time":89.10624999999946,"velocity":0.5196850393700787,"duration":0.15500000000001535},{"name":"C5","midi":72,"time":89.25249999999947,"velocity":0.5196850393700787,"duration":0.15500000000000114},{"name":"D5","midi":74,"time":89.40124999999948,"velocity":0.5118110236220472,"duration":0.15374999999998806},{"name":"A#4","midi":70,"time":89.54749999999947,"velocity":0.5039370078740157,"duration":0.15374999999998806},{"name":"A4","midi":69,"time":89.69624999999947,"velocity":0.5039370078740157,"duration":0.15124999999999034},{"name":"A#4","midi":70,"time":89.84249999999946,"velocity":0.49606299212598426,"duration":0.15374999999998806},{"name":"F4","midi":65,"time":89.99249999999945,"velocity":0.4881889763779528,"duration":0.1599999999999966},{"name":"A#4","midi":70,"time":90.14249999999944,"velocity":0.4881889763779528,"duration":0.16124999999999545},{"name":"D5","midi":74,"time":90.29624999999945,"velocity":0.4881889763779528,"duration":0.15374999999998806},{"name":"A#4","midi":70,"time":90.44624999999944,"velocity":0.4881889763779528,"duration":0.1599999999999966},{"name":"E5","midi":76,"time":90.59999999999944,"velocity":0.4881889763779528,"duration":0.22499999999999432},{"name":"A#4","midi":70,"time":90.75124999999943,"velocity":0.4881889763779528,"duration":0.15125000000000455},{"name":"F5","midi":77,"time":90.90374999999943,"velocity":0.5039370078740157,"duration":0.13625000000000398},{"name":"C6","midi":84,"time":91.19624999999944,"velocity":0.5748031496062992,"duration":0.14499999999999602},{"name":"C6","midi":84,"time":91.50374999999943,"velocity":0.5826771653543307,"duration":0.11374999999999602},{"name":"A5","midi":81,"time":91.80124999999943,"velocity":0.5590551181102362,"duration":0.3025000000000091},{"name":"F5","midi":77,"time":92.09374999999943,"velocity":0.5590551181102362,"duration":0.14375000000001137},{"name":"F5","midi":77,"time":92.40499999999945,"velocity":0.5354330708661418,"duration":0.125},{"name":"D#5","midi":75,"time":92.70374999999945,"velocity":0.4330708661417323,"duration":0.1524999999999892},{"name":"D5","midi":74,"time":92.85124999999944,"velocity":0.4251968503937008,"duration":0.1562499999999858},{"name":"D#5","midi":75,"time":93.00124999999943,"velocity":0.4251968503937008,"duration":0.15499999999998693},{"name":"C5","midi":72,"time":93.15249999999942,"velocity":0.4251968503937008,"duration":0.15499999999998693},{"name":"B4","midi":71,"time":93.30249999999941,"velocity":0.4251968503937008,"duration":0.1524999999999892},{"name":"C5","midi":72,"time":93.4499999999994,"velocity":0.4251968503937008,"duration":0.15499999999998693},{"name":"G4","midi":67,"time":93.6024999999994,"velocity":0.4251968503937008,"duration":0.1524999999999892},{"name":"C5","midi":72,"time":93.74874999999939,"velocity":0.4251968503937008,"duration":0.15374999999998806},{"name":"D#5","midi":75,"time":93.89624999999938,"velocity":0.4251968503937008,"duration":0.15374999999998806},{"name":"C5","midi":72,"time":94.04749999999937,"velocity":0.4330708661417323,"duration":0.16250000000000853},{"name":"F#5","midi":78,"time":94.19874999999938,"velocity":0.47244094488188976,"duration":0.15500000000000114},{"name":"C5","midi":72,"time":94.35124999999938,"velocity":0.5118110236220472,"duration":0.15374999999998806},{"name":"G5","midi":79,"time":94.50124999999937,"velocity":0.5511811023622047,"duration":0.15124999999999034},{"name":"D5","midi":74,"time":94.80249999999937,"velocity":0.4881889763779528,"duration":0.13625000000000398},{"name":"D5","midi":74,"time":95.10374999999938,"velocity":0.4409448818897638,"duration":0.13124999999999432},{"name":"A#4","midi":70,"time":95.39749999999938,"velocity":0.4409448818897638,"duration":0.30750000000000455},{"name":"G4","midi":67,"time":95.69624999999938,"velocity":0.4409448818897638,"duration":0.10500000000000398},{"name":"G4","midi":67,"time":95.99999999999939,"velocity":0.4409448818897638,"duration":0.12999999999999545},{"name":"F4","midi":65,"time":96.29499999999939,"velocity":0.4409448818897638,"duration":0.10625000000000284},{"name":"A5","midi":81,"time":96.59499999999939,"velocity":0.4409448818897638,"duration":0.13500000000000512},{"name":"A5","midi":81,"time":96.90374999999939,"velocity":0.4409448818897638,"duration":0.10375000000000512},{"name":"F5","midi":77,"time":97.2049999999994,"velocity":0.4409448818897638,"duration":0.31500000000001194},{"name":"D5","midi":74,"time":97.50499999999941,"velocity":0.47244094488188976,"duration":0.09624999999999773},{"name":"D5","midi":74,"time":97.80249999999941,"velocity":0.5118110236220472,"duration":0.13625000000000398},{"name":"C#5","midi":73,"time":98.09874999999941,"velocity":0.5511811023622047,"duration":0.16249999999999432},{"name":"B4","midi":71,"time":98.25374999999941,"velocity":0.5669291338582677,"duration":0.15499999999998693},{"name":"C#5","midi":73,"time":98.40124999999941,"velocity":0.5826771653543307,"duration":0.15749999999999886},{"name":"D5","midi":74,"time":98.5487499999994,"velocity":0.6062992125984252,"duration":0.15000000000000568},{"name":"B4","midi":71,"time":98.69749999999941,"velocity":0.6220472440944882,"duration":0.15625},{"name":"C#5","midi":73,"time":98.84749999999941,"velocity":0.6377952755905512,"duration":0.15499999999998693},{"name":"D5","midi":74,"time":98.99499999999941,"velocity":0.6614173228346457,"duration":0.15124999999999034},{"name":"C#5","midi":73,"time":99.1449999999994,"velocity":0.6771653543307087,"duration":0.16500000000000625},{"name":"D5","midi":74,"time":99.2987499999994,"velocity":0.6929133858267716,"duration":0.15000000000000568},{"name":"E5","midi":76,"time":99.44624999999941,"velocity":0.7165354330708661,"duration":0.16125000000000966},{"name":"C#5","midi":73,"time":99.59749999999941,"velocity":0.7322834645669292,"duration":0.1600000000000108},{"name":"D5","midi":74,"time":99.74749999999942,"velocity":0.7480314960629921,"duration":0.16124999999999545},{"name":"E5","midi":76,"time":99.89999999999942,"velocity":0.7716535433070866,"duration":0.1799999999999926},{"name":"E4","midi":64,"time":99.90124999999942,"velocity":0.7716535433070866,"duration":0.2012499999999875},{"name":"A4","midi":69,"time":100.2037499999994,"velocity":0.7795275590551181,"duration":0.22624999999999318},{"name":"D4","midi":62,"time":100.7999999999994,"velocity":0.3700787401574803,"duration":0.15374999999998806},{"name":"C#4","midi":61,"time":100.9462499999994,"velocity":0.4015748031496063,"duration":0.14999999999999147},{"name":"D4","midi":62,"time":101.09374999999939,"velocity":0.4251968503937008,"duration":0.16374999999999318},{"name":"E4","midi":64,"time":101.25124999999939,"velocity":0.4566929133858268,"duration":0.21875},{"name":"F4","midi":65,"time":101.40749999999939,"velocity":0.48031496062992124,"duration":0.14624999999999488},{"name":"G4","midi":67,"time":101.54999999999939,"velocity":0.5118110236220472,"duration":0.1524999999999892},{"name":"A4","midi":69,"time":101.69624999999938,"velocity":0.6062992125984252,"duration":0.14999999999999147},{"name":"G4","midi":67,"time":101.84749999999937,"velocity":0.5590551181102362,"duration":0.15500000000000114},{"name":"A4","midi":69,"time":101.99624999999938,"velocity":0.5905511811023622,"duration":0.15749999999998465},{"name":"B4","midi":71,"time":102.14624999999937,"velocity":0.6141732283464567,"duration":0.1662499999999909},{"name":"C#5","midi":73,"time":102.29999999999936,"velocity":0.6456692913385826,"duration":0.14000000000000057},{"name":"A4","midi":69,"time":102.44124999999936,"velocity":0.6692913385826772,"duration":0.15499999999998693},{"name":"D5","midi":74,"time":102.59124999999935,"velocity":0.7401574803149606,"duration":0.15124999999999034},{"name":"C#5","midi":73,"time":102.73874999999934,"velocity":0.7244094488188977,"duration":0.16249999999999432},{"name":"D5","midi":74,"time":102.89374999999934,"velocity":0.7480314960629921,"duration":0.14624999999999488},{"name":"E5","midi":76,"time":103.03624999999934,"velocity":0.7795275590551181,"duration":0.22374999999999545},{"name":"F5","midi":77,"time":103.19749999999934,"velocity":0.8031496062992126,"duration":0.14749999999999375},{"name":"G5","midi":79,"time":103.34874999999933,"velocity":0.8346456692913385,"duration":0.15874999999999773},{"name":"A5","midi":81,"time":103.50124999999933,"velocity":0.8976377952755905,"duration":0.15749999999998465},{"name":"A#5","midi":82,"time":103.65124999999932,"velocity":0.84251968503937,"duration":0.21625000000000227},{"name":"A5","midi":81,"time":103.80374999999931,"velocity":0.84251968503937,"duration":0.1562500000000142},{"name":"G5","midi":79,"time":103.95124999999932,"velocity":0.84251968503937,"duration":0.15874999999999773},{"name":"F5","midi":77,"time":104.10374999999932,"velocity":0.84251968503937,"duration":0.14124999999999943},{"name":"E5","midi":76,"time":104.24624999999932,"velocity":0.84251968503937,"duration":0.1637500000000074},{"name":"F5","midi":77,"time":104.40124999999932,"velocity":0.84251968503937,"duration":0.1425000000000125},{"name":"A5","midi":81,"time":104.69749999999934,"velocity":0.8346456692913385,"duration":0.13375000000000625},{"name":"F5","midi":77,"time":104.69874999999934,"velocity":0.8346456692913385,"duration":0.12125000000000341},{"name":"F5","midi":77,"time":104.99624999999935,"velocity":0.7322834645669292,"duration":0.13625000000000398},{"name":"A5","midi":81,"time":104.99624999999935,"velocity":0.7322834645669292,"duration":0.16125000000000966},{"name":"F5","midi":77,"time":105.29499999999936,"velocity":0.6377952755905512,"duration":0.29999999999999716},{"name":"A#5","midi":82,"time":105.29874999999936,"velocity":0.6299212598425197,"duration":0.16500000000000625},{"name":"C6","midi":84,"time":105.45374999999936,"velocity":0.6141732283464567,"duration":0.14999999999999147},{"name":"A#5","midi":82,"time":105.60124999999935,"velocity":0.6141732283464567,"duration":0.15874999999999773},{"name":"A5","midi":81,"time":105.75249999999936,"velocity":0.6141732283464567,"duration":0.16249999999999432},{"name":"G5","midi":79,"time":105.90374999999935,"velocity":0.6141732283464567,"duration":0.15625},{"name":"F5","midi":77,"time":106.05499999999935,"velocity":0.6141732283464567,"duration":0.14999999999999147},{"name":"E5","midi":76,"time":106.20374999999935,"velocity":0.6141732283464567,"duration":0.14000000000000057},{"name":"E5","midi":76,"time":106.50124999999935,"velocity":0.6141732283464567,"duration":0.14624999999999488},{"name":"G5","midi":79,"time":106.50124999999935,"velocity":0.6141732283464567,"duration":0.15625},{"name":"E5","midi":76,"time":106.80499999999934,"velocity":0.6141732283464567,"duration":0.10124999999999318},{"name":"G5","midi":79,"time":106.80499999999934,"velocity":0.6141732283464567,"duration":0.12624999999999886},{"name":"A5","midi":81,"time":107.09624999999934,"velocity":0.6299212598425197,"duration":0.1700000000000017},{"name":"E5","midi":76,"time":107.09999999999934,"velocity":0.6299212598425197,"duration":0.30000000000001137},{"name":"A#5","midi":82,"time":107.25374999999934,"velocity":0.6614173228346457,"duration":0.2325000000000017},{"name":"A5","midi":81,"time":107.40749999999935,"velocity":0.6850393700787402,"duration":0.16125000000000966},{"name":"G5","midi":79,"time":107.55749999999935,"velocity":0.6850393700787402,"duration":0.15749999999999886},{"name":"F5","midi":77,"time":107.70999999999935,"velocity":0.6850393700787402,"duration":0.1424999999999983},{"name":"E5","midi":76,"time":107.85499999999935,"velocity":0.6771653543307087,"duration":0.1525000000000034},{"name":"D5","midi":74,"time":108.00374999999936,"velocity":0.6771653543307087,"duration":0.1524999999999892},{"name":"C5","midi":72,"time":108.15124999999935,"velocity":0.6771653543307087,"duration":0.1487499999999926},{"name":"D5","midi":74,"time":108.29749999999935,"velocity":0.6692913385826772,"duration":0.15499999999998693},{"name":"E5","midi":76,"time":108.44624999999934,"velocity":0.6692913385826772,"duration":0.16374999999999318},{"name":"F5","midi":77,"time":108.59874999999933,"velocity":0.6692913385826772,"duration":0.15000000000000568},{"name":"D5","midi":74,"time":108.74624999999934,"velocity":0.6614173228346457,"duration":0.16125000000000966},{"name":"G5","midi":79,"time":108.89749999999934,"velocity":0.6614173228346457,"duration":0.14750000000000796},{"name":"D5","midi":74,"time":109.19749999999935,"velocity":0.6456692913385826,"duration":0.17624999999999602},{"name":"G5","midi":79,"time":109.19749999999935,"velocity":0.6456692913385826,"duration":0.14499999999999602},{"name":"A#4","midi":70,"time":109.19874999999935,"velocity":0.6456692913385826,"duration":0.14999999999999147},{"name":"D5","midi":74,"time":109.49999999999935,"velocity":0.6456692913385826,"duration":0.13625000000000398},{"name":"A#4","midi":70,"time":109.50124999999935,"velocity":0.6456692913385826,"duration":0.13500000000000512},{"name":"G5","midi":79,"time":109.50124999999935,"velocity":0.6456692913385826,"duration":0.11875000000000568},{"name":"A#4","midi":70,"time":109.80374999999935,"velocity":0.6456692913385826,"duration":0.13124999999999432},{"name":"C#5","midi":73,"time":109.80374999999935,"velocity":0.6456692913385826,"duration":0.12624999999999886},{"name":"C#5","midi":73,"time":110.09749999999934,"velocity":0.6456692913385826,"duration":0.1287499999999966},{"name":"A4","midi":69,"time":110.09874999999934,"velocity":0.6456692913385826,"duration":0.12749999999999773},{"name":"E5","midi":76,"time":110.10124999999934,"velocity":0.6456692913385826,"duration":0.12749999999999773},{"name":"A4","midi":69,"time":110.40124999999934,"velocity":0.6456692913385826,"duration":0.10875000000000057},{"name":"C#5","midi":73,"time":110.40374999999933,"velocity":0.6456692913385826,"duration":0.09375},{"name":"E5","midi":76,"time":110.40374999999933,"velocity":0.6456692913385826,"duration":0.09624999999999773},{"name":"G4","midi":67,"time":110.69874999999935,"velocity":0.6299212598425197,"duration":0.4649999999999892},{"name":"E4","midi":64,"time":110.70124999999935,"velocity":0.6299212598425197,"duration":0.4474999999999909},{"name":"A4","midi":69,"time":111.15374999999933,"velocity":0.5669291338582677,"duration":0.15500000000000114},{"name":"D4","midi":62,"time":111.29874999999934,"velocity":0.5511811023622047,"duration":0.4549999999999841},{"name":"F4","midi":65,"time":111.30499999999934,"velocity":0.5511811023622047,"duration":0.4437499999999943},{"name":"E4","midi":64,"time":111.74624999999934,"velocity":0.4881889763779528,"duration":0.16374999999999318},{"name":"F4","midi":65,"time":111.89999999999932,"velocity":0.4645669291338583,"duration":0.10875000000000057},{"name":"C#4","midi":61,"time":111.91249999999933,"velocity":0.4645669291338583,"duration":0.3962500000000091},{"name":"E4","midi":64,"time":111.99374999999932,"velocity":0.4566929133858268,"duration":0.07874999999999943},{"name":"F4","midi":65,"time":112.06499999999933,"velocity":0.4409448818897638,"duration":0.03874999999999318},{"name":"E4","midi":64,"time":112.11249999999933,"velocity":0.4409448818897638,"duration":0.05375000000000796},{"name":"F4","midi":65,"time":112.15499999999933,"velocity":0.4330708661417323,"duration":0.08750000000000568},{"name":"E4","midi":64,"time":112.21124999999934,"velocity":0.4251968503937008,"duration":0.16875000000000284},{"name":"D4","midi":62,"time":112.36874999999934,"velocity":0.4015748031496063,"duration":0.10625000000000284},{"name":"D4","midi":62,"time":112.50874999999934,"velocity":0.3858267716535433,"duration":0.29999999999999716},{"name":"E4","midi":64,"time":112.65499999999933,"velocity":0.3228346456692913,"duration":0.15500000000000114},{"name":"F4","midi":65,"time":112.80249999999934,"velocity":0.3228346456692913,"duration":0.15874999999998352},{"name":"D4","midi":62,"time":112.95749999999933,"velocity":0.3228346456692913,"duration":0.14000000000000057},{"name":"C#4","midi":61,"time":113.09999999999933,"velocity":0.3228346456692913,"duration":0.15375000000000227},{"name":"D4","midi":62,"time":113.24874999999933,"velocity":0.3228346456692913,"duration":0.15374999999998806},{"name":"A3","midi":57,"time":113.40124999999932,"velocity":0.3228346456692913,"duration":0.15625},{"name":"D4","midi":62,"time":113.55249999999933,"velocity":0.3228346456692913,"duration":0.1562499999999858},{"name":"F4","midi":65,"time":113.70249999999932,"velocity":0.3228346456692913,"duration":0.1387499999999875},{"name":"D4","midi":62,"time":113.8424999999993,"velocity":0.3228346456692913,"duration":0.22374999999999545},{"name":"G#4","midi":68,"time":114.0049999999993,"velocity":0.3228346456692913,"duration":0.13124999999999432},{"name":"D4","midi":62,"time":114.13874999999929,"velocity":0.3228346456692913,"duration":0.15375000000000227},{"name":"A4","midi":69,"time":114.2899999999993,"velocity":0.36220472440944884,"duration":0.09749999999999659},{"name":"E5","midi":76,"time":114.6024999999993,"velocity":0.36220472440944884,"duration":0.1424999999999983},{"name":"E5","midi":76,"time":114.90874999999929,"velocity":0.3700787401574803,"duration":0.11875000000000568},{"name":"C5","midi":72,"time":115.1987499999993,"velocity":0.3779527559055118,"duration":0.3024999999999949},{"name":"A4","midi":69,"time":115.50249999999929,"velocity":0.3779527559055118,"duration":0.16124999999999545},{"name":"A4","midi":69,"time":115.80749999999928,"velocity":0.3858267716535433,"duration":0.15500000000000114},{"name":"A4","midi":69,"time":116.10124999999928,"velocity":0.4015748031496063,"duration":0.15625},{"name":"F#4","midi":66,"time":116.25124999999929,"velocity":0.4251968503937008,"duration":0.14999999999999147},{"name":"G4","midi":67,"time":116.39624999999928,"velocity":0.4409448818897638,"duration":0.21999999999999886},{"name":"B4","midi":71,"time":116.54999999999929,"velocity":0.4645669291338583,"duration":0.1525000000000034},{"name":"C5","midi":72,"time":116.70624999999929,"velocity":0.4881889763779528,"duration":0.14499999999999602},{"name":"G4","midi":67,"time":116.85374999999928,"velocity":0.5039370078740157,"duration":0.1487499999999926},{"name":"F4","midi":65,"time":116.99874999999928,"velocity":0.5275590551181102,"duration":0.16124999999999545},{"name":"G4","midi":67,"time":117.15124999999927,"velocity":0.4881889763779528,"duration":0.15375000000000227},{"name":"A4","midi":69,"time":117.29749999999927,"velocity":0.4566929133858268,"duration":0.1487499999999926},{"name":"F4","midi":65,"time":117.44749999999927,"velocity":0.41732283464566927,"duration":0.15625},{"name":"A#4","midi":70,"time":117.59624999999927,"velocity":0.4015748031496063,"duration":0.2224999999999966},{"name":"F4","midi":65,"time":117.75249999999927,"velocity":0.4015748031496063,"duration":0.1349999999999909},{"name":"E4","midi":64,"time":117.89749999999927,"velocity":0.44881889763779526,"duration":0.1562499999999858},{"name":"G4","midi":67,"time":118.04624999999926,"velocity":0.41732283464566927,"duration":0.1599999999999966},{"name":"A4","midi":69,"time":118.19749999999925,"velocity":0.3858267716535433,"duration":0.1525000000000034},{"name":"A#4","midi":70,"time":118.36124999999926,"velocity":0.3779527559055118,"duration":0.16125000000000966},{"name":"A4","midi":69,"time":118.51374999999926,"velocity":0.3779527559055118,"duration":0.15750000000001307},{"name":"G4","midi":67,"time":118.66249999999927,"velocity":0.3779527559055118,"duration":0.13750000000000284},{"name":"F#4","midi":66,"time":118.80124999999927,"velocity":0.3779527559055118,"duration":0.2950000000000017},{"name":"G4","midi":67,"time":119.10749999999928,"velocity":0.3779527559055118,"duration":0.13625000000000398},{"name":"G4","midi":67,"time":119.40749999999927,"velocity":0.3779527559055118,"duration":0.15000000000000568},{"name":"G4","midi":67,"time":119.69999999999928,"velocity":0.3937007874015748,"duration":0.1600000000000108},{"name":"A4","midi":69,"time":119.85124999999928,"velocity":0.4251968503937008,"duration":0.15875000000001194},{"name":"A#4","midi":70,"time":120.00124999999929,"velocity":0.4566929133858268,"duration":0.1525000000000034},{"name":"G4","midi":67,"time":120.1487499999993,"velocity":0.4881889763779528,"duration":0.16124999999999545},{"name":"C#5","midi":73,"time":120.29874999999929,"velocity":0.5275590551181102,"duration":0.15125000000000455},{"name":"G4","midi":67,"time":120.4474999999993,"velocity":0.5590551181102362,"duration":0.15374999999998806},{"name":"E5","midi":76,"time":120.59874999999928,"velocity":0.5905511811023622,"duration":0.1637500000000074},{"name":"A#4","midi":70,"time":120.75249999999929,"velocity":0.5826771653543307,"duration":0.15500000000000114},{"name":"A4","midi":69,"time":120.8999999999993,"velocity":0.5669291338582677,"duration":0.16249999999999432},{"name":"G4","midi":67,"time":121.05874999999929,"velocity":0.5433070866141733,"duration":0.14999999999999147},{"name":"F4","midi":65,"time":121.20624999999929,"velocity":0.5275590551181102,"duration":0.1487499999999926},{"name":"E4","midi":64,"time":121.35124999999928,"velocity":0.5118110236220472,"duration":0.15749999999999886},{"name":"F4","midi":65,"time":121.50249999999929,"velocity":0.4881889763779528,"duration":0.1562499999999858},{"name":"G4","midi":67,"time":121.65124999999928,"velocity":0.49606299212598426,"duration":0.1562499999999858},{"name":"G#4","midi":68,"time":121.79999999999927,"velocity":0.5275590551181102,"duration":0.15749999999998465},{"name":"F4","midi":65,"time":121.95249999999926,"velocity":0.5590551181102362,"duration":0.16124999999999545},{"name":"B4","midi":71,"time":122.10374999999925,"velocity":0.5905511811023622,"duration":0.15000000000000568},{"name":"F4","midi":65,"time":122.25124999999926,"velocity":0.6141732283464567,"duration":0.15749999999999886},{"name":"D5","midi":74,"time":122.40249999999926,"velocity":0.6456692913385826,"duration":0.15999999999998238},{"name":"G#4","midi":68,"time":122.55499999999925,"velocity":0.6377952755905512,"duration":0.15749999999999886},{"name":"G4","midi":67,"time":122.70374999999925,"velocity":0.6220472440944882,"duration":0.15000000000000568},{"name":"F4","midi":65,"time":122.85499999999925,"velocity":0.6062992125984252,"duration":0.15500000000000114},{"name":"D#4","midi":63,"time":123.00374999999926,"velocity":0.5905511811023622,"duration":0.1424999999999983},{"name":"D4","midi":62,"time":123.14499999999926,"velocity":0.5748031496062992,"duration":0.1599999999999966},{"name":"C4","midi":60,"time":123.29624999999926,"velocity":0.5511811023622047,"duration":0.12624999999999886},{"name":"D#4","midi":63,"time":123.29999999999926,"velocity":0.5511811023622047,"duration":0.13125000000000853},{"name":"G4","midi":67,"time":123.59749999999927,"velocity":0.5433070866141733,"duration":0.11874999999999147},{"name":"C5","midi":72,"time":123.59749999999927,"velocity":0.5433070866141733,"duration":0.13374999999999204},{"name":"G5","midi":79,"time":123.60124999999927,"velocity":0.5433070866141733,"duration":0.12999999999999545},{"name":"D5","midi":74,"time":123.90124999999927,"velocity":0.5433070866141733,"duration":0.1424999999999983},{"name":"G5","midi":79,"time":123.90124999999927,"velocity":0.5433070866141733,"duration":0.13750000000000284},{"name":"G4","midi":67,"time":123.90374999999926,"velocity":0.5433070866141733,"duration":0.12250000000000227},{"name":"G4","midi":67,"time":124.19499999999927,"velocity":0.5433070866141733,"duration":0.15749999999999886},{"name":"D5","midi":74,"time":124.19624999999927,"velocity":0.5433070866141733,"duration":0.16499999999999204},{"name":"D#5","midi":75,"time":124.19624999999927,"velocity":0.5433070866141733,"duration":0.16249999999999432},{"name":"C5","midi":72,"time":124.49749999999926,"velocity":0.5433070866141733,"duration":0.1637500000000074},{"name":"D#5","midi":75,"time":124.49749999999926,"velocity":0.5433070866141733,"duration":0.16125000000000966},{"name":"G4","midi":67,"time":124.49874999999926,"velocity":0.5433070866141733,"duration":0.13500000000000512},{"name":"C5","midi":72,"time":124.80374999999927,"velocity":0.5039370078740157,"duration":0.125},{"name":"D#5","midi":75,"time":124.80499999999927,"velocity":0.5039370078740157,"duration":0.13124999999999432},{"name":"A4","midi":69,"time":124.80624999999927,"velocity":0.49606299212598426,"duration":0.1737499999999983},{"name":"D5","midi":74,"time":125.09874999999927,"velocity":0.4566929133858268,"duration":0.1037499999999909},{"name":"A#4","midi":70,"time":125.09874999999927,"velocity":0.4566929133858268,"duration":0.09624999999999773},{"name":"D5","midi":74,"time":125.25499999999926,"velocity":0.4566929133858268,"duration":0.14374999999999716},{"name":"G4","midi":67,"time":125.40124999999925,"velocity":0.4566929133858268,"duration":0.14624999999999488},{"name":"D5","midi":74,"time":125.55124999999924,"velocity":0.44881889763779526,"duration":0.20874999999999488},{"name":"F#4","midi":66,"time":125.69624999999924,"velocity":0.44881889763779526,"duration":0.14374999999999716},{"name":"C5","midi":72,"time":125.84374999999923,"velocity":0.4409448818897638,"duration":0.14749999999999375},{"name":"A#4","midi":70,"time":125.98999999999923,"velocity":0.4409448818897638,"duration":0.17125000000000057},{"name":"D5","midi":74,"time":126.15124999999922,"velocity":0.4409448818897638,"duration":0.1387500000000017},{"name":"G4","midi":67,"time":126.29499999999922,"velocity":0.4330708661417323,"duration":0.16249999999999432},{"name":"D5","midi":74,"time":126.45249999999922,"velocity":0.4330708661417323,"duration":0.1562499999999858},{"name":"F#4","midi":66,"time":126.60374999999921,"velocity":0.4251968503937008,"duration":0.14499999999999602},{"name":"C5","midi":72,"time":126.7474999999992,"velocity":0.4251968503937008,"duration":0.15874999999999773},{"name":"A#4","midi":70,"time":126.89874999999921,"velocity":0.41732283464566927,"duration":0.1524999999999892},{"name":"G4","midi":67,"time":127.0462499999992,"velocity":0.4409448818897638,"duration":0.15499999999998693},{"name":"E4","midi":64,"time":127.1962499999992,"velocity":0.47244094488188976,"duration":0.1599999999999966},{"name":"A#4","midi":70,"time":127.34749999999919,"velocity":0.5039370078740157,"duration":0.15125000000000455},{"name":"D4","midi":62,"time":127.49749999999919,"velocity":0.5354330708661418,"duration":0.1562499999999858},{"name":"A#4","midi":70,"time":127.64749999999918,"velocity":0.5669291338582677,"duration":0.1524999999999892},{"name":"C4","midi":60,"time":127.79624999999918,"velocity":0.5984251968503937,"duration":0.16499999999999204},{"name":"A#4","midi":70,"time":127.95374999999918,"velocity":0.5748031496062992,"duration":0.14749999999999375},{"name":"D4","midi":62,"time":128.09999999999917,"velocity":0.5433070866141733,"duration":0.15749999999999886},{"name":"A#4","midi":70,"time":128.25124999999917,"velocity":0.5039370078740157,"duration":0.152499999999975},{"name":"E4","midi":64,"time":128.40124999999915,"velocity":0.47244094488188976,"duration":0.14875000000000682},{"name":"A#4","midi":70,"time":128.54499999999916,"velocity":0.4330708661417323,"duration":0.152499999999975},{"name":"G#4","midi":68,"time":128.69374999999914,"velocity":0.3779527559055118,"duration":0.15500000000000114},{"name":"C5","midi":72,"time":128.84624999999915,"velocity":0.3779527559055118,"duration":0.1487499999999784},{"name":"F4","midi":65,"time":128.99374999999912,"velocity":0.3779527559055118,"duration":0.16749999999998977},{"name":"C5","midi":72,"time":129.15249999999912,"velocity":0.3779527559055118,"duration":0.15374999999997385},{"name":"E4","midi":64,"time":129.2949999999991,"velocity":0.3779527559055118,"duration":0.15374999999997385},{"name":"A#4","midi":70,"time":129.44374999999908,"velocity":0.3779527559055118,"duration":0.1525000000000034},{"name":"G#4","midi":68,"time":129.5912499999991,"velocity":0.3779527559055118,"duration":0.15625},{"name":"C5","midi":72,"time":129.7437499999991,"velocity":0.3779527559055118,"duration":0.1487499999999784},{"name":"F4","midi":65,"time":129.89124999999908,"velocity":0.3779527559055118,"duration":0.1699999999999875},{"name":"C5","midi":72,"time":130.05249999999907,"velocity":0.3779527559055118,"duration":0.22249999999996817},{"name":"E4","midi":64,"time":130.19749999999905,"velocity":0.3779527559055118,"duration":0.152499999999975},{"name":"A#4","midi":70,"time":130.34499999999903,"velocity":0.3779527559055118,"duration":0.16499999999999204},{"name":"G#4","midi":68,"time":130.50624999999903,"velocity":0.3779527559055118,"duration":0.14249999999998408},{"name":"F4","midi":65,"time":130.651249999999,"velocity":0.4015748031496063,"duration":0.15500000000000114},{"name":"D4","midi":62,"time":130.803749999999,"velocity":0.4251968503937008,"duration":0.15000000000000568},{"name":"G#4","midi":68,"time":130.94999999999902,"velocity":0.4409448818897638,"duration":0.14124999999998522},{"name":"C4","midi":60,"time":131.092499999999,"velocity":0.4645669291338583,"duration":0.15375000000000227},{"name":"G#4","midi":68,"time":131.243749999999,"velocity":0.48031496062992124,"duration":0.15000000000000568},{"name":"A#3","midi":58,"time":131.39624999999901,"velocity":0.5039370078740157,"duration":0.15375000000000227},{"name":"G#4","midi":68,"time":131.54749999999902,"velocity":0.5196850393700787,"duration":0.15125000000000455},{"name":"C4","midi":60,"time":131.69624999999903,"velocity":0.5433070866141733,"duration":0.15749999999999886},{"name":"G#4","midi":68,"time":131.84624999999903,"velocity":0.5669291338582677,"duration":0.1525000000000034},{"name":"D4","midi":62,"time":131.99749999999904,"velocity":0.5826771653543307,"duration":0.1525000000000034},{"name":"G#4","midi":68,"time":132.14374999999905,"velocity":0.6062992125984252,"duration":0.15625},{"name":"G4","midi":67,"time":132.30124999999904,"velocity":0.6299212598425197,"duration":0.13124999999999432},{"name":"A#5","midi":82,"time":132.59749999999903,"velocity":0.6141732283464567,"duration":0.1599999999999966},{"name":"A#5","midi":82,"time":132.90124999999904,"velocity":0.6141732283464567,"duration":0.12999999999999545},{"name":"G5","midi":79,"time":133.20374999999905,"velocity":0.6141732283464567,"duration":0.1425000000000125},{"name":"G5","midi":79,"time":133.49874999999906,"velocity":0.6141732283464567,"duration":0.13999999999998636},{"name":"D#5","midi":75,"time":133.49999999999906,"velocity":0.6141732283464567,"duration":0.1287499999999966},{"name":"G5","midi":79,"time":133.79999999999905,"velocity":0.6141732283464567,"duration":0.1449999999999818},{"name":"D#5","midi":75,"time":133.80124999999904,"velocity":0.6141732283464567,"duration":0.13999999999998636},{"name":"F5","midi":77,"time":134.09999999999903,"velocity":0.6141732283464567,"duration":0.14875000000000682},{"name":"D5","midi":74,"time":134.10124999999903,"velocity":0.6141732283464567,"duration":0.15000000000000568},{"name":"F5","midi":77,"time":134.25624999999903,"velocity":0.6141732283464567,"duration":0.13999999999998636},{"name":"A#4","midi":70,"time":134.403749999999,"velocity":0.6141732283464567,"duration":0.0800000000000125},{"name":"F5","midi":77,"time":134.54749999999902,"velocity":0.6141732283464567,"duration":0.21625000000000227},{"name":"A4","midi":69,"time":134.69499999999903,"velocity":0.6141732283464567,"duration":0.1525000000000034},{"name":"D#5","midi":75,"time":134.84374999999903,"velocity":0.6141732283464567,"duration":0.15125000000000455},{"name":"D5","midi":74,"time":134.99249999999904,"velocity":0.6141732283464567,"duration":0.1525000000000034},{"name":"F5","midi":77,"time":135.14374999999905,"velocity":0.6141732283464567,"duration":0.13999999999998636},{"name":"A#4","midi":70,"time":135.28999999999903,"velocity":0.6141732283464567,"duration":0.16749999999998977},{"name":"F5","midi":77,"time":135.44624999999903,"velocity":0.6141732283464567,"duration":0.1587499999999693},{"name":"A4","midi":69,"time":135.593749999999,"velocity":0.6141732283464567,"duration":0.15124999999997613},{"name":"D#5","midi":75,"time":135.74124999999898,"velocity":0.6141732283464567,"duration":0.14749999999997954},{"name":"D5","midi":74,"time":135.89499999999896,"velocity":0.6141732283464567,"duration":0.1599999999999966},{"name":"A#4","midi":70,"time":136.04749999999896,"velocity":0.6062992125984252,"duration":0.15375000000000227},{"name":"G4","midi":67,"time":136.19749999999897,"velocity":0.5905511811023622,"duration":0.16749999999998977},{"name":"C#5","midi":73,"time":136.35374999999897,"velocity":0.5826771653543307,"duration":0.14999999999997726},{"name":"F4","midi":65,"time":136.50499999999894,"velocity":0.5669291338582677,"duration":0.15125000000000455},{"name":"C#5","midi":73,"time":136.65249999999895,"velocity":0.5590551181102362,"duration":0.20499999999998408},{"name":"D#4","midi":63,"time":136.82249999999894,"velocity":0.5511811023622047,"duration":0.11249999999998295},{"name":"C#5","midi":73,"time":136.96374999999892,"velocity":0.5275590551181102,"duration":0.14125000000001364},{"name":"F4","midi":65,"time":137.10624999999894,"velocity":0.5118110236220472,"duration":0.15874999999999773},{"name":"C#5","midi":73,"time":137.25999999999894,"velocity":0.4881889763779528,"duration":0.1462500000000091},{"name":"G4","midi":67,"time":137.40749999999895,"velocity":0.47244094488188976,"duration":0.14750000000000796},{"name":"C#5","midi":73,"time":137.55249999999896,"velocity":0.44881889763779526,"duration":0.1462500000000091},{"name":"C5","midi":72,"time":137.70124999999896,"velocity":0.4094488188976378,"duration":0.15625},{"name":"D#5","midi":75,"time":137.85124999999897,"velocity":0.4094488188976378,"duration":0.14374999999998295},{"name":"G#4","midi":68,"time":137.99624999999895,"velocity":0.4094488188976378,"duration":0.16374999999999318},{"name":"D#5","midi":75,"time":138.15374999999895,"velocity":0.4094488188976378,"duration":0.20999999999997954},{"name":"G4","midi":67,"time":138.29874999999893,"velocity":0.4094488188976378,"duration":0.15749999999999886},{"name":"C#5","midi":73,"time":138.45124999999894,"velocity":0.4094488188976378,"duration":0.15000000000000568},{"name":"C5","midi":72,"time":138.59999999999894,"velocity":0.4094488188976378,"duration":0.15874999999999773},{"name":"D#5","midi":75,"time":138.75374999999894,"velocity":0.4094488188976378,"duration":0.14124999999998522},{"name":"G#4","midi":68,"time":138.89624999999893,"velocity":0.4094488188976378,"duration":0.1662499999999909},{"name":"D#5","midi":75,"time":139.05249999999893,"velocity":0.4094488188976378,"duration":0.13999999999998636},{"name":"G4","midi":67,"time":139.1962499999989,"velocity":0.4094488188976378,"duration":0.15874999999999773},{"name":"C#5","midi":73,"time":139.34874999999892,"velocity":0.4094488188976378,"duration":0.14624999999998067},{"name":"C5","midi":72,"time":139.4962499999989,"velocity":0.4094488188976378,"duration":0.16124999999999545},{"name":"G#4","midi":68,"time":139.6512499999989,"velocity":0.4409448818897638,"duration":0.15000000000000568},{"name":"F4","midi":65,"time":139.7962499999989,"velocity":0.47244094488188976,"duration":0.15125000000000455},{"name":"C5","midi":72,"time":139.9537499999989,"velocity":0.5039370078740157,"duration":0.13749999999998863},{"name":"D#4","midi":63,"time":140.0937499999989,"velocity":0.5354330708661418,"duration":0.15625},{"name":"C5","midi":72,"time":140.2437499999989,"velocity":0.5669291338582677,"duration":0.14624999999998067},{"name":"D4","midi":62,"time":140.39374999999887,"velocity":0.5984251968503937,"duration":0.15874999999999773},{"name":"C5","midi":72,"time":140.54749999999888,"velocity":0.5905511811023622,"duration":0.15124999999997613},{"name":"D#4","midi":63,"time":140.69624999999886,"velocity":0.5669291338582677,"duration":0.15500000000000114},{"name":"C5","midi":72,"time":140.84749999999886,"velocity":0.5354330708661418,"duration":0.14374999999998295},{"name":"F4","midi":65,"time":140.99624999999884,"velocity":0.5118110236220472,"duration":0.1525000000000034},{"name":"C5","midi":72,"time":141.14249999999885,"velocity":0.4881889763779528,"duration":0.1525000000000034},{"name":"B4","midi":71,"time":141.29249999999885,"velocity":0.44881889763779526,"duration":0.19374999999999432},{"name":"C5","midi":72,"time":141.60124999999886,"velocity":0.4881889763779528,"duration":0.2287499999999909},{"name":"G4","midi":67,"time":141.60249999999886,"velocity":0.4881889763779528,"duration":0.3124999999999716},{"name":"A#4","midi":70,"time":141.90374999999884,"velocity":0.5354330708661418,"duration":0.17749999999998067},{"name":"F4","midi":65,"time":141.90624999999883,"velocity":0.5354330708661418,"duration":0.29374999999998863},{"name":"D#4","midi":63,"time":142.19749999999883,"velocity":0.5748031496062992,"duration":0.30000000000001137},{"name":"G#4","midi":68,"time":142.19749999999883,"velocity":0.5748031496062992,"duration":0.3612500000000125},{"name":"D4","midi":62,"time":142.49374999999884,"velocity":0.6141732283464567,"duration":0.3162499999999966},{"name":"G4","midi":67,"time":142.49874999999884,"velocity":0.6220472440944882,"duration":0.3125},{"name":"C4","midi":60,"time":142.79999999999885,"velocity":0.6614173228346457,"duration":0.2887499999999932},{"name":"F4","midi":65,"time":142.80374999999884,"velocity":0.6614173228346457,"duration":0.1737500000000125},{"name":"D#4","midi":63,"time":143.10124999999883,"velocity":0.7007874015748031,"duration":0.30750000000000455},{"name":"A#4","midi":70,"time":143.10124999999883,"velocity":0.7007874015748031,"duration":0.3087500000000034},{"name":"A#3","midi":58,"time":143.10374999999883,"velocity":0.7007874015748031,"duration":0.44375000000002274},{"name":"G#4","midi":68,"time":143.39999999999884,"velocity":0.7480314960629921,"duration":0.3100000000000023},{"name":"D4","midi":62,"time":143.40499999999884,"velocity":0.7480314960629921,"duration":0.3062500000000057},{"name":"D#4","midi":63,"time":143.70749999999884,"velocity":0.7874015748031497,"duration":0.3812499999999943},{"name":"G4","midi":67,"time":143.71124999999884,"velocity":0.7874015748031497,"duration":0.4412499999999966},{"name":"A#3","midi":58,"time":143.71249999999884,"velocity":0.7874015748031497,"duration":0.28000000000000114},{"name":"C4","midi":60,"time":144.00499999999883,"velocity":0.7795275590551181,"duration":0.3087500000000034},{"name":"C5","midi":72,"time":144.14874999999884,"velocity":0.7795275590551181,"duration":0.15874999999999773},{"name":"D4","midi":62,"time":144.30874999999884,"velocity":0.7795275590551181,"duration":0.5249999999999204},{"name":"G4","midi":67,"time":144.30999999999884,"velocity":0.7795275590551181,"duration":0.12999999999999545},{"name":"F4","midi":65,"time":144.42624999999884,"velocity":0.7637795275590551,"duration":0.07749999999995794},{"name":"G4","midi":67,"time":144.48374999999882,"velocity":0.7322834645669292,"duration":0.07749999999998636},{"name":"F4","midi":65,"time":144.5437499999988,"velocity":0.7086614173228346,"duration":0.03499999999999659},{"name":"G4","midi":67,"time":144.5662499999988,"velocity":0.7007874015748031,"duration":0.06749999999996703},{"name":"F4","midi":65,"time":144.62374999999878,"velocity":0.6692913385826772,"duration":0.2212499999999693},{"name":"D#4","midi":63,"time":144.79124999999877,"velocity":0.5984251968503937,"duration":0.08124999999998295},{"name":"D#4","midi":63,"time":144.90999999999875,"velocity":0.5433070866141733,"duration":0.21250000000000568},{"name":"A#4","midi":70,"time":145.20374999999873,"velocity":0.3858267716535433,"duration":0.14374999999998295},{"name":"A#4","midi":70,"time":145.50124999999872,"velocity":0.3858267716535433,"duration":0.12749999999999773},{"name":"A4","midi":69,"time":145.76999999999873,"velocity":0.3858267716535433,"duration":0.12250000000000227},{"name":"A#4","midi":70,"time":145.85874999999874,"velocity":0.3858267716535433,"duration":0.07499999999998863},{"name":"C5","midi":72,"time":145.92749999999873,"velocity":0.3858267716535433,"duration":0.05624999999997726},{"name":"A#4","midi":70,"time":145.9799999999987,"velocity":0.3858267716535433,"duration":0.06374999999999886},{"name":"C5","midi":72,"time":146.0412499999987,"velocity":0.3858267716535433,"duration":0.04249999999998977},{"name":"A#4","midi":70,"time":146.0799999999987,"velocity":0.3858267716535433,"duration":0.06125000000000114},{"name":"C5","midi":72,"time":146.1337499999987,"velocity":0.3858267716535433,"duration":0.0549999999999784},{"name":"A#4","midi":70,"time":146.1824999999987,"velocity":0.3858267716535433,"duration":0.04999999999998295},{"name":"C5","midi":72,"time":146.23624999999868,"velocity":0.3858267716535433,"duration":0.04750000000001364},{"name":"A#4","midi":70,"time":146.2837499999987,"velocity":0.3858267716535433,"duration":0.05500000000000682},{"name":"C5","midi":72,"time":146.3337499999987,"velocity":0.3858267716535433,"duration":0.05249999999998067},{"name":"A#4","midi":70,"time":146.38249999999869,"velocity":0.3858267716535433,"duration":0.06125000000000114},{"name":"C5","midi":72,"time":146.44499999999869,"velocity":0.3858267716535433,"duration":0.041249999999990905},{"name":"A#4","midi":70,"time":146.48374999999868,"velocity":0.3858267716535433,"duration":0.05750000000000455},{"name":"C5","midi":72,"time":146.54374999999868,"velocity":0.3858267716535433,"duration":0.05500000000000682},{"name":"A#4","midi":70,"time":146.60124999999869,"velocity":0.3858267716535433,"duration":0.09125000000000227},{"name":"C5","midi":72,"time":146.6837499999987,"velocity":0.3858267716535433,"duration":0.04749999999998522},{"name":"A#4","midi":70,"time":146.72874999999868,"velocity":0.3858267716535433,"duration":0.05375000000000796},{"name":"C5","midi":72,"time":146.7849999999987,"velocity":0.3858267716535433,"duration":0.048750000000012506},{"name":"A#4","midi":70,"time":146.8362499999987,"velocity":0.3858267716535433,"duration":0.048750000000012506},{"name":"C5","midi":72,"time":146.8912499999987,"velocity":0.3858267716535433,"duration":0.033749999999997726},{"name":"A#4","midi":70,"time":146.9337499999987,"velocity":0.3858267716535433,"duration":0.04750000000001364},{"name":"C5","midi":72,"time":146.9912499999987,"velocity":0.3858267716535433,"duration":0.04249999999998977},{"name":"A#4","midi":70,"time":147.0299999999987,"velocity":0.3858267716535433,"duration":0.056250000000005684},{"name":"C5","midi":72,"time":147.0812499999987,"velocity":0.3858267716535433,"duration":0.053749999999979536},{"name":"A#4","midi":70,"time":147.13249999999869,"velocity":0.3858267716535433,"duration":0.06125000000000114},{"name":"C5","midi":72,"time":147.1912499999987,"velocity":0.3858267716535433,"duration":0.05500000000000682},{"name":"A#4","midi":70,"time":147.2437499999987,"velocity":0.3858267716535433,"duration":0.05500000000000682},{"name":"C5","midi":72,"time":147.2962499999987,"velocity":0.3858267716535433,"duration":0.056250000000005684},{"name":"A#4","midi":70,"time":147.3624999999987,"velocity":0.3858267716535433,"duration":0.06624999999999659},{"name":"C5","midi":72,"time":147.4287499999987,"velocity":0.3858267716535433,"duration":0.0700000000000216},{"name":"A#4","midi":70,"time":147.4824999999987,"velocity":0.3858267716535433,"duration":0.26875000000001137},{"name":"G#4","midi":68,"time":147.74249999999873,"velocity":0.4015748031496063,"duration":0.16124999999999545},{"name":"A#4","midi":70,"time":147.89499999999873,"velocity":0.44881889763779526,"duration":0.152499999999975},{"name":"C#5","midi":73,"time":148.0424999999987,"velocity":0.5039370078740157,"duration":0.17249999999998522},{"name":"C5","midi":72,"time":148.2037499999987,"velocity":0.49606299212598426,"duration":0.14374999999998295},{"name":"A#4","midi":70,"time":148.3462499999987,"velocity":0.47244094488188976,"duration":0.16499999999999204},{"name":"G#4","midi":68,"time":148.5049999999987,"velocity":0.44881889763779526,"duration":0.15375000000000227},{"name":"A#4","midi":70,"time":148.6549999999987,"velocity":0.4251968503937008,"duration":0.14374999999998295},{"name":"G#4","midi":68,"time":148.80124999999867,"velocity":0.4015748031496063,"duration":0.12375000000000114},{"name":"G#4","midi":68,"time":149.10499999999868,"velocity":0.3464566929133858,"duration":0.1150000000000091},{"name":"G4","midi":67,"time":149.3999999999987,"velocity":0.3464566929133858,"duration":0.09999999999999432},{"name":"G#4","midi":68,"time":149.4724999999987,"velocity":0.3464566929133858,"duration":0.08124999999998295},{"name":"A#4","midi":70,"time":149.54249999999868,"velocity":0.3464566929133858,"duration":0.06374999999999886},{"name":"G#4","midi":68,"time":149.60374999999868,"velocity":0.3464566929133858,"duration":0.05750000000000455},{"name":"A#4","midi":70,"time":149.66624999999868,"velocity":0.3464566929133858,"duration":0.04624999999998636},{"name":"G#4","midi":68,"time":149.70999999999867,"velocity":0.3464566929133858,"duration":0.060000000000002274},{"name":"A#4","midi":70,"time":149.76374999999868,"velocity":0.3464566929133858,"duration":0.04749999999998522},{"name":"G#4","midi":68,"time":149.81374999999866,"velocity":0.3464566929133858,"duration":0.05750000000000455},{"name":"A#4","midi":70,"time":149.87874999999866,"velocity":0.3464566929133858,"duration":0.03499999999999659},{"name":"G#4","midi":68,"time":149.92124999999865,"velocity":0.3464566929133858,"duration":0.05000000000001137},{"name":"A#4","midi":70,"time":149.97499999999866,"velocity":0.3464566929133858,"duration":0.037499999999994316},{"name":"G#4","midi":68,"time":150.01999999999865,"velocity":0.3464566929133858,"duration":0.05500000000000682},{"name":"A#4","midi":70,"time":150.07874999999865,"velocity":0.3464566929133858,"duration":0.037499999999994316},{"name":"G#4","midi":68,"time":150.11874999999864,"velocity":0.3464566929133858,"duration":0.056250000000005684},{"name":"A#4","midi":70,"time":150.17249999999865,"velocity":0.3464566929133858,"duration":0.04749999999998522},{"name":"G#4","midi":68,"time":150.22624999999863,"velocity":0.3464566929133858,"duration":0.044999999999987494},{"name":"A#4","midi":70,"time":150.2762499999986,"velocity":0.3464566929133858,"duration":0.03874999999999318},{"name":"G#4","midi":68,"time":150.3124999999986,"velocity":0.33858267716535434,"duration":0.07124999999999204},{"name":"A#4","midi":70,"time":150.3712499999986,"velocity":0.3464566929133858,"duration":0.037499999999994316},{"name":"G#4","midi":68,"time":150.4124999999986,"velocity":0.3543307086614173,"duration":0.060000000000002274},{"name":"A#4","midi":70,"time":150.4787499999986,"velocity":0.36220472440944884,"duration":0.03874999999999318},{"name":"G#4","midi":68,"time":150.5199999999986,"velocity":0.36220472440944884,"duration":0.05875000000000341},{"name":"A#4","midi":70,"time":150.5749999999986,"velocity":0.3700787401574803,"duration":0.04749999999998522},{"name":"G#4","midi":68,"time":150.61874999999858,"velocity":0.3779527559055118,"duration":0.060000000000002274},{"name":"A#4","midi":70,"time":150.6737499999986,"velocity":0.3858267716535433,"duration":0.05375000000000796},{"name":"G#4","midi":68,"time":150.7299999999986,"velocity":0.3937007874015748,"duration":0.056250000000005684},{"name":"A#4","midi":70,"time":150.7812499999986,"velocity":0.4015748031496063,"duration":0.052500000000009095},{"name":"G#4","midi":68,"time":150.83499999999862,"velocity":0.4094488188976378,"duration":0.05875000000000341},{"name":"A#4","midi":70,"time":150.88999999999862,"velocity":0.41732283464566927,"duration":0.04999999999998295},{"name":"G#4","midi":68,"time":150.9699999999986,"velocity":0.4251968503937008,"duration":0.056250000000005684},{"name":"A#4","midi":70,"time":151.02124999999862,"velocity":0.4330708661417323,"duration":0.052500000000009095},{"name":"G#4","midi":68,"time":151.07499999999862,"velocity":0.4409448818897638,"duration":0.05875000000000341},{"name":"A#4","midi":70,"time":151.12999999999863,"velocity":0.44881889763779526,"duration":0.04999999999998295},{"name":"G#4","midi":68,"time":151.1837499999986,"velocity":0.4566929133858268,"duration":0.17499999999998295},{"name":"G4","midi":67,"time":151.3449999999986,"velocity":0.44881889763779526,"duration":0.2112499999999784},{"name":"G#4","midi":68,"time":151.56249999999858,"velocity":0.41732283464566927,"duration":0.10624999999998863},{"name":"C5","midi":72,"time":151.65874999999858,"velocity":0.4015748031496063,"duration":0.15124999999997613},{"name":"A#4","midi":70,"time":151.80499999999856,"velocity":0.36220472440944884,"duration":0.14624999999998067},{"name":"G#4","midi":68,"time":151.94749999999854,"velocity":0.3464566929133858,"duration":0.1525000000000034},{"name":"G4","midi":67,"time":152.10374999999854,"velocity":0.33858267716535434,"duration":0.0625},{"name":"A4","midi":69,"time":152.24249999999856,"velocity":0.3228346456692913,"duration":0.08625000000000682},{"name":"B4","midi":71,"time":152.33124999999856,"velocity":0.31496062992125984,"duration":0.08125000000001137},{"name":"C5","midi":72,"time":152.38999999999857,"velocity":0.3543307086614173,"duration":0.09874999999999545},{"name":"C5","midi":72,"time":152.71374999999856,"velocity":0.4094488188976378,"duration":0.11250000000001137},{"name":"B4","midi":71,"time":153.00124999999858,"velocity":0.4566929133858268,"duration":0.0724999999999909},{"name":"C5","midi":72,"time":153.08374999999856,"velocity":0.4330708661417323,"duration":0.06499999999999773},{"name":"D5","midi":74,"time":153.13499999999857,"velocity":0.4330708661417323,"duration":0.057499999999976126},{"name":"C5","midi":72,"time":153.19874999999854,"velocity":0.4330708661417323,"duration":0.056250000000005684},{"name":"D5","midi":74,"time":153.24874999999855,"velocity":0.4330708661417323,"duration":0.04749999999998522},{"name":"C5","midi":72,"time":153.29874999999853,"velocity":0.4330708661417323,"duration":0.06125000000000114},{"name":"D5","midi":74,"time":153.34874999999855,"velocity":0.4330708661417323,"duration":0.04999999999998295},{"name":"C5","midi":72,"time":153.40124999999853,"velocity":0.4330708661417323,"duration":0.06374999999999886},{"name":"D5","midi":74,"time":153.45499999999853,"velocity":0.4330708661417323,"duration":0.04624999999998636},{"name":"C5","midi":72,"time":153.5087499999985,"velocity":0.4330708661417323,"duration":0.053749999999979536},{"name":"D5","midi":74,"time":153.5524999999985,"velocity":0.4330708661417323,"duration":0.04749999999998522},{"name":"C5","midi":72,"time":153.60999999999848,"velocity":0.4330708661417323,"duration":0.060000000000002274},{"name":"D5","midi":74,"time":153.66499999999849,"velocity":0.4251968503937008,"duration":0.044999999999987494},{"name":"C5","midi":72,"time":153.71249999999847,"velocity":0.4251968503937008,"duration":0.06125000000000114},{"name":"D5","midi":74,"time":153.76249999999848,"velocity":0.4251968503937008,"duration":0.057499999999976126},{"name":"C5","midi":72,"time":153.82374999999845,"velocity":0.4251968503937008,"duration":0.044999999999987494},{"name":"D5","midi":74,"time":153.87374999999844,"velocity":0.4251968503937008,"duration":0.03999999999999204},{"name":"C5","midi":72,"time":153.91624999999843,"velocity":0.4251968503937008,"duration":0.06374999999999886},{"name":"D5","midi":74,"time":153.96499999999844,"velocity":0.4251968503937008,"duration":0.03874999999999318},{"name":"C5","midi":72,"time":154.01249999999843,"velocity":0.4251968503937008,"duration":0.056250000000005684},{"name":"D5","midi":74,"time":154.06874999999843,"velocity":0.4251968503937008,"duration":0.04249999999998977},{"name":"C5","midi":72,"time":154.11249999999842,"velocity":0.4251968503937008,"duration":0.048750000000012506},{"name":"D5","midi":74,"time":154.17249999999842,"velocity":0.4251968503937008,"duration":0.05000000000001137},{"name":"C5","midi":72,"time":154.22374999999843,"velocity":0.4251968503937008,"duration":0.04374999999998863},{"name":"D5","midi":74,"time":154.26999999999842,"velocity":0.41732283464566927,"duration":0.044999999999987494},{"name":"C5","midi":72,"time":154.33249999999842,"velocity":0.41732283464566927,"duration":0.05000000000001137},{"name":"D5","midi":74,"time":154.38499999999843,"velocity":0.41732283464566927,"duration":0.048749999999984084},{"name":"C5","midi":72,"time":154.42624999999842,"velocity":0.41732283464566927,"duration":0.060000000000002274},{"name":"D5","midi":74,"time":154.4937499999984,"velocity":0.41732283464566927,"duration":0.05500000000000682},{"name":"C5","midi":72,"time":154.5612499999984,"velocity":0.41732283464566927,"duration":0.052500000000009095},{"name":"D5","midi":74,"time":154.61124999999842,"velocity":0.41732283464566927,"duration":0.028750000000002274},{"name":"C5","midi":72,"time":154.65999999999843,"velocity":0.41732283464566927,"duration":0.03499999999999659},{"name":"C5","midi":72,"time":154.78749999999843,"velocity":0.4330708661417323,"duration":0.17874999999997954},{"name":"A#4","midi":70,"time":154.95499999999842,"velocity":0.44881889763779526,"duration":0.16374999999999318},{"name":"C5","midi":72,"time":155.10874999999842,"velocity":0.4645669291338583,"duration":0.14749999999997954},{"name":"D#5","midi":75,"time":155.2537499999984,"velocity":0.48031496062992124,"duration":0.16499999999999204},{"name":"D5","midi":74,"time":155.4074999999984,"velocity":0.49606299212598426,"duration":0.14124999999998522},{"name":"C5","midi":72,"time":155.5512499999984,"velocity":0.5118110236220472,"duration":0.14875000000000682},{"name":"A#4","midi":70,"time":155.7012499999984,"velocity":0.5196850393700787,"duration":0.14750000000000796},{"name":"A4","midi":69,"time":155.8474999999984,"velocity":0.5196850393700787,"duration":0.1525000000000034},{"name":"G4","midi":67,"time":155.9962499999984,"velocity":0.5196850393700787,"duration":0.15749999999999886},{"name":"D#5","midi":75,"time":156.1524999999984,"velocity":0.5196850393700787,"duration":0.1525000000000034},{"name":"F#4","midi":66,"time":156.30124999999842,"velocity":0.5196850393700787,"duration":0.15125000000000455},{"name":"G4","midi":67,"time":156.45374999999842,"velocity":0.5196850393700787,"duration":0.1525000000000034},{"name":"A4","midi":69,"time":156.59999999999843,"velocity":0.5039370078740157,"duration":0.1599999999999966},{"name":"G4","midi":67,"time":156.75624999999843,"velocity":0.49606299212598426,"duration":0.1425000000000125},{"name":"F4","midi":65,"time":156.89749999999844,"velocity":0.48031496062992124,"duration":0.15749999999999886},{"name":"D5","midi":74,"time":157.04749999999845,"velocity":0.47244094488188976,"duration":0.2849999999999966},{"name":"E4","midi":64,"time":157.19749999999846,"velocity":0.4566929133858268,"duration":0.152499999999975},{"name":"F4","midi":65,"time":157.34499999999844,"velocity":0.4409448818897638,"duration":0.1624999999999659},{"name":"G4","midi":67,"time":157.4999999999984,"velocity":0.4330708661417323,"duration":0.1599999999999966},{"name":"F4","midi":65,"time":157.6524999999984,"velocity":0.41732283464566927,"duration":0.152499999999975},{"name":"D#4","midi":63,"time":157.8012499999984,"velocity":0.4015748031496063,"duration":0.16124999999999545},{"name":"C5","midi":72,"time":157.9524999999984,"velocity":0.3858267716535433,"duration":0.15500000000000114},{"name":"D4","midi":62,"time":158.1037499999984,"velocity":0.36220472440944884,"duration":0.15000000000000568},{"name":"E4","midi":64,"time":158.2499999999984,"velocity":0.3464566929133858,"duration":0.15749999999999886},{"name":"F#4","midi":66,"time":158.4012499999984,"velocity":0.33858267716535434,"duration":0.15625},{"name":"E4","midi":64,"time":158.55124999999842,"velocity":0.33858267716535434,"duration":0.14374999999998295},{"name":"D4","midi":62,"time":158.6949999999984,"velocity":0.33858267716535434,"duration":0.16374999999999318},{"name":"C5","midi":72,"time":158.8524999999984,"velocity":0.33858267716535434,"duration":0.14249999999998408},{"name":"E4","midi":64,"time":158.99874999999838,"velocity":0.33858267716535434,"duration":0.1699999999999875},{"name":"F#4","midi":66,"time":159.15749999999838,"velocity":0.33858267716535434,"duration":0.15625},{"name":"G4","midi":67,"time":159.31249999999838,"velocity":0.33858267716535434,"duration":0.14749999999997954},{"name":"F#4","midi":66,"time":159.45624999999836,"velocity":0.33858267716535434,"duration":0.14750000000000796},{"name":"E4","midi":64,"time":159.60249999999837,"velocity":0.33858267716535434,"duration":0.14875000000000682},{"name":"A#4","midi":70,"time":159.74999999999838,"velocity":0.33858267716535434,"duration":0.15000000000000568},{"name":"C#4","midi":61,"time":159.8937499999984,"velocity":0.33858267716535434,"duration":0.14374999999998295},{"name":"D4","midi":62,"time":160.03874999999837,"velocity":0.33858267716535434,"duration":0.16374999999999318},{"name":"E4","midi":64,"time":160.19374999999837,"velocity":0.33858267716535434,"duration":0.16124999999999545},{"name":"D4","midi":62,"time":160.34749999999838,"velocity":0.33858267716535434,"duration":0.14125000000001364},{"name":"C#4","midi":61,"time":160.4899999999984,"velocity":0.33858267716535434,"duration":0.16749999999998977},{"name":"A#4","midi":70,"time":160.65124999999838,"velocity":0.33858267716535434,"duration":0.16249999999999432},{"name":"F#4","midi":66,"time":160.80624999999839,"velocity":0.33858267716535434,"duration":0.14249999999998408},{"name":"G4","midi":67,"time":160.94999999999837,"velocity":0.33858267716535434,"duration":0.15124999999997613},{"name":"D#4","midi":63,"time":161.09874999999835,"velocity":0.33858267716535434,"duration":0.16374999999999318},{"name":"D4","midi":62,"time":161.25374999999835,"velocity":0.33858267716535434,"duration":0.14624999999998067},{"name":"C4","midi":60,"time":161.39749999999833,"velocity":0.33858267716535434,"duration":0.16499999999999204},{"name":"A4","midi":69,"time":161.55374999999833,"velocity":0.33858267716535434,"duration":0.14624999999998067},{"name":"E4","midi":64,"time":161.7012499999983,"velocity":0.33858267716535434,"duration":0.15500000000000114},{"name":"F#4","midi":66,"time":161.84874999999832,"velocity":0.33858267716535434,"duration":0.15625},{"name":"G4","midi":67,"time":161.99874999999832,"velocity":0.3464566929133858,"duration":0.14374999999998295},{"name":"G3","midi":55,"time":162.2962499999983,"velocity":0.3543307086614173,"duration":0.1599999999999966},{"name":"G3","midi":55,"time":162.6037499999983,"velocity":0.36220472440944884,"duration":0.14125000000001364},{"name":"F#3","midi":54,"time":162.89249999999834,"velocity":0.3858267716535433,"duration":0.16499999999999204},{"name":"D4","midi":62,"time":163.19624999999832,"velocity":0.41732283464566927,"duration":0.1349999999999909},{"name":"D4","midi":62,"time":163.5024999999983,"velocity":0.44881889763779526,"duration":0.1287499999999966},{"name":"A#3","midi":58,"time":163.79749999999828,"velocity":0.47244094488188976,"duration":0.11750000000000682},{"name":"G4","midi":67,"time":164.0999999999983,"velocity":0.5039370078740157,"duration":0.13124999999999432},{"name":"G4","midi":67,"time":164.4037499999983,"velocity":0.5354330708661418,"duration":0.10124999999999318},{"name":"F#4","midi":66,"time":164.69749999999829,"velocity":0.5590551181102362,"duration":0.12125000000000341},{"name":"D5","midi":74,"time":164.9999999999983,"velocity":0.5905511811023622,"duration":0.1525000000000034},{"name":"D5","midi":74,"time":165.3049999999983,"velocity":0.6220472440944882,"duration":0.14125000000001364},{"name":"A#4","midi":70,"time":165.59749999999832,"velocity":0.6456692913385826,"duration":0.16374999999999318},{"name":"A4","midi":69,"time":165.75124999999832,"velocity":0.6614173228346457,"duration":0.152499999999975},{"name":"G4","midi":67,"time":165.8987499999983,"velocity":0.6771653543307087,"duration":0.15500000000000114},{"name":"A4","midi":69,"time":166.0462499999983,"velocity":0.6929133858267716,"duration":0.1599999999999966},{"name":"A#4","midi":70,"time":166.1987499999983,"velocity":0.7086614173228346,"duration":0.14749999999997954},{"name":"C5","midi":72,"time":166.3437499999983,"velocity":0.7244094488188977,"duration":0.15500000000000114},{"name":"D5","midi":74,"time":166.4924999999983,"velocity":0.7401574803149606,"duration":0.1599999999999966},{"name":"C5","midi":72,"time":166.6437499999983,"velocity":0.7480314960629921,"duration":0.15499999999997272},{"name":"D5","midi":74,"time":166.79249999999828,"velocity":0.7637795275590551,"duration":0.15124999999997613},{"name":"E5","midi":76,"time":166.93874999999827,"velocity":0.7795275590551181,"duration":0.22124999999999773},{"name":"F#5","midi":78,"time":167.09374999999827,"velocity":0.7952755905511811,"duration":0.14875000000000682},{"name":"D5","midi":74,"time":167.23999999999828,"velocity":0.8110236220472441,"duration":0.15749999999999886},{"name":"G5","midi":79,"time":167.39249999999828,"velocity":0.8267716535433071,"duration":0.1525000000000034},{"name":"F#5","midi":78,"time":167.54124999999829,"velocity":0.8346456692913385,"duration":0.15625},{"name":"G5","midi":79,"time":167.6924999999983,"velocity":0.8503937007874016,"duration":0.16249999999999432},{"name":"A5","midi":81,"time":167.8449999999983,"velocity":0.8661417322834646,"duration":0.16124999999999545},{"name":"A#5","midi":82,"time":167.9974999999983,"velocity":0.8818897637795275,"duration":0.15124999999997613},{"name":"G5","midi":79,"time":168.14624999999828,"velocity":0.8976377952755905,"duration":0.15749999999999886},{"name":"A5","midi":81,"time":168.29874999999828,"velocity":0.9133858267716536,"duration":0.23375000000001478},{"name":"G5","midi":79,"time":168.45374999999828,"velocity":0.8346456692913385,"duration":0.15874999999999773},{"name":"F#5","midi":78,"time":168.6024999999983,"velocity":0.7559055118110236,"duration":0.15124999999997613},{"name":"E5","midi":76,"time":168.74499999999827,"velocity":0.6771653543307087,"duration":0.1599999999999966},{"name":"D5","midi":74,"time":168.90124999999827,"velocity":0.5984251968503937,"duration":0.15000000000000568},{"name":"C5","midi":72,"time":169.04749999999828,"velocity":0.5196850393700787,"duration":0.15874999999999773},{"name":"A#4","midi":70,"time":169.19874999999828,"velocity":0.3858267716535433,"duration":0.13374999999999204},{"name":"G5","midi":79,"time":169.50124999999827,"velocity":0.3858267716535433,"duration":0.11374999999998181},{"name":"A#4","midi":70,"time":169.50249999999826,"velocity":0.3858267716535433,"duration":0.10999999999998522},{"name":"D5","midi":74,"time":169.50249999999826,"velocity":0.3858267716535433,"duration":0.1074999999999875},{"name":"D5","midi":74,"time":169.79374999999825,"velocity":0.3858267716535433,"duration":0.13749999999998863},{"name":"A#4","midi":70,"time":169.79624999999825,"velocity":0.3858267716535433,"duration":0.12624999999999886},{"name":"G5","midi":79,"time":169.79749999999825,"velocity":0.3858267716535433,"duration":0.12749999999999773},{"name":"A#4","midi":70,"time":170.09499999999824,"velocity":0.3858267716535433,"duration":0.15375000000000227},{"name":"D#5","midi":75,"time":170.09749999999823,"velocity":0.3858267716535433,"duration":0.16374999999999318},{"name":"F5","midi":77,"time":170.25249999999824,"velocity":0.3858267716535433,"duration":0.14624999999998067},{"name":"D#5","midi":75,"time":170.39624999999822,"velocity":0.3858267716535433,"duration":0.15375000000000227},{"name":"D5","midi":74,"time":170.54374999999823,"velocity":0.3858267716535433,"duration":0.15874999999999773},{"name":"C5","midi":72,"time":170.70124999999823,"velocity":0.3858267716535433,"duration":0.14750000000000796},{"name":"A#4","midi":70,"time":170.84624999999824,"velocity":0.3858267716535433,"duration":0.15749999999999886},{"name":"A4","midi":69,"time":170.99624999999824,"velocity":0.3858267716535433,"duration":0.14374999999998295},{"name":"A4","midi":69,"time":171.29374999999823,"velocity":0.3858267716535433,"duration":0.12999999999999545},{"name":"C5","midi":72,"time":171.29374999999823,"velocity":0.3858267716535433,"duration":0.12375000000000114},{"name":"F5","midi":77,"time":171.29624999999822,"velocity":0.3858267716535433,"duration":0.12125000000000341},{"name":"A4","midi":69,"time":171.59624999999824,"velocity":0.3858267716535433,"duration":0.13999999999998636},{"name":"C5","midi":72,"time":171.59749999999823,"velocity":0.3858267716535433,"duration":0.14624999999998067},{"name":"F5","midi":77,"time":171.59999999999823,"velocity":0.3858267716535433,"duration":0.1349999999999909},{"name":"D5","midi":74,"time":171.89999999999822,"velocity":0.3779527559055118,"duration":0.16374999999999318},{"name":"A4","midi":69,"time":171.9012499999982,"velocity":0.3779527559055118,"duration":0.15874999999999773},{"name":"D#5","midi":75,"time":172.05499999999822,"velocity":0.3779527559055118,"duration":0.15749999999999886},{"name":"D5","midi":74,"time":172.20499999999822,"velocity":0.3779527559055118,"duration":0.1449999999999818},{"name":"C5","midi":72,"time":172.3537499999982,"velocity":0.3779527559055118,"duration":0.14750000000000796},{"name":"A#4","midi":70,"time":172.4987499999982,"velocity":0.3779527559055118,"duration":0.1525000000000034},{"name":"A4","midi":69,"time":172.64374999999822,"velocity":0.3779527559055118,"duration":0.15375000000000227},{"name":"G4","midi":67,"time":172.79249999999823,"velocity":0.3779527559055118,"duration":0.1974999999999909},{"name":"A#4","midi":70,"time":173.09749999999823,"velocity":0.3779527559055118,"duration":0.1349999999999909},{"name":"D#5","midi":75,"time":173.09999999999823,"velocity":0.3779527559055118,"duration":0.13249999999999318},{"name":"G4","midi":67,"time":173.10124999999823,"velocity":0.3779527559055118,"duration":0.11750000000000682},{"name":"A#4","midi":70,"time":173.4037499999982,"velocity":0.3779527559055118,"duration":0.14500000000001023},{"name":"D#5","midi":75,"time":173.4037499999982,"velocity":0.3779527559055118,"duration":0.14375000000001137},{"name":"G4","midi":67,"time":173.4049999999982,"velocity":0.3779527559055118,"duration":0.11750000000000682},{"name":"C5","midi":72,"time":173.7012499999982,"velocity":0.3779527559055118,"duration":0.15749999999999886},{"name":"G4","midi":67,"time":173.7024999999982,"velocity":0.3779527559055118,"duration":0.15874999999999773},{"name":"D5","midi":74,"time":173.8512499999982,"velocity":0.3937007874015748,"duration":0.15499999999997272},{"name":"C5","midi":72,"time":174.00124999999818,"velocity":0.41732283464566927,"duration":0.16374999999999318},{"name":"A#4","midi":70,"time":174.15374999999818,"velocity":0.44881889763779526,"duration":0.15124999999997613},{"name":"A4","midi":69,"time":174.29749999999817,"velocity":0.47244094488188976,"duration":0.1487499999999784},{"name":"G4","midi":67,"time":174.44499999999815,"velocity":0.49606299212598426,"duration":0.15125000000000455},{"name":"F#4","midi":66,"time":174.58874999999816,"velocity":0.5196850393700787,"duration":0.16249999999999432},{"name":"A4","midi":69,"time":174.89249999999817,"velocity":0.5748031496062992,"duration":0.1349999999999909},{"name":"F#4","midi":66,"time":174.89374999999816,"velocity":0.5748031496062992,"duration":0.13124999999999432},{"name":"D5","midi":74,"time":174.89499999999816,"velocity":0.5748031496062992,"duration":0.11750000000000682},{"name":"A4","midi":69,"time":175.19749999999814,"velocity":0.6299212598425197,"duration":0.12125000000000341},{"name":"F#4","midi":66,"time":175.19999999999814,"velocity":0.6299212598425197,"duration":0.11625000000000796},{"name":"D5","midi":74,"time":175.20124999999814,"velocity":0.6299212598425197,"duration":0.1112500000000125},{"name":"A#4","midi":70,"time":175.49624999999813,"velocity":0.6850393700787402,"duration":0.13750000000001705},{"name":"G4","midi":67,"time":175.49749999999813,"velocity":0.6850393700787402,"duration":0.12000000000000455},{"name":"D4","midi":62,"time":175.49999999999812,"velocity":0.6850393700787402,"duration":0.11250000000001137},{"name":"A#4","midi":70,"time":175.79624999999814,"velocity":0.7401574803149606,"duration":0.13999999999998636},{"name":"G4","midi":67,"time":175.80124999999813,"velocity":0.7401574803149606,"duration":0.12125000000000341},{"name":"G4","midi":67,"time":176.09999999999812,"velocity":0.7952755905511811,"duration":0.14124999999998522},{"name":"A#4","midi":70,"time":176.10124999999812,"velocity":0.7952755905511811,"duration":0.14749999999997954},{"name":"A#4","midi":70,"time":176.4037499999981,"velocity":0.8503937007874016,"duration":0.893749999999983},{"name":"D#4","midi":63,"time":176.4049999999981,"velocity":0.8503937007874016,"duration":0.14500000000001023},{"name":"D4","midi":62,"time":176.5512499999981,"velocity":0.7637795275590551,"duration":0.15625},{"name":"D#4","midi":63,"time":176.7012499999981,"velocity":0.7637795275590551,"duration":0.15999999999996817},{"name":"F4","midi":65,"time":176.85624999999808,"velocity":0.7637795275590551,"duration":0.15000000000000568},{"name":"G4","midi":67,"time":177.0049999999981,"velocity":0.7637795275590551,"duration":0.13999999999998636},{"name":"D#4","midi":63,"time":177.14624999999808,"velocity":0.7637795275590551,"duration":0.1525000000000034},{"name":"A4","midi":69,"time":177.29374999999808,"velocity":0.8267716535433071,"duration":1.802500000000009},{"name":"C4","midi":60,"time":177.29624999999808,"velocity":0.8267716535433071,"duration":0.1525000000000034},{"name":"G4","midi":67,"time":177.4474999999981,"velocity":0.7637795275590551,"duration":0.15000000000000568},{"name":"F4","midi":65,"time":177.5962499999981,"velocity":0.7637795275590551,"duration":0.1599999999999966},{"name":"D#4","midi":63,"time":177.7512499999981,"velocity":0.7637795275590551,"duration":0.14875000000000682},{"name":"D4","midi":62,"time":177.9037499999981,"velocity":0.7637795275590551,"duration":0.1462500000000091},{"name":"C4","midi":60,"time":178.0462499999981,"velocity":0.7559055118110236,"duration":0.14750000000000796},{"name":"D4","midi":62,"time":178.19624999999812,"velocity":0.8031496062992126,"duration":0.16124999999999545},{"name":"C4","midi":60,"time":178.35124999999812,"velocity":0.7559055118110236,"duration":0.1449999999999818},{"name":"D4","midi":62,"time":178.4974999999981,"velocity":0.7559055118110236,"duration":0.1487499999999784},{"name":"D#4","midi":63,"time":178.64374999999808,"velocity":0.7559055118110236,"duration":0.14750000000000796},{"name":"F4","midi":65,"time":178.79499999999808,"velocity":0.7559055118110236,"duration":0.1425000000000125},{"name":"D4","midi":62,"time":178.9387499999981,"velocity":0.7559055118110236,"duration":0.15375000000000227},{"name":"G4","midi":67,"time":179.0887499999981,"velocity":0.8031496062992126,"duration":1.8762500000000273},{"name":"A#3","midi":58,"time":179.0899999999981,"velocity":0.8031496062992126,"duration":0.1599999999999966},{"name":"F4","midi":65,"time":179.2474999999981,"velocity":0.7559055118110236,"duration":0.15500000000000114},{"name":"D#4","midi":63,"time":179.3987499999981,"velocity":0.7480314960629921,"duration":0.1599999999999966},{"name":"D4","midi":62,"time":179.5549999999981,"velocity":0.7480314960629921,"duration":0.14750000000000796},{"name":"C4","midi":60,"time":179.7024999999981,"velocity":0.7480314960629921,"duration":0.14500000000001023},{"name":"A#3","midi":58,"time":179.84499999999812,"velocity":0.7480314960629921,"duration":0.15124999999997613},{"name":"C4","midi":60,"time":179.9949999999981,"velocity":0.8267716535433071,"duration":0.15749999999999886},{"name":"A#3","midi":58,"time":180.1474999999981,"velocity":0.7480314960629921,"duration":0.08625000000000682},{"name":"C4","midi":60,"time":180.2949999999981,"velocity":0.7480314960629921,"duration":0.15375000000000227},{"name":"D4","midi":62,"time":180.44749999999812,"velocity":0.7244094488188977,"duration":0.14750000000000796},{"name":"D#4","midi":63,"time":180.59624999999812,"velocity":0.7007874015748031,"duration":0.14875000000000682},{"name":"C4","midi":60,"time":180.74249999999813,"velocity":0.6771653543307087,"duration":0.1525000000000034},{"name":"A3","midi":57,"time":180.89124999999814,"velocity":0.6850393700787402,"duration":0.16749999999998977},{"name":"F#4","midi":66,"time":180.89749999999813,"velocity":0.6850393700787402,"duration":0.7487500000000011},{"name":"D#4","midi":63,"time":181.05249999999813,"velocity":0.6220472440944882,"duration":0.15000000000000568},{"name":"D4","midi":62,"time":181.20374999999814,"velocity":0.5984251968503937,"duration":0.15000000000000568},{"name":"C4","midi":60,"time":181.35124999999815,"velocity":0.5748031496062992,"duration":0.13749999999998863},{"name":"A#3","midi":58,"time":181.48874999999813,"velocity":0.5511811023622047,"duration":0.16249999999999432},{"name":"A3","midi":57,"time":181.64374999999814,"velocity":0.5275590551181102,"duration":0.15374999999997385},{"name":"F#4","midi":66,"time":181.78999999999812,"velocity":0.4881889763779528,"duration":0.09999999999999432},{"name":"G4","midi":67,"time":181.87999999999812,"velocity":0.4881889763779528,"duration":0.09499999999997044},{"name":"A4","midi":69,"time":181.9662499999981,"velocity":0.4881889763779528,"duration":0.06624999999999659},{"name":"G4","midi":67,"time":182.0299999999981,"velocity":0.4881889763779528,"duration":0.07250000000001933},{"name":"A4","midi":69,"time":182.0849999999981,"velocity":0.4881889763779528,"duration":0.045000000000015916},{"name":"G4","midi":67,"time":182.1399999999981,"velocity":0.4881889763779528,"duration":0.2937499999999602},{"name":"A4","midi":69,"time":182.1762499999981,"velocity":0.4881889763779528,"duration":0.03874999999999318},{"name":"A4","midi":69,"time":182.2562499999981,"velocity":0.4881889763779528,"duration":0.03249999999999886},{"name":"A4","midi":69,"time":182.3487499999981,"velocity":0.4881889763779528,"duration":0.07499999999998863},{"name":"F#4","midi":66,"time":182.4137499999981,"velocity":0.4881889763779528,"duration":0.13624999999998977},{"name":"G4","midi":67,"time":182.51874999999808,"velocity":0.4881889763779528,"duration":0.15375000000000227},{"name":"A4","midi":69,"time":182.68624999999807,"velocity":0.4881889763779528,"duration":0.13749999999998863},{"name":"F#4","midi":66,"time":182.97749999999806,"velocity":0.4881889763779528,"duration":0.1150000000000091},{"name":"A4","midi":69,"time":182.97874999999806,"velocity":0.4881889763779528,"duration":0.12250000000000227},{"name":"D5","midi":74,"time":182.97874999999806,"velocity":0.4881889763779528,"duration":0.11375000000001023},{"name":"F#4","midi":66,"time":183.28499999999806,"velocity":0.4881889763779528,"duration":0.09000000000000341},{"name":"A4","midi":69,"time":183.28624999999806,"velocity":0.4881889763779528,"duration":0.09749999999999659},{"name":"D5","midi":74,"time":183.28624999999806,"velocity":0.4881889763779528,"duration":0.10499999999998977},{"name":"D5","midi":74,"time":183.57874999999805,"velocity":0.4881889763779528,"duration":0.11874999999997726},{"name":"G4","midi":67,"time":183.57999999999805,"velocity":0.4881889763779528,"duration":0.10124999999999318},{"name":"B4","midi":71,"time":183.58124999999805,"velocity":0.4881889763779528,"duration":0.1074999999999875},{"name":"F5","midi":77,"time":183.58124999999805,"velocity":0.4881889763779528,"duration":0.12249999999997385},{"name":"D5","midi":74,"time":183.87624999999804,"velocity":0.5748031496062992,"duration":0.11875000000000568},{"name":"G4","midi":67,"time":183.87749999999804,"velocity":0.5748031496062992,"duration":0.12624999999999886},{"name":"B4","midi":71,"time":183.87749999999804,"velocity":0.5748031496062992,"duration":0.1150000000000091},{"name":"F5","midi":77,"time":183.87749999999804,"velocity":0.5748031496062992,"duration":0.12624999999999886},{"name":"G4","midi":67,"time":184.17499999999802,"velocity":0.6535433070866141,"duration":0.12250000000000227},{"name":"B4","midi":71,"time":184.17624999999802,"velocity":0.6535433070866141,"duration":0.11375000000001023},{"name":"D5","midi":74,"time":184.17749999999802,"velocity":0.6614173228346457,"duration":0.11625000000000796},{"name":"F5","midi":77,"time":184.17749999999802,"velocity":0.6614173228346457,"duration":0.11375000000001023},{"name":"D5","midi":74,"time":184.47374999999803,"velocity":0.7401574803149606,"duration":0.3074999999999761},{"name":"F5","midi":77,"time":184.47499999999803,"velocity":0.7401574803149606,"duration":0.2974999999999852},{"name":"B4","midi":71,"time":184.47624999999803,"velocity":0.7401574803149606,"duration":0.17874999999997954},{"name":"G4","midi":67,"time":184.47749999999803,"velocity":0.7401574803149606,"duration":0.2987499999999841},{"name":"C5","midi":72,"time":184.77499999999802,"velocity":0.5984251968503937,"duration":0.1037499999999909},{"name":"E5","midi":76,"time":184.77624999999802,"velocity":0.5984251968503937,"duration":0.10499999999998977},{"name":"G4","midi":67,"time":184.781249999998,"velocity":0.6062992125984252,"duration":0.14249999999998408},{"name":"E5","midi":76,"time":185.074999999998,"velocity":0.6377952755905512,"duration":0.14249999999998408},{"name":"G4","midi":67,"time":185.076249999998,"velocity":0.6377952755905512,"duration":0.12624999999999886},{"name":"C5","midi":72,"time":185.077499999998,"velocity":0.6377952755905512,"duration":0.12125000000000341},{"name":"C#5","midi":73,"time":185.37624999999798,"velocity":0.6771653543307087,"duration":0.125},{"name":"E5","midi":76,"time":185.37624999999798,"velocity":0.6771653543307087,"duration":0.12000000000000455},{"name":"A4","midi":69,"time":185.37749999999798,"velocity":0.6771653543307087,"duration":0.1150000000000091},{"name":"G5","midi":79,"time":185.37999999999798,"velocity":0.6771653543307087,"duration":0.12250000000000227},{"name":"E5","midi":76,"time":185.682499999998,"velocity":0.7165354330708661,"duration":0.13999999999998636},{"name":"A4","midi":69,"time":185.68374999999799,"velocity":0.7165354330708661,"duration":0.1287499999999966},{"name":"C#5","midi":73,"time":185.68374999999799,"velocity":0.7165354330708661,"duration":0.1349999999999909},{"name":"G5","midi":79,"time":185.68499999999798,"velocity":0.7165354330708661,"duration":0.1349999999999909},{"name":"C#5","midi":73,"time":185.98624999999797,"velocity":0.7559055118110236,"duration":0.11750000000000682},{"name":"E5","midi":76,"time":185.98749999999797,"velocity":0.7559055118110236,"duration":0.12375000000000114},{"name":"A4","midi":69,"time":185.98874999999796,"velocity":0.7559055118110236,"duration":0.1112500000000125},{"name":"G5","midi":79,"time":185.98874999999796,"velocity":0.7559055118110236,"duration":0.11250000000001137},{"name":"C#5","midi":73,"time":186.27999999999795,"velocity":0.7874015748031497,"duration":0.21999999999999886},{"name":"E5","midi":76,"time":186.27999999999795,"velocity":0.7874015748031497,"duration":0.3074999999999761},{"name":"A4","midi":69,"time":186.28124999999795,"velocity":0.7874015748031497,"duration":0.22999999999998977},{"name":"G5","midi":79,"time":186.28124999999795,"velocity":0.7874015748031497,"duration":0.2987499999999841},{"name":"A4","midi":69,"time":186.57874999999794,"velocity":0.6692913385826772,"duration":0.14124999999998522},{"name":"F#5","midi":78,"time":186.58249999999794,"velocity":0.6692913385826772,"duration":0.13999999999998636},{"name":"D5","midi":74,"time":186.58374999999793,"velocity":0.6692913385826772,"duration":0.125},{"name":"F#5","midi":78,"time":186.88124999999792,"velocity":0.6850393700787402,"duration":0.14124999999998522},{"name":"A4","midi":69,"time":186.88249999999792,"velocity":0.6850393700787402,"duration":0.12999999999999545},{"name":"D5","midi":74,"time":186.88249999999792,"velocity":0.6850393700787402,"duration":0.13249999999999318},{"name":"D5","midi":74,"time":187.1787499999979,"velocity":0.7007874015748031,"duration":0.12624999999999886},{"name":"C5","midi":72,"time":187.1799999999979,"velocity":0.7007874015748031,"duration":0.12749999999999773},{"name":"A5","midi":81,"time":187.1812499999979,"velocity":0.7007874015748031,"duration":0.13749999999998863},{"name":"D5","midi":74,"time":187.4787499999979,"velocity":0.7165354330708661,"duration":0.12749999999999773},{"name":"C5","midi":72,"time":187.48124999999789,"velocity":0.7165354330708661,"duration":0.13249999999999318},{"name":"A5","midi":81,"time":187.48249999999788,"velocity":0.7165354330708661,"duration":0.1387499999999875},{"name":"D5","midi":74,"time":187.77624999999787,"velocity":0.7322834645669292,"duration":0.15625},{"name":"C5","midi":72,"time":187.77874999999787,"velocity":0.7322834645669292,"duration":0.17125000000001478},{"name":"A5","midi":81,"time":187.77999999999787,"velocity":0.7322834645669292,"duration":0.1425000000000125},{"name":"C5","midi":72,"time":188.08124999999788,"velocity":0.7559055118110236,"duration":0.14749999999997954},{"name":"D5","midi":74,"time":188.08124999999788,"velocity":0.7559055118110236,"duration":0.45249999999995794},{"name":"A5","midi":81,"time":188.08374999999788,"velocity":0.7559055118110236,"duration":0.15749999999997044},{"name":"G5","midi":79,"time":188.37874999999784,"velocity":0.7716535433070866,"duration":0.15500000000000114},{"name":"A#4","midi":70,"time":188.38499999999783,"velocity":0.7716535433070866,"duration":0.12000000000000455},{"name":"F5","midi":77,"time":188.67749999999785,"velocity":0.7874015748031497,"duration":0.12000000000000455},{"name":"G4","midi":67,"time":188.67999999999785,"velocity":0.7874015748031497,"duration":0.18999999999999773},{"name":"D5","midi":74,"time":188.67999999999785,"velocity":0.7874015748031497,"duration":0.11625000000000796},{"name":"C5","midi":72,"time":188.98374999999785,"velocity":0.8031496062992126,"duration":0.14875000000000682},{"name":"D#5","midi":75,"time":188.98374999999785,"velocity":0.8031496062992126,"duration":0.15000000000000568},{"name":"G4","midi":67,"time":188.98499999999785,"velocity":0.8031496062992126,"duration":0.7912500000000193},{"name":"A#4","midi":70,"time":189.28374999999787,"velocity":0.8188976377952756,"duration":0.15125000000000455},{"name":"D5","midi":74,"time":189.28624999999786,"velocity":0.8188976377952756,"duration":0.2950000000000159},{"name":"C5","midi":72,"time":189.57749999999788,"velocity":0.8346456692913385,"duration":0.2012499999999875},{"name":"A4","midi":69,"time":189.57874999999788,"velocity":0.8346456692913385,"duration":0.20249999999998636},{"name":"F#4","midi":66,"time":189.87999999999786,"velocity":0.8503937007874016,"duration":0.5999999999999943},{"name":"C5","midi":72,"time":189.88374999999786,"velocity":0.8503937007874016,"duration":0.4549999999999841},{"name":"A4","midi":69,"time":189.88499999999786,"velocity":0.8503937007874016,"duration":0.5287500000000023},{"name":"D5","midi":74,"time":190.33124999999785,"velocity":0.8740157480314961,"duration":0.1599999999999966},{"name":"A#4","midi":70,"time":190.48374999999785,"velocity":0.8818897637795275,"duration":0.4774999999999352},{"name":"G4","midi":67,"time":190.48374999999785,"velocity":0.8818897637795275,"duration":0.18124999999997726},{"name":"D4","midi":62,"time":190.48749999999785,"velocity":0.8818897637795275,"duration":0.2112499999999784},{"name":"G4","midi":67,"time":190.7874999999978,"velocity":0.8976377952755905,"duration":0.31749999999999545},{"name":"D#4","midi":63,"time":190.7899999999978,"velocity":0.8976377952755905,"duration":0.3087500000000034},{"name":"A4","midi":69,"time":190.9799999999978,"velocity":0.8976377952755905,"duration":0.17250000000001364},{"name":"F#4","midi":66,"time":191.1237499999978,"velocity":0.8976377952755905,"duration":0.5087499999999352},{"name":"A#4","midi":70,"time":191.1362499999978,"velocity":0.8976377952755905,"duration":0.14375000000001137},{"name":"A4","midi":69,"time":191.26749999999782,"velocity":0.889763779527559,"duration":0.07374999999996135},{"name":"A#4","midi":70,"time":191.3287499999978,"velocity":0.889763779527559,"duration":0.05999999999997385},{"name":"A4","midi":69,"time":191.38374999999778,"velocity":0.889763779527559,"duration":0.06249999999997158},{"name":"A#4","midi":70,"time":191.43374999999776,"velocity":0.889763779527559,"duration":0.0625},{"name":"A4","midi":69,"time":191.47999999999774,"velocity":0.889763779527559,"duration":0.14125000000001364},{"name":"G4","midi":67,"time":191.61499999999776,"velocity":0.8818897637795275,"duration":0.09374999999997158},{"name":"G4","midi":67,"time":191.76999999999774,"velocity":0.8818897637795275,"duration":0.5999999999999943}],"controlChanges":{"7":[{"number":7,"time":0,"value":0.8661417322834646}],"10":[{"number":10,"time":0,"value":0.6220472440944882}],"64":[{"number":64,"time":1.8524999999999996,"value":1},{"number":64,"time":2.1349999999999993,"value":0},{"number":64,"time":2.6337499999999996,"value":1},{"number":64,"time":2.8437499999999996,"value":0},{"number":64,"time":3.545,"value":1},{"number":64,"time":3.7750000000000004,"value":0},{"number":64,"time":4.42875,"value":1},{"number":64,"time":4.63875,"value":0},{"number":64,"time":5.308750000000001,"value":1},{"number":64,"time":5.491250000000002,"value":0},{"number":64,"time":6.182500000000003,"value":1},{"number":64,"time":6.812500000000004,"value":0},{"number":64,"time":7.9950000000000045,"value":1},{"number":64,"time":8.438750000000004,"value":0},{"number":64,"time":9.900000000000006,"value":1},{"number":64,"time":10.031250000000005,"value":0},{"number":64,"time":11.713750000000008,"value":1},{"number":64,"time":11.873750000000008,"value":0},{"number":64,"time":12.623750000000008,"value":1},{"number":64,"time":12.723750000000008,"value":0},{"number":64,"time":13.448750000000006,"value":1},{"number":64,"time":13.547500000000007,"value":0},{"number":64,"time":14.397500000000006,"value":1},{"number":64,"time":14.717500000000006,"value":0},{"number":64,"time":15.250000000000009,"value":1},{"number":64,"time":15.54000000000001,"value":0},{"number":64,"time":16.162500000000012,"value":1},{"number":64,"time":16.42375000000001,"value":0},{"number":64,"time":17.01375,"value":1},{"number":64,"time":17.193749999999998,"value":0},{"number":64,"time":17.976249999999997,"value":1},{"number":64,"time":18.1725,"value":0},{"number":64,"time":19.9325,"value":1},{"number":64,"time":20.11125,"value":0},{"number":64,"time":20.592499999999994,"value":1},{"number":64,"time":20.73625,"value":0},{"number":64,"time":21.685000000000002,"value":1},{"number":64,"time":21.776250000000005,"value":0},{"number":64,"time":22.466250000000013,"value":1},{"number":64,"time":22.85875000000001,"value":0},{"number":64,"time":24.290000000000013,"value":1},{"number":64,"time":24.651250000000015,"value":0},{"number":64,"time":26.965000000000018,"value":1},{"number":64,"time":27.105000000000018,"value":0},{"number":64,"time":28.008750000000017,"value":1},{"number":64,"time":28.150000000000016,"value":0},{"number":64,"time":29.707500000000017,"value":1},{"number":64,"time":29.812500000000018,"value":0},{"number":64,"time":31.51500000000002,"value":1},{"number":64,"time":31.55375000000002,"value":0},{"number":64,"time":32.515000000000015,"value":1},{"number":64,"time":32.62625000000001,"value":0},{"number":64,"time":33.32000000000002,"value":1},{"number":64,"time":33.56875000000002,"value":0},{"number":64,"time":34.16125000000001,"value":1},{"number":64,"time":34.23250000000001,"value":0},{"number":64,"time":35.07125,"value":1},{"number":64,"time":35.332499999999996,"value":0},{"number":64,"time":36.91624999999999,"value":1},{"number":64,"time":37.286249999999995,"value":0},{"number":64,"time":37.707499999999996,"value":1},{"number":64,"time":38.0775,"value":0},{"number":64,"time":38.73374999999999,"value":1},{"number":64,"time":38.88749999999999,"value":0},{"number":64,"time":39.632499999999986,"value":1},{"number":64,"time":39.88124999999999,"value":0},{"number":64,"time":40.483749999999986,"value":1},{"number":64,"time":40.75499999999998,"value":0},{"number":64,"time":41.38374999999998,"value":1},{"number":64,"time":41.698749999999976,"value":0},{"number":64,"time":42.28624999999998,"value":1},{"number":64,"time":42.48874999999998,"value":0},{"number":64,"time":43.227499999999964,"value":1},{"number":64,"time":43.55124999999996,"value":0},{"number":64,"time":44.03124999999996,"value":1},{"number":64,"time":44.37374999999995,"value":0},{"number":64,"time":44.90374999999995,"value":1},{"number":64,"time":45.15374999999995,"value":0},{"number":64,"time":45.80499999999995,"value":1},{"number":64,"time":46.07374999999995,"value":0},{"number":64,"time":46.78749999999995,"value":1},{"number":64,"time":46.85749999999995,"value":0},{"number":64,"time":47.58749999999994,"value":1},{"number":64,"time":47.827499999999944,"value":0},{"number":64,"time":49.50999999999995,"value":1},{"number":64,"time":49.941249999999954,"value":0},{"number":64,"time":50.33249999999995,"value":1},{"number":64,"time":50.72499999999995,"value":0},{"number":64,"time":51.24374999999995,"value":1},{"number":64,"time":51.498749999999944,"value":0},{"number":64,"time":52.20624999999994,"value":1},{"number":64,"time":52.52624999999993,"value":0},{"number":64,"time":53.98249999999994,"value":1},{"number":64,"time":54.17249999999994,"value":0},{"number":64,"time":54.88374999999994,"value":1},{"number":64,"time":55.09374999999994,"value":0},{"number":64,"time":55.81749999999993,"value":1},{"number":64,"time":56.11874999999993,"value":0},{"number":64,"time":56.666249999999934,"value":1},{"number":64,"time":56.96749999999993,"value":0},{"number":64,"time":57.53999999999993,"value":1},{"number":64,"time":57.72624999999993,"value":0},{"number":64,"time":57.923749999999934,"value":1},{"number":64,"time":58.07374999999993,"value":0},{"number":64,"time":58.21999999999993,"value":1},{"number":64,"time":58.32874999999993,"value":0},{"number":64,"time":58.49124999999992,"value":1},{"number":64,"time":58.68999999999992,"value":0},{"number":64,"time":58.81499999999992,"value":1},{"number":64,"time":58.97374999999992,"value":0},{"number":64,"time":59.101249999999915,"value":1},{"number":64,"time":59.27124999999991,"value":0},{"number":64,"time":59.38499999999991,"value":1},{"number":64,"time":59.65374999999991,"value":0},{"number":64,"time":59.84374999999991,"value":1},{"number":64,"time":59.903749999999896,"value":0},{"number":64,"time":60.3224999999999,"value":1},{"number":64,"time":60.5337499999999,"value":0},{"number":64,"time":64.7737499999999,"value":1},{"number":64,"time":64.96499999999988,"value":0},{"number":64,"time":65.67374999999984,"value":1},{"number":64,"time":66.21874999999983,"value":0},{"number":64,"time":67.53749999999982,"value":1},{"number":64,"time":67.78249999999981,"value":0},{"number":64,"time":69.24374999999979,"value":1},{"number":64,"time":69.42374999999979,"value":0},{"number":64,"time":69.60374999999979,"value":1},{"number":64,"time":69.8449999999998,"value":0},{"number":64,"time":70.2537499999998,"value":1},{"number":64,"time":70.45624999999981,"value":0},{"number":64,"time":71.08749999999979,"value":1},{"number":64,"time":71.2524999999998,"value":0},{"number":64,"time":71.96749999999979,"value":1},{"number":64,"time":72.15249999999978,"value":0},{"number":64,"time":72.83124999999977,"value":1},{"number":64,"time":73.03999999999976,"value":0},{"number":64,"time":73.82124999999975,"value":1},{"number":64,"time":74.01249999999975,"value":0},{"number":64,"time":74.64249999999971,"value":1},{"number":64,"time":74.8912499999997,"value":0},{"number":64,"time":75.57374999999969,"value":1},{"number":64,"time":75.91874999999969,"value":0},{"number":64,"time":76.43874999999967,"value":1},{"number":64,"time":76.72749999999968,"value":0},{"number":64,"time":77.36749999999965,"value":1},{"number":64,"time":77.66999999999965,"value":0},{"number":64,"time":78.28124999999964,"value":1},{"number":64,"time":78.39249999999964,"value":0},{"number":64,"time":79.30749999999962,"value":1},{"number":64,"time":79.51374999999962,"value":0},{"number":64,"time":79.99249999999961,"value":1},{"number":64,"time":80.28499999999961,"value":0},{"number":64,"time":81.00499999999961,"value":1},{"number":64,"time":81.2687499999996,"value":0},{"number":64,"time":81.8687499999996,"value":1},{"number":64,"time":82.28374999999959,"value":0},{"number":64,"time":83.66249999999955,"value":1},{"number":64,"time":84.23624999999954,"value":0},{"number":64,"time":89.06749999999947,"value":1},{"number":64,"time":89.16624999999947,"value":0},{"number":64,"time":91.80749999999942,"value":1},{"number":64,"time":91.98874999999943,"value":0},{"number":64,"time":95.38874999999938,"value":1},{"number":64,"time":95.71624999999939,"value":0},{"number":64,"time":97.25999999999941,"value":1},{"number":64,"time":97.52249999999941,"value":0},{"number":64,"time":98.13374999999941,"value":1},{"number":64,"time":98.2662499999994,"value":0},{"number":64,"time":101.67874999999938,"value":1},{"number":64,"time":101.87749999999937,"value":0},{"number":64,"time":102.55374999999935,"value":1},{"number":64,"time":102.79124999999934,"value":0},{"number":64,"time":103.44374999999933,"value":1},{"number":64,"time":103.84374999999932,"value":0},{"number":64,"time":105.27749999999936,"value":1},{"number":64,"time":105.54874999999936,"value":0},{"number":64,"time":107.02124999999934,"value":1},{"number":64,"time":107.19124999999934,"value":0},{"number":64,"time":108.91624999999935,"value":1},{"number":64,"time":109.04749999999935,"value":0},{"number":64,"time":110.65874999999934,"value":1},{"number":64,"time":110.76874999999934,"value":0},{"number":64,"time":111.05249999999934,"value":1},{"number":64,"time":111.29999999999934,"value":0},{"number":64,"time":112.43249999999934,"value":1},{"number":64,"time":112.68374999999934,"value":0},{"number":64,"time":115.16999999999929,"value":1},{"number":64,"time":115.4174999999993,"value":0},{"number":64,"time":117.07249999999927,"value":1},{"number":64,"time":117.32374999999927,"value":0},{"number":64,"time":117.91624999999927,"value":1},{"number":64,"time":118.22374999999926,"value":0},{"number":64,"time":119.72749999999928,"value":1},{"number":64,"time":119.9949999999993,"value":0},{"number":64,"time":120.51999999999929,"value":1},{"number":64,"time":120.80999999999929,"value":0},{"number":64,"time":121.44124999999929,"value":1},{"number":64,"time":121.66124999999927,"value":0},{"number":64,"time":122.31249999999926,"value":1},{"number":64,"time":122.65249999999925,"value":0},{"number":64,"time":125.06999999999927,"value":1},{"number":64,"time":125.17749999999927,"value":0},{"number":64,"time":125.92874999999923,"value":1},{"number":64,"time":126.30249999999921,"value":0},{"number":64,"time":126.82374999999921,"value":1},{"number":64,"time":126.9412499999992,"value":0},{"number":64,"time":127.1337499999992,"value":1},{"number":64,"time":127.53499999999919,"value":0},{"number":64,"time":127.77374999999918,"value":1},{"number":64,"time":127.93499999999918,"value":0},{"number":64,"time":128.06249999999918,"value":1},{"number":64,"time":128.11749999999918,"value":0},{"number":64,"time":128.26749999999916,"value":1},{"number":64,"time":128.36499999999916,"value":0},{"number":64,"time":128.65624999999915,"value":1},{"number":64,"time":128.92499999999913,"value":0},{"number":64,"time":129.5012499999991,"value":1},{"number":64,"time":129.81874999999908,"value":0},{"number":64,"time":130.39999999999904,"value":1},{"number":64,"time":130.50749999999903,"value":0},{"number":64,"time":131.42124999999902,"value":1},{"number":64,"time":131.70249999999902,"value":0},{"number":64,"time":132.27374999999904,"value":1},{"number":64,"time":132.42749999999904,"value":0},{"number":64,"time":134.89999999999904,"value":1},{"number":64,"time":135.11999999999904,"value":0},{"number":64,"time":135.85124999999897,"value":1},{"number":64,"time":135.98374999999896,"value":0},{"number":64,"time":137.72499999999897,"value":1},{"number":64,"time":137.85624999999897,"value":0},{"number":64,"time":138.57374999999894,"value":1},{"number":64,"time":138.88124999999894,"value":0},{"number":64,"time":139.63249999999888,"value":1},{"number":64,"time":139.7687499999989,"value":0},{"number":64,"time":140.45749999999887,"value":1},{"number":64,"time":140.61874999999887,"value":0},{"number":64,"time":141.63374999999886,"value":1},{"number":64,"time":141.73624999999885,"value":0},{"number":64,"time":141.91624999999883,"value":1},{"number":64,"time":142.01624999999882,"value":0},{"number":64,"time":142.17374999999882,"value":1},{"number":64,"time":142.34249999999884,"value":0},{"number":64,"time":142.46624999999884,"value":1},{"number":64,"time":142.61249999999885,"value":0},{"number":64,"time":142.73499999999885,"value":1},{"number":64,"time":142.92374999999885,"value":0},{"number":64,"time":143.05374999999884,"value":1},{"number":64,"time":143.25124999999883,"value":0},{"number":64,"time":143.34874999999883,"value":1},{"number":64,"time":143.52624999999884,"value":0},{"number":64,"time":143.64749999999884,"value":1},{"number":64,"time":143.83874999999884,"value":0},{"number":64,"time":143.95749999999884,"value":1},{"number":64,"time":144.18624999999884,"value":0},{"number":64,"time":144.29874999999885,"value":1},{"number":64,"time":144.48999999999882,"value":0},{"number":64,"time":145.13124999999874,"value":1},{"number":64,"time":145.20874999999873,"value":0},{"number":64,"time":151.11124999999862,"value":1},{"number":64,"time":151.3224999999986,"value":0},{"number":64,"time":152.06499999999855,"value":1},{"number":64,"time":152.22624999999854,"value":0},{"number":64,"time":156.54249999999843,"value":1},{"number":64,"time":156.78624999999843,"value":0},{"number":64,"time":157.42624999999842,"value":1},{"number":64,"time":157.6937499999984,"value":0},{"number":64,"time":158.3062499999984,"value":1},{"number":64,"time":158.6012499999984,"value":0},{"number":64,"time":159.34874999999838,"value":1},{"number":64,"time":159.51874999999836,"value":0},{"number":64,"time":160.29124999999837,"value":1},{"number":64,"time":160.44124999999838,"value":0},{"number":64,"time":161.05249999999836,"value":1},{"number":64,"time":161.19374999999835,"value":0},{"number":64,"time":162.90374999999833,"value":1},{"number":64,"time":163.16124999999832,"value":0},{"number":64,"time":163.76874999999828,"value":1},{"number":64,"time":163.92749999999828,"value":0},{"number":64,"time":164.6512499999983,"value":1},{"number":64,"time":164.79124999999829,"value":0},{"number":64,"time":167.37624999999827,"value":1},{"number":64,"time":167.63624999999828,"value":0},{"number":64,"time":168.26874999999828,"value":1},{"number":64,"time":168.98374999999828,"value":0},{"number":64,"time":170.10249999999823,"value":1},{"number":64,"time":170.45249999999822,"value":0},{"number":64,"time":171.91749999999823,"value":1},{"number":64,"time":172.04374999999823,"value":0},{"number":64,"time":172.2249999999982,"value":1},{"number":64,"time":172.3762499999982,"value":0},{"number":64,"time":172.8387499999982,"value":1},{"number":64,"time":173.07749999999822,"value":0},{"number":64,"time":173.6887499999982,"value":1},{"number":64,"time":173.7599999999982,"value":0},{"number":64,"time":173.90124999999819,"value":1},{"number":64,"time":174.11999999999819,"value":0},{"number":64,"time":175.38999999999814,"value":1},{"number":64,"time":175.59249999999813,"value":0},{"number":64,"time":176.3149999999981,"value":1},{"number":64,"time":176.7537499999981,"value":0},{"number":64,"time":177.2874999999981,"value":1},{"number":64,"time":177.70124999999808,"value":0},{"number":64,"time":178.1399999999981,"value":1},{"number":64,"time":178.5412499999981,"value":0},{"number":64,"time":179.8924999999981,"value":1},{"number":64,"time":180.28249999999812,"value":0},{"number":64,"time":180.80749999999813,"value":1},{"number":64,"time":181.14249999999814,"value":0},{"number":64,"time":184.61499999999802,"value":1},{"number":64,"time":184.953749999998,"value":0},{"number":64,"time":186.41749999999794,"value":1},{"number":64,"time":186.90374999999793,"value":0},{"number":64,"time":188.08999999999787,"value":1},{"number":64,"time":188.30874999999784,"value":0},{"number":64,"time":189.10999999999785,"value":1},{"number":64,"time":189.33499999999788,"value":0},{"number":64,"time":189.86499999999788,"value":1},{"number":64,"time":190.05499999999785,"value":0},{"number":64,"time":190.39374999999785,"value":1},{"number":64,"time":190.52874999999784,"value":0},{"number":64,"time":190.62249999999784,"value":1},{"number":64,"time":190.74374999999782,"value":0},{"number":64,"time":190.8862499999978,"value":1},{"number":64,"time":191.0449999999978,"value":0},{"number":64,"time":191.1574999999978,"value":1},{"number":64,"time":191.3262499999978,"value":0},{"number":64,"time":191.44499999999775,"value":1},{"number":64,"time":191.67499999999774,"value":0},{"number":64,"time":191.86874999999773,"value":1},{"number":64,"time":192.52874999999773,"value":0}],"91":[{"number":91,"time":0,"value":1}],"121":[{"number":121,"time":0,"value":1},{"number":121,"time":192.59999999999772,"value":1}]},"id":1,"name":"Piano 1","instrumentNumber":6,"instrument":"harpsichord","instrumentFamily":"piano","channelNumber":0,"isPercussion":false},{"startTime":2.11,"duration":192.49999999999872,"length":1002,"notes":[{"name":"G4","midi":67,"time":2.11,"velocity":0.5354330708661418,"duration":0.0924999999999998},{"name":"G4","midi":67,"time":2.3949999999999996,"velocity":0.5354330708661418,"duration":0.09375},{"name":"F#4","midi":66,"time":2.6899999999999995,"velocity":0.5354330708661418,"duration":0.08499999999999996},{"name":"D4","midi":62,"time":2.9887499999999996,"velocity":0.5354330708661418,"duration":0.08124999999999982},{"name":"F#4","midi":66,"time":2.9887499999999996,"velocity":0.5354330708661418,"duration":0.09124999999999961},{"name":"F#4","midi":66,"time":3.2887499999999994,"velocity":0.5354330708661418,"duration":0.07249999999999979},{"name":"D4","midi":62,"time":3.2912499999999993,"velocity":0.5354330708661418,"duration":0.06000000000000005},{"name":"A#3","midi":58,"time":3.588749999999999,"velocity":0.5354330708661418,"duration":0.07500000000000018},{"name":"D4","midi":62,"time":3.588749999999999,"velocity":0.5354330708661418,"duration":0.09375},{"name":"D4","midi":62,"time":3.8912499999999994,"velocity":0.5354330708661418,"duration":0.09375},{"name":"G3","midi":55,"time":3.8924999999999996,"velocity":0.5354330708661418,"duration":0.08374999999999977},{"name":"A#3","midi":58,"time":3.8924999999999996,"velocity":0.5354330708661418,"duration":0.07374999999999998},{"name":"A#3","midi":58,"time":4.192499999999999,"velocity":0.5354330708661418,"duration":0.05999999999999961},{"name":"D4","midi":62,"time":4.193749999999999,"velocity":0.5354330708661418,"duration":0.0699999999999994},{"name":"G3","midi":55,"time":4.1949999999999985,"velocity":0.5354330708661418,"duration":0.0674999999999999},{"name":"F#3","midi":54,"time":4.489999999999998,"velocity":0.5354330708661418,"duration":0.08749999999999947},{"name":"A3","midi":57,"time":4.491249999999998,"velocity":0.5354330708661418,"duration":0.0887500000000001},{"name":"D4","midi":62,"time":4.492499999999998,"velocity":0.5354330708661418,"duration":0.09375},{"name":"F#3","midi":54,"time":4.792499999999998,"velocity":0.5748031496062992,"duration":0.08499999999999996},{"name":"D3","midi":50,"time":4.7937499999999975,"velocity":0.5748031496062992,"duration":0.08750000000000036},{"name":"A3","midi":57,"time":4.7937499999999975,"velocity":0.5748031496062992,"duration":0.09250000000000025},{"name":"F#3","midi":54,"time":5.094999999999998,"velocity":0.6299212598425197,"duration":0.06500000000000039},{"name":"A3","midi":57,"time":5.094999999999998,"velocity":0.6299212598425197,"duration":0.06500000000000039},{"name":"D3","midi":50,"time":5.097499999999998,"velocity":0.6299212598425197,"duration":0.07875000000000032},{"name":"A#2","midi":46,"time":5.392499999999998,"velocity":0.6850393700787402,"duration":0.09500000000000064},{"name":"D3","midi":50,"time":5.392499999999998,"velocity":0.6850393700787402,"duration":0.10000000000000053},{"name":"G3","midi":55,"time":5.394999999999999,"velocity":0.6850393700787402,"duration":0.10125000000000028},{"name":"A#2","midi":46,"time":5.6949999999999985,"velocity":0.7480314960629921,"duration":0.08999999999999986},{"name":"G2","midi":43,"time":5.696249999999998,"velocity":0.7480314960629921,"duration":0.09124999999999961},{"name":"D3","midi":50,"time":5.697499999999998,"velocity":0.7480314960629921,"duration":0.0887500000000001},{"name":"G3","midi":55,"time":5.697499999999998,"velocity":0.7480314960629921,"duration":0.09124999999999961},{"name":"A#2","midi":46,"time":5.994999999999997,"velocity":0.8031496062992126,"duration":0.08999999999999897},{"name":"D3","midi":50,"time":5.994999999999997,"velocity":0.8031496062992126,"duration":0.10499999999999865},{"name":"G2","midi":43,"time":5.996249999999997,"velocity":0.8031496062992126,"duration":0.08249999999999957},{"name":"D2","midi":38,"time":6.2987499999999965,"velocity":0.8582677165354331,"duration":0.4925000000000006},{"name":"F#2","midi":42,"time":6.2987499999999965,"velocity":0.8582677165354331,"duration":0.4787500000000007},{"name":"A2","midi":45,"time":6.2987499999999965,"velocity":0.8582677165354331,"duration":0.4587500000000002},{"name":"D3","midi":50,"time":6.301249999999997,"velocity":0.8582677165354331,"duration":0.4637500000000001},{"name":"A4","midi":69,"time":7.346249999999997,"velocity":0.5196850393700787,"duration":0.15750000000000064},{"name":"G4","midi":67,"time":7.496249999999997,"velocity":0.5118110236220472,"duration":0.151250000000001},{"name":"F4","midi":65,"time":7.644999999999998,"velocity":0.5118110236220472,"duration":0.1587500000000004},{"name":"D#4","midi":63,"time":7.794999999999998,"velocity":0.5118110236220472,"duration":0.15500000000000025},{"name":"D4","midi":62,"time":7.946249999999998,"velocity":0.5118110236220472,"duration":0.1487500000000006},{"name":"C4","midi":60,"time":8.093749999999998,"velocity":0.5039370078740157,"duration":0.15375000000000227},{"name":"D4","midi":62,"time":8.2425,"velocity":0.5039370078740157,"duration":0.16000000000000014},{"name":"C4","midi":60,"time":8.39625,"velocity":0.5039370078740157,"duration":0.16000000000000014},{"name":"A#3","midi":58,"time":8.54625,"velocity":0.5039370078740157,"duration":0.1637499999999985},{"name":"A3","midi":57,"time":8.6975,"velocity":0.49606299212598426,"duration":0.14749999999999908},{"name":"G3","midi":55,"time":8.8425,"velocity":0.49606299212598426,"duration":0.1537500000000005},{"name":"F3","midi":53,"time":8.9925,"velocity":0.49606299212598426,"duration":0.16000000000000014},{"name":"G4","midi":67,"time":9.147499999999999,"velocity":0.49606299212598426,"duration":0.16000000000000192},{"name":"F4","midi":65,"time":9.29625,"velocity":0.4881889763779528,"duration":0.16249999999999964},{"name":"D#4","midi":63,"time":9.450000000000001,"velocity":0.4881889763779528,"duration":0.21999999999999886},{"name":"D4","midi":62,"time":9.60375,"velocity":0.4881889763779528,"duration":0.14499999999999957},{"name":"C4","midi":60,"time":9.751249999999999,"velocity":0.4881889763779528,"duration":0.15249999999999986},{"name":"A#3","midi":58,"time":9.899999999999999,"velocity":0.4881889763779528,"duration":0.1537500000000005},{"name":"C4","midi":60,"time":10.046249999999999,"velocity":0.48031496062992124,"duration":0.21749999999999936},{"name":"A#3","midi":58,"time":10.198749999999999,"velocity":0.48031496062992124,"duration":0.16000000000000014},{"name":"A3","midi":57,"time":10.347499999999998,"velocity":0.48031496062992124,"duration":0.15875000000000128},{"name":"G3","midi":55,"time":10.501249999999999,"velocity":0.48031496062992124,"duration":0.14250000000000007},{"name":"F3","midi":53,"time":10.646249999999998,"velocity":0.47244094488188976,"duration":0.14750000000000085},{"name":"D#3","midi":51,"time":10.792499999999999,"velocity":0.47244094488188976,"duration":0.16499999999999915},{"name":"F4","midi":65,"time":10.948749999999999,"velocity":0.47244094488188976,"duration":0.21749999999999936},{"name":"D#4","midi":63,"time":11.101249999999999,"velocity":0.47244094488188976,"duration":0.16000000000000014},{"name":"D4","midi":62,"time":11.253749999999998,"velocity":0.4645669291338583,"duration":0.15250000000000163},{"name":"C4","midi":60,"time":11.405,"velocity":0.4645669291338583,"duration":0.14000000000000057},{"name":"A#3","midi":58,"time":11.5475,"velocity":0.4645669291338583,"duration":0.16375000000000028},{"name":"A3","midi":57,"time":11.70375,"velocity":0.4645669291338583,"duration":0.1537500000000005},{"name":"A#3","midi":58,"time":11.85125,"velocity":0.4566929133858268,"duration":0.16375000000000028},{"name":"A3","midi":57,"time":12.005,"velocity":0.4566929133858268,"duration":0.15000000000000036},{"name":"G3","midi":55,"time":12.155000000000001,"velocity":0.4566929133858268,"duration":0.15000000000000036},{"name":"F#3","midi":54,"time":12.301250000000001,"velocity":0.4566929133858268,"duration":0.16000000000000014},{"name":"E3","midi":52,"time":12.451250000000002,"velocity":0.4566929133858268,"duration":0.15499999999999936},{"name":"D3","midi":50,"time":12.600000000000001,"velocity":0.44881889763779526,"duration":0.15249999999999986},{"name":"D#3","midi":51,"time":12.746250000000002,"velocity":0.44881889763779526,"duration":0.16749999999999865},{"name":"D3","midi":50,"time":12.901250000000001,"velocity":0.44881889763779526,"duration":0.15625},{"name":"C3","midi":48,"time":13.05375,"velocity":0.44881889763779526,"duration":0.15500000000000114},{"name":"A#2","midi":46,"time":13.203750000000001,"velocity":0.4409448818897638,"duration":0.15750000000000064},{"name":"A2","midi":45,"time":13.351250000000002,"velocity":0.4409448818897638,"duration":0.15625},{"name":"G2","midi":43,"time":13.503750000000002,"velocity":0.4409448818897638,"duration":0.15875000000000128},{"name":"A2","midi":45,"time":13.651250000000003,"velocity":0.4409448818897638,"duration":0.15000000000000036},{"name":"G2","midi":43,"time":13.801250000000003,"velocity":0.4330708661417323,"duration":0.15000000000000036},{"name":"F2","midi":41,"time":13.955000000000004,"velocity":0.4330708661417323,"duration":0.15000000000000036},{"name":"D#2","midi":39,"time":14.120000000000005,"velocity":0.4330708661417323,"duration":0.15000000000000036},{"name":"D2","midi":38,"time":14.265000000000004,"velocity":0.4330708661417323,"duration":0.15000000000000213},{"name":"C2","midi":36,"time":14.400000000000006,"velocity":0.41732283464566927,"duration":0.30375000000000085},{"name":"C3","midi":48,"time":14.705000000000007,"velocity":0.41732283464566927,"duration":0.09999999999999964},{"name":"C3","midi":48,"time":14.995000000000006,"velocity":0.41732283464566927,"duration":0.0962499999999995},{"name":"F2","midi":41,"time":15.288750000000006,"velocity":0.41732283464566927,"duration":0.31374999999999886},{"name":"F3","midi":53,"time":15.596250000000005,"velocity":0.4094488188976378,"duration":0.0912500000000005},{"name":"F3","midi":53,"time":15.893750000000006,"velocity":0.4094488188976378,"duration":0.11125000000000007},{"name":"A#3","midi":58,"time":16.198750000000008,"velocity":0.4094488188976378,"duration":0.3100000000000023},{"name":"A#2","midi":46,"time":16.50250000000001,"velocity":0.4094488188976378,"duration":0.08624999999999972},{"name":"A#2","midi":46,"time":16.79875000000001,"velocity":0.4015748031496063,"duration":0.07750000000000057},{"name":"D#2","midi":39,"time":17.09250000000001,"velocity":0.4015748031496063,"duration":0.3099999999999987},{"name":"D#3","midi":51,"time":17.401250000000008,"velocity":0.4015748031496063,"duration":0.07375000000000043},{"name":"D#3","midi":51,"time":17.698750000000008,"velocity":0.4015748031496063,"duration":0.0762500000000017},{"name":"A3","midi":57,"time":17.99875000000001,"velocity":0.3937007874015748,"duration":0.3737499999999976},{"name":"A2","midi":45,"time":18.308750000000007,"velocity":0.3937007874015748,"duration":0.08999999999999986},{"name":"A2","midi":45,"time":18.605000000000008,"velocity":0.3937007874015748,"duration":0.07000000000000028},{"name":"D2","midi":38,"time":18.90000000000001,"velocity":0.3937007874015748,"duration":0.3187500000000014},{"name":"A#3","midi":58,"time":19.50375000000001,"velocity":0.4251968503937008,"duration":0.13625000000000043},{"name":"A3","midi":57,"time":19.64375000000001,"velocity":0.4409448818897638,"duration":0.14124999999999943},{"name":"A#3","midi":58,"time":19.79625000000001,"velocity":0.44881889763779526,"duration":0.1650000000000027},{"name":"D4","midi":62,"time":19.951250000000012,"velocity":0.4645669291338583,"duration":0.14750000000000085},{"name":"C4","midi":60,"time":20.095000000000013,"velocity":0.47244094488188976,"duration":0.15375000000000227},{"name":"A#3","midi":58,"time":20.242500000000014,"velocity":0.48031496062992124,"duration":0.16625000000000156},{"name":"A3","midi":57,"time":20.396250000000016,"velocity":0.49606299212598426,"duration":0.1599999999999966},{"name":"G3","midi":55,"time":20.551250000000014,"velocity":0.5039370078740157,"duration":0.15624999999999645},{"name":"F#3","midi":54,"time":20.69875000000001,"velocity":0.5196850393700787,"duration":0.16000000000000014},{"name":"G3","midi":55,"time":20.85125000000001,"velocity":0.5275590551181102,"duration":0.2312499999999993},{"name":"F#3","midi":54,"time":21.00375000000001,"velocity":0.5433070866141733,"duration":0.2312499999999993},{"name":"E3","midi":52,"time":21.155000000000012,"velocity":0.5511811023622047,"duration":0.16000000000000014},{"name":"D3","midi":50,"time":21.30875000000001,"velocity":0.5669291338582677,"duration":0.14000000000000057},{"name":"C3","midi":48,"time":21.44875000000001,"velocity":0.5748031496062992,"duration":0.15375000000000227},{"name":"B2","midi":47,"time":21.596250000000012,"velocity":0.5826771653543307,"duration":0.16375000000000028},{"name":"A2","midi":45,"time":21.751250000000013,"velocity":0.5984251968503937,"duration":0.1524999999999963},{"name":"G2","midi":43,"time":21.90250000000001,"velocity":0.6062992125984252,"duration":0.14999999999999858},{"name":"F2","midi":41,"time":22.04750000000001,"velocity":0.6220472440944882,"duration":0.15749999999999886},{"name":"E2","midi":40,"time":22.198750000000008,"velocity":0.6299212598425197,"duration":0.15000000000000213},{"name":"D2","midi":38,"time":22.34500000000001,"velocity":0.6377952755905512,"duration":0.16000000000000014},{"name":"C2","midi":36,"time":22.50000000000001,"velocity":0.6535433070866141,"duration":0.23249999999999815},{"name":"G3","midi":55,"time":22.800000000000008,"velocity":0.6299212598425197,"duration":0.15875000000000128},{"name":"F3","midi":53,"time":22.94750000000001,"velocity":0.6062992125984252,"duration":0.15749999999999886},{"name":"E3","midi":52,"time":23.09625000000001,"velocity":0.5826771653543307,"duration":0.151250000000001},{"name":"D3","midi":50,"time":23.245000000000008,"velocity":0.5590551181102362,"duration":0.151250000000001},{"name":"C#3","midi":49,"time":23.39250000000001,"velocity":0.5354330708661418,"duration":0.21750000000000114},{"name":"B2","midi":47,"time":23.54750000000001,"velocity":0.5039370078740157,"duration":0.15749999999999886},{"name":"A2","midi":45,"time":23.69625000000001,"velocity":0.5118110236220472,"duration":0.15500000000000114},{"name":"G2","midi":43,"time":23.84375000000001,"velocity":0.5511811023622047,"duration":0.16125000000000256},{"name":"F#2","midi":42,"time":23.998750000000012,"velocity":0.5984251968503937,"duration":0.15500000000000114},{"name":"E2","midi":40,"time":24.148750000000014,"velocity":0.6456692913385826,"duration":0.15625},{"name":"D2","midi":38,"time":24.301250000000014,"velocity":0.6850393700787402,"duration":0.30249999999999844},{"name":"C4","midi":60,"time":24.60500000000001,"velocity":0.6299212598425197,"duration":0.16000000000000014},{"name":"A#3","midi":58,"time":24.752500000000012,"velocity":0.6062992125984252,"duration":0.16125000000000256},{"name":"A3","midi":57,"time":24.903750000000013,"velocity":0.5826771653543307,"duration":0.15375000000000227},{"name":"G3","midi":55,"time":25.055000000000014,"velocity":0.5511811023622047,"duration":0.14875000000000327},{"name":"F#3","midi":54,"time":25.201250000000016,"velocity":0.5275590551181102,"duration":0.15875000000000128},{"name":"E3","midi":52,"time":25.352500000000017,"velocity":0.5511811023622047,"duration":0.15625},{"name":"D3","midi":50,"time":25.501250000000017,"velocity":0.5826771653543307,"duration":0.15874999999999773},{"name":"C3","midi":48,"time":25.655000000000015,"velocity":0.6220472440944882,"duration":0.15374999999999872},{"name":"A#2","midi":46,"time":25.803750000000015,"velocity":0.6614173228346457,"duration":0.15624999999999645},{"name":"A2","midi":45,"time":25.951250000000012,"velocity":0.6929133858267716,"duration":0.15749999999999886},{"name":"G2","midi":43,"time":26.103750000000012,"velocity":0.7322834645669292,"duration":0.15749999999999886},{"name":"F#2","midi":42,"time":26.252500000000012,"velocity":0.7244094488188977,"duration":0.15875000000000128},{"name":"G2","midi":43,"time":26.405000000000012,"velocity":0.7086614173228346,"duration":0.15625},{"name":"A2","midi":45,"time":26.552500000000013,"velocity":0.6929133858267716,"duration":0.21249999999999858},{"name":"A#2","midi":46,"time":26.70375000000001,"velocity":0.6850393700787402,"duration":0.14250000000000185},{"name":"G2","midi":43,"time":26.84750000000001,"velocity":0.6692913385826772,"duration":0.17125000000000057},{"name":"C3","midi":48,"time":27.00750000000001,"velocity":0.6535433070866141,"duration":0.16249999999999787},{"name":"A#2","midi":46,"time":27.16125000000001,"velocity":0.6377952755905512,"duration":0.15749999999999886},{"name":"C3","midi":48,"time":27.312500000000007,"velocity":0.6141732283464567,"duration":0.151250000000001},{"name":"D3","midi":50,"time":27.45875000000001,"velocity":0.5905511811023622,"duration":0.15499999999999758},{"name":"D#3","midi":51,"time":27.606250000000006,"velocity":0.5748031496062992,"duration":0.1387500000000017},{"name":"C3","midi":48,"time":27.74750000000001,"velocity":0.5354330708661418,"duration":0.15249999999999986},{"name":"D3","midi":50,"time":27.89500000000001,"velocity":0.5196850393700787,"duration":0.15499999999999758},{"name":"E3","midi":52,"time":28.042500000000008,"velocity":0.5118110236220472,"duration":0.21749999999999758},{"name":"F#3","midi":54,"time":28.192500000000006,"velocity":0.49606299212598426,"duration":0.15500000000000114},{"name":"D3","midi":50,"time":28.345000000000006,"velocity":0.48031496062992124,"duration":0.23500000000000298},{"name":"G3","midi":55,"time":28.50625000000001,"velocity":0.4645669291338583,"duration":0.161249999999999},{"name":"C3","midi":48,"time":28.807500000000008,"velocity":0.4409448818897638,"duration":0.16499999999999915},{"name":"D3","midi":50,"time":29.10750000000001,"velocity":0.4409448818897638,"duration":0.15625},{"name":"D2","midi":38,"time":29.40750000000001,"velocity":0.4094488188976378,"duration":0.12249999999999872},{"name":"G2","midi":43,"time":29.70500000000001,"velocity":0.3858267716535433,"duration":0.6000000000000014},{"name":"D4","midi":62,"time":31.63750000000001,"velocity":0.41732283464566927,"duration":0.0762500000000017},{"name":"E4","midi":64,"time":31.71875000000001,"velocity":0.41732283464566927,"duration":0.0762500000000017},{"name":"F4","midi":65,"time":31.797500000000014,"velocity":0.41732283464566927,"duration":0.16499999999999915},{"name":"D4","midi":62,"time":31.955000000000013,"velocity":0.4251968503937008,"duration":0.15625},{"name":"C#4","midi":61,"time":32.10500000000001,"velocity":0.4251968503937008,"duration":0.15625},{"name":"D4","midi":62,"time":32.25375000000001,"velocity":0.4330708661417323,"duration":0.15750000000000597},{"name":"A3","midi":57,"time":32.406250000000014,"velocity":0.4330708661417323,"duration":0.14374999999999716},{"name":"D4","midi":62,"time":32.547500000000014,"velocity":0.4409448818897638,"duration":0.16250000000000142},{"name":"F4","midi":65,"time":32.702500000000015,"velocity":0.4409448818897638,"duration":0.15375000000000227},{"name":"D4","midi":62,"time":32.85500000000002,"velocity":0.44881889763779526,"duration":0.208750000000002},{"name":"G#4","midi":68,"time":33.00250000000002,"velocity":0.44881889763779526,"duration":0.1562500000000071},{"name":"D4","midi":62,"time":33.153750000000024,"velocity":0.4566929133858268,"duration":0.15875000000000483},{"name":"A4","midi":69,"time":33.30375000000003,"velocity":0.4566929133858268,"duration":0.17249999999999943},{"name":"A4","midi":69,"time":33.603750000000026,"velocity":0.4645669291338583,"duration":0.1287499999999966},{"name":"A4","midi":69,"time":33.902500000000025,"velocity":0.47244094488188976,"duration":0.1112499999999983},{"name":"A4","midi":69,"time":34.198750000000025,"velocity":0.48031496062992124,"duration":0.302500000000002},{"name":"G4","midi":67,"time":34.49375000000003,"velocity":0.4881889763779528,"duration":0.11874999999999858},{"name":"G4","midi":67,"time":34.79875000000003,"velocity":0.49606299212598426,"duration":0.11749999999999972},{"name":"G4","midi":67,"time":35.103750000000026,"velocity":0.5039370078740157,"duration":0.302500000000002},{"name":"F4","midi":65,"time":35.39750000000003,"velocity":0.5118110236220472,"duration":0.1112499999999983},{"name":"F4","midi":65,"time":35.697500000000026,"velocity":0.5196850393700787,"duration":0.12749999999999773},{"name":"F4","midi":65,"time":36.14250000000003,"velocity":0.5275590551181102,"duration":0.15374999999999517},{"name":"D#4","midi":63,"time":36.292500000000025,"velocity":0.5354330708661418,"duration":0.15749999999999886},{"name":"D4","midi":62,"time":36.44375000000002,"velocity":0.5433070866141733,"duration":0.16125000000000256},{"name":"C4","midi":60,"time":36.597500000000025,"velocity":0.5433070866141733,"duration":0.15874999999999773},{"name":"D#4","midi":63,"time":36.747500000000024,"velocity":0.5511811023622047,"duration":0.15374999999999517},{"name":"F#3","midi":54,"time":36.89750000000002,"velocity":0.5511811023622047,"duration":0.30999999999999517},{"name":"C4","midi":60,"time":37.20375000000002,"velocity":0.5669291338582677,"duration":0.2987499999999983},{"name":"D#4","midi":63,"time":37.49625000000002,"velocity":0.5748031496062992,"duration":0.302500000000002},{"name":"F#3","midi":54,"time":37.79625000000002,"velocity":0.5826771653543307,"duration":0.3087499999999963},{"name":"A3","midi":57,"time":38.09875000000002,"velocity":0.5984251968503937,"duration":0.302500000000002},{"name":"D4","midi":62,"time":38.40125000000002,"velocity":0.6062992125984252,"duration":0.19500000000000028},{"name":"G3","midi":55,"time":38.84750000000002,"velocity":0.6220472440944882,"duration":0.07750000000000057},{"name":"A3","midi":57,"time":38.91875000000002,"velocity":0.6220472440944882,"duration":0.10374999999999801},{"name":"A#3","midi":58,"time":39.01125000000002,"velocity":0.6220472440944882,"duration":0.15874999999999773},{"name":"G3","midi":55,"time":39.16500000000001,"velocity":0.6220472440944882,"duration":0.14124999999999943},{"name":"F#3","midi":54,"time":39.30750000000001,"velocity":0.6220472440944882,"duration":0.15374999999999517},{"name":"G3","midi":55,"time":39.45750000000001,"velocity":0.6220472440944882,"duration":0.1524999999999963},{"name":"D3","midi":50,"time":39.60750000000001,"velocity":0.6220472440944882,"duration":0.1487499999999926},{"name":"G3","midi":55,"time":39.752500000000005,"velocity":0.6220472440944882,"duration":0.16249999999999432},{"name":"A#3","midi":58,"time":39.9075,"velocity":0.6220472440944882,"duration":0.14750000000000085},{"name":"G3","midi":55,"time":40.05625,"velocity":0.6220472440944882,"duration":0.15749999999999886},{"name":"C#4","midi":61,"time":40.20625,"velocity":0.6220472440944882,"duration":0.1387500000000017},{"name":"G3","midi":55,"time":40.35125,"velocity":0.6220472440944882,"duration":0.15124999999999744},{"name":"D4","midi":62,"time":40.5,"velocity":0.6220472440944882,"duration":0.5375000000000014},{"name":"G4","midi":67,"time":40.5025,"velocity":0.6220472440944882,"duration":0.30750000000000455},{"name":"F4","midi":65,"time":40.80375,"velocity":0.6220472440944882,"duration":0.29999999999999716},{"name":"E4","midi":64,"time":41.106249999999996,"velocity":0.6220472440944882,"duration":0.29999999999999716},{"name":"D3","midi":50,"time":41.40125,"velocity":0.6220472440944882,"duration":0.48749999999999005},{"name":"D4","midi":62,"time":41.403749999999995,"velocity":0.6220472440944882,"duration":0.30374999999999375},{"name":"F4","midi":65,"time":41.69749999999999,"velocity":0.6220472440944882,"duration":0.29999999999999716},{"name":"E4","midi":64,"time":41.999999999999986,"velocity":0.6220472440944882,"duration":0.2987499999999983},{"name":"D4","midi":62,"time":42.29499999999999,"velocity":0.6220472440944882,"duration":1.8012500000000031},{"name":"G3","midi":55,"time":42.593749999999986,"velocity":0.6299212598425197,"duration":0.30375000000000085},{"name":"A3","midi":57,"time":42.89624999999999,"velocity":0.6456692913385826,"duration":0.3012500000000031},{"name":"B3","midi":59,"time":43.19249999999999,"velocity":0.6614173228346457,"duration":0.302500000000002},{"name":"A3","midi":57,"time":43.491249999999994,"velocity":0.6692913385826772,"duration":0.3049999999999997},{"name":"G3","midi":55,"time":43.78999999999999,"velocity":0.6850393700787402,"duration":0.3262500000000017},{"name":"C4","midi":60,"time":44.10374999999999,"velocity":0.6929133858267716,"duration":0.6000000000000014},{"name":"D#4","midi":63,"time":44.412499999999994,"velocity":0.6929133858267716,"duration":0.301249999999996},{"name":"D4","midi":62,"time":44.70624999999999,"velocity":0.6929133858267716,"duration":0.2924999999999969},{"name":"C4","midi":60,"time":44.99624999999999,"velocity":0.6929133858267716,"duration":0.29999999999999716},{"name":"C3","midi":48,"time":44.99749999999999,"velocity":0.6929133858267716,"duration":0.6000000000000014},{"name":"D#4","midi":63,"time":45.30124999999999,"velocity":0.6377952755905512,"duration":0.3100000000000023},{"name":"D4","midi":62,"time":45.60499999999999,"velocity":0.5590551181102362,"duration":0.30375000000000085},{"name":"C4","midi":60,"time":45.90124999999999,"velocity":0.4881889763779528,"duration":1.7924999999999969},{"name":"F3","midi":53,"time":46.20374999999999,"velocity":0.4409448818897638,"duration":0.29749999999999943},{"name":"G3","midi":55,"time":46.498749999999994,"velocity":0.4409448818897638,"duration":0.29625000000000057},{"name":"A3","midi":57,"time":46.79624999999999,"velocity":0.4330708661417323,"duration":0.29374999999999574},{"name":"G3","midi":55,"time":47.08874999999999,"velocity":0.4251968503937008,"duration":0.31749999999999545},{"name":"F3","midi":53,"time":47.39749999999999,"velocity":0.4251968503937008,"duration":0.2950000000000017},{"name":"A#3","midi":58,"time":47.69374999999999,"velocity":0.4330708661417323,"duration":0.29625000000000057},{"name":"C4","midi":60,"time":47.85749999999999,"velocity":0.44881889763779526,"duration":0.14749999999999375},{"name":"D4","midi":62,"time":48.001249999999985,"velocity":0.4566929133858268,"duration":0.166249999999998},{"name":"A#3","midi":58,"time":48.15499999999998,"velocity":0.47244094488188976,"duration":0.1600000000000037},{"name":"A3","midi":57,"time":48.30749999999998,"velocity":0.4881889763779528,"duration":0.15124999999999744},{"name":"A#3","midi":58,"time":48.454999999999984,"velocity":0.5039370078740157,"duration":0.14749999999999375},{"name":"F3","midi":53,"time":48.60374999999998,"velocity":0.5118110236220472,"duration":0.15625},{"name":"A#3","midi":58,"time":48.752499999999976,"velocity":0.5275590551181102,"duration":0.14874999999999972},{"name":"D4","midi":62,"time":48.89749999999998,"velocity":0.5354330708661418,"duration":0.15749999999999176},{"name":"A#3","midi":58,"time":49.051249999999975,"velocity":0.5511811023622047,"duration":0.16249999999999432},{"name":"E4","midi":64,"time":49.20374999999997,"velocity":0.5669291338582677,"duration":0.14374999999999716},{"name":"A#3","midi":58,"time":49.34624999999997,"velocity":0.5748031496062992,"duration":0.14999999999999858},{"name":"A#4","midi":70,"time":49.506249999999966,"velocity":0.5905511811023622,"duration":0.30999999999999517},{"name":"F4","midi":65,"time":49.50999999999996,"velocity":0.5905511811023622,"duration":0.5999999999999943},{"name":"A4","midi":69,"time":49.804999999999964,"velocity":0.5905511811023622,"duration":0.30374999999999375},{"name":"G4","midi":67,"time":50.10124999999996,"velocity":0.5905511811023622,"duration":0.3062499999999986},{"name":"F4","midi":65,"time":50.39749999999996,"velocity":0.5905511811023622,"duration":0.29999999999999716},{"name":"F3","midi":53,"time":50.401249999999955,"velocity":0.5905511811023622,"duration":0.3087500000000034},{"name":"A4","midi":69,"time":50.70249999999996,"velocity":0.5905511811023622,"duration":0.29999999999999716},{"name":"G4","midi":67,"time":51.003749999999954,"velocity":0.5905511811023622,"duration":0.3049999999999997},{"name":"F4","midi":65,"time":51.299999999999955,"velocity":0.5905511811023622,"duration":1.789999999999985},{"name":"A#3","midi":58,"time":51.59124999999995,"velocity":0.5826771653543307,"duration":0.31749999999999545},{"name":"C4","midi":60,"time":51.89749999999995,"velocity":0.5511811023622047,"duration":0.3062499999999915},{"name":"D4","midi":62,"time":52.199999999999946,"velocity":0.5118110236220472,"duration":0.3024999999999949},{"name":"C4","midi":60,"time":52.49624999999994,"velocity":0.48031496062992124,"duration":0.3087500000000034},{"name":"A#3","midi":58,"time":52.79749999999994,"velocity":0.44881889763779526,"duration":0.29999999999999716},{"name":"D#4","midi":63,"time":53.09249999999994,"velocity":0.4251968503937008,"duration":0.6000000000000014},{"name":"G4","midi":67,"time":53.40249999999994,"velocity":0.41732283464566927,"duration":0.29999999999999716},{"name":"F4","midi":65,"time":53.696249999999935,"velocity":0.41732283464566927,"duration":0.3087500000000034},{"name":"D#4","midi":63,"time":53.99749999999994,"velocity":0.41732283464566927,"duration":0.37624999999999886},{"name":"D#3","midi":51,"time":53.99874999999994,"velocity":0.41732283464566927,"duration":0.6000000000000014},{"name":"G4","midi":67,"time":54.30249999999994,"velocity":0.41732283464566927,"duration":0.3087499999999963},{"name":"F4","midi":65,"time":54.601249999999936,"velocity":0.41732283464566927,"duration":0.29999999999999716},{"name":"D#4","midi":63,"time":54.89499999999993,"velocity":0.41732283464566927,"duration":1.7399999999999878},{"name":"A3","midi":57,"time":55.20249999999994,"velocity":0.41732283464566927,"duration":0.3024999999999949},{"name":"A#3","midi":58,"time":55.501249999999935,"velocity":0.41732283464566927,"duration":0.3024999999999949},{"name":"C4","midi":60,"time":55.79749999999993,"velocity":0.41732283464566927,"duration":0.3149999999999977},{"name":"A#3","midi":58,"time":56.10374999999993,"velocity":0.44881889763779526,"duration":0.29374999999999574},{"name":"A3","midi":57,"time":56.394999999999925,"velocity":0.48031496062992124,"duration":0.30374999999999375},{"name":"D4","midi":62,"time":56.69749999999992,"velocity":0.5118110236220472,"duration":0.15749999999999886},{"name":"C4","midi":60,"time":56.85124999999992,"velocity":0.5354330708661418,"duration":0.15499999999999403},{"name":"A#3","midi":58,"time":57.00249999999992,"velocity":0.5511811023622047,"duration":0.14499999999999602},{"name":"C4","midi":60,"time":57.15124999999991,"velocity":0.5748031496062992,"duration":0.15625},{"name":"A3","midi":57,"time":57.30124999999991,"velocity":0.5984251968503937,"duration":0.15124999999999744},{"name":"A#3","midi":58,"time":57.44874999999991,"velocity":0.6141732283464567,"duration":0.1524999999999963},{"name":"G3","midi":55,"time":57.59749999999991,"velocity":0.6377952755905512,"duration":0.15874999999999773},{"name":"A#3","midi":58,"time":57.75124999999991,"velocity":0.6614173228346457,"duration":0.15125000000000455},{"name":"F3","midi":53,"time":57.89749999999991,"velocity":0.6771653543307087,"duration":0.1599999999999966},{"name":"A#3","midi":58,"time":58.05374999999991,"velocity":0.7007874015748031,"duration":0.15625},{"name":"D#3","midi":51,"time":58.204999999999906,"velocity":0.7244094488188977,"duration":0.146250000000002},{"name":"A#3","midi":58,"time":58.34999999999991,"velocity":0.7401574803149606,"duration":0.15625},{"name":"D3","midi":50,"time":58.50124999999991,"velocity":0.7637795275590551,"duration":0.14375000000000426},{"name":"A#3","midi":58,"time":58.64624999999991,"velocity":0.7874015748031497,"duration":0.15749999999999886},{"name":"C3","midi":48,"time":58.79749999999991,"velocity":0.7952755905511811,"duration":0.14750000000000085},{"name":"A#3","midi":58,"time":58.94999999999991,"velocity":0.8031496062992126,"duration":0.1600000000000037},{"name":"A#2","midi":46,"time":59.10374999999991,"velocity":0.8110236220472441,"duration":0.1525000000000034},{"name":"A#3","midi":58,"time":59.251249999999914,"velocity":0.8188976377952756,"duration":0.15375000000000227},{"name":"D#3","midi":51,"time":59.40124999999992,"velocity":0.8267716535433071,"duration":0.29374999999999574},{"name":"F3","midi":53,"time":59.703749999999914,"velocity":0.8346456692913385,"duration":0.17249999999999943},{"name":"F2","midi":41,"time":60.00374999999991,"velocity":0.8346456692913385,"duration":0.1525000000000034},{"name":"A#2","midi":46,"time":60.29249999999991,"velocity":0.8346456692913385,"duration":0.3049999999999997},{"name":"A#4","midi":70,"time":61.49374999999991,"velocity":0.8267716535433071,"duration":0.1112499999999983},{"name":"A#4","midi":70,"time":61.79624999999991,"velocity":0.8267716535433071,"duration":0.1075000000000017},{"name":"A4","midi":69,"time":62.09499999999991,"velocity":0.8267716535433071,"duration":0.12250000000000227},{"name":"F4","midi":65,"time":62.39374999999991,"velocity":0.8267716535433071,"duration":0.11625000000000085},{"name":"A4","midi":69,"time":62.39374999999991,"velocity":0.8267716535433071,"duration":0.11375000000000313},{"name":"A4","midi":69,"time":62.696249999999914,"velocity":0.8188976377952756,"duration":0.0762500000000017},{"name":"F4","midi":65,"time":62.69749999999991,"velocity":0.8188976377952756,"duration":0.08875000000000455},{"name":"D4","midi":62,"time":62.998749999999916,"velocity":0.8188976377952756,"duration":0.10125000000000028},{"name":"F4","midi":65,"time":62.999999999999915,"velocity":0.8188976377952756,"duration":0.12375000000000114},{"name":"D4","midi":62,"time":63.29374999999992,"velocity":0.8188976377952756,"duration":0.12375000000000114},{"name":"A#3","midi":58,"time":63.296249999999915,"velocity":0.8188976377952756,"duration":0.1075000000000017},{"name":"F4","midi":65,"time":63.297499999999914,"velocity":0.8188976377952756,"duration":0.11250000000000426},{"name":"A#3","midi":58,"time":63.59749999999992,"velocity":0.8188976377952756,"duration":0.08499999999999375},{"name":"D4","midi":62,"time":63.59749999999992,"velocity":0.8188976377952756,"duration":0.07499999999999574},{"name":"F4","midi":65,"time":63.59874999999992,"velocity":0.8188976377952756,"duration":0.09749999999999659},{"name":"C4","midi":60,"time":63.897499999999916,"velocity":0.8188976377952756,"duration":0.09375},{"name":"F4","midi":65,"time":63.897499999999916,"velocity":0.8188976377952756,"duration":0.09749999999999659},{"name":"A3","midi":57,"time":63.89999999999991,"velocity":0.8110236220472441,"duration":0.10499999999999687},{"name":"A3","midi":57,"time":64.19249999999991,"velocity":0.8188976377952756,"duration":0.14124999999998522},{"name":"F3","midi":53,"time":64.19374999999991,"velocity":0.8188976377952756,"duration":0.13124999999999432},{"name":"C4","midi":60,"time":64.19374999999991,"velocity":0.8188976377952756,"duration":0.13749999999998863},{"name":"A3","midi":57,"time":64.4999999999999,"velocity":0.8346456692913385,"duration":0.10249999999999204},{"name":"C4","midi":60,"time":64.4999999999999,"velocity":0.8346456692913385,"duration":0.12249999999998806},{"name":"F3","midi":53,"time":64.5012499999999,"velocity":0.8346456692913385,"duration":0.10499999999998977},{"name":"A#3","midi":58,"time":64.80124999999988,"velocity":0.84251968503937,"duration":0.12125000000000341},{"name":"D3","midi":50,"time":64.80374999999988,"velocity":0.84251968503937,"duration":0.13375000000000625},{"name":"F3","midi":53,"time":64.80499999999988,"velocity":0.84251968503937,"duration":0.12750000000001194},{"name":"D3","midi":50,"time":65.10374999999989,"velocity":0.8582677165354331,"duration":0.11499999999999488},{"name":"F3","midi":53,"time":65.10374999999989,"velocity":0.8582677165354331,"duration":0.11249999999999716},{"name":"A#2","midi":46,"time":65.10499999999989,"velocity":0.8582677165354331,"duration":0.10124999999999318},{"name":"D3","midi":50,"time":65.39999999999989,"velocity":0.8661417322834646,"duration":0.10249999999999204},{"name":"A#2","midi":46,"time":65.40249999999989,"velocity":0.8661417322834646,"duration":0.09624999999999773},{"name":"F3","midi":53,"time":65.40249999999989,"velocity":0.8661417322834646,"duration":0.10624999999998863},{"name":"F2","midi":41,"time":65.69749999999988,"velocity":0.8818897637795275,"duration":0.5174999999999983},{"name":"C3","midi":48,"time":65.69874999999988,"velocity":0.8818897637795275,"duration":0.5062499999999943},{"name":"F3","midi":53,"time":65.69874999999988,"velocity":0.8818897637795275,"duration":0.5212499999999949},{"name":"A2","midi":45,"time":65.70124999999987,"velocity":0.8818897637795275,"duration":0.48375000000000057},{"name":"C5","midi":72,"time":66.74124999999987,"velocity":0.5196850393700787,"duration":0.16125000000000966},{"name":"A#4","midi":70,"time":66.89249999999987,"velocity":0.5196850393700787,"duration":0.16750000000000398},{"name":"A4","midi":69,"time":67.04874999999987,"velocity":0.5196850393700787,"duration":0.1637500000000074},{"name":"G4","midi":67,"time":67.20249999999987,"velocity":0.5196850393700787,"duration":0.15000000000000568},{"name":"F4","midi":65,"time":67.35124999999988,"velocity":0.5196850393700787,"duration":0.1487499999999926},{"name":"D#4","midi":63,"time":67.49749999999987,"velocity":0.5196850393700787,"duration":0.16125000000000966},{"name":"F4","midi":65,"time":67.64874999999988,"velocity":0.5196850393700787,"duration":0.2262500000000074},{"name":"D#4","midi":63,"time":67.80374999999988,"velocity":0.5196850393700787,"duration":0.16250000000000853},{"name":"D4","midi":62,"time":67.95499999999988,"velocity":0.5196850393700787,"duration":0.1525000000000034},{"name":"C4","midi":60,"time":68.10499999999989,"velocity":0.5196850393700787,"duration":0.14499999999999602},{"name":"A#3","midi":58,"time":68.24874999999989,"velocity":0.5196850393700787,"duration":0.1525000000000034},{"name":"A3","midi":57,"time":68.39999999999989,"velocity":0.5196850393700787,"duration":0.16125000000000966},{"name":"A#4","midi":70,"time":68.5524999999999,"velocity":0.5196850393700787,"duration":0.15875000000001194},{"name":"A4","midi":69,"time":68.7024999999999,"velocity":0.5196850393700787,"duration":0.15625},{"name":"G4","midi":67,"time":68.8524999999999,"velocity":0.5118110236220472,"duration":0.1487499999999926},{"name":"F4","midi":65,"time":69.0024999999999,"velocity":0.5118110236220472,"duration":0.14624999999999488},{"name":"D#4","midi":63,"time":69.1474999999999,"velocity":0.5118110236220472,"duration":0.15625},{"name":"D4","midi":62,"time":69.2974999999999,"velocity":0.5118110236220472,"duration":0.15874999999999773},{"name":"D#4","midi":63,"time":69.44749999999989,"velocity":0.5118110236220472,"duration":0.15874999999999773},{"name":"D4","midi":62,"time":69.60249999999989,"velocity":0.5118110236220472,"duration":0.1487499999999926},{"name":"C4","midi":60,"time":69.75249999999988,"velocity":0.5118110236220472,"duration":0.14749999999999375},{"name":"A#3","midi":58,"time":69.89624999999988,"velocity":0.5118110236220472,"duration":0.15874999999999773},{"name":"A3","midi":57,"time":70.04874999999988,"velocity":0.5118110236220472,"duration":0.14624999999999488},{"name":"G3","midi":55,"time":70.19999999999987,"velocity":0.5118110236220472,"duration":0.15874999999999773},{"name":"A4","midi":69,"time":70.35124999999988,"velocity":0.5118110236220472,"duration":0.22374999999999545},{"name":"G4","midi":67,"time":70.50124999999987,"velocity":0.5118110236220472,"duration":0.1599999999999966},{"name":"F4","midi":65,"time":70.65374999999987,"velocity":0.5118110236220472,"duration":0.16124999999999545},{"name":"D#4","midi":63,"time":70.80374999999987,"velocity":0.5118110236220472,"duration":0.15375000000000227},{"name":"D4","midi":62,"time":70.95374999999987,"velocity":0.5118110236220472,"duration":0.14499999999999602},{"name":"C4","midi":60,"time":71.10124999999987,"velocity":0.5039370078740157,"duration":0.15500000000000114},{"name":"D4","midi":62,"time":71.24999999999987,"velocity":0.5039370078740157,"duration":0.1524999999999892},{"name":"C4","midi":60,"time":71.39749999999987,"velocity":0.5118110236220472,"duration":0.15874999999999773},{"name":"A#3","midi":58,"time":71.55124999999987,"velocity":0.5196850393700787,"duration":0.15874999999998352},{"name":"A3","midi":57,"time":71.70249999999986,"velocity":0.5196850393700787,"duration":0.14624999999999488},{"name":"G3","midi":55,"time":71.84624999999986,"velocity":0.5275590551181102,"duration":0.14749999999999375},{"name":"F3","midi":53,"time":71.99499999999985,"velocity":0.5354330708661418,"duration":0.15625},{"name":"G3","midi":55,"time":72.14624999999985,"velocity":0.5354330708661418,"duration":0.14999999999999147},{"name":"F3","midi":53,"time":72.29374999999985,"velocity":0.5433070866141733,"duration":0.16124999999999545},{"name":"D#3","midi":51,"time":72.44749999999985,"velocity":0.5511811023622047,"duration":0.14749999999999375},{"name":"D3","midi":50,"time":72.59749999999984,"velocity":0.5590551181102362,"duration":0.14999999999999147},{"name":"C3","midi":48,"time":72.74374999999984,"velocity":0.5590551181102362,"duration":0.15749999999998465},{"name":"A#2","midi":46,"time":72.89499999999983,"velocity":0.5669291338582677,"duration":0.16374999999999318},{"name":"C3","midi":48,"time":73.05374999999982,"velocity":0.5748031496062992,"duration":0.15374999999998806},{"name":"A#2","midi":46,"time":73.20124999999982,"velocity":0.5748031496062992,"duration":0.16249999999999432},{"name":"A2","midi":45,"time":73.35749999999982,"velocity":0.5826771653543307,"duration":0.14749999999999375},{"name":"G2","midi":43,"time":73.50374999999981,"velocity":0.5905511811023622,"duration":0.1487499999999926},{"name":"F2","midi":41,"time":73.6499999999998,"velocity":0.5905511811023622,"duration":0.1524999999999892},{"name":"D#2","midi":39,"time":73.7999999999998,"velocity":0.6141732283464567,"duration":0.3024999999999949},{"name":"D#3","midi":51,"time":74.0962499999998,"velocity":0.6141732283464567,"duration":0.13124999999999432},{"name":"D#3","midi":51,"time":74.3974999999998,"velocity":0.6141732283464567,"duration":0.09999999999999432},{"name":"A3","midi":57,"time":74.69874999999979,"velocity":0.6141732283464567,"duration":0.3137500000000131},{"name":"A2","midi":45,"time":75.0037499999998,"velocity":0.6141732283464567,"duration":0.09125000000000227},{"name":"A2","midi":45,"time":75.3012499999998,"velocity":0.6141732283464567,"duration":0.08124999999999716},{"name":"D2","midi":38,"time":75.59124999999979,"velocity":0.6062992125984252,"duration":0.3062499999999915},{"name":"D3","midi":50,"time":75.89249999999979,"velocity":0.6062992125984252,"duration":0.1212499999999892},{"name":"D3","midi":50,"time":76.19374999999978,"velocity":0.6062992125984252,"duration":0.09250000000000114},{"name":"G3","midi":55,"time":76.48999999999978,"velocity":0.5748031496062992,"duration":0.36249999999999716},{"name":"G2","midi":43,"time":76.78874999999978,"velocity":0.5433070866141733,"duration":0.08624999999999261},{"name":"G2","midi":43,"time":77.09874999999977,"velocity":0.5118110236220472,"duration":0.07500000000000284},{"name":"C2","midi":36,"time":77.39249999999977,"velocity":0.48031496062992124,"duration":0.31125000000000114},{"name":"C3","midi":48,"time":77.69999999999978,"velocity":0.44881889763779526,"duration":0.12624999999999886},{"name":"C3","midi":48,"time":78.00374999999977,"velocity":0.41732283464566927,"duration":0.12125000000000341},{"name":"F3","midi":53,"time":78.29749999999977,"velocity":0.3937007874015748,"duration":0.667500000000004},{"name":"D4","midi":62,"time":78.88374999999978,"velocity":0.4015748031496063,"duration":0.15874999999999773},{"name":"C4","midi":60,"time":79.04374999999978,"velocity":0.4015748031496063,"duration":0.15874999999999773},{"name":"D4","midi":62,"time":79.20749999999977,"velocity":0.4015748031496063,"duration":0.15874999999999773},{"name":"F4","midi":65,"time":79.36124999999977,"velocity":0.4015748031496063,"duration":0.14499999999999602},{"name":"D#4","midi":63,"time":79.50374999999977,"velocity":0.4015748031496063,"duration":0.14374999999999716},{"name":"D4","midi":62,"time":79.64499999999977,"velocity":0.4015748031496063,"duration":0.14124999999999943},{"name":"C4","midi":60,"time":79.78874999999977,"velocity":0.4015748031496063,"duration":0.15500000000000114},{"name":"A#3","midi":58,"time":79.94124999999977,"velocity":0.4015748031496063,"duration":0.1562499999999858},{"name":"A3","midi":57,"time":80.09124999999976,"velocity":0.4015748031496063,"duration":0.15749999999998465},{"name":"A#3","midi":58,"time":80.24249999999975,"velocity":0.4251968503937008,"duration":0.1599999999999966},{"name":"A3","midi":57,"time":80.39749999999975,"velocity":0.44881889763779526,"duration":0.1562499999999858},{"name":"G3","midi":55,"time":80.54999999999974,"velocity":0.47244094488188976,"duration":0.1524999999999892},{"name":"F3","midi":53,"time":80.69624999999974,"velocity":0.49606299212598426,"duration":0.15874999999998352},{"name":"D#3","midi":51,"time":80.84749999999973,"velocity":0.5196850393700787,"duration":0.1662499999999909},{"name":"D3","midi":50,"time":81.00124999999971,"velocity":0.5433070866141733,"duration":0.15500000000000114},{"name":"C3","midi":48,"time":81.15249999999972,"velocity":0.5669291338582677,"duration":0.15749999999998465},{"name":"A#2","midi":46,"time":81.30374999999971,"velocity":0.5905511811023622,"duration":0.16124999999999545},{"name":"G#2","midi":44,"time":81.4549999999997,"velocity":0.6141732283464567,"duration":0.15874999999999773},{"name":"G2","midi":43,"time":81.6074999999997,"velocity":0.6377952755905512,"duration":0.14999999999999147},{"name":"F2","midi":41,"time":81.7524999999997,"velocity":0.6535433070866141,"duration":0.15749999999998465},{"name":"D#2","midi":39,"time":81.90499999999969,"velocity":0.6771653543307087,"duration":0.2837499999999977},{"name":"A#3","midi":58,"time":82.20124999999969,"velocity":0.6141732283464567,"duration":0.15874999999999773},{"name":"G#3","midi":56,"time":82.35374999999969,"velocity":0.5590551181102362,"duration":0.16374999999999318},{"name":"G3","midi":55,"time":82.50749999999968,"velocity":0.5039370078740157,"duration":0.1525000000000034},{"name":"F3","midi":53,"time":82.65749999999969,"velocity":0.48031496062992124,"duration":0.14749999999999375},{"name":"E3","midi":52,"time":82.80249999999968,"velocity":0.48031496062992124,"duration":0.1487499999999926},{"name":"D3","midi":50,"time":82.94624999999968,"velocity":0.5118110236220472,"duration":0.16124999999999545},{"name":"C3","midi":48,"time":83.10374999999968,"velocity":0.5354330708661418,"duration":0.15749999999998465},{"name":"A#2","midi":46,"time":83.25499999999967,"velocity":0.5669291338582677,"duration":0.1562499999999858},{"name":"A2","midi":45,"time":83.40749999999966,"velocity":0.5984251968503937,"duration":0.15625},{"name":"G2","midi":43,"time":83.55499999999965,"velocity":0.6220472440944882,"duration":0.15625},{"name":"F2","midi":41,"time":83.70749999999965,"velocity":0.6535433070866141,"duration":0.2950000000000017},{"name":"D#4","midi":63,"time":84.00874999999965,"velocity":0.6299212598425197,"duration":0.1487499999999926},{"name":"D4","midi":62,"time":84.15499999999965,"velocity":0.6062992125984252,"duration":0.15874999999999773},{"name":"C4","midi":60,"time":84.30874999999965,"velocity":0.5826771653543307,"duration":0.1487499999999926},{"name":"A#3","midi":58,"time":84.45499999999964,"velocity":0.5590551181102362,"duration":0.15375000000000227},{"name":"A3","midi":57,"time":84.59874999999964,"velocity":0.5590551181102362,"duration":0.15625},{"name":"G3","midi":55,"time":84.75374999999964,"velocity":0.5905511811023622,"duration":0.14499999999999602},{"name":"F3","midi":53,"time":84.89624999999964,"velocity":0.6220472440944882,"duration":0.22749999999999204},{"name":"D#3","midi":51,"time":85.05749999999964,"velocity":0.6535433070866141,"duration":0.15874999999999773},{"name":"D3","midi":50,"time":85.20624999999963,"velocity":0.6929133858267716,"duration":0.14375000000001137},{"name":"C3","midi":48,"time":85.35249999999964,"velocity":0.7244094488188977,"duration":0.15625},{"name":"A#2","midi":46,"time":85.49999999999963,"velocity":0.7559055118110236,"duration":0.16124999999999545},{"name":"A2","midi":45,"time":85.65374999999963,"velocity":0.7637795275590551,"duration":0.1599999999999966},{"name":"A#2","midi":46,"time":85.80374999999962,"velocity":0.7716535433070866,"duration":0.15125000000000455},{"name":"C3","midi":48,"time":85.94749999999964,"velocity":0.7716535433070866,"duration":0.15499999999998693},{"name":"D3","midi":50,"time":86.09749999999963,"velocity":0.7795275590551181,"duration":0.14749999999999375},{"name":"A#2","midi":46,"time":86.24624999999962,"velocity":0.7795275590551181,"duration":0.15500000000000114},{"name":"D#3","midi":51,"time":86.39749999999962,"velocity":0.7874015748031497,"duration":0.15374999999998806},{"name":"D3","midi":50,"time":86.54624999999962,"velocity":0.7952755905511811,"duration":0.16499999999999204},{"name":"D#3","midi":51,"time":86.6987499999996,"velocity":0.7952755905511811,"duration":0.15875000000001194},{"name":"F3","midi":53,"time":86.84874999999961,"velocity":0.8031496062992126,"duration":0.16500000000000625},{"name":"G3","midi":55,"time":87.00499999999961,"velocity":0.8110236220472441,"duration":0.15749999999999886},{"name":"D#3","midi":51,"time":87.15499999999962,"velocity":0.8110236220472441,"duration":0.15374999999998806},{"name":"F3","midi":53,"time":87.30124999999961,"velocity":0.8188976377952756,"duration":0.15874999999999773},{"name":"G3","midi":55,"time":87.4512499999996,"velocity":0.8188976377952756,"duration":0.1637500000000074},{"name":"A3","midi":57,"time":87.6062499999996,"velocity":0.8267716535433071,"duration":0.14875000000000682},{"name":"F3","midi":53,"time":87.75374999999961,"velocity":0.8346456692913385,"duration":0.15875000000001194},{"name":"A#3","midi":58,"time":87.90374999999962,"velocity":0.8346456692913385,"duration":0.1912500000000108},{"name":"D#3","midi":51,"time":88.19499999999962,"velocity":0.8031496062992126,"duration":0.1700000000000017},{"name":"F3","midi":53,"time":88.50374999999963,"velocity":0.7086614173228346,"duration":0.21750000000000114},{"name":"F2","midi":41,"time":88.80999999999963,"velocity":0.6141732283464567,"duration":0.16124999999999545},{"name":"A#2","midi":46,"time":89.10374999999962,"velocity":0.5196850393700787,"duration":0.2887499999999932},{"name":"F4","midi":65,"time":89.40374999999962,"velocity":0.5118110236220472,"duration":0.14624999999999488},{"name":"F4","midi":65,"time":89.69999999999962,"velocity":0.5039370078740157,"duration":0.11249999999999716},{"name":"D4","midi":62,"time":89.99749999999962,"velocity":0.4881889763779528,"duration":0.30374999999999375},{"name":"A#3","midi":58,"time":90.29624999999962,"velocity":0.4881889763779528,"duration":0.12250000000000227},{"name":"A#3","midi":58,"time":90.59499999999962,"velocity":0.4881889763779528,"duration":0.12999999999999545},{"name":"A3","midi":57,"time":90.89374999999961,"velocity":0.5039370078740157,"duration":0.15749999999999886},{"name":"G3","midi":55,"time":91.04499999999962,"velocity":0.5433070866141733,"duration":0.15749999999999886},{"name":"A3","midi":57,"time":91.21624999999962,"velocity":0.4015748031496063,"duration":0.15749999999999886},{"name":"F3","midi":53,"time":91.34874999999961,"velocity":0.5826771653543307,"duration":0.15749999999999886},{"name":"E3","midi":52,"time":91.49999999999962,"velocity":0.5826771653543307,"duration":0.1524999999999892},{"name":"F3","midi":53,"time":91.64999999999961,"velocity":0.5748031496062992,"duration":0.15874999999999773},{"name":"C3","midi":48,"time":91.7949999999996,"velocity":0.5590551181102362,"duration":0.15375000000000227},{"name":"F3","midi":53,"time":91.94499999999961,"velocity":0.5590551181102362,"duration":0.15499999999998693},{"name":"A3","midi":57,"time":92.0962499999996,"velocity":0.5590551181102362,"duration":0.14749999999999375},{"name":"F3","midi":53,"time":92.2424999999996,"velocity":0.5590551181102362,"duration":0.16250000000000853},{"name":"B3","midi":59,"time":92.3949999999996,"velocity":0.5354330708661418,"duration":0.14750000000000796},{"name":"F3","midi":53,"time":92.5437499999996,"velocity":0.48031496062992124,"duration":0.16500000000000625},{"name":"C4","midi":60,"time":92.69749999999961,"velocity":0.4330708661417323,"duration":0.125},{"name":"G3","midi":55,"time":92.9949999999996,"velocity":0.4251968503937008,"duration":0.09874999999999545},{"name":"G3","midi":55,"time":93.2974999999996,"velocity":0.4251968503937008,"duration":0.09999999999999432},{"name":"D#3","midi":51,"time":93.6012499999996,"velocity":0.4251968503937008,"duration":0.30750000000000455},{"name":"C3","midi":48,"time":93.8999999999996,"velocity":0.4251968503937008,"duration":0.12375000000000114},{"name":"C3","midi":48,"time":94.1974999999996,"velocity":0.47244094488188976,"duration":0.12624999999999886},{"name":"A#2","midi":46,"time":94.49499999999959,"velocity":0.5511811023622047,"duration":0.1599999999999966},{"name":"A2","midi":45,"time":94.6474999999996,"velocity":0.5354330708661418,"duration":0.1487499999999926},{"name":"A#2","midi":46,"time":94.7912499999996,"velocity":0.49606299212598426,"duration":0.23874999999999602},{"name":"G2","midi":43,"time":94.95374999999959,"velocity":0.44881889763779526,"duration":0.15750000000001307},{"name":"F#2","midi":42,"time":95.1024999999996,"velocity":0.4409448818897638,"duration":0.14875000000000682},{"name":"G2","midi":43,"time":95.2487499999996,"velocity":0.4409448818897638,"duration":0.15124999999999034},{"name":"D2","midi":38,"time":95.3962499999996,"velocity":0.4409448818897638,"duration":0.1562499999999858},{"name":"G2","midi":43,"time":95.54749999999959,"velocity":0.4409448818897638,"duration":0.15499999999998693},{"name":"A#2","midi":46,"time":95.69624999999958,"velocity":0.4409448818897638,"duration":0.16249999999999432},{"name":"G2","midi":43,"time":95.85124999999958,"velocity":0.4409448818897638,"duration":0.1487499999999926},{"name":"C#3","midi":49,"time":96.00249999999957,"velocity":0.4409448818897638,"duration":0.1525000000000034},{"name":"G2","midi":43,"time":96.15249999999958,"velocity":0.4409448818897638,"duration":0.15499999999998693},{"name":"D3","midi":50,"time":96.30124999999957,"velocity":0.4409448818897638,"duration":0.15499999999998693},{"name":"E3","midi":52,"time":96.44999999999956,"velocity":0.4409448818897638,"duration":0.16249999999999432},{"name":"F3","midi":53,"time":96.60374999999955,"velocity":0.4409448818897638,"duration":0.15500000000000114},{"name":"D3","midi":50,"time":96.75749999999955,"velocity":0.4409448818897638,"duration":0.14374999999999716},{"name":"C#3","midi":49,"time":96.89874999999955,"velocity":0.4409448818897638,"duration":0.1599999999999966},{"name":"D3","midi":50,"time":97.05124999999956,"velocity":0.4409448818897638,"duration":0.14624999999999488},{"name":"A2","midi":45,"time":97.19999999999955,"velocity":0.4409448818897638,"duration":0.15500000000000114},{"name":"D3","midi":50,"time":97.35249999999955,"velocity":0.4566929133858268,"duration":0.1562499999999858},{"name":"F3","midi":53,"time":97.50249999999954,"velocity":0.47244094488188976,"duration":0.1562499999999858},{"name":"D3","midi":50,"time":97.65374999999953,"velocity":0.49606299212598426,"duration":0.15499999999998693},{"name":"G#3","midi":56,"time":97.80124999999953,"velocity":0.5118110236220472,"duration":0.15374999999998806},{"name":"D3","midi":50,"time":97.95249999999952,"velocity":0.5275590551181102,"duration":0.1525000000000034},{"name":"A3","midi":57,"time":98.10374999999952,"velocity":0.5511811023622047,"duration":0.13500000000000512},{"name":"A4","midi":69,"time":98.40124999999952,"velocity":0.5826771653543307,"duration":0.1387500000000017},{"name":"A4","midi":69,"time":98.70374999999952,"velocity":0.6220472440944882,"duration":0.12999999999999545},{"name":"F4","midi":65,"time":99.00624999999951,"velocity":0.6614173228346457,"duration":0.1287499999999966},{"name":"D4","midi":62,"time":99.30374999999951,"velocity":0.7007874015748031,"duration":0.1325000000000074},{"name":"F4","midi":65,"time":99.30374999999951,"velocity":0.7007874015748031,"duration":0.12375000000000114},{"name":"F4","midi":65,"time":99.59624999999951,"velocity":0.7322834645669292,"duration":0.08499999999999375},{"name":"D4","midi":62,"time":99.60124999999951,"velocity":0.7322834645669292,"duration":0.13500000000000512},{"name":"C#4","midi":61,"time":99.89749999999951,"velocity":0.7716535433070866,"duration":0.15124999999999034},{"name":"B3","midi":59,"time":100.0437499999995,"velocity":0.7795275590551181,"duration":0.16374999999999318},{"name":"C#4","midi":61,"time":100.1987499999995,"velocity":0.7795275590551181,"duration":0.15374999999997385},{"name":"A3","midi":57,"time":100.2012499999995,"velocity":0.7795275590551181,"duration":0.13749999999998863},{"name":"D4","midi":62,"time":100.34624999999949,"velocity":0.7795275590551181,"duration":0.15499999999998693},{"name":"A3","midi":57,"time":100.49624999999948,"velocity":0.7716535433070866,"duration":0.1387500000000017},{"name":"B3","midi":59,"time":100.49624999999948,"velocity":0.7716535433070866,"duration":0.15500000000000114},{"name":"C#4","midi":61,"time":100.64499999999948,"velocity":0.6141732283464567,"duration":0.14374999999999716},{"name":"F3","midi":53,"time":100.79624999999947,"velocity":0.3700787401574803,"duration":0.125},{"name":"A3","midi":57,"time":100.79749999999947,"velocity":0.3700787401574803,"duration":0.12749999999999773},{"name":"D3","midi":50,"time":101.09374999999947,"velocity":0.4251968503937008,"duration":0.11624999999999375},{"name":"A3","midi":57,"time":101.09499999999947,"velocity":0.4251968503937008,"duration":0.11749999999999261},{"name":"F3","midi":53,"time":101.09624999999947,"velocity":0.4251968503937008,"duration":0.10999999999999943},{"name":"D3","midi":50,"time":101.39249999999947,"velocity":0.48031496062992124,"duration":0.10624999999998863},{"name":"F3","midi":53,"time":101.39249999999947,"velocity":0.48031496062992124,"duration":0.08499999999999375},{"name":"A3","midi":57,"time":101.39499999999947,"velocity":0.48031496062992124,"duration":0.15124999999999034},{"name":"C#3","midi":49,"time":101.69999999999946,"velocity":0.6062992125984252,"duration":0.15125000000000455},{"name":"E3","midi":52,"time":101.70124999999946,"velocity":0.6062992125984252,"duration":0.1425000000000125},{"name":"A3","midi":57,"time":101.70249999999946,"velocity":0.6062992125984252,"duration":0.11750000000000682},{"name":"A2","midi":45,"time":102.00374999999947,"velocity":0.5905511811023622,"duration":0.14374999999999716},{"name":"C#3","midi":49,"time":102.00374999999947,"velocity":0.5905511811023622,"duration":0.11624999999999375},{"name":"E3","midi":52,"time":102.00624999999947,"velocity":0.5905511811023622,"duration":0.10625000000000284},{"name":"A2","midi":45,"time":102.29749999999947,"velocity":0.6456692913385826,"duration":0.14000000000000057},{"name":"E3","midi":52,"time":102.29874999999947,"velocity":0.6456692913385826,"duration":0.10500000000000398},{"name":"C#3","midi":49,"time":102.29999999999947,"velocity":0.6456692913385826,"duration":0.10999999999999943},{"name":"F2","midi":41,"time":102.60374999999948,"velocity":0.7401574803149606,"duration":0.1462500000000091},{"name":"D3","midi":50,"time":102.60374999999948,"velocity":0.7401574803149606,"duration":0.13000000000000966},{"name":"A2","midi":45,"time":102.60499999999948,"velocity":0.7401574803149606,"duration":0.11875000000000568},{"name":"D2","midi":38,"time":102.89749999999948,"velocity":0.7480314960629921,"duration":0.15625},{"name":"A2","midi":45,"time":102.89749999999948,"velocity":0.7480314960629921,"duration":0.13750000000000284},{"name":"D3","midi":50,"time":102.89749999999948,"velocity":0.7480314960629921,"duration":0.09125000000000227},{"name":"F2","midi":41,"time":102.89874999999948,"velocity":0.7480314960629921,"duration":0.14374999999999716},{"name":"D2","midi":38,"time":103.20124999999948,"velocity":0.8031496062992126,"duration":0.11875000000000568},{"name":"F2","midi":41,"time":103.20374999999947,"velocity":0.8031496062992126,"duration":0.10000000000000853},{"name":"A2","midi":45,"time":103.20374999999947,"velocity":0.8031496062992126,"duration":0.09000000000000341},{"name":"A1","midi":33,"time":103.50499999999948,"velocity":0.8976377952755905,"duration":0.13625000000000398},{"name":"C#2","midi":37,"time":103.50499999999948,"velocity":0.8976377952755905,"duration":0.15375000000000227},{"name":"E2","midi":40,"time":103.50624999999948,"velocity":0.8976377952755905,"duration":0.14000000000000057},{"name":"A2","midi":45,"time":103.50624999999948,"velocity":0.8976377952755905,"duration":0.1599999999999966},{"name":"A4","midi":69,"time":103.81624999999948,"velocity":0.84251968503937,"duration":0.13124999999999432},{"name":"A4","midi":69,"time":104.10124999999948,"velocity":0.84251968503937,"duration":0.14124999999999943},{"name":"D5","midi":74,"time":104.41749999999948,"velocity":0.84251968503937,"duration":0.125},{"name":"E5","midi":76,"time":104.54624999999947,"velocity":0.84251968503937,"duration":0.15874999999999773},{"name":"D5","midi":74,"time":104.71374999999948,"velocity":0.8267716535433071,"duration":0.15874999999999773},{"name":"C5","midi":72,"time":104.85249999999948,"velocity":0.7795275590551181,"duration":0.1562499999999858},{"name":"A#4","midi":70,"time":105.00374999999947,"velocity":0.7322834645669292,"duration":0.1524999999999892},{"name":"A4","midi":69,"time":105.17249999999946,"velocity":0.6771653543307087,"duration":0.15874999999999773},{"name":"G4","midi":67,"time":105.30374999999945,"velocity":0.6141732283464567,"duration":0.14374999999999716},{"name":"A4","midi":69,"time":105.45249999999945,"velocity":0.6141732283464567,"duration":0.14374999999999716},{"name":"G4","midi":67,"time":105.59749999999944,"velocity":0.6141732283464567,"duration":0.15000000000000568},{"name":"F4","midi":65,"time":105.76624999999945,"velocity":0.6141732283464567,"duration":0.14749999999999375},{"name":"E4","midi":64,"time":105.89624999999944,"velocity":0.6141732283464567,"duration":0.1487499999999926},{"name":"D4","midi":62,"time":106.04249999999944,"velocity":0.6141732283464567,"duration":0.15125000000000455},{"name":"C4","midi":60,"time":106.19749999999944,"velocity":0.6141732283464567,"duration":0.14875000000000682},{"name":"D4","midi":62,"time":106.34749999999944,"velocity":0.6141732283464567,"duration":0.15125000000000455},{"name":"C4","midi":60,"time":106.49624999999945,"velocity":0.6141732283464567,"duration":0.16124999999999545},{"name":"A#3","midi":58,"time":106.65124999999945,"velocity":0.6141732283464567,"duration":0.14749999999999375},{"name":"A3","midi":57,"time":106.80124999999944,"velocity":0.6141732283464567,"duration":0.1487499999999926},{"name":"G3","midi":55,"time":106.94749999999944,"velocity":0.6141732283464567,"duration":0.15749999999999886},{"name":"F3","midi":53,"time":107.09874999999944,"velocity":0.6299212598425197,"duration":0.14999999999999147},{"name":"G3","midi":55,"time":107.25124999999943,"velocity":0.6614173228346457,"duration":0.15124999999999034},{"name":"F3","midi":53,"time":107.39874999999942,"velocity":0.6850393700787402,"duration":0.15625},{"name":"E3","midi":52,"time":107.55249999999943,"velocity":0.6850393700787402,"duration":0.15749999999999886},{"name":"D3","midi":50,"time":107.70374999999943,"velocity":0.6850393700787402,"duration":0.14124999999999943},{"name":"C3","midi":48,"time":107.84749999999943,"velocity":0.6771653543307087,"duration":0.15500000000000114},{"name":"A#2","midi":46,"time":107.99624999999943,"velocity":0.6771653543307087,"duration":0.15749999999999886},{"name":"C3","midi":48,"time":108.15124999999944,"velocity":0.6771653543307087,"duration":0.1524999999999892},{"name":"A#2","midi":46,"time":108.29999999999943,"velocity":0.6692913385826772,"duration":0.14749999999999375},{"name":"A2","midi":45,"time":108.44874999999942,"velocity":0.6692913385826772,"duration":0.15749999999999886},{"name":"G2","midi":43,"time":108.59999999999943,"velocity":0.6692913385826772,"duration":0.14749999999999375},{"name":"F2","midi":41,"time":108.74499999999942,"velocity":0.6614173228346457,"duration":0.16249999999999432},{"name":"E2","midi":40,"time":108.89999999999942,"velocity":0.6614173228346457,"duration":0.1562499999999858},{"name":"D2","midi":38,"time":109.05124999999941,"velocity":0.6614173228346457,"duration":0.14624999999999488},{"name":"E2","midi":40,"time":109.19499999999941,"velocity":0.6456692913385826,"duration":0.15374999999998806},{"name":"F2","midi":41,"time":109.3412499999994,"velocity":0.6456692913385826,"duration":0.15874999999998352},{"name":"G2","midi":43,"time":109.4937499999994,"velocity":0.6456692913385826,"duration":0.15874999999998352},{"name":"E2","midi":40,"time":109.64624999999938,"velocity":0.6456692913385826,"duration":0.15874999999998352},{"name":"A2","midi":45,"time":109.79749999999937,"velocity":0.6456692913385826,"duration":0.1524999999999892},{"name":"G2","midi":43,"time":109.94499999999937,"velocity":0.6456692913385826,"duration":0.16249999999999432},{"name":"A2","midi":45,"time":110.10124999999937,"velocity":0.6456692913385826,"duration":0.14999999999999147},{"name":"B2","midi":47,"time":110.24749999999936,"velocity":0.6456692913385826,"duration":0.1524999999999892},{"name":"C#3","midi":49,"time":110.39499999999936,"velocity":0.6456692913385826,"duration":0.1487499999999926},{"name":"A2","midi":45,"time":110.54249999999935,"velocity":0.6456692913385826,"duration":0.16374999999999318},{"name":"A#3","midi":58,"time":110.70749999999934,"velocity":0.6299212598425197,"duration":0.14124999999999943},{"name":"C#3","midi":49,"time":111.00624999999934,"velocity":0.5905511811023622,"duration":0.14499999999999602},{"name":"D3","midi":50,"time":111.30499999999934,"velocity":0.5511811023622047,"duration":0.12999999999999545},{"name":"G3","midi":55,"time":111.60374999999934,"velocity":0.5039370078740157,"duration":0.15874999999999773},{"name":"A3","midi":57,"time":111.90249999999934,"velocity":0.4645669291338583,"duration":0.15874999999999773},{"name":"A2","midi":45,"time":112.20499999999933,"velocity":0.4251968503937008,"duration":0.13625000000000398},{"name":"D2","midi":38,"time":112.49874999999933,"velocity":0.3858267716535433,"duration":0.5999999999999943},{"name":"A3","midi":57,"time":114.44249999999933,"velocity":0.36220472440944884,"duration":0.09125000000000227},{"name":"B3","midi":59,"time":114.50624999999933,"velocity":0.36220472440944884,"duration":0.13625000000000398},{"name":"C4","midi":60,"time":114.60124999999933,"velocity":0.36220472440944884,"duration":0.15375000000000227},{"name":"A3","midi":57,"time":114.75124999999933,"velocity":0.3700787401574803,"duration":0.15375000000000227},{"name":"G#3","midi":56,"time":114.90749999999933,"velocity":0.3700787401574803,"duration":0.12375000000000114},{"name":"A3","midi":57,"time":115.04249999999934,"velocity":0.3700787401574803,"duration":0.1599999999999966},{"name":"E3","midi":52,"time":115.19624999999934,"velocity":0.3779527559055118,"duration":0.15374999999998806},{"name":"A3","midi":57,"time":115.34374999999933,"velocity":0.3779527559055118,"duration":0.16875000000000284},{"name":"C4","midi":60,"time":115.50249999999933,"velocity":0.3779527559055118,"duration":0.14500000000001023},{"name":"A3","midi":57,"time":115.64874999999934,"velocity":0.3858267716535433,"duration":0.21250000000000568},{"name":"D#4","midi":63,"time":115.79749999999935,"velocity":0.3858267716535433,"duration":0.1599999999999966},{"name":"A3","midi":57,"time":115.95124999999935,"velocity":0.3858267716535433,"duration":0.14999999999999147},{"name":"E4","midi":64,"time":116.09749999999934,"velocity":0.4015748031496063,"duration":0.15124999999999034},{"name":"E4","midi":64,"time":116.39624999999933,"velocity":0.4409448818897638,"duration":0.13625000000000398},{"name":"E4","midi":64,"time":116.69999999999933,"velocity":0.48031496062992124,"duration":0.14124999999999943},{"name":"E4","midi":64,"time":117.00249999999933,"velocity":0.5275590551181102,"duration":0.301249999999996},{"name":"D4","midi":62,"time":117.29624999999933,"velocity":0.4566929133858268,"duration":0.12249999999998806},{"name":"D4","midi":62,"time":117.60249999999932,"velocity":0.4015748031496063,"duration":0.11499999999999488},{"name":"D4","midi":62,"time":117.89749999999933,"velocity":0.44881889763779526,"duration":0.3024999999999949},{"name":"C4","midi":60,"time":118.19249999999933,"velocity":0.3858267716535433,"duration":0.09999999999999432},{"name":"C4","midi":60,"time":118.49374999999932,"velocity":0.3779527559055118,"duration":0.10250000000000625},{"name":"C4","midi":60,"time":118.94249999999933,"velocity":0.3779527559055118,"duration":0.17249999999999943},{"name":"A#3","midi":58,"time":119.10249999999932,"velocity":0.3779527559055118,"duration":0.1600000000000108},{"name":"A3","midi":57,"time":119.25374999999933,"velocity":0.3779527559055118,"duration":0.15874999999999773},{"name":"G3","midi":55,"time":119.40749999999933,"velocity":0.3779527559055118,"duration":0.14749999999999375},{"name":"A#3","midi":58,"time":119.55249999999933,"velocity":0.3779527559055118,"duration":0.1524999999999892},{"name":"C#3","midi":49,"time":119.70249999999932,"velocity":0.3937007874015748,"duration":0.28000000000000114},{"name":"G3","midi":55,"time":119.99499999999932,"velocity":0.4566929133858268,"duration":0.1875},{"name":"A#3","midi":58,"time":120.30124999999933,"velocity":0.5275590551181102,"duration":0.15500000000000114},{"name":"C#3","midi":49,"time":120.59499999999933,"velocity":0.5905511811023622,"duration":0.21125000000000682},{"name":"E3","midi":52,"time":120.90374999999933,"velocity":0.5669291338582677,"duration":0.17874999999999375},{"name":"A3","midi":57,"time":121.20249999999933,"velocity":0.5275590551181102,"duration":0.17874999999999375},{"name":"D3","midi":50,"time":121.49749999999932,"velocity":0.4881889763779528,"duration":0.21750000000000114},{"name":"F3","midi":53,"time":121.80124999999933,"velocity":0.5275590551181102,"duration":0.17125000000000057},{"name":"G#3","midi":56,"time":122.10249999999932,"velocity":0.5905511811023622,"duration":0.17874999999999375},{"name":"B3","midi":59,"time":122.40124999999932,"velocity":0.6456692913385826,"duration":0.21375000000000455},{"name":"D4","midi":62,"time":122.70249999999933,"velocity":0.6220472440944882,"duration":0.16875000000000284},{"name":"G3","midi":55,"time":123.00124999999933,"velocity":0.5905511811023622,"duration":0.13750000000000284},{"name":"C3","midi":48,"time":123.45499999999933,"velocity":0.5433070866141733,"duration":0.08875000000000455},{"name":"D3","midi":50,"time":123.54499999999933,"velocity":0.5433070866141733,"duration":0.08249999999999602},{"name":"D#3","midi":51,"time":123.61499999999933,"velocity":0.5433070866141733,"duration":0.14499999999999602},{"name":"C3","midi":48,"time":123.75749999999933,"velocity":0.5433070866141733,"duration":0.14499999999999602},{"name":"B2","midi":47,"time":123.90374999999932,"velocity":0.5433070866141733,"duration":0.14374999999999716},{"name":"C3","midi":48,"time":124.04749999999932,"velocity":0.5433070866141733,"duration":0.15000000000000568},{"name":"G2","midi":43,"time":124.20124999999932,"velocity":0.5433070866141733,"duration":0.14749999999999375},{"name":"C3","midi":48,"time":124.34374999999932,"velocity":0.5433070866141733,"duration":0.22124999999999773},{"name":"D#3","midi":51,"time":124.50124999999932,"velocity":0.5433070866141733,"duration":0.15375000000000227},{"name":"C3","midi":48,"time":124.65374999999932,"velocity":0.5196850393700787,"duration":0.1525000000000034},{"name":"F#3","midi":54,"time":124.79749999999932,"velocity":0.5039370078740157,"duration":0.14375000000001137},{"name":"C3","midi":48,"time":124.94624999999932,"velocity":0.48031496062992124,"duration":0.14999999999999147},{"name":"G3","midi":55,"time":125.09374999999932,"velocity":0.4645669291338583,"duration":0.29999999999999716},{"name":"A#3","midi":58,"time":125.39624999999931,"velocity":0.4566929133858268,"duration":0.29999999999999716},{"name":"A3","midi":57,"time":125.7037499999993,"velocity":0.44881889763779526,"duration":0.29999999999999716},{"name":"G3","midi":55,"time":125.99374999999931,"velocity":0.4409448818897638,"duration":0.29999999999999716},{"name":"G2","midi":43,"time":125.9974999999993,"velocity":0.4409448818897638,"duration":0.5999999999999943},{"name":"A#3","midi":58,"time":126.2962499999993,"velocity":0.4330708661417323,"duration":0.29999999999999716},{"name":"A3","midi":57,"time":126.6012499999993,"velocity":0.4251968503937008,"duration":0.29999999999999716},{"name":"G3","midi":55,"time":126.8949999999993,"velocity":0.4251968503937008,"duration":1.8049999999999784},{"name":"C3","midi":48,"time":127.1937499999993,"velocity":0.47244094488188976,"duration":0.31374999999999886},{"name":"D3","midi":50,"time":127.4999999999993,"velocity":0.5354330708661418,"duration":0.3049999999999926},{"name":"E3","midi":52,"time":127.7999999999993,"velocity":0.5984251968503937,"duration":0.2987499999999841},{"name":"D3","midi":50,"time":128.0962499999993,"velocity":0.5433070866141733,"duration":0.3087500000000034},{"name":"C3","midi":48,"time":128.3974999999993,"velocity":0.47244094488188976,"duration":0.3049999999999784},{"name":"F3","midi":53,"time":128.69874999999928,"velocity":0.3779527559055118,"duration":0.6000000000000227},{"name":"G#3","midi":56,"time":129.0012499999993,"velocity":0.3779527559055118,"duration":0.37624999999999886},{"name":"G3","midi":55,"time":129.3024999999993,"velocity":0.3779527559055118,"duration":0.3024999999999807},{"name":"F3","midi":53,"time":129.59874999999928,"velocity":0.3779527559055118,"duration":0.29999999999998295},{"name":"F2","midi":41,"time":129.60124999999928,"velocity":0.3779527559055118,"duration":0.5999999999999943},{"name":"G#3","midi":56,"time":129.89374999999927,"velocity":0.3779527559055118,"duration":0.375},{"name":"G3","midi":55,"time":130.20749999999927,"velocity":0.3779527559055118,"duration":0.30375000000000796},{"name":"F3","midi":53,"time":130.5037499999993,"velocity":0.3779527559055118,"duration":1.671249999999958},{"name":"A#2","midi":46,"time":130.79624999999928,"velocity":0.41732283464566927,"duration":0.30750000000000455},{"name":"C3","midi":48,"time":131.0962499999993,"velocity":0.4645669291338583,"duration":0.30374999999997954},{"name":"D3","midi":50,"time":131.39499999999927,"velocity":0.5039370078740157,"duration":0.29624999999998636},{"name":"C3","midi":48,"time":131.68874999999926,"velocity":0.5433070866141733,"duration":0.3187499999999943},{"name":"A#2","midi":46,"time":131.99749999999926,"velocity":0.5826771653543307,"duration":0.30624999999997726},{"name":"D#3","midi":51,"time":132.30374999999924,"velocity":0.6299212598425197,"duration":0.1525000000000034},{"name":"F3","midi":53,"time":132.45124999999925,"velocity":0.6141732283464567,"duration":0.16374999999999318},{"name":"G3","midi":55,"time":132.60374999999925,"velocity":0.6141732283464567,"duration":0.16124999999999545},{"name":"D#3","midi":51,"time":132.75749999999925,"velocity":0.6141732283464567,"duration":0.152499999999975},{"name":"D3","midi":50,"time":132.90374999999923,"velocity":0.6141732283464567,"duration":0.15625},{"name":"D#3","midi":51,"time":133.05249999999924,"velocity":0.6141732283464567,"duration":0.13999999999998636},{"name":"A#2","midi":46,"time":133.19374999999923,"velocity":0.6141732283464567,"duration":0.16249999999999432},{"name":"D#3","midi":51,"time":133.34499999999923,"velocity":0.6141732283464567,"duration":0.15499999999997272},{"name":"G3","midi":55,"time":133.4962499999992,"velocity":0.6141732283464567,"duration":0.15874999999999773},{"name":"D#3","midi":51,"time":133.6487499999992,"velocity":0.6141732283464567,"duration":0.15749999999999886},{"name":"A3","midi":57,"time":133.80124999999921,"velocity":0.6141732283464567,"duration":0.13624999999998977},{"name":"D#3","midi":51,"time":133.9424999999992,"velocity":0.6141732283464567,"duration":0.16249999999999432},{"name":"A#3","midi":58,"time":134.0987499999992,"velocity":0.6141732283464567,"duration":0.1875},{"name":"D4","midi":62,"time":134.3999999999992,"velocity":0.6141732283464567,"duration":0.30750000000000455},{"name":"C4","midi":60,"time":134.69874999999922,"velocity":0.6141732283464567,"duration":0.30999999999997385},{"name":"A#2","midi":46,"time":134.9974999999992,"velocity":0.6141732283464567,"duration":0.3024999999999807},{"name":"A#3","midi":58,"time":135.0037499999992,"velocity":0.6141732283464567,"duration":0.5912499999999739},{"name":"D4","midi":62,"time":135.3012499999992,"velocity":0.6141732283464567,"duration":0.3699999999999761},{"name":"C4","midi":60,"time":135.60499999999917,"velocity":0.6141732283464567,"duration":0.30374999999997954},{"name":"A#3","midi":58,"time":135.90124999999915,"velocity":0.6141732283464567,"duration":1.7274999999999636},{"name":"D#3","midi":51,"time":136.20124999999913,"velocity":0.5905511811023622,"duration":0.30375000000000796},{"name":"F3","midi":53,"time":136.49999999999915,"velocity":0.5669291338582677,"duration":0.28999999999999204},{"name":"G3","midi":55,"time":136.79124999999914,"velocity":0.5511811023622047,"duration":0.31749999999999545},{"name":"F3","midi":53,"time":137.09999999999914,"velocity":0.5118110236220472,"duration":0.2974999999999852},{"name":"D#3","midi":51,"time":137.39374999999913,"velocity":0.47244094488188976,"duration":0.3212499999999636},{"name":"G#3","midi":56,"time":137.7049999999991,"velocity":0.4094488188976378,"duration":0.43499999999997385},{"name":"C4","midi":60,"time":138.0024999999991,"velocity":0.4094488188976378,"duration":0.30624999999997726},{"name":"A#3","midi":58,"time":138.29999999999907,"velocity":0.4094488188976378,"duration":0.308749999999975},{"name":"G#2","midi":44,"time":138.59999999999906,"velocity":0.4094488188976378,"duration":0.3012499999999818},{"name":"G#3","midi":56,"time":138.60124999999906,"velocity":0.4094488188976378,"duration":0.5112499999999898},{"name":"C4","midi":60,"time":138.89999999999904,"velocity":0.4094488188976378,"duration":0.3162499999999966},{"name":"A#3","midi":58,"time":139.20499999999905,"velocity":0.4094488188976378,"duration":0.308749999999975},{"name":"G#3","midi":56,"time":139.50499999999903,"velocity":0.4094488188976378,"duration":1.7849999999999397},{"name":"D3","midi":50,"time":139.79874999999902,"velocity":0.47244094488188976,"duration":0.2949999999999875},{"name":"D#3","midi":51,"time":140.092499999999,"velocity":0.5354330708661418,"duration":0.3149999999999977},{"name":"F3","midi":53,"time":140.399999999999,"velocity":0.5984251968503937,"duration":0.3149999999999693},{"name":"D#3","midi":51,"time":140.703749999999,"velocity":0.5669291338582677,"duration":0.29999999999998295},{"name":"D3","midi":50,"time":140.99874999999898,"velocity":0.5118110236220472,"duration":0.30624999999997726},{"name":"G3","midi":55,"time":141.29999999999896,"velocity":0.44881889763779526,"duration":0.16124999999999545},{"name":"F3","midi":53,"time":141.45374999999896,"velocity":0.47244094488188976,"duration":0.15625},{"name":"D#3","midi":51,"time":141.60499999999897,"velocity":0.4881889763779528,"duration":0.1462500000000091},{"name":"F3","midi":53,"time":141.75249999999897,"velocity":0.5118110236220472,"duration":0.1599999999999966},{"name":"D3","midi":50,"time":141.90374999999898,"velocity":0.5354330708661418,"duration":0.15500000000000114},{"name":"D#3","midi":51,"time":142.05374999999898,"velocity":0.5590551181102362,"duration":0.15749999999999886},{"name":"C3","midi":48,"time":142.204999999999,"velocity":0.5748031496062992,"duration":0.15125000000000455},{"name":"D#3","midi":51,"time":142.353749999999,"velocity":0.5984251968503937,"duration":0.15375000000000227},{"name":"A#2","midi":46,"time":142.503749999999,"velocity":0.6220472440944882,"duration":0.16249999999999432},{"name":"D#3","midi":51,"time":142.658749999999,"velocity":0.6377952755905512,"duration":0.15124999999997613},{"name":"G#2","midi":44,"time":142.80624999999898,"velocity":0.6614173228346457,"duration":0.15125000000000455},{"name":"D#3","midi":51,"time":142.954999999999,"velocity":0.6850393700787402,"duration":0.14374999999998295},{"name":"G2","midi":43,"time":143.09499999999898,"velocity":0.7007874015748031,"duration":0.15625},{"name":"D#3","midi":51,"time":143.24624999999898,"velocity":0.7244094488188977,"duration":0.15625},{"name":"F2","midi":41,"time":143.396249999999,"velocity":0.7480314960629921,"duration":0.16374999999999318},{"name":"D#3","midi":51,"time":143.55499999999898,"velocity":0.7716535433070866,"duration":0.16249999999999432},{"name":"D#2","midi":39,"time":143.71374999999898,"velocity":0.7874015748031497,"duration":0.14374999999998295},{"name":"D#3","midi":51,"time":143.85374999999897,"velocity":0.7795275590551181,"duration":0.14875000000000682},{"name":"G#2","midi":44,"time":144.00124999999898,"velocity":0.7795275590551181,"duration":0.29624999999998636},{"name":"A#2","midi":46,"time":144.29249999999897,"velocity":0.7795275590551181,"duration":0.11875000000000568},{"name":"A#2","midi":46,"time":144.59999999999897,"velocity":0.6850393700787402,"duration":0.12749999999999773},{"name":"D#2","midi":39,"time":144.90874999999897,"velocity":0.5433070866141733,"duration":0.24875000000000114},{"name":"G#4","midi":68,"time":145.35499999999897,"velocity":0.3858267716535433,"duration":0.16249999999999432},{"name":"G4","midi":67,"time":145.50749999999897,"velocity":0.3858267716535433,"duration":0.14249999999998408},{"name":"F4","midi":65,"time":145.65249999999895,"velocity":0.3858267716535433,"duration":0.14875000000000682},{"name":"E4","midi":64,"time":145.79874999999896,"velocity":0.3858267716535433,"duration":0.16124999999999545},{"name":"F4","midi":65,"time":145.95124999999896,"velocity":0.3858267716535433,"duration":0.15624999999997158},{"name":"G4","midi":67,"time":146.09999999999894,"velocity":0.3858267716535433,"duration":0.15124999999997613},{"name":"E4","midi":64,"time":146.24749999999892,"velocity":0.3858267716535433,"duration":0.15125000000000455},{"name":"C#4","midi":61,"time":146.39374999999893,"velocity":0.3858267716535433,"duration":0.15999999999996817},{"name":"E4","midi":64,"time":146.5387499999989,"velocity":0.3858267716535433,"duration":0.15374999999997385},{"name":"A#3","midi":58,"time":146.69874999999888,"velocity":0.3858267716535433,"duration":0.1349999999999909},{"name":"C4","midi":60,"time":146.83624999999887,"velocity":0.3858267716535433,"duration":0.16124999999999545},{"name":"C#4","midi":61,"time":146.99124999999887,"velocity":0.3858267716535433,"duration":0.16249999999999432},{"name":"A#3","midi":58,"time":147.14499999999887,"velocity":0.3858267716535433,"duration":0.16249999999999432},{"name":"G3","midi":55,"time":147.29749999999888,"velocity":0.3858267716535433,"duration":0.1599999999999966},{"name":"A#3","midi":58,"time":147.44874999999888,"velocity":0.3858267716535433,"duration":0.15375000000000227},{"name":"E3","midi":52,"time":147.5987499999989,"velocity":0.3858267716535433,"duration":0.15500000000000114},{"name":"F3","midi":53,"time":147.7474999999989,"velocity":0.4015748031496063,"duration":0.15375000000000227},{"name":"G3","midi":55,"time":147.8987499999989,"velocity":0.4566929133858268,"duration":0.1599999999999966},{"name":"E3","midi":52,"time":148.0524999999989,"velocity":0.5039370078740157,"duration":0.15625},{"name":"C3","midi":48,"time":148.2037499999989,"velocity":0.49606299212598426,"duration":0.1349999999999909},{"name":"E3","midi":52,"time":148.3462499999989,"velocity":0.47244094488188976,"duration":0.16374999999999318},{"name":"F2","midi":41,"time":148.50749999999888,"velocity":0.44881889763779526,"duration":0.22999999999998977},{"name":"G4","midi":67,"time":148.96624999999887,"velocity":0.3779527559055118,"duration":0.18000000000000682},{"name":"F4","midi":65,"time":149.09499999999886,"velocity":0.3464566929133858,"duration":0.15500000000000114},{"name":"D#4","midi":63,"time":149.26499999999885,"velocity":0.3464566929133858,"duration":0.15874999999999773},{"name":"D4","midi":62,"time":149.41624999999885,"velocity":0.3464566929133858,"duration":0.15124999999997613},{"name":"D#4","midi":63,"time":149.56249999999883,"velocity":0.3464566929133858,"duration":0.15375000000000227},{"name":"F4","midi":65,"time":149.70874999999884,"velocity":0.3464566929133858,"duration":0.15625},{"name":"D4","midi":62,"time":149.85874999999885,"velocity":0.3464566929133858,"duration":0.14374999999998295},{"name":"A#3","midi":58,"time":150.00374999999883,"velocity":0.3464566929133858,"duration":0.14125000000001364},{"name":"D4","midi":62,"time":150.14499999999884,"velocity":0.3464566929133858,"duration":0.13749999999998863},{"name":"G#3","midi":56,"time":150.28749999999883,"velocity":0.3464566929133858,"duration":0.16374999999999318},{"name":"A#3","midi":58,"time":150.44249999999883,"velocity":0.3543307086614173,"duration":0.16499999999999204},{"name":"C4","midi":60,"time":150.59874999999883,"velocity":0.3779527559055118,"duration":0.16124999999999545},{"name":"G#3","midi":56,"time":150.75499999999883,"velocity":0.3937007874015748,"duration":0.15874999999999773},{"name":"F3","midi":53,"time":150.90374999999884,"velocity":0.41732283464566927,"duration":0.15124999999997613},{"name":"G#3","midi":56,"time":151.05374999999881,"velocity":0.4409448818897638,"duration":0.15500000000000114},{"name":"D3","midi":50,"time":151.20249999999882,"velocity":0.4566929133858268,"duration":0.15124999999997613},{"name":"D#3","midi":51,"time":151.3462499999988,"velocity":0.44881889763779526,"duration":0.15625},{"name":"F3","midi":53,"time":151.5024999999988,"velocity":0.4251968503937008,"duration":0.14875000000000682},{"name":"D3","midi":50,"time":151.6487499999988,"velocity":0.4015748031496063,"duration":0.1599999999999966},{"name":"A#2","midi":46,"time":151.80374999999881,"velocity":0.36220472440944884,"duration":0.14624999999998067},{"name":"D3","midi":50,"time":151.9474999999988,"velocity":0.3464566929133858,"duration":0.1699999999999875},{"name":"D#2","midi":39,"time":152.1087499999988,"velocity":0.33070866141732286,"duration":0.3049999999999784},{"name":"A#4","midi":70,"time":152.56624999999877,"velocity":0.3858267716535433,"duration":0.18000000000000682},{"name":"A4","midi":69,"time":152.69499999999877,"velocity":0.4015748031496063,"duration":0.15500000000000114},{"name":"G4","midi":67,"time":152.86499999999876,"velocity":0.4330708661417323,"duration":0.15874999999999773},{"name":"F#4","midi":66,"time":152.99749999999875,"velocity":0.4566929133858268,"duration":0.16499999999999204},{"name":"G4","midi":67,"time":153.15124999999875,"velocity":0.4330708661417323,"duration":0.1449999999999818},{"name":"A4","midi":69,"time":153.29374999999874,"velocity":0.4330708661417323,"duration":0.15375000000000227},{"name":"F#4","midi":66,"time":153.44374999999874,"velocity":0.4330708661417323,"duration":0.15125000000000455},{"name":"D#4","midi":63,"time":153.58999999999875,"velocity":0.4330708661417323,"duration":0.1662499999999909},{"name":"F#4","midi":66,"time":153.74624999999875,"velocity":0.4251968503937008,"duration":0.14624999999998067},{"name":"C4","midi":60,"time":153.89499999999873,"velocity":0.4251968503937008,"duration":0.14750000000000796},{"name":"D4","midi":62,"time":154.03874999999874,"velocity":0.4251968503937008,"duration":0.16124999999999545},{"name":"D#4","midi":63,"time":154.19124999999875,"velocity":0.4251968503937008,"duration":0.16374999999999318},{"name":"C4","midi":60,"time":154.34499999999875,"velocity":0.41732283464566927,"duration":0.152499999999975},{"name":"A3","midi":57,"time":154.49374999999873,"velocity":0.41732283464566927,"duration":0.15375000000000227},{"name":"C4","midi":60,"time":154.64249999999873,"velocity":0.41732283464566927,"duration":0.16249999999999432},{"name":"F#3","midi":54,"time":154.79749999999873,"velocity":0.4330708661417323,"duration":0.16374999999999318},{"name":"G3","midi":55,"time":154.95124999999874,"velocity":0.44881889763779526,"duration":0.15500000000000114},{"name":"A3","midi":57,"time":155.10374999999874,"velocity":0.4645669291338583,"duration":0.15625},{"name":"F#3","midi":54,"time":155.25499999999874,"velocity":0.48031496062992124,"duration":0.15749999999999886},{"name":"D3","midi":50,"time":155.40749999999875,"velocity":0.49606299212598426,"duration":0.1387499999999875},{"name":"F#3","midi":54,"time":155.54499999999874,"velocity":0.5118110236220472,"duration":0.09624999999999773},{"name":"G2","midi":43,"time":155.70624999999873,"velocity":0.5196850393700787,"duration":0.29999999999998295},{"name":"A#2","midi":46,"time":156.00124999999872,"velocity":0.5196850393700787,"duration":0.29999999999998295},{"name":"D#3","midi":51,"time":156.3137499999987,"velocity":0.5196850393700787,"duration":0.30000000000001137},{"name":"F2","midi":41,"time":156.5949999999987,"velocity":0.5039370078740157,"duration":0.30000000000001137},{"name":"A2","midi":45,"time":156.8874999999987,"velocity":0.48031496062992124,"duration":0.29999999999998295},{"name":"D3","midi":50,"time":157.2062499999987,"velocity":0.4566929133858268,"duration":0.30000000000001137},{"name":"D#2","midi":39,"time":157.4887499999987,"velocity":0.4330708661417323,"duration":0.30000000000001137},{"name":"G2","midi":43,"time":157.7949999999987,"velocity":0.4015748031496063,"duration":0.30000000000001137},{"name":"C3","midi":48,"time":158.09749999999872,"velocity":0.3700787401574803,"duration":0.30000000000001137},{"name":"D2","midi":38,"time":158.40374999999872,"velocity":0.33858267716535434,"duration":0.15000000000000568},{"name":"D3","midi":50,"time":158.69624999999874,"velocity":0.33858267716535434,"duration":0.2912499999999909},{"name":"D2","midi":38,"time":159.30124999999873,"velocity":0.33858267716535434,"duration":0.1775000000000091},{"name":"D3","midi":50,"time":159.59749999999875,"velocity":0.33858267716535434,"duration":0.18625000000000114},{"name":"D2","midi":38,"time":160.19624999999874,"velocity":0.33858267716535434,"duration":0.1599999999999966},{"name":"D3","midi":50,"time":160.49374999999873,"velocity":0.33858267716535434,"duration":0.16749999999998977},{"name":"D2","midi":38,"time":161.09749999999872,"velocity":0.33858267716535434,"duration":0.20625000000001137},{"name":"D3","midi":50,"time":161.40499999999872,"velocity":0.33858267716535434,"duration":0.1462500000000091},{"name":"D3","midi":50,"time":161.69999999999874,"velocity":0.33858267716535434,"duration":0.14500000000001023},{"name":"A#2","midi":46,"time":161.99374999999876,"velocity":0.33858267716535434,"duration":0.15874999999999773},{"name":"A2","midi":45,"time":162.14499999999876,"velocity":0.3464566929133858,"duration":0.15375000000000227},{"name":"G2","midi":43,"time":162.29374999999877,"velocity":0.3543307086614173,"duration":0.16874999999998863},{"name":"A2","midi":45,"time":162.45124999999877,"velocity":0.3464566929133858,"duration":0.15499999999997272},{"name":"A#2","midi":46,"time":162.59874999999874,"velocity":0.36220472440944884,"duration":0.15625},{"name":"C3","midi":48,"time":162.75124999999875,"velocity":0.3700787401574803,"duration":0.15500000000000114},{"name":"D3","midi":50,"time":162.89999999999876,"velocity":0.3858267716535433,"duration":0.15500000000000114},{"name":"C3","midi":48,"time":163.04999999999876,"velocity":0.4015748031496063,"duration":0.15749999999999886},{"name":"D3","midi":50,"time":163.20124999999877,"velocity":0.41732283464566927,"duration":0.15500000000000114},{"name":"E3","midi":52,"time":163.35374999999877,"velocity":0.4330708661417323,"duration":0.15125000000000455},{"name":"F#3","midi":54,"time":163.50124999999878,"velocity":0.44881889763779526,"duration":0.1462500000000091},{"name":"D3","midi":50,"time":163.6462499999988,"velocity":0.4566929133858268,"duration":0.15874999999999773},{"name":"G3","midi":55,"time":163.7987499999988,"velocity":0.47244094488188976,"duration":0.14999999999997726},{"name":"F#3","midi":54,"time":163.94499999999877,"velocity":0.4881889763779528,"duration":0.15625},{"name":"G3","midi":55,"time":164.09749999999877,"velocity":0.5039370078740157,"duration":0.15625},{"name":"A3","midi":57,"time":164.24624999999878,"velocity":0.5196850393700787,"duration":0.15874999999999773},{"name":"A#3","midi":58,"time":164.39874999999878,"velocity":0.5354330708661418,"duration":0.15500000000000114},{"name":"C4","midi":60,"time":164.5474999999988,"velocity":0.5511811023622047,"duration":0.1525000000000034},{"name":"D4","midi":62,"time":164.6974999999988,"velocity":0.5590551181102362,"duration":0.15500000000000114},{"name":"C4","midi":60,"time":164.8474999999988,"velocity":0.5748031496062992,"duration":0.1525000000000034},{"name":"D4","midi":62,"time":164.9987499999988,"velocity":0.5905511811023622,"duration":0.15375000000000227},{"name":"E4","midi":64,"time":165.1487499999988,"velocity":0.6062992125984252,"duration":0.1462500000000091},{"name":"F#4","midi":66,"time":165.29374999999882,"velocity":0.6220472440944882,"duration":0.15500000000000114},{"name":"D4","midi":62,"time":165.44624999999883,"velocity":0.6377952755905512,"duration":0.15125000000000455},{"name":"G4","midi":67,"time":165.59624999999883,"velocity":0.6456692913385826,"duration":0.13999999999998636},{"name":"G3","midi":55,"time":165.8987499999988,"velocity":0.6771653543307087,"duration":0.1037499999999909},{"name":"A#3","midi":58,"time":165.9012499999988,"velocity":0.6771653543307087,"duration":0.09375},{"name":"D4","midi":62,"time":165.9024999999988,"velocity":0.6771653543307087,"duration":0.08500000000000796},{"name":"G3","midi":55,"time":166.2037499999988,"velocity":0.7086614173228346,"duration":0.11624999999997954},{"name":"D4","midi":62,"time":166.2037499999988,"velocity":0.7086614173228346,"duration":0.10499999999998977},{"name":"A#3","midi":58,"time":166.2062499999988,"velocity":0.7086614173228346,"duration":0.09250000000000114},{"name":"A3","midi":57,"time":166.49749999999878,"velocity":0.7401574803149606,"duration":0.12624999999999886},{"name":"D4","midi":62,"time":166.49874999999878,"velocity":0.7401574803149606,"duration":0.12000000000000455},{"name":"F#3","midi":54,"time":166.50124999999878,"velocity":0.7401574803149606,"duration":0.11750000000000682},{"name":"D3","midi":50,"time":166.7974999999988,"velocity":0.7637795275590551,"duration":0.11499999999998067},{"name":"F#3","midi":54,"time":166.8012499999988,"velocity":0.7637795275590551,"duration":0.1037499999999909},{"name":"A3","midi":57,"time":166.8012499999988,"velocity":0.7637795275590551,"duration":0.09624999999999773},{"name":"D3","midi":50,"time":167.09749999999877,"velocity":0.7952755905511811,"duration":0.10875000000001478},{"name":"A3","midi":57,"time":167.09999999999877,"velocity":0.7952755905511811,"duration":0.08250000000001023},{"name":"F#3","midi":54,"time":167.10124999999877,"velocity":0.7952755905511811,"duration":0.08125000000001137},{"name":"D3","midi":50,"time":167.3949999999988,"velocity":0.8267716535433071,"duration":0.10999999999998522},{"name":"G3","midi":55,"time":167.3949999999988,"velocity":0.8267716535433071,"duration":0.09874999999999545},{"name":"A#2","midi":46,"time":167.3962499999988,"velocity":0.8267716535433071,"duration":0.11624999999997954},{"name":"G2","midi":43,"time":167.69749999999877,"velocity":0.8503937007874016,"duration":0.11000000000001364},{"name":"A#2","midi":46,"time":167.69749999999877,"velocity":0.8503937007874016,"duration":0.11000000000001364},{"name":"D3","midi":50,"time":167.69749999999877,"velocity":0.8503937007874016,"duration":0.08750000000000568},{"name":"G2","midi":43,"time":167.99624999999878,"velocity":0.8818897637795275,"duration":0.10499999999998977},{"name":"D3","midi":50,"time":167.99749999999878,"velocity":0.8818897637795275,"duration":0.08250000000001023},{"name":"A#2","midi":46,"time":167.99999999999878,"velocity":0.8818897637795275,"duration":0.08625000000000682},{"name":"F#2","midi":42,"time":168.29749999999876,"velocity":0.9133858267716536,"duration":0.3699999999999761},{"name":"D2","midi":38,"time":168.29999999999876,"velocity":0.9133858267716536,"duration":0.35624999999998863},{"name":"A2","midi":45,"time":168.29999999999876,"velocity":0.9133858267716536,"duration":0.3699999999999761},{"name":"D3","midi":50,"time":168.29999999999876,"velocity":0.9133858267716536,"duration":0.3599999999999852},{"name":"A4","midi":69,"time":169.33624999999873,"velocity":0.3858267716535433,"duration":0.16124999999999545},{"name":"G4","midi":67,"time":169.49249999999873,"velocity":0.3858267716535433,"duration":0.1525000000000034},{"name":"F4","midi":65,"time":169.64374999999873,"velocity":0.3858267716535433,"duration":0.16249999999999432},{"name":"D#4","midi":63,"time":169.80124999999873,"velocity":0.3858267716535433,"duration":0.14750000000000796},{"name":"D4","midi":62,"time":169.95249999999874,"velocity":0.3858267716535433,"duration":0.15500000000000114},{"name":"C4","midi":60,"time":170.10249999999874,"velocity":0.3858267716535433,"duration":0.1599999999999966},{"name":"D4","midi":62,"time":170.25499999999874,"velocity":0.3858267716535433,"duration":0.15125000000000455},{"name":"C4","midi":60,"time":170.40499999999875,"velocity":0.3858267716535433,"duration":0.15000000000000568},{"name":"A#3","midi":58,"time":170.55124999999876,"velocity":0.3858267716535433,"duration":0.13999999999998636},{"name":"A3","midi":57,"time":170.69499999999874,"velocity":0.3858267716535433,"duration":0.14750000000000796},{"name":"G3","midi":55,"time":170.84374999999875,"velocity":0.3858267716535433,"duration":0.1525000000000034},{"name":"F3","midi":53,"time":170.99374999999876,"velocity":0.3858267716535433,"duration":0.14375000000001137},{"name":"G4","midi":67,"time":171.14249999999876,"velocity":0.3858267716535433,"duration":0.14875000000000682},{"name":"F4","midi":65,"time":171.28999999999877,"velocity":0.3858267716535433,"duration":0.16374999999999318},{"name":"D#4","midi":63,"time":171.44624999999877,"velocity":0.3858267716535433,"duration":0.14749999999997954},{"name":"D4","midi":62,"time":171.59749999999875,"velocity":0.3858267716535433,"duration":0.14375000000001137},{"name":"C4","midi":60,"time":171.74249999999876,"velocity":0.3858267716535433,"duration":0.15625},{"name":"A#3","midi":58,"time":171.89374999999876,"velocity":0.3779527559055118,"duration":0.14750000000000796},{"name":"C4","midi":60,"time":172.04249999999877,"velocity":0.3779527559055118,"duration":0.15000000000000568},{"name":"A#3","midi":58,"time":172.19124999999877,"velocity":0.3779527559055118,"duration":0.15625},{"name":"A3","midi":57,"time":172.34499999999878,"velocity":0.3779527559055118,"duration":0.15749999999999886},{"name":"G3","midi":55,"time":172.50124999999878,"velocity":0.3779527559055118,"duration":0.14875000000000682},{"name":"F3","midi":53,"time":172.64874999999878,"velocity":0.3779527559055118,"duration":0.14750000000000796},{"name":"D#3","midi":51,"time":172.7974999999988,"velocity":0.3779527559055118,"duration":0.13749999999998863},{"name":"F4","midi":65,"time":172.94624999999877,"velocity":0.3779527559055118,"duration":0.15874999999999773},{"name":"D#4","midi":63,"time":173.09999999999877,"velocity":0.3779527559055118,"duration":0.15749999999999886},{"name":"D4","midi":62,"time":173.25499999999877,"velocity":0.3779527559055118,"duration":0.14750000000000796},{"name":"C4","midi":60,"time":173.40124999999878,"velocity":0.3779527559055118,"duration":0.14875000000000682},{"name":"A#3","midi":58,"time":173.5474999999988,"velocity":0.3779527559055118,"duration":0.1525000000000034},{"name":"A3","midi":57,"time":173.6987499999988,"velocity":0.3779527559055118,"duration":0.15000000000000568},{"name":"A#3","midi":58,"time":173.8449999999988,"velocity":0.3937007874015748,"duration":0.14750000000000796},{"name":"A3","midi":57,"time":173.9949999999988,"velocity":0.41732283464566927,"duration":0.1599999999999966},{"name":"G3","midi":55,"time":174.1512499999988,"velocity":0.4409448818897638,"duration":0.1525000000000034},{"name":"F#3","midi":54,"time":174.29999999999882,"velocity":0.47244094488188976,"duration":0.14750000000000796},{"name":"E3","midi":52,"time":174.45124999999882,"velocity":0.49606299212598426,"duration":0.15375000000000227},{"name":"D3","midi":50,"time":174.59999999999883,"velocity":0.5275590551181102,"duration":0.15874999999999773},{"name":"D#3","midi":51,"time":174.74999999999883,"velocity":0.5511811023622047,"duration":0.15749999999999886},{"name":"D3","midi":50,"time":174.90999999999883,"velocity":0.5826771653543307,"duration":0.15749999999999886},{"name":"C3","midi":48,"time":175.04249999999882,"velocity":0.6062992125984252,"duration":0.15749999999999886},{"name":"A#2","midi":46,"time":175.19499999999883,"velocity":0.6299212598425197,"duration":0.14374999999998295},{"name":"A2","midi":45,"time":175.3424999999988,"velocity":0.6614173228346457,"duration":0.16249999999999432},{"name":"G2","midi":43,"time":175.4974999999988,"velocity":0.6850393700787402,"duration":0.16124999999999545},{"name":"A2","midi":45,"time":175.6512499999988,"velocity":0.7165354330708661,"duration":0.15500000000000114},{"name":"G2","midi":43,"time":175.80249999999882,"velocity":0.7401574803149606,"duration":0.1525000000000034},{"name":"F2","midi":41,"time":175.95249999999882,"velocity":0.7637795275590551,"duration":0.15375000000000227},{"name":"D#2","midi":39,"time":176.09749999999883,"velocity":0.7952755905511811,"duration":0.14624999999998067},{"name":"D2","midi":38,"time":176.24124999999881,"velocity":0.8188976377952756,"duration":0.15749999999999886},{"name":"C2","midi":36,"time":176.39499999999882,"velocity":0.8503937007874016,"duration":0.3125},{"name":"C3","midi":48,"time":176.70249999999882,"velocity":0.7637795275590551,"duration":0.09624999999999773},{"name":"C3","midi":48,"time":176.9974999999988,"velocity":0.7637795275590551,"duration":0.11250000000001137},{"name":"F2","midi":41,"time":177.29499999999882,"velocity":0.8267716535433071,"duration":0.30375000000000796},{"name":"F3","midi":53,"time":177.59624999999883,"velocity":0.7637795275590551,"duration":0.1037499999999909},{"name":"F3","midi":53,"time":177.89124999999882,"velocity":0.7637795275590551,"duration":0.11625000000000796},{"name":"A#3","midi":58,"time":178.20374999999882,"velocity":0.8031496062992126,"duration":0.29624999999998636},{"name":"A#2","midi":46,"time":178.4974999999988,"velocity":0.7559055118110236,"duration":0.10624999999998863},{"name":"A#2","midi":46,"time":178.8012499999988,"velocity":0.7559055118110236,"duration":0.08875000000000455},{"name":"D#2","midi":39,"time":179.0949999999988,"velocity":0.8031496062992126,"duration":0.30750000000000455},{"name":"D#3","midi":51,"time":179.39624999999882,"velocity":0.7480314960629921,"duration":0.08750000000000568},{"name":"D#3","midi":51,"time":179.69499999999883,"velocity":0.7480314960629921,"duration":0.12000000000000455},{"name":"A3","midi":57,"time":179.99749999999884,"velocity":0.8267716535433071,"duration":0.3012499999999818},{"name":"A2","midi":45,"time":180.29374999999882,"velocity":0.7480314960629921,"duration":0.09999999999999432},{"name":"A2","midi":45,"time":180.5924999999988,"velocity":0.7007874015748031,"duration":0.11625000000000796},{"name":"D2","midi":38,"time":180.89499999999882,"velocity":0.6850393700787402,"duration":0.26249999999998863},{"name":"A#3","midi":58,"time":181.5074999999988,"velocity":0.5511811023622047,"duration":0.13749999999998863},{"name":"A3","midi":57,"time":181.6474999999988,"velocity":0.5275590551181102,"duration":0.15874999999999773},{"name":"A#3","midi":58,"time":181.81124999999878,"velocity":0.4881889763779528,"duration":0.15874999999999773},{"name":"D4","midi":62,"time":181.93124999999878,"velocity":0.4881889763779528,"duration":0.15874999999999773},{"name":"C4","midi":60,"time":182.10374999999877,"velocity":0.4881889763779528,"duration":0.1462500000000091},{"name":"A#3","midi":58,"time":182.25499999999877,"velocity":0.4881889763779528,"duration":0.14500000000001023},{"name":"A3","midi":57,"time":182.40124999999878,"velocity":0.4881889763779528,"duration":0.15375000000000227},{"name":"G3","midi":55,"time":182.55999999999878,"velocity":0.4881889763779528,"duration":0.15874999999999773},{"name":"F#3","midi":54,"time":182.68249999999878,"velocity":0.4881889763779528,"duration":0.15874999999999773},{"name":"G3","midi":55,"time":182.83874999999878,"velocity":0.4881889763779528,"duration":0.15874999999999773},{"name":"F#3","midi":54,"time":182.9887499999988,"velocity":0.4881889763779528,"duration":0.16374999999999318},{"name":"E3","midi":52,"time":183.1462499999988,"velocity":0.4881889763779528,"duration":0.1525000000000034},{"name":"D3","midi":50,"time":183.2937499999988,"velocity":0.4881889763779528,"duration":0.1525000000000034},{"name":"C3","midi":48,"time":183.4449999999988,"velocity":0.4881889763779528,"duration":0.16249999999999432},{"name":"B2","midi":47,"time":183.5987499999988,"velocity":0.49606299212598426,"duration":0.1662499999999909},{"name":"A2","midi":45,"time":183.7574999999988,"velocity":0.5354330708661418,"duration":0.15124999999997613},{"name":"G2","midi":43,"time":183.90374999999878,"velocity":0.5826771653543307,"duration":0.15375000000000227},{"name":"F2","midi":41,"time":184.0524999999988,"velocity":0.6220472440944882,"duration":0.1449999999999818},{"name":"E2","midi":40,"time":184.19499999999877,"velocity":0.6614173228346457,"duration":0.14124999999998522},{"name":"D2","midi":38,"time":184.33749999999876,"velocity":0.7007874015748031,"duration":0.15749999999999886},{"name":"C2","midi":36,"time":184.49249999999876,"velocity":0.7480314960629921,"duration":0.2987499999999841},{"name":"G3","midi":55,"time":184.79499999999874,"velocity":0.6062992125984252,"duration":0.1599999999999966},{"name":"F3","midi":53,"time":184.94499999999874,"velocity":0.6220472440944882,"duration":0.15874999999999773},{"name":"E3","midi":52,"time":185.09624999999875,"velocity":0.6456692913385826,"duration":0.15749999999999886},{"name":"D3","midi":50,"time":185.24499999999875,"velocity":0.6614173228346457,"duration":0.15749999999999886},{"name":"C#3","midi":49,"time":185.39999999999876,"velocity":0.6771653543307087,"duration":0.15375000000000227},{"name":"A#2","midi":46,"time":185.55124999999876,"velocity":0.7007874015748031,"duration":0.14875000000000682},{"name":"A2","midi":45,"time":185.69624999999877,"velocity":0.7165354330708661,"duration":0.15625},{"name":"G2","midi":43,"time":185.84249999999878,"velocity":0.7322834645669292,"duration":0.15874999999999773},{"name":"F#2","midi":42,"time":185.99374999999878,"velocity":0.7559055118110236,"duration":0.16124999999999545},{"name":"E2","midi":40,"time":186.1474999999988,"velocity":0.7716535433070866,"duration":0.15500000000000114},{"name":"D2","midi":38,"time":186.2987499999988,"velocity":0.7952755905511811,"duration":0.2974999999999852},{"name":"C4","midi":60,"time":186.60124999999877,"velocity":0.6692913385826772,"duration":0.15500000000000114},{"name":"A#3","midi":58,"time":186.74999999999878,"velocity":0.6771653543307087,"duration":0.15749999999999886},{"name":"A3","midi":57,"time":186.89874999999878,"velocity":0.6850393700787402,"duration":0.1525000000000034},{"name":"G3","midi":55,"time":187.0499999999988,"velocity":0.6929133858267716,"duration":0.15000000000000568},{"name":"F#3","midi":54,"time":187.1962499999988,"velocity":0.7007874015748031,"duration":0.15874999999999773},{"name":"E3","midi":52,"time":187.3462499999988,"velocity":0.7086614173228346,"duration":0.15500000000000114},{"name":"D3","midi":50,"time":187.4987499999988,"velocity":0.7244094488188977,"duration":0.15000000000000568},{"name":"C3","midi":48,"time":187.64749999999881,"velocity":0.7322834645669292,"duration":0.15874999999999773},{"name":"A#2","midi":46,"time":187.79499999999882,"velocity":0.7401574803149606,"duration":0.1587499999999693},{"name":"A2","midi":45,"time":187.9449999999988,"velocity":0.7480314960629921,"duration":0.152499999999975},{"name":"G2","midi":43,"time":188.09374999999878,"velocity":0.7559055118110236,"duration":0.1525000000000034},{"name":"F#2","midi":42,"time":188.2412499999988,"velocity":0.7637795275590551,"duration":0.1525000000000034},{"name":"G2","midi":43,"time":188.3899999999988,"velocity":0.7716535433070866,"duration":0.16124999999999545},{"name":"A2","midi":45,"time":188.5437499999988,"velocity":0.7795275590551181,"duration":0.1599999999999966},{"name":"A#2","midi":46,"time":188.6949999999988,"velocity":0.7874015748031497,"duration":0.15124999999997613},{"name":"G2","midi":43,"time":188.84249999999878,"velocity":0.7952755905511811,"duration":0.16374999999999318},{"name":"C3","midi":48,"time":188.99749999999878,"velocity":0.8031496062992126,"duration":0.1662499999999909},{"name":"A#2","midi":46,"time":189.15499999999878,"velocity":0.8110236220472441,"duration":0.15874999999999773},{"name":"C3","midi":48,"time":189.30749999999878,"velocity":0.8188976377952756,"duration":0.1487499999999784},{"name":"D3","midi":50,"time":189.45249999999876,"velocity":0.8267716535433071,"duration":0.16124999999999545},{"name":"D#3","midi":51,"time":189.60124999999877,"velocity":0.8346456692913385,"duration":0.14374999999998295},{"name":"C3","midi":48,"time":189.74624999999875,"velocity":0.84251968503937,"duration":0.15500000000000114},{"name":"D3","midi":50,"time":189.89624999999876,"velocity":0.8503937007874016,"duration":0.15625},{"name":"E3","midi":52,"time":190.04624999999876,"velocity":0.8582677165354331,"duration":0.16124999999999545},{"name":"F#3","midi":54,"time":190.19749999999877,"velocity":0.8661417322834646,"duration":0.15499999999997272},{"name":"D3","midi":50,"time":190.34749999999875,"velocity":0.8740157480314961,"duration":0.1662499999999909},{"name":"G3","midi":55,"time":190.50249999999875,"velocity":0.8818897637795275,"duration":0.17874999999997954},{"name":"C3","midi":48,"time":190.80499999999873,"velocity":0.8976377952755905,"duration":0.16749999999998977},{"name":"D3","midi":50,"time":191.1074999999987,"velocity":0.8976377952755905,"duration":0.2087500000000091},{"name":"D2","midi":38,"time":191.41124999999872,"velocity":0.889763779527559,"duration":0.20625000000001137},{"name":"G2","midi":43,"time":191.78374999999872,"velocity":0.8818897637795275,"duration":0.7162500000000023}],"controlChanges":{"7":[{"number":7,"time":0,"value":0.8661417322834646}],"10":[{"number":10,"time":0,"value":0.3700787401574803}]},"id":2,"name":"seq. by David Siu  dss@po.cwru.edu","instrumentNumber":6,"instrument":"harpsichord","instrumentFamily":"piano","channelNumber":0,"isPercussion":false}]}