{"header":{"PPQ":384,"timeSignature":[4,4],"bpm":126.000126000126,"name":"Banjo-Kazooie - Treasure Trove Cove v3.0 by Peach (toadstool@csnsys.com)"},"startTime":0,"duration":350.4708796874961,"tracks":[{"startTime":0,"duration":0,"length":0,"notes":[],"controlChanges":{},"id":0},{"startTime":0,"duration":117.97111218750231,"length":880,"notes":[{"name":"C4","midi":60,"time":0,"velocity":0.7874015748031497,"duration":0.1140871875},{"name":"G4","midi":67,"time":0.238095,"velocity":0.7874015748031497,"duration":0.11408718750000002},{"name":"E4","midi":64,"time":0.238095,"velocity":0.7874015748031497,"duration":0.11408718750000002},{"name":"G3","midi":55,"time":0.35714250000000003,"velocity":0.7874015748031497,"duration":0.11408718750000002},{"name":"G3","midi":55,"time":0.5952375000000001,"velocity":0.7874015748031497,"duration":0.11408718750000002},{"name":"G4","midi":67,"time":0.7142850000000001,"velocity":0.7874015748031497,"duration":0.11408718750000002},{"name":"E4","midi":64,"time":0.7142850000000001,"velocity":0.7874015748031497,"duration":0.11408718750000002},{"name":"C4","midi":60,"time":0.9523800000000001,"velocity":0.7874015748031497,"duration":0.11408718749999991},{"name":"G4","midi":67,"time":1.190475,"velocity":0.7874015748031497,"duration":0.11408718750000002},{"name":"E4","midi":64,"time":1.190475,"velocity":0.7874015748031497,"duration":0.11408718750000002},{"name":"G3","midi":55,"time":1.3095225,"velocity":0.7874015748031497,"duration":0.11408718750000002},{"name":"G3","midi":55,"time":1.5476174999999999,"velocity":0.7874015748031497,"duration":0.11408718750000002},{"name":"G4","midi":67,"time":1.6666649999999998,"velocity":0.7874015748031497,"duration":0.11408718750000002},{"name":"E4","midi":64,"time":1.6666649999999998,"velocity":0.7874015748031497,"duration":0.11408718750000002},{"name":"C4","midi":60,"time":1.9047599999999998,"velocity":0.7874015748031497,"duration":0.1140871874999998},{"name":"G4","midi":67,"time":2.1428549999999995,"velocity":0.7874015748031497,"duration":0.11408718750000002},{"name":"E4","midi":64,"time":2.1428549999999995,"velocity":0.7874015748031497,"duration":0.11408718750000002},{"name":"G3","midi":55,"time":2.2619024999999997,"velocity":0.7874015748031497,"duration":0.11408718750000002},{"name":"G3","midi":55,"time":2.4999974999999997,"velocity":0.7874015748031497,"duration":0.11408718750000002},{"name":"G4","midi":67,"time":2.619045,"velocity":0.7874015748031497,"duration":0.11408718750000002},{"name":"E4","midi":64,"time":2.619045,"velocity":0.7874015748031497,"duration":0.11408718750000002},{"name":"C4","midi":60,"time":2.85714,"velocity":0.7874015748031497,"duration":0.11408718750000002},{"name":"G4","midi":67,"time":3.0952349999999997,"velocity":0.7874015748031497,"duration":0.11408718750000002},{"name":"E4","midi":64,"time":3.0952349999999997,"velocity":0.7874015748031497,"duration":0.11408718750000002},{"name":"G3","midi":55,"time":3.2142825,"velocity":0.7874015748031497,"duration":0.11408718750000002},{"name":"G3","midi":55,"time":3.4523775,"velocity":0.7874015748031497,"duration":0.11408718750000002},{"name":"G4","midi":67,"time":3.571425,"velocity":0.7874015748031497,"duration":0.11408718750000002},{"name":"E4","midi":64,"time":3.571425,"velocity":0.7874015748031497,"duration":0.11408718750000002},{"name":"G#3","midi":56,"time":3.80952,"velocity":0.7874015748031497,"duration":0.11408718750000002},{"name":"D#4","midi":63,"time":4.047615,"velocity":0.7874015748031497,"duration":0.11408718750000002},{"name":"F#4","midi":66,"time":4.047615,"velocity":0.7874015748031497,"duration":0.11408718750000002},{"name":"D#3","midi":51,"time":4.1666625,"velocity":0.7874015748031497,"duration":0.11408718750000002},{"name":"D#3","midi":51,"time":4.4047575000000005,"velocity":0.7874015748031497,"duration":0.11408718750000002},{"name":"D#4","midi":63,"time":4.523805,"velocity":0.7874015748031497,"duration":0.11408718750000002},{"name":"F#4","midi":66,"time":4.523805,"velocity":0.7874015748031497,"duration":0.11408718750000002},{"name":"C4","midi":60,"time":4.761900000000001,"velocity":0.7874015748031497,"duration":0.11408718750000002},{"name":"G4","midi":67,"time":4.999995000000001,"velocity":0.7874015748031497,"duration":0.11408718750000002},{"name":"E4","midi":64,"time":4.999995000000001,"velocity":0.7874015748031497,"duration":0.11408718750000002},{"name":"G3","midi":55,"time":5.2380900000000015,"velocity":0.7874015748031497,"duration":0.11408718750000002},{"name":"E4","midi":64,"time":5.476185000000002,"velocity":0.7874015748031497,"duration":0.11408718750000002},{"name":"G4","midi":67,"time":5.476185000000002,"velocity":0.7874015748031497,"duration":0.11408718750000002},{"name":"C4","midi":60,"time":5.714280000000002,"velocity":0.7874015748031497,"duration":0.11408718750000002},{"name":"G4","midi":67,"time":5.952375000000003,"velocity":0.7874015748031497,"duration":0.11408718750000002},{"name":"E4","midi":64,"time":5.952375000000003,"velocity":0.7874015748031497,"duration":0.11408718750000002},{"name":"G3","midi":55,"time":6.071422500000002,"velocity":0.7874015748031497,"duration":0.11408718750000002},{"name":"G3","midi":55,"time":6.309517500000003,"velocity":0.7874015748031497,"duration":0.11408718750000002},{"name":"G4","midi":67,"time":6.4285650000000025,"velocity":0.7874015748031497,"duration":0.11408718750000002},{"name":"E4","midi":64,"time":6.4285650000000025,"velocity":0.7874015748031497,"duration":0.11408718750000002},{"name":"C4","midi":60,"time":6.666660000000003,"velocity":0.7874015748031497,"duration":0.11408718750000002},{"name":"G4","midi":67,"time":6.904755000000003,"velocity":0.7874015748031497,"duration":0.11408718750000002},{"name":"E4","midi":64,"time":6.904755000000003,"velocity":0.7874015748031497,"duration":0.11408718750000002},{"name":"G3","midi":55,"time":7.023802500000003,"velocity":0.7874015748031497,"duration":0.11408718750000002},{"name":"G3","midi":55,"time":7.2618975000000034,"velocity":0.7874015748031497,"duration":0.11408718750000002},{"name":"G4","midi":67,"time":7.380945000000003,"velocity":0.7874015748031497,"duration":0.11408718750000002},{"name":"E4","midi":64,"time":7.380945000000003,"velocity":0.7874015748031497,"duration":0.11408718750000002},{"name":"G#3","midi":56,"time":7.619040000000004,"velocity":0.7874015748031497,"duration":0.11408718750000002},{"name":"D#4","midi":63,"time":7.857135000000004,"velocity":0.7874015748031497,"duration":0.11408718750000002},{"name":"F#4","midi":66,"time":7.857135000000004,"velocity":0.7874015748031497,"duration":0.11408718750000002},{"name":"D#3","midi":51,"time":7.976182500000004,"velocity":0.7874015748031497,"duration":0.11408718749999913},{"name":"D#3","midi":51,"time":8.214277500000003,"velocity":0.7874015748031497,"duration":0.11408718749999913},{"name":"D#4","midi":63,"time":8.333325000000002,"velocity":0.7874015748031497,"duration":0.11408718749999913},{"name":"F#4","midi":66,"time":8.333325000000002,"velocity":0.7874015748031497,"duration":0.11408718749999913},{"name":"C4","midi":60,"time":8.571420000000002,"velocity":0.7874015748031497,"duration":0.11408718749999913},{"name":"G4","midi":67,"time":8.809515000000001,"velocity":0.7874015748031497,"duration":0.11408718749999913},{"name":"E4","midi":64,"time":8.809515000000001,"velocity":0.7874015748031497,"duration":0.11408718749999913},{"name":"G3","midi":55,"time":9.04761,"velocity":0.7874015748031497,"duration":0.11408718749999913},{"name":"E4","midi":64,"time":9.285705,"velocity":0.7874015748031497,"duration":0.11408718749999913},{"name":"G4","midi":67,"time":9.285705,"velocity":0.7874015748031497,"duration":0.11408718749999913},{"name":"C4","midi":60,"time":9.5238,"velocity":0.7874015748031497,"duration":0.11408718749999913},{"name":"G4","midi":67,"time":9.761894999999999,"velocity":0.7874015748031497,"duration":0.11408718749999913},{"name":"E4","midi":64,"time":9.761894999999999,"velocity":0.7874015748031497,"duration":0.11408718749999913},{"name":"G3","midi":55,"time":9.880942499999998,"velocity":0.7874015748031497,"duration":0.11408718749999913},{"name":"G3","midi":55,"time":10.119037499999997,"velocity":0.7874015748031497,"duration":0.11408718749999913},{"name":"G4","midi":67,"time":10.238084999999996,"velocity":0.7874015748031497,"duration":0.11408718749999913},{"name":"E4","midi":64,"time":10.238084999999996,"velocity":0.7874015748031497,"duration":0.11408718749999913},{"name":"C4","midi":60,"time":10.476179999999996,"velocity":0.7874015748031497,"duration":0.11408718749999913},{"name":"G4","midi":67,"time":10.714274999999995,"velocity":0.7874015748031497,"duration":0.11408718749999913},{"name":"E4","midi":64,"time":10.714274999999995,"velocity":0.7874015748031497,"duration":0.11408718749999913},{"name":"G3","midi":55,"time":10.833322499999994,"velocity":0.7874015748031497,"duration":0.11408718749999913},{"name":"G3","midi":55,"time":11.071417499999994,"velocity":0.7874015748031497,"duration":0.11408718749999913},{"name":"G4","midi":67,"time":11.190464999999993,"velocity":0.7874015748031497,"duration":0.11408718749999913},{"name":"E4","midi":64,"time":11.190464999999993,"velocity":0.7874015748031497,"duration":0.11408718749999913},{"name":"G#3","midi":56,"time":11.428559999999992,"velocity":0.7874015748031497,"duration":0.11408718749999913},{"name":"D#4","midi":63,"time":11.666654999999992,"velocity":0.7874015748031497,"duration":0.11408718749999913},{"name":"F#4","midi":66,"time":11.666654999999992,"velocity":0.7874015748031497,"duration":0.11408718749999913},{"name":"D#3","midi":51,"time":11.78570249999999,"velocity":0.7874015748031497,"duration":0.11408718749999913},{"name":"D#3","midi":51,"time":12.02379749999999,"velocity":0.7874015748031497,"duration":0.11408718749999913},{"name":"D#4","midi":63,"time":12.142844999999989,"velocity":0.7874015748031497,"duration":0.11408718749999913},{"name":"F#4","midi":66,"time":12.142844999999989,"velocity":0.7874015748031497,"duration":0.11408718749999913},{"name":"C4","midi":60,"time":12.380939999999988,"velocity":0.7874015748031497,"duration":0.11408718749999913},{"name":"G4","midi":67,"time":12.619034999999988,"velocity":0.7874015748031497,"duration":0.11408718749999913},{"name":"E4","midi":64,"time":12.619034999999988,"velocity":0.7874015748031497,"duration":0.11408718749999913},{"name":"G3","midi":55,"time":12.857129999999987,"velocity":0.7874015748031497,"duration":0.11408718749999913},{"name":"E4","midi":64,"time":13.095224999999987,"velocity":0.7874015748031497,"duration":0.11408718749999913},{"name":"G4","midi":67,"time":13.095224999999987,"velocity":0.7874015748031497,"duration":0.11408718749999913},{"name":"C4","midi":60,"time":13.333319999999986,"velocity":0.7874015748031497,"duration":0.11408718749999913},{"name":"G4","midi":67,"time":13.571414999999986,"velocity":0.7874015748031497,"duration":0.11408718749999913},{"name":"E4","midi":64,"time":13.571414999999986,"velocity":0.7874015748031497,"duration":0.11408718749999913},{"name":"G3","midi":55,"time":13.690462499999985,"velocity":0.7874015748031497,"duration":0.11408718749999913},{"name":"G3","midi":55,"time":13.928557499999984,"velocity":0.7874015748031497,"duration":0.11408718749999913},{"name":"G4","midi":67,"time":14.047604999999983,"velocity":0.7874015748031497,"duration":0.11408718749999913},{"name":"E4","midi":64,"time":14.047604999999983,"velocity":0.7874015748031497,"duration":0.11408718749999913},{"name":"C4","midi":60,"time":14.285699999999983,"velocity":0.7874015748031497,"duration":0.11408718749999913},{"name":"G4","midi":67,"time":14.523794999999982,"velocity":0.7874015748031497,"duration":0.11408718749999913},{"name":"E4","midi":64,"time":14.523794999999982,"velocity":0.7874015748031497,"duration":0.11408718749999913},{"name":"G3","midi":55,"time":14.64284249999998,"velocity":0.7874015748031497,"duration":0.11408718749999913},{"name":"G3","midi":55,"time":14.88093749999998,"velocity":0.7874015748031497,"duration":0.11408718749999913},{"name":"G4","midi":67,"time":14.99998499999998,"velocity":0.7874015748031497,"duration":0.11408718749999913},{"name":"E4","midi":64,"time":14.99998499999998,"velocity":0.7874015748031497,"duration":0.11408718749999913},{"name":"C#4","midi":61,"time":15.238079999999979,"velocity":0.7874015748031497,"duration":0.11408718749999913},{"name":"G#4","midi":68,"time":15.476174999999978,"velocity":0.7874015748031497,"duration":0.11408718749999913},{"name":"F4","midi":65,"time":15.476174999999978,"velocity":0.7874015748031497,"duration":0.11408718749999913},{"name":"G3","midi":55,"time":15.595222499999977,"velocity":0.7874015748031497,"duration":0.11408718749999913},{"name":"G3","midi":55,"time":15.833317499999977,"velocity":0.7874015748031497,"duration":0.11408718749999913},{"name":"G4","midi":67,"time":15.952364999999975,"velocity":0.7874015748031497,"duration":0.11408718750000091},{"name":"F4","midi":65,"time":15.952364999999975,"velocity":0.7874015748031497,"duration":0.11408718750000091},{"name":"C4","midi":60,"time":16.190459999999977,"velocity":0.7874015748031497,"duration":0.11408718750000091},{"name":"G4","midi":67,"time":16.428554999999978,"velocity":0.7874015748031497,"duration":0.11408718750000091},{"name":"E4","midi":64,"time":16.428554999999978,"velocity":0.7874015748031497,"duration":0.11408718750000091},{"name":"G3","midi":55,"time":16.66664999999998,"velocity":0.7874015748031497,"duration":0.11408718750000091},{"name":"E4","midi":64,"time":16.90474499999998,"velocity":0.7874015748031497,"duration":0.11408718750000091},{"name":"G4","midi":67,"time":16.90474499999998,"velocity":0.7874015748031497,"duration":0.11408718750000091},{"name":"F#3","midi":54,"time":17.142839999999982,"velocity":0.7874015748031497,"duration":0.11408718750000091},{"name":"A#4","midi":70,"time":17.380934999999983,"velocity":0.7874015748031497,"duration":0.11408718750000091},{"name":"F#4","midi":66,"time":17.380934999999983,"velocity":0.7874015748031497,"duration":0.11408718750000091},{"name":"C#4","midi":61,"time":17.499982499999984,"velocity":0.7874015748031497,"duration":0.11408718750000091},{"name":"C#4","midi":61,"time":17.738077499999985,"velocity":0.7874015748031497,"duration":0.11408718750000091},{"name":"A#4","midi":70,"time":17.857124999999986,"velocity":0.7874015748031497,"duration":0.11408718750000091},{"name":"F#4","midi":66,"time":17.857124999999986,"velocity":0.7874015748031497,"duration":0.11408718750000091},{"name":"B3","midi":59,"time":18.095219999999987,"velocity":0.7874015748031497,"duration":0.11408718750000091},{"name":"D#4","midi":63,"time":18.33331499999999,"velocity":0.7874015748031497,"duration":0.11408718750000091},{"name":"F#4","midi":66,"time":18.33331499999999,"velocity":0.7874015748031497,"duration":0.11408718750000091},{"name":"F#3","midi":54,"time":18.45236249999999,"velocity":0.7874015748031497,"duration":0.11408718750000091},{"name":"F#3","midi":54,"time":18.69045749999999,"velocity":0.7874015748031497,"duration":0.11408718750000091},{"name":"D#4","midi":63,"time":18.80950499999999,"velocity":0.7874015748031497,"duration":0.11408718750000091},{"name":"F#4","midi":66,"time":18.80950499999999,"velocity":0.7874015748031497,"duration":0.11408718750000091},{"name":"F3","midi":53,"time":19.047599999999992,"velocity":0.7874015748031497,"duration":0.11408718750000091},{"name":"F4","midi":65,"time":19.285694999999993,"velocity":0.7874015748031497,"duration":0.11408718750000091},{"name":"A4","midi":69,"time":19.285694999999993,"velocity":0.7874015748031497,"duration":0.11408718750000091},{"name":"C4","midi":60,"time":19.404742499999994,"velocity":0.7874015748031497,"duration":0.11408718750000091},{"name":"C4","midi":60,"time":19.642837499999995,"velocity":0.7874015748031497,"duration":0.11408718750000091},{"name":"F4","midi":65,"time":19.761884999999996,"velocity":0.7874015748031497,"duration":0.11408718750000091},{"name":"A4","midi":69,"time":19.761884999999996,"velocity":0.7874015748031497,"duration":0.11408718750000091},{"name":"A#3","midi":58,"time":19.999979999999997,"velocity":0.7874015748031497,"duration":0.11408718750000091},{"name":"D4","midi":62,"time":20.238075,"velocity":0.7874015748031497,"duration":0.11408718750000091},{"name":"F4","midi":65,"time":20.238075,"velocity":0.7874015748031497,"duration":0.11408718750000091},{"name":"F3","midi":53,"time":20.3571225,"velocity":0.7874015748031497,"duration":0.11408718750000091},{"name":"F3","midi":53,"time":20.5952175,"velocity":0.7874015748031497,"duration":0.11408718750000091},{"name":"D4","midi":62,"time":20.714265,"velocity":0.7874015748031497,"duration":0.11408718750000091},{"name":"F4","midi":65,"time":20.714265,"velocity":0.7874015748031497,"duration":0.11408718750000091},{"name":"D#3","midi":51,"time":20.952360000000002,"velocity":0.7874015748031497,"duration":0.11408718750000091},{"name":"D#4","midi":63,"time":21.190455000000004,"velocity":0.7874015748031497,"duration":0.11408718750000091},{"name":"G4","midi":67,"time":21.190455000000004,"velocity":0.7874015748031497,"duration":0.11408718750000091},{"name":"A#3","midi":58,"time":21.309502500000004,"velocity":0.7874015748031497,"duration":0.11408718750000091},{"name":"A#3","midi":58,"time":21.547597500000006,"velocity":0.7874015748031497,"duration":0.11408718750000091},{"name":"D#4","midi":63,"time":21.666645000000006,"velocity":0.7874015748031497,"duration":0.11408718750000091},{"name":"G4","midi":67,"time":21.666645000000006,"velocity":0.7874015748031497,"duration":0.11408718750000091},{"name":"G#3","midi":56,"time":21.904740000000007,"velocity":0.7874015748031497,"duration":0.11408718750000091},{"name":"D#4","midi":63,"time":22.14283500000001,"velocity":0.7874015748031497,"duration":0.11408718750000091},{"name":"C4","midi":60,"time":22.14283500000001,"velocity":0.7874015748031497,"duration":0.11408718750000091},{"name":"D#3","midi":51,"time":22.26188250000001,"velocity":0.7874015748031497,"duration":0.11408718750000091},{"name":"D#3","midi":51,"time":22.49997750000001,"velocity":0.7874015748031497,"duration":0.11408718750000091},{"name":"D#4","midi":63,"time":22.61902500000001,"velocity":0.7874015748031497,"duration":0.11408718750000091},{"name":"C4","midi":60,"time":22.61902500000001,"velocity":0.7874015748031497,"duration":0.11408718750000091},{"name":"G3","midi":55,"time":22.857120000000013,"velocity":0.7874015748031497,"duration":0.11408718750000091},{"name":"D4","midi":62,"time":23.095215000000014,"velocity":0.7874015748031497,"duration":0.11408718750000091},{"name":"B3","midi":59,"time":23.095215000000014,"velocity":0.7874015748031497,"duration":0.11408718750000091},{"name":"D3","midi":50,"time":23.214262500000014,"velocity":0.7874015748031497,"duration":0.11408718750000091},{"name":"D3","midi":50,"time":23.452357500000016,"velocity":0.7874015748031497,"duration":0.11408718750000091},{"name":"D4","midi":62,"time":23.571405000000016,"velocity":0.7874015748031497,"duration":0.11408718750000091},{"name":"B3","midi":59,"time":23.571405000000016,"velocity":0.7874015748031497,"duration":0.11408718750000091},{"name":"G3","midi":55,"time":23.809500000000018,"velocity":0.7874015748031497,"duration":0.11408718750000091},{"name":"D4","midi":62,"time":24.04759500000002,"velocity":0.7874015748031497,"duration":0.11408718750000091},{"name":"B3","midi":59,"time":24.04759500000002,"velocity":0.7874015748031497,"duration":0.11408718750000091},{"name":"D3","midi":50,"time":24.16664250000002,"velocity":0.7874015748031497,"duration":0.11408718750000091},{"name":"D3","midi":50,"time":24.40473750000002,"velocity":0.7874015748031497,"duration":0.11408718750000091},{"name":"D4","midi":62,"time":24.52378500000002,"velocity":0.7874015748031497,"duration":0.11408718750000091},{"name":"B3","midi":59,"time":24.52378500000002,"velocity":0.7874015748031497,"duration":0.11408718750000091},{"name":"C4","midi":60,"time":24.761880000000023,"velocity":0.7874015748031497,"duration":0.11408718750000091},{"name":"G4","midi":67,"time":24.999975000000024,"velocity":0.7874015748031497,"duration":0.11408718750000091},{"name":"E4","midi":64,"time":24.999975000000024,"velocity":0.7874015748031497,"duration":0.11408718750000091},{"name":"G3","midi":55,"time":25.119022500000025,"velocity":0.7874015748031497,"duration":0.11408718750000091},{"name":"G3","midi":55,"time":25.357117500000026,"velocity":0.7874015748031497,"duration":0.11408718750000091},{"name":"G4","midi":67,"time":25.476165000000027,"velocity":0.7874015748031497,"duration":0.11408718750000091},{"name":"E4","midi":64,"time":25.476165000000027,"velocity":0.7874015748031497,"duration":0.11408718750000091},{"name":"C4","midi":60,"time":25.714260000000028,"velocity":0.7874015748031497,"duration":0.11408718750000091},{"name":"G4","midi":67,"time":25.95235500000003,"velocity":0.7874015748031497,"duration":0.11408718750000091},{"name":"E4","midi":64,"time":25.95235500000003,"velocity":0.7874015748031497,"duration":0.11408718750000091},{"name":"G3","midi":55,"time":26.07140250000003,"velocity":0.7874015748031497,"duration":0.11408718750000091},{"name":"G3","midi":55,"time":26.30949750000003,"velocity":0.7874015748031497,"duration":0.11408718750000091},{"name":"G4","midi":67,"time":26.42854500000003,"velocity":0.7874015748031497,"duration":0.11408718750000091},{"name":"E4","midi":64,"time":26.42854500000003,"velocity":0.7874015748031497,"duration":0.11408718750000091},{"name":"G#3","midi":56,"time":26.666640000000033,"velocity":0.7874015748031497,"duration":0.11408718750000091},{"name":"D#4","midi":63,"time":26.904735000000034,"velocity":0.7874015748031497,"duration":0.11408718750000091},{"name":"F#4","midi":66,"time":26.904735000000034,"velocity":0.7874015748031497,"duration":0.11408718750000091},{"name":"D#3","midi":51,"time":27.023782500000035,"velocity":0.7874015748031497,"duration":0.11408718750000091},{"name":"D#3","midi":51,"time":27.261877500000036,"velocity":0.7874015748031497,"duration":0.11408718750000091},{"name":"D#4","midi":63,"time":27.380925000000037,"velocity":0.7874015748031497,"duration":0.11408718750000091},{"name":"F#4","midi":66,"time":27.380925000000037,"velocity":0.7874015748031497,"duration":0.11408718750000091},{"name":"C4","midi":60,"time":27.619020000000038,"velocity":0.7874015748031497,"duration":0.11408718750000091},{"name":"G4","midi":67,"time":27.85711500000004,"velocity":0.7874015748031497,"duration":0.11408718750000091},{"name":"E4","midi":64,"time":27.85711500000004,"velocity":0.7874015748031497,"duration":0.11408718750000091},{"name":"G3","midi":55,"time":28.09521000000004,"velocity":0.7874015748031497,"duration":0.11408718750000091},{"name":"E4","midi":64,"time":28.333305000000042,"velocity":0.7874015748031497,"duration":0.11408718750000091},{"name":"G4","midi":67,"time":28.333305000000042,"velocity":0.7874015748031497,"duration":0.11408718750000091},{"name":"C4","midi":60,"time":28.571400000000043,"velocity":0.7874015748031497,"duration":0.11408718750000091},{"name":"G4","midi":67,"time":28.809495000000044,"velocity":0.7874015748031497,"duration":0.11408718750000091},{"name":"E4","midi":64,"time":28.809495000000044,"velocity":0.7874015748031497,"duration":0.11408718750000091},{"name":"G3","midi":55,"time":28.928542500000045,"velocity":0.7874015748031497,"duration":0.11408718750000091},{"name":"G3","midi":55,"time":29.166637500000046,"velocity":0.7874015748031497,"duration":0.11408718750000091},{"name":"G4","midi":67,"time":29.285685000000047,"velocity":0.7874015748031497,"duration":0.11408718750000091},{"name":"E4","midi":64,"time":29.285685000000047,"velocity":0.7874015748031497,"duration":0.11408718750000091},{"name":"C4","midi":60,"time":29.52378000000005,"velocity":0.7874015748031497,"duration":0.11408718750000091},{"name":"G4","midi":67,"time":29.76187500000005,"velocity":0.7874015748031497,"duration":0.11408718750000091},{"name":"E4","midi":64,"time":29.76187500000005,"velocity":0.7874015748031497,"duration":0.11408718750000091},{"name":"G3","midi":55,"time":29.88092250000005,"velocity":0.7874015748031497,"duration":0.11408718750000091},{"name":"G3","midi":55,"time":30.11901750000005,"velocity":0.7874015748031497,"duration":0.11408718750000091},{"name":"G4","midi":67,"time":30.238065000000052,"velocity":0.7874015748031497,"duration":0.11408718750000091},{"name":"E4","midi":64,"time":30.238065000000052,"velocity":0.7874015748031497,"duration":0.11408718750000091},{"name":"G#3","midi":56,"time":30.476160000000053,"velocity":0.7874015748031497,"duration":0.11408718750000091},{"name":"D#4","midi":63,"time":30.714255000000055,"velocity":0.7874015748031497,"duration":0.11408718750000091},{"name":"F#4","midi":66,"time":30.714255000000055,"velocity":0.7874015748031497,"duration":0.11408718750000091},{"name":"D#3","midi":51,"time":30.833302500000055,"velocity":0.7874015748031497,"duration":0.11408718750000091},{"name":"D#3","midi":51,"time":31.071397500000057,"velocity":0.7874015748031497,"duration":0.11408718750000091},{"name":"D#4","midi":63,"time":31.190445000000057,"velocity":0.7874015748031497,"duration":0.11408718750000091},{"name":"F#4","midi":66,"time":31.190445000000057,"velocity":0.7874015748031497,"duration":0.11408718750000091},{"name":"C4","midi":60,"time":31.42854000000006,"velocity":0.7874015748031497,"duration":0.11408718750000091},{"name":"G4","midi":67,"time":31.66663500000006,"velocity":0.7874015748031497,"duration":0.11408718750000091},{"name":"E4","midi":64,"time":31.66663500000006,"velocity":0.7874015748031497,"duration":0.11408718750000091},{"name":"G3","midi":55,"time":31.90473000000006,"velocity":0.7874015748031497,"duration":0.11408718750000091},{"name":"E4","midi":64,"time":32.14282500000006,"velocity":0.7874015748031497,"duration":0.11408718749999736},{"name":"G4","midi":67,"time":32.14282500000006,"velocity":0.7874015748031497,"duration":0.11408718749999736},{"name":"C4","midi":60,"time":32.38092000000005,"velocity":0.7874015748031497,"duration":0.11408718749999736},{"name":"G4","midi":67,"time":32.61901500000005,"velocity":0.7874015748031497,"duration":0.11408718749999736},{"name":"E4","midi":64,"time":32.61901500000005,"velocity":0.7874015748031497,"duration":0.11408718749999736},{"name":"G3","midi":55,"time":32.73806250000005,"velocity":0.7874015748031497,"duration":0.11408718749999736},{"name":"G3","midi":55,"time":32.97615750000004,"velocity":0.7874015748031497,"duration":0.11408718749999736},{"name":"G4","midi":67,"time":33.09520500000004,"velocity":0.7874015748031497,"duration":0.11408718749999736},{"name":"E4","midi":64,"time":33.09520500000004,"velocity":0.7874015748031497,"duration":0.11408718749999736},{"name":"C4","midi":60,"time":33.33330000000004,"velocity":0.7874015748031497,"duration":0.11408718749999736},{"name":"G4","midi":67,"time":33.57139500000003,"velocity":0.7874015748031497,"duration":0.11408718749999736},{"name":"E4","midi":64,"time":33.57139500000003,"velocity":0.7874015748031497,"duration":0.11408718749999736},{"name":"G3","midi":55,"time":33.69044250000003,"velocity":0.7874015748031497,"duration":0.11408718749999736},{"name":"G3","midi":55,"time":33.928537500000026,"velocity":0.7874015748031497,"duration":0.11408718749999736},{"name":"G4","midi":67,"time":34.047585000000026,"velocity":0.7874015748031497,"duration":0.11408718749999736},{"name":"E4","midi":64,"time":34.047585000000026,"velocity":0.7874015748031497,"duration":0.11408718749999736},{"name":"G#3","midi":56,"time":34.28568000000002,"velocity":0.7874015748031497,"duration":0.11408718749999736},{"name":"D#4","midi":63,"time":34.523775000000015,"velocity":0.7874015748031497,"duration":0.11408718749999736},{"name":"F#4","midi":66,"time":34.523775000000015,"velocity":0.7874015748031497,"duration":0.11408718749999736},{"name":"D#3","midi":51,"time":34.642822500000015,"velocity":0.7874015748031497,"duration":0.11408718749999736},{"name":"D#3","midi":51,"time":34.88091750000001,"velocity":0.7874015748031497,"duration":0.11408718749999736},{"name":"D#4","midi":63,"time":34.99996500000001,"velocity":0.7874015748031497,"duration":0.11408718749999736},{"name":"F#4","midi":66,"time":34.99996500000001,"velocity":0.7874015748031497,"duration":0.11408718749999736},{"name":"C4","midi":60,"time":35.238060000000004,"velocity":0.7874015748031497,"duration":0.11408718749999736},{"name":"G4","midi":67,"time":35.476155,"velocity":0.7874015748031497,"duration":0.11408718749999736},{"name":"E4","midi":64,"time":35.476155,"velocity":0.7874015748031497,"duration":0.11408718749999736},{"name":"G3","midi":55,"time":35.71424999999999,"velocity":0.7874015748031497,"duration":0.11408718749999736},{"name":"E4","midi":64,"time":35.95234499999999,"velocity":0.7874015748031497,"duration":0.11408718749999736},{"name":"G4","midi":67,"time":35.95234499999999,"velocity":0.7874015748031497,"duration":0.11408718749999736},{"name":"C4","midi":60,"time":36.19043999999998,"velocity":0.7874015748031497,"duration":0.11408718749999736},{"name":"G4","midi":67,"time":36.428534999999975,"velocity":0.7874015748031497,"duration":0.11408718749999736},{"name":"E4","midi":64,"time":36.428534999999975,"velocity":0.7874015748031497,"duration":0.11408718749999736},{"name":"G3","midi":55,"time":36.547582499999976,"velocity":0.7874015748031497,"duration":0.11408718749999736},{"name":"G3","midi":55,"time":36.78567749999997,"velocity":0.7874015748031497,"duration":0.11408718749999736},{"name":"G4","midi":67,"time":36.90472499999997,"velocity":0.7874015748031497,"duration":0.11408718749999736},{"name":"E4","midi":64,"time":36.90472499999997,"velocity":0.7874015748031497,"duration":0.11408718749999736},{"name":"C4","midi":60,"time":37.142819999999965,"velocity":0.7874015748031497,"duration":0.11408718749999736},{"name":"G4","midi":67,"time":37.38091499999996,"velocity":0.7874015748031497,"duration":0.11408718749999736},{"name":"E4","midi":64,"time":37.38091499999996,"velocity":0.7874015748031497,"duration":0.11408718749999736},{"name":"G3","midi":55,"time":37.49996249999996,"velocity":0.7874015748031497,"duration":0.11408718749999736},{"name":"G3","midi":55,"time":37.738057499999954,"velocity":0.7874015748031497,"duration":0.11408718749999736},{"name":"G4","midi":67,"time":37.857104999999954,"velocity":0.7874015748031497,"duration":0.11408718749999736},{"name":"E4","midi":64,"time":37.857104999999954,"velocity":0.7874015748031497,"duration":0.11408718749999736},{"name":"C#4","midi":61,"time":38.09519999999995,"velocity":0.7874015748031497,"duration":0.11408718749999736},{"name":"G#4","midi":68,"time":38.33329499999994,"velocity":0.7874015748031497,"duration":0.11408718749999736},{"name":"F4","midi":65,"time":38.33329499999994,"velocity":0.7874015748031497,"duration":0.11408718749999736},{"name":"G3","midi":55,"time":38.45234249999994,"velocity":0.7874015748031497,"duration":0.11408718749999736},{"name":"G3","midi":55,"time":38.69043749999994,"velocity":0.7874015748031497,"duration":0.11408718749999736},{"name":"G4","midi":67,"time":38.80948499999994,"velocity":0.7874015748031497,"duration":0.11408718749999736},{"name":"F4","midi":65,"time":38.80948499999994,"velocity":0.7874015748031497,"duration":0.11408718749999736},{"name":"C4","midi":60,"time":39.04757999999993,"velocity":0.7874015748031497,"duration":0.11408718749999736},{"name":"G4","midi":67,"time":39.28567499999993,"velocity":0.7874015748031497,"duration":0.11408718749999736},{"name":"E4","midi":64,"time":39.28567499999993,"velocity":0.7874015748031497,"duration":0.11408718749999736},{"name":"G3","midi":55,"time":39.52376999999992,"velocity":0.7874015748031497,"duration":0.11408718749999736},{"name":"E4","midi":64,"time":39.761864999999915,"velocity":0.7874015748031497,"duration":0.11408718749999736},{"name":"G4","midi":67,"time":39.761864999999915,"velocity":0.7874015748031497,"duration":0.11408718749999736},{"name":"F#4","midi":66,"time":39.99995999999991,"velocity":0.8661417322834646,"duration":0.11408718749999736},{"name":"G#4","midi":68,"time":40.357102499999904,"velocity":0.8661417322834646,"duration":0.11408718749999736},{"name":"A#4","midi":70,"time":40.476149999999905,"velocity":0.8661417322834646,"duration":0.11408718749999736},{"name":"G#4","midi":68,"time":40.7142449999999,"velocity":0.8661417322834646,"duration":0.11408718749999736},{"name":"F#4","midi":66,"time":40.95233999999989,"velocity":0.8661417322834646,"duration":0.11408718749999736},{"name":"F4","midi":65,"time":41.071387499999894,"velocity":0.8661417322834646,"duration":0.11408718749999736},{"name":"F#4","midi":66,"time":41.190434999999894,"velocity":0.8661417322834646,"duration":0.11408718749999736},{"name":"F4","midi":65,"time":41.309482499999895,"velocity":0.8661417322834646,"duration":0.11408718749999736},{"name":"F#4","midi":66,"time":41.428529999999895,"velocity":0.8661417322834646,"duration":0.11408718749999736},{"name":"C#4","midi":61,"time":41.66662499999989,"velocity":0.8661417322834646,"duration":0.11408718749999736},{"name":"D4","midi":62,"time":41.904719999999884,"velocity":0.8661417322834646,"duration":0.11408718749999736},{"name":"E4","midi":64,"time":42.26186249999988,"velocity":0.8661417322834646,"duration":0.11408718749999736},{"name":"F#4","midi":66,"time":42.38090999999988,"velocity":0.8661417322834646,"duration":0.11408718749999736},{"name":"E4","midi":64,"time":42.61900499999987,"velocity":0.8661417322834646,"duration":0.11408718749999736},{"name":"D4","midi":62,"time":42.738052499999874,"velocity":0.8661417322834646,"duration":0.11408718749999736},{"name":"C#4","midi":61,"time":42.857099999999875,"velocity":0.8661417322834646,"duration":0.11408718749999736},{"name":"B3","midi":59,"time":43.80947999999987,"velocity":0.8661417322834646,"duration":0.11408718749999736},{"name":"C#4","midi":61,"time":44.16662249999987,"velocity":0.8661417322834646,"duration":0.11408718749999736},{"name":"D#4","midi":63,"time":44.28566999999987,"velocity":0.8661417322834646,"duration":0.11408718749999736},{"name":"C#4","midi":61,"time":44.52376499999986,"velocity":0.8661417322834646,"duration":0.11408718749999736},{"name":"B3","midi":59,"time":44.64281249999986,"velocity":0.8661417322834646,"duration":0.11408718749999736},{"name":"C#4","midi":61,"time":44.761859999999864,"velocity":0.8661417322834646,"duration":0.11408718749999736},{"name":"F#4","midi":66,"time":44.99995499999986,"velocity":0.8661417322834646,"duration":0.11408718749999736},{"name":"F#3","midi":54,"time":45.23804999999985,"velocity":0.8661417322834646,"duration":0.11408718749999736},{"name":"G#3","midi":56,"time":45.71423999999985,"velocity":0.8661417322834646,"duration":0.11408718749999736},{"name":"G#3","midi":56,"time":46.07138249999984,"velocity":0.8661417322834646,"duration":0.11408718749999736},{"name":"G#3","midi":56,"time":46.19042999999984,"velocity":0.8661417322834646,"duration":0.11408718749999736},{"name":"G3","midi":55,"time":46.42852499999984,"velocity":0.8661417322834646,"duration":0.11408718749999736},{"name":"G#3","midi":56,"time":46.54757249999984,"velocity":0.8661417322834646,"duration":0.11408718749999736},{"name":"C#4","midi":61,"time":46.66661999999984,"velocity":0.8661417322834646,"duration":0.11408718749999736},{"name":"F#4","midi":66,"time":47.618999999999836,"velocity":0.8661417322834646,"duration":0.11408718749999736},{"name":"G#4","midi":68,"time":47.97614249999983,"velocity":0.8661417322834646,"duration":0.11408718749999736},{"name":"A#4","midi":70,"time":48.09518999999983,"velocity":0.8661417322834646,"duration":0.11408718749999736},{"name":"G#4","midi":68,"time":48.333284999999826,"velocity":0.8661417322834646,"duration":0.11408718749999736},{"name":"F#4","midi":66,"time":48.57137999999982,"velocity":0.8661417322834646,"duration":0.11408718749999736},{"name":"F4","midi":65,"time":48.69042749999982,"velocity":0.8661417322834646,"duration":0.11408718749999736},{"name":"F#4","midi":66,"time":48.80947499999982,"velocity":0.8661417322834646,"duration":0.11408718749999736},{"name":"F4","midi":65,"time":48.92852249999982,"velocity":0.8661417322834646,"duration":0.11408718749999736},{"name":"F#4","midi":66,"time":49.04756999999982,"velocity":0.8661417322834646,"duration":0.11408718749999736},{"name":"C#4","midi":61,"time":49.28566499999982,"velocity":0.8661417322834646,"duration":0.11408718749999736},{"name":"C4","midi":60,"time":49.52375999999981,"velocity":0.8661417322834646,"duration":0.11408718749999736},{"name":"D4","midi":62,"time":49.880902499999806,"velocity":0.8661417322834646,"duration":0.11408718749999736},{"name":"E4","midi":64,"time":49.99994999999981,"velocity":0.8661417322834646,"duration":0.11408718749999736},{"name":"G4","midi":67,"time":50.2380449999998,"velocity":0.8661417322834646,"duration":0.11408718749999736},{"name":"C5","midi":72,"time":50.476139999999795,"velocity":0.8661417322834646,"duration":0.11408718749999736},{"name":"B4","midi":71,"time":50.595187499999795,"velocity":0.8661417322834646,"duration":0.11408718749999736},{"name":"C5","midi":72,"time":50.714234999999796,"velocity":0.8661417322834646,"duration":0.11408718749999736},{"name":"D5","midi":74,"time":50.8332824999998,"velocity":0.8661417322834646,"duration":0.11408718749999736},{"name":"C5","midi":72,"time":50.9523299999998,"velocity":0.8661417322834646,"duration":0.11408718749999736},{"name":"C#5","midi":73,"time":51.42851999999979,"velocity":0.8661417322834646,"duration":0.11408718749999736},{"name":"D#5","midi":75,"time":51.78566249999979,"velocity":0.8661417322834646,"duration":0.11408718749999736},{"name":"C#5","midi":73,"time":51.90470999999979,"velocity":0.8661417322834646,"duration":0.11408718749999736},{"name":"G#4","midi":68,"time":52.14280499999978,"velocity":0.8661417322834646,"duration":0.11408718749999736},{"name":"G4","midi":67,"time":52.38089999999978,"velocity":0.8661417322834646,"duration":0.11408718749999736},{"name":"A4","midi":69,"time":52.61899499999977,"velocity":0.8661417322834646,"duration":0.11408718749999736},{"name":"B4","midi":71,"time":52.857089999999765,"velocity":0.8661417322834646,"duration":0.11408718749999736},{"name":"D5","midi":74,"time":53.09518499999976,"velocity":0.8661417322834646,"duration":0.11408718749999736},{"name":"C5","midi":72,"time":53.33327999999975,"velocity":0.8661417322834646,"duration":0.11408718749999736},{"name":"G4","midi":67,"time":53.57137499999975,"velocity":0.8661417322834646,"duration":0.07440468749999951},{"name":"F#4","midi":66,"time":53.65073999999975,"velocity":0.8661417322834646,"duration":0.07440468749999951},{"name":"G4","midi":67,"time":53.73010499999975,"velocity":0.8661417322834646,"duration":0.07440468749999951},{"name":"G#4","midi":68,"time":53.809469999999756,"velocity":0.8661417322834646,"duration":0.11408718749999736},{"name":"G4","midi":67,"time":54.04756499999975,"velocity":0.8661417322834646,"duration":0.11408718749999736},{"name":"C4","midi":60,"time":54.285659999999744,"velocity":0.8661417322834646,"duration":0.11408718749999736},{"name":"A#3","midi":58,"time":55.23803999999974,"velocity":0.6299212598425197,"duration":0.07440468749999951},{"name":"C#4","midi":61,"time":55.317404999999745,"velocity":0.6299212598425197,"duration":0.07440468749999951},{"name":"A#3","midi":58,"time":55.39676999999975,"velocity":0.6299212598425197,"duration":0.07440468749999951},{"name":"C#4","midi":61,"time":55.47613499999975,"velocity":0.6299212598425197,"duration":0.07440468749999951},{"name":"A#3","midi":58,"time":55.55549999999975,"velocity":0.6299212598425197,"duration":0.07440468749999951},{"name":"C#4","midi":61,"time":55.634864999999756,"velocity":0.6299212598425197,"duration":0.07440468749999951},{"name":"A#3","midi":58,"time":55.71422999999976,"velocity":0.6299212598425197,"duration":0.07440468749999951},{"name":"C#4","midi":61,"time":55.79359499999976,"velocity":0.6299212598425197,"duration":0.07440468749999951},{"name":"A#3","midi":58,"time":55.872959999999765,"velocity":0.6299212598425197,"duration":0.07440468749999951},{"name":"C#4","midi":61,"time":55.95232499999977,"velocity":0.6299212598425197,"duration":0.07440468749999951},{"name":"A#3","midi":58,"time":56.03168999999977,"velocity":0.6299212598425197,"duration":0.07440468749999951},{"name":"C#4","midi":61,"time":56.11105499999977,"velocity":0.6299212598425197,"duration":0.07440468749999951},{"name":"A#3","midi":58,"time":56.190419999999776,"velocity":0.6299212598425197,"duration":0.07440468749999951},{"name":"C#4","midi":61,"time":56.26978499999978,"velocity":0.6299212598425197,"duration":0.07440468749999951},{"name":"A#3","midi":58,"time":56.34914999999978,"velocity":0.6299212598425197,"duration":0.07440468749999951},{"name":"C#4","midi":61,"time":56.428514999999784,"velocity":0.6299212598425197,"duration":0.07440468749999951},{"name":"A#3","midi":58,"time":56.50787999999979,"velocity":0.6299212598425197,"duration":0.07440468749999951},{"name":"C#4","midi":61,"time":56.58724499999979,"velocity":0.6299212598425197,"duration":0.07440468749999951},{"name":"A#3","midi":58,"time":56.66660999999979,"velocity":0.6299212598425197,"duration":0.07440468749999951},{"name":"C#4","midi":61,"time":56.745974999999795,"velocity":0.6299212598425197,"duration":0.07440468749999951},{"name":"A#3","midi":58,"time":56.8253399999998,"velocity":0.6299212598425197,"duration":0.07440468749999951},{"name":"C#4","midi":61,"time":56.9047049999998,"velocity":0.6299212598425197,"duration":0.07440468749999951},{"name":"A#3","midi":58,"time":56.984069999999804,"velocity":0.6299212598425197,"duration":0.07440468749999951},{"name":"C#4","midi":61,"time":57.06343499999981,"velocity":0.6299212598425197,"duration":0.07440468749999951},{"name":"A3","midi":57,"time":57.14279999999981,"velocity":0.6299212598425197,"duration":0.07440468749999951},{"name":"C4","midi":60,"time":57.22216499999981,"velocity":0.6299212598425197,"duration":0.07440468749999951},{"name":"A3","midi":57,"time":57.301529999999815,"velocity":0.6299212598425197,"duration":0.07440468749999951},{"name":"C4","midi":60,"time":57.38089499999982,"velocity":0.6299212598425197,"duration":0.07440468749999951},{"name":"A3","midi":57,"time":57.46025999999982,"velocity":0.6299212598425197,"duration":0.07440468749999951},{"name":"C4","midi":60,"time":57.53962499999982,"velocity":0.6299212598425197,"duration":0.07440468749999951},{"name":"A3","midi":57,"time":57.618989999999826,"velocity":0.6299212598425197,"duration":0.07440468749999951},{"name":"C4","midi":60,"time":57.69835499999983,"velocity":0.6299212598425197,"duration":0.07440468749999951},{"name":"A3","midi":57,"time":57.77771999999983,"velocity":0.6299212598425197,"duration":0.07440468749999951},{"name":"C4","midi":60,"time":57.857084999999834,"velocity":0.6299212598425197,"duration":0.07440468749999951},{"name":"A3","midi":57,"time":57.93644999999984,"velocity":0.6299212598425197,"duration":0.07440468749999951},{"name":"C4","midi":60,"time":58.01581499999984,"velocity":0.6299212598425197,"duration":0.07440468749999951},{"name":"A#3","midi":58,"time":58.09517999999984,"velocity":0.6299212598425197,"duration":0.07440468749999951},{"name":"C#4","midi":61,"time":58.174544999999846,"velocity":0.6299212598425197,"duration":0.07440468749999951},{"name":"A#3","midi":58,"time":58.25390999999985,"velocity":0.6299212598425197,"duration":0.07440468749999951},{"name":"C#4","midi":61,"time":58.33327499999985,"velocity":0.6299212598425197,"duration":0.07440468749999951},{"name":"A#3","midi":58,"time":58.412639999999854,"velocity":0.6299212598425197,"duration":0.07440468749999951},{"name":"C#4","midi":61,"time":58.49200499999986,"velocity":0.6299212598425197,"duration":0.07440468749999951},{"name":"A#3","midi":58,"time":58.57136999999986,"velocity":0.6299212598425197,"duration":0.07440468749999951},{"name":"C#4","midi":61,"time":58.65073499999986,"velocity":0.6299212598425197,"duration":0.07440468749999951},{"name":"A#3","midi":58,"time":58.730099999999865,"velocity":0.6299212598425197,"duration":0.07440468749999951},{"name":"C#4","midi":61,"time":58.80946499999987,"velocity":0.6299212598425197,"duration":0.07440468749999951},{"name":"A#3","midi":58,"time":58.88882999999987,"velocity":0.6299212598425197,"duration":0.07440468749999951},{"name":"C#4","midi":61,"time":58.968194999999874,"velocity":0.6299212598425197,"duration":0.07440468749999951},{"name":"B3","midi":59,"time":59.047559999999876,"velocity":0.6299212598425197,"duration":0.07440468749999951},{"name":"D#4","midi":63,"time":59.12692499999988,"velocity":0.6299212598425197,"duration":0.07440468749999951},{"name":"B3","midi":59,"time":59.20628999999988,"velocity":0.6299212598425197,"duration":0.07440468749999951},{"name":"D#4","midi":63,"time":59.285654999999885,"velocity":0.6299212598425197,"duration":0.07440468749999951},{"name":"B3","midi":59,"time":59.36501999999989,"velocity":0.6299212598425197,"duration":0.07440468749999951},{"name":"D#4","midi":63,"time":59.44438499999989,"velocity":0.6299212598425197,"duration":0.07440468749999951},{"name":"B3","midi":59,"time":59.52374999999989,"velocity":0.6299212598425197,"duration":0.07440468749999951},{"name":"D#4","midi":63,"time":59.603114999999896,"velocity":0.6299212598425197,"duration":0.07440468749999951},{"name":"B3","midi":59,"time":59.6824799999999,"velocity":0.6299212598425197,"duration":0.07440468749999951},{"name":"D#4","midi":63,"time":59.7618449999999,"velocity":0.6299212598425197,"duration":0.07440468749999951},{"name":"B3","midi":59,"time":59.841209999999904,"velocity":0.6299212598425197,"duration":0.07440468749999951},{"name":"D#4","midi":63,"time":59.92057499999991,"velocity":0.6299212598425197,"duration":0.07440468749999951},{"name":"A#3","midi":58,"time":59.99993999999991,"velocity":0.6299212598425197,"duration":0.07440468749999951},{"name":"C#4","midi":61,"time":60.07930499999991,"velocity":0.6299212598425197,"duration":0.07440468749999951},{"name":"A#3","midi":58,"time":60.158669999999915,"velocity":0.6299212598425197,"duration":0.07440468749999951},{"name":"C#4","midi":61,"time":60.23803499999992,"velocity":0.6299212598425197,"duration":0.07440468749999951},{"name":"A#3","midi":58,"time":60.31739999999992,"velocity":0.6299212598425197,"duration":0.07440468749999951},{"name":"C#4","midi":61,"time":60.396764999999924,"velocity":0.6299212598425197,"duration":0.07440468749999951},{"name":"A#3","midi":58,"time":60.47612999999993,"velocity":0.6299212598425197,"duration":0.07440468749999951},{"name":"C#4","midi":61,"time":60.55549499999993,"velocity":0.6299212598425197,"duration":0.07440468749999951},{"name":"A#3","midi":58,"time":60.63485999999993,"velocity":0.6299212598425197,"duration":0.07440468749999951},{"name":"C#4","midi":61,"time":60.714224999999935,"velocity":0.6299212598425197,"duration":0.07440468749999951},{"name":"A#3","midi":58,"time":60.79358999999994,"velocity":0.6299212598425197,"duration":0.07440468749999951},{"name":"C#4","midi":61,"time":60.87295499999994,"velocity":0.6299212598425197,"duration":0.07440468749999951},{"name":"G#3","midi":56,"time":60.95231999999994,"velocity":0.6299212598425197,"duration":0.07440468749999951},{"name":"C4","midi":60,"time":61.031684999999946,"velocity":0.6299212598425197,"duration":0.07440468749999951},{"name":"G#3","midi":56,"time":61.11104999999995,"velocity":0.6299212598425197,"duration":0.07440468749999951},{"name":"C4","midi":60,"time":61.19041499999995,"velocity":0.6299212598425197,"duration":0.07440468749999951},{"name":"G#3","midi":56,"time":61.269779999999955,"velocity":0.6299212598425197,"duration":0.07440468749999951},{"name":"C4","midi":60,"time":61.34914499999996,"velocity":0.6299212598425197,"duration":0.07440468749999951},{"name":"G#3","midi":56,"time":61.42850999999996,"velocity":0.6299212598425197,"duration":0.07440468749999951},{"name":"C4","midi":60,"time":61.50787499999996,"velocity":0.6299212598425197,"duration":0.07440468749999951},{"name":"G#3","midi":56,"time":61.587239999999966,"velocity":0.6299212598425197,"duration":0.07440468749999951},{"name":"C4","midi":60,"time":61.66660499999997,"velocity":0.6299212598425197,"duration":0.07440468749999951},{"name":"G#3","midi":56,"time":61.74596999999997,"velocity":0.6299212598425197,"duration":0.07440468749999951},{"name":"C4","midi":60,"time":61.825334999999974,"velocity":0.6299212598425197,"duration":0.07440468749999951},{"name":"G#3","midi":56,"time":61.90469999999998,"velocity":0.6299212598425197,"duration":0.07440468749999951},{"name":"B3","midi":59,"time":61.98406499999998,"velocity":0.6299212598425197,"duration":0.07440468749999951},{"name":"G#3","midi":56,"time":62.06342999999998,"velocity":0.6299212598425197,"duration":0.07440468749999951},{"name":"B3","midi":59,"time":62.142794999999985,"velocity":0.6299212598425197,"duration":0.07440468749999951},{"name":"G#3","midi":56,"time":62.22215999999999,"velocity":0.6299212598425197,"duration":0.07440468749999951},{"name":"B3","midi":59,"time":62.30152499999999,"velocity":0.6299212598425197,"duration":0.07440468749999951},{"name":"G#3","midi":56,"time":62.380889999999994,"velocity":0.6299212598425197,"duration":0.07440468749999951},{"name":"B3","midi":59,"time":62.460255,"velocity":0.6299212598425197,"duration":0.07440468749999951},{"name":"G#3","midi":56,"time":62.53962,"velocity":0.6299212598425197,"duration":0.07440468749999951},{"name":"B3","midi":59,"time":62.618985,"velocity":0.6299212598425197,"duration":0.07440468749999951},{"name":"G#3","midi":56,"time":62.698350000000005,"velocity":0.6299212598425197,"duration":0.07440468749999951},{"name":"B3","midi":59,"time":62.77771500000001,"velocity":0.6299212598425197,"duration":0.07440468749999951},{"name":"A#3","midi":58,"time":62.85708000000001,"velocity":0.6299212598425197,"duration":0.07440468749999951},{"name":"C#4","midi":61,"time":62.93644500000001,"velocity":0.6299212598425197,"duration":0.07440468749999951},{"name":"A#3","midi":58,"time":63.015810000000016,"velocity":0.6299212598425197,"duration":0.07440468749999951},{"name":"C#4","midi":61,"time":63.09517500000002,"velocity":0.6299212598425197,"duration":0.07440468749999951},{"name":"A#3","midi":58,"time":63.17454000000002,"velocity":0.6299212598425197,"duration":0.07440468749999951},{"name":"C#4","midi":61,"time":63.253905000000024,"velocity":0.6299212598425197,"duration":0.07440468749999951},{"name":"A#3","midi":58,"time":63.33327000000003,"velocity":0.6299212598425197,"duration":0.07440468749999951},{"name":"C#4","midi":61,"time":63.41263500000003,"velocity":0.6299212598425197,"duration":0.07440468749999951},{"name":"A#3","midi":58,"time":63.49200000000003,"velocity":0.6299212598425197,"duration":0.07440468749999951},{"name":"C#4","midi":61,"time":63.571365000000036,"velocity":0.6299212598425197,"duration":0.07440468749999951},{"name":"A#3","midi":58,"time":63.65073000000004,"velocity":0.6299212598425197,"duration":0.07440468749999951},{"name":"C#4","midi":61,"time":63.73009500000004,"velocity":0.6299212598425197,"duration":0.07440468749999951},{"name":"A#3","midi":58,"time":63.809460000000044,"velocity":0.6299212598425197,"duration":0.07440468749999951},{"name":"C#4","midi":61,"time":63.88882500000005,"velocity":0.6299212598425197,"duration":0.07440468749999951},{"name":"A#3","midi":58,"time":63.96819000000005,"velocity":0.6299212598425197,"duration":0.07440468750000662},{"name":"C#4","midi":61,"time":64.04755500000006,"velocity":0.6299212598425197,"duration":0.07440468750000662},{"name":"A#3","midi":58,"time":64.12692000000007,"velocity":0.6299212598425197,"duration":0.07440468750000662},{"name":"C#4","midi":61,"time":64.20628500000008,"velocity":0.6299212598425197,"duration":0.07440468750000662},{"name":"A#3","midi":58,"time":64.28565000000009,"velocity":0.6299212598425197,"duration":0.07440468750000662},{"name":"C#4","midi":61,"time":64.3650150000001,"velocity":0.6299212598425197,"duration":0.07440468750000662},{"name":"A#3","midi":58,"time":64.44438000000011,"velocity":0.6299212598425197,"duration":0.07440468750000662},{"name":"C#4","midi":61,"time":64.52374500000012,"velocity":0.6299212598425197,"duration":0.07440468750000662},{"name":"A#3","midi":58,"time":64.60311000000013,"velocity":0.6299212598425197,"duration":0.07440468750000662},{"name":"C#4","midi":61,"time":64.68247500000014,"velocity":0.6299212598425197,"duration":0.07440468750000662},{"name":"A#3","midi":58,"time":64.76184000000015,"velocity":0.6299212598425197,"duration":0.07440468750000662},{"name":"D4","midi":62,"time":64.84120500000016,"velocity":0.6299212598425197,"duration":0.07440468750000662},{"name":"A#3","midi":58,"time":64.92057000000017,"velocity":0.6299212598425197,"duration":0.07440468750000662},{"name":"D4","midi":62,"time":64.99993500000018,"velocity":0.6299212598425197,"duration":0.07440468750000662},{"name":"A#3","midi":58,"time":65.07930000000019,"velocity":0.6299212598425197,"duration":0.07440468750000662},{"name":"D4","midi":62,"time":65.1586650000002,"velocity":0.6299212598425197,"duration":0.07440468750000662},{"name":"A#3","midi":58,"time":65.23803000000021,"velocity":0.6299212598425197,"duration":0.07440468750000662},{"name":"D4","midi":62,"time":65.31739500000022,"velocity":0.6299212598425197,"duration":0.07440468750000662},{"name":"A#3","midi":58,"time":65.39676000000023,"velocity":0.6299212598425197,"duration":0.07440468750000662},{"name":"D4","midi":62,"time":65.47612500000024,"velocity":0.6299212598425197,"duration":0.07440468750000662},{"name":"A#3","midi":58,"time":65.55549000000025,"velocity":0.6299212598425197,"duration":0.07440468750000662},{"name":"D4","midi":62,"time":65.63485500000026,"velocity":0.6299212598425197,"duration":0.07440468750000662},{"name":"A#3","midi":58,"time":65.71422000000027,"velocity":0.6299212598425197,"duration":0.07440468750000662},{"name":"D#4","midi":63,"time":65.79358500000028,"velocity":0.6299212598425197,"duration":0.07440468750000662},{"name":"A#3","midi":58,"time":65.87295000000029,"velocity":0.6299212598425197,"duration":0.07440468750000662},{"name":"D#4","midi":63,"time":65.9523150000003,"velocity":0.6299212598425197,"duration":0.07440468750000662},{"name":"A#3","midi":58,"time":66.0316800000003,"velocity":0.6299212598425197,"duration":0.07440468750000662},{"name":"D#4","midi":63,"time":66.11104500000032,"velocity":0.6299212598425197,"duration":0.07440468750000662},{"name":"A#3","midi":58,"time":66.19041000000033,"velocity":0.6299212598425197,"duration":0.07440468750000662},{"name":"D#4","midi":63,"time":66.26977500000034,"velocity":0.6299212598425197,"duration":0.07440468750000662},{"name":"A#3","midi":58,"time":66.34914000000035,"velocity":0.6299212598425197,"duration":0.07440468750000662},{"name":"D#4","midi":63,"time":66.42850500000036,"velocity":0.6299212598425197,"duration":0.07440468750000662},{"name":"A#3","midi":58,"time":66.50787000000037,"velocity":0.6299212598425197,"duration":0.07440468750000662},{"name":"D#4","midi":63,"time":66.58723500000038,"velocity":0.6299212598425197,"duration":0.07440468750000662},{"name":"C4","midi":60,"time":66.66660000000039,"velocity":0.6299212598425197,"duration":0.07440468750000662},{"name":"D#4","midi":63,"time":66.7459650000004,"velocity":0.6299212598425197,"duration":0.07440468750000662},{"name":"C4","midi":60,"time":66.8253300000004,"velocity":0.6299212598425197,"duration":0.07440468750000662},{"name":"D#4","midi":63,"time":66.90469500000042,"velocity":0.6299212598425197,"duration":0.07440468750000662},{"name":"C4","midi":60,"time":66.98406000000043,"velocity":0.6299212598425197,"duration":0.07440468750000662},{"name":"D#4","midi":63,"time":67.06342500000044,"velocity":0.6299212598425197,"duration":0.07440468750000662},{"name":"C4","midi":60,"time":67.14279000000045,"velocity":0.6299212598425197,"duration":0.07440468750000662},{"name":"D#4","midi":63,"time":67.22215500000046,"velocity":0.6299212598425197,"duration":0.07440468750000662},{"name":"C4","midi":60,"time":67.30152000000047,"velocity":0.6299212598425197,"duration":0.07440468750000662},{"name":"D#4","midi":63,"time":67.38088500000048,"velocity":0.6299212598425197,"duration":0.07440468750000662},{"name":"C4","midi":60,"time":67.46025000000049,"velocity":0.6299212598425197,"duration":0.07440468750000662},{"name":"D#4","midi":63,"time":67.5396150000005,"velocity":0.6299212598425197,"duration":0.07440468750000662},{"name":"C4","midi":60,"time":67.6189800000005,"velocity":0.6299212598425197,"duration":0.07440468750000662},{"name":"D#4","midi":63,"time":67.69834500000051,"velocity":0.6299212598425197,"duration":0.07440468750000662},{"name":"C4","midi":60,"time":67.77771000000052,"velocity":0.6299212598425197,"duration":0.07440468750000662},{"name":"D#4","midi":63,"time":67.85707500000053,"velocity":0.6299212598425197,"duration":0.07440468750000662},{"name":"C4","midi":60,"time":67.93644000000054,"velocity":0.6299212598425197,"duration":0.07440468750000662},{"name":"D#4","midi":63,"time":68.01580500000055,"velocity":0.6299212598425197,"duration":0.07440468750000662},{"name":"C4","midi":60,"time":68.09517000000056,"velocity":0.6299212598425197,"duration":0.07440468750000662},{"name":"D#4","midi":63,"time":68.17453500000057,"velocity":0.6299212598425197,"duration":0.07440468750000662},{"name":"C4","midi":60,"time":68.25390000000058,"velocity":0.6299212598425197,"duration":0.07440468750000662},{"name":"D#4","midi":63,"time":68.3332650000006,"velocity":0.6299212598425197,"duration":0.07440468750000662},{"name":"C4","midi":60,"time":68.4126300000006,"velocity":0.6299212598425197,"duration":0.07440468750000662},{"name":"D#4","midi":63,"time":68.49199500000061,"velocity":0.6299212598425197,"duration":0.07440468750000662},{"name":"B3","midi":59,"time":68.57136000000062,"velocity":0.6299212598425197,"duration":0.07440468750000662},{"name":"C#4","midi":61,"time":68.65072500000063,"velocity":0.6299212598425197,"duration":0.07440468750000662},{"name":"B3","midi":59,"time":68.73009000000064,"velocity":0.6299212598425197,"duration":0.07440468750000662},{"name":"C#4","midi":61,"time":68.80945500000065,"velocity":0.6299212598425197,"duration":0.07440468750000662},{"name":"B3","midi":59,"time":68.88882000000066,"velocity":0.6299212598425197,"duration":0.07440468750000662},{"name":"C#4","midi":61,"time":68.96818500000067,"velocity":0.6299212598425197,"duration":0.07440468750000662},{"name":"B3","midi":59,"time":69.04755000000068,"velocity":0.6299212598425197,"duration":0.07440468750000662},{"name":"C#4","midi":61,"time":69.1269150000007,"velocity":0.6299212598425197,"duration":0.07440468750000662},{"name":"B3","midi":59,"time":69.2062800000007,"velocity":0.6299212598425197,"duration":0.07440468750000662},{"name":"C#4","midi":61,"time":69.28564500000071,"velocity":0.6299212598425197,"duration":0.07440468750000662},{"name":"B3","midi":59,"time":69.36501000000072,"velocity":0.6299212598425197,"duration":0.07440468750000662},{"name":"C#4","midi":61,"time":69.44437500000073,"velocity":0.6299212598425197,"duration":0.07440468750000662},{"name":"B3","midi":59,"time":69.52374000000074,"velocity":0.6299212598425197,"duration":0.07440468750000662},{"name":"C#4","midi":61,"time":69.60310500000075,"velocity":0.6299212598425197,"duration":0.07440468750000662},{"name":"B3","midi":59,"time":69.68247000000076,"velocity":0.6299212598425197,"duration":0.07440468750000662},{"name":"C#4","midi":61,"time":69.76183500000077,"velocity":0.6299212598425197,"duration":0.07440468750000662},{"name":"B3","midi":59,"time":69.84120000000078,"velocity":0.6299212598425197,"duration":0.07440468750000662},{"name":"C#4","midi":61,"time":69.92056500000079,"velocity":0.6299212598425197,"duration":0.07440468750000662},{"name":"B3","midi":59,"time":69.9999300000008,"velocity":0.6299212598425197,"duration":0.07440468750000662},{"name":"C#4","midi":61,"time":70.07929500000081,"velocity":0.6299212598425197,"duration":0.07440468750000662},{"name":"B3","midi":59,"time":70.15866000000082,"velocity":0.6299212598425197,"duration":0.07440468750000662},{"name":"C#4","midi":61,"time":70.23802500000083,"velocity":0.6299212598425197,"duration":0.07440468750000662},{"name":"B3","midi":59,"time":70.31739000000084,"velocity":0.6299212598425197,"duration":0.07440468750000662},{"name":"C#4","midi":61,"time":70.39675500000085,"velocity":0.6299212598425197,"duration":0.07440468750000662},{"name":"G4","midi":67,"time":78.09516000000086,"velocity":0.8661417322834646,"duration":0.11408718750000446},{"name":"C5","midi":72,"time":78.09516000000086,"velocity":0.8661417322834646,"duration":0.11408718750000446},{"name":"C5","midi":72,"time":78.33325500000086,"velocity":0.8661417322834646,"duration":0.11408718750000446},{"name":"E5","midi":76,"time":78.33325500000086,"velocity":0.8661417322834646,"duration":0.11408718750000446},{"name":"E5","midi":76,"time":78.45230250000087,"velocity":0.8661417322834646,"duration":0.11408718750000446},{"name":"G5","midi":79,"time":78.45230250000087,"velocity":0.8661417322834646,"duration":0.11408718750000446},{"name":"C5","midi":72,"time":78.69039750000087,"velocity":0.8661417322834646,"duration":0.11408718750000446},{"name":"E5","midi":76,"time":78.69039750000087,"velocity":0.8661417322834646,"duration":0.11408718750000446},{"name":"E5","midi":76,"time":78.80944500000088,"velocity":0.8661417322834646,"duration":0.11408718750000446},{"name":"G5","midi":79,"time":78.80944500000088,"velocity":0.8661417322834646,"duration":0.11408718750000446},{"name":"E5","midi":76,"time":79.04754000000088,"velocity":0.8661417322834646,"duration":0.11408718750000446},{"name":"A5","midi":81,"time":79.04754000000088,"velocity":0.8661417322834646,"duration":0.11408718750000446},{"name":"E5","midi":76,"time":79.28563500000088,"velocity":0.8661417322834646,"duration":0.11408718750000446},{"name":"G5","midi":79,"time":79.28563500000088,"velocity":0.8661417322834646,"duration":0.11408718750000446},{"name":"C5","midi":72,"time":79.40468250000089,"velocity":0.8661417322834646,"duration":0.11408718750000446},{"name":"E5","midi":76,"time":79.40468250000089,"velocity":0.8661417322834646,"duration":0.11408718750000446},{"name":"E5","midi":76,"time":79.5237300000009,"velocity":0.8661417322834646,"duration":0.11408718750000446},{"name":"G5","midi":79,"time":79.5237300000009,"velocity":0.8661417322834646,"duration":0.11408718750000446},{"name":"E5","midi":76,"time":79.7618250000009,"velocity":0.8661417322834646,"duration":0.11408718750000446},{"name":"A5","midi":81,"time":79.7618250000009,"velocity":0.8661417322834646,"duration":0.11408718750000446},{"name":"D#5","midi":75,"time":79.9999200000009,"velocity":0.8661417322834646,"duration":0.11408718750000446},{"name":"G#5","midi":80,"time":79.9999200000009,"velocity":0.8661417322834646,"duration":0.11408718750000446},{"name":"F5","midi":77,"time":80.2380150000009,"velocity":0.8661417322834646,"duration":0.11408718750000446},{"name":"A#5","midi":82,"time":80.2380150000009,"velocity":0.8661417322834646,"duration":0.11408718750000446},{"name":"G#5","midi":80,"time":80.35706250000091,"velocity":0.8661417322834646,"duration":0.11408718750000446},{"name":"C6","midi":84,"time":80.35706250000091,"velocity":0.8661417322834646,"duration":0.11408718750000446},{"name":"F5","midi":77,"time":80.59515750000091,"velocity":0.8661417322834646,"duration":0.11408718750000446},{"name":"A#5","midi":82,"time":80.59515750000091,"velocity":0.8661417322834646,"duration":0.11408718750000446},{"name":"D#5","midi":75,"time":80.71420500000092,"velocity":0.8661417322834646,"duration":0.11408718750000446},{"name":"G#5","midi":80,"time":80.71420500000092,"velocity":0.8661417322834646,"duration":0.11408718750000446},{"name":"E5","midi":76,"time":80.95230000000092,"velocity":0.8661417322834646,"duration":0.11408718750000446},{"name":"G5","midi":79,"time":80.95230000000092,"velocity":0.8661417322834646,"duration":0.11408718750000446},{"name":"C5","midi":72,"time":81.19039500000092,"velocity":0.8661417322834646,"duration":0.11408718750000446},{"name":"E5","midi":76,"time":81.19039500000092,"velocity":0.8661417322834646,"duration":0.11408718750000446},{"name":"C5","midi":72,"time":81.66658500000092,"velocity":0.8661417322834646,"duration":0.11408718750000446},{"name":"E5","midi":76,"time":81.66658500000092,"velocity":0.8661417322834646,"duration":0.11408718750000446},{"name":"G4","midi":67,"time":81.90468000000092,"velocity":0.8661417322834646,"duration":0.11408718750000446},{"name":"C5","midi":72,"time":81.90468000000092,"velocity":0.8661417322834646,"duration":0.11408718750000446},{"name":"C5","midi":72,"time":82.14277500000092,"velocity":0.8661417322834646,"duration":0.11408718750000446},{"name":"E5","midi":76,"time":82.14277500000092,"velocity":0.8661417322834646,"duration":0.11408718750000446},{"name":"E5","midi":76,"time":82.26182250000093,"velocity":0.8661417322834646,"duration":0.11408718750000446},{"name":"G5","midi":79,"time":82.26182250000093,"velocity":0.8661417322834646,"duration":0.11408718750000446},{"name":"C5","midi":72,"time":82.49991750000093,"velocity":0.8661417322834646,"duration":0.11408718750000446},{"name":"E5","midi":76,"time":82.49991750000093,"velocity":0.8661417322834646,"duration":0.11408718750000446},{"name":"E5","midi":76,"time":82.61896500000094,"velocity":0.8661417322834646,"duration":0.11408718750000446},{"name":"G5","midi":79,"time":82.61896500000094,"velocity":0.8661417322834646,"duration":0.11408718750000446},{"name":"E5","midi":76,"time":82.85706000000094,"velocity":0.8661417322834646,"duration":0.11408718750000446},{"name":"A5","midi":81,"time":82.85706000000094,"velocity":0.8661417322834646,"duration":0.11408718750000446},{"name":"E5","midi":76,"time":83.09515500000094,"velocity":0.8661417322834646,"duration":0.11408718750000446},{"name":"G5","midi":79,"time":83.09515500000094,"velocity":0.8661417322834646,"duration":0.11408718750000446},{"name":"C5","midi":72,"time":83.21420250000095,"velocity":0.8661417322834646,"duration":0.11408718750000446},{"name":"E5","midi":76,"time":83.21420250000095,"velocity":0.8661417322834646,"duration":0.11408718750000446},{"name":"E5","midi":76,"time":83.33325000000096,"velocity":0.8661417322834646,"duration":0.11408718750000446},{"name":"G5","midi":79,"time":83.33325000000096,"velocity":0.8661417322834646,"duration":0.11408718750000446},{"name":"E5","midi":76,"time":83.57134500000096,"velocity":0.8661417322834646,"duration":0.11408718750000446},{"name":"A5","midi":81,"time":83.57134500000096,"velocity":0.8661417322834646,"duration":0.11408718750000446},{"name":"D#5","midi":75,"time":83.80944000000096,"velocity":0.8661417322834646,"duration":0.11408718750000446},{"name":"G#5","midi":80,"time":83.80944000000096,"velocity":0.8661417322834646,"duration":0.11408718750000446},{"name":"F5","midi":77,"time":84.04753500000096,"velocity":0.8661417322834646,"duration":0.11408718750000446},{"name":"A#5","midi":82,"time":84.04753500000096,"velocity":0.8661417322834646,"duration":0.11408718750000446},{"name":"G#5","midi":80,"time":84.16658250000097,"velocity":0.8661417322834646,"duration":0.11408718750000446},{"name":"C6","midi":84,"time":84.16658250000097,"velocity":0.8661417322834646,"duration":0.11408718750000446},{"name":"F5","midi":77,"time":84.40467750000097,"velocity":0.8661417322834646,"duration":0.11408718750000446},{"name":"A#5","midi":82,"time":84.40467750000097,"velocity":0.8661417322834646,"duration":0.11408718750000446},{"name":"D#5","midi":75,"time":84.52372500000098,"velocity":0.8661417322834646,"duration":0.11408718750000446},{"name":"G#5","midi":80,"time":84.52372500000098,"velocity":0.8661417322834646,"duration":0.11408718750000446},{"name":"B5","midi":83,"time":84.76182000000098,"velocity":0.8661417322834646,"duration":0.024801562500002206},{"name":"D#6","midi":87,"time":84.76182000000098,"velocity":0.8661417322834646,"duration":0.024801562500002206},{"name":"C6","midi":84,"time":84.79158187500099,"velocity":0.8661417322834646,"duration":0.11408718750000446},{"name":"E6","midi":88,"time":84.79158187500099,"velocity":0.8661417322834646,"duration":0.11408718750000446},{"name":"G5","midi":79,"time":84.999915000001,"velocity":0.8661417322834646,"duration":0.11408718750000446},{"name":"C6","midi":84,"time":84.999915000001,"velocity":0.8661417322834646,"duration":0.11408718750000446},{"name":"G4","midi":67,"time":85.714200000001,"velocity":0.8661417322834646,"duration":0.11408718750000446},{"name":"C5","midi":72,"time":85.714200000001,"velocity":0.8661417322834646,"duration":0.11408718750000446},{"name":"C5","midi":72,"time":85.952295000001,"velocity":0.8661417322834646,"duration":0.11408718750000446},{"name":"E5","midi":76,"time":85.952295000001,"velocity":0.8661417322834646,"duration":0.11408718750000446},{"name":"E5","midi":76,"time":86.07134250000101,"velocity":0.8661417322834646,"duration":0.11408718750000446},{"name":"G5","midi":79,"time":86.07134250000101,"velocity":0.8661417322834646,"duration":0.11408718750000446},{"name":"C5","midi":72,"time":86.30943750000101,"velocity":0.8661417322834646,"duration":0.11408718750000446},{"name":"E5","midi":76,"time":86.30943750000101,"velocity":0.8661417322834646,"duration":0.11408718750000446},{"name":"E5","midi":76,"time":86.42848500000102,"velocity":0.8661417322834646,"duration":0.11408718750000446},{"name":"G5","midi":79,"time":86.42848500000102,"velocity":0.8661417322834646,"duration":0.11408718750000446},{"name":"E5","midi":76,"time":86.66658000000102,"velocity":0.8661417322834646,"duration":0.11408718750000446},{"name":"A5","midi":81,"time":86.66658000000102,"velocity":0.8661417322834646,"duration":0.11408718750000446},{"name":"E5","midi":76,"time":86.90467500000102,"velocity":0.8661417322834646,"duration":0.11408718750000446},{"name":"G5","midi":79,"time":86.90467500000102,"velocity":0.8661417322834646,"duration":0.11408718750000446},{"name":"C5","midi":72,"time":87.02372250000103,"velocity":0.8661417322834646,"duration":0.11408718750000446},{"name":"E5","midi":76,"time":87.02372250000103,"velocity":0.8661417322834646,"duration":0.11408718750000446},{"name":"E5","midi":76,"time":87.14277000000104,"velocity":0.8661417322834646,"duration":0.11408718750000446},{"name":"G5","midi":79,"time":87.14277000000104,"velocity":0.8661417322834646,"duration":0.11408718750000446},{"name":"E5","midi":76,"time":87.38086500000104,"velocity":0.8661417322834646,"duration":0.11408718750000446},{"name":"A5","midi":81,"time":87.38086500000104,"velocity":0.8661417322834646,"duration":0.11408718750000446},{"name":"D#5","midi":75,"time":87.61896000000104,"velocity":0.8661417322834646,"duration":0.11408718750000446},{"name":"G#5","midi":80,"time":87.61896000000104,"velocity":0.8661417322834646,"duration":0.11408718750000446},{"name":"F5","midi":77,"time":87.85705500000104,"velocity":0.8661417322834646,"duration":0.11408718750000446},{"name":"A#5","midi":82,"time":87.85705500000104,"velocity":0.8661417322834646,"duration":0.11408718750000446},{"name":"G#5","midi":80,"time":87.97610250000105,"velocity":0.8661417322834646,"duration":0.11408718750000446},{"name":"C6","midi":84,"time":87.97610250000105,"velocity":0.8661417322834646,"duration":0.11408718750000446},{"name":"F5","midi":77,"time":88.21419750000105,"velocity":0.8661417322834646,"duration":0.11408718750000446},{"name":"A#5","midi":82,"time":88.21419750000105,"velocity":0.8661417322834646,"duration":0.11408718750000446},{"name":"D#5","midi":75,"time":88.33324500000106,"velocity":0.8661417322834646,"duration":0.11408718750000446},{"name":"G#5","midi":80,"time":88.33324500000106,"velocity":0.8661417322834646,"duration":0.11408718750000446},{"name":"E5","midi":76,"time":88.57134000000106,"velocity":0.8661417322834646,"duration":0.11408718750000446},{"name":"G5","midi":79,"time":88.57134000000106,"velocity":0.8661417322834646,"duration":0.11408718750000446},{"name":"C5","midi":72,"time":88.80943500000106,"velocity":0.8661417322834646,"duration":0.11408718750000446},{"name":"E5","midi":76,"time":88.80943500000106,"velocity":0.8661417322834646,"duration":0.11408718750000446},{"name":"C5","midi":72,"time":89.28562500000106,"velocity":0.8661417322834646,"duration":0.11408718750000446},{"name":"E5","midi":76,"time":89.28562500000106,"velocity":0.8661417322834646,"duration":0.11408718750000446},{"name":"G4","midi":67,"time":89.52372000000106,"velocity":0.8661417322834646,"duration":0.11408718750000446},{"name":"C5","midi":72,"time":89.52372000000106,"velocity":0.8661417322834646,"duration":0.11408718750000446},{"name":"C5","midi":72,"time":89.76181500000106,"velocity":0.8661417322834646,"duration":0.11408718750000446},{"name":"E5","midi":76,"time":89.76181500000106,"velocity":0.8661417322834646,"duration":0.11408718750000446},{"name":"E5","midi":76,"time":89.88086250000107,"velocity":0.8661417322834646,"duration":0.11408718750000446},{"name":"G5","midi":79,"time":89.88086250000107,"velocity":0.8661417322834646,"duration":0.11408718750000446},{"name":"C5","midi":72,"time":90.11895750000107,"velocity":0.8661417322834646,"duration":0.11408718750000446},{"name":"E5","midi":76,"time":90.11895750000107,"velocity":0.8661417322834646,"duration":0.11408718750000446},{"name":"E5","midi":76,"time":90.23800500000108,"velocity":0.8661417322834646,"duration":0.11408718750000446},{"name":"G5","midi":79,"time":90.23800500000108,"velocity":0.8661417322834646,"duration":0.11408718750000446},{"name":"E5","midi":76,"time":90.47610000000108,"velocity":0.8661417322834646,"duration":0.11408718750000446},{"name":"A5","midi":81,"time":90.47610000000108,"velocity":0.8661417322834646,"duration":0.11408718750000446},{"name":"E5","midi":76,"time":90.71419500000108,"velocity":0.8661417322834646,"duration":0.11408718750000446},{"name":"G5","midi":79,"time":90.71419500000108,"velocity":0.8661417322834646,"duration":0.11408718750000446},{"name":"C5","midi":72,"time":90.83324250000109,"velocity":0.8661417322834646,"duration":0.11408718750000446},{"name":"E5","midi":76,"time":90.83324250000109,"velocity":0.8661417322834646,"duration":0.11408718750000446},{"name":"E5","midi":76,"time":90.9522900000011,"velocity":0.8661417322834646,"duration":0.11408718750000446},{"name":"G5","midi":79,"time":90.9522900000011,"velocity":0.8661417322834646,"duration":0.11408718750000446},{"name":"E5","midi":76,"time":91.1903850000011,"velocity":0.8661417322834646,"duration":0.11408718750000446},{"name":"A5","midi":81,"time":91.1903850000011,"velocity":0.8661417322834646,"duration":0.11408718750000446},{"name":"F5","midi":77,"time":91.4284800000011,"velocity":0.8661417322834646,"duration":0.11408718750000446},{"name":"G#5","midi":80,"time":91.4284800000011,"velocity":0.8661417322834646,"duration":0.11408718750000446},{"name":"F#5","midi":78,"time":91.6665750000011,"velocity":0.8661417322834646,"duration":0.11408718750000446},{"name":"A#5","midi":82,"time":91.6665750000011,"velocity":0.8661417322834646,"duration":0.11408718750000446},{"name":"G5","midi":79,"time":91.78562250000111,"velocity":0.8661417322834646,"duration":0.11408718750000446},{"name":"B5","midi":83,"time":91.78562250000111,"velocity":0.8661417322834646,"duration":0.11408718750000446},{"name":"G5","midi":79,"time":92.02371750000111,"velocity":0.8661417322834646,"duration":0.11408718750000446},{"name":"A5","midi":81,"time":92.02371750000111,"velocity":0.8661417322834646,"duration":0.11408718750000446},{"name":"F5","midi":77,"time":92.14276500000112,"velocity":0.8661417322834646,"duration":0.11408718750000446},{"name":"G5","midi":79,"time":92.14276500000112,"velocity":0.8661417322834646,"duration":0.11408718750000446},{"name":"E5","midi":76,"time":92.38086000000112,"velocity":0.8661417322834646,"duration":0.11408718750000446},{"name":"C6","midi":84,"time":92.38086000000112,"velocity":0.8661417322834646,"duration":0.11408718750000446},{"name":"C4","midi":60,"time":93.33324000000113,"velocity":0.7874015748031497,"duration":0.11408718750000446},{"name":"G4","midi":67,"time":93.45228750000113,"velocity":0.7874015748031497,"duration":0.11408718750000446},{"name":"E4","midi":64,"time":93.57133500000114,"velocity":0.7874015748031497,"duration":0.11408718750000446},{"name":"A4","midi":69,"time":93.69038250000115,"velocity":0.7874015748031497,"duration":0.11408718750000446},{"name":"C4","midi":60,"time":93.80943000000116,"velocity":0.7874015748031497,"duration":0.11408718750000446},{"name":"G4","midi":67,"time":93.92847750000116,"velocity":0.7874015748031497,"duration":0.11408718750000446},{"name":"E4","midi":64,"time":94.04752500000117,"velocity":0.7874015748031497,"duration":0.11408718750000446},{"name":"A4","midi":69,"time":94.16657250000118,"velocity":0.7874015748031497,"duration":0.11408718750000446},{"name":"C4","midi":60,"time":94.28562000000119,"velocity":0.7874015748031497,"duration":0.11408718750000446},{"name":"G4","midi":67,"time":94.4046675000012,"velocity":0.7874015748031497,"duration":0.11408718750000446},{"name":"E4","midi":64,"time":94.5237150000012,"velocity":0.7874015748031497,"duration":0.11408718750000446},{"name":"A4","midi":69,"time":94.64276250000121,"velocity":0.7874015748031497,"duration":0.11408718750000446},{"name":"C4","midi":60,"time":94.76181000000122,"velocity":0.7874015748031497,"duration":0.11408718750000446},{"name":"G4","midi":67,"time":94.88085750000123,"velocity":0.7874015748031497,"duration":0.11408718750000446},{"name":"E4","midi":64,"time":94.99990500000123,"velocity":0.7874015748031497,"duration":0.11408718750000446},{"name":"A4","midi":69,"time":95.11895250000124,"velocity":0.7874015748031497,"duration":0.11408718750000446},{"name":"C#4","midi":61,"time":95.23800000000125,"velocity":0.7874015748031497,"duration":0.11408718750000446},{"name":"F#4","midi":66,"time":95.35704750000126,"velocity":0.7874015748031497,"duration":0.11408718750000446},{"name":"D#4","midi":63,"time":95.47609500000127,"velocity":0.7874015748031497,"duration":0.11408718750000446},{"name":"A#4","midi":70,"time":95.59514250000127,"velocity":0.7874015748031497,"duration":0.11408718750000446},{"name":"C#4","midi":61,"time":95.71419000000128,"velocity":0.7874015748031497,"duration":0.11408718750000446},{"name":"F#4","midi":66,"time":95.83323750000129,"velocity":0.7874015748031497,"duration":0.11408718750000446},{"name":"D#4","midi":63,"time":95.9522850000013,"velocity":0.7874015748031497,"duration":0.11408718750000446},{"name":"A#4","midi":70,"time":96.0713325000013,"velocity":0.7874015748031497,"duration":0.11408718750000446},{"name":"C#4","midi":61,"time":96.19038000000131,"velocity":0.7874015748031497,"duration":0.11408718750000446},{"name":"F#4","midi":66,"time":96.30942750000132,"velocity":0.7874015748031497,"duration":0.11408718750000446},{"name":"D#4","midi":63,"time":96.42847500000133,"velocity":0.7874015748031497,"duration":0.11408718750000446},{"name":"A#4","midi":70,"time":96.54752250000134,"velocity":0.7874015748031497,"duration":0.11408718750000446},{"name":"C#4","midi":61,"time":96.66657000000134,"velocity":0.7874015748031497,"duration":0.11408718750000446},{"name":"F#4","midi":66,"time":96.78561750000135,"velocity":0.7874015748031497,"duration":0.11408718750000446},{"name":"D#4","midi":63,"time":96.90466500000136,"velocity":0.7874015748031497,"duration":0.11408718750000446},{"name":"A#4","midi":70,"time":97.02371250000137,"velocity":0.7874015748031497,"duration":0.11408718750000446},{"name":"C4","midi":60,"time":97.14276000000137,"velocity":0.7874015748031497,"duration":0.11408718750000446},{"name":"G4","midi":67,"time":97.26180750000138,"velocity":0.7874015748031497,"duration":0.11408718750000446},{"name":"E4","midi":64,"time":97.38085500000139,"velocity":0.7874015748031497,"duration":0.11408718750000446},{"name":"A4","midi":69,"time":97.4999025000014,"velocity":0.7874015748031497,"duration":0.11408718750000446},{"name":"C4","midi":60,"time":97.6189500000014,"velocity":0.7874015748031497,"duration":0.11408718750000446},{"name":"G4","midi":67,"time":97.73799750000141,"velocity":0.7874015748031497,"duration":0.11408718750000446},{"name":"E4","midi":64,"time":97.85704500000142,"velocity":0.7874015748031497,"duration":0.11408718750000446},{"name":"A4","midi":69,"time":97.97609250000143,"velocity":0.7874015748031497,"duration":0.11408718750000446},{"name":"C4","midi":60,"time":98.09514000000144,"velocity":0.7874015748031497,"duration":0.11408718750000446},{"name":"G4","midi":67,"time":98.21418750000144,"velocity":0.7874015748031497,"duration":0.11408718750000446},{"name":"E4","midi":64,"time":98.33323500000145,"velocity":0.7874015748031497,"duration":0.11408718750000446},{"name":"A4","midi":69,"time":98.45228250000146,"velocity":0.7874015748031497,"duration":0.11408718750000446},{"name":"C4","midi":60,"time":98.57133000000147,"velocity":0.7874015748031497,"duration":0.11408718750000446},{"name":"G4","midi":67,"time":98.69037750000147,"velocity":0.7874015748031497,"duration":0.11408718750000446},{"name":"E4","midi":64,"time":98.80942500000148,"velocity":0.7874015748031497,"duration":0.11408718750000446},{"name":"A4","midi":69,"time":98.92847250000149,"velocity":0.7874015748031497,"duration":0.11408718750000446},{"name":"A#3","midi":58,"time":99.0475200000015,"velocity":0.7874015748031497,"duration":0.11408718750000446},{"name":"F4","midi":65,"time":99.1665675000015,"velocity":0.7874015748031497,"duration":0.11408718750000446},{"name":"D4","midi":62,"time":99.28561500000151,"velocity":0.7874015748031497,"duration":0.11408718750000446},{"name":"A#4","midi":70,"time":99.40466250000152,"velocity":0.7874015748031497,"duration":0.11408718750000446},{"name":"A#3","midi":58,"time":99.52371000000153,"velocity":0.7874015748031497,"duration":0.11408718750000446},{"name":"F#4","midi":66,"time":99.64275750000154,"velocity":0.7874015748031497,"duration":0.11408718750000446},{"name":"D4","midi":62,"time":99.76180500000154,"velocity":0.7874015748031497,"duration":0.11408718750000446},{"name":"A#4","midi":70,"time":99.88085250000155,"velocity":0.7874015748031497,"duration":0.11408718750000446},{"name":"A#3","midi":58,"time":99.99990000000156,"velocity":0.7874015748031497,"duration":0.11408718750000446},{"name":"F4","midi":65,"time":100.11894750000157,"velocity":0.7874015748031497,"duration":0.11408718750000446},{"name":"D4","midi":62,"time":100.23799500000158,"velocity":0.7874015748031497,"duration":0.11408718750000446},{"name":"A#4","midi":70,"time":100.35704250000158,"velocity":0.7874015748031497,"duration":0.11408718750000446},{"name":"A#3","midi":58,"time":100.47609000000159,"velocity":0.7874015748031497,"duration":0.11408718750000446},{"name":"F#4","midi":66,"time":100.5951375000016,"velocity":0.7874015748031497,"duration":0.11408718750000446},{"name":"D4","midi":62,"time":100.7141850000016,"velocity":0.7874015748031497,"duration":0.11408718750000446},{"name":"A#4","midi":70,"time":100.83323250000161,"velocity":0.7874015748031497,"duration":0.11408718750000446},{"name":"C4","midi":60,"time":100.95228000000162,"velocity":0.7874015748031497,"duration":0.11408718750000446},{"name":"G4","midi":67,"time":101.07132750000163,"velocity":0.7874015748031497,"duration":0.11408718750000446},{"name":"E4","midi":64,"time":101.19037500000164,"velocity":0.7874015748031497,"duration":0.11408718750000446},{"name":"A4","midi":69,"time":101.30942250000165,"velocity":0.7874015748031497,"duration":0.11408718750000446},{"name":"C4","midi":60,"time":101.42847000000165,"velocity":0.7874015748031497,"duration":0.11408718750000446},{"name":"G4","midi":67,"time":101.54751750000166,"velocity":0.7874015748031497,"duration":0.11408718750000446},{"name":"E4","midi":64,"time":101.66656500000167,"velocity":0.7874015748031497,"duration":0.11408718750000446},{"name":"A4","midi":69,"time":101.78561250000168,"velocity":0.7874015748031497,"duration":0.11408718750000446},{"name":"C4","midi":60,"time":101.90466000000168,"velocity":0.7874015748031497,"duration":0.11408718750000446},{"name":"G4","midi":67,"time":102.02370750000169,"velocity":0.7874015748031497,"duration":0.11408718750000446},{"name":"E4","midi":64,"time":102.1427550000017,"velocity":0.7874015748031497,"duration":0.11408718750000446},{"name":"A4","midi":69,"time":102.2618025000017,"velocity":0.7874015748031497,"duration":0.11408718750000446},{"name":"C4","midi":60,"time":102.38085000000171,"velocity":0.7874015748031497,"duration":0.11408718750000446},{"name":"G4","midi":67,"time":102.49989750000172,"velocity":0.7874015748031497,"duration":0.11408718750000446},{"name":"E4","midi":64,"time":102.61894500000173,"velocity":0.7874015748031497,"duration":0.11408718750000446},{"name":"A4","midi":69,"time":102.73799250000174,"velocity":0.7874015748031497,"duration":0.11408718750000446},{"name":"C#4","midi":61,"time":102.85704000000175,"velocity":0.7874015748031497,"duration":0.11408718750000446},{"name":"F#4","midi":66,"time":102.97608750000175,"velocity":0.7874015748031497,"duration":0.11408718750000446},{"name":"D#4","midi":63,"time":103.09513500000176,"velocity":0.7874015748031497,"duration":0.11408718750000446},{"name":"A#4","midi":70,"time":103.21418250000177,"velocity":0.7874015748031497,"duration":0.11408718750000446},{"name":"C#4","midi":61,"time":103.33323000000178,"velocity":0.7874015748031497,"duration":0.11408718750000446},{"name":"F#4","midi":66,"time":103.45227750000178,"velocity":0.7874015748031497,"duration":0.11408718750000446},{"name":"D#4","midi":63,"time":103.57132500000179,"velocity":0.7874015748031497,"duration":0.11408718750000446},{"name":"A#4","midi":70,"time":103.6903725000018,"velocity":0.7874015748031497,"duration":0.11408718750000446},{"name":"C#4","midi":61,"time":103.80942000000181,"velocity":0.7874015748031497,"duration":0.11408718750000446},{"name":"F#4","midi":66,"time":103.92846750000182,"velocity":0.7874015748031497,"duration":0.11408718750000446},{"name":"D#4","midi":63,"time":104.04751500000182,"velocity":0.7874015748031497,"duration":0.11408718750000446},{"name":"A#4","midi":70,"time":104.16656250000183,"velocity":0.7874015748031497,"duration":0.11408718750000446},{"name":"C#4","midi":61,"time":104.28561000000184,"velocity":0.7874015748031497,"duration":0.11408718750000446},{"name":"F#4","midi":66,"time":104.40465750000185,"velocity":0.7874015748031497,"duration":0.11408718750000446},{"name":"D#4","midi":63,"time":104.52370500000185,"velocity":0.7874015748031497,"duration":0.11408718750000446},{"name":"A#4","midi":70,"time":104.64275250000186,"velocity":0.7874015748031497,"duration":0.11408718750000446},{"name":"C4","midi":60,"time":104.76180000000187,"velocity":0.7874015748031497,"duration":0.11408718750000446},{"name":"G4","midi":67,"time":104.88084750000188,"velocity":0.7874015748031497,"duration":0.11408718750000446},{"name":"E4","midi":64,"time":104.99989500000189,"velocity":0.7874015748031497,"duration":0.11408718750000446},{"name":"A4","midi":69,"time":105.11894250000189,"velocity":0.7874015748031497,"duration":0.11408718750000446},{"name":"C4","midi":60,"time":105.2379900000019,"velocity":0.7874015748031497,"duration":0.11408718750000446},{"name":"G4","midi":67,"time":105.35703750000191,"velocity":0.7874015748031497,"duration":0.11408718750000446},{"name":"E4","midi":64,"time":105.47608500000192,"velocity":0.7874015748031497,"duration":0.11408718750000446},{"name":"A4","midi":69,"time":105.59513250000192,"velocity":0.7874015748031497,"duration":0.11408718750000446},{"name":"C#4","midi":61,"time":105.71418000000193,"velocity":0.7874015748031497,"duration":0.11408718750000446},{"name":"G#4","midi":68,"time":105.83322750000194,"velocity":0.7874015748031497,"duration":0.11408718750000446},{"name":"F4","midi":65,"time":105.95227500000195,"velocity":0.7874015748031497,"duration":0.11408718750000446},{"name":"A#4","midi":70,"time":106.07132250000195,"velocity":0.7874015748031497,"duration":0.11408718750000446},{"name":"C#4","midi":61,"time":106.19037000000196,"velocity":0.7874015748031497,"duration":0.11408718750000446},{"name":"G#4","midi":68,"time":106.30941750000197,"velocity":0.7874015748031497,"duration":0.11408718750000446},{"name":"F4","midi":65,"time":106.42846500000198,"velocity":0.7874015748031497,"duration":0.11408718750000446},{"name":"A#4","midi":70,"time":106.54751250000199,"velocity":0.7874015748031497,"duration":0.11408718750000446},{"name":"C4","midi":60,"time":106.666560000002,"velocity":0.7874015748031497,"duration":0.11408718750000446},{"name":"G4","midi":67,"time":106.785607500002,"velocity":0.7874015748031497,"duration":0.11408718750000446},{"name":"E4","midi":64,"time":106.90465500000201,"velocity":0.7874015748031497,"duration":0.11408718750000446},{"name":"A4","midi":69,"time":107.02370250000202,"velocity":0.7874015748031497,"duration":0.11408718750000446},{"name":"C4","midi":60,"time":107.14275000000202,"velocity":0.7874015748031497,"duration":0.11408718750000446},{"name":"G4","midi":67,"time":107.26179750000203,"velocity":0.7874015748031497,"duration":0.11408718750000446},{"name":"E4","midi":64,"time":107.38084500000204,"velocity":0.7874015748031497,"duration":0.11408718750000446},{"name":"A4","midi":69,"time":107.49989250000205,"velocity":0.7874015748031497,"duration":0.11408718750000446},{"name":"C4","midi":60,"time":107.61894000000206,"velocity":0.7874015748031497,"duration":0.11408718750000446},{"name":"G4","midi":67,"time":107.73798750000206,"velocity":0.7874015748031497,"duration":0.11408718750000446},{"name":"E4","midi":64,"time":107.85703500000207,"velocity":0.7874015748031497,"duration":0.11408718750000446},{"name":"A4","midi":69,"time":107.97608250000208,"velocity":0.7874015748031497,"duration":0.11408718750000446},{"name":"C4","midi":60,"time":108.09513000000209,"velocity":0.7874015748031497,"duration":0.11408718750000446},{"name":"G4","midi":67,"time":108.2141775000021,"velocity":0.7874015748031497,"duration":0.11408718750000446},{"name":"E4","midi":64,"time":108.3332250000021,"velocity":0.7874015748031497,"duration":0.11408718750000446},{"name":"A4","midi":69,"time":108.45227250000211,"velocity":0.7874015748031497,"duration":0.11408718750000446},{"name":"F#3","midi":54,"time":108.57132000000212,"velocity":0.7874015748031497,"duration":0.11408718750000446},{"name":"A#4","midi":70,"time":108.80941500000212,"velocity":0.7874015748031497,"duration":0.11408718750000446},{"name":"F#4","midi":66,"time":108.80941500000212,"velocity":0.7874015748031497,"duration":0.11408718750000446},{"name":"C#4","midi":61,"time":108.92846250000213,"velocity":0.7874015748031497,"duration":0.11408718750000446},{"name":"C#4","midi":61,"time":109.16655750000213,"velocity":0.7874015748031497,"duration":0.11408718750000446},{"name":"A#4","midi":70,"time":109.28560500000214,"velocity":0.7874015748031497,"duration":0.11408718750000446},{"name":"F#4","midi":66,"time":109.28560500000214,"velocity":0.7874015748031497,"duration":0.11408718750000446},{"name":"B3","midi":59,"time":109.52370000000214,"velocity":0.7874015748031497,"duration":0.11408718750000446},{"name":"D#4","midi":63,"time":109.76179500000214,"velocity":0.7874015748031497,"duration":0.11408718750000446},{"name":"F#4","midi":66,"time":109.76179500000214,"velocity":0.7874015748031497,"duration":0.11408718750000446},{"name":"F#3","midi":54,"time":109.88084250000215,"velocity":0.7874015748031497,"duration":0.11408718750000446},{"name":"F#3","midi":54,"time":110.11893750000215,"velocity":0.7874015748031497,"duration":0.11408718750000446},{"name":"D#4","midi":63,"time":110.23798500000215,"velocity":0.7874015748031497,"duration":0.11408718750000446},{"name":"F#4","midi":66,"time":110.23798500000215,"velocity":0.7874015748031497,"duration":0.11408718750000446},{"name":"F3","midi":53,"time":110.47608000000216,"velocity":0.7874015748031497,"duration":0.11408718750000446},{"name":"F4","midi":65,"time":110.71417500000216,"velocity":0.7874015748031497,"duration":0.11408718750000446},{"name":"A4","midi":69,"time":110.71417500000216,"velocity":0.7874015748031497,"duration":0.11408718750000446},{"name":"C4","midi":60,"time":110.83322250000217,"velocity":0.7874015748031497,"duration":0.11408718750000446},{"name":"C4","midi":60,"time":111.07131750000217,"velocity":0.7874015748031497,"duration":0.11408718750000446},{"name":"F4","midi":65,"time":111.19036500000217,"velocity":0.7874015748031497,"duration":0.11408718750000446},{"name":"A4","midi":69,"time":111.19036500000217,"velocity":0.7874015748031497,"duration":0.11408718750000446},{"name":"A#3","midi":58,"time":111.42846000000218,"velocity":0.7874015748031497,"duration":0.11408718750000446},{"name":"D4","midi":62,"time":111.66655500000218,"velocity":0.7874015748031497,"duration":0.11408718750000446},{"name":"F4","midi":65,"time":111.66655500000218,"velocity":0.7874015748031497,"duration":0.11408718750000446},{"name":"F3","midi":53,"time":111.78560250000218,"velocity":0.7874015748031497,"duration":0.11408718750000446},{"name":"F3","midi":53,"time":112.02369750000219,"velocity":0.7874015748031497,"duration":0.11408718750000446},{"name":"D4","midi":62,"time":112.1427450000022,"velocity":0.7874015748031497,"duration":0.11408718750000446},{"name":"F4","midi":65,"time":112.1427450000022,"velocity":0.7874015748031497,"duration":0.11408718750000446},{"name":"D#3","midi":51,"time":112.3808400000022,"velocity":0.7874015748031497,"duration":0.11408718750000446},{"name":"D#4","midi":63,"time":112.6189350000022,"velocity":0.7874015748031497,"duration":0.11408718750000446},{"name":"G4","midi":67,"time":112.6189350000022,"velocity":0.7874015748031497,"duration":0.11408718750000446},{"name":"A#3","midi":58,"time":112.7379825000022,"velocity":0.7874015748031497,"duration":0.11408718750000446},{"name":"A#3","midi":58,"time":112.9760775000022,"velocity":0.7874015748031497,"duration":0.11408718750000446},{"name":"D#4","midi":63,"time":113.09512500000221,"velocity":0.7874015748031497,"duration":0.11408718750000446},{"name":"G4","midi":67,"time":113.09512500000221,"velocity":0.7874015748031497,"duration":0.11408718750000446},{"name":"G#3","midi":56,"time":113.33322000000221,"velocity":0.7874015748031497,"duration":0.11408718750000446},{"name":"D#4","midi":63,"time":113.57131500000222,"velocity":0.7874015748031497,"duration":0.11408718750000446},{"name":"C4","midi":60,"time":113.57131500000222,"velocity":0.7874015748031497,"duration":0.11408718750000446},{"name":"D#3","midi":51,"time":113.69036250000222,"velocity":0.7874015748031497,"duration":0.11408718750000446},{"name":"D#3","midi":51,"time":113.92845750000222,"velocity":0.7874015748031497,"duration":0.11408718750000446},{"name":"D#4","midi":63,"time":114.04750500000223,"velocity":0.7874015748031497,"duration":0.11408718750000446},{"name":"C4","midi":60,"time":114.04750500000223,"velocity":0.7874015748031497,"duration":0.11408718750000446},{"name":"G3","midi":55,"time":114.28560000000223,"velocity":0.7874015748031497,"duration":0.11408718750000446},{"name":"D4","midi":62,"time":114.52369500000223,"velocity":0.7874015748031497,"duration":0.11408718750000446},{"name":"B3","midi":59,"time":114.52369500000223,"velocity":0.7874015748031497,"duration":0.11408718750000446},{"name":"D3","midi":50,"time":114.64274250000224,"velocity":0.7874015748031497,"duration":0.11408718750000446},{"name":"D3","midi":50,"time":114.88083750000224,"velocity":0.7874015748031497,"duration":0.11408718750000446},{"name":"D4","midi":62,"time":114.99988500000225,"velocity":0.7874015748031497,"duration":0.11408718750000446},{"name":"B3","midi":59,"time":114.99988500000225,"velocity":0.7874015748031497,"duration":0.11408718750000446},{"name":"G3","midi":55,"time":115.23798000000225,"velocity":0.7874015748031497,"duration":0.11408718750000446},{"name":"D4","midi":62,"time":115.47607500000225,"velocity":0.7874015748031497,"duration":0.11408718750000446},{"name":"B3","midi":59,"time":115.47607500000225,"velocity":0.7874015748031497,"duration":0.11408718750000446},{"name":"D3","midi":50,"time":115.59512250000226,"velocity":0.7874015748031497,"duration":0.11408718750000446},{"name":"D3","midi":50,"time":115.83321750000226,"velocity":0.7874015748031497,"duration":0.11408718750000446},{"name":"D4","midi":62,"time":115.95226500000227,"velocity":0.7874015748031497,"duration":0.11408718750000446},{"name":"B3","midi":59,"time":115.95226500000227,"velocity":0.7874015748031497,"duration":0.11408718750000446},{"name":"C4","midi":60,"time":116.19036000000227,"velocity":0.7874015748031497,"duration":0.11408718750000446},{"name":"G4","midi":67,"time":116.42845500000227,"velocity":0.6929133858267716,"duration":0.11408718750000446},{"name":"E4","midi":64,"time":116.42845500000227,"velocity":0.6929133858267716,"duration":0.11408718750000446},{"name":"G3","midi":55,"time":116.54750250000228,"velocity":0.6377952755905512,"duration":0.11408718750000446},{"name":"G3","midi":55,"time":116.78559750000228,"velocity":0.5354330708661418,"duration":0.11408718750000446},{"name":"G4","midi":67,"time":116.90464500000229,"velocity":0.4881889763779528,"duration":0.11408718750000446},{"name":"E4","midi":64,"time":116.90464500000229,"velocity":0.4881889763779528,"duration":0.11408718750000446},{"name":"C4","midi":60,"time":117.14274000000229,"velocity":0.3858267716535433,"duration":0.11408718750000446},{"name":"G4","midi":67,"time":117.38083500000229,"velocity":0.28346456692913385,"duration":0.11408718750000446},{"name":"E4","midi":64,"time":117.38083500000229,"velocity":0.28346456692913385,"duration":0.11408718750000446},{"name":"G3","midi":55,"time":117.4998825000023,"velocity":0.23622047244094488,"duration":0.11408718750000446},{"name":"G3","midi":55,"time":117.7379775000023,"velocity":0.13385826771653545,"duration":0.11408718750000446},{"name":"G4","midi":67,"time":117.85702500000231,"velocity":0.07874015748031496,"duration":0.11408718750000446},{"name":"E4","midi":64,"time":117.85702500000231,"velocity":0.07874015748031496,"duration":0.11408718750000446}],"controlChanges":{"7":[{"number":7,"time":0,"value":0.7086614173228346}],"10":[{"number":10,"time":0,"value":0.31496062992125984}],"91":[{"number":91,"time":0,"value":0.16535433070866143}],"93":[{"number":93,"time":0,"value":0.18110236220472442}]},"id":1,"name":"Marimba","instrumentNumber":12,"instrument":"marimba","instrumentFamily":"chromatic percussion","channelNumber":0,"isPercussion":false},{"startTime":0,"duration":117.97111218750231,"length":880,"notes":[{"name":"C6","midi":84,"time":0,"velocity":0.7874015748031497,"duration":0.1140871875},{"name":"G6","midi":91,"time":0.238095,"velocity":0.7874015748031497,"duration":0.11408718750000002},{"name":"E6","midi":88,"time":0.238095,"velocity":0.7874015748031497,"duration":0.11408718750000002},{"name":"G5","midi":79,"time":0.35714250000000003,"velocity":0.7874015748031497,"duration":0.11408718750000002},{"name":"G5","midi":79,"time":0.5952375000000001,"velocity":0.7874015748031497,"duration":0.11408718750000002},{"name":"G6","midi":91,"time":0.7142850000000001,"velocity":0.7874015748031497,"duration":0.11408718750000002},{"name":"E6","midi":88,"time":0.7142850000000001,"velocity":0.7874015748031497,"duration":0.11408718750000002},{"name":"C6","midi":84,"time":0.9523800000000001,"velocity":0.7874015748031497,"duration":0.11408718749999991},{"name":"G6","midi":91,"time":1.190475,"velocity":0.7874015748031497,"duration":0.11408718750000002},{"name":"E6","midi":88,"time":1.190475,"velocity":0.7874015748031497,"duration":0.11408718750000002},{"name":"G5","midi":79,"time":1.3095225,"velocity":0.7874015748031497,"duration":0.11408718750000002},{"name":"G5","midi":79,"time":1.5476174999999999,"velocity":0.7874015748031497,"duration":0.11408718750000002},{"name":"G6","midi":91,"time":1.6666649999999998,"velocity":0.7874015748031497,"duration":0.11408718750000002},{"name":"E6","midi":88,"time":1.6666649999999998,"velocity":0.7874015748031497,"duration":0.11408718750000002},{"name":"C6","midi":84,"time":1.9047599999999998,"velocity":0.7874015748031497,"duration":0.1140871874999998},{"name":"G6","midi":91,"time":2.1428549999999995,"velocity":0.7874015748031497,"duration":0.11408718750000002},{"name":"E6","midi":88,"time":2.1428549999999995,"velocity":0.7874015748031497,"duration":0.11408718750000002},{"name":"G5","midi":79,"time":2.2619024999999997,"velocity":0.7874015748031497,"duration":0.11408718750000002},{"name":"G5","midi":79,"time":2.4999974999999997,"velocity":0.7874015748031497,"duration":0.11408718750000002},{"name":"G6","midi":91,"time":2.619045,"velocity":0.7874015748031497,"duration":0.11408718750000002},{"name":"E6","midi":88,"time":2.619045,"velocity":0.7874015748031497,"duration":0.11408718750000002},{"name":"C6","midi":84,"time":2.85714,"velocity":0.7874015748031497,"duration":0.11408718750000002},{"name":"G6","midi":91,"time":3.0952349999999997,"velocity":0.7874015748031497,"duration":0.11408718750000002},{"name":"E6","midi":88,"time":3.0952349999999997,"velocity":0.7874015748031497,"duration":0.11408718750000002},{"name":"G5","midi":79,"time":3.2142825,"velocity":0.7874015748031497,"duration":0.11408718750000002},{"name":"G5","midi":79,"time":3.4523775,"velocity":0.7874015748031497,"duration":0.11408718750000002},{"name":"G6","midi":91,"time":3.571425,"velocity":0.7874015748031497,"duration":0.11408718750000002},{"name":"E6","midi":88,"time":3.571425,"velocity":0.7874015748031497,"duration":0.11408718750000002},{"name":"G#5","midi":80,"time":3.80952,"velocity":0.7874015748031497,"duration":0.11408718750000002},{"name":"D#6","midi":87,"time":4.047615,"velocity":0.7874015748031497,"duration":0.11408718750000002},{"name":"F#6","midi":90,"time":4.047615,"velocity":0.7874015748031497,"duration":0.11408718750000002},{"name":"D#5","midi":75,"time":4.1666625,"velocity":0.7874015748031497,"duration":0.11408718750000002},{"name":"D#5","midi":75,"time":4.4047575000000005,"velocity":0.7874015748031497,"duration":0.11408718750000002},{"name":"D#6","midi":87,"time":4.523805,"velocity":0.7874015748031497,"duration":0.11408718750000002},{"name":"F#6","midi":90,"time":4.523805,"velocity":0.7874015748031497,"duration":0.11408718750000002},{"name":"C6","midi":84,"time":4.761900000000001,"velocity":0.7874015748031497,"duration":0.11408718750000002},{"name":"G6","midi":91,"time":4.999995000000001,"velocity":0.7874015748031497,"duration":0.11408718750000002},{"name":"E6","midi":88,"time":4.999995000000001,"velocity":0.7874015748031497,"duration":0.11408718750000002},{"name":"G5","midi":79,"time":5.2380900000000015,"velocity":0.7874015748031497,"duration":0.11408718750000002},{"name":"E6","midi":88,"time":5.476185000000002,"velocity":0.7874015748031497,"duration":0.11408718750000002},{"name":"G6","midi":91,"time":5.476185000000002,"velocity":0.7874015748031497,"duration":0.11408718750000002},{"name":"C6","midi":84,"time":5.714280000000002,"velocity":0.7874015748031497,"duration":0.11408718750000002},{"name":"G6","midi":91,"time":5.952375000000003,"velocity":0.7874015748031497,"duration":0.11408718750000002},{"name":"E6","midi":88,"time":5.952375000000003,"velocity":0.7874015748031497,"duration":0.11408718750000002},{"name":"G5","midi":79,"time":6.071422500000002,"velocity":0.7874015748031497,"duration":0.11408718750000002},{"name":"G5","midi":79,"time":6.309517500000003,"velocity":0.7874015748031497,"duration":0.11408718750000002},{"name":"G6","midi":91,"time":6.4285650000000025,"velocity":0.7874015748031497,"duration":0.11408718750000002},{"name":"E6","midi":88,"time":6.4285650000000025,"velocity":0.7874015748031497,"duration":0.11408718750000002},{"name":"C6","midi":84,"time":6.666660000000003,"velocity":0.7874015748031497,"duration":0.11408718750000002},{"name":"G6","midi":91,"time":6.904755000000003,"velocity":0.7874015748031497,"duration":0.11408718750000002},{"name":"E6","midi":88,"time":6.904755000000003,"velocity":0.7874015748031497,"duration":0.11408718750000002},{"name":"G5","midi":79,"time":7.023802500000003,"velocity":0.7874015748031497,"duration":0.11408718750000002},{"name":"G5","midi":79,"time":7.2618975000000034,"velocity":0.7874015748031497,"duration":0.11408718750000002},{"name":"G6","midi":91,"time":7.380945000000003,"velocity":0.7874015748031497,"duration":0.11408718750000002},{"name":"E6","midi":88,"time":7.380945000000003,"velocity":0.7874015748031497,"duration":0.11408718750000002},{"name":"G#5","midi":80,"time":7.619040000000004,"velocity":0.7874015748031497,"duration":0.11408718750000002},{"name":"D#6","midi":87,"time":7.857135000000004,"velocity":0.7874015748031497,"duration":0.11408718750000002},{"name":"F#6","midi":90,"time":7.857135000000004,"velocity":0.7874015748031497,"duration":0.11408718750000002},{"name":"D#5","midi":75,"time":7.976182500000004,"velocity":0.7874015748031497,"duration":0.11408718749999913},{"name":"D#5","midi":75,"time":8.214277500000003,"velocity":0.7874015748031497,"duration":0.11408718749999913},{"name":"D#6","midi":87,"time":8.333325000000002,"velocity":0.7874015748031497,"duration":0.11408718749999913},{"name":"F#6","midi":90,"time":8.333325000000002,"velocity":0.7874015748031497,"duration":0.11408718749999913},{"name":"C6","midi":84,"time":8.571420000000002,"velocity":0.7874015748031497,"duration":0.11408718749999913},{"name":"G6","midi":91,"time":8.809515000000001,"velocity":0.7874015748031497,"duration":0.11408718749999913},{"name":"E6","midi":88,"time":8.809515000000001,"velocity":0.7874015748031497,"duration":0.11408718749999913},{"name":"G5","midi":79,"time":9.04761,"velocity":0.7874015748031497,"duration":0.11408718749999913},{"name":"E6","midi":88,"time":9.285705,"velocity":0.7874015748031497,"duration":0.11408718749999913},{"name":"G6","midi":91,"time":9.285705,"velocity":0.7874015748031497,"duration":0.11408718749999913},{"name":"C6","midi":84,"time":9.5238,"velocity":0.7874015748031497,"duration":0.11408718749999913},{"name":"G6","midi":91,"time":9.761894999999999,"velocity":0.7874015748031497,"duration":0.11408718749999913},{"name":"E6","midi":88,"time":9.761894999999999,"velocity":0.7874015748031497,"duration":0.11408718749999913},{"name":"G5","midi":79,"time":9.880942499999998,"velocity":0.7874015748031497,"duration":0.11408718749999913},{"name":"G5","midi":79,"time":10.119037499999997,"velocity":0.7874015748031497,"duration":0.11408718749999913},{"name":"G6","midi":91,"time":10.238084999999996,"velocity":0.7874015748031497,"duration":0.11408718749999913},{"name":"E6","midi":88,"time":10.238084999999996,"velocity":0.7874015748031497,"duration":0.11408718749999913},{"name":"C6","midi":84,"time":10.476179999999996,"velocity":0.7874015748031497,"duration":0.11408718749999913},{"name":"G6","midi":91,"time":10.714274999999995,"velocity":0.7874015748031497,"duration":0.11408718749999913},{"name":"E6","midi":88,"time":10.714274999999995,"velocity":0.7874015748031497,"duration":0.11408718749999913},{"name":"G5","midi":79,"time":10.833322499999994,"velocity":0.7874015748031497,"duration":0.11408718749999913},{"name":"G5","midi":79,"time":11.071417499999994,"velocity":0.7874015748031497,"duration":0.11408718749999913},{"name":"G6","midi":91,"time":11.190464999999993,"velocity":0.7874015748031497,"duration":0.11408718749999913},{"name":"E6","midi":88,"time":11.190464999999993,"velocity":0.7874015748031497,"duration":0.11408718749999913},{"name":"G#5","midi":80,"time":11.428559999999992,"velocity":0.7874015748031497,"duration":0.11408718749999913},{"name":"D#6","midi":87,"time":11.666654999999992,"velocity":0.7874015748031497,"duration":0.11408718749999913},{"name":"F#6","midi":90,"time":11.666654999999992,"velocity":0.7874015748031497,"duration":0.11408718749999913},{"name":"D#5","midi":75,"time":11.78570249999999,"velocity":0.7874015748031497,"duration":0.11408718749999913},{"name":"D#5","midi":75,"time":12.02379749999999,"velocity":0.7874015748031497,"duration":0.11408718749999913},{"name":"D#6","midi":87,"time":12.142844999999989,"velocity":0.7874015748031497,"duration":0.11408718749999913},{"name":"F#6","midi":90,"time":12.142844999999989,"velocity":0.7874015748031497,"duration":0.11408718749999913},{"name":"C6","midi":84,"time":12.380939999999988,"velocity":0.7874015748031497,"duration":0.11408718749999913},{"name":"G6","midi":91,"time":12.619034999999988,"velocity":0.7874015748031497,"duration":0.11408718749999913},{"name":"E6","midi":88,"time":12.619034999999988,"velocity":0.7874015748031497,"duration":0.11408718749999913},{"name":"G5","midi":79,"time":12.857129999999987,"velocity":0.7874015748031497,"duration":0.11408718749999913},{"name":"E6","midi":88,"time":13.095224999999987,"velocity":0.7874015748031497,"duration":0.11408718749999913},{"name":"G6","midi":91,"time":13.095224999999987,"velocity":0.7874015748031497,"duration":0.11408718749999913},{"name":"C6","midi":84,"time":13.333319999999986,"velocity":0.7874015748031497,"duration":0.11408718749999913},{"name":"G6","midi":91,"time":13.571414999999986,"velocity":0.7874015748031497,"duration":0.11408718749999913},{"name":"E6","midi":88,"time":13.571414999999986,"velocity":0.7874015748031497,"duration":0.11408718749999913},{"name":"G5","midi":79,"time":13.690462499999985,"velocity":0.7874015748031497,"duration":0.11408718749999913},{"name":"G5","midi":79,"time":13.928557499999984,"velocity":0.7874015748031497,"duration":0.11408718749999913},{"name":"G6","midi":91,"time":14.047604999999983,"velocity":0.7874015748031497,"duration":0.11408718749999913},{"name":"E6","midi":88,"time":14.047604999999983,"velocity":0.7874015748031497,"duration":0.11408718749999913},{"name":"C6","midi":84,"time":14.285699999999983,"velocity":0.7874015748031497,"duration":0.11408718749999913},{"name":"G6","midi":91,"time":14.523794999999982,"velocity":0.7874015748031497,"duration":0.11408718749999913},{"name":"E6","midi":88,"time":14.523794999999982,"velocity":0.7874015748031497,"duration":0.11408718749999913},{"name":"G5","midi":79,"time":14.64284249999998,"velocity":0.7874015748031497,"duration":0.11408718749999913},{"name":"G5","midi":79,"time":14.88093749999998,"velocity":0.7874015748031497,"duration":0.11408718749999913},{"name":"G6","midi":91,"time":14.99998499999998,"velocity":0.7874015748031497,"duration":0.11408718749999913},{"name":"E6","midi":88,"time":14.99998499999998,"velocity":0.7874015748031497,"duration":0.11408718749999913},{"name":"C#6","midi":85,"time":15.238079999999979,"velocity":0.7874015748031497,"duration":0.11408718749999913},{"name":"G#6","midi":92,"time":15.476174999999978,"velocity":0.7874015748031497,"duration":0.11408718749999913},{"name":"F6","midi":89,"time":15.476174999999978,"velocity":0.7874015748031497,"duration":0.11408718749999913},{"name":"G5","midi":79,"time":15.595222499999977,"velocity":0.7874015748031497,"duration":0.11408718749999913},{"name":"G5","midi":79,"time":15.833317499999977,"velocity":0.7874015748031497,"duration":0.11408718749999913},{"name":"G6","midi":91,"time":15.952364999999975,"velocity":0.7874015748031497,"duration":0.11408718750000091},{"name":"F6","midi":89,"time":15.952364999999975,"velocity":0.7874015748031497,"duration":0.11408718750000091},{"name":"C6","midi":84,"time":16.190459999999977,"velocity":0.7874015748031497,"duration":0.11408718750000091},{"name":"G6","midi":91,"time":16.428554999999978,"velocity":0.7874015748031497,"duration":0.11408718750000091},{"name":"E6","midi":88,"time":16.428554999999978,"velocity":0.7874015748031497,"duration":0.11408718750000091},{"name":"G5","midi":79,"time":16.66664999999998,"velocity":0.7874015748031497,"duration":0.11408718750000091},{"name":"E6","midi":88,"time":16.90474499999998,"velocity":0.7874015748031497,"duration":0.11408718750000091},{"name":"G6","midi":91,"time":16.90474499999998,"velocity":0.7874015748031497,"duration":0.11408718750000091},{"name":"F#5","midi":78,"time":17.142839999999982,"velocity":0.7874015748031497,"duration":0.11408718750000091},{"name":"A#6","midi":94,"time":17.380934999999983,"velocity":0.7874015748031497,"duration":0.11408718750000091},{"name":"F#6","midi":90,"time":17.380934999999983,"velocity":0.7874015748031497,"duration":0.11408718750000091},{"name":"C#6","midi":85,"time":17.499982499999984,"velocity":0.7874015748031497,"duration":0.11408718750000091},{"name":"C#6","midi":85,"time":17.738077499999985,"velocity":0.7874015748031497,"duration":0.11408718750000091},{"name":"A#6","midi":94,"time":17.857124999999986,"velocity":0.7874015748031497,"duration":0.11408718750000091},{"name":"F#6","midi":90,"time":17.857124999999986,"velocity":0.7874015748031497,"duration":0.11408718750000091},{"name":"B5","midi":83,"time":18.095219999999987,"velocity":0.7874015748031497,"duration":0.11408718750000091},{"name":"D#6","midi":87,"time":18.33331499999999,"velocity":0.7874015748031497,"duration":0.11408718750000091},{"name":"F#6","midi":90,"time":18.33331499999999,"velocity":0.7874015748031497,"duration":0.11408718750000091},{"name":"F#5","midi":78,"time":18.45236249999999,"velocity":0.7874015748031497,"duration":0.11408718750000091},{"name":"F#5","midi":78,"time":18.69045749999999,"velocity":0.7874015748031497,"duration":0.11408718750000091},{"name":"D#6","midi":87,"time":18.80950499999999,"velocity":0.7874015748031497,"duration":0.11408718750000091},{"name":"F#6","midi":90,"time":18.80950499999999,"velocity":0.7874015748031497,"duration":0.11408718750000091},{"name":"F5","midi":77,"time":19.047599999999992,"velocity":0.7874015748031497,"duration":0.11408718750000091},{"name":"F6","midi":89,"time":19.285694999999993,"velocity":0.7874015748031497,"duration":0.11408718750000091},{"name":"A6","midi":93,"time":19.285694999999993,"velocity":0.7874015748031497,"duration":0.11408718750000091},{"name":"C6","midi":84,"time":19.404742499999994,"velocity":0.7874015748031497,"duration":0.11408718750000091},{"name":"C6","midi":84,"time":19.642837499999995,"velocity":0.7874015748031497,"duration":0.11408718750000091},{"name":"F6","midi":89,"time":19.761884999999996,"velocity":0.7874015748031497,"duration":0.11408718750000091},{"name":"A6","midi":93,"time":19.761884999999996,"velocity":0.7874015748031497,"duration":0.11408718750000091},{"name":"A#5","midi":82,"time":19.999979999999997,"velocity":0.7874015748031497,"duration":0.11408718750000091},{"name":"D6","midi":86,"time":20.238075,"velocity":0.7874015748031497,"duration":0.11408718750000091},{"name":"F6","midi":89,"time":20.238075,"velocity":0.7874015748031497,"duration":0.11408718750000091},{"name":"F5","midi":77,"time":20.3571225,"velocity":0.7874015748031497,"duration":0.11408718750000091},{"name":"F5","midi":77,"time":20.5952175,"velocity":0.7874015748031497,"duration":0.11408718750000091},{"name":"D6","midi":86,"time":20.714265,"velocity":0.7874015748031497,"duration":0.11408718750000091},{"name":"F6","midi":89,"time":20.714265,"velocity":0.7874015748031497,"duration":0.11408718750000091},{"name":"D#5","midi":75,"time":20.952360000000002,"velocity":0.7874015748031497,"duration":0.11408718750000091},{"name":"D#6","midi":87,"time":21.190455000000004,"velocity":0.7874015748031497,"duration":0.11408718750000091},{"name":"G6","midi":91,"time":21.190455000000004,"velocity":0.7874015748031497,"duration":0.11408718750000091},{"name":"A#5","midi":82,"time":21.309502500000004,"velocity":0.7874015748031497,"duration":0.11408718750000091},{"name":"A#5","midi":82,"time":21.547597500000006,"velocity":0.7874015748031497,"duration":0.11408718750000091},{"name":"D#6","midi":87,"time":21.666645000000006,"velocity":0.7874015748031497,"duration":0.11408718750000091},{"name":"G6","midi":91,"time":21.666645000000006,"velocity":0.7874015748031497,"duration":0.11408718750000091},{"name":"G#5","midi":80,"time":21.904740000000007,"velocity":0.7874015748031497,"duration":0.11408718750000091},{"name":"D#6","midi":87,"time":22.14283500000001,"velocity":0.7874015748031497,"duration":0.11408718750000091},{"name":"C6","midi":84,"time":22.14283500000001,"velocity":0.7874015748031497,"duration":0.11408718750000091},{"name":"D#5","midi":75,"time":22.26188250000001,"velocity":0.7874015748031497,"duration":0.11408718750000091},{"name":"D#5","midi":75,"time":22.49997750000001,"velocity":0.7874015748031497,"duration":0.11408718750000091},{"name":"D#6","midi":87,"time":22.61902500000001,"velocity":0.7874015748031497,"duration":0.11408718750000091},{"name":"C6","midi":84,"time":22.61902500000001,"velocity":0.7874015748031497,"duration":0.11408718750000091},{"name":"G5","midi":79,"time":22.857120000000013,"velocity":0.7874015748031497,"duration":0.11408718750000091},{"name":"D6","midi":86,"time":23.095215000000014,"velocity":0.7874015748031497,"duration":0.11408718750000091},{"name":"B5","midi":83,"time":23.095215000000014,"velocity":0.7874015748031497,"duration":0.11408718750000091},{"name":"D5","midi":74,"time":23.214262500000014,"velocity":0.7874015748031497,"duration":0.11408718750000091},{"name":"D5","midi":74,"time":23.452357500000016,"velocity":0.7874015748031497,"duration":0.11408718750000091},{"name":"D6","midi":86,"time":23.571405000000016,"velocity":0.7874015748031497,"duration":0.11408718750000091},{"name":"B5","midi":83,"time":23.571405000000016,"velocity":0.7874015748031497,"duration":0.11408718750000091},{"name":"G5","midi":79,"time":23.809500000000018,"velocity":0.7874015748031497,"duration":0.11408718750000091},{"name":"D6","midi":86,"time":24.04759500000002,"velocity":0.7874015748031497,"duration":0.11408718750000091},{"name":"B5","midi":83,"time":24.04759500000002,"velocity":0.7874015748031497,"duration":0.11408718750000091},{"name":"D5","midi":74,"time":24.16664250000002,"velocity":0.7874015748031497,"duration":0.11408718750000091},{"name":"D5","midi":74,"time":24.40473750000002,"velocity":0.7874015748031497,"duration":0.11408718750000091},{"name":"D6","midi":86,"time":24.52378500000002,"velocity":0.7874015748031497,"duration":0.11408718750000091},{"name":"B5","midi":83,"time":24.52378500000002,"velocity":0.7874015748031497,"duration":0.11408718750000091},{"name":"C6","midi":84,"time":24.761880000000023,"velocity":0.7874015748031497,"duration":0.11408718750000091},{"name":"G6","midi":91,"time":24.999975000000024,"velocity":0.7874015748031497,"duration":0.11408718750000091},{"name":"E6","midi":88,"time":24.999975000000024,"velocity":0.7874015748031497,"duration":0.11408718750000091},{"name":"G5","midi":79,"time":25.119022500000025,"velocity":0.7874015748031497,"duration":0.11408718750000091},{"name":"G5","midi":79,"time":25.357117500000026,"velocity":0.7874015748031497,"duration":0.11408718750000091},{"name":"G6","midi":91,"time":25.476165000000027,"velocity":0.7874015748031497,"duration":0.11408718750000091},{"name":"E6","midi":88,"time":25.476165000000027,"velocity":0.7874015748031497,"duration":0.11408718750000091},{"name":"C6","midi":84,"time":25.714260000000028,"velocity":0.7874015748031497,"duration":0.11408718750000091},{"name":"G6","midi":91,"time":25.95235500000003,"velocity":0.7874015748031497,"duration":0.11408718750000091},{"name":"E6","midi":88,"time":25.95235500000003,"velocity":0.7874015748031497,"duration":0.11408718750000091},{"name":"G5","midi":79,"time":26.07140250000003,"velocity":0.7874015748031497,"duration":0.11408718750000091},{"name":"G5","midi":79,"time":26.30949750000003,"velocity":0.7874015748031497,"duration":0.11408718750000091},{"name":"G6","midi":91,"time":26.42854500000003,"velocity":0.7874015748031497,"duration":0.11408718750000091},{"name":"E6","midi":88,"time":26.42854500000003,"velocity":0.7874015748031497,"duration":0.11408718750000091},{"name":"G#5","midi":80,"time":26.666640000000033,"velocity":0.7874015748031497,"duration":0.11408718750000091},{"name":"D#6","midi":87,"time":26.904735000000034,"velocity":0.7874015748031497,"duration":0.11408718750000091},{"name":"F#6","midi":90,"time":26.904735000000034,"velocity":0.7874015748031497,"duration":0.11408718750000091},{"name":"D#5","midi":75,"time":27.023782500000035,"velocity":0.7874015748031497,"duration":0.11408718750000091},{"name":"D#5","midi":75,"time":27.261877500000036,"velocity":0.7874015748031497,"duration":0.11408718750000091},{"name":"D#6","midi":87,"time":27.380925000000037,"velocity":0.7874015748031497,"duration":0.11408718750000091},{"name":"F#6","midi":90,"time":27.380925000000037,"velocity":0.7874015748031497,"duration":0.11408718750000091},{"name":"C6","midi":84,"time":27.619020000000038,"velocity":0.7874015748031497,"duration":0.11408718750000091},{"name":"G6","midi":91,"time":27.85711500000004,"velocity":0.7874015748031497,"duration":0.11408718750000091},{"name":"E6","midi":88,"time":27.85711500000004,"velocity":0.7874015748031497,"duration":0.11408718750000091},{"name":"G5","midi":79,"time":28.09521000000004,"velocity":0.7874015748031497,"duration":0.11408718750000091},{"name":"E6","midi":88,"time":28.333305000000042,"velocity":0.7874015748031497,"duration":0.11408718750000091},{"name":"G6","midi":91,"time":28.333305000000042,"velocity":0.7874015748031497,"duration":0.11408718750000091},{"name":"C6","midi":84,"time":28.571400000000043,"velocity":0.7874015748031497,"duration":0.11408718750000091},{"name":"G6","midi":91,"time":28.809495000000044,"velocity":0.7874015748031497,"duration":0.11408718750000091},{"name":"E6","midi":88,"time":28.809495000000044,"velocity":0.7874015748031497,"duration":0.11408718750000091},{"name":"G5","midi":79,"time":28.928542500000045,"velocity":0.7874015748031497,"duration":0.11408718750000091},{"name":"G5","midi":79,"time":29.166637500000046,"velocity":0.7874015748031497,"duration":0.11408718750000091},{"name":"G6","midi":91,"time":29.285685000000047,"velocity":0.7874015748031497,"duration":0.11408718750000091},{"name":"E6","midi":88,"time":29.285685000000047,"velocity":0.7874015748031497,"duration":0.11408718750000091},{"name":"C6","midi":84,"time":29.52378000000005,"velocity":0.7874015748031497,"duration":0.11408718750000091},{"name":"G6","midi":91,"time":29.76187500000005,"velocity":0.7874015748031497,"duration":0.11408718750000091},{"name":"E6","midi":88,"time":29.76187500000005,"velocity":0.7874015748031497,"duration":0.11408718750000091},{"name":"G5","midi":79,"time":29.88092250000005,"velocity":0.7874015748031497,"duration":0.11408718750000091},{"name":"G5","midi":79,"time":30.11901750000005,"velocity":0.7874015748031497,"duration":0.11408718750000091},{"name":"G6","midi":91,"time":30.238065000000052,"velocity":0.7874015748031497,"duration":0.11408718750000091},{"name":"E6","midi":88,"time":30.238065000000052,"velocity":0.7874015748031497,"duration":0.11408718750000091},{"name":"G#5","midi":80,"time":30.476160000000053,"velocity":0.7874015748031497,"duration":0.11408718750000091},{"name":"D#6","midi":87,"time":30.714255000000055,"velocity":0.7874015748031497,"duration":0.11408718750000091},{"name":"F#6","midi":90,"time":30.714255000000055,"velocity":0.7874015748031497,"duration":0.11408718750000091},{"name":"D#5","midi":75,"time":30.833302500000055,"velocity":0.7874015748031497,"duration":0.11408718750000091},{"name":"D#5","midi":75,"time":31.071397500000057,"velocity":0.7874015748031497,"duration":0.11408718750000091},{"name":"D#6","midi":87,"time":31.190445000000057,"velocity":0.7874015748031497,"duration":0.11408718750000091},{"name":"F#6","midi":90,"time":31.190445000000057,"velocity":0.7874015748031497,"duration":0.11408718750000091},{"name":"C6","midi":84,"time":31.42854000000006,"velocity":0.7874015748031497,"duration":0.11408718750000091},{"name":"G6","midi":91,"time":31.66663500000006,"velocity":0.7874015748031497,"duration":0.11408718750000091},{"name":"E6","midi":88,"time":31.66663500000006,"velocity":0.7874015748031497,"duration":0.11408718750000091},{"name":"G5","midi":79,"time":31.90473000000006,"velocity":0.7874015748031497,"duration":0.11408718750000091},{"name":"E6","midi":88,"time":32.14282500000006,"velocity":0.7874015748031497,"duration":0.11408718749999736},{"name":"G6","midi":91,"time":32.14282500000006,"velocity":0.7874015748031497,"duration":0.11408718749999736},{"name":"C6","midi":84,"time":32.38092000000005,"velocity":0.7874015748031497,"duration":0.11408718749999736},{"name":"G6","midi":91,"time":32.61901500000005,"velocity":0.7874015748031497,"duration":0.11408718749999736},{"name":"E6","midi":88,"time":32.61901500000005,"velocity":0.7874015748031497,"duration":0.11408718749999736},{"name":"G5","midi":79,"time":32.73806250000005,"velocity":0.7874015748031497,"duration":0.11408718749999736},{"name":"G5","midi":79,"time":32.97615750000004,"velocity":0.7874015748031497,"duration":0.11408718749999736},{"name":"G6","midi":91,"time":33.09520500000004,"velocity":0.7874015748031497,"duration":0.11408718749999736},{"name":"E6","midi":88,"time":33.09520500000004,"velocity":0.7874015748031497,"duration":0.11408718749999736},{"name":"C6","midi":84,"time":33.33330000000004,"velocity":0.7874015748031497,"duration":0.11408718749999736},{"name":"G6","midi":91,"time":33.57139500000003,"velocity":0.7874015748031497,"duration":0.11408718749999736},{"name":"E6","midi":88,"time":33.57139500000003,"velocity":0.7874015748031497,"duration":0.11408718749999736},{"name":"G5","midi":79,"time":33.69044250000003,"velocity":0.7874015748031497,"duration":0.11408718749999736},{"name":"G5","midi":79,"time":33.928537500000026,"velocity":0.7874015748031497,"duration":0.11408718749999736},{"name":"G6","midi":91,"time":34.047585000000026,"velocity":0.7874015748031497,"duration":0.11408718749999736},{"name":"E6","midi":88,"time":34.047585000000026,"velocity":0.7874015748031497,"duration":0.11408718749999736},{"name":"G#5","midi":80,"time":34.28568000000002,"velocity":0.7874015748031497,"duration":0.11408718749999736},{"name":"D#6","midi":87,"time":34.523775000000015,"velocity":0.7874015748031497,"duration":0.11408718749999736},{"name":"F#6","midi":90,"time":34.523775000000015,"velocity":0.7874015748031497,"duration":0.11408718749999736},{"name":"D#5","midi":75,"time":34.642822500000015,"velocity":0.7874015748031497,"duration":0.11408718749999736},{"name":"D#5","midi":75,"time":34.88091750000001,"velocity":0.7874015748031497,"duration":0.11408718749999736},{"name":"D#6","midi":87,"time":34.99996500000001,"velocity":0.7874015748031497,"duration":0.11408718749999736},{"name":"F#6","midi":90,"time":34.99996500000001,"velocity":0.7874015748031497,"duration":0.11408718749999736},{"name":"C6","midi":84,"time":35.238060000000004,"velocity":0.7874015748031497,"duration":0.11408718749999736},{"name":"G6","midi":91,"time":35.476155,"velocity":0.7874015748031497,"duration":0.11408718749999736},{"name":"E6","midi":88,"time":35.476155,"velocity":0.7874015748031497,"duration":0.11408718749999736},{"name":"G5","midi":79,"time":35.71424999999999,"velocity":0.7874015748031497,"duration":0.11408718749999736},{"name":"E6","midi":88,"time":35.95234499999999,"velocity":0.7874015748031497,"duration":0.11408718749999736},{"name":"G6","midi":91,"time":35.95234499999999,"velocity":0.7874015748031497,"duration":0.11408718749999736},{"name":"C6","midi":84,"time":36.19043999999998,"velocity":0.7874015748031497,"duration":0.11408718749999736},{"name":"G6","midi":91,"time":36.428534999999975,"velocity":0.7874015748031497,"duration":0.11408718749999736},{"name":"E6","midi":88,"time":36.428534999999975,"velocity":0.7874015748031497,"duration":0.11408718749999736},{"name":"G5","midi":79,"time":36.547582499999976,"velocity":0.7874015748031497,"duration":0.11408718749999736},{"name":"G5","midi":79,"time":36.78567749999997,"velocity":0.7874015748031497,"duration":0.11408718749999736},{"name":"G6","midi":91,"time":36.90472499999997,"velocity":0.7874015748031497,"duration":0.11408718749999736},{"name":"E6","midi":88,"time":36.90472499999997,"velocity":0.7874015748031497,"duration":0.11408718749999736},{"name":"C6","midi":84,"time":37.142819999999965,"velocity":0.7874015748031497,"duration":0.11408718749999736},{"name":"G6","midi":91,"time":37.38091499999996,"velocity":0.7874015748031497,"duration":0.11408718749999736},{"name":"E6","midi":88,"time":37.38091499999996,"velocity":0.7874015748031497,"duration":0.11408718749999736},{"name":"G5","midi":79,"time":37.49996249999996,"velocity":0.7874015748031497,"duration":0.11408718749999736},{"name":"G5","midi":79,"time":37.738057499999954,"velocity":0.7874015748031497,"duration":0.11408718749999736},{"name":"G6","midi":91,"time":37.857104999999954,"velocity":0.7874015748031497,"duration":0.11408718749999736},{"name":"E6","midi":88,"time":37.857104999999954,"velocity":0.7874015748031497,"duration":0.11408718749999736},{"name":"C#6","midi":85,"time":38.09519999999995,"velocity":0.7874015748031497,"duration":0.11408718749999736},{"name":"G#6","midi":92,"time":38.33329499999994,"velocity":0.7874015748031497,"duration":0.11408718749999736},{"name":"F6","midi":89,"time":38.33329499999994,"velocity":0.7874015748031497,"duration":0.11408718749999736},{"name":"G5","midi":79,"time":38.45234249999994,"velocity":0.7874015748031497,"duration":0.11408718749999736},{"name":"G5","midi":79,"time":38.69043749999994,"velocity":0.7874015748031497,"duration":0.11408718749999736},{"name":"G6","midi":91,"time":38.80948499999994,"velocity":0.7874015748031497,"duration":0.11408718749999736},{"name":"F6","midi":89,"time":38.80948499999994,"velocity":0.7874015748031497,"duration":0.11408718749999736},{"name":"C6","midi":84,"time":39.04757999999993,"velocity":0.7874015748031497,"duration":0.11408718749999736},{"name":"G6","midi":91,"time":39.28567499999993,"velocity":0.7874015748031497,"duration":0.11408718749999736},{"name":"E6","midi":88,"time":39.28567499999993,"velocity":0.7874015748031497,"duration":0.11408718749999736},{"name":"G5","midi":79,"time":39.52376999999992,"velocity":0.7874015748031497,"duration":0.11408718749999736},{"name":"E6","midi":88,"time":39.761864999999915,"velocity":0.7874015748031497,"duration":0.11408718749999736},{"name":"G6","midi":91,"time":39.761864999999915,"velocity":0.7874015748031497,"duration":0.11408718749999736},{"name":"F#6","midi":90,"time":39.99995999999991,"velocity":0.7874015748031497,"duration":0.11408718749999736},{"name":"G#6","midi":92,"time":40.357102499999904,"velocity":0.7874015748031497,"duration":0.11408718749999736},{"name":"A#6","midi":94,"time":40.476149999999905,"velocity":0.7874015748031497,"duration":0.11408718749999736},{"name":"G#6","midi":92,"time":40.7142449999999,"velocity":0.7874015748031497,"duration":0.11408718749999736},{"name":"F#6","midi":90,"time":40.95233999999989,"velocity":0.7874015748031497,"duration":0.11408718749999736},{"name":"F6","midi":89,"time":41.071387499999894,"velocity":0.7874015748031497,"duration":0.11408718749999736},{"name":"F#6","midi":90,"time":41.190434999999894,"velocity":0.7874015748031497,"duration":0.11408718749999736},{"name":"F6","midi":89,"time":41.309482499999895,"velocity":0.7874015748031497,"duration":0.11408718749999736},{"name":"F#6","midi":90,"time":41.428529999999895,"velocity":0.7874015748031497,"duration":0.11408718749999736},{"name":"C#6","midi":85,"time":41.66662499999989,"velocity":0.7874015748031497,"duration":0.11408718749999736},{"name":"D6","midi":86,"time":41.904719999999884,"velocity":0.7874015748031497,"duration":0.11408718749999736},{"name":"E6","midi":88,"time":42.26186249999988,"velocity":0.7874015748031497,"duration":0.11408718749999736},{"name":"F#6","midi":90,"time":42.38090999999988,"velocity":0.7874015748031497,"duration":0.11408718749999736},{"name":"E6","midi":88,"time":42.61900499999987,"velocity":0.7874015748031497,"duration":0.11408718749999736},{"name":"D6","midi":86,"time":42.738052499999874,"velocity":0.7874015748031497,"duration":0.11408718749999736},{"name":"C#6","midi":85,"time":42.857099999999875,"velocity":0.7874015748031497,"duration":0.11408718749999736},{"name":"B5","midi":83,"time":43.80947999999987,"velocity":0.7874015748031497,"duration":0.11408718749999736},{"name":"C#6","midi":85,"time":44.16662249999987,"velocity":0.7874015748031497,"duration":0.11408718749999736},{"name":"D#6","midi":87,"time":44.28566999999987,"velocity":0.7874015748031497,"duration":0.11408718749999736},{"name":"C#6","midi":85,"time":44.52376499999986,"velocity":0.7874015748031497,"duration":0.11408718749999736},{"name":"B5","midi":83,"time":44.64281249999986,"velocity":0.7874015748031497,"duration":0.11408718749999736},{"name":"C#6","midi":85,"time":44.761859999999864,"velocity":0.7874015748031497,"duration":0.11408718749999736},{"name":"F#6","midi":90,"time":44.99995499999986,"velocity":0.7874015748031497,"duration":0.11408718749999736},{"name":"F#5","midi":78,"time":45.23804999999985,"velocity":0.7874015748031497,"duration":0.11408718749999736},{"name":"G#5","midi":80,"time":45.71423999999985,"velocity":0.7874015748031497,"duration":0.11408718749999736},{"name":"G#5","midi":80,"time":46.07138249999984,"velocity":0.7874015748031497,"duration":0.11408718749999736},{"name":"G#5","midi":80,"time":46.19042999999984,"velocity":0.7874015748031497,"duration":0.11408718749999736},{"name":"G5","midi":79,"time":46.42852499999984,"velocity":0.7874015748031497,"duration":0.11408718749999736},{"name":"G#5","midi":80,"time":46.54757249999984,"velocity":0.7874015748031497,"duration":0.11408718749999736},{"name":"C#6","midi":85,"time":46.66661999999984,"velocity":0.7874015748031497,"duration":0.11408718749999736},{"name":"F#6","midi":90,"time":47.618999999999836,"velocity":0.7874015748031497,"duration":0.11408718749999736},{"name":"G#6","midi":92,"time":47.97614249999983,"velocity":0.7874015748031497,"duration":0.11408718749999736},{"name":"A#6","midi":94,"time":48.09518999999983,"velocity":0.7874015748031497,"duration":0.11408718749999736},{"name":"G#6","midi":92,"time":48.333284999999826,"velocity":0.7874015748031497,"duration":0.11408718749999736},{"name":"F#6","midi":90,"time":48.57137999999982,"velocity":0.7874015748031497,"duration":0.11408718749999736},{"name":"F6","midi":89,"time":48.69042749999982,"velocity":0.7874015748031497,"duration":0.11408718749999736},{"name":"F#6","midi":90,"time":48.80947499999982,"velocity":0.7874015748031497,"duration":0.11408718749999736},{"name":"F6","midi":89,"time":48.92852249999982,"velocity":0.7874015748031497,"duration":0.11408718749999736},{"name":"F#6","midi":90,"time":49.04756999999982,"velocity":0.7874015748031497,"duration":0.11408718749999736},{"name":"C#6","midi":85,"time":49.28566499999982,"velocity":0.7874015748031497,"duration":0.11408718749999736},{"name":"C6","midi":84,"time":49.52375999999981,"velocity":0.7874015748031497,"duration":0.11408718749999736},{"name":"D6","midi":86,"time":49.880902499999806,"velocity":0.7874015748031497,"duration":0.11408718749999736},{"name":"E6","midi":88,"time":49.99994999999981,"velocity":0.7874015748031497,"duration":0.11408718749999736},{"name":"G6","midi":91,"time":50.2380449999998,"velocity":0.7874015748031497,"duration":0.11408718749999736},{"name":"C7","midi":96,"time":50.476139999999795,"velocity":0.7874015748031497,"duration":0.11408718749999736},{"name":"B6","midi":95,"time":50.595187499999795,"velocity":0.7874015748031497,"duration":0.11408718749999736},{"name":"C7","midi":96,"time":50.714234999999796,"velocity":0.7874015748031497,"duration":0.11408718749999736},{"name":"D7","midi":98,"time":50.8332824999998,"velocity":0.7874015748031497,"duration":0.11408718749999736},{"name":"C7","midi":96,"time":50.9523299999998,"velocity":0.7874015748031497,"duration":0.11408718749999736},{"name":"C#7","midi":97,"time":51.42851999999979,"velocity":0.7874015748031497,"duration":0.11408718749999736},{"name":"D#7","midi":99,"time":51.78566249999979,"velocity":0.7874015748031497,"duration":0.11408718749999736},{"name":"C#7","midi":97,"time":51.90470999999979,"velocity":0.7874015748031497,"duration":0.11408718749999736},{"name":"G#6","midi":92,"time":52.14280499999978,"velocity":0.7874015748031497,"duration":0.11408718749999736},{"name":"G6","midi":91,"time":52.38089999999978,"velocity":0.7874015748031497,"duration":0.11408718749999736},{"name":"A6","midi":93,"time":52.61899499999977,"velocity":0.7874015748031497,"duration":0.11408718749999736},{"name":"B6","midi":95,"time":52.857089999999765,"velocity":0.7874015748031497,"duration":0.11408718749999736},{"name":"D7","midi":98,"time":53.09518499999976,"velocity":0.7874015748031497,"duration":0.11408718749999736},{"name":"C7","midi":96,"time":53.33327999999975,"velocity":0.7874015748031497,"duration":0.11408718749999736},{"name":"G6","midi":91,"time":53.57137499999975,"velocity":0.7874015748031497,"duration":0.07440468749999951},{"name":"F#6","midi":90,"time":53.65073999999975,"velocity":0.7874015748031497,"duration":0.07440468749999951},{"name":"G6","midi":91,"time":53.73010499999975,"velocity":0.7874015748031497,"duration":0.07440468749999951},{"name":"G#6","midi":92,"time":53.809469999999756,"velocity":0.7874015748031497,"duration":0.11408718749999736},{"name":"G6","midi":91,"time":54.04756499999975,"velocity":0.7874015748031497,"duration":0.11408718749999736},{"name":"C6","midi":84,"time":54.285659999999744,"velocity":0.7874015748031497,"duration":0.11408718749999736},{"name":"A#5","midi":82,"time":55.23803999999974,"velocity":0.6299212598425197,"duration":0.07440468749999951},{"name":"C#6","midi":85,"time":55.317404999999745,"velocity":0.6299212598425197,"duration":0.07440468749999951},{"name":"A#5","midi":82,"time":55.39676999999975,"velocity":0.6299212598425197,"duration":0.07440468749999951},{"name":"C#6","midi":85,"time":55.47613499999975,"velocity":0.6299212598425197,"duration":0.07440468749999951},{"name":"A#5","midi":82,"time":55.55549999999975,"velocity":0.6299212598425197,"duration":0.07440468749999951},{"name":"C#6","midi":85,"time":55.634864999999756,"velocity":0.6299212598425197,"duration":0.07440468749999951},{"name":"A#5","midi":82,"time":55.71422999999976,"velocity":0.6299212598425197,"duration":0.07440468749999951},{"name":"C#6","midi":85,"time":55.79359499999976,"velocity":0.6299212598425197,"duration":0.07440468749999951},{"name":"A#5","midi":82,"time":55.872959999999765,"velocity":0.6299212598425197,"duration":0.07440468749999951},{"name":"C#6","midi":85,"time":55.95232499999977,"velocity":0.6299212598425197,"duration":0.07440468749999951},{"name":"A#5","midi":82,"time":56.03168999999977,"velocity":0.6299212598425197,"duration":0.07440468749999951},{"name":"C#6","midi":85,"time":56.11105499999977,"velocity":0.6299212598425197,"duration":0.07440468749999951},{"name":"A#5","midi":82,"time":56.190419999999776,"velocity":0.6299212598425197,"duration":0.07440468749999951},{"name":"C#6","midi":85,"time":56.26978499999978,"velocity":0.6299212598425197,"duration":0.07440468749999951},{"name":"A#5","midi":82,"time":56.34914999999978,"velocity":0.6299212598425197,"duration":0.07440468749999951},{"name":"C#6","midi":85,"time":56.428514999999784,"velocity":0.6299212598425197,"duration":0.07440468749999951},{"name":"A#5","midi":82,"time":56.50787999999979,"velocity":0.6299212598425197,"duration":0.07440468749999951},{"name":"C#6","midi":85,"time":56.58724499999979,"velocity":0.6299212598425197,"duration":0.07440468749999951},{"name":"A#5","midi":82,"time":56.66660999999979,"velocity":0.6299212598425197,"duration":0.07440468749999951},{"name":"C#6","midi":85,"time":56.745974999999795,"velocity":0.6299212598425197,"duration":0.07440468749999951},{"name":"A#5","midi":82,"time":56.8253399999998,"velocity":0.6299212598425197,"duration":0.07440468749999951},{"name":"C#6","midi":85,"time":56.9047049999998,"velocity":0.6299212598425197,"duration":0.07440468749999951},{"name":"A#5","midi":82,"time":56.984069999999804,"velocity":0.6299212598425197,"duration":0.07440468749999951},{"name":"C#6","midi":85,"time":57.06343499999981,"velocity":0.6299212598425197,"duration":0.07440468749999951},{"name":"A5","midi":81,"time":57.14279999999981,"velocity":0.6299212598425197,"duration":0.07440468749999951},{"name":"C6","midi":84,"time":57.22216499999981,"velocity":0.6299212598425197,"duration":0.07440468749999951},{"name":"A5","midi":81,"time":57.301529999999815,"velocity":0.6299212598425197,"duration":0.07440468749999951},{"name":"C6","midi":84,"time":57.38089499999982,"velocity":0.6299212598425197,"duration":0.07440468749999951},{"name":"A5","midi":81,"time":57.46025999999982,"velocity":0.6299212598425197,"duration":0.07440468749999951},{"name":"C6","midi":84,"time":57.53962499999982,"velocity":0.6299212598425197,"duration":0.07440468749999951},{"name":"A5","midi":81,"time":57.618989999999826,"velocity":0.6299212598425197,"duration":0.07440468749999951},{"name":"C6","midi":84,"time":57.69835499999983,"velocity":0.6299212598425197,"duration":0.07440468749999951},{"name":"A5","midi":81,"time":57.77771999999983,"velocity":0.6299212598425197,"duration":0.07440468749999951},{"name":"C6","midi":84,"time":57.857084999999834,"velocity":0.6299212598425197,"duration":0.07440468749999951},{"name":"A5","midi":81,"time":57.93644999999984,"velocity":0.6299212598425197,"duration":0.07440468749999951},{"name":"C6","midi":84,"time":58.01581499999984,"velocity":0.6299212598425197,"duration":0.07440468749999951},{"name":"A#5","midi":82,"time":58.09517999999984,"velocity":0.6299212598425197,"duration":0.07440468749999951},{"name":"C#6","midi":85,"time":58.174544999999846,"velocity":0.6299212598425197,"duration":0.07440468749999951},{"name":"A#5","midi":82,"time":58.25390999999985,"velocity":0.6299212598425197,"duration":0.07440468749999951},{"name":"C#6","midi":85,"time":58.33327499999985,"velocity":0.6299212598425197,"duration":0.07440468749999951},{"name":"A#5","midi":82,"time":58.412639999999854,"velocity":0.6299212598425197,"duration":0.07440468749999951},{"name":"C#6","midi":85,"time":58.49200499999986,"velocity":0.6299212598425197,"duration":0.07440468749999951},{"name":"A#5","midi":82,"time":58.57136999999986,"velocity":0.6299212598425197,"duration":0.07440468749999951},{"name":"C#6","midi":85,"time":58.65073499999986,"velocity":0.6299212598425197,"duration":0.07440468749999951},{"name":"A#5","midi":82,"time":58.730099999999865,"velocity":0.6299212598425197,"duration":0.07440468749999951},{"name":"C#6","midi":85,"time":58.80946499999987,"velocity":0.6299212598425197,"duration":0.07440468749999951},{"name":"A#5","midi":82,"time":58.88882999999987,"velocity":0.6299212598425197,"duration":0.07440468749999951},{"name":"C#6","midi":85,"time":58.968194999999874,"velocity":0.6299212598425197,"duration":0.07440468749999951},{"name":"B5","midi":83,"time":59.047559999999876,"velocity":0.6299212598425197,"duration":0.07440468749999951},{"name":"D#6","midi":87,"time":59.12692499999988,"velocity":0.6299212598425197,"duration":0.07440468749999951},{"name":"B5","midi":83,"time":59.20628999999988,"velocity":0.6299212598425197,"duration":0.07440468749999951},{"name":"D#6","midi":87,"time":59.285654999999885,"velocity":0.6299212598425197,"duration":0.07440468749999951},{"name":"B5","midi":83,"time":59.36501999999989,"velocity":0.6299212598425197,"duration":0.07440468749999951},{"name":"D#6","midi":87,"time":59.44438499999989,"velocity":0.6299212598425197,"duration":0.07440468749999951},{"name":"B5","midi":83,"time":59.52374999999989,"velocity":0.6299212598425197,"duration":0.07440468749999951},{"name":"D#6","midi":87,"time":59.603114999999896,"velocity":0.6299212598425197,"duration":0.07440468749999951},{"name":"B5","midi":83,"time":59.6824799999999,"velocity":0.6299212598425197,"duration":0.07440468749999951},{"name":"D#6","midi":87,"time":59.7618449999999,"velocity":0.6299212598425197,"duration":0.07440468749999951},{"name":"B5","midi":83,"time":59.841209999999904,"velocity":0.6299212598425197,"duration":0.07440468749999951},{"name":"D#6","midi":87,"time":59.92057499999991,"velocity":0.6299212598425197,"duration":0.07440468749999951},{"name":"A#5","midi":82,"time":59.99993999999991,"velocity":0.6299212598425197,"duration":0.07440468749999951},{"name":"C#6","midi":85,"time":60.07930499999991,"velocity":0.6299212598425197,"duration":0.07440468749999951},{"name":"A#5","midi":82,"time":60.158669999999915,"velocity":0.6299212598425197,"duration":0.07440468749999951},{"name":"C#6","midi":85,"time":60.23803499999992,"velocity":0.6299212598425197,"duration":0.07440468749999951},{"name":"A#5","midi":82,"time":60.31739999999992,"velocity":0.6299212598425197,"duration":0.07440468749999951},{"name":"C#6","midi":85,"time":60.396764999999924,"velocity":0.6299212598425197,"duration":0.07440468749999951},{"name":"A#5","midi":82,"time":60.47612999999993,"velocity":0.6299212598425197,"duration":0.07440468749999951},{"name":"C#6","midi":85,"time":60.55549499999993,"velocity":0.6299212598425197,"duration":0.07440468749999951},{"name":"A#5","midi":82,"time":60.63485999999993,"velocity":0.6299212598425197,"duration":0.07440468749999951},{"name":"C#6","midi":85,"time":60.714224999999935,"velocity":0.6299212598425197,"duration":0.07440468749999951},{"name":"A#5","midi":82,"time":60.79358999999994,"velocity":0.6299212598425197,"duration":0.07440468749999951},{"name":"C#6","midi":85,"time":60.87295499999994,"velocity":0.6299212598425197,"duration":0.07440468749999951},{"name":"G#5","midi":80,"time":60.95231999999994,"velocity":0.6299212598425197,"duration":0.07440468749999951},{"name":"C6","midi":84,"time":61.031684999999946,"velocity":0.6299212598425197,"duration":0.07440468749999951},{"name":"G#5","midi":80,"time":61.11104999999995,"velocity":0.6299212598425197,"duration":0.07440468749999951},{"name":"C6","midi":84,"time":61.19041499999995,"velocity":0.6299212598425197,"duration":0.07440468749999951},{"name":"G#5","midi":80,"time":61.269779999999955,"velocity":0.6299212598425197,"duration":0.07440468749999951},{"name":"C6","midi":84,"time":61.34914499999996,"velocity":0.6299212598425197,"duration":0.07440468749999951},{"name":"G#5","midi":80,"time":61.42850999999996,"velocity":0.6299212598425197,"duration":0.07440468749999951},{"name":"C6","midi":84,"time":61.50787499999996,"velocity":0.6299212598425197,"duration":0.07440468749999951},{"name":"G#5","midi":80,"time":61.587239999999966,"velocity":0.6299212598425197,"duration":0.07440468749999951},{"name":"C6","midi":84,"time":61.66660499999997,"velocity":0.6299212598425197,"duration":0.07440468749999951},{"name":"G#5","midi":80,"time":61.74596999999997,"velocity":0.6299212598425197,"duration":0.07440468749999951},{"name":"C6","midi":84,"time":61.825334999999974,"velocity":0.6299212598425197,"duration":0.07440468749999951},{"name":"G#5","midi":80,"time":61.90469999999998,"velocity":0.6299212598425197,"duration":0.07440468749999951},{"name":"B5","midi":83,"time":61.98406499999998,"velocity":0.6299212598425197,"duration":0.07440468749999951},{"name":"G#5","midi":80,"time":62.06342999999998,"velocity":0.6299212598425197,"duration":0.07440468749999951},{"name":"B5","midi":83,"time":62.142794999999985,"velocity":0.6299212598425197,"duration":0.07440468749999951},{"name":"G#5","midi":80,"time":62.22215999999999,"velocity":0.6299212598425197,"duration":0.07440468749999951},{"name":"B5","midi":83,"time":62.30152499999999,"velocity":0.6299212598425197,"duration":0.07440468749999951},{"name":"G#5","midi":80,"time":62.380889999999994,"velocity":0.6299212598425197,"duration":0.07440468749999951},{"name":"B5","midi":83,"time":62.460255,"velocity":0.6299212598425197,"duration":0.07440468749999951},{"name":"G#5","midi":80,"time":62.53962,"velocity":0.6299212598425197,"duration":0.07440468749999951},{"name":"B5","midi":83,"time":62.618985,"velocity":0.6299212598425197,"duration":0.07440468749999951},{"name":"G#5","midi":80,"time":62.698350000000005,"velocity":0.6299212598425197,"duration":0.07440468749999951},{"name":"B5","midi":83,"time":62.77771500000001,"velocity":0.6299212598425197,"duration":0.07440468749999951},{"name":"A#5","midi":82,"time":62.85708000000001,"velocity":0.6299212598425197,"duration":0.07440468749999951},{"name":"C#6","midi":85,"time":62.93644500000001,"velocity":0.6299212598425197,"duration":0.07440468749999951},{"name":"A#5","midi":82,"time":63.015810000000016,"velocity":0.6299212598425197,"duration":0.07440468749999951},{"name":"C#6","midi":85,"time":63.09517500000002,"velocity":0.6299212598425197,"duration":0.07440468749999951},{"name":"A#5","midi":82,"time":63.17454000000002,"velocity":0.6299212598425197,"duration":0.07440468749999951},{"name":"C#6","midi":85,"time":63.253905000000024,"velocity":0.6299212598425197,"duration":0.07440468749999951},{"name":"A#5","midi":82,"time":63.33327000000003,"velocity":0.6299212598425197,"duration":0.07440468749999951},{"name":"C#6","midi":85,"time":63.41263500000003,"velocity":0.6299212598425197,"duration":0.07440468749999951},{"name":"A#5","midi":82,"time":63.49200000000003,"velocity":0.6299212598425197,"duration":0.07440468749999951},{"name":"C#6","midi":85,"time":63.571365000000036,"velocity":0.6299212598425197,"duration":0.07440468749999951},{"name":"A#5","midi":82,"time":63.65073000000004,"velocity":0.6299212598425197,"duration":0.07440468749999951},{"name":"C#6","midi":85,"time":63.73009500000004,"velocity":0.6299212598425197,"duration":0.07440468749999951},{"name":"A#5","midi":82,"time":63.809460000000044,"velocity":0.6299212598425197,"duration":0.07440468749999951},{"name":"C#6","midi":85,"time":63.88882500000005,"velocity":0.6299212598425197,"duration":0.07440468749999951},{"name":"A#5","midi":82,"time":63.96819000000005,"velocity":0.6299212598425197,"duration":0.07440468750000662},{"name":"C#6","midi":85,"time":64.04755500000006,"velocity":0.6299212598425197,"duration":0.07440468750000662},{"name":"A#5","midi":82,"time":64.12692000000007,"velocity":0.6299212598425197,"duration":0.07440468750000662},{"name":"C#6","midi":85,"time":64.20628500000008,"velocity":0.6299212598425197,"duration":0.07440468750000662},{"name":"A#5","midi":82,"time":64.28565000000009,"velocity":0.6299212598425197,"duration":0.07440468750000662},{"name":"C#6","midi":85,"time":64.3650150000001,"velocity":0.6299212598425197,"duration":0.07440468750000662},{"name":"A#5","midi":82,"time":64.44438000000011,"velocity":0.6299212598425197,"duration":0.07440468750000662},{"name":"C#6","midi":85,"time":64.52374500000012,"velocity":0.6299212598425197,"duration":0.07440468750000662},{"name":"A#5","midi":82,"time":64.60311000000013,"velocity":0.6299212598425197,"duration":0.07440468750000662},{"name":"C#6","midi":85,"time":64.68247500000014,"velocity":0.6299212598425197,"duration":0.07440468750000662},{"name":"A#5","midi":82,"time":64.76184000000015,"velocity":0.6299212598425197,"duration":0.07440468750000662},{"name":"D6","midi":86,"time":64.84120500000016,"velocity":0.6299212598425197,"duration":0.07440468750000662},{"name":"A#5","midi":82,"time":64.92057000000017,"velocity":0.6299212598425197,"duration":0.07440468750000662},{"name":"D6","midi":86,"time":64.99993500000018,"velocity":0.6299212598425197,"duration":0.07440468750000662},{"name":"A#5","midi":82,"time":65.07930000000019,"velocity":0.6299212598425197,"duration":0.07440468750000662},{"name":"D6","midi":86,"time":65.1586650000002,"velocity":0.6299212598425197,"duration":0.07440468750000662},{"name":"A#5","midi":82,"time":65.23803000000021,"velocity":0.6299212598425197,"duration":0.07440468750000662},{"name":"D6","midi":86,"time":65.31739500000022,"velocity":0.6299212598425197,"duration":0.07440468750000662},{"name":"A#5","midi":82,"time":65.39676000000023,"velocity":0.6299212598425197,"duration":0.07440468750000662},{"name":"D6","midi":86,"time":65.47612500000024,"velocity":0.6299212598425197,"duration":0.07440468750000662},{"name":"A#5","midi":82,"time":65.55549000000025,"velocity":0.6299212598425197,"duration":0.07440468750000662},{"name":"D6","midi":86,"time":65.63485500000026,"velocity":0.6299212598425197,"duration":0.07440468750000662},{"name":"A#5","midi":82,"time":65.71422000000027,"velocity":0.6299212598425197,"duration":0.07440468750000662},{"name":"D#6","midi":87,"time":65.79358500000028,"velocity":0.6299212598425197,"duration":0.07440468750000662},{"name":"A#5","midi":82,"time":65.87295000000029,"velocity":0.6299212598425197,"duration":0.07440468750000662},{"name":"D#6","midi":87,"time":65.9523150000003,"velocity":0.6299212598425197,"duration":0.07440468750000662},{"name":"A#5","midi":82,"time":66.0316800000003,"velocity":0.6299212598425197,"duration":0.07440468750000662},{"name":"D#6","midi":87,"time":66.11104500000032,"velocity":0.6299212598425197,"duration":0.07440468750000662},{"name":"A#5","midi":82,"time":66.19041000000033,"velocity":0.6299212598425197,"duration":0.07440468750000662},{"name":"D#6","midi":87,"time":66.26977500000034,"velocity":0.6299212598425197,"duration":0.07440468750000662},{"name":"A#5","midi":82,"time":66.34914000000035,"velocity":0.6299212598425197,"duration":0.07440468750000662},{"name":"D#6","midi":87,"time":66.42850500000036,"velocity":0.6299212598425197,"duration":0.07440468750000662},{"name":"A#5","midi":82,"time":66.50787000000037,"velocity":0.6299212598425197,"duration":0.07440468750000662},{"name":"D#6","midi":87,"time":66.58723500000038,"velocity":0.6299212598425197,"duration":0.07440468750000662},{"name":"C6","midi":84,"time":66.66660000000039,"velocity":0.6299212598425197,"duration":0.07440468750000662},{"name":"D#6","midi":87,"time":66.7459650000004,"velocity":0.6299212598425197,"duration":0.07440468750000662},{"name":"C6","midi":84,"time":66.8253300000004,"velocity":0.6299212598425197,"duration":0.07440468750000662},{"name":"D#6","midi":87,"time":66.90469500000042,"velocity":0.6299212598425197,"duration":0.07440468750000662},{"name":"C6","midi":84,"time":66.98406000000043,"velocity":0.6299212598425197,"duration":0.07440468750000662},{"name":"D#6","midi":87,"time":67.06342500000044,"velocity":0.6299212598425197,"duration":0.07440468750000662},{"name":"C6","midi":84,"time":67.14279000000045,"velocity":0.6299212598425197,"duration":0.07440468750000662},{"name":"D#6","midi":87,"time":67.22215500000046,"velocity":0.6299212598425197,"duration":0.07440468750000662},{"name":"C6","midi":84,"time":67.30152000000047,"velocity":0.6299212598425197,"duration":0.07440468750000662},{"name":"D#6","midi":87,"time":67.38088500000048,"velocity":0.6299212598425197,"duration":0.07440468750000662},{"name":"C6","midi":84,"time":67.46025000000049,"velocity":0.6299212598425197,"duration":0.07440468750000662},{"name":"D#6","midi":87,"time":67.5396150000005,"velocity":0.6299212598425197,"duration":0.07440468750000662},{"name":"C6","midi":84,"time":67.6189800000005,"velocity":0.6299212598425197,"duration":0.07440468750000662},{"name":"D#6","midi":87,"time":67.69834500000051,"velocity":0.6299212598425197,"duration":0.07440468750000662},{"name":"C6","midi":84,"time":67.77771000000052,"velocity":0.6299212598425197,"duration":0.07440468750000662},{"name":"D#6","midi":87,"time":67.85707500000053,"velocity":0.6299212598425197,"duration":0.07440468750000662},{"name":"C6","midi":84,"time":67.93644000000054,"velocity":0.6299212598425197,"duration":0.07440468750000662},{"name":"D#6","midi":87,"time":68.01580500000055,"velocity":0.6299212598425197,"duration":0.07440468750000662},{"name":"C6","midi":84,"time":68.09517000000056,"velocity":0.6299212598425197,"duration":0.07440468750000662},{"name":"D#6","midi":87,"time":68.17453500000057,"velocity":0.6299212598425197,"duration":0.07440468750000662},{"name":"C6","midi":84,"time":68.25390000000058,"velocity":0.6299212598425197,"duration":0.07440468750000662},{"name":"D#6","midi":87,"time":68.3332650000006,"velocity":0.6299212598425197,"duration":0.07440468750000662},{"name":"C6","midi":84,"time":68.4126300000006,"velocity":0.6299212598425197,"duration":0.07440468750000662},{"name":"D#6","midi":87,"time":68.49199500000061,"velocity":0.6299212598425197,"duration":0.07440468750000662},{"name":"B5","midi":83,"time":68.57136000000062,"velocity":0.6299212598425197,"duration":0.07440468750000662},{"name":"C#6","midi":85,"time":68.65072500000063,"velocity":0.6299212598425197,"duration":0.07440468750000662},{"name":"B5","midi":83,"time":68.73009000000064,"velocity":0.6299212598425197,"duration":0.07440468750000662},{"name":"C#6","midi":85,"time":68.80945500000065,"velocity":0.6299212598425197,"duration":0.07440468750000662},{"name":"B5","midi":83,"time":68.88882000000066,"velocity":0.6299212598425197,"duration":0.07440468750000662},{"name":"C#6","midi":85,"time":68.96818500000067,"velocity":0.6299212598425197,"duration":0.07440468750000662},{"name":"B5","midi":83,"time":69.04755000000068,"velocity":0.6299212598425197,"duration":0.07440468750000662},{"name":"C#6","midi":85,"time":69.1269150000007,"velocity":0.6299212598425197,"duration":0.07440468750000662},{"name":"B5","midi":83,"time":69.2062800000007,"velocity":0.6299212598425197,"duration":0.07440468750000662},{"name":"C#6","midi":85,"time":69.28564500000071,"velocity":0.6299212598425197,"duration":0.07440468750000662},{"name":"B5","midi":83,"time":69.36501000000072,"velocity":0.6299212598425197,"duration":0.07440468750000662},{"name":"C#6","midi":85,"time":69.44437500000073,"velocity":0.6299212598425197,"duration":0.07440468750000662},{"name":"B5","midi":83,"time":69.52374000000074,"velocity":0.6299212598425197,"duration":0.07440468750000662},{"name":"C#6","midi":85,"time":69.60310500000075,"velocity":0.6299212598425197,"duration":0.07440468750000662},{"name":"B5","midi":83,"time":69.68247000000076,"velocity":0.6299212598425197,"duration":0.07440468750000662},{"name":"C#6","midi":85,"time":69.76183500000077,"velocity":0.6299212598425197,"duration":0.07440468750000662},{"name":"B5","midi":83,"time":69.84120000000078,"velocity":0.6299212598425197,"duration":0.07440468750000662},{"name":"C#6","midi":85,"time":69.92056500000079,"velocity":0.6299212598425197,"duration":0.07440468750000662},{"name":"B5","midi":83,"time":69.9999300000008,"velocity":0.6299212598425197,"duration":0.07440468750000662},{"name":"C#6","midi":85,"time":70.07929500000081,"velocity":0.6299212598425197,"duration":0.07440468750000662},{"name":"B5","midi":83,"time":70.15866000000082,"velocity":0.6299212598425197,"duration":0.07440468750000662},{"name":"C#6","midi":85,"time":70.23802500000083,"velocity":0.6299212598425197,"duration":0.07440468750000662},{"name":"B5","midi":83,"time":70.31739000000084,"velocity":0.6299212598425197,"duration":0.07440468750000662},{"name":"C#6","midi":85,"time":70.39675500000085,"velocity":0.6299212598425197,"duration":0.07440468750000662},{"name":"G6","midi":91,"time":78.09516000000086,"velocity":0.7874015748031497,"duration":0.11408718750000446},{"name":"C7","midi":96,"time":78.09516000000086,"velocity":0.7874015748031497,"duration":0.11408718750000446},{"name":"C7","midi":96,"time":78.33325500000086,"velocity":0.7874015748031497,"duration":0.11408718750000446},{"name":"E7","midi":100,"time":78.33325500000086,"velocity":0.7874015748031497,"duration":0.11408718750000446},{"name":"E7","midi":100,"time":78.45230250000087,"velocity":0.7874015748031497,"duration":0.11408718750000446},{"name":"G7","midi":103,"time":78.45230250000087,"velocity":0.7874015748031497,"duration":0.11408718750000446},{"name":"C7","midi":96,"time":78.69039750000087,"velocity":0.7874015748031497,"duration":0.11408718750000446},{"name":"E7","midi":100,"time":78.69039750000087,"velocity":0.7874015748031497,"duration":0.11408718750000446},{"name":"E7","midi":100,"time":78.80944500000088,"velocity":0.7874015748031497,"duration":0.11408718750000446},{"name":"G7","midi":103,"time":78.80944500000088,"velocity":0.7874015748031497,"duration":0.11408718750000446},{"name":"E7","midi":100,"time":79.04754000000088,"velocity":0.7874015748031497,"duration":0.11408718750000446},{"name":"A7","midi":105,"time":79.04754000000088,"velocity":0.7874015748031497,"duration":0.11408718750000446},{"name":"E7","midi":100,"time":79.28563500000088,"velocity":0.7874015748031497,"duration":0.11408718750000446},{"name":"G7","midi":103,"time":79.28563500000088,"velocity":0.7874015748031497,"duration":0.11408718750000446},{"name":"C7","midi":96,"time":79.40468250000089,"velocity":0.7874015748031497,"duration":0.11408718750000446},{"name":"E7","midi":100,"time":79.40468250000089,"velocity":0.7874015748031497,"duration":0.11408718750000446},{"name":"E7","midi":100,"time":79.5237300000009,"velocity":0.7874015748031497,"duration":0.11408718750000446},{"name":"G7","midi":103,"time":79.5237300000009,"velocity":0.7874015748031497,"duration":0.11408718750000446},{"name":"E7","midi":100,"time":79.7618250000009,"velocity":0.7874015748031497,"duration":0.11408718750000446},{"name":"A7","midi":105,"time":79.7618250000009,"velocity":0.7874015748031497,"duration":0.11408718750000446},{"name":"D#7","midi":99,"time":79.9999200000009,"velocity":0.7874015748031497,"duration":0.11408718750000446},{"name":"G#7","midi":104,"time":79.9999200000009,"velocity":0.7874015748031497,"duration":0.11408718750000446},{"name":"F7","midi":101,"time":80.2380150000009,"velocity":0.7874015748031497,"duration":0.11408718750000446},{"name":"A#7","midi":106,"time":80.2380150000009,"velocity":0.7874015748031497,"duration":0.11408718750000446},{"name":"G#7","midi":104,"time":80.35706250000091,"velocity":0.7874015748031497,"duration":0.11408718750000446},{"name":"C8","midi":108,"time":80.35706250000091,"velocity":0.7874015748031497,"duration":0.11408718750000446},{"name":"F7","midi":101,"time":80.59515750000091,"velocity":0.7874015748031497,"duration":0.11408718750000446},{"name":"A#7","midi":106,"time":80.59515750000091,"velocity":0.7874015748031497,"duration":0.11408718750000446},{"name":"D#7","midi":99,"time":80.71420500000092,"velocity":0.7874015748031497,"duration":0.11408718750000446},{"name":"G#7","midi":104,"time":80.71420500000092,"velocity":0.7874015748031497,"duration":0.11408718750000446},{"name":"E7","midi":100,"time":80.95230000000092,"velocity":0.7874015748031497,"duration":0.11408718750000446},{"name":"G7","midi":103,"time":80.95230000000092,"velocity":0.7874015748031497,"duration":0.11408718750000446},{"name":"C7","midi":96,"time":81.19039500000092,"velocity":0.7874015748031497,"duration":0.11408718750000446},{"name":"E7","midi":100,"time":81.19039500000092,"velocity":0.7874015748031497,"duration":0.11408718750000446},{"name":"C7","midi":96,"time":81.66658500000092,"velocity":0.7874015748031497,"duration":0.11408718750000446},{"name":"E7","midi":100,"time":81.66658500000092,"velocity":0.7874015748031497,"duration":0.11408718750000446},{"name":"G6","midi":91,"time":81.90468000000092,"velocity":0.7874015748031497,"duration":0.11408718750000446},{"name":"C7","midi":96,"time":81.90468000000092,"velocity":0.7874015748031497,"duration":0.11408718750000446},{"name":"C7","midi":96,"time":82.14277500000092,"velocity":0.7874015748031497,"duration":0.11408718750000446},{"name":"E7","midi":100,"time":82.14277500000092,"velocity":0.7874015748031497,"duration":0.11408718750000446},{"name":"E7","midi":100,"time":82.26182250000093,"velocity":0.7874015748031497,"duration":0.11408718750000446},{"name":"G7","midi":103,"time":82.26182250000093,"velocity":0.7874015748031497,"duration":0.11408718750000446},{"name":"C7","midi":96,"time":82.49991750000093,"velocity":0.7874015748031497,"duration":0.11408718750000446},{"name":"E7","midi":100,"time":82.49991750000093,"velocity":0.7874015748031497,"duration":0.11408718750000446},{"name":"E7","midi":100,"time":82.61896500000094,"velocity":0.7874015748031497,"duration":0.11408718750000446},{"name":"G7","midi":103,"time":82.61896500000094,"velocity":0.7874015748031497,"duration":0.11408718750000446},{"name":"E7","midi":100,"time":82.85706000000094,"velocity":0.7874015748031497,"duration":0.11408718750000446},{"name":"A7","midi":105,"time":82.85706000000094,"velocity":0.7874015748031497,"duration":0.11408718750000446},{"name":"E7","midi":100,"time":83.09515500000094,"velocity":0.7874015748031497,"duration":0.11408718750000446},{"name":"G7","midi":103,"time":83.09515500000094,"velocity":0.7874015748031497,"duration":0.11408718750000446},{"name":"C7","midi":96,"time":83.21420250000095,"velocity":0.7874015748031497,"duration":0.11408718750000446},{"name":"E7","midi":100,"time":83.21420250000095,"velocity":0.7874015748031497,"duration":0.11408718750000446},{"name":"E7","midi":100,"time":83.33325000000096,"velocity":0.7874015748031497,"duration":0.11408718750000446},{"name":"G7","midi":103,"time":83.33325000000096,"velocity":0.7874015748031497,"duration":0.11408718750000446},{"name":"E7","midi":100,"time":83.57134500000096,"velocity":0.7874015748031497,"duration":0.11408718750000446},{"name":"A7","midi":105,"time":83.57134500000096,"velocity":0.7874015748031497,"duration":0.11408718750000446},{"name":"D#7","midi":99,"time":83.80944000000096,"velocity":0.7874015748031497,"duration":0.11408718750000446},{"name":"G#7","midi":104,"time":83.80944000000096,"velocity":0.7874015748031497,"duration":0.11408718750000446},{"name":"F7","midi":101,"time":84.04753500000096,"velocity":0.7874015748031497,"duration":0.11408718750000446},{"name":"A#7","midi":106,"time":84.04753500000096,"velocity":0.7874015748031497,"duration":0.11408718750000446},{"name":"G#7","midi":104,"time":84.16658250000097,"velocity":0.7874015748031497,"duration":0.11408718750000446},{"name":"C8","midi":108,"time":84.16658250000097,"velocity":0.7874015748031497,"duration":0.11408718750000446},{"name":"F7","midi":101,"time":84.40467750000097,"velocity":0.7874015748031497,"duration":0.11408718750000446},{"name":"A#7","midi":106,"time":84.40467750000097,"velocity":0.7874015748031497,"duration":0.11408718750000446},{"name":"D#7","midi":99,"time":84.52372500000098,"velocity":0.7874015748031497,"duration":0.11408718750000446},{"name":"G#7","midi":104,"time":84.52372500000098,"velocity":0.7874015748031497,"duration":0.11408718750000446},{"name":"B7","midi":107,"time":84.76182000000098,"velocity":0.7874015748031497,"duration":0.024801562500002206},{"name":"D#8","midi":111,"time":84.76182000000098,"velocity":0.7874015748031497,"duration":0.024801562500002206},{"name":"C8","midi":108,"time":84.79158187500099,"velocity":0.7874015748031497,"duration":0.11408718750000446},{"name":"E8","midi":112,"time":84.79158187500099,"velocity":0.7874015748031497,"duration":0.11408718750000446},{"name":"G7","midi":103,"time":84.999915000001,"velocity":0.7874015748031497,"duration":0.11408718750000446},{"name":"C8","midi":108,"time":84.999915000001,"velocity":0.7874015748031497,"duration":0.11408718750000446},{"name":"G6","midi":91,"time":85.714200000001,"velocity":0.7874015748031497,"duration":0.11408718750000446},{"name":"C7","midi":96,"time":85.714200000001,"velocity":0.7874015748031497,"duration":0.11408718750000446},{"name":"C7","midi":96,"time":85.952295000001,"velocity":0.7874015748031497,"duration":0.11408718750000446},{"name":"E7","midi":100,"time":85.952295000001,"velocity":0.7874015748031497,"duration":0.11408718750000446},{"name":"E7","midi":100,"time":86.07134250000101,"velocity":0.7874015748031497,"duration":0.11408718750000446},{"name":"G7","midi":103,"time":86.07134250000101,"velocity":0.7874015748031497,"duration":0.11408718750000446},{"name":"C7","midi":96,"time":86.30943750000101,"velocity":0.7874015748031497,"duration":0.11408718750000446},{"name":"E7","midi":100,"time":86.30943750000101,"velocity":0.7874015748031497,"duration":0.11408718750000446},{"name":"E7","midi":100,"time":86.42848500000102,"velocity":0.7874015748031497,"duration":0.11408718750000446},{"name":"G7","midi":103,"time":86.42848500000102,"velocity":0.7874015748031497,"duration":0.11408718750000446},{"name":"E7","midi":100,"time":86.66658000000102,"velocity":0.7874015748031497,"duration":0.11408718750000446},{"name":"A7","midi":105,"time":86.66658000000102,"velocity":0.7874015748031497,"duration":0.11408718750000446},{"name":"E7","midi":100,"time":86.90467500000102,"velocity":0.7874015748031497,"duration":0.11408718750000446},{"name":"G7","midi":103,"time":86.90467500000102,"velocity":0.7874015748031497,"duration":0.11408718750000446},{"name":"C7","midi":96,"time":87.02372250000103,"velocity":0.7874015748031497,"duration":0.11408718750000446},{"name":"E7","midi":100,"time":87.02372250000103,"velocity":0.7874015748031497,"duration":0.11408718750000446},{"name":"E7","midi":100,"time":87.14277000000104,"velocity":0.7874015748031497,"duration":0.11408718750000446},{"name":"G7","midi":103,"time":87.14277000000104,"velocity":0.7874015748031497,"duration":0.11408718750000446},{"name":"E7","midi":100,"time":87.38086500000104,"velocity":0.7874015748031497,"duration":0.11408718750000446},{"name":"A7","midi":105,"time":87.38086500000104,"velocity":0.7874015748031497,"duration":0.11408718750000446},{"name":"D#7","midi":99,"time":87.61896000000104,"velocity":0.7874015748031497,"duration":0.11408718750000446},{"name":"G#7","midi":104,"time":87.61896000000104,"velocity":0.7874015748031497,"duration":0.11408718750000446},{"name":"F7","midi":101,"time":87.85705500000104,"velocity":0.7874015748031497,"duration":0.11408718750000446},{"name":"A#7","midi":106,"time":87.85705500000104,"velocity":0.7874015748031497,"duration":0.11408718750000446},{"name":"G#7","midi":104,"time":87.97610250000105,"velocity":0.7874015748031497,"duration":0.11408718750000446},{"name":"C8","midi":108,"time":87.97610250000105,"velocity":0.7874015748031497,"duration":0.11408718750000446},{"name":"F7","midi":101,"time":88.21419750000105,"velocity":0.7874015748031497,"duration":0.11408718750000446},{"name":"A#7","midi":106,"time":88.21419750000105,"velocity":0.7874015748031497,"duration":0.11408718750000446},{"name":"D#7","midi":99,"time":88.33324500000106,"velocity":0.7874015748031497,"duration":0.11408718750000446},{"name":"G#7","midi":104,"time":88.33324500000106,"velocity":0.7874015748031497,"duration":0.11408718750000446},{"name":"E7","midi":100,"time":88.57134000000106,"velocity":0.7874015748031497,"duration":0.11408718750000446},{"name":"G7","midi":103,"time":88.57134000000106,"velocity":0.7874015748031497,"duration":0.11408718750000446},{"name":"C7","midi":96,"time":88.80943500000106,"velocity":0.7874015748031497,"duration":0.11408718750000446},{"name":"E7","midi":100,"time":88.80943500000106,"velocity":0.7874015748031497,"duration":0.11408718750000446},{"name":"C7","midi":96,"time":89.28562500000106,"velocity":0.7874015748031497,"duration":0.11408718750000446},{"name":"E7","midi":100,"time":89.28562500000106,"velocity":0.7874015748031497,"duration":0.11408718750000446},{"name":"G6","midi":91,"time":89.52372000000106,"velocity":0.7874015748031497,"duration":0.11408718750000446},{"name":"C7","midi":96,"time":89.52372000000106,"velocity":0.7874015748031497,"duration":0.11408718750000446},{"name":"C7","midi":96,"time":89.76181500000106,"velocity":0.7874015748031497,"duration":0.11408718750000446},{"name":"E7","midi":100,"time":89.76181500000106,"velocity":0.7874015748031497,"duration":0.11408718750000446},{"name":"E7","midi":100,"time":89.88086250000107,"velocity":0.7874015748031497,"duration":0.11408718750000446},{"name":"G7","midi":103,"time":89.88086250000107,"velocity":0.7874015748031497,"duration":0.11408718750000446},{"name":"C7","midi":96,"time":90.11895750000107,"velocity":0.7874015748031497,"duration":0.11408718750000446},{"name":"E7","midi":100,"time":90.11895750000107,"velocity":0.7874015748031497,"duration":0.11408718750000446},{"name":"E7","midi":100,"time":90.23800500000108,"velocity":0.7874015748031497,"duration":0.11408718750000446},{"name":"G7","midi":103,"time":90.23800500000108,"velocity":0.7874015748031497,"duration":0.11408718750000446},{"name":"E7","midi":100,"time":90.47610000000108,"velocity":0.7874015748031497,"duration":0.11408718750000446},{"name":"A7","midi":105,"time":90.47610000000108,"velocity":0.7874015748031497,"duration":0.11408718750000446},{"name":"E7","midi":100,"time":90.71419500000108,"velocity":0.7874015748031497,"duration":0.11408718750000446},{"name":"G7","midi":103,"time":90.71419500000108,"velocity":0.7874015748031497,"duration":0.11408718750000446},{"name":"C7","midi":96,"time":90.83324250000109,"velocity":0.7874015748031497,"duration":0.11408718750000446},{"name":"E7","midi":100,"time":90.83324250000109,"velocity":0.7874015748031497,"duration":0.11408718750000446},{"name":"E7","midi":100,"time":90.9522900000011,"velocity":0.7874015748031497,"duration":0.11408718750000446},{"name":"G7","midi":103,"time":90.9522900000011,"velocity":0.7874015748031497,"duration":0.11408718750000446},{"name":"E7","midi":100,"time":91.1903850000011,"velocity":0.7874015748031497,"duration":0.11408718750000446},{"name":"A7","midi":105,"time":91.1903850000011,"velocity":0.7874015748031497,"duration":0.11408718750000446},{"name":"F7","midi":101,"time":91.4284800000011,"velocity":0.7874015748031497,"duration":0.11408718750000446},{"name":"G#7","midi":104,"time":91.4284800000011,"velocity":0.7874015748031497,"duration":0.11408718750000446},{"name":"F#7","midi":102,"time":91.6665750000011,"velocity":0.7874015748031497,"duration":0.11408718750000446},{"name":"A#7","midi":106,"time":91.6665750000011,"velocity":0.7874015748031497,"duration":0.11408718750000446},{"name":"G7","midi":103,"time":91.78562250000111,"velocity":0.7874015748031497,"duration":0.11408718750000446},{"name":"B7","midi":107,"time":91.78562250000111,"velocity":0.7874015748031497,"duration":0.11408718750000446},{"name":"G7","midi":103,"time":92.02371750000111,"velocity":0.7874015748031497,"duration":0.11408718750000446},{"name":"A7","midi":105,"time":92.02371750000111,"velocity":0.7874015748031497,"duration":0.11408718750000446},{"name":"F7","midi":101,"time":92.14276500000112,"velocity":0.7874015748031497,"duration":0.11408718750000446},{"name":"G7","midi":103,"time":92.14276500000112,"velocity":0.7874015748031497,"duration":0.11408718750000446},{"name":"E7","midi":100,"time":92.38086000000112,"velocity":0.7874015748031497,"duration":0.11408718750000446},{"name":"C8","midi":108,"time":92.38086000000112,"velocity":0.7874015748031497,"duration":0.11408718750000446},{"name":"C6","midi":84,"time":93.33324000000113,"velocity":0.7874015748031497,"duration":0.11408718750000446},{"name":"G6","midi":91,"time":93.45228750000113,"velocity":0.7874015748031497,"duration":0.11408718750000446},{"name":"E6","midi":88,"time":93.57133500000114,"velocity":0.7874015748031497,"duration":0.11408718750000446},{"name":"A6","midi":93,"time":93.69038250000115,"velocity":0.7874015748031497,"duration":0.11408718750000446},{"name":"C6","midi":84,"time":93.80943000000116,"velocity":0.7874015748031497,"duration":0.11408718750000446},{"name":"G6","midi":91,"time":93.92847750000116,"velocity":0.7874015748031497,"duration":0.11408718750000446},{"name":"E6","midi":88,"time":94.04752500000117,"velocity":0.7874015748031497,"duration":0.11408718750000446},{"name":"A6","midi":93,"time":94.16657250000118,"velocity":0.7874015748031497,"duration":0.11408718750000446},{"name":"C6","midi":84,"time":94.28562000000119,"velocity":0.7874015748031497,"duration":0.11408718750000446},{"name":"G6","midi":91,"time":94.4046675000012,"velocity":0.7874015748031497,"duration":0.11408718750000446},{"name":"E6","midi":88,"time":94.5237150000012,"velocity":0.7874015748031497,"duration":0.11408718750000446},{"name":"A6","midi":93,"time":94.64276250000121,"velocity":0.7874015748031497,"duration":0.11408718750000446},{"name":"C6","midi":84,"time":94.76181000000122,"velocity":0.7874015748031497,"duration":0.11408718750000446},{"name":"G6","midi":91,"time":94.88085750000123,"velocity":0.7874015748031497,"duration":0.11408718750000446},{"name":"E6","midi":88,"time":94.99990500000123,"velocity":0.7874015748031497,"duration":0.11408718750000446},{"name":"A6","midi":93,"time":95.11895250000124,"velocity":0.7874015748031497,"duration":0.11408718750000446},{"name":"C#6","midi":85,"time":95.23800000000125,"velocity":0.7874015748031497,"duration":0.11408718750000446},{"name":"F#6","midi":90,"time":95.35704750000126,"velocity":0.7874015748031497,"duration":0.11408718750000446},{"name":"D#6","midi":87,"time":95.47609500000127,"velocity":0.7874015748031497,"duration":0.11408718750000446},{"name":"A#6","midi":94,"time":95.59514250000127,"velocity":0.7874015748031497,"duration":0.11408718750000446},{"name":"C#6","midi":85,"time":95.71419000000128,"velocity":0.7874015748031497,"duration":0.11408718750000446},{"name":"F#6","midi":90,"time":95.83323750000129,"velocity":0.7874015748031497,"duration":0.11408718750000446},{"name":"D#6","midi":87,"time":95.9522850000013,"velocity":0.7874015748031497,"duration":0.11408718750000446},{"name":"A#6","midi":94,"time":96.0713325000013,"velocity":0.7874015748031497,"duration":0.11408718750000446},{"name":"C#6","midi":85,"time":96.19038000000131,"velocity":0.7874015748031497,"duration":0.11408718750000446},{"name":"F#6","midi":90,"time":96.30942750000132,"velocity":0.7874015748031497,"duration":0.11408718750000446},{"name":"D#6","midi":87,"time":96.42847500000133,"velocity":0.7874015748031497,"duration":0.11408718750000446},{"name":"A#6","midi":94,"time":96.54752250000134,"velocity":0.7874015748031497,"duration":0.11408718750000446},{"name":"C#6","midi":85,"time":96.66657000000134,"velocity":0.7874015748031497,"duration":0.11408718750000446},{"name":"F#6","midi":90,"time":96.78561750000135,"velocity":0.7874015748031497,"duration":0.11408718750000446},{"name":"D#6","midi":87,"time":96.90466500000136,"velocity":0.7874015748031497,"duration":0.11408718750000446},{"name":"A#6","midi":94,"time":97.02371250000137,"velocity":0.7874015748031497,"duration":0.11408718750000446},{"name":"C6","midi":84,"time":97.14276000000137,"velocity":0.7874015748031497,"duration":0.11408718750000446},{"name":"G6","midi":91,"time":97.26180750000138,"velocity":0.7874015748031497,"duration":0.11408718750000446},{"name":"E6","midi":88,"time":97.38085500000139,"velocity":0.7874015748031497,"duration":0.11408718750000446},{"name":"A6","midi":93,"time":97.4999025000014,"velocity":0.7874015748031497,"duration":0.11408718750000446},{"name":"C6","midi":84,"time":97.6189500000014,"velocity":0.7874015748031497,"duration":0.11408718750000446},{"name":"G6","midi":91,"time":97.73799750000141,"velocity":0.7874015748031497,"duration":0.11408718750000446},{"name":"E6","midi":88,"time":97.85704500000142,"velocity":0.7874015748031497,"duration":0.11408718750000446},{"name":"A6","midi":93,"time":97.97609250000143,"velocity":0.7874015748031497,"duration":0.11408718750000446},{"name":"C6","midi":84,"time":98.09514000000144,"velocity":0.7874015748031497,"duration":0.11408718750000446},{"name":"G6","midi":91,"time":98.21418750000144,"velocity":0.7874015748031497,"duration":0.11408718750000446},{"name":"E6","midi":88,"time":98.33323500000145,"velocity":0.7874015748031497,"duration":0.11408718750000446},{"name":"A6","midi":93,"time":98.45228250000146,"velocity":0.7874015748031497,"duration":0.11408718750000446},{"name":"C6","midi":84,"time":98.57133000000147,"velocity":0.7874015748031497,"duration":0.11408718750000446},{"name":"G6","midi":91,"time":98.69037750000147,"velocity":0.7874015748031497,"duration":0.11408718750000446},{"name":"E6","midi":88,"time":98.80942500000148,"velocity":0.7874015748031497,"duration":0.11408718750000446},{"name":"A6","midi":93,"time":98.92847250000149,"velocity":0.7874015748031497,"duration":0.11408718750000446},{"name":"A#5","midi":82,"time":99.0475200000015,"velocity":0.7874015748031497,"duration":0.11408718750000446},{"name":"F6","midi":89,"time":99.1665675000015,"velocity":0.7874015748031497,"duration":0.11408718750000446},{"name":"D6","midi":86,"time":99.28561500000151,"velocity":0.7874015748031497,"duration":0.11408718750000446},{"name":"A#6","midi":94,"time":99.40466250000152,"velocity":0.7874015748031497,"duration":0.11408718750000446},{"name":"A#5","midi":82,"time":99.52371000000153,"velocity":0.7874015748031497,"duration":0.11408718750000446},{"name":"F#6","midi":90,"time":99.64275750000154,"velocity":0.7874015748031497,"duration":0.11408718750000446},{"name":"D6","midi":86,"time":99.76180500000154,"velocity":0.7874015748031497,"duration":0.11408718750000446},{"name":"A#6","midi":94,"time":99.88085250000155,"velocity":0.7874015748031497,"duration":0.11408718750000446},{"name":"A#5","midi":82,"time":99.99990000000156,"velocity":0.7874015748031497,"duration":0.11408718750000446},{"name":"F6","midi":89,"time":100.11894750000157,"velocity":0.7874015748031497,"duration":0.11408718750000446},{"name":"D6","midi":86,"time":100.23799500000158,"velocity":0.7874015748031497,"duration":0.11408718750000446},{"name":"A#6","midi":94,"time":100.35704250000158,"velocity":0.7874015748031497,"duration":0.11408718750000446},{"name":"A#5","midi":82,"time":100.47609000000159,"velocity":0.7874015748031497,"duration":0.11408718750000446},{"name":"F#6","midi":90,"time":100.5951375000016,"velocity":0.7874015748031497,"duration":0.11408718750000446},{"name":"D6","midi":86,"time":100.7141850000016,"velocity":0.7874015748031497,"duration":0.11408718750000446},{"name":"A#6","midi":94,"time":100.83323250000161,"velocity":0.7874015748031497,"duration":0.11408718750000446},{"name":"C6","midi":84,"time":100.95228000000162,"velocity":0.7874015748031497,"duration":0.11408718750000446},{"name":"G6","midi":91,"time":101.07132750000163,"velocity":0.7874015748031497,"duration":0.11408718750000446},{"name":"E6","midi":88,"time":101.19037500000164,"velocity":0.7874015748031497,"duration":0.11408718750000446},{"name":"A6","midi":93,"time":101.30942250000165,"velocity":0.7874015748031497,"duration":0.11408718750000446},{"name":"C6","midi":84,"time":101.42847000000165,"velocity":0.7874015748031497,"duration":0.11408718750000446},{"name":"G6","midi":91,"time":101.54751750000166,"velocity":0.7874015748031497,"duration":0.11408718750000446},{"name":"E6","midi":88,"time":101.66656500000167,"velocity":0.7874015748031497,"duration":0.11408718750000446},{"name":"A6","midi":93,"time":101.78561250000168,"velocity":0.7874015748031497,"duration":0.11408718750000446},{"name":"C6","midi":84,"time":101.90466000000168,"velocity":0.7874015748031497,"duration":0.11408718750000446},{"name":"G6","midi":91,"time":102.02370750000169,"velocity":0.7874015748031497,"duration":0.11408718750000446},{"name":"E6","midi":88,"time":102.1427550000017,"velocity":0.7874015748031497,"duration":0.11408718750000446},{"name":"A6","midi":93,"time":102.2618025000017,"velocity":0.7874015748031497,"duration":0.11408718750000446},{"name":"C6","midi":84,"time":102.38085000000171,"velocity":0.7874015748031497,"duration":0.11408718750000446},{"name":"G6","midi":91,"time":102.49989750000172,"velocity":0.7874015748031497,"duration":0.11408718750000446},{"name":"E6","midi":88,"time":102.61894500000173,"velocity":0.7874015748031497,"duration":0.11408718750000446},{"name":"A6","midi":93,"time":102.73799250000174,"velocity":0.7874015748031497,"duration":0.11408718750000446},{"name":"C#6","midi":85,"time":102.85704000000175,"velocity":0.7874015748031497,"duration":0.11408718750000446},{"name":"F#6","midi":90,"time":102.97608750000175,"velocity":0.7874015748031497,"duration":0.11408718750000446},{"name":"D#6","midi":87,"time":103.09513500000176,"velocity":0.7874015748031497,"duration":0.11408718750000446},{"name":"A#6","midi":94,"time":103.21418250000177,"velocity":0.7874015748031497,"duration":0.11408718750000446},{"name":"C#6","midi":85,"time":103.33323000000178,"velocity":0.7874015748031497,"duration":0.11408718750000446},{"name":"F#6","midi":90,"time":103.45227750000178,"velocity":0.7874015748031497,"duration":0.11408718750000446},{"name":"D#6","midi":87,"time":103.57132500000179,"velocity":0.7874015748031497,"duration":0.11408718750000446},{"name":"A#6","midi":94,"time":103.6903725000018,"velocity":0.7874015748031497,"duration":0.11408718750000446},{"name":"C#6","midi":85,"time":103.80942000000181,"velocity":0.7874015748031497,"duration":0.11408718750000446},{"name":"F#6","midi":90,"time":103.92846750000182,"velocity":0.7874015748031497,"duration":0.11408718750000446},{"name":"D#6","midi":87,"time":104.04751500000182,"velocity":0.7874015748031497,"duration":0.11408718750000446},{"name":"A#6","midi":94,"time":104.16656250000183,"velocity":0.7874015748031497,"duration":0.11408718750000446},{"name":"C#6","midi":85,"time":104.28561000000184,"velocity":0.7874015748031497,"duration":0.11408718750000446},{"name":"F#6","midi":90,"time":104.40465750000185,"velocity":0.7874015748031497,"duration":0.11408718750000446},{"name":"D#6","midi":87,"time":104.52370500000185,"velocity":0.7874015748031497,"duration":0.11408718750000446},{"name":"A#6","midi":94,"time":104.64275250000186,"velocity":0.7874015748031497,"duration":0.11408718750000446},{"name":"C6","midi":84,"time":104.76180000000187,"velocity":0.7874015748031497,"duration":0.11408718750000446},{"name":"G6","midi":91,"time":104.88084750000188,"velocity":0.7874015748031497,"duration":0.11408718750000446},{"name":"E6","midi":88,"time":104.99989500000189,"velocity":0.7874015748031497,"duration":0.11408718750000446},{"name":"A6","midi":93,"time":105.11894250000189,"velocity":0.7874015748031497,"duration":0.11408718750000446},{"name":"C6","midi":84,"time":105.2379900000019,"velocity":0.7874015748031497,"duration":0.11408718750000446},{"name":"G6","midi":91,"time":105.35703750000191,"velocity":0.7874015748031497,"duration":0.11408718750000446},{"name":"E6","midi":88,"time":105.47608500000192,"velocity":0.7874015748031497,"duration":0.11408718750000446},{"name":"A6","midi":93,"time":105.59513250000192,"velocity":0.7874015748031497,"duration":0.11408718750000446},{"name":"C#6","midi":85,"time":105.71418000000193,"velocity":0.7874015748031497,"duration":0.11408718750000446},{"name":"G#6","midi":92,"time":105.83322750000194,"velocity":0.7874015748031497,"duration":0.11408718750000446},{"name":"F6","midi":89,"time":105.95227500000195,"velocity":0.7874015748031497,"duration":0.11408718750000446},{"name":"A#6","midi":94,"time":106.07132250000195,"velocity":0.7874015748031497,"duration":0.11408718750000446},{"name":"C#6","midi":85,"time":106.19037000000196,"velocity":0.7874015748031497,"duration":0.11408718750000446},{"name":"G#6","midi":92,"time":106.30941750000197,"velocity":0.7874015748031497,"duration":0.11408718750000446},{"name":"F6","midi":89,"time":106.42846500000198,"velocity":0.7874015748031497,"duration":0.11408718750000446},{"name":"A#6","midi":94,"time":106.54751250000199,"velocity":0.7874015748031497,"duration":0.11408718750000446},{"name":"C6","midi":84,"time":106.666560000002,"velocity":0.7874015748031497,"duration":0.11408718750000446},{"name":"G6","midi":91,"time":106.785607500002,"velocity":0.7874015748031497,"duration":0.11408718750000446},{"name":"E6","midi":88,"time":106.90465500000201,"velocity":0.7874015748031497,"duration":0.11408718750000446},{"name":"A6","midi":93,"time":107.02370250000202,"velocity":0.7874015748031497,"duration":0.11408718750000446},{"name":"C6","midi":84,"time":107.14275000000202,"velocity":0.7874015748031497,"duration":0.11408718750000446},{"name":"G6","midi":91,"time":107.26179750000203,"velocity":0.7874015748031497,"duration":0.11408718750000446},{"name":"E6","midi":88,"time":107.38084500000204,"velocity":0.7874015748031497,"duration":0.11408718750000446},{"name":"A6","midi":93,"time":107.49989250000205,"velocity":0.7874015748031497,"duration":0.11408718750000446},{"name":"C6","midi":84,"time":107.61894000000206,"velocity":0.7874015748031497,"duration":0.11408718750000446},{"name":"G6","midi":91,"time":107.73798750000206,"velocity":0.7874015748031497,"duration":0.11408718750000446},{"name":"E6","midi":88,"time":107.85703500000207,"velocity":0.7874015748031497,"duration":0.11408718750000446},{"name":"A6","midi":93,"time":107.97608250000208,"velocity":0.7874015748031497,"duration":0.11408718750000446},{"name":"C6","midi":84,"time":108.09513000000209,"velocity":0.7874015748031497,"duration":0.11408718750000446},{"name":"G6","midi":91,"time":108.2141775000021,"velocity":0.7874015748031497,"duration":0.11408718750000446},{"name":"E6","midi":88,"time":108.3332250000021,"velocity":0.7874015748031497,"duration":0.11408718750000446},{"name":"A6","midi":93,"time":108.45227250000211,"velocity":0.7874015748031497,"duration":0.11408718750000446},{"name":"F#5","midi":78,"time":108.57132000000212,"velocity":0.7874015748031497,"duration":0.11408718750000446},{"name":"A#6","midi":94,"time":108.80941500000212,"velocity":0.7874015748031497,"duration":0.11408718750000446},{"name":"F#6","midi":90,"time":108.80941500000212,"velocity":0.7874015748031497,"duration":0.11408718750000446},{"name":"C#6","midi":85,"time":108.92846250000213,"velocity":0.7874015748031497,"duration":0.11408718750000446},{"name":"C#6","midi":85,"time":109.16655750000213,"velocity":0.7874015748031497,"duration":0.11408718750000446},{"name":"A#6","midi":94,"time":109.28560500000214,"velocity":0.7874015748031497,"duration":0.11408718750000446},{"name":"F#6","midi":90,"time":109.28560500000214,"velocity":0.7874015748031497,"duration":0.11408718750000446},{"name":"B5","midi":83,"time":109.52370000000214,"velocity":0.7874015748031497,"duration":0.11408718750000446},{"name":"D#6","midi":87,"time":109.76179500000214,"velocity":0.7874015748031497,"duration":0.11408718750000446},{"name":"F#6","midi":90,"time":109.76179500000214,"velocity":0.7874015748031497,"duration":0.11408718750000446},{"name":"F#5","midi":78,"time":109.88084250000215,"velocity":0.7874015748031497,"duration":0.11408718750000446},{"name":"F#5","midi":78,"time":110.11893750000215,"velocity":0.7874015748031497,"duration":0.11408718750000446},{"name":"D#6","midi":87,"time":110.23798500000215,"velocity":0.7874015748031497,"duration":0.11408718750000446},{"name":"F#6","midi":90,"time":110.23798500000215,"velocity":0.7874015748031497,"duration":0.11408718750000446},{"name":"F5","midi":77,"time":110.47608000000216,"velocity":0.7874015748031497,"duration":0.11408718750000446},{"name":"F6","midi":89,"time":110.71417500000216,"velocity":0.7874015748031497,"duration":0.11408718750000446},{"name":"A6","midi":93,"time":110.71417500000216,"velocity":0.7874015748031497,"duration":0.11408718750000446},{"name":"C6","midi":84,"time":110.83322250000217,"velocity":0.7874015748031497,"duration":0.11408718750000446},{"name":"C6","midi":84,"time":111.07131750000217,"velocity":0.7874015748031497,"duration":0.11408718750000446},{"name":"F6","midi":89,"time":111.19036500000217,"velocity":0.7874015748031497,"duration":0.11408718750000446},{"name":"A6","midi":93,"time":111.19036500000217,"velocity":0.7874015748031497,"duration":0.11408718750000446},{"name":"A#5","midi":82,"time":111.42846000000218,"velocity":0.7874015748031497,"duration":0.11408718750000446},{"name":"D6","midi":86,"time":111.66655500000218,"velocity":0.7874015748031497,"duration":0.11408718750000446},{"name":"F6","midi":89,"time":111.66655500000218,"velocity":0.7874015748031497,"duration":0.11408718750000446},{"name":"F5","midi":77,"time":111.78560250000218,"velocity":0.7874015748031497,"duration":0.11408718750000446},{"name":"F5","midi":77,"time":112.02369750000219,"velocity":0.7874015748031497,"duration":0.11408718750000446},{"name":"D6","midi":86,"time":112.1427450000022,"velocity":0.7874015748031497,"duration":0.11408718750000446},{"name":"F6","midi":89,"time":112.1427450000022,"velocity":0.7874015748031497,"duration":0.11408718750000446},{"name":"D#5","midi":75,"time":112.3808400000022,"velocity":0.7874015748031497,"duration":0.11408718750000446},{"name":"D#6","midi":87,"time":112.6189350000022,"velocity":0.7874015748031497,"duration":0.11408718750000446},{"name":"G6","midi":91,"time":112.6189350000022,"velocity":0.7874015748031497,"duration":0.11408718750000446},{"name":"A#5","midi":82,"time":112.7379825000022,"velocity":0.7874015748031497,"duration":0.11408718750000446},{"name":"A#5","midi":82,"time":112.9760775000022,"velocity":0.7874015748031497,"duration":0.11408718750000446},{"name":"D#6","midi":87,"time":113.09512500000221,"velocity":0.7874015748031497,"duration":0.11408718750000446},{"name":"G6","midi":91,"time":113.09512500000221,"velocity":0.7874015748031497,"duration":0.11408718750000446},{"name":"G#5","midi":80,"time":113.33322000000221,"velocity":0.7874015748031497,"duration":0.11408718750000446},{"name":"D#6","midi":87,"time":113.57131500000222,"velocity":0.7874015748031497,"duration":0.11408718750000446},{"name":"C6","midi":84,"time":113.57131500000222,"velocity":0.7874015748031497,"duration":0.11408718750000446},{"name":"D#5","midi":75,"time":113.69036250000222,"velocity":0.7874015748031497,"duration":0.11408718750000446},{"name":"D#5","midi":75,"time":113.92845750000222,"velocity":0.7874015748031497,"duration":0.11408718750000446},{"name":"D#6","midi":87,"time":114.04750500000223,"velocity":0.7874015748031497,"duration":0.11408718750000446},{"name":"C6","midi":84,"time":114.04750500000223,"velocity":0.7874015748031497,"duration":0.11408718750000446},{"name":"G5","midi":79,"time":114.28560000000223,"velocity":0.7874015748031497,"duration":0.11408718750000446},{"name":"D6","midi":86,"time":114.52369500000223,"velocity":0.7874015748031497,"duration":0.11408718750000446},{"name":"B5","midi":83,"time":114.52369500000223,"velocity":0.7874015748031497,"duration":0.11408718750000446},{"name":"D5","midi":74,"time":114.64274250000224,"velocity":0.7874015748031497,"duration":0.11408718750000446},{"name":"D5","midi":74,"time":114.88083750000224,"velocity":0.7874015748031497,"duration":0.11408718750000446},{"name":"D6","midi":86,"time":114.99988500000225,"velocity":0.7874015748031497,"duration":0.11408718750000446},{"name":"B5","midi":83,"time":114.99988500000225,"velocity":0.7874015748031497,"duration":0.11408718750000446},{"name":"G5","midi":79,"time":115.23798000000225,"velocity":0.7874015748031497,"duration":0.11408718750000446},{"name":"D6","midi":86,"time":115.47607500000225,"velocity":0.7874015748031497,"duration":0.11408718750000446},{"name":"B5","midi":83,"time":115.47607500000225,"velocity":0.7874015748031497,"duration":0.11408718750000446},{"name":"D5","midi":74,"time":115.59512250000226,"velocity":0.7874015748031497,"duration":0.11408718750000446},{"name":"D5","midi":74,"time":115.83321750000226,"velocity":0.7874015748031497,"duration":0.11408718750000446},{"name":"D6","midi":86,"time":115.95226500000227,"velocity":0.7874015748031497,"duration":0.11408718750000446},{"name":"B5","midi":83,"time":115.95226500000227,"velocity":0.7874015748031497,"duration":0.11408718750000446},{"name":"C6","midi":84,"time":116.19036000000227,"velocity":0.7874015748031497,"duration":0.11408718750000446},{"name":"G6","midi":91,"time":116.42845500000227,"velocity":0.6929133858267716,"duration":0.11408718750000446},{"name":"E6","midi":88,"time":116.42845500000227,"velocity":0.6929133858267716,"duration":0.11408718750000446},{"name":"G5","midi":79,"time":116.54750250000228,"velocity":0.6377952755905512,"duration":0.11408718750000446},{"name":"G5","midi":79,"time":116.78559750000228,"velocity":0.5354330708661418,"duration":0.11408718750000446},{"name":"G6","midi":91,"time":116.90464500000229,"velocity":0.4881889763779528,"duration":0.11408718750000446},{"name":"E6","midi":88,"time":116.90464500000229,"velocity":0.4881889763779528,"duration":0.11408718750000446},{"name":"C6","midi":84,"time":117.14274000000229,"velocity":0.3858267716535433,"duration":0.11408718750000446},{"name":"G6","midi":91,"time":117.38083500000229,"velocity":0.28346456692913385,"duration":0.11408718750000446},{"name":"E6","midi":88,"time":117.38083500000229,"velocity":0.28346456692913385,"duration":0.11408718750000446},{"name":"G5","midi":79,"time":117.4998825000023,"velocity":0.23622047244094488,"duration":0.11408718750000446},{"name":"G5","midi":79,"time":117.7379775000023,"velocity":0.13385826771653545,"duration":0.11408718750000446},{"name":"G6","midi":91,"time":117.85702500000231,"velocity":0.07874015748031496,"duration":0.11408718750000446},{"name":"E6","midi":88,"time":117.85702500000231,"velocity":0.07874015748031496,"duration":0.11408718750000446}],"controlChanges":{"7":[{"number":7,"time":0,"value":0.4330708661417323}],"10":[{"number":10,"time":0,"value":0.31496062992125984}],"91":[{"number":91,"time":0,"value":0}],"93":[{"number":93,"time":0,"value":0}]},"id":2,"name":"Xylophone","instrumentNumber":13,"instrument":"xylophone","instrumentFamily":"chromatic percussion","channelNumber":1,"isPercussion":false},{"startTime":1.90476,"duration":78.20924718750005,"length":251,"notes":[{"name":"C4","midi":60,"time":1.90476,"velocity":0.7874015748031497,"duration":0.11408718750000002},{"name":"E4","midi":64,"time":2.142855,"velocity":0.7874015748031497,"duration":0.11408718750000002},{"name":"G4","midi":67,"time":2.2619025,"velocity":0.7874015748031497,"duration":0.11408718750000002},{"name":"E4","midi":64,"time":2.4999975,"velocity":0.7874015748031497,"duration":0.11408718750000002},{"name":"G4","midi":67,"time":2.6190450000000003,"velocity":0.7874015748031497,"duration":0.11408718750000002},{"name":"A4","midi":69,"time":2.8571400000000002,"velocity":0.7874015748031497,"duration":0.11408718750000002},{"name":"G4","midi":67,"time":3.095235,"velocity":0.7874015748031497,"duration":0.11408718750000002},{"name":"E4","midi":64,"time":3.2142825000000004,"velocity":0.7874015748031497,"duration":0.11408718750000002},{"name":"G4","midi":67,"time":3.3333300000000006,"velocity":0.7874015748031497,"duration":0.11408718750000002},{"name":"A4","midi":69,"time":3.5714250000000005,"velocity":0.7874015748031497,"duration":0.11408718750000002},{"name":"G#4","midi":68,"time":3.8095200000000005,"velocity":0.7874015748031497,"duration":0.11408718750000002},{"name":"A#4","midi":70,"time":4.047615,"velocity":0.7874015748031497,"duration":0.11408718750000002},{"name":"C5","midi":72,"time":4.1666625,"velocity":0.7874015748031497,"duration":0.11408718750000002},{"name":"A#4","midi":70,"time":4.4047575000000005,"velocity":0.7874015748031497,"duration":0.11408718750000002},{"name":"G#4","midi":68,"time":4.523805,"velocity":0.7874015748031497,"duration":0.11408718750000002},{"name":"G4","midi":67,"time":4.761900000000001,"velocity":0.7874015748031497,"duration":0.11408718750000002},{"name":"E4","midi":64,"time":4.999995000000001,"velocity":0.7874015748031497,"duration":0.11408718750000002},{"name":"E4","midi":64,"time":5.476185000000001,"velocity":0.7874015748031497,"duration":0.11408718750000002},{"name":"C4","midi":60,"time":5.714280000000001,"velocity":0.7874015748031497,"duration":0.11408718750000002},{"name":"E4","midi":64,"time":5.952375000000002,"velocity":0.7874015748031497,"duration":0.11408718750000002},{"name":"G4","midi":67,"time":6.0714225000000015,"velocity":0.7874015748031497,"duration":0.11408718750000002},{"name":"E4","midi":64,"time":6.309517500000002,"velocity":0.7874015748031497,"duration":0.11408718750000002},{"name":"G4","midi":67,"time":6.428565000000002,"velocity":0.7874015748031497,"duration":0.11408718750000002},{"name":"A4","midi":69,"time":6.666660000000002,"velocity":0.7874015748031497,"duration":0.11408718750000002},{"name":"G4","midi":67,"time":6.904755000000002,"velocity":0.7874015748031497,"duration":0.11408718750000002},{"name":"E4","midi":64,"time":7.023802500000002,"velocity":0.7874015748031497,"duration":0.11408718750000002},{"name":"G4","midi":67,"time":7.142850000000002,"velocity":0.7874015748031497,"duration":0.11408718750000002},{"name":"A4","midi":69,"time":7.380945000000002,"velocity":0.7874015748031497,"duration":0.11408718750000002},{"name":"G#4","midi":68,"time":7.619040000000003,"velocity":0.7874015748031497,"duration":0.11408718750000002},{"name":"A#4","midi":70,"time":7.857135000000003,"velocity":0.7874015748031497,"duration":0.11408718750000002},{"name":"C5","midi":72,"time":7.976182500000003,"velocity":0.7874015748031497,"duration":0.11408718750000002},{"name":"A#4","midi":70,"time":8.214277500000003,"velocity":0.7874015748031497,"duration":0.11408718749999913},{"name":"G#4","midi":68,"time":8.333325000000002,"velocity":0.7874015748031497,"duration":0.11408718749999913},{"name":"D#5","midi":75,"time":8.571420000000002,"velocity":0.7874015748031497,"duration":0.02480156250000043},{"name":"E5","midi":76,"time":8.601181875000002,"velocity":0.7874015748031497,"duration":0.11408718749999913},{"name":"C5","midi":72,"time":8.809515000000001,"velocity":0.7874015748031497,"duration":0.11408718749999913},{"name":"C4","midi":60,"time":9.5238,"velocity":0.7874015748031497,"duration":0.11408718749999913},{"name":"E4","midi":64,"time":9.761894999999999,"velocity":0.7874015748031497,"duration":0.11408718749999913},{"name":"G4","midi":67,"time":9.880942499999998,"velocity":0.7874015748031497,"duration":0.11408718749999913},{"name":"E4","midi":64,"time":10.119037499999997,"velocity":0.7874015748031497,"duration":0.11408718749999913},{"name":"G4","midi":67,"time":10.238084999999996,"velocity":0.7874015748031497,"duration":0.11408718749999913},{"name":"A4","midi":69,"time":10.476179999999996,"velocity":0.7874015748031497,"duration":0.11408718749999913},{"name":"G4","midi":67,"time":10.714274999999995,"velocity":0.7874015748031497,"duration":0.11408718749999913},{"name":"E4","midi":64,"time":10.833322499999994,"velocity":0.7874015748031497,"duration":0.11408718749999913},{"name":"G4","midi":67,"time":10.952369999999993,"velocity":0.7874015748031497,"duration":0.11408718749999913},{"name":"A4","midi":69,"time":11.190464999999993,"velocity":0.7874015748031497,"duration":0.11408718749999913},{"name":"G#4","midi":68,"time":11.428559999999992,"velocity":0.7874015748031497,"duration":0.11408718749999913},{"name":"A#4","midi":70,"time":11.666654999999992,"velocity":0.7874015748031497,"duration":0.11408718749999913},{"name":"C5","midi":72,"time":11.78570249999999,"velocity":0.7874015748031497,"duration":0.11408718749999913},{"name":"A#4","midi":70,"time":12.02379749999999,"velocity":0.7874015748031497,"duration":0.11408718749999913},{"name":"G#4","midi":68,"time":12.142844999999989,"velocity":0.7874015748031497,"duration":0.11408718749999913},{"name":"G4","midi":67,"time":12.380939999999988,"velocity":0.7874015748031497,"duration":0.11408718749999913},{"name":"E4","midi":64,"time":12.619034999999988,"velocity":0.7874015748031497,"duration":0.11408718749999913},{"name":"E4","midi":64,"time":13.095224999999987,"velocity":0.7874015748031497,"duration":0.11408718749999913},{"name":"C4","midi":60,"time":13.333319999999986,"velocity":0.7874015748031497,"duration":0.11408718749999913},{"name":"E4","midi":64,"time":13.571414999999986,"velocity":0.7874015748031497,"duration":0.11408718749999913},{"name":"G4","midi":67,"time":13.690462499999985,"velocity":0.7874015748031497,"duration":0.11408718749999913},{"name":"E4","midi":64,"time":13.928557499999984,"velocity":0.7874015748031497,"duration":0.11408718749999913},{"name":"G4","midi":67,"time":14.047604999999983,"velocity":0.7874015748031497,"duration":0.11408718749999913},{"name":"A4","midi":69,"time":14.285699999999983,"velocity":0.7874015748031497,"duration":0.11408718749999913},{"name":"G4","midi":67,"time":14.523794999999982,"velocity":0.7874015748031497,"duration":0.11408718749999913},{"name":"E4","midi":64,"time":14.64284249999998,"velocity":0.7874015748031497,"duration":0.11408718749999913},{"name":"G4","midi":67,"time":14.76188999999998,"velocity":0.7874015748031497,"duration":0.11408718749999913},{"name":"A4","midi":69,"time":14.99998499999998,"velocity":0.7874015748031497,"duration":0.11408718749999913},{"name":"G#4","midi":68,"time":15.238079999999979,"velocity":0.7874015748031497,"duration":0.11408718749999913},{"name":"A#4","midi":70,"time":15.476174999999978,"velocity":0.7874015748031497,"duration":0.11408718749999913},{"name":"B4","midi":71,"time":15.595222499999977,"velocity":0.7874015748031497,"duration":0.11408718749999913},{"name":"A4","midi":69,"time":15.833317499999977,"velocity":0.7874015748031497,"duration":0.11408718749999913},{"name":"G4","midi":67,"time":15.952364999999975,"velocity":0.7874015748031497,"duration":0.11408718750000091},{"name":"C5","midi":72,"time":16.190459999999977,"velocity":0.7874015748031497,"duration":0.11408718750000091},{"name":"G3","midi":55,"time":24.761879999999977,"velocity":0.7874015748031497,"duration":0.11408718750000091},{"name":"C4","midi":60,"time":24.761879999999977,"velocity":0.7874015748031497,"duration":0.11408718750000091},{"name":"C4","midi":60,"time":24.999974999999978,"velocity":0.7874015748031497,"duration":0.11408718750000091},{"name":"E4","midi":64,"time":24.999974999999978,"velocity":0.7874015748031497,"duration":0.11408718750000091},{"name":"E4","midi":64,"time":25.11902249999998,"velocity":0.7874015748031497,"duration":0.11408718750000091},{"name":"G4","midi":67,"time":25.11902249999998,"velocity":0.7874015748031497,"duration":0.11408718750000091},{"name":"C4","midi":60,"time":25.35711749999998,"velocity":0.7874015748031497,"duration":0.11408718750000091},{"name":"E4","midi":64,"time":25.35711749999998,"velocity":0.7874015748031497,"duration":0.11408718750000091},{"name":"E4","midi":64,"time":25.47616499999998,"velocity":0.7874015748031497,"duration":0.11408718750000091},{"name":"G4","midi":67,"time":25.47616499999998,"velocity":0.7874015748031497,"duration":0.11408718750000091},{"name":"E4","midi":64,"time":25.71425999999998,"velocity":0.7874015748031497,"duration":0.11408718750000091},{"name":"A4","midi":69,"time":25.71425999999998,"velocity":0.7874015748031497,"duration":0.11408718750000091},{"name":"E4","midi":64,"time":25.952354999999983,"velocity":0.7874015748031497,"duration":0.11408718750000091},{"name":"G4","midi":67,"time":25.952354999999983,"velocity":0.7874015748031497,"duration":0.11408718750000091},{"name":"C4","midi":60,"time":26.071402499999984,"velocity":0.7874015748031497,"duration":0.11408718750000091},{"name":"E4","midi":64,"time":26.071402499999984,"velocity":0.7874015748031497,"duration":0.11408718750000091},{"name":"E4","midi":64,"time":26.190449999999984,"velocity":0.7874015748031497,"duration":0.11408718750000091},{"name":"G4","midi":67,"time":26.190449999999984,"velocity":0.7874015748031497,"duration":0.11408718750000091},{"name":"E4","midi":64,"time":26.428544999999986,"velocity":0.7874015748031497,"duration":0.11408718750000091},{"name":"A4","midi":69,"time":26.428544999999986,"velocity":0.7874015748031497,"duration":0.11408718750000091},{"name":"D#4","midi":63,"time":26.666639999999987,"velocity":0.7874015748031497,"duration":0.11408718750000091},{"name":"G#4","midi":68,"time":26.666639999999987,"velocity":0.7874015748031497,"duration":0.11408718750000091},{"name":"F4","midi":65,"time":26.904734999999988,"velocity":0.7874015748031497,"duration":0.11408718750000091},{"name":"A#4","midi":70,"time":26.904734999999988,"velocity":0.7874015748031497,"duration":0.11408718750000091},{"name":"G#4","midi":68,"time":27.02378249999999,"velocity":0.7874015748031497,"duration":0.11408718750000091},{"name":"C5","midi":72,"time":27.02378249999999,"velocity":0.7874015748031497,"duration":0.11408718750000091},{"name":"F4","midi":65,"time":27.26187749999999,"velocity":0.7874015748031497,"duration":0.11408718750000091},{"name":"A#4","midi":70,"time":27.26187749999999,"velocity":0.7874015748031497,"duration":0.11408718750000091},{"name":"D#4","midi":63,"time":27.38092499999999,"velocity":0.7874015748031497,"duration":0.11408718750000091},{"name":"G#4","midi":68,"time":27.38092499999999,"velocity":0.7874015748031497,"duration":0.11408718750000091},{"name":"E4","midi":64,"time":27.619019999999992,"velocity":0.7874015748031497,"duration":0.11408718750000091},{"name":"G4","midi":67,"time":27.619019999999992,"velocity":0.7874015748031497,"duration":0.11408718750000091},{"name":"C4","midi":60,"time":27.857114999999993,"velocity":0.7874015748031497,"duration":0.11408718750000091},{"name":"E4","midi":64,"time":27.857114999999993,"velocity":0.7874015748031497,"duration":0.11408718750000091},{"name":"C4","midi":60,"time":28.333304999999996,"velocity":0.7874015748031497,"duration":0.11408718750000091},{"name":"E4","midi":64,"time":28.333304999999996,"velocity":0.7874015748031497,"duration":0.11408718750000091},{"name":"G3","midi":55,"time":28.571399999999997,"velocity":0.7874015748031497,"duration":0.11408718750000091},{"name":"C4","midi":60,"time":28.571399999999997,"velocity":0.7874015748031497,"duration":0.11408718750000091},{"name":"C4","midi":60,"time":28.809495,"velocity":0.7874015748031497,"duration":0.11408718750000091},{"name":"E4","midi":64,"time":28.809495,"velocity":0.7874015748031497,"duration":0.11408718750000091},{"name":"E4","midi":64,"time":28.9285425,"velocity":0.7874015748031497,"duration":0.11408718750000091},{"name":"G4","midi":67,"time":28.9285425,"velocity":0.7874015748031497,"duration":0.11408718750000091},{"name":"C4","midi":60,"time":29.1666375,"velocity":0.7874015748031497,"duration":0.11408718750000091},{"name":"E4","midi":64,"time":29.1666375,"velocity":0.7874015748031497,"duration":0.11408718750000091},{"name":"E4","midi":64,"time":29.285685,"velocity":0.7874015748031497,"duration":0.11408718750000091},{"name":"G4","midi":67,"time":29.285685,"velocity":0.7874015748031497,"duration":0.11408718750000091},{"name":"E4","midi":64,"time":29.523780000000002,"velocity":0.7874015748031497,"duration":0.11408718750000091},{"name":"A4","midi":69,"time":29.523780000000002,"velocity":0.7874015748031497,"duration":0.11408718750000091},{"name":"E4","midi":64,"time":29.761875000000003,"velocity":0.7874015748031497,"duration":0.11408718750000091},{"name":"G4","midi":67,"time":29.761875000000003,"velocity":0.7874015748031497,"duration":0.11408718750000091},{"name":"C4","midi":60,"time":29.880922500000004,"velocity":0.7874015748031497,"duration":0.11408718750000091},{"name":"E4","midi":64,"time":29.880922500000004,"velocity":0.7874015748031497,"duration":0.11408718750000091},{"name":"E4","midi":64,"time":29.999970000000005,"velocity":0.7874015748031497,"duration":0.11408718750000091},{"name":"G4","midi":67,"time":29.999970000000005,"velocity":0.7874015748031497,"duration":0.11408718750000091},{"name":"E4","midi":64,"time":30.238065000000006,"velocity":0.7874015748031497,"duration":0.11408718750000091},{"name":"A4","midi":69,"time":30.238065000000006,"velocity":0.7874015748031497,"duration":0.11408718750000091},{"name":"D#4","midi":63,"time":30.476160000000007,"velocity":0.7874015748031497,"duration":0.11408718750000091},{"name":"G#4","midi":68,"time":30.476160000000007,"velocity":0.7874015748031497,"duration":0.11408718750000091},{"name":"F4","midi":65,"time":30.71425500000001,"velocity":0.7874015748031497,"duration":0.11408718750000091},{"name":"A#4","midi":70,"time":30.71425500000001,"velocity":0.7874015748031497,"duration":0.11408718750000091},{"name":"G#4","midi":68,"time":30.83330250000001,"velocity":0.7874015748031497,"duration":0.11408718750000091},{"name":"C5","midi":72,"time":30.83330250000001,"velocity":0.7874015748031497,"duration":0.11408718750000091},{"name":"F4","midi":65,"time":31.07139750000001,"velocity":0.7874015748031497,"duration":0.11408718750000091},{"name":"A#4","midi":70,"time":31.07139750000001,"velocity":0.7874015748031497,"duration":0.11408718750000091},{"name":"D#4","midi":63,"time":31.19044500000001,"velocity":0.7874015748031497,"duration":0.11408718750000091},{"name":"G#4","midi":68,"time":31.19044500000001,"velocity":0.7874015748031497,"duration":0.11408718750000091},{"name":"B4","midi":71,"time":31.428540000000012,"velocity":0.7874015748031497,"duration":0.024801562499998653},{"name":"D#5","midi":75,"time":31.428540000000012,"velocity":0.7874015748031497,"duration":0.024801562499998653},{"name":"C5","midi":72,"time":31.45830187500001,"velocity":0.7874015748031497,"duration":0.11408718750000091},{"name":"E5","midi":76,"time":31.45830187500001,"velocity":0.7874015748031497,"duration":0.11408718750000091},{"name":"G4","midi":67,"time":31.66663500000001,"velocity":0.7874015748031497,"duration":0.11408718750000091},{"name":"C5","midi":72,"time":31.66663500000001,"velocity":0.7874015748031497,"duration":0.11408718750000091},{"name":"G3","midi":55,"time":32.38092000000001,"velocity":0.7874015748031497,"duration":0.11408718749999736},{"name":"C4","midi":60,"time":32.38092000000001,"velocity":0.7874015748031497,"duration":0.11408718749999736},{"name":"C4","midi":60,"time":32.619015000000005,"velocity":0.7874015748031497,"duration":0.11408718749999736},{"name":"E4","midi":64,"time":32.619015000000005,"velocity":0.7874015748031497,"duration":0.11408718749999736},{"name":"E4","midi":64,"time":32.738062500000005,"velocity":0.7874015748031497,"duration":0.11408718749999736},{"name":"G4","midi":67,"time":32.738062500000005,"velocity":0.7874015748031497,"duration":0.11408718749999736},{"name":"C4","midi":60,"time":32.9761575,"velocity":0.7874015748031497,"duration":0.11408718749999736},{"name":"E4","midi":64,"time":32.9761575,"velocity":0.7874015748031497,"duration":0.11408718749999736},{"name":"E4","midi":64,"time":33.095205,"velocity":0.7874015748031497,"duration":0.11408718749999736},{"name":"G4","midi":67,"time":33.095205,"velocity":0.7874015748031497,"duration":0.11408718749999736},{"name":"E4","midi":64,"time":33.333299999999994,"velocity":0.7874015748031497,"duration":0.11408718749999736},{"name":"A4","midi":69,"time":33.333299999999994,"velocity":0.7874015748031497,"duration":0.11408718749999736},{"name":"E4","midi":64,"time":33.57139499999999,"velocity":0.7874015748031497,"duration":0.11408718749999736},{"name":"G4","midi":67,"time":33.57139499999999,"velocity":0.7874015748031497,"duration":0.11408718749999736},{"name":"C4","midi":60,"time":33.69044249999999,"velocity":0.7874015748031497,"duration":0.11408718749999736},{"name":"E4","midi":64,"time":33.69044249999999,"velocity":0.7874015748031497,"duration":0.11408718749999736},{"name":"E4","midi":64,"time":33.80948999999999,"velocity":0.7874015748031497,"duration":0.11408718749999736},{"name":"G4","midi":67,"time":33.80948999999999,"velocity":0.7874015748031497,"duration":0.11408718749999736},{"name":"E4","midi":64,"time":34.047584999999984,"velocity":0.7874015748031497,"duration":0.11408718749999736},{"name":"A4","midi":69,"time":34.047584999999984,"velocity":0.7874015748031497,"duration":0.11408718749999736},{"name":"D#4","midi":63,"time":34.28567999999998,"velocity":0.7874015748031497,"duration":0.11408718749999736},{"name":"G#4","midi":68,"time":34.28567999999998,"velocity":0.7874015748031497,"duration":0.11408718749999736},{"name":"F4","midi":65,"time":34.52377499999997,"velocity":0.7874015748031497,"duration":0.11408718749999736},{"name":"A#4","midi":70,"time":34.52377499999997,"velocity":0.7874015748031497,"duration":0.11408718749999736},{"name":"G#4","midi":68,"time":34.64282249999997,"velocity":0.7874015748031497,"duration":0.11408718749999736},{"name":"C5","midi":72,"time":34.64282249999997,"velocity":0.7874015748031497,"duration":0.11408718749999736},{"name":"F4","midi":65,"time":34.88091749999997,"velocity":0.7874015748031497,"duration":0.11408718749999736},{"name":"A#4","midi":70,"time":34.88091749999997,"velocity":0.7874015748031497,"duration":0.11408718749999736},{"name":"D#4","midi":63,"time":34.99996499999997,"velocity":0.7874015748031497,"duration":0.11408718749999736},{"name":"G#4","midi":68,"time":34.99996499999997,"velocity":0.7874015748031497,"duration":0.11408718749999736},{"name":"E4","midi":64,"time":35.23805999999996,"velocity":0.7874015748031497,"duration":0.11408718749999736},{"name":"G4","midi":67,"time":35.23805999999996,"velocity":0.7874015748031497,"duration":0.11408718749999736},{"name":"C4","midi":60,"time":35.476154999999956,"velocity":0.7874015748031497,"duration":0.11408718749999736},{"name":"E4","midi":64,"time":35.476154999999956,"velocity":0.7874015748031497,"duration":0.11408718749999736},{"name":"C4","midi":60,"time":35.95234499999995,"velocity":0.7874015748031497,"duration":0.11408718749999736},{"name":"E4","midi":64,"time":35.95234499999995,"velocity":0.7874015748031497,"duration":0.11408718749999736},{"name":"G3","midi":55,"time":36.190439999999946,"velocity":0.7874015748031497,"duration":0.11408718749999736},{"name":"C4","midi":60,"time":36.190439999999946,"velocity":0.7874015748031497,"duration":0.11408718749999736},{"name":"C4","midi":60,"time":36.42853499999994,"velocity":0.7874015748031497,"duration":0.11408718749999736},{"name":"E4","midi":64,"time":36.42853499999994,"velocity":0.7874015748031497,"duration":0.11408718749999736},{"name":"E4","midi":64,"time":36.54758249999994,"velocity":0.7874015748031497,"duration":0.11408718749999736},{"name":"G4","midi":67,"time":36.54758249999994,"velocity":0.7874015748031497,"duration":0.11408718749999736},{"name":"C4","midi":60,"time":36.785677499999935,"velocity":0.7874015748031497,"duration":0.11408718749999736},{"name":"E4","midi":64,"time":36.785677499999935,"velocity":0.7874015748031497,"duration":0.11408718749999736},{"name":"E4","midi":64,"time":36.904724999999935,"velocity":0.7874015748031497,"duration":0.11408718749999736},{"name":"G4","midi":67,"time":36.904724999999935,"velocity":0.7874015748031497,"duration":0.11408718749999736},{"name":"E4","midi":64,"time":37.14281999999993,"velocity":0.7874015748031497,"duration":0.11408718749999736},{"name":"A4","midi":69,"time":37.14281999999993,"velocity":0.7874015748031497,"duration":0.11408718749999736},{"name":"E4","midi":64,"time":37.38091499999992,"velocity":0.7874015748031497,"duration":0.11408718749999736},{"name":"G4","midi":67,"time":37.38091499999992,"velocity":0.7874015748031497,"duration":0.11408718749999736},{"name":"C4","midi":60,"time":37.499962499999924,"velocity":0.7874015748031497,"duration":0.11408718749999736},{"name":"E4","midi":64,"time":37.499962499999924,"velocity":0.7874015748031497,"duration":0.11408718749999736},{"name":"E4","midi":64,"time":37.619009999999925,"velocity":0.7874015748031497,"duration":0.11408718749999736},{"name":"G4","midi":67,"time":37.619009999999925,"velocity":0.7874015748031497,"duration":0.11408718749999736},{"name":"E4","midi":64,"time":37.85710499999992,"velocity":0.7874015748031497,"duration":0.11408718749999736},{"name":"A4","midi":69,"time":37.85710499999992,"velocity":0.7874015748031497,"duration":0.11408718749999736},{"name":"F4","midi":65,"time":38.09519999999991,"velocity":0.7874015748031497,"duration":0.11408718749999736},{"name":"G#4","midi":68,"time":38.09519999999991,"velocity":0.7874015748031497,"duration":0.11408718749999736},{"name":"F#4","midi":66,"time":38.33329499999991,"velocity":0.7874015748031497,"duration":0.11408718749999736},{"name":"A#4","midi":70,"time":38.33329499999991,"velocity":0.7874015748031497,"duration":0.11408718749999736},{"name":"G4","midi":67,"time":38.45234249999991,"velocity":0.7874015748031497,"duration":0.11408718749999736},{"name":"B4","midi":71,"time":38.45234249999991,"velocity":0.7874015748031497,"duration":0.11408718749999736},{"name":"G4","midi":67,"time":38.6904374999999,"velocity":0.7874015748031497,"duration":0.11408718749999736},{"name":"A4","midi":69,"time":38.6904374999999,"velocity":0.7874015748031497,"duration":0.11408718749999736},{"name":"F4","midi":65,"time":38.8094849999999,"velocity":0.7874015748031497,"duration":0.11408718749999736},{"name":"G4","midi":67,"time":38.8094849999999,"velocity":0.7874015748031497,"duration":0.11408718749999736},{"name":"E4","midi":64,"time":39.0475799999999,"velocity":0.7874015748031497,"duration":0.11408718749999736},{"name":"C5","midi":72,"time":39.0475799999999,"velocity":0.7874015748031497,"duration":0.11408718749999736},{"name":"F#4","midi":66,"time":70.4761199999999,"velocity":0.7874015748031497,"duration":0.11408718750000446},{"name":"G#4","midi":68,"time":70.7142149999999,"velocity":0.7874015748031497,"duration":0.11408718750000446},{"name":"A#4","midi":70,"time":70.8332624999999,"velocity":0.7874015748031497,"duration":0.11408718750000446},{"name":"G#4","midi":68,"time":71.0713574999999,"velocity":0.7874015748031497,"duration":0.11408718750000446},{"name":"F#4","midi":66,"time":71.19040499999991,"velocity":0.7874015748031497,"duration":0.11408718750000446},{"name":"B4","midi":71,"time":71.42849999999991,"velocity":0.7874015748031497,"duration":0.11408718750000446},{"name":"C#5","midi":73,"time":71.66659499999992,"velocity":0.7874015748031497,"duration":0.11408718750000446},{"name":"D#5","midi":75,"time":71.78564249999992,"velocity":0.7874015748031497,"duration":0.11408718750000446},{"name":"C#5","midi":73,"time":72.02373749999992,"velocity":0.7874015748031497,"duration":0.11408718750000446},{"name":"B4","midi":71,"time":72.14278499999993,"velocity":0.7874015748031497,"duration":0.11408718750000446},{"name":"F4","midi":65,"time":72.38087999999993,"velocity":0.7874015748031497,"duration":0.11408718750000446},{"name":"G4","midi":67,"time":72.61897499999993,"velocity":0.7874015748031497,"duration":0.11408718750000446},{"name":"A4","midi":69,"time":72.73802249999994,"velocity":0.7874015748031497,"duration":0.11408718750000446},{"name":"G4","midi":67,"time":72.97611749999994,"velocity":0.7874015748031497,"duration":0.11408718750000446},{"name":"F4","midi":65,"time":73.09516499999995,"velocity":0.7874015748031497,"duration":0.11408718750000446},{"name":"A#4","midi":70,"time":73.33325999999995,"velocity":0.7874015748031497,"duration":0.11408718750000446},{"name":"C5","midi":72,"time":73.57135499999995,"velocity":0.7874015748031497,"duration":0.11408718750000446},{"name":"D5","midi":74,"time":73.69040249999996,"velocity":0.7874015748031497,"duration":0.11408718750000446},{"name":"C5","midi":72,"time":73.92849749999996,"velocity":0.7874015748031497,"duration":0.11408718750000446},{"name":"A#4","midi":70,"time":74.04754499999997,"velocity":0.7874015748031497,"duration":0.11408718750000446},{"name":"D#4","midi":63,"time":74.28563999999997,"velocity":0.7874015748031497,"duration":0.11408718750000446},{"name":"F4","midi":65,"time":74.52373499999997,"velocity":0.7874015748031497,"duration":0.11408718750000446},{"name":"G4","midi":67,"time":74.64278249999998,"velocity":0.7874015748031497,"duration":0.11408718750000446},{"name":"F4","midi":65,"time":74.88087749999998,"velocity":0.7874015748031497,"duration":0.11408718750000446},{"name":"D#4","midi":63,"time":74.99992499999999,"velocity":0.7874015748031497,"duration":0.11408718750000446},{"name":"G#4","midi":68,"time":75.23801999999999,"velocity":0.7874015748031497,"duration":0.11408718750000446},{"name":"A#4","midi":70,"time":75.476115,"velocity":0.7874015748031497,"duration":0.11408718750000446},{"name":"C5","midi":72,"time":75.5951625,"velocity":0.7874015748031497,"duration":0.11408718750000446},{"name":"A#4","midi":70,"time":75.8332575,"velocity":0.7874015748031497,"duration":0.11408718750000446},{"name":"G#4","midi":68,"time":75.95230500000001,"velocity":0.7874015748031497,"duration":0.11408718750000446},{"name":"G4","midi":67,"time":76.19040000000001,"velocity":0.7874015748031497,"duration":0.11408718750000446},{"name":"F#4","midi":66,"time":76.42849500000001,"velocity":0.7874015748031497,"duration":0.11408718750000446},{"name":"G4","midi":67,"time":76.54754250000002,"velocity":0.7874015748031497,"duration":0.11408718750000446},{"name":"A4","midi":69,"time":76.78563750000002,"velocity":0.7874015748031497,"duration":0.11408718750000446},{"name":"B4","midi":71,"time":76.90468500000003,"velocity":0.7874015748031497,"duration":0.11408718750000446},{"name":"B4","midi":71,"time":77.14278000000003,"velocity":0.7874015748031497,"duration":0.11408718750000446},{"name":"A#4","midi":70,"time":77.38087500000003,"velocity":0.7874015748031497,"duration":0.11408718750000446},{"name":"B4","midi":71,"time":77.49992250000004,"velocity":0.7874015748031497,"duration":0.11408718750000446},{"name":"C5","midi":72,"time":77.73801750000004,"velocity":0.7874015748031497,"duration":0.11408718750000446},{"name":"D5","midi":74,"time":77.85706500000005,"velocity":0.7874015748031497,"duration":0.11408718750000446},{"name":"C5","midi":72,"time":78.09516000000005,"velocity":0.7874015748031497,"duration":0.11408718750000446}],"controlChanges":{"7":[{"number":7,"time":0,"value":0.7874015748031497}],"10":[{"number":10,"time":0,"value":0.5039370078740157}],"91":[{"number":91,"time":0,"value":0.33070866141732286}],"93":[{"number":93,"time":0,"value":0.33070866141732286}]},"id":3,"name":"Steel Drums","instrumentNumber":114,"instrument":"steel drums","instrumentFamily":"percussive","channelNumber":2,"isPercussion":false},{"startTime":17.14284,"duration":232.28647406250212,"length":781,"notes":[{"name":"F#5","midi":78,"time":17.14284,"velocity":0.7874015748031497,"duration":0.1438490624999993},{"name":"G#5","midi":80,"time":17.380934999999997,"velocity":0.7874015748031497,"duration":0.11408718750000091},{"name":"A#5","midi":82,"time":17.499982499999998,"velocity":0.7874015748031497,"duration":0.17361093750000123},{"name":"G#5","midi":80,"time":17.7380775,"velocity":0.7874015748031497,"duration":0.11408718750000091},{"name":"F#5","midi":78,"time":17.857125,"velocity":0.7874015748031497,"duration":0.17361093750000123},{"name":"B5","midi":83,"time":18.09522,"velocity":0.7874015748031497,"duration":0.1438490624999993},{"name":"C#6","midi":85,"time":18.333315,"velocity":0.7874015748031497,"duration":0.11408718750000091},{"name":"D#6","midi":87,"time":18.4523625,"velocity":0.7874015748031497,"duration":0.17361093750000123},{"name":"C#6","midi":85,"time":18.6904575,"velocity":0.7874015748031497,"duration":0.11408718750000091},{"name":"B5","midi":83,"time":18.809505,"velocity":0.7874015748031497,"duration":0.17361093750000123},{"name":"F5","midi":77,"time":19.047600000000003,"velocity":0.7874015748031497,"duration":0.1438490624999993},{"name":"G5","midi":79,"time":19.285695,"velocity":0.7874015748031497,"duration":0.11408718750000091},{"name":"A5","midi":81,"time":19.4047425,"velocity":0.7874015748031497,"duration":0.17361093750000123},{"name":"G5","midi":79,"time":19.642837500000002,"velocity":0.7874015748031497,"duration":0.11408718750000091},{"name":"F5","midi":77,"time":19.761885000000003,"velocity":0.7874015748031497,"duration":0.17361093750000123},{"name":"A#5","midi":82,"time":19.999980000000004,"velocity":0.7874015748031497,"duration":0.1438490624999993},{"name":"C6","midi":84,"time":20.238075000000002,"velocity":0.7874015748031497,"duration":0.11408718750000091},{"name":"D6","midi":86,"time":20.357122500000003,"velocity":0.7874015748031497,"duration":0.17361093750000123},{"name":"C6","midi":84,"time":20.595217500000004,"velocity":0.7874015748031497,"duration":0.11408718750000091},{"name":"A#5","midi":82,"time":20.714265000000005,"velocity":0.7874015748031497,"duration":0.17361093750000123},{"name":"D#5","midi":75,"time":20.952360000000006,"velocity":0.7874015748031497,"duration":0.1438490624999993},{"name":"F5","midi":77,"time":21.190455000000004,"velocity":0.7874015748031497,"duration":0.11408718750000091},{"name":"G5","midi":79,"time":21.309502500000004,"velocity":0.7874015748031497,"duration":0.17361093750000123},{"name":"F5","midi":77,"time":21.547597500000006,"velocity":0.7874015748031497,"duration":0.11408718750000091},{"name":"D#5","midi":75,"time":21.666645000000006,"velocity":0.7874015748031497,"duration":0.17361093750000123},{"name":"G#5","midi":80,"time":21.904740000000007,"velocity":0.7874015748031497,"duration":0.1438490624999993},{"name":"A#5","midi":82,"time":22.142835000000005,"velocity":0.7874015748031497,"duration":0.11408718750000091},{"name":"C6","midi":84,"time":22.261882500000006,"velocity":0.7874015748031497,"duration":0.17361093750000123},{"name":"A#5","midi":82,"time":22.499977500000007,"velocity":0.7874015748031497,"duration":0.11408718750000091},{"name":"G#5","midi":80,"time":22.619025000000008,"velocity":0.7874015748031497,"duration":0.17361093750000123},{"name":"G5","midi":79,"time":22.85712000000001,"velocity":0.7874015748031497,"duration":0.1438490624999993},{"name":"F#5","midi":78,"time":23.095215000000007,"velocity":0.7874015748031497,"duration":0.11408718750000091},{"name":"G5","midi":79,"time":23.214262500000007,"velocity":0.7874015748031497,"duration":0.17361093750000123},{"name":"A5","midi":81,"time":23.45235750000001,"velocity":0.7874015748031497,"duration":0.11408718750000091},{"name":"B5","midi":83,"time":23.57140500000001,"velocity":0.7874015748031497,"duration":0.17361093750000123},{"name":"B5","midi":83,"time":23.80950000000001,"velocity":0.7874015748031497,"duration":0.1438490624999993},{"name":"A#5","midi":82,"time":24.04759500000001,"velocity":0.7874015748031497,"duration":0.11408718750000091},{"name":"B5","midi":83,"time":24.16664250000001,"velocity":0.7874015748031497,"duration":0.1438490624999993},{"name":"C6","midi":84,"time":24.404737500000007,"velocity":0.7874015748031497,"duration":0.11408718750000091},{"name":"D6","midi":86,"time":24.523785000000007,"velocity":0.7874015748031497,"duration":0.17361093750000123},{"name":"C6","midi":84,"time":24.76188000000001,"velocity":0.7874015748031497,"duration":0.2876981249999986},{"name":"F#5","midi":78,"time":55.23804000000001,"velocity":0.7874015748031497,"duration":0.2876981249999986},{"name":"G#5","midi":80,"time":55.595182500000014,"velocity":0.7874015748031497,"duration":0.11408718749999736},{"name":"A#5","midi":82,"time":55.714230000000015,"velocity":0.7874015748031497,"duration":0.14384906250000284},{"name":"G#5","midi":80,"time":55.952325000000016,"velocity":0.7874015748031497,"duration":0.14384906250000284},{"name":"F#5","midi":78,"time":56.19042000000002,"velocity":0.7874015748031497,"duration":0.11408718749999736},{"name":"F5","midi":77,"time":56.30946750000002,"velocity":0.7874015748031497,"duration":0.11408718749999736},{"name":"F#5","midi":78,"time":56.42851500000002,"velocity":0.7874015748031497,"duration":0.11408718749999736},{"name":"F5","midi":77,"time":56.54756250000002,"velocity":0.7874015748031497,"duration":0.11408718749999736},{"name":"F#5","midi":78,"time":56.66661000000002,"velocity":0.7874015748031497,"duration":0.14384906250000284},{"name":"C#5","midi":73,"time":56.90470500000002,"velocity":0.7874015748031497,"duration":0.17361093750000123},{"name":"D5","midi":74,"time":57.14280000000002,"velocity":0.7874015748031497,"duration":0.2876981249999986},{"name":"E5","midi":76,"time":57.499942500000024,"velocity":0.7874015748031497,"duration":0.11408718749999736},{"name":"F#5","midi":78,"time":57.618990000000025,"velocity":0.7874015748031497,"duration":0.14384906250000284},{"name":"E5","midi":76,"time":57.857085000000026,"velocity":0.7874015748031497,"duration":0.11408718749999736},{"name":"D5","midi":74,"time":57.97613250000003,"velocity":0.7874015748031497,"duration":0.11408718749999736},{"name":"C#5","midi":73,"time":58.09518000000003,"velocity":0.7874015748031497,"duration":0.7638881250000011},{"name":"B4","midi":71,"time":59.047560000000026,"velocity":0.7874015748031497,"duration":0.2876981249999986},{"name":"C#5","midi":73,"time":59.40470250000003,"velocity":0.7874015748031497,"duration":0.11408718749999736},{"name":"D#5","midi":75,"time":59.52375000000003,"velocity":0.7874015748031497,"duration":0.14384906250000284},{"name":"C#5","midi":73,"time":59.76184500000003,"velocity":0.7874015748031497,"duration":0.11408718749999736},{"name":"B4","midi":71,"time":59.88089250000003,"velocity":0.7874015748031497,"duration":0.11408718749999736},{"name":"C#5","midi":73,"time":59.99994000000003,"velocity":0.7874015748031497,"duration":0.233134687499998},{"name":"F#5","midi":78,"time":60.23803500000003,"velocity":0.7874015748031497,"duration":0.14384906250000284},{"name":"F#4","midi":66,"time":60.47613000000003,"velocity":0.7874015748031497,"duration":0.35218218749999863},{"name":"G#4","midi":68,"time":60.95232000000003,"velocity":0.7874015748031497,"duration":0.2876981249999986},{"name":"G#4","midi":68,"time":61.30946250000003,"velocity":0.7874015748031497,"duration":0.11408718749999736},{"name":"G#4","midi":68,"time":61.42851000000003,"velocity":0.7874015748031497,"duration":0.17361093750000123},{"name":"G4","midi":67,"time":61.66660500000003,"velocity":0.7874015748031497,"duration":0.11408718749999736},{"name":"G#4","midi":68,"time":61.78565250000003,"velocity":0.7874015748031497,"duration":0.11408718749999736},{"name":"C#5","midi":73,"time":61.904700000000034,"velocity":0.7874015748031497,"duration":0.7638881250000011},{"name":"F#5","midi":78,"time":62.85708000000003,"velocity":0.7874015748031497,"duration":0.2876981249999986},{"name":"G#5","midi":80,"time":63.214222500000034,"velocity":0.7874015748031497,"duration":0.11408718749999736},{"name":"A#5","midi":82,"time":63.333270000000034,"velocity":0.7874015748031497,"duration":0.14384906250000284},{"name":"G#5","midi":80,"time":63.571365000000036,"velocity":0.7874015748031497,"duration":0.14384906250000284},{"name":"F#5","midi":78,"time":63.80946000000004,"velocity":0.7874015748031497,"duration":0.11408718749999736},{"name":"F5","midi":77,"time":63.92850750000004,"velocity":0.7874015748031497,"duration":0.11408718750000446},{"name":"F#5","midi":78,"time":64.04755500000005,"velocity":0.7874015748031497,"duration":0.11408718750000446},{"name":"F5","midi":77,"time":64.16660250000005,"velocity":0.7874015748031497,"duration":0.11408718750000446},{"name":"F#5","midi":78,"time":64.28565000000006,"velocity":0.7874015748031497,"duration":0.14384906249999574},{"name":"C#5","midi":73,"time":64.52374500000006,"velocity":0.7874015748031497,"duration":0.17361093750000123},{"name":"D5","midi":74,"time":64.76184000000006,"velocity":0.7874015748031497,"duration":0.2876981250000057},{"name":"F5","midi":77,"time":65.11898250000007,"velocity":0.7874015748031497,"duration":0.11408718750000446},{"name":"G#5","midi":80,"time":65.23803000000008,"velocity":0.7874015748031497,"duration":0.233134687499998},{"name":"A#5","midi":82,"time":65.47612500000008,"velocity":0.7874015748031497,"duration":0.14384906249999574},{"name":"F#5","midi":78,"time":65.71422000000008,"velocity":0.7874015748031497,"duration":0.590277187500007},{"name":"C#5","midi":73,"time":66.42850500000009,"velocity":0.7874015748031497,"duration":0.17361093750000123},{"name":"C5","midi":72,"time":66.66660000000009,"velocity":0.7874015748031497,"duration":0.2876981250000057},{"name":"C#5","midi":73,"time":67.0237425000001,"velocity":0.7874015748031497,"duration":0.11408718750000446},{"name":"D#5","midi":75,"time":67.1427900000001,"velocity":0.7874015748031497,"duration":0.14384906249999574},{"name":"C5","midi":72,"time":67.3808850000001,"velocity":0.7874015748031497,"duration":0.17361093750000123},{"name":"D#5","midi":75,"time":67.61898000000011,"velocity":0.7874015748031497,"duration":0.17361093750000123},{"name":"C5","midi":72,"time":67.85707500000011,"velocity":0.7874015748031497,"duration":0.17361093750000123},{"name":"D#5","midi":75,"time":68.09517000000011,"velocity":0.7874015748031497,"duration":0.17361093750000123},{"name":"G#5","midi":80,"time":68.33326500000011,"velocity":0.7874015748031497,"duration":0.17361093750000123},{"name":"C#5","midi":73,"time":68.57136000000011,"velocity":0.7874015748031497,"duration":0.2876981250000057},{"name":"D#5","midi":75,"time":68.92850250000012,"velocity":0.7874015748031497,"duration":0.11408718750000446},{"name":"F5","midi":77,"time":69.04755000000013,"velocity":0.7874015748031497,"duration":0.17361093750000123},{"name":"C#5","midi":73,"time":69.28564500000013,"velocity":0.7874015748031497,"duration":0.17361093750000123},{"name":"B5","midi":83,"time":69.52374000000013,"velocity":0.7874015748031497,"duration":0.17361093750000123},{"name":"B5","midi":83,"time":69.76183500000013,"velocity":0.7874015748031497,"duration":0.17361093750000123},{"name":"A#5","midi":82,"time":69.99993000000013,"velocity":0.7874015748031497,"duration":0.17361093750000123},{"name":"G#5","midi":80,"time":70.23802500000014,"velocity":0.7874015748031497,"duration":0.17361093750000123},{"name":"F#5","midi":78,"time":70.47612000000014,"velocity":0.7874015748031497,"duration":0.17361093750000123},{"name":"F#5","midi":78,"time":108.57132000000014,"velocity":0.7874015748031497,"duration":0.14384906249999574},{"name":"G#5","midi":80,"time":108.80941500000014,"velocity":0.7874015748031497,"duration":0.11408718750000446},{"name":"A#5","midi":82,"time":108.92846250000015,"velocity":0.7874015748031497,"duration":0.17361093750000123},{"name":"G#5","midi":80,"time":109.16655750000015,"velocity":0.7874015748031497,"duration":0.11408718750000446},{"name":"F#5","midi":78,"time":109.28560500000016,"velocity":0.7874015748031497,"duration":0.17361093750000123},{"name":"B5","midi":83,"time":109.52370000000016,"velocity":0.7874015748031497,"duration":0.14384906249999574},{"name":"C#6","midi":85,"time":109.76179500000016,"velocity":0.7874015748031497,"duration":0.11408718750000446},{"name":"D#6","midi":87,"time":109.88084250000017,"velocity":0.7874015748031497,"duration":0.17361093750000123},{"name":"C#6","midi":85,"time":110.11893750000017,"velocity":0.7874015748031497,"duration":0.11408718750000446},{"name":"B5","midi":83,"time":110.23798500000018,"velocity":0.7874015748031497,"duration":0.17361093750000123},{"name":"F5","midi":77,"time":110.47608000000018,"velocity":0.7874015748031497,"duration":0.14384906249999574},{"name":"G5","midi":79,"time":110.71417500000018,"velocity":0.7874015748031497,"duration":0.11408718750000446},{"name":"A5","midi":81,"time":110.83322250000019,"velocity":0.7874015748031497,"duration":0.17361093750000123},{"name":"G5","midi":79,"time":111.07131750000019,"velocity":0.7874015748031497,"duration":0.11408718750000446},{"name":"F5","midi":77,"time":111.1903650000002,"velocity":0.7874015748031497,"duration":0.17361093750000123},{"name":"A#5","midi":82,"time":111.4284600000002,"velocity":0.7874015748031497,"duration":0.14384906249999574},{"name":"C6","midi":84,"time":111.6665550000002,"velocity":0.7874015748031497,"duration":0.11408718750000446},{"name":"D6","midi":86,"time":111.78560250000021,"velocity":0.7874015748031497,"duration":0.17361093750000123},{"name":"C6","midi":84,"time":112.02369750000021,"velocity":0.7874015748031497,"duration":0.11408718750000446},{"name":"A#5","midi":82,"time":112.14274500000022,"velocity":0.7874015748031497,"duration":0.17361093750000123},{"name":"D#5","midi":75,"time":112.38084000000022,"velocity":0.7874015748031497,"duration":0.14384906249999574},{"name":"F5","midi":77,"time":112.61893500000022,"velocity":0.7874015748031497,"duration":0.11408718750000446},{"name":"G5","midi":79,"time":112.73798250000023,"velocity":0.7874015748031497,"duration":0.17361093750000123},{"name":"F5","midi":77,"time":112.97607750000023,"velocity":0.7874015748031497,"duration":0.11408718750000446},{"name":"D#5","midi":75,"time":113.09512500000024,"velocity":0.7874015748031497,"duration":0.17361093750000123},{"name":"G#5","midi":80,"time":113.33322000000024,"velocity":0.7874015748031497,"duration":0.14384906249999574},{"name":"A#5","midi":82,"time":113.57131500000024,"velocity":0.7874015748031497,"duration":0.11408718750000446},{"name":"C6","midi":84,"time":113.69036250000025,"velocity":0.7874015748031497,"duration":0.17361093750000123},{"name":"A#5","midi":82,"time":113.92845750000025,"velocity":0.7874015748031497,"duration":0.11408718750000446},{"name":"G#5","midi":80,"time":114.04750500000026,"velocity":0.7874015748031497,"duration":0.17361093750000123},{"name":"G5","midi":79,"time":114.28560000000026,"velocity":0.7874015748031497,"duration":0.14384906249999574},{"name":"F#5","midi":78,"time":114.52369500000026,"velocity":0.7874015748031497,"duration":0.11408718750000446},{"name":"G5","midi":79,"time":114.64274250000027,"velocity":0.7874015748031497,"duration":0.17361093750000123},{"name":"A5","midi":81,"time":114.88083750000027,"velocity":0.7874015748031497,"duration":0.11408718750000446},{"name":"B5","midi":83,"time":114.99988500000028,"velocity":0.7874015748031497,"duration":0.17361093750000123},{"name":"B5","midi":83,"time":115.23798000000028,"velocity":0.7874015748031497,"duration":0.14384906249999574},{"name":"A#5","midi":82,"time":115.47607500000028,"velocity":0.7874015748031497,"duration":0.11408718750000446},{"name":"B5","midi":83,"time":115.59512250000029,"velocity":0.7874015748031497,"duration":0.14384906249999574},{"name":"C6","midi":84,"time":115.83321750000029,"velocity":0.7874015748031497,"duration":0.11408718750000446},{"name":"D6","midi":86,"time":115.9522650000003,"velocity":0.7874015748031497,"duration":0.17361093750000123},{"name":"C6","midi":84,"time":116.1903600000003,"velocity":0.7874015748031497,"duration":0.2876981250000057},{"name":"C5","midi":72,"time":118.09512000000029,"velocity":0.7874015748031497,"duration":0.14384906249999574},{"name":"E5","midi":76,"time":118.3332150000003,"velocity":0.7874015748031497,"duration":0.11408718750000446},{"name":"G5","midi":79,"time":118.4522625000003,"velocity":0.7874015748031497,"duration":0.14384906249999574},{"name":"E5","midi":76,"time":118.6903575000003,"velocity":0.7874015748031497,"duration":0.11408718750000446},{"name":"G5","midi":79,"time":118.80940500000031,"velocity":0.7874015748031497,"duration":0.14384906249999574},{"name":"A5","midi":81,"time":119.04750000000031,"velocity":0.7874015748031497,"duration":0.14384906249999574},{"name":"G5","midi":79,"time":119.28559500000031,"velocity":0.7874015748031497,"duration":0.11408718750000446},{"name":"E5","midi":76,"time":119.40464250000032,"velocity":0.7874015748031497,"duration":0.11408718750000446},{"name":"G5","midi":79,"time":119.52369000000033,"velocity":0.7874015748031497,"duration":0.14384906249999574},{"name":"A5","midi":81,"time":119.76178500000033,"velocity":0.7874015748031497,"duration":0.14384906249999574},{"name":"G#5","midi":80,"time":119.99988000000033,"velocity":0.7874015748031497,"duration":0.14384906249999574},{"name":"A#5","midi":82,"time":120.23797500000033,"velocity":0.7874015748031497,"duration":0.11408718750000446},{"name":"C6","midi":84,"time":120.35702250000034,"velocity":0.7874015748031497,"duration":0.14384906249999574},{"name":"A#5","midi":82,"time":120.59511750000034,"velocity":0.7874015748031497,"duration":0.11408718750000446},{"name":"G#5","midi":80,"time":120.71416500000035,"velocity":0.7874015748031497,"duration":0.14384906249999574},{"name":"G5","midi":79,"time":120.95226000000035,"velocity":0.7874015748031497,"duration":0.14384906249999574},{"name":"E5","midi":76,"time":121.19035500000035,"velocity":0.7874015748031497,"duration":0.233134687499998},{"name":"E5","midi":76,"time":121.66654500000035,"velocity":0.7874015748031497,"duration":0.14384906249999574},{"name":"C5","midi":72,"time":121.90464000000036,"velocity":0.7874015748031497,"duration":0.14384906249999574},{"name":"E5","midi":76,"time":122.14273500000036,"velocity":0.7874015748031497,"duration":0.11408718750000446},{"name":"G5","midi":79,"time":122.26178250000036,"velocity":0.7874015748031497,"duration":0.14384906249999574},{"name":"E5","midi":76,"time":122.49987750000037,"velocity":0.7874015748031497,"duration":0.11408718750000446},{"name":"G5","midi":79,"time":122.61892500000037,"velocity":0.7874015748031497,"duration":0.14384906249999574},{"name":"A5","midi":81,"time":122.85702000000038,"velocity":0.7874015748031497,"duration":0.14384906249999574},{"name":"G5","midi":79,"time":123.09511500000038,"velocity":0.7874015748031497,"duration":0.11408718750000446},{"name":"E5","midi":76,"time":123.21416250000038,"velocity":0.7874015748031497,"duration":0.11408718750000446},{"name":"G5","midi":79,"time":123.33321000000039,"velocity":0.7874015748031497,"duration":0.14384906249999574},{"name":"A5","midi":81,"time":123.5713050000004,"velocity":0.7874015748031497,"duration":0.14384906249999574},{"name":"G#5","midi":80,"time":123.8094000000004,"velocity":0.7874015748031497,"duration":0.14384906249999574},{"name":"A#5","midi":82,"time":124.0474950000004,"velocity":0.7874015748031497,"duration":0.11408718750000446},{"name":"C6","midi":84,"time":124.1665425000004,"velocity":0.7874015748031497,"duration":0.14384906249999574},{"name":"A#5","midi":82,"time":124.4046375000004,"velocity":0.7874015748031497,"duration":0.11408718750000446},{"name":"G#5","midi":80,"time":124.52368500000041,"velocity":0.7874015748031497,"duration":0.14384906249999574},{"name":"D#6","midi":87,"time":124.76178000000041,"velocity":0.7874015748031497,"duration":0.024801562500002206},{"name":"E6","midi":88,"time":124.79154187500042,"velocity":0.7874015748031497,"duration":0.14384906249999574},{"name":"C6","midi":84,"time":124.99987500000042,"velocity":0.7874015748031497,"duration":0.233134687499998},{"name":"C5","midi":72,"time":125.71416000000042,"velocity":0.7874015748031497,"duration":0.14384906249999574},{"name":"E5","midi":76,"time":125.95225500000042,"velocity":0.7874015748031497,"duration":0.11408718750000446},{"name":"G5","midi":79,"time":126.07130250000043,"velocity":0.7874015748031497,"duration":0.14384906249999574},{"name":"E5","midi":76,"time":126.30939750000043,"velocity":0.7874015748031497,"duration":0.11408718750000446},{"name":"G5","midi":79,"time":126.42844500000044,"velocity":0.7874015748031497,"duration":0.14384906249999574},{"name":"A5","midi":81,"time":126.66654000000044,"velocity":0.7874015748031497,"duration":0.14384906249999574},{"name":"G5","midi":79,"time":126.90463500000044,"velocity":0.7874015748031497,"duration":0.11408718750000446},{"name":"E5","midi":76,"time":127.02368250000045,"velocity":0.7874015748031497,"duration":0.11408718750000446},{"name":"G5","midi":79,"time":127.14273000000045,"velocity":0.7874015748031497,"duration":0.14384906249999574},{"name":"A5","midi":81,"time":127.38082500000046,"velocity":0.7874015748031497,"duration":0.14384906249999574},{"name":"G#5","midi":80,"time":127.61892000000046,"velocity":0.7874015748031497,"duration":0.14384906249999574},{"name":"A#5","midi":82,"time":127.85701500000046,"velocity":0.7874015748031497,"duration":0.11408718750000446},{"name":"C6","midi":84,"time":127.97606250000047,"velocity":0.7874015748031497,"duration":0.14384906250000995},{"name":"A#5","midi":82,"time":128.21415750000048,"velocity":0.7874015748031497,"duration":0.11408718749999025},{"name":"G#5","midi":80,"time":128.33320500000048,"velocity":0.7874015748031497,"duration":0.14384906250000995},{"name":"G5","midi":79,"time":128.5713000000005,"velocity":0.7874015748031497,"duration":0.14384906250000995},{"name":"E5","midi":76,"time":128.8093950000005,"velocity":0.7874015748031497,"duration":0.2331346875000122},{"name":"E5","midi":76,"time":129.2855850000005,"velocity":0.7874015748031497,"duration":0.14384906250000995},{"name":"C5","midi":72,"time":129.52368000000052,"velocity":0.7874015748031497,"duration":0.14384906250000995},{"name":"E5","midi":76,"time":129.76177500000054,"velocity":0.7874015748031497,"duration":0.11408718749999025},{"name":"G5","midi":79,"time":129.88082250000053,"velocity":0.7874015748031497,"duration":0.14384906250000995},{"name":"E5","midi":76,"time":130.11891750000055,"velocity":0.7874015748031497,"duration":0.11408718749999025},{"name":"G5","midi":79,"time":130.23796500000054,"velocity":0.7874015748031497,"duration":0.14384906250000995},{"name":"A5","midi":81,"time":130.47606000000056,"velocity":0.7874015748031497,"duration":0.14384906250000995},{"name":"G5","midi":79,"time":130.71415500000057,"velocity":0.7874015748031497,"duration":0.11408718749999025},{"name":"E5","midi":76,"time":130.83320250000057,"velocity":0.7874015748031497,"duration":0.11408718749999025},{"name":"G5","midi":79,"time":130.95225000000056,"velocity":0.7874015748031497,"duration":0.14384906250000995},{"name":"A5","midi":81,"time":131.19034500000058,"velocity":0.7874015748031497,"duration":0.14384906250000995},{"name":"G#5","midi":80,"time":131.4284400000006,"velocity":0.7874015748031497,"duration":0.14384906250000995},{"name":"A#5","midi":82,"time":131.6665350000006,"velocity":0.7874015748031497,"duration":0.11408718749999025},{"name":"B5","midi":83,"time":131.7855825000006,"velocity":0.7874015748031497,"duration":0.14384906250000995},{"name":"A5","midi":81,"time":132.02367750000062,"velocity":0.7874015748031497,"duration":0.11408718749999025},{"name":"G5","midi":79,"time":132.1427250000006,"velocity":0.7874015748031497,"duration":0.14384906250000995},{"name":"C6","midi":84,"time":132.38082000000063,"velocity":0.7874015748031497,"duration":0.2331346875000122},{"name":"F#5","midi":78,"time":133.33320000000063,"velocity":0.7874015748031497,"duration":0.11408718749999025},{"name":"G#5","midi":80,"time":133.57129500000062,"velocity":0.7874015748031497,"duration":0.11408718749999025},{"name":"A#5","midi":82,"time":133.6903425000006,"velocity":0.7874015748031497,"duration":0.14384906250000995},{"name":"G#5","midi":80,"time":133.92843750000063,"velocity":0.7874015748031497,"duration":0.11408718749999025},{"name":"F#5","midi":78,"time":134.04748500000062,"velocity":0.7874015748031497,"duration":0.14384906250000995},{"name":"B5","midi":83,"time":134.28558000000064,"velocity":0.7874015748031497,"duration":0.11408718749999025},{"name":"C#6","midi":85,"time":134.52367500000062,"velocity":0.7874015748031497,"duration":0.11408718749999025},{"name":"D#6","midi":87,"time":134.64272250000062,"velocity":0.7874015748031497,"duration":0.14384906250000995},{"name":"C#6","midi":85,"time":134.88081750000063,"velocity":0.7874015748031497,"duration":0.11408718749999025},{"name":"B5","midi":83,"time":134.99986500000063,"velocity":0.7874015748031497,"duration":0.14384906250000995},{"name":"F5","midi":77,"time":135.23796000000064,"velocity":0.7874015748031497,"duration":0.11408718749999025},{"name":"G5","midi":79,"time":135.47605500000063,"velocity":0.7874015748031497,"duration":0.11408718749999025},{"name":"A5","midi":81,"time":135.59510250000062,"velocity":0.7874015748031497,"duration":0.14384906250000995},{"name":"G5","midi":79,"time":135.83319750000064,"velocity":0.7874015748031497,"duration":0.11408718749999025},{"name":"F5","midi":77,"time":135.95224500000063,"velocity":0.7874015748031497,"duration":0.14384906250000995},{"name":"A#5","midi":82,"time":136.19034000000065,"velocity":0.7874015748031497,"duration":0.11408718749999025},{"name":"C6","midi":84,"time":136.42843500000063,"velocity":0.7874015748031497,"duration":0.11408718749999025},{"name":"D6","midi":86,"time":136.54748250000063,"velocity":0.7874015748031497,"duration":0.14384906250000995},{"name":"C6","midi":84,"time":136.78557750000064,"velocity":0.7874015748031497,"duration":0.11408718749999025},{"name":"A#5","midi":82,"time":136.90462500000064,"velocity":0.7874015748031497,"duration":0.14384906250000995},{"name":"D#5","midi":75,"time":137.14272000000065,"velocity":0.7874015748031497,"duration":0.11408718749999025},{"name":"F5","midi":77,"time":137.38081500000064,"velocity":0.7874015748031497,"duration":0.11408718749999025},{"name":"G5","midi":79,"time":137.49986250000063,"velocity":0.7874015748031497,"duration":0.14384906250000995},{"name":"F5","midi":77,"time":137.73795750000065,"velocity":0.7874015748031497,"duration":0.11408718749999025},{"name":"D#5","midi":75,"time":137.85700500000064,"velocity":0.7874015748031497,"duration":0.14384906250000995},{"name":"G#5","midi":80,"time":138.09510000000066,"velocity":0.7874015748031497,"duration":0.11408718749999025},{"name":"A#5","midi":82,"time":138.33319500000064,"velocity":0.7874015748031497,"duration":0.11408718749999025},{"name":"C6","midi":84,"time":138.45224250000064,"velocity":0.7874015748031497,"duration":0.14384906250000995},{"name":"A#5","midi":82,"time":138.69033750000065,"velocity":0.7874015748031497,"duration":0.11408718749999025},{"name":"G#5","midi":80,"time":138.80938500000065,"velocity":0.7874015748031497,"duration":0.14384906250000995},{"name":"G5","midi":79,"time":139.04748000000066,"velocity":0.7874015748031497,"duration":0.11408718749999025},{"name":"F#5","midi":78,"time":139.28557500000065,"velocity":0.7874015748031497,"duration":0.11408718749999025},{"name":"G5","midi":79,"time":139.40462250000064,"velocity":0.7874015748031497,"duration":0.14384906250000995},{"name":"A5","midi":81,"time":139.64271750000066,"velocity":0.7874015748031497,"duration":0.11408718749999025},{"name":"B5","midi":83,"time":139.76176500000065,"velocity":0.7874015748031497,"duration":0.14384906250000995},{"name":"B5","midi":83,"time":139.99986000000067,"velocity":0.7874015748031497,"duration":0.11408718749999025},{"name":"A#5","midi":82,"time":140.23795500000065,"velocity":0.7874015748031497,"duration":0.11408718749999025},{"name":"B5","midi":83,"time":140.35700250000065,"velocity":0.7874015748031497,"duration":0.14384906250000995},{"name":"C6","midi":84,"time":140.59509750000066,"velocity":0.7874015748031497,"duration":0.11408718749999025},{"name":"D6","midi":86,"time":140.71414500000066,"velocity":0.7874015748031497,"duration":0.14384906250000995},{"name":"G4","midi":67,"time":140.95224000000067,"velocity":0.7874015748031497,"duration":0.14384906250000995},{"name":"C5","midi":72,"time":140.95224000000067,"velocity":0.7874015748031497,"duration":0.14384906250000995},{"name":"C5","midi":72,"time":141.1903350000007,"velocity":0.7874015748031497,"duration":0.11408718749999025},{"name":"E5","midi":76,"time":141.1903350000007,"velocity":0.7874015748031497,"duration":0.11408718749999025},{"name":"E5","midi":76,"time":141.30938250000068,"velocity":0.7874015748031497,"duration":0.14384906250000995},{"name":"G5","midi":79,"time":141.30938250000068,"velocity":0.7874015748031497,"duration":0.14384906250000995},{"name":"C5","midi":72,"time":141.5474775000007,"velocity":0.7874015748031497,"duration":0.11408718749999025},{"name":"E5","midi":76,"time":141.5474775000007,"velocity":0.7874015748031497,"duration":0.11408718749999025},{"name":"E5","midi":76,"time":141.6665250000007,"velocity":0.7874015748031497,"duration":0.14384906250000995},{"name":"G5","midi":79,"time":141.6665250000007,"velocity":0.7874015748031497,"duration":0.14384906250000995},{"name":"E5","midi":76,"time":141.9046200000007,"velocity":0.7874015748031497,"duration":0.14384906250000995},{"name":"A5","midi":81,"time":141.9046200000007,"velocity":0.7874015748031497,"duration":0.14384906250000995},{"name":"E5","midi":76,"time":142.14271500000072,"velocity":0.7874015748031497,"duration":0.11408718749999025},{"name":"G5","midi":79,"time":142.14271500000072,"velocity":0.7874015748031497,"duration":0.11408718749999025},{"name":"C5","midi":72,"time":142.2617625000007,"velocity":0.7874015748031497,"duration":0.11408718749999025},{"name":"E5","midi":76,"time":142.2617625000007,"velocity":0.7874015748031497,"duration":0.11408718749999025},{"name":"E5","midi":76,"time":142.3808100000007,"velocity":0.7874015748031497,"duration":0.14384906250000995},{"name":"G5","midi":79,"time":142.3808100000007,"velocity":0.7874015748031497,"duration":0.14384906250000995},{"name":"E5","midi":76,"time":142.61890500000072,"velocity":0.7874015748031497,"duration":0.14384906250000995},{"name":"A5","midi":81,"time":142.61890500000072,"velocity":0.7874015748031497,"duration":0.14384906250000995},{"name":"D#5","midi":75,"time":142.85700000000074,"velocity":0.7874015748031497,"duration":0.14384906250000995},{"name":"G#5","midi":80,"time":142.85700000000074,"velocity":0.7874015748031497,"duration":0.14384906250000995},{"name":"F5","midi":77,"time":143.09509500000075,"velocity":0.7874015748031497,"duration":0.11408718749999025},{"name":"A#5","midi":82,"time":143.09509500000075,"velocity":0.7874015748031497,"duration":0.11408718749999025},{"name":"G#5","midi":80,"time":143.21414250000075,"velocity":0.7874015748031497,"duration":0.14384906250000995},{"name":"C6","midi":84,"time":143.21414250000075,"velocity":0.7874015748031497,"duration":0.14384906250000995},{"name":"F5","midi":77,"time":143.45223750000076,"velocity":0.7874015748031497,"duration":0.11408718749999025},{"name":"A#5","midi":82,"time":143.45223750000076,"velocity":0.7874015748031497,"duration":0.11408718749999025},{"name":"D#5","midi":75,"time":143.57128500000076,"velocity":0.7874015748031497,"duration":0.14384906250000995},{"name":"G#5","midi":80,"time":143.57128500000076,"velocity":0.7874015748031497,"duration":0.14384906250000995},{"name":"E5","midi":76,"time":143.80938000000077,"velocity":0.7874015748031497,"duration":0.14384906250000995},{"name":"G5","midi":79,"time":143.80938000000077,"velocity":0.7874015748031497,"duration":0.14384906250000995},{"name":"C5","midi":72,"time":144.0474750000008,"velocity":0.7874015748031497,"duration":0.2331346875000122},{"name":"E5","midi":76,"time":144.0474750000008,"velocity":0.7874015748031497,"duration":0.2331346875000122},{"name":"C5","midi":72,"time":144.5236650000008,"velocity":0.7874015748031497,"duration":0.14384906250000995},{"name":"E5","midi":76,"time":144.5236650000008,"velocity":0.7874015748031497,"duration":0.14384906250000995},{"name":"G4","midi":67,"time":144.7617600000008,"velocity":0.7874015748031497,"duration":0.14384906250000995},{"name":"C5","midi":72,"time":144.7617600000008,"velocity":0.7874015748031497,"duration":0.14384906250000995},{"name":"C5","midi":72,"time":144.99985500000082,"velocity":0.7874015748031497,"duration":0.11408718749999025},{"name":"E5","midi":76,"time":144.99985500000082,"velocity":0.7874015748031497,"duration":0.11408718749999025},{"name":"E5","midi":76,"time":145.11890250000081,"velocity":0.7874015748031497,"duration":0.14384906250000995},{"name":"G5","midi":79,"time":145.11890250000081,"velocity":0.7874015748031497,"duration":0.14384906250000995},{"name":"C5","midi":72,"time":145.35699750000083,"velocity":0.7874015748031497,"duration":0.11408718749999025},{"name":"E5","midi":76,"time":145.35699750000083,"velocity":0.7874015748031497,"duration":0.11408718749999025},{"name":"E5","midi":76,"time":145.47604500000082,"velocity":0.7874015748031497,"duration":0.14384906250000995},{"name":"G5","midi":79,"time":145.47604500000082,"velocity":0.7874015748031497,"duration":0.14384906250000995},{"name":"E5","midi":76,"time":145.71414000000084,"velocity":0.7874015748031497,"duration":0.14384906250000995},{"name":"A5","midi":81,"time":145.71414000000084,"velocity":0.7874015748031497,"duration":0.14384906250000995},{"name":"E5","midi":76,"time":145.95223500000085,"velocity":0.7874015748031497,"duration":0.11408718749999025},{"name":"G5","midi":79,"time":145.95223500000085,"velocity":0.7874015748031497,"duration":0.11408718749999025},{"name":"C5","midi":72,"time":146.07128250000085,"velocity":0.7874015748031497,"duration":0.11408718749999025},{"name":"E5","midi":76,"time":146.07128250000085,"velocity":0.7874015748031497,"duration":0.11408718749999025},{"name":"E5","midi":76,"time":146.19033000000084,"velocity":0.7874015748031497,"duration":0.14384906250000995},{"name":"G5","midi":79,"time":146.19033000000084,"velocity":0.7874015748031497,"duration":0.14384906250000995},{"name":"E5","midi":76,"time":146.42842500000086,"velocity":0.7874015748031497,"duration":0.14384906250000995},{"name":"A5","midi":81,"time":146.42842500000086,"velocity":0.7874015748031497,"duration":0.14384906250000995},{"name":"D#5","midi":75,"time":146.66652000000087,"velocity":0.7874015748031497,"duration":0.14384906250000995},{"name":"G#5","midi":80,"time":146.66652000000087,"velocity":0.7874015748031497,"duration":0.14384906250000995},{"name":"F5","midi":77,"time":146.9046150000009,"velocity":0.7874015748031497,"duration":0.11408718749999025},{"name":"A#5","midi":82,"time":146.9046150000009,"velocity":0.7874015748031497,"duration":0.11408718749999025},{"name":"G#5","midi":80,"time":147.02366250000088,"velocity":0.7874015748031497,"duration":0.14384906250000995},{"name":"C6","midi":84,"time":147.02366250000088,"velocity":0.7874015748031497,"duration":0.14384906250000995},{"name":"F5","midi":77,"time":147.2617575000009,"velocity":0.7874015748031497,"duration":0.11408718749999025},{"name":"A#5","midi":82,"time":147.2617575000009,"velocity":0.7874015748031497,"duration":0.11408718749999025},{"name":"D#5","midi":75,"time":147.3808050000009,"velocity":0.7874015748031497,"duration":0.14384906250000995},{"name":"G#5","midi":80,"time":147.3808050000009,"velocity":0.7874015748031497,"duration":0.14384906250000995},{"name":"B5","midi":83,"time":147.6189000000009,"velocity":0.7874015748031497,"duration":0.024801562499987995},{"name":"D#6","midi":87,"time":147.6189000000009,"velocity":0.7874015748031497,"duration":0.024801562499987995},{"name":"C6","midi":84,"time":147.6486618750009,"velocity":0.7874015748031497,"duration":0.14384906250000995},{"name":"E6","midi":88,"time":147.6486618750009,"velocity":0.7874015748031497,"duration":0.14384906250000995},{"name":"G5","midi":79,"time":147.8569950000009,"velocity":0.7874015748031497,"duration":0.2331346875000122},{"name":"C6","midi":84,"time":147.8569950000009,"velocity":0.7874015748031497,"duration":0.2331346875000122},{"name":"G4","midi":67,"time":148.5712800000009,"velocity":0.7874015748031497,"duration":0.14384906250000995},{"name":"C5","midi":72,"time":148.5712800000009,"velocity":0.7874015748031497,"duration":0.14384906250000995},{"name":"C5","midi":72,"time":148.80937500000093,"velocity":0.7874015748031497,"duration":0.11408718749999025},{"name":"E5","midi":76,"time":148.80937500000093,"velocity":0.7874015748031497,"duration":0.11408718749999025},{"name":"E5","midi":76,"time":148.92842250000092,"velocity":0.7874015748031497,"duration":0.14384906250000995},{"name":"G5","midi":79,"time":148.92842250000092,"velocity":0.7874015748031497,"duration":0.14384906250000995},{"name":"C5","midi":72,"time":149.16651750000094,"velocity":0.7874015748031497,"duration":0.11408718749999025},{"name":"E5","midi":76,"time":149.16651750000094,"velocity":0.7874015748031497,"duration":0.11408718749999025},{"name":"E5","midi":76,"time":149.28556500000093,"velocity":0.7874015748031497,"duration":0.14384906250000995},{"name":"G5","midi":79,"time":149.28556500000093,"velocity":0.7874015748031497,"duration":0.14384906250000995},{"name":"E5","midi":76,"time":149.52366000000094,"velocity":0.7874015748031497,"duration":0.14384906250000995},{"name":"A5","midi":81,"time":149.52366000000094,"velocity":0.7874015748031497,"duration":0.14384906250000995},{"name":"E5","midi":76,"time":149.76175500000096,"velocity":0.7874015748031497,"duration":0.11408718749999025},{"name":"G5","midi":79,"time":149.76175500000096,"velocity":0.7874015748031497,"duration":0.11408718749999025},{"name":"C5","midi":72,"time":149.88080250000095,"velocity":0.7874015748031497,"duration":0.11408718749999025},{"name":"E5","midi":76,"time":149.88080250000095,"velocity":0.7874015748031497,"duration":0.11408718749999025},{"name":"E5","midi":76,"time":149.99985000000095,"velocity":0.7874015748031497,"duration":0.14384906250000995},{"name":"G5","midi":79,"time":149.99985000000095,"velocity":0.7874015748031497,"duration":0.14384906250000995},{"name":"E5","midi":76,"time":150.23794500000096,"velocity":0.7874015748031497,"duration":0.14384906250000995},{"name":"A5","midi":81,"time":150.23794500000096,"velocity":0.7874015748031497,"duration":0.14384906250000995},{"name":"D#5","midi":75,"time":150.47604000000098,"velocity":0.7874015748031497,"duration":0.14384906250000995},{"name":"G#5","midi":80,"time":150.47604000000098,"velocity":0.7874015748031497,"duration":0.14384906250000995},{"name":"F5","midi":77,"time":150.714135000001,"velocity":0.7874015748031497,"duration":0.11408718749999025},{"name":"A#5","midi":82,"time":150.714135000001,"velocity":0.7874015748031497,"duration":0.11408718749999025},{"name":"G#5","midi":80,"time":150.833182500001,"velocity":0.7874015748031497,"duration":0.14384906250000995},{"name":"C6","midi":84,"time":150.833182500001,"velocity":0.7874015748031497,"duration":0.14384906250000995},{"name":"F5","midi":77,"time":151.071277500001,"velocity":0.7874015748031497,"duration":0.11408718749999025},{"name":"A#5","midi":82,"time":151.071277500001,"velocity":0.7874015748031497,"duration":0.11408718749999025},{"name":"D#5","midi":75,"time":151.190325000001,"velocity":0.7874015748031497,"duration":0.14384906250000995},{"name":"G#5","midi":80,"time":151.190325000001,"velocity":0.7874015748031497,"duration":0.14384906250000995},{"name":"E5","midi":76,"time":151.428420000001,"velocity":0.7874015748031497,"duration":0.14384906250000995},{"name":"G5","midi":79,"time":151.428420000001,"velocity":0.7874015748031497,"duration":0.14384906250000995},{"name":"C5","midi":72,"time":151.66651500000103,"velocity":0.7874015748031497,"duration":0.2331346875000122},{"name":"E5","midi":76,"time":151.66651500000103,"velocity":0.7874015748031497,"duration":0.2331346875000122},{"name":"C5","midi":72,"time":152.14270500000103,"velocity":0.7874015748031497,"duration":0.14384906250000995},{"name":"E5","midi":76,"time":152.14270500000103,"velocity":0.7874015748031497,"duration":0.14384906250000995},{"name":"G4","midi":67,"time":152.38080000000105,"velocity":0.7874015748031497,"duration":0.14384906250000995},{"name":"C5","midi":72,"time":152.38080000000105,"velocity":0.7874015748031497,"duration":0.14384906250000995},{"name":"C5","midi":72,"time":152.61889500000106,"velocity":0.7874015748031497,"duration":0.11408718749999025},{"name":"E5","midi":76,"time":152.61889500000106,"velocity":0.7874015748031497,"duration":0.11408718749999025},{"name":"E5","midi":76,"time":152.73794250000105,"velocity":0.7874015748031497,"duration":0.14384906250000995},{"name":"G5","midi":79,"time":152.73794250000105,"velocity":0.7874015748031497,"duration":0.14384906250000995},{"name":"C5","midi":72,"time":152.97603750000107,"velocity":0.7874015748031497,"duration":0.11408718749999025},{"name":"E5","midi":76,"time":152.97603750000107,"velocity":0.7874015748031497,"duration":0.11408718749999025},{"name":"E5","midi":76,"time":153.09508500000106,"velocity":0.7874015748031497,"duration":0.14384906250000995},{"name":"G5","midi":79,"time":153.09508500000106,"velocity":0.7874015748031497,"duration":0.14384906250000995},{"name":"E5","midi":76,"time":153.33318000000108,"velocity":0.7874015748031497,"duration":0.14384906250000995},{"name":"A5","midi":81,"time":153.33318000000108,"velocity":0.7874015748031497,"duration":0.14384906250000995},{"name":"E5","midi":76,"time":153.5712750000011,"velocity":0.7874015748031497,"duration":0.11408718749999025},{"name":"G5","midi":79,"time":153.5712750000011,"velocity":0.7874015748031497,"duration":0.11408718749999025},{"name":"C5","midi":72,"time":153.6903225000011,"velocity":0.7874015748031497,"duration":0.11408718749999025},{"name":"E5","midi":76,"time":153.6903225000011,"velocity":0.7874015748031497,"duration":0.11408718749999025},{"name":"E5","midi":76,"time":153.80937000000108,"velocity":0.7874015748031497,"duration":0.14384906250000995},{"name":"G5","midi":79,"time":153.80937000000108,"velocity":0.7874015748031497,"duration":0.14384906250000995},{"name":"E5","midi":76,"time":154.0474650000011,"velocity":0.7874015748031497,"duration":0.14384906250000995},{"name":"A5","midi":81,"time":154.0474650000011,"velocity":0.7874015748031497,"duration":0.14384906250000995},{"name":"F5","midi":77,"time":154.2855600000011,"velocity":0.7874015748031497,"duration":0.14384906250000995},{"name":"G#5","midi":80,"time":154.2855600000011,"velocity":0.7874015748031497,"duration":0.14384906250000995},{"name":"F#5","midi":78,"time":154.52365500000113,"velocity":0.7874015748031497,"duration":0.11408718749999025},{"name":"A#5","midi":82,"time":154.52365500000113,"velocity":0.7874015748031497,"duration":0.11408718749999025},{"name":"G5","midi":79,"time":154.64270250000112,"velocity":0.7874015748031497,"duration":0.14384906250000995},{"name":"B5","midi":83,"time":154.64270250000112,"velocity":0.7874015748031497,"duration":0.14384906250000995},{"name":"G5","midi":79,"time":154.88079750000114,"velocity":0.7874015748031497,"duration":0.11408718749999025},{"name":"A5","midi":81,"time":154.88079750000114,"velocity":0.7874015748031497,"duration":0.11408718749999025},{"name":"F5","midi":77,"time":154.99984500000113,"velocity":0.7874015748031497,"duration":0.14384906250000995},{"name":"G5","midi":79,"time":154.99984500000113,"velocity":0.7874015748031497,"duration":0.14384906250000995},{"name":"E5","midi":76,"time":155.23794000000115,"velocity":0.7874015748031497,"duration":0.2331346875000122},{"name":"C6","midi":84,"time":155.23794000000115,"velocity":0.7874015748031497,"duration":0.2331346875000122},{"name":"F#5","midi":78,"time":156.19032000000115,"velocity":0.7874015748031497,"duration":0.2876981249999915},{"name":"G#5","midi":80,"time":156.54746250000113,"velocity":0.7874015748031497,"duration":0.11408718749999025},{"name":"A#5","midi":82,"time":156.66651000000113,"velocity":0.7874015748031497,"duration":0.14384906250000995},{"name":"G#5","midi":80,"time":156.90460500000114,"velocity":0.7874015748031497,"duration":0.14384906250000995},{"name":"F#5","midi":78,"time":157.14270000000116,"velocity":0.7874015748031497,"duration":0.11408718749999025},{"name":"F5","midi":77,"time":157.26174750000115,"velocity":0.7874015748031497,"duration":0.11408718749999025},{"name":"F#5","midi":78,"time":157.38079500000114,"velocity":0.7874015748031497,"duration":0.11408718749999025},{"name":"F5","midi":77,"time":157.49984250000114,"velocity":0.7874015748031497,"duration":0.11408718749999025},{"name":"F#5","midi":78,"time":157.61889000000113,"velocity":0.7874015748031497,"duration":0.14384906250000995},{"name":"C#5","midi":73,"time":157.85698500000115,"velocity":0.7874015748031497,"duration":0.14384906250000995},{"name":"D5","midi":74,"time":158.09508000000116,"velocity":0.7874015748031497,"duration":0.2876981249999915},{"name":"E5","midi":76,"time":158.45222250000114,"velocity":0.7874015748031497,"duration":0.11408718749999025},{"name":"F#5","midi":78,"time":158.57127000000114,"velocity":0.7874015748031497,"duration":0.14384906250000995},{"name":"E5","midi":76,"time":158.80936500000115,"velocity":0.7874015748031497,"duration":0.11408718749999025},{"name":"D5","midi":74,"time":158.92841250000114,"velocity":0.7874015748031497,"duration":0.11408718749999025},{"name":"C#5","midi":73,"time":159.04746000000114,"velocity":0.7874015748031497,"duration":0.763888124999994},{"name":"B4","midi":71,"time":159.99984000000114,"velocity":0.7874015748031497,"duration":0.2876981249999915},{"name":"C#5","midi":73,"time":160.35698250000112,"velocity":0.7874015748031497,"duration":0.11408718749999025},{"name":"D#5","midi":75,"time":160.47603000000112,"velocity":0.7874015748031497,"duration":0.14384906250000995},{"name":"C#5","midi":73,"time":160.71412500000113,"velocity":0.7874015748031497,"duration":0.11408718749999025},{"name":"B4","midi":71,"time":160.83317250000113,"velocity":0.7874015748031497,"duration":0.11408718749999025},{"name":"C#5","midi":73,"time":160.95222000000112,"velocity":0.7874015748031497,"duration":0.2331346875000122},{"name":"F#5","midi":78,"time":161.19031500000114,"velocity":0.7874015748031497,"duration":0.14384906250000995},{"name":"F#4","midi":66,"time":161.42841000000115,"velocity":0.7874015748031497,"duration":0.3422615624999992},{"name":"G#4","midi":68,"time":161.90460000000115,"velocity":0.7874015748031497,"duration":0.2876981249999915},{"name":"G#4","midi":68,"time":162.26174250000113,"velocity":0.7874015748031497,"duration":0.11408718749999025},{"name":"G#4","midi":68,"time":162.38079000000113,"velocity":0.7874015748031497,"duration":0.14384906250000995},{"name":"G4","midi":67,"time":162.61888500000114,"velocity":0.7874015748031497,"duration":0.11408718749999025},{"name":"G#4","midi":68,"time":162.73793250000114,"velocity":0.7874015748031497,"duration":0.11408718749999025},{"name":"C#5","midi":73,"time":162.85698000000113,"velocity":0.7874015748031497,"duration":0.763888124999994},{"name":"F#5","midi":78,"time":163.80936000000113,"velocity":0.7874015748031497,"duration":0.2876981249999915},{"name":"G#5","midi":80,"time":164.16650250000112,"velocity":0.7874015748031497,"duration":0.11408718749999025},{"name":"A#5","midi":82,"time":164.2855500000011,"velocity":0.7874015748031497,"duration":0.14384906250000995},{"name":"G#5","midi":80,"time":164.52364500000112,"velocity":0.7874015748031497,"duration":0.14384906250000995},{"name":"F#5","midi":78,"time":164.76174000000114,"velocity":0.7874015748031497,"duration":0.11408718749999025},{"name":"F5","midi":77,"time":164.88078750000113,"velocity":0.7874015748031497,"duration":0.11408718749999025},{"name":"F#5","midi":78,"time":164.99983500000113,"velocity":0.7874015748031497,"duration":0.11408718749999025},{"name":"F5","midi":77,"time":165.11888250000112,"velocity":0.7874015748031497,"duration":0.11408718749999025},{"name":"F#5","midi":78,"time":165.2379300000011,"velocity":0.7874015748031497,"duration":0.14384906250000995},{"name":"C#5","midi":73,"time":165.47602500000113,"velocity":0.7874015748031497,"duration":0.17361093750000123},{"name":"C5","midi":72,"time":165.71412000000112,"velocity":0.7874015748031497,"duration":0.2331346875000122},{"name":"D5","midi":74,"time":166.07126250000113,"velocity":0.7874015748031497,"duration":0.11408718749999025},{"name":"E5","midi":76,"time":166.19031000000112,"velocity":0.7874015748031497,"duration":0.14384906250000995},{"name":"G5","midi":79,"time":166.42840500000113,"velocity":0.7874015748031497,"duration":0.14384906250000995},{"name":"C6","midi":84,"time":166.66650000000115,"velocity":0.7874015748031497,"duration":0.11408718749999025},{"name":"B5","midi":83,"time":166.78554750000114,"velocity":0.7874015748031497,"duration":0.11408718749999025},{"name":"C6","midi":84,"time":166.90459500000114,"velocity":0.7874015748031497,"duration":0.11408718749999025},{"name":"D6","midi":86,"time":167.02364250000113,"velocity":0.7874015748031497,"duration":0.11408718749999025},{"name":"C6","midi":84,"time":167.14269000000112,"velocity":0.7874015748031497,"duration":0.2876981249999915},{"name":"C#6","midi":85,"time":167.61888000000113,"velocity":0.7874015748031497,"duration":0.2331346875000122},{"name":"D#6","midi":87,"time":167.97602250000114,"velocity":0.7874015748031497,"duration":0.11408718749999025},{"name":"C#6","midi":85,"time":168.09507000000113,"velocity":0.7874015748031497,"duration":0.14384906250000995},{"name":"G#5","midi":80,"time":168.33316500000115,"velocity":0.7874015748031497,"duration":0.14384906250000995},{"name":"G5","midi":79,"time":168.57126000000116,"velocity":0.7874015748031497,"duration":0.14384906250000995},{"name":"A5","midi":81,"time":168.80935500000118,"velocity":0.7874015748031497,"duration":0.14384906250000995},{"name":"B5","midi":83,"time":169.0474500000012,"velocity":0.7874015748031497,"duration":0.14384906250000995},{"name":"D6","midi":86,"time":169.2855450000012,"velocity":0.7874015748031497,"duration":0.14384906250000995},{"name":"C6","midi":84,"time":169.52364000000122,"velocity":0.7874015748031497,"duration":0.14384906250000995},{"name":"G5","midi":79,"time":169.76173500000124,"velocity":0.7874015748031497,"duration":0.0744046874999924},{"name":"F#5","midi":78,"time":169.84110000000123,"velocity":0.7874015748031497,"duration":0.0744046874999924},{"name":"G5","midi":79,"time":169.92046500000123,"velocity":0.7874015748031497,"duration":0.0744046874999924},{"name":"G#5","midi":80,"time":169.99983000000123,"velocity":0.7874015748031497,"duration":0.14384906250000995},{"name":"G5","midi":79,"time":170.23792500000124,"velocity":0.7874015748031497,"duration":0.14384906250000995},{"name":"C5","midi":72,"time":170.47602000000126,"velocity":1,"duration":0.4712296874999993},{"name":"F#5","midi":78,"time":171.42840000000126,"velocity":0.7874015748031497,"duration":0.2876981249999915},{"name":"G#5","midi":80,"time":171.78554250000124,"velocity":0.7874015748031497,"duration":0.11408718749999025},{"name":"A#5","midi":82,"time":171.90459000000124,"velocity":0.7874015748031497,"duration":0.14384906250000995},{"name":"G#5","midi":80,"time":172.14268500000125,"velocity":0.7874015748031497,"duration":0.14384906250000995},{"name":"F#5","midi":78,"time":172.38078000000127,"velocity":0.7874015748031497,"duration":0.11408718749999025},{"name":"F5","midi":77,"time":172.49982750000126,"velocity":0.7874015748031497,"duration":0.11408718749999025},{"name":"F#5","midi":78,"time":172.61887500000125,"velocity":0.7874015748031497,"duration":0.11408718749999025},{"name":"F5","midi":77,"time":172.73792250000125,"velocity":0.7874015748031497,"duration":0.11408718749999025},{"name":"F#5","midi":78,"time":172.85697000000124,"velocity":0.7874015748031497,"duration":0.14384906250000995},{"name":"C#5","midi":73,"time":173.09506500000126,"velocity":0.7874015748031497,"duration":0.14384906250000995},{"name":"D5","midi":74,"time":173.33316000000127,"velocity":0.7874015748031497,"duration":0.2876981249999915},{"name":"E5","midi":76,"time":173.69030250000125,"velocity":0.7874015748031497,"duration":0.11408718749999025},{"name":"F#5","midi":78,"time":173.80935000000125,"velocity":0.7874015748031497,"duration":0.14384906250000995},{"name":"E5","midi":76,"time":174.04744500000126,"velocity":0.7874015748031497,"duration":0.11408718749999025},{"name":"D5","midi":74,"time":174.16649250000125,"velocity":0.7874015748031497,"duration":0.11408718749999025},{"name":"C#5","midi":73,"time":174.28554000000125,"velocity":0.7874015748031497,"duration":0.763888124999994},{"name":"B4","midi":71,"time":175.23792000000125,"velocity":0.7874015748031497,"duration":0.2876981249999915},{"name":"C#5","midi":73,"time":175.59506250000123,"velocity":0.7874015748031497,"duration":0.11408718749999025},{"name":"D#5","midi":75,"time":175.71411000000123,"velocity":0.7874015748031497,"duration":0.14384906250000995},{"name":"C#5","midi":73,"time":175.95220500000124,"velocity":0.7874015748031497,"duration":0.11408718749999025},{"name":"B4","midi":71,"time":176.07125250000124,"velocity":0.7874015748031497,"duration":0.11408718749999025},{"name":"C#5","midi":73,"time":176.19030000000123,"velocity":0.7874015748031497,"duration":0.2331346875000122},{"name":"F#5","midi":78,"time":176.42839500000125,"velocity":0.7874015748031497,"duration":0.14384906250000995},{"name":"F#4","midi":66,"time":176.66649000000126,"velocity":0.7874015748031497,"duration":0.35218218750000574},{"name":"G#4","midi":68,"time":177.14268000000126,"velocity":0.7874015748031497,"duration":0.2876981249999915},{"name":"G#4","midi":68,"time":177.49982250000124,"velocity":0.7874015748031497,"duration":0.11408718749999025},{"name":"G#4","midi":68,"time":177.61887000000124,"velocity":0.7874015748031497,"duration":0.14384906250000995},{"name":"G4","midi":67,"time":177.85696500000125,"velocity":0.7874015748031497,"duration":0.11408718749999025},{"name":"G#4","midi":68,"time":177.97601250000125,"velocity":0.7874015748031497,"duration":0.11408718749999025},{"name":"C#5","midi":73,"time":178.09506000000124,"velocity":0.7874015748031497,"duration":0.763888124999994},{"name":"F#5","midi":78,"time":179.04744000000125,"velocity":0.7874015748031497,"duration":0.2876981249999915},{"name":"G#5","midi":80,"time":179.40458250000123,"velocity":0.7874015748031497,"duration":0.11408718749999025},{"name":"A#5","midi":82,"time":179.52363000000122,"velocity":0.7874015748031497,"duration":0.14384906250000995},{"name":"G#5","midi":80,"time":179.76172500000123,"velocity":0.7874015748031497,"duration":0.14384906250000995},{"name":"F#5","midi":78,"time":179.99982000000125,"velocity":0.7874015748031497,"duration":0.11408718749999025},{"name":"F5","midi":77,"time":180.11886750000124,"velocity":0.7874015748031497,"duration":0.11408718749999025},{"name":"F#5","midi":78,"time":180.23791500000124,"velocity":0.7874015748031497,"duration":0.11408718749999025},{"name":"F5","midi":77,"time":180.35696250000123,"velocity":0.7874015748031497,"duration":0.11408718749999025},{"name":"F#5","midi":78,"time":180.47601000000122,"velocity":0.7874015748031497,"duration":0.14384906250000995},{"name":"C#5","midi":73,"time":180.71410500000124,"velocity":0.7874015748031497,"duration":0.14384906250000995},{"name":"D5","midi":74,"time":180.95220000000126,"velocity":0.7874015748031497,"duration":0.2876981249999915},{"name":"F5","midi":77,"time":181.30934250000124,"velocity":0.7874015748031497,"duration":0.11408718749999025},{"name":"G#5","midi":80,"time":181.42839000000123,"velocity":0.7874015748031497,"duration":0.2331346875000122},{"name":"A#5","midi":82,"time":181.66648500000124,"velocity":0.7874015748031497,"duration":0.14384906250000995},{"name":"F#5","midi":78,"time":181.90458000000126,"velocity":0.7874015748031497,"duration":0.5902771874999928},{"name":"C#5","midi":73,"time":182.61886500000125,"velocity":0.7874015748031497,"duration":0.14384906250000995},{"name":"C5","midi":72,"time":182.85696000000127,"velocity":0.7874015748031497,"duration":0.2876981249999915},{"name":"C#5","midi":73,"time":183.21410250000125,"velocity":0.7874015748031497,"duration":0.11408718749999025},{"name":"D#5","midi":75,"time":183.33315000000124,"velocity":0.7874015748031497,"duration":0.14384906250000995},{"name":"C5","midi":72,"time":183.57124500000126,"velocity":0.7874015748031497,"duration":0.14384906250000995},{"name":"D#5","midi":75,"time":183.80934000000127,"velocity":0.7874015748031497,"duration":0.14384906250000995},{"name":"C5","midi":72,"time":184.0474350000013,"velocity":0.7874015748031497,"duration":0.14384906250000995},{"name":"D#5","midi":75,"time":184.2855300000013,"velocity":0.7874015748031497,"duration":0.14384906250000995},{"name":"G#5","midi":80,"time":184.52362500000132,"velocity":0.7874015748031497,"duration":0.14384906250000995},{"name":"C#5","midi":73,"time":184.76172000000133,"velocity":0.7874015748031497,"duration":0.2876981249999915},{"name":"D#5","midi":75,"time":185.1188625000013,"velocity":0.7874015748031497,"duration":0.11408718749999025},{"name":"F5","midi":77,"time":185.2379100000013,"velocity":0.7874015748031497,"duration":0.14384906250000995},{"name":"C#5","midi":73,"time":185.47600500000132,"velocity":0.7874015748031497,"duration":0.14384906250000995},{"name":"B5","midi":83,"time":185.71410000000134,"velocity":0.7874015748031497,"duration":0.14384906250000995},{"name":"B5","midi":83,"time":185.95219500000135,"velocity":0.7874015748031497,"duration":0.14384906250000995},{"name":"A#5","midi":82,"time":186.19029000000137,"velocity":0.7874015748031497,"duration":0.14384906250000995},{"name":"G#5","midi":80,"time":186.42838500000138,"velocity":0.7874015748031497,"duration":0.14384906250000995},{"name":"F#5","midi":78,"time":186.6664800000014,"velocity":0.7874015748031497,"duration":0.11408718749999025},{"name":"G#5","midi":80,"time":186.9045750000014,"velocity":0.7874015748031497,"duration":0.11408718749999025},{"name":"A#5","midi":82,"time":187.02362250000138,"velocity":0.7874015748031497,"duration":0.14384906250000995},{"name":"G#5","midi":80,"time":187.2617175000014,"velocity":0.7874015748031497,"duration":0.11408718749999025},{"name":"F#5","midi":78,"time":187.3807650000014,"velocity":0.7874015748031497,"duration":0.14384906250000995},{"name":"B5","midi":83,"time":187.6188600000014,"velocity":0.7874015748031497,"duration":0.11408718749999025},{"name":"C#6","midi":85,"time":187.8569550000014,"velocity":0.7874015748031497,"duration":0.11408718749999025},{"name":"D#6","midi":87,"time":187.97600250000139,"velocity":0.7874015748031497,"duration":0.14384906250000995},{"name":"C#6","midi":85,"time":188.2140975000014,"velocity":0.7874015748031497,"duration":0.11408718749999025},{"name":"B5","midi":83,"time":188.3331450000014,"velocity":0.7874015748031497,"duration":0.14384906250000995},{"name":"F5","midi":77,"time":188.5712400000014,"velocity":0.7874015748031497,"duration":0.11408718749999025},{"name":"G5","midi":79,"time":188.8093350000014,"velocity":0.7874015748031497,"duration":0.11408718749999025},{"name":"A5","midi":81,"time":188.9283825000014,"velocity":0.7874015748031497,"duration":0.14384906250000995},{"name":"G5","midi":79,"time":189.1664775000014,"velocity":0.7874015748031497,"duration":0.11408718749999025},{"name":"F5","midi":77,"time":189.2855250000014,"velocity":0.7874015748031497,"duration":0.14384906250000995},{"name":"A#5","midi":82,"time":189.52362000000142,"velocity":0.7874015748031497,"duration":0.11408718749999025},{"name":"C6","midi":84,"time":189.7617150000014,"velocity":0.7874015748031497,"duration":0.11408718749999025},{"name":"D6","midi":86,"time":189.8807625000014,"velocity":0.7874015748031497,"duration":0.14384906250000995},{"name":"C6","midi":84,"time":190.1188575000014,"velocity":0.7874015748031497,"duration":0.11408718749999025},{"name":"A#5","midi":82,"time":190.2379050000014,"velocity":0.7874015748031497,"duration":0.14384906250000995},{"name":"D#5","midi":75,"time":190.47600000000142,"velocity":0.7874015748031497,"duration":0.11408718749999025},{"name":"F5","midi":77,"time":190.7140950000014,"velocity":0.7874015748031497,"duration":0.11408718749999025},{"name":"G5","midi":79,"time":190.8331425000014,"velocity":0.7874015748031497,"duration":0.14384906250000995},{"name":"F5","midi":77,"time":191.07123750000142,"velocity":0.7874015748031497,"duration":0.11408718749999025},{"name":"D#5","midi":75,"time":191.1902850000014,"velocity":0.7874015748031497,"duration":0.14384906250000995},{"name":"G#5","midi":80,"time":191.42838000000143,"velocity":0.7874015748031497,"duration":0.11408718749999025},{"name":"A#5","midi":82,"time":191.6664750000014,"velocity":0.7874015748031497,"duration":0.11408718749999025},{"name":"C6","midi":84,"time":191.7855225000014,"velocity":0.7874015748031497,"duration":0.14384906250000995},{"name":"A#5","midi":82,"time":192.02361750000142,"velocity":0.7874015748031497,"duration":0.11408718749999025},{"name":"G#5","midi":80,"time":192.14266500000141,"velocity":0.7874015748031497,"duration":0.14384906250000995},{"name":"G5","midi":79,"time":192.38076000000143,"velocity":0.7874015748031497,"duration":0.11408718749999025},{"name":"F#5","midi":78,"time":192.61885500000142,"velocity":0.7874015748031497,"duration":0.11408718749999025},{"name":"G5","midi":79,"time":192.7379025000014,"velocity":0.7874015748031497,"duration":0.14384906250000995},{"name":"A5","midi":81,"time":192.97599750000143,"velocity":0.7874015748031497,"duration":0.11408718749999025},{"name":"B5","midi":83,"time":193.09504500000142,"velocity":0.7874015748031497,"duration":0.14384906250000995},{"name":"B5","midi":83,"time":193.33314000000144,"velocity":0.7874015748031497,"duration":0.11408718749999025},{"name":"A#5","midi":82,"time":193.57123500000142,"velocity":0.7874015748031497,"duration":0.11408718749999025},{"name":"B5","midi":83,"time":193.69028250000142,"velocity":0.7874015748031497,"duration":0.14384906250000995},{"name":"C6","midi":84,"time":193.92837750000143,"velocity":0.7874015748031497,"duration":0.11408718749999025},{"name":"D6","midi":86,"time":194.04742500000143,"velocity":0.7874015748031497,"duration":0.14384906250000995},{"name":"G4","midi":67,"time":194.28552000000144,"velocity":0.7874015748031497,"duration":0.14384906250000995},{"name":"C5","midi":72,"time":194.28552000000144,"velocity":0.7874015748031497,"duration":0.14384906250000995},{"name":"C5","midi":72,"time":194.52361500000146,"velocity":0.7874015748031497,"duration":0.11408718749999025},{"name":"E5","midi":76,"time":194.52361500000146,"velocity":0.7874015748031497,"duration":0.11408718749999025},{"name":"E5","midi":76,"time":194.64266250000145,"velocity":0.7874015748031497,"duration":0.14384906250000995},{"name":"G5","midi":79,"time":194.64266250000145,"velocity":0.7874015748031497,"duration":0.14384906250000995},{"name":"C5","midi":72,"time":194.88075750000147,"velocity":0.7874015748031497,"duration":0.11408718749999025},{"name":"E5","midi":76,"time":194.88075750000147,"velocity":0.7874015748031497,"duration":0.11408718749999025},{"name":"E5","midi":76,"time":194.99980500000146,"velocity":0.7874015748031497,"duration":0.14384906250000995},{"name":"G5","midi":79,"time":194.99980500000146,"velocity":0.7874015748031497,"duration":0.14384906250000995},{"name":"E5","midi":76,"time":195.23790000000147,"velocity":0.7874015748031497,"duration":0.14384906250000995},{"name":"A5","midi":81,"time":195.23790000000147,"velocity":0.7874015748031497,"duration":0.14384906250000995},{"name":"E5","midi":76,"time":195.4759950000015,"velocity":0.7874015748031497,"duration":0.11408718749999025},{"name":"G5","midi":79,"time":195.4759950000015,"velocity":0.7874015748031497,"duration":0.11408718749999025},{"name":"C5","midi":72,"time":195.59504250000148,"velocity":0.7874015748031497,"duration":0.11408718749999025},{"name":"E5","midi":76,"time":195.59504250000148,"velocity":0.7874015748031497,"duration":0.11408718749999025},{"name":"E5","midi":76,"time":195.71409000000148,"velocity":0.7874015748031497,"duration":0.14384906250000995},{"name":"G5","midi":79,"time":195.71409000000148,"velocity":0.7874015748031497,"duration":0.14384906250000995},{"name":"E5","midi":76,"time":195.9521850000015,"velocity":0.7874015748031497,"duration":0.14384906250000995},{"name":"A5","midi":81,"time":195.9521850000015,"velocity":0.7874015748031497,"duration":0.14384906250000995},{"name":"D#5","midi":75,"time":196.1902800000015,"velocity":0.7874015748031497,"duration":0.14384906250000995},{"name":"G#5","midi":80,"time":196.1902800000015,"velocity":0.7874015748031497,"duration":0.14384906250000995},{"name":"F5","midi":77,"time":196.42837500000152,"velocity":0.7874015748031497,"duration":0.11408718749999025},{"name":"A#5","midi":82,"time":196.42837500000152,"velocity":0.7874015748031497,"duration":0.11408718749999025},{"name":"G#5","midi":80,"time":196.54742250000152,"velocity":0.7874015748031497,"duration":0.14384906250000995},{"name":"C6","midi":84,"time":196.54742250000152,"velocity":0.7874015748031497,"duration":0.14384906250000995},{"name":"F5","midi":77,"time":196.78551750000153,"velocity":0.7874015748031497,"duration":0.11408718749999025},{"name":"A#5","midi":82,"time":196.78551750000153,"velocity":0.7874015748031497,"duration":0.11408718749999025},{"name":"D#5","midi":75,"time":196.90456500000153,"velocity":0.7874015748031497,"duration":0.14384906250000995},{"name":"G#5","midi":80,"time":196.90456500000153,"velocity":0.7874015748031497,"duration":0.14384906250000995},{"name":"E5","midi":76,"time":197.14266000000154,"velocity":0.7874015748031497,"duration":0.14384906250000995},{"name":"G5","midi":79,"time":197.14266000000154,"velocity":0.7874015748031497,"duration":0.14384906250000995},{"name":"C5","midi":72,"time":197.38075500000156,"velocity":0.7874015748031497,"duration":0.2331346875000122},{"name":"E5","midi":76,"time":197.38075500000156,"velocity":0.7874015748031497,"duration":0.2331346875000122},{"name":"C5","midi":72,"time":197.85694500000156,"velocity":0.7874015748031497,"duration":0.14384906250000995},{"name":"E5","midi":76,"time":197.85694500000156,"velocity":0.7874015748031497,"duration":0.14384906250000995},{"name":"G4","midi":67,"time":198.09504000000157,"velocity":0.7874015748031497,"duration":0.14384906250000995},{"name":"C5","midi":72,"time":198.09504000000157,"velocity":0.7874015748031497,"duration":0.14384906250000995},{"name":"C5","midi":72,"time":198.3331350000016,"velocity":0.7874015748031497,"duration":0.11408718749999025},{"name":"E5","midi":76,"time":198.3331350000016,"velocity":0.7874015748031497,"duration":0.11408718749999025},{"name":"E5","midi":76,"time":198.45218250000158,"velocity":0.7874015748031497,"duration":0.14384906250000995},{"name":"G5","midi":79,"time":198.45218250000158,"velocity":0.7874015748031497,"duration":0.14384906250000995},{"name":"C5","midi":72,"time":198.6902775000016,"velocity":0.7874015748031497,"duration":0.11408718749999025},{"name":"E5","midi":76,"time":198.6902775000016,"velocity":0.7874015748031497,"duration":0.11408718749999025},{"name":"E5","midi":76,"time":198.8093250000016,"velocity":0.7874015748031497,"duration":0.14384906250000995},{"name":"G5","midi":79,"time":198.8093250000016,"velocity":0.7874015748031497,"duration":0.14384906250000995},{"name":"E5","midi":76,"time":199.0474200000016,"velocity":0.7874015748031497,"duration":0.14384906250000995},{"name":"A5","midi":81,"time":199.0474200000016,"velocity":0.7874015748031497,"duration":0.14384906250000995},{"name":"E5","midi":76,"time":199.28551500000162,"velocity":0.7874015748031497,"duration":0.11408718749999025},{"name":"G5","midi":79,"time":199.28551500000162,"velocity":0.7874015748031497,"duration":0.11408718749999025},{"name":"C5","midi":72,"time":199.40456250000162,"velocity":0.7874015748031497,"duration":0.11408718749999025},{"name":"E5","midi":76,"time":199.40456250000162,"velocity":0.7874015748031497,"duration":0.11408718749999025},{"name":"E5","midi":76,"time":199.5236100000016,"velocity":0.7874015748031497,"duration":0.14384906250000995},{"name":"G5","midi":79,"time":199.5236100000016,"velocity":0.7874015748031497,"duration":0.14384906250000995},{"name":"E5","midi":76,"time":199.76170500000163,"velocity":0.7874015748031497,"duration":0.14384906250000995},{"name":"A5","midi":81,"time":199.76170500000163,"velocity":0.7874015748031497,"duration":0.14384906250000995},{"name":"D#5","midi":75,"time":199.99980000000164,"velocity":0.7874015748031497,"duration":0.14384906250000995},{"name":"G#5","midi":80,"time":199.99980000000164,"velocity":0.7874015748031497,"duration":0.14384906250000995},{"name":"F5","midi":77,"time":200.23789500000166,"velocity":0.7874015748031497,"duration":0.11408718749999025},{"name":"A#5","midi":82,"time":200.23789500000166,"velocity":0.7874015748031497,"duration":0.11408718749999025},{"name":"G#5","midi":80,"time":200.35694250000165,"velocity":0.7874015748031497,"duration":0.14384906250000995},{"name":"C6","midi":84,"time":200.35694250000165,"velocity":0.7874015748031497,"duration":0.14384906250000995},{"name":"F5","midi":77,"time":200.59503750000167,"velocity":0.7874015748031497,"duration":0.11408718749999025},{"name":"A#5","midi":82,"time":200.59503750000167,"velocity":0.7874015748031497,"duration":0.11408718749999025},{"name":"D#5","midi":75,"time":200.71408500000166,"velocity":0.7874015748031497,"duration":0.14384906250000995},{"name":"G#5","midi":80,"time":200.71408500000166,"velocity":0.7874015748031497,"duration":0.14384906250000995},{"name":"B5","midi":83,"time":200.95218000000168,"velocity":0.7874015748031497,"duration":0.024801562499987995},{"name":"D#6","midi":87,"time":200.95218000000168,"velocity":0.7874015748031497,"duration":0.024801562499987995},{"name":"C6","midi":84,"time":200.98194187500167,"velocity":0.7874015748031497,"duration":0.14384906250000995},{"name":"E6","midi":88,"time":200.98194187500167,"velocity":0.7874015748031497,"duration":0.14384906250000995},{"name":"G5","midi":79,"time":201.19027500000166,"velocity":0.7874015748031497,"duration":0.2331346875000122},{"name":"C6","midi":84,"time":201.19027500000166,"velocity":0.7874015748031497,"duration":0.2331346875000122},{"name":"G4","midi":67,"time":201.90456000000168,"velocity":0.7874015748031497,"duration":0.14384906250000995},{"name":"C5","midi":72,"time":201.90456000000168,"velocity":0.7874015748031497,"duration":0.14384906250000995},{"name":"C5","midi":72,"time":202.1426550000017,"velocity":0.7874015748031497,"duration":0.11408718749999025},{"name":"E5","midi":76,"time":202.1426550000017,"velocity":0.7874015748031497,"duration":0.11408718749999025},{"name":"E5","midi":76,"time":202.2617025000017,"velocity":0.7874015748031497,"duration":0.14384906250000995},{"name":"G5","midi":79,"time":202.2617025000017,"velocity":0.7874015748031497,"duration":0.14384906250000995},{"name":"C5","midi":72,"time":202.4997975000017,"velocity":0.7874015748031497,"duration":0.11408718749999025},{"name":"E5","midi":76,"time":202.4997975000017,"velocity":0.7874015748031497,"duration":0.11408718749999025},{"name":"E5","midi":76,"time":202.6188450000017,"velocity":0.7874015748031497,"duration":0.14384906250000995},{"name":"G5","midi":79,"time":202.6188450000017,"velocity":0.7874015748031497,"duration":0.14384906250000995},{"name":"E5","midi":76,"time":202.8569400000017,"velocity":0.7874015748031497,"duration":0.14384906250000995},{"name":"A5","midi":81,"time":202.8569400000017,"velocity":0.7874015748031497,"duration":0.14384906250000995},{"name":"E5","midi":76,"time":203.09503500000173,"velocity":0.7874015748031497,"duration":0.11408718749999025},{"name":"G5","midi":79,"time":203.09503500000173,"velocity":0.7874015748031497,"duration":0.11408718749999025},{"name":"C5","midi":72,"time":203.21408250000172,"velocity":0.7874015748031497,"duration":0.11408718749999025},{"name":"E5","midi":76,"time":203.21408250000172,"velocity":0.7874015748031497,"duration":0.11408718749999025},{"name":"E5","midi":76,"time":203.33313000000172,"velocity":0.7874015748031497,"duration":0.14384906250000995},{"name":"G5","midi":79,"time":203.33313000000172,"velocity":0.7874015748031497,"duration":0.14384906250000995},{"name":"E5","midi":76,"time":203.57122500000173,"velocity":0.7874015748031497,"duration":0.14384906250000995},{"name":"A5","midi":81,"time":203.57122500000173,"velocity":0.7874015748031497,"duration":0.14384906250000995},{"name":"D#5","midi":75,"time":203.80932000000175,"velocity":0.7874015748031497,"duration":0.14384906250000995},{"name":"G#5","midi":80,"time":203.80932000000175,"velocity":0.7874015748031497,"duration":0.14384906250000995},{"name":"F5","midi":77,"time":204.04741500000176,"velocity":0.7874015748031497,"duration":0.11408718749999025},{"name":"A#5","midi":82,"time":204.04741500000176,"velocity":0.7874015748031497,"duration":0.11408718749999025},{"name":"G#5","midi":80,"time":204.16646250000176,"velocity":0.7874015748031497,"duration":0.14384906250000995},{"name":"C6","midi":84,"time":204.16646250000176,"velocity":0.7874015748031497,"duration":0.14384906250000995},{"name":"F5","midi":77,"time":204.40455750000177,"velocity":0.7874015748031497,"duration":0.11408718749999025},{"name":"A#5","midi":82,"time":204.40455750000177,"velocity":0.7874015748031497,"duration":0.11408718749999025},{"name":"D#5","midi":75,"time":204.52360500000177,"velocity":0.7874015748031497,"duration":0.14384906250000995},{"name":"G#5","midi":80,"time":204.52360500000177,"velocity":0.7874015748031497,"duration":0.14384906250000995},{"name":"E5","midi":76,"time":204.76170000000178,"velocity":0.7874015748031497,"duration":0.14384906250000995},{"name":"G5","midi":79,"time":204.76170000000178,"velocity":0.7874015748031497,"duration":0.14384906250000995},{"name":"C5","midi":72,"time":204.9997950000018,"velocity":0.7874015748031497,"duration":0.2331346875000122},{"name":"E5","midi":76,"time":204.9997950000018,"velocity":0.7874015748031497,"duration":0.2331346875000122},{"name":"C5","midi":72,"time":205.4759850000018,"velocity":0.7874015748031497,"duration":0.14384906250000995},{"name":"E5","midi":76,"time":205.4759850000018,"velocity":0.7874015748031497,"duration":0.14384906250000995},{"name":"G4","midi":67,"time":205.71408000000181,"velocity":0.7874015748031497,"duration":0.14384906250000995},{"name":"C5","midi":72,"time":205.71408000000181,"velocity":0.7874015748031497,"duration":0.14384906250000995},{"name":"C5","midi":72,"time":205.95217500000183,"velocity":0.7874015748031497,"duration":0.11408718749999025},{"name":"E5","midi":76,"time":205.95217500000183,"velocity":0.7874015748031497,"duration":0.11408718749999025},{"name":"E5","midi":76,"time":206.07122250000182,"velocity":0.7874015748031497,"duration":0.14384906250000995},{"name":"G5","midi":79,"time":206.07122250000182,"velocity":0.7874015748031497,"duration":0.14384906250000995},{"name":"C5","midi":72,"time":206.30931750000184,"velocity":0.7874015748031497,"duration":0.11408718749999025},{"name":"E5","midi":76,"time":206.30931750000184,"velocity":0.7874015748031497,"duration":0.11408718749999025},{"name":"E5","midi":76,"time":206.42836500000183,"velocity":0.7874015748031497,"duration":0.14384906250000995},{"name":"G5","midi":79,"time":206.42836500000183,"velocity":0.7874015748031497,"duration":0.14384906250000995},{"name":"E5","midi":76,"time":206.66646000000185,"velocity":0.7874015748031497,"duration":0.14384906250000995},{"name":"A5","midi":81,"time":206.66646000000185,"velocity":0.7874015748031497,"duration":0.14384906250000995},{"name":"E5","midi":76,"time":206.90455500000186,"velocity":0.7874015748031497,"duration":0.11408718749999025},{"name":"G5","midi":79,"time":206.90455500000186,"velocity":0.7874015748031497,"duration":0.11408718749999025},{"name":"C5","midi":72,"time":207.02360250000186,"velocity":0.7874015748031497,"duration":0.11408718749999025},{"name":"E5","midi":76,"time":207.02360250000186,"velocity":0.7874015748031497,"duration":0.11408718749999025},{"name":"E5","midi":76,"time":207.14265000000185,"velocity":0.7874015748031497,"duration":0.14384906250000995},{"name":"G5","midi":79,"time":207.14265000000185,"velocity":0.7874015748031497,"duration":0.14384906250000995},{"name":"E5","midi":76,"time":207.38074500000187,"velocity":0.7874015748031497,"duration":0.14384906250000995},{"name":"A5","midi":81,"time":207.38074500000187,"velocity":0.7874015748031497,"duration":0.14384906250000995},{"name":"F5","midi":77,"time":207.61884000000188,"velocity":0.7874015748031497,"duration":0.14384906250000995},{"name":"G#5","midi":80,"time":207.61884000000188,"velocity":0.7874015748031497,"duration":0.14384906250000995},{"name":"F#5","midi":78,"time":207.8569350000019,"velocity":0.7874015748031497,"duration":0.11408718749999025},{"name":"A#5","midi":82,"time":207.8569350000019,"velocity":0.7874015748031497,"duration":0.11408718749999025},{"name":"G5","midi":79,"time":207.9759825000019,"velocity":0.7874015748031497,"duration":0.14384906250000995},{"name":"B5","midi":83,"time":207.9759825000019,"velocity":0.7874015748031497,"duration":0.14384906250000995},{"name":"G5","midi":79,"time":208.2140775000019,"velocity":0.7874015748031497,"duration":0.11408718749999025},{"name":"A5","midi":81,"time":208.2140775000019,"velocity":0.7874015748031497,"duration":0.11408718749999025},{"name":"F5","midi":77,"time":208.3331250000019,"velocity":0.7874015748031497,"duration":0.14384906250000995},{"name":"G5","midi":79,"time":208.3331250000019,"velocity":0.7874015748031497,"duration":0.14384906250000995},{"name":"E5","midi":76,"time":208.57122000000192,"velocity":0.7874015748031497,"duration":0.2331346875000122},{"name":"C6","midi":84,"time":208.57122000000192,"velocity":0.7874015748031497,"duration":0.2331346875000122},{"name":"C5","midi":72,"time":209.52360000000192,"velocity":0.7874015748031497,"duration":0.3422615624999992},{"name":"G5","midi":79,"time":209.99979000000192,"velocity":0.7874015748031497,"duration":0.3422615624999992},{"name":"G5","midi":79,"time":210.47598000000193,"velocity":0.7874015748031497,"duration":0.3422615624999992},{"name":"C5","midi":72,"time":210.95217000000193,"velocity":0.7874015748031497,"duration":0.3422615624999992},{"name":"F#5","midi":78,"time":211.42836000000193,"velocity":0.7874015748031497,"duration":0.14384906250000995},{"name":"G#5","midi":80,"time":211.66645500000195,"velocity":0.7874015748031497,"duration":0.14384906250000995},{"name":"A#5","midi":82,"time":211.90455000000196,"velocity":0.7874015748031497,"duration":0.14384906250000995},{"name":"G#5","midi":80,"time":212.14264500000198,"velocity":0.7874015748031497,"duration":0.14384906250000995},{"name":"F#5","midi":78,"time":212.380740000002,"velocity":0.7874015748031497,"duration":0.3422615624999992},{"name":"C#5","midi":73,"time":212.856930000002,"velocity":0.7874015748031497,"duration":0.3422615624999992},{"name":"C5","midi":72,"time":213.333120000002,"velocity":0.7874015748031497,"duration":0.3422615624999992},{"name":"G5","midi":79,"time":213.809310000002,"velocity":0.7874015748031497,"duration":0.3422615624999992},{"name":"G5","midi":79,"time":214.285500000002,"velocity":0.7874015748031497,"duration":0.3422615624999992},{"name":"C5","midi":72,"time":214.761690000002,"velocity":0.7874015748031497,"duration":0.3422615624999992},{"name":"A#5","midi":82,"time":215.237880000002,"velocity":0.7874015748031497,"duration":0.2876981249999915},{"name":"C6","midi":84,"time":215.595022500002,"velocity":0.7874015748031497,"duration":0.11408718749999025},{"name":"A#5","midi":82,"time":215.71407000000198,"velocity":0.7874015748031497,"duration":0.14384906250000995},{"name":"F#5","midi":78,"time":215.952165000002,"velocity":0.7874015748031497,"duration":0.14384906250000995},{"name":"A#5","midi":82,"time":216.190260000002,"velocity":0.7874015748031497,"duration":0.2876981249999915},{"name":"C6","midi":84,"time":216.547402500002,"velocity":0.7874015748031497,"duration":0.11408718749999025},{"name":"A#5","midi":82,"time":216.666450000002,"velocity":0.7874015748031497,"duration":0.14384906250000995},{"name":"F#5","midi":78,"time":216.904545000002,"velocity":0.7874015748031497,"duration":0.14384906250000995},{"name":"C5","midi":72,"time":217.14264000000202,"velocity":0.7874015748031497,"duration":0.3422615624999992},{"name":"G5","midi":79,"time":217.61883000000202,"velocity":0.7874015748031497,"duration":0.3422615624999992},{"name":"G5","midi":79,"time":218.09502000000202,"velocity":0.7874015748031497,"duration":0.3422615624999992},{"name":"C5","midi":72,"time":218.57121000000203,"velocity":0.7874015748031497,"duration":0.3422615624999992},{"name":"F#5","midi":78,"time":219.04740000000203,"velocity":0.7874015748031497,"duration":0.14384906250000995},{"name":"G#5","midi":80,"time":219.28549500000204,"velocity":0.7874015748031497,"duration":0.14384906250000995},{"name":"A#5","midi":82,"time":219.52359000000206,"velocity":0.7874015748031497,"duration":0.14384906250000995},{"name":"G#5","midi":80,"time":219.76168500000207,"velocity":0.7874015748031497,"duration":0.14384906250000995},{"name":"F#5","midi":78,"time":219.9997800000021,"velocity":0.7874015748031497,"duration":0.3422615624999992},{"name":"C#5","midi":73,"time":220.4759700000021,"velocity":0.7874015748031497,"duration":0.3422615624999992},{"name":"C5","midi":72,"time":220.9521600000021,"velocity":0.7874015748031497,"duration":0.3422615624999992},{"name":"G5","midi":79,"time":221.4283500000021,"velocity":0.7874015748031497,"duration":0.3422615624999992},{"name":"G#5","midi":80,"time":221.9045400000021,"velocity":0.7874015748031497,"duration":0.3422615624999992},{"name":"G#5","midi":80,"time":222.3807300000021,"velocity":0.7874015748031497,"duration":0.2876981249999915},{"name":"C#6","midi":85,"time":222.73787250000208,"velocity":0.7874015748031497,"duration":0.11408718749999025},{"name":"C6","midi":84,"time":222.85692000000208,"velocity":0.7874015748031497,"duration":0.3422615624999992},{"name":"C5","midi":72,"time":223.33311000000208,"velocity":0.7874015748031497,"duration":0.2331346875000122},{"name":"C5","midi":72,"time":223.80930000000208,"velocity":0.7874015748031497,"duration":0.2331346875000122},{"name":"F#5","midi":78,"time":224.7616800000021,"velocity":0.7874015748031497,"duration":0.11408718749999025},{"name":"G#5","midi":80,"time":224.99977500000207,"velocity":0.7874015748031497,"duration":0.11408718749999025},{"name":"A#5","midi":82,"time":225.11882250000207,"velocity":0.7874015748031497,"duration":0.14384906250000995},{"name":"G#5","midi":80,"time":225.35691750000208,"velocity":0.7874015748031497,"duration":0.11408718749999025},{"name":"F#5","midi":78,"time":225.47596500000208,"velocity":0.7874015748031497,"duration":0.14384906250000995},{"name":"B5","midi":83,"time":225.7140600000021,"velocity":0.7874015748031497,"duration":0.11408718749999025},{"name":"C#6","midi":85,"time":225.95215500000208,"velocity":0.7874015748031497,"duration":0.11408718749999025},{"name":"D#6","midi":87,"time":226.07120250000207,"velocity":0.7874015748031497,"duration":0.14384906250000995},{"name":"C#6","midi":85,"time":226.3092975000021,"velocity":0.7874015748031497,"duration":0.11408718749999025},{"name":"B5","midi":83,"time":226.42834500000208,"velocity":0.7874015748031497,"duration":0.14384906250000995},{"name":"F5","midi":77,"time":226.6664400000021,"velocity":0.7874015748031497,"duration":0.11408718749999025},{"name":"G5","midi":79,"time":226.90453500000208,"velocity":0.7874015748031497,"duration":0.11408718749999025},{"name":"A5","midi":81,"time":227.02358250000208,"velocity":0.7874015748031497,"duration":0.14384906250000995},{"name":"G5","midi":79,"time":227.2616775000021,"velocity":0.7874015748031497,"duration":0.11408718749999025},{"name":"F5","midi":77,"time":227.3807250000021,"velocity":0.7874015748031497,"duration":0.14384906250000995},{"name":"A#5","midi":82,"time":227.6188200000021,"velocity":0.7874015748031497,"duration":0.11408718749999025},{"name":"C6","midi":84,"time":227.8569150000021,"velocity":0.7874015748031497,"duration":0.11408718749999025},{"name":"D6","midi":86,"time":227.97596250000208,"velocity":0.7874015748031497,"duration":0.14384906250000995},{"name":"C6","midi":84,"time":228.2140575000021,"velocity":0.7874015748031497,"duration":0.11408718749999025},{"name":"A#5","midi":82,"time":228.3331050000021,"velocity":0.7874015748031497,"duration":0.14384906250000995},{"name":"D#5","midi":75,"time":228.5712000000021,"velocity":0.7874015748031497,"duration":0.11408718749999025},{"name":"F5","midi":77,"time":228.8092950000021,"velocity":0.7874015748031497,"duration":0.11408718749999025},{"name":"G5","midi":79,"time":228.9283425000021,"velocity":0.7874015748031497,"duration":0.14384906250000995},{"name":"F5","midi":77,"time":229.1664375000021,"velocity":0.7874015748031497,"duration":0.11408718749999025},{"name":"D#5","midi":75,"time":229.2854850000021,"velocity":0.7874015748031497,"duration":0.14384906250000995},{"name":"G#5","midi":80,"time":229.5235800000021,"velocity":0.7874015748031497,"duration":0.11408718749999025},{"name":"A#5","midi":82,"time":229.7616750000021,"velocity":0.7874015748031497,"duration":0.11408718749999025},{"name":"C6","midi":84,"time":229.8807225000021,"velocity":0.7874015748031497,"duration":0.14384906250000995},{"name":"A#5","midi":82,"time":230.1188175000021,"velocity":0.7874015748031497,"duration":0.11408718749999025},{"name":"G#5","midi":80,"time":230.2378650000021,"velocity":0.7874015748031497,"duration":0.14384906250000995},{"name":"G5","midi":79,"time":230.47596000000212,"velocity":0.7874015748031497,"duration":0.11408718749999025},{"name":"F#5","midi":78,"time":230.7140550000021,"velocity":0.7874015748031497,"duration":0.11408718749999025},{"name":"G5","midi":79,"time":230.8331025000021,"velocity":0.7874015748031497,"duration":0.14384906250000995},{"name":"A5","midi":81,"time":231.0711975000021,"velocity":0.7874015748031497,"duration":0.11408718749999025},{"name":"B5","midi":83,"time":231.1902450000021,"velocity":0.7874015748031497,"duration":0.14384906250000995},{"name":"B5","midi":83,"time":231.42834000000212,"velocity":0.7874015748031497,"duration":0.11408718749999025},{"name":"A#5","midi":82,"time":231.6664350000021,"velocity":0.7874015748031497,"duration":0.11408718749999025},{"name":"B5","midi":83,"time":231.7854825000021,"velocity":0.7874015748031497,"duration":0.14384906250000995},{"name":"C6","midi":84,"time":232.02357750000212,"velocity":0.7874015748031497,"duration":0.11408718749999025},{"name":"D6","midi":86,"time":232.1426250000021,"velocity":0.7874015748031497,"duration":0.14384906250000995}],"controlChanges":{"7":[{"number":7,"time":0,"value":0.7086614173228346}],"10":[{"number":10,"time":0,"value":0.6929133858267716}],"91":[{"number":91,"time":0,"value":0.33070866141732286}],"93":[{"number":93,"time":0,"value":0.33070866141732286}]},"id":4,"name":"Recorder / Pan Flute","instrumentNumber":75,"instrument":"pan flute","instrumentFamily":"pipe","channelNumber":3,"isPercussion":false},{"startTime":17.14284,"duration":234.2209959374956,"length":970,"notes":[{"name":"F#1","midi":30,"time":17.14284,"velocity":0.6299212598425197,"duration":0.23313468750000155},{"name":"C#2","midi":37,"time":17.4999825,"velocity":0.6299212598425197,"duration":0.23313468750000155},{"name":"F#1","midi":30,"time":17.857125000000003,"velocity":0.6299212598425197,"duration":0.23313468750000155},{"name":"B1","midi":35,"time":18.095220000000005,"velocity":0.6299212598425197,"duration":0.23313468750000155},{"name":"F#1","midi":30,"time":18.452362500000007,"velocity":0.6299212598425197,"duration":0.23313468750000155},{"name":"B1","midi":35,"time":18.80950500000001,"velocity":0.6299212598425197,"duration":0.23313468750000155},{"name":"F1","midi":29,"time":19.04760000000001,"velocity":0.6299212598425197,"duration":0.23313468750000155},{"name":"C2","midi":36,"time":19.40474250000001,"velocity":0.6299212598425197,"duration":0.23313468750000155},{"name":"F1","midi":29,"time":19.761885000000014,"velocity":0.6299212598425197,"duration":0.23313468750000155},{"name":"A#1","midi":34,"time":19.999980000000015,"velocity":0.6299212598425197,"duration":0.23313468750000155},{"name":"F1","midi":29,"time":20.357122500000017,"velocity":0.6299212598425197,"duration":0.23313468750000155},{"name":"A#1","midi":34,"time":20.71426500000002,"velocity":0.6299212598425197,"duration":0.23313468750000155},{"name":"D#2","midi":39,"time":20.95236000000002,"velocity":0.6299212598425197,"duration":0.23313468750000155},{"name":"A#1","midi":34,"time":21.309502500000022,"velocity":0.6299212598425197,"duration":0.23313468750000155},{"name":"D#2","midi":39,"time":21.666645000000024,"velocity":0.6299212598425197,"duration":0.23313468750000155},{"name":"G#1","midi":32,"time":21.904740000000025,"velocity":0.6299212598425197,"duration":0.23313468750000155},{"name":"D#2","midi":39,"time":22.261882500000027,"velocity":0.6299212598425197,"duration":0.23313468750000155},{"name":"G#1","midi":32,"time":22.61902500000003,"velocity":0.6299212598425197,"duration":0.23313468750000155},{"name":"G1","midi":31,"time":22.85712000000003,"velocity":0.6299212598425197,"duration":0.23313468750000155},{"name":"D2","midi":38,"time":23.214262500000032,"velocity":0.6299212598425197,"duration":0.23313468750000155},{"name":"G1","midi":31,"time":23.571405000000034,"velocity":0.6299212598425197,"duration":0.23313468750000155},{"name":"D2","midi":38,"time":23.809500000000035,"velocity":0.6299212598425197,"duration":0.23313468750000155},{"name":"G1","midi":31,"time":24.166642500000037,"velocity":0.6299212598425197,"duration":0.23313468750000155},{"name":"D2","midi":38,"time":24.52378500000004,"velocity":0.6299212598425197,"duration":0.23313468750000155},{"name":"C2","midi":36,"time":24.76188000000004,"velocity":0.6299212598425197,"duration":0.23313468750000155},{"name":"G1","midi":31,"time":25.119022500000042,"velocity":0.6299212598425197,"duration":0.23313468750000155},{"name":"C2","midi":36,"time":25.476165000000044,"velocity":0.6299212598425197,"duration":0.23313468750000155},{"name":"C2","midi":36,"time":25.714260000000046,"velocity":0.6299212598425197,"duration":0.23313468750000155},{"name":"G1","midi":31,"time":26.071402500000048,"velocity":0.6299212598425197,"duration":0.23313468750000155},{"name":"C2","midi":36,"time":26.42854500000005,"velocity":0.6299212598425197,"duration":0.23313468750000155},{"name":"G#1","midi":32,"time":26.66664000000005,"velocity":0.6299212598425197,"duration":0.23313468750000155},{"name":"D#2","midi":39,"time":27.023782500000053,"velocity":0.6299212598425197,"duration":0.23313468750000155},{"name":"G#1","midi":32,"time":27.380925000000055,"velocity":0.6299212598425197,"duration":0.23313468750000155},{"name":"C2","midi":36,"time":27.619020000000056,"velocity":0.6299212598425197,"duration":0.23313468750000155},{"name":"G1","midi":31,"time":28.09521000000006,"velocity":0.6299212598425197,"duration":0.23313468750000155},{"name":"C2","midi":36,"time":28.33330500000006,"velocity":0.6299212598425197,"duration":0.23313468750000155},{"name":"C2","midi":36,"time":28.57140000000006,"velocity":0.6299212598425197,"duration":0.23313468750000155},{"name":"G1","midi":31,"time":28.928542500000063,"velocity":0.6299212598425197,"duration":0.23313468750000155},{"name":"C2","midi":36,"time":29.285685000000065,"velocity":0.6299212598425197,"duration":0.23313468750000155},{"name":"C2","midi":36,"time":29.523780000000066,"velocity":0.6299212598425197,"duration":0.23313468750000155},{"name":"G1","midi":31,"time":29.880922500000068,"velocity":0.6299212598425197,"duration":0.23313468750000155},{"name":"C2","midi":36,"time":30.23806500000007,"velocity":0.6299212598425197,"duration":0.23313468750000155},{"name":"G#1","midi":32,"time":30.47616000000007,"velocity":0.6299212598425197,"duration":0.23313468750000155},{"name":"D#2","midi":39,"time":30.833302500000073,"velocity":0.6299212598425197,"duration":0.23313468750000155},{"name":"G#1","midi":32,"time":31.190445000000075,"velocity":0.6299212598425197,"duration":0.23313468750000155},{"name":"C2","midi":36,"time":31.428540000000076,"velocity":0.6299212598425197,"duration":0.23313468750000155},{"name":"G1","midi":31,"time":31.90473000000008,"velocity":0.6299212598425197,"duration":0.233134687499998},{"name":"C2","midi":36,"time":32.14282500000008,"velocity":0.6299212598425197,"duration":0.233134687499998},{"name":"C2","midi":36,"time":32.38092000000008,"velocity":0.6299212598425197,"duration":0.233134687499998},{"name":"G1","midi":31,"time":32.738062500000076,"velocity":0.6299212598425197,"duration":0.233134687499998},{"name":"C2","midi":36,"time":33.09520500000007,"velocity":0.6299212598425197,"duration":0.233134687499998},{"name":"C2","midi":36,"time":33.33330000000007,"velocity":0.6299212598425197,"duration":0.233134687499998},{"name":"G1","midi":31,"time":33.69044250000007,"velocity":0.6299212598425197,"duration":0.233134687499998},{"name":"C2","midi":36,"time":34.04758500000006,"velocity":0.6299212598425197,"duration":0.233134687499998},{"name":"G#1","midi":32,"time":34.28568000000006,"velocity":0.6299212598425197,"duration":0.233134687499998},{"name":"D#2","midi":39,"time":34.64282250000006,"velocity":0.6299212598425197,"duration":0.233134687499998},{"name":"G#1","midi":32,"time":34.99996500000005,"velocity":0.6299212598425197,"duration":0.233134687499998},{"name":"C2","midi":36,"time":35.238060000000054,"velocity":0.6299212598425197,"duration":0.233134687499998},{"name":"G1","midi":31,"time":35.71425000000005,"velocity":0.6299212598425197,"duration":0.233134687499998},{"name":"C2","midi":36,"time":35.95234500000005,"velocity":0.6299212598425197,"duration":0.233134687499998},{"name":"C2","midi":36,"time":36.19044000000005,"velocity":0.6299212598425197,"duration":0.233134687499998},{"name":"G1","midi":31,"time":36.54758250000005,"velocity":0.6299212598425197,"duration":0.233134687499998},{"name":"C2","midi":36,"time":36.90472500000004,"velocity":0.6299212598425197,"duration":0.233134687499998},{"name":"C2","midi":36,"time":37.14282000000004,"velocity":0.6299212598425197,"duration":0.233134687499998},{"name":"G1","midi":31,"time":37.49996250000004,"velocity":0.6299212598425197,"duration":0.233134687499998},{"name":"C2","midi":36,"time":37.85710500000003,"velocity":0.6299212598425197,"duration":0.233134687499998},{"name":"C#2","midi":37,"time":38.095200000000034,"velocity":0.6299212598425197,"duration":0.233134687499998},{"name":"G1","midi":31,"time":38.45234250000003,"velocity":0.6299212598425197,"duration":0.233134687499998},{"name":"G1","midi":31,"time":38.80948500000002,"velocity":0.6299212598425197,"duration":0.233134687499998},{"name":"C2","midi":36,"time":39.047580000000025,"velocity":0.6299212598425197,"duration":0.233134687499998},{"name":"G1","midi":31,"time":39.52377000000002,"velocity":0.6299212598425197,"duration":0.233134687499998},{"name":"C2","midi":36,"time":39.76186500000002,"velocity":0.6299212598425197,"duration":0.233134687499998},{"name":"F#2","midi":42,"time":39.99996000000002,"velocity":0.6299212598425197,"duration":0.233134687499998},{"name":"C#2","midi":37,"time":40.35710250000002,"velocity":0.6299212598425197,"duration":0.233134687499998},{"name":"F#2","midi":42,"time":40.71424500000001,"velocity":0.6299212598425197,"duration":0.233134687499998},{"name":"F#2","midi":42,"time":40.952340000000014,"velocity":0.6299212598425197,"duration":0.233134687499998},{"name":"C#2","midi":37,"time":41.30948250000001,"velocity":0.6299212598425197,"duration":0.233134687499998},{"name":"F#2","midi":42,"time":41.666625,"velocity":0.6299212598425197,"duration":0.233134687499998},{"name":"D2","midi":38,"time":41.904720000000005,"velocity":0.6299212598425197,"duration":0.233134687499998},{"name":"A2","midi":45,"time":42.2618625,"velocity":0.6299212598425197,"duration":0.233134687499998},{"name":"D2","midi":38,"time":42.619004999999994,"velocity":0.6299212598425197,"duration":0.233134687499998},{"name":"F#2","midi":42,"time":42.857099999999996,"velocity":0.6299212598425197,"duration":0.233134687499998},{"name":"C#2","midi":37,"time":43.33328999999999,"velocity":0.6299212598425197,"duration":0.233134687499998},{"name":"F#2","midi":42,"time":43.57138499999999,"velocity":0.6299212598425197,"duration":0.233134687499998},{"name":"B1","midi":35,"time":43.80947999999999,"velocity":0.6299212598425197,"duration":0.233134687499998},{"name":"F#2","midi":42,"time":44.16662249999999,"velocity":0.6299212598425197,"duration":0.233134687499998},{"name":"B1","midi":35,"time":44.52376499999998,"velocity":0.6299212598425197,"duration":0.233134687499998},{"name":"F#2","midi":42,"time":44.761859999999984,"velocity":0.6299212598425197,"duration":0.233134687499998},{"name":"C#2","midi":37,"time":45.11900249999998,"velocity":0.6299212598425197,"duration":0.233134687499998},{"name":"F#2","midi":42,"time":45.476144999999974,"velocity":0.6299212598425197,"duration":0.233134687499998},{"name":"G#2","midi":44,"time":45.714239999999975,"velocity":0.6299212598425197,"duration":0.233134687499998},{"name":"D#2","midi":39,"time":46.07138249999997,"velocity":0.6299212598425197,"duration":0.233134687499998},{"name":"G#2","midi":44,"time":46.428524999999965,"velocity":0.6299212598425197,"duration":0.233134687499998},{"name":"C#2","midi":37,"time":46.666619999999966,"velocity":0.6299212598425197,"duration":0.233134687499998},{"name":"G#2","midi":44,"time":47.14280999999996,"velocity":0.6299212598425197,"duration":0.233134687499998},{"name":"C#2","midi":37,"time":47.38090499999996,"velocity":0.6299212598425197,"duration":0.233134687499998},{"name":"F#2","midi":42,"time":47.618999999999964,"velocity":0.6299212598425197,"duration":0.233134687499998},{"name":"C#2","midi":37,"time":47.97614249999996,"velocity":0.6299212598425197,"duration":0.233134687499998},{"name":"F#2","midi":42,"time":48.333284999999954,"velocity":0.6299212598425197,"duration":0.233134687499998},{"name":"F#2","midi":42,"time":48.571379999999955,"velocity":0.6299212598425197,"duration":0.233134687499998},{"name":"C#2","midi":37,"time":48.92852249999995,"velocity":0.6299212598425197,"duration":0.233134687499998},{"name":"F#2","midi":42,"time":49.285664999999945,"velocity":0.6299212598425197,"duration":0.233134687499998},{"name":"C2","midi":36,"time":49.523759999999946,"velocity":0.6299212598425197,"duration":0.233134687499998},{"name":"G2","midi":43,"time":49.88090249999994,"velocity":0.6299212598425197,"duration":0.233134687499998},{"name":"C2","midi":36,"time":50.238044999999936,"velocity":0.6299212598425197,"duration":0.233134687499998},{"name":"C2","midi":36,"time":50.47613999999994,"velocity":0.6299212598425197,"duration":0.233134687499998},{"name":"C2","midi":36,"time":50.95232999999993,"velocity":0.6299212598425197,"duration":0.233134687499998},{"name":"G2","midi":43,"time":51.190424999999934,"velocity":0.6299212598425197,"duration":0.233134687499998},{"name":"C#2","midi":37,"time":51.428519999999935,"velocity":0.6299212598425197,"duration":0.233134687499998},{"name":"G#1","midi":32,"time":51.78566249999993,"velocity":0.6299212598425197,"duration":0.233134687499998},{"name":"C#2","midi":37,"time":52.142804999999925,"velocity":0.6299212598425197,"duration":0.233134687499998},{"name":"G2","midi":43,"time":52.380899999999926,"velocity":0.6299212598425197,"duration":0.233134687499998},{"name":"D2","midi":38,"time":52.73804249999992,"velocity":0.6299212598425197,"duration":0.233134687499998},{"name":"G2","midi":43,"time":53.095184999999915,"velocity":0.6299212598425197,"duration":0.233134687499998},{"name":"C2","midi":36,"time":53.33327999999992,"velocity":0.6299212598425197,"duration":0.233134687499998},{"name":"G2","midi":43,"time":53.69042249999991,"velocity":0.6299212598425197,"duration":0.233134687499998},{"name":"C2","midi":36,"time":54.047564999999906,"velocity":0.6299212598425197,"duration":0.233134687499998},{"name":"C2","midi":36,"time":54.28565999999991,"velocity":0.6299212598425197,"duration":0.233134687499998},{"name":"G2","midi":43,"time":54.7618499999999,"velocity":0.6299212598425197,"duration":0.233134687499998},{"name":"C2","midi":36,"time":54.999944999999904,"velocity":0.6299212598425197,"duration":0.233134687499998},{"name":"F#2","midi":42,"time":55.238039999999906,"velocity":0.6299212598425197,"duration":0.233134687499998},{"name":"C#2","midi":37,"time":55.5951824999999,"velocity":0.6299212598425197,"duration":0.233134687499998},{"name":"F#2","midi":42,"time":55.952324999999895,"velocity":0.6299212598425197,"duration":0.233134687499998},{"name":"F#2","midi":42,"time":56.1904199999999,"velocity":0.6299212598425197,"duration":0.233134687499998},{"name":"C#2","midi":37,"time":56.54756249999989,"velocity":0.6299212598425197,"duration":0.233134687499998},{"name":"F#2","midi":42,"time":56.904704999999886,"velocity":0.6299212598425197,"duration":0.233134687499998},{"name":"D2","midi":38,"time":57.14279999999989,"velocity":0.6299212598425197,"duration":0.233134687499998},{"name":"A2","midi":45,"time":57.49994249999988,"velocity":0.6299212598425197,"duration":0.233134687499998},{"name":"D2","midi":38,"time":57.85708499999988,"velocity":0.6299212598425197,"duration":0.233134687499998},{"name":"F#2","midi":42,"time":58.09517999999988,"velocity":0.6299212598425197,"duration":0.233134687499998},{"name":"C#2","midi":37,"time":58.571369999999874,"velocity":0.6299212598425197,"duration":0.233134687499998},{"name":"F#2","midi":42,"time":58.809464999999875,"velocity":0.6299212598425197,"duration":0.233134687499998},{"name":"B1","midi":35,"time":59.047559999999876,"velocity":0.6299212598425197,"duration":0.233134687499998},{"name":"F#2","midi":42,"time":59.40470249999987,"velocity":0.6299212598425197,"duration":0.233134687499998},{"name":"B1","midi":35,"time":59.761844999999866,"velocity":0.6299212598425197,"duration":0.233134687499998},{"name":"F#2","midi":42,"time":59.99993999999987,"velocity":0.6299212598425197,"duration":0.233134687499998},{"name":"C#2","midi":37,"time":60.35708249999986,"velocity":0.6299212598425197,"duration":0.233134687499998},{"name":"F#2","midi":42,"time":60.71422499999986,"velocity":0.6299212598425197,"duration":0.233134687499998},{"name":"G#2","midi":44,"time":60.95231999999986,"velocity":0.6299212598425197,"duration":0.233134687499998},{"name":"D#2","midi":39,"time":61.30946249999985,"velocity":0.6299212598425197,"duration":0.233134687499998},{"name":"G#2","midi":44,"time":61.66660499999985,"velocity":0.6299212598425197,"duration":0.233134687499998},{"name":"C#2","midi":37,"time":61.90469999999985,"velocity":0.6299212598425197,"duration":0.233134687499998},{"name":"G#2","midi":44,"time":62.380889999999845,"velocity":0.6299212598425197,"duration":0.233134687499998},{"name":"C#2","midi":37,"time":62.618984999999846,"velocity":0.6299212598425197,"duration":0.233134687499998},{"name":"F#2","midi":42,"time":62.85707999999985,"velocity":0.6299212598425197,"duration":0.233134687499998},{"name":"C#2","midi":37,"time":63.21422249999984,"velocity":0.6299212598425197,"duration":0.233134687499998},{"name":"F#2","midi":42,"time":63.57136499999984,"velocity":0.6299212598425197,"duration":0.233134687499998},{"name":"F#2","midi":42,"time":63.80945999999984,"velocity":0.6299212598425197,"duration":0.2331346875000051},{"name":"C#2","midi":37,"time":64.16660249999984,"velocity":0.6299212598425197,"duration":0.233134687499998},{"name":"F#2","midi":42,"time":64.52374499999983,"velocity":0.6299212598425197,"duration":0.233134687499998},{"name":"A#1","midi":34,"time":64.76183999999984,"velocity":0.6299212598425197,"duration":0.233134687499998},{"name":"D2","midi":38,"time":65.11898249999983,"velocity":0.6299212598425197,"duration":0.233134687499998},{"name":"D2","midi":38,"time":65.47612499999983,"velocity":0.6299212598425197,"duration":0.233134687499998},{"name":"D#2","midi":39,"time":65.71421999999983,"velocity":0.6299212598425197,"duration":0.233134687499998},{"name":"A#1","midi":34,"time":66.19040999999983,"velocity":0.6299212598425197,"duration":0.233134687499998},{"name":"D#2","midi":39,"time":66.42850499999983,"velocity":0.6299212598425197,"duration":0.233134687499998},{"name":"G#2","midi":44,"time":66.66659999999983,"velocity":0.6299212598425197,"duration":0.233134687499998},{"name":"D#2","midi":39,"time":67.02374249999983,"velocity":0.6299212598425197,"duration":0.233134687499998},{"name":"G#2","midi":44,"time":67.38088499999982,"velocity":0.6299212598425197,"duration":0.233134687499998},{"name":"G#2","midi":44,"time":67.61897999999982,"velocity":0.6299212598425197,"duration":0.233134687499998},{"name":"D#2","midi":39,"time":67.97612249999982,"velocity":0.6299212598425197,"duration":0.233134687499998},{"name":"G#2","midi":44,"time":68.33326499999981,"velocity":0.6299212598425197,"duration":0.233134687499998},{"name":"C#2","midi":37,"time":68.57135999999981,"velocity":0.6299212598425197,"duration":0.233134687499998},{"name":"G#2","midi":44,"time":68.92850249999981,"velocity":0.6299212598425197,"duration":0.233134687499998},{"name":"C#2","midi":37,"time":69.2856449999998,"velocity":0.6299212598425197,"duration":0.233134687499998},{"name":"C#2","midi":37,"time":69.5237399999998,"velocity":0.6299212598425197,"duration":0.233134687499998},{"name":"G#2","midi":44,"time":69.99992999999981,"velocity":0.6299212598425197,"duration":0.233134687499998},{"name":"C#2","midi":37,"time":70.23802499999981,"velocity":0.6299212598425197,"duration":0.233134687499998},{"name":"F#1","midi":30,"time":70.47611999999981,"velocity":0.6299212598425197,"duration":0.233134687499998},{"name":"C#2","midi":37,"time":70.8332624999998,"velocity":0.6299212598425197,"duration":0.233134687499998},{"name":"F#1","midi":30,"time":71.1904049999998,"velocity":0.6299212598425197,"duration":0.233134687499998},{"name":"B1","midi":35,"time":71.4284999999998,"velocity":0.6299212598425197,"duration":0.233134687499998},{"name":"F#1","midi":30,"time":71.7856424999998,"velocity":0.6299212598425197,"duration":0.233134687499998},{"name":"B1","midi":35,"time":72.14278499999979,"velocity":0.6299212598425197,"duration":0.233134687499998},{"name":"F1","midi":29,"time":72.38087999999979,"velocity":0.6299212598425197,"duration":0.233134687499998},{"name":"C2","midi":36,"time":72.73802249999979,"velocity":0.6299212598425197,"duration":0.233134687499998},{"name":"F1","midi":29,"time":73.09516499999978,"velocity":0.6299212598425197,"duration":0.233134687499998},{"name":"A#1","midi":34,"time":73.33325999999978,"velocity":0.6299212598425197,"duration":0.233134687499998},{"name":"F1","midi":29,"time":73.69040249999978,"velocity":0.6299212598425197,"duration":0.233134687499998},{"name":"A#1","midi":34,"time":74.04754499999977,"velocity":0.6299212598425197,"duration":0.233134687499998},{"name":"D#2","midi":39,"time":74.28563999999977,"velocity":0.6299212598425197,"duration":0.233134687499998},{"name":"A#1","midi":34,"time":74.64278249999977,"velocity":0.6299212598425197,"duration":0.233134687499998},{"name":"D#2","midi":39,"time":74.99992499999976,"velocity":0.6299212598425197,"duration":0.233134687499998},{"name":"G#1","midi":32,"time":75.23801999999976,"velocity":0.6299212598425197,"duration":0.233134687499998},{"name":"D#2","midi":39,"time":75.59516249999976,"velocity":0.6299212598425197,"duration":0.233134687499998},{"name":"G#1","midi":32,"time":75.95230499999975,"velocity":0.6299212598425197,"duration":0.233134687499998},{"name":"G1","midi":31,"time":76.19039999999976,"velocity":0.6299212598425197,"duration":0.233134687499998},{"name":"D2","midi":38,"time":76.54754249999975,"velocity":0.6299212598425197,"duration":0.233134687499998},{"name":"G1","midi":31,"time":76.90468499999974,"velocity":0.6299212598425197,"duration":0.233134687499998},{"name":"D2","midi":38,"time":77.14277999999975,"velocity":0.6299212598425197,"duration":0.233134687499998},{"name":"G1","midi":31,"time":77.49992249999974,"velocity":0.6299212598425197,"duration":0.233134687499998},{"name":"D2","midi":38,"time":77.85706499999974,"velocity":0.6299212598425197,"duration":0.233134687499998},{"name":"C2","midi":36,"time":85.71419999999974,"velocity":0.6299212598425197,"duration":0.233134687499998},{"name":"G1","midi":31,"time":86.07134249999973,"velocity":0.6299212598425197,"duration":0.233134687499998},{"name":"C2","midi":36,"time":86.42848499999972,"velocity":0.6299212598425197,"duration":0.233134687499998},{"name":"C2","midi":36,"time":86.66657999999973,"velocity":0.6299212598425197,"duration":0.233134687499998},{"name":"G1","midi":31,"time":87.02372249999972,"velocity":0.6299212598425197,"duration":0.233134687499998},{"name":"C2","midi":36,"time":87.38086499999972,"velocity":0.6299212598425197,"duration":0.233134687499998},{"name":"G#1","midi":32,"time":87.61895999999972,"velocity":0.6299212598425197,"duration":0.233134687499998},{"name":"D#2","midi":39,"time":87.97610249999971,"velocity":0.6299212598425197,"duration":0.233134687499998},{"name":"G#1","midi":32,"time":88.3332449999997,"velocity":0.6299212598425197,"duration":0.233134687499998},{"name":"C2","midi":36,"time":88.57133999999971,"velocity":0.6299212598425197,"duration":0.233134687499998},{"name":"G1","midi":31,"time":89.04752999999971,"velocity":0.6299212598425197,"duration":0.233134687499998},{"name":"C2","midi":36,"time":89.28562499999971,"velocity":0.6299212598425197,"duration":0.233134687499998},{"name":"C2","midi":36,"time":89.52371999999971,"velocity":0.6299212598425197,"duration":0.233134687499998},{"name":"G1","midi":31,"time":89.88086249999971,"velocity":0.6299212598425197,"duration":0.233134687499998},{"name":"C2","midi":36,"time":90.2380049999997,"velocity":0.6299212598425197,"duration":0.233134687499998},{"name":"C2","midi":36,"time":90.4760999999997,"velocity":0.6299212598425197,"duration":0.233134687499998},{"name":"G1","midi":31,"time":90.8332424999997,"velocity":0.6299212598425197,"duration":0.233134687499998},{"name":"C2","midi":36,"time":91.1903849999997,"velocity":0.6299212598425197,"duration":0.233134687499998},{"name":"C#2","midi":37,"time":91.4284799999997,"velocity":0.6299212598425197,"duration":0.233134687499998},{"name":"G1","midi":31,"time":91.78562249999969,"velocity":0.6299212598425197,"duration":0.233134687499998},{"name":"G1","midi":31,"time":92.14276499999968,"velocity":0.6299212598425197,"duration":0.233134687499998},{"name":"C2","midi":36,"time":92.38085999999969,"velocity":0.6299212598425197,"duration":0.233134687499998},{"name":"G1","midi":31,"time":92.85704999999969,"velocity":0.6299212598425197,"duration":0.233134687499998},{"name":"C2","midi":36,"time":93.09514499999969,"velocity":0.6299212598425197,"duration":0.233134687499998},{"name":"C2","midi":36,"time":93.33323999999969,"velocity":0.6299212598425197,"duration":0.233134687499998},{"name":"G2","midi":43,"time":93.8094299999997,"velocity":0.6299212598425197,"duration":0.233134687499998},{"name":"G2","midi":43,"time":94.2856199999997,"velocity":0.6299212598425197,"duration":0.233134687499998},{"name":"C2","midi":36,"time":94.7618099999997,"velocity":0.6299212598425197,"duration":0.233134687499998},{"name":"F#2","midi":42,"time":95.2379999999997,"velocity":0.6299212598425197,"duration":0.233134687499998},{"name":"G#2","midi":44,"time":95.4760949999997,"velocity":0.6299212598425197,"duration":0.233134687499998},{"name":"A#2","midi":46,"time":95.7141899999997,"velocity":0.6299212598425197,"duration":0.233134687499998},{"name":"G#2","midi":44,"time":95.9522849999997,"velocity":0.6299212598425197,"duration":0.233134687499998},{"name":"F#2","midi":42,"time":96.1903799999997,"velocity":0.6299212598425197,"duration":0.233134687499998},{"name":"C#2","midi":37,"time":96.66656999999971,"velocity":0.6299212598425197,"duration":0.233134687499998},{"name":"C2","midi":36,"time":97.14275999999971,"velocity":0.6299212598425197,"duration":0.233134687499998},{"name":"G2","midi":43,"time":97.61894999999971,"velocity":0.6299212598425197,"duration":0.233134687499998},{"name":"G2","midi":43,"time":98.09513999999972,"velocity":0.6299212598425197,"duration":0.233134687499998},{"name":"C2","midi":36,"time":98.57132999999972,"velocity":0.6299212598425197,"duration":0.233134687499998},{"name":"A#2","midi":46,"time":99.04751999999972,"velocity":0.6299212598425197,"duration":0.233134687499998},{"name":"C3","midi":48,"time":99.40466249999972,"velocity":0.6299212598425197,"duration":0.11408718750000446},{"name":"A#2","midi":46,"time":99.52370999999972,"velocity":0.6299212598425197,"duration":0.233134687499998},{"name":"F#2","midi":42,"time":99.76180499999973,"velocity":0.6299212598425197,"duration":0.233134687499998},{"name":"A#2","midi":46,"time":99.99989999999973,"velocity":0.6299212598425197,"duration":0.233134687499998},{"name":"C3","midi":48,"time":100.35704249999972,"velocity":0.6299212598425197,"duration":0.11408718750000446},{"name":"A#2","midi":46,"time":100.47608999999973,"velocity":0.6299212598425197,"duration":0.233134687499998},{"name":"F#2","midi":42,"time":100.71418499999973,"velocity":0.6299212598425197,"duration":0.233134687499998},{"name":"C2","midi":36,"time":100.95227999999973,"velocity":0.6299212598425197,"duration":0.233134687499998},{"name":"G2","midi":43,"time":101.42846999999973,"velocity":0.6299212598425197,"duration":0.233134687499998},{"name":"G2","midi":43,"time":101.90465999999974,"velocity":0.6299212598425197,"duration":0.233134687499998},{"name":"C2","midi":36,"time":102.38084999999974,"velocity":0.6299212598425197,"duration":0.233134687499998},{"name":"F#2","midi":42,"time":102.85703999999974,"velocity":0.6299212598425197,"duration":0.233134687499998},{"name":"G#2","midi":44,"time":103.09513499999974,"velocity":0.6299212598425197,"duration":0.233134687499998},{"name":"A#2","midi":46,"time":103.33322999999974,"velocity":0.6299212598425197,"duration":0.233134687499998},{"name":"G#2","midi":44,"time":103.57132499999975,"velocity":0.6299212598425197,"duration":0.233134687499998},{"name":"F#2","midi":42,"time":103.80941999999975,"velocity":0.6299212598425197,"duration":0.233134687499998},{"name":"C#2","midi":37,"time":104.28560999999975,"velocity":0.6299212598425197,"duration":0.233134687499998},{"name":"C2","midi":36,"time":104.76179999999975,"velocity":0.6299212598425197,"duration":0.233134687499998},{"name":"G2","midi":43,"time":105.23798999999975,"velocity":0.6299212598425197,"duration":0.233134687499998},{"name":"G#2","midi":44,"time":105.71417999999976,"velocity":0.6299212598425197,"duration":0.233134687499998},{"name":"G#2","midi":44,"time":106.19036999999976,"velocity":0.6299212598425197,"duration":0.233134687499998},{"name":"C#3","midi":49,"time":106.54751249999975,"velocity":0.6299212598425197,"duration":0.11408718750000446},{"name":"C3","midi":48,"time":106.66655999999976,"velocity":0.6299212598425197,"duration":0.233134687499998},{"name":"C2","midi":36,"time":107.14274999999977,"velocity":0.6299212598425197,"duration":0.233134687499998},{"name":"C2","midi":36,"time":107.61893999999977,"velocity":0.6299212598425197,"duration":0.233134687499998},{"name":"F#1","midi":30,"time":108.57131999999976,"velocity":0.6299212598425197,"duration":0.233134687499998},{"name":"C#2","midi":37,"time":108.92846249999975,"velocity":0.6299212598425197,"duration":0.233134687499998},{"name":"F#1","midi":30,"time":109.28560499999975,"velocity":0.6299212598425197,"duration":0.233134687499998},{"name":"B1","midi":35,"time":109.52369999999975,"velocity":0.6299212598425197,"duration":0.233134687499998},{"name":"F#1","midi":30,"time":109.88084249999974,"velocity":0.6299212598425197,"duration":0.233134687499998},{"name":"B1","midi":35,"time":110.23798499999974,"velocity":0.6299212598425197,"duration":0.233134687499998},{"name":"F1","midi":29,"time":110.47607999999974,"velocity":0.6299212598425197,"duration":0.233134687499998},{"name":"C2","midi":36,"time":110.83322249999974,"velocity":0.6299212598425197,"duration":0.233134687499998},{"name":"F1","midi":29,"time":111.19036499999973,"velocity":0.6299212598425197,"duration":0.233134687499998},{"name":"A#1","midi":34,"time":111.42845999999973,"velocity":0.6299212598425197,"duration":0.233134687499998},{"name":"F1","midi":29,"time":111.78560249999973,"velocity":0.6299212598425197,"duration":0.233134687499998},{"name":"A#1","midi":34,"time":112.14274499999972,"velocity":0.6299212598425197,"duration":0.233134687499998},{"name":"D#2","midi":39,"time":112.38083999999972,"velocity":0.6299212598425197,"duration":0.233134687499998},{"name":"A#1","midi":34,"time":112.73798249999972,"velocity":0.6299212598425197,"duration":0.233134687499998},{"name":"D#2","midi":39,"time":113.09512499999971,"velocity":0.6299212598425197,"duration":0.233134687499998},{"name":"G#1","midi":32,"time":113.33321999999971,"velocity":0.6299212598425197,"duration":0.233134687499998},{"name":"D#2","midi":39,"time":113.69036249999971,"velocity":0.6299212598425197,"duration":0.233134687499998},{"name":"G#1","midi":32,"time":114.0475049999997,"velocity":0.6299212598425197,"duration":0.233134687499998},{"name":"G1","midi":31,"time":114.2855999999997,"velocity":0.6299212598425197,"duration":0.233134687499998},{"name":"D2","midi":38,"time":114.6427424999997,"velocity":0.6299212598425197,"duration":0.233134687499998},{"name":"G1","midi":31,"time":114.9998849999997,"velocity":0.6299212598425197,"duration":0.233134687499998},{"name":"D2","midi":38,"time":115.2379799999997,"velocity":0.6299212598425197,"duration":0.233134687499998},{"name":"G1","midi":31,"time":115.59512249999969,"velocity":0.6299212598425197,"duration":0.233134687499998},{"name":"D2","midi":38,"time":115.95226499999968,"velocity":0.6299212598425197,"duration":0.233134687499998},{"name":"C3","midi":48,"time":116.19035999999969,"velocity":0.007874015748031496,"duration":0.2876981250000057},{"name":"E3","midi":52,"time":116.42845499999969,"velocity":0.14173228346456693,"duration":0.17361093750000123},{"name":"G3","midi":55,"time":116.42845499999969,"velocity":0.14173228346456693,"duration":0.17361093750000123},{"name":"E3","midi":52,"time":116.90464499999969,"velocity":0.4251968503937008,"duration":0.17361093750000123},{"name":"G3","midi":55,"time":116.90464499999969,"velocity":0.4251968503937008,"duration":0.17361093750000123},{"name":"C3","midi":48,"time":117.14273999999969,"velocity":0.5669291338582677,"duration":0.2876981250000057},{"name":"G3","midi":55,"time":117.38083499999969,"velocity":0.7086614173228346,"duration":0.17361093750000123},{"name":"E3","midi":52,"time":117.38083499999969,"velocity":0.7086614173228346,"duration":0.17361093750000123},{"name":"G2","midi":43,"time":117.6189299999997,"velocity":0.8503937007874016,"duration":0.2876981250000057},{"name":"G3","midi":55,"time":117.8570249999997,"velocity":0.9921259842519685,"duration":0.17361093750000123},{"name":"E3","midi":52,"time":117.8570249999997,"velocity":0.9921259842519685,"duration":0.17361093750000123},{"name":"C3","midi":48,"time":118.0951199999997,"velocity":1,"duration":0.2876981250000057},{"name":"G3","midi":55,"time":118.3332149999997,"velocity":1,"duration":0.17361093750000123},{"name":"E3","midi":52,"time":118.3332149999997,"velocity":1,"duration":0.17361093750000123},{"name":"G3","midi":55,"time":118.8094049999997,"velocity":1,"duration":0.17361093750000123},{"name":"E3","midi":52,"time":118.8094049999997,"velocity":1,"duration":0.17361093750000123},{"name":"C3","midi":48,"time":119.0474999999997,"velocity":1,"duration":0.2876981250000057},{"name":"G3","midi":55,"time":119.2855949999997,"velocity":1,"duration":0.17361093750000123},{"name":"E3","midi":52,"time":119.2855949999997,"velocity":1,"duration":0.17361093750000123},{"name":"G2","midi":43,"time":119.5236899999997,"velocity":1,"duration":0.2876981250000057},{"name":"G3","midi":55,"time":119.7617849999997,"velocity":1,"duration":0.17361093750000123},{"name":"E3","midi":52,"time":119.7617849999997,"velocity":1,"duration":0.17361093750000123},{"name":"G#2","midi":44,"time":119.9998799999997,"velocity":1,"duration":0.27281718749999584},{"name":"F#3","midi":54,"time":120.23797499999971,"velocity":1,"duration":0.17361093750000123},{"name":"D#3","midi":51,"time":120.23797499999971,"velocity":1,"duration":0.17361093750000123},{"name":"F#3","midi":54,"time":120.71416499999971,"velocity":1,"duration":0.17361093750000123},{"name":"D#3","midi":51,"time":120.71416499999971,"velocity":1,"duration":0.17361093750000123},{"name":"C3","midi":48,"time":120.95225999999971,"velocity":1,"duration":0.2876981250000057},{"name":"G3","midi":55,"time":121.19035499999971,"velocity":1,"duration":0.17361093750000123},{"name":"E3","midi":52,"time":121.19035499999971,"velocity":1,"duration":0.17361093750000123},{"name":"G2","midi":43,"time":121.42844999999971,"velocity":1,"duration":0.2876981250000057},{"name":"G3","midi":55,"time":121.66654499999972,"velocity":1,"duration":0.17361093750000123},{"name":"E3","midi":52,"time":121.66654499999972,"velocity":1,"duration":0.17361093750000123},{"name":"C3","midi":48,"time":121.90463999999972,"velocity":1,"duration":0.2876981250000057},{"name":"G3","midi":55,"time":122.14273499999972,"velocity":1,"duration":0.17361093750000123},{"name":"E3","midi":52,"time":122.14273499999972,"velocity":1,"duration":0.17361093750000123},{"name":"G3","midi":55,"time":122.61892499999972,"velocity":1,"duration":0.17361093750000123},{"name":"E3","midi":52,"time":122.61892499999972,"velocity":1,"duration":0.17361093750000123},{"name":"C3","midi":48,"time":122.85701999999972,"velocity":1,"duration":0.2876981250000057},{"name":"G3","midi":55,"time":123.09511499999972,"velocity":1,"duration":0.17361093750000123},{"name":"E3","midi":52,"time":123.09511499999972,"velocity":1,"duration":0.17361093750000123},{"name":"G2","midi":43,"time":123.33320999999972,"velocity":1,"duration":0.2876981250000057},{"name":"G3","midi":55,"time":123.57130499999973,"velocity":1,"duration":0.17361093750000123},{"name":"E3","midi":52,"time":123.57130499999973,"velocity":1,"duration":0.17361093750000123},{"name":"G#2","midi":44,"time":123.80939999999973,"velocity":1,"duration":0.27281718749999584},{"name":"F#3","midi":54,"time":124.04749499999973,"velocity":1,"duration":0.17361093750000123},{"name":"D#3","midi":51,"time":124.04749499999973,"velocity":1,"duration":0.17361093750000123},{"name":"F#3","midi":54,"time":124.52368499999973,"velocity":1,"duration":0.17361093750000123},{"name":"D#3","midi":51,"time":124.52368499999973,"velocity":1,"duration":0.17361093750000123},{"name":"C3","midi":48,"time":124.76177999999973,"velocity":1,"duration":0.2876981250000057},{"name":"G3","midi":55,"time":124.99987499999973,"velocity":1,"duration":0.17361093750000123},{"name":"E3","midi":52,"time":124.99987499999973,"velocity":1,"duration":0.17361093750000123},{"name":"G2","midi":43,"time":125.23796999999973,"velocity":1,"duration":0.2876981250000057},{"name":"G3","midi":55,"time":125.47606499999974,"velocity":1,"duration":0.17361093750000123},{"name":"E3","midi":52,"time":125.47606499999974,"velocity":1,"duration":0.17361093750000123},{"name":"C3","midi":48,"time":125.71415999999974,"velocity":1,"duration":0.2876981250000057},{"name":"G3","midi":55,"time":125.95225499999974,"velocity":1,"duration":0.17361093750000123},{"name":"E3","midi":52,"time":125.95225499999974,"velocity":1,"duration":0.17361093750000123},{"name":"G3","midi":55,"time":126.42844499999974,"velocity":1,"duration":0.17361093750000123},{"name":"E3","midi":52,"time":126.42844499999974,"velocity":1,"duration":0.17361093750000123},{"name":"C3","midi":48,"time":126.66653999999974,"velocity":1,"duration":0.2876981250000057},{"name":"G3","midi":55,"time":126.90463499999974,"velocity":1,"duration":0.17361093750000123},{"name":"E3","midi":52,"time":126.90463499999974,"velocity":1,"duration":0.17361093750000123},{"name":"G2","midi":43,"time":127.14272999999974,"velocity":1,"duration":0.2876981250000057},{"name":"G3","midi":55,"time":127.38082499999975,"velocity":1,"duration":0.17361093750000123},{"name":"E3","midi":52,"time":127.38082499999975,"velocity":1,"duration":0.17361093750000123},{"name":"G#2","midi":44,"time":127.61891999999975,"velocity":1,"duration":0.27281718749999584},{"name":"F#3","midi":54,"time":127.85701499999975,"velocity":1,"duration":0.17361093749998702},{"name":"D#3","midi":51,"time":127.85701499999975,"velocity":1,"duration":0.17361093749998702},{"name":"F#3","midi":54,"time":128.33320499999974,"velocity":1,"duration":0.17361093750000123},{"name":"D#3","midi":51,"time":128.33320499999974,"velocity":1,"duration":0.17361093750000123},{"name":"C3","midi":48,"time":128.57129999999972,"velocity":1,"duration":0.2876981249999915},{"name":"G3","midi":55,"time":128.8093949999997,"velocity":1,"duration":0.17361093750000123},{"name":"E3","midi":52,"time":128.8093949999997,"velocity":1,"duration":0.17361093750000123},{"name":"G2","midi":43,"time":129.0474899999997,"velocity":1,"duration":0.2876981249999915},{"name":"G3","midi":55,"time":129.28558499999968,"velocity":1,"duration":0.17361093750000123},{"name":"E3","midi":52,"time":129.28558499999968,"velocity":1,"duration":0.17361093750000123},{"name":"C3","midi":48,"time":129.52367999999967,"velocity":1,"duration":0.2876981249999915},{"name":"G3","midi":55,"time":129.76177499999966,"velocity":1,"duration":0.17361093750000123},{"name":"E3","midi":52,"time":129.76177499999966,"velocity":1,"duration":0.17361093750000123},{"name":"G3","midi":55,"time":130.23796499999966,"velocity":1,"duration":0.17361093750000123},{"name":"E3","midi":52,"time":130.23796499999966,"velocity":1,"duration":0.17361093750000123},{"name":"C3","midi":48,"time":130.47605999999965,"velocity":1,"duration":0.2876981249999915},{"name":"G3","midi":55,"time":130.71415499999964,"velocity":1,"duration":0.17361093750000123},{"name":"E3","midi":52,"time":130.71415499999964,"velocity":1,"duration":0.17361093750000123},{"name":"G2","midi":43,"time":130.95224999999962,"velocity":1,"duration":0.2876981249999915},{"name":"G3","midi":55,"time":131.1903449999996,"velocity":1,"duration":0.17361093750000123},{"name":"E3","midi":52,"time":131.1903449999996,"velocity":1,"duration":0.17361093750000123},{"name":"C#3","midi":49,"time":131.4284399999996,"velocity":1,"duration":0.2876981249999915},{"name":"F3","midi":53,"time":131.66653499999958,"velocity":1,"duration":0.17361093750000123},{"name":"G#3","midi":56,"time":131.66653499999958,"velocity":1,"duration":0.17361093750000123},{"name":"G2","midi":43,"time":131.90462999999957,"velocity":1,"duration":0.2876981249999915},{"name":"F3","midi":53,"time":132.14272499999956,"velocity":1,"duration":0.17361093750000123},{"name":"G3","midi":55,"time":132.14272499999956,"velocity":1,"duration":0.17361093750000123},{"name":"C3","midi":48,"time":132.38081999999955,"velocity":1,"duration":0.2876981249999915},{"name":"G3","midi":55,"time":132.61891499999953,"velocity":1,"duration":0.17361093750000123},{"name":"E3","midi":52,"time":132.61891499999953,"velocity":1,"duration":0.17361093750000123},{"name":"G2","midi":43,"time":132.85700999999952,"velocity":1,"duration":0.2876981249999915},{"name":"G3","midi":55,"time":133.0951049999995,"velocity":1,"duration":0.17361093750000123},{"name":"E3","midi":52,"time":133.0951049999995,"velocity":1,"duration":0.17361093750000123},{"name":"F#2","midi":42,"time":133.3331999999995,"velocity":1,"duration":0.2876981249999915},{"name":"A#3","midi":58,"time":133.57129499999948,"velocity":1,"duration":0.17361093750000123},{"name":"C#4","midi":61,"time":133.57129499999948,"velocity":1,"duration":0.17361093750000123},{"name":"C#4","midi":61,"time":134.04748499999948,"velocity":1,"duration":0.17361093750000123},{"name":"A#3","midi":58,"time":134.04748499999948,"velocity":1,"duration":0.17361093750000123},{"name":"B2","midi":47,"time":134.28557999999947,"velocity":1,"duration":0.2876981249999915},{"name":"B3","midi":59,"time":134.52367499999946,"velocity":1,"duration":0.17361093750000123},{"name":"D#4","midi":63,"time":134.52367499999946,"velocity":1,"duration":0.17361093750000123},{"name":"F#3","midi":54,"time":134.76176999999944,"velocity":1,"duration":0.2876981249999915},{"name":"B3","midi":59,"time":134.99986499999943,"velocity":1,"duration":0.17361093750000123},{"name":"D#4","midi":63,"time":134.99986499999943,"velocity":1,"duration":0.17361093750000123},{"name":"F3","midi":53,"time":135.23795999999942,"velocity":1,"duration":0.2876981249999915},{"name":"A3","midi":57,"time":135.4760549999994,"velocity":1,"duration":0.17361093750000123},{"name":"C4","midi":60,"time":135.4760549999994,"velocity":1,"duration":0.17361093750000123},{"name":"C4","midi":60,"time":135.9522449999994,"velocity":1,"duration":0.17361093750000123},{"name":"A3","midi":57,"time":135.9522449999994,"velocity":1,"duration":0.17361093750000123},{"name":"A#2","midi":46,"time":136.1903399999994,"velocity":1,"duration":0.2331346875000122},{"name":"A#3","midi":58,"time":136.4284349999994,"velocity":1,"duration":0.17361093750000123},{"name":"D4","midi":62,"time":136.4284349999994,"velocity":1,"duration":0.17361093750000123},{"name":"F3","midi":53,"time":136.6665299999994,"velocity":1,"duration":0.2876981249999915},{"name":"A#3","midi":58,"time":136.90462499999938,"velocity":1,"duration":0.17361093750000123},{"name":"D4","midi":62,"time":136.90462499999938,"velocity":1,"duration":0.17361093750000123},{"name":"D#3","midi":51,"time":137.14271999999937,"velocity":1,"duration":0.2876981249999915},{"name":"G3","midi":55,"time":137.38081499999936,"velocity":1,"duration":0.17361093750000123},{"name":"A#3","midi":58,"time":137.38081499999936,"velocity":1,"duration":0.17361093750000123},{"name":"A#3","midi":58,"time":137.85700499999936,"velocity":1,"duration":0.17361093750000123},{"name":"G3","midi":55,"time":137.85700499999936,"velocity":1,"duration":0.17361093750000123},{"name":"G#2","midi":44,"time":138.09509999999935,"velocity":1,"duration":0.2876981249999915},{"name":"G#3","midi":56,"time":138.33319499999934,"velocity":1,"duration":0.17361093750000123},{"name":"C4","midi":60,"time":138.33319499999934,"velocity":1,"duration":0.17361093750000123},{"name":"D#3","midi":51,"time":138.57128999999932,"velocity":1,"duration":0.2876981249999915},{"name":"G#3","midi":56,"time":138.8093849999993,"velocity":1,"duration":0.17361093750000123},{"name":"C4","midi":60,"time":138.8093849999993,"velocity":1,"duration":0.17361093750000123},{"name":"G2","midi":43,"time":139.0474799999993,"velocity":1,"duration":0.2876981250000199},{"name":"B3","midi":59,"time":139.2806146874993,"velocity":1,"duration":0.17361093750000123},{"name":"G3","midi":55,"time":139.2855749999993,"velocity":1,"duration":0.17361093750000123},{"name":"D3","midi":50,"time":139.5236699999993,"velocity":1,"duration":0.2876981249999915},{"name":"B3","midi":59,"time":139.7617649999993,"velocity":1,"duration":0.17361093750000123},{"name":"G3","midi":55,"time":139.7617649999993,"velocity":1,"duration":0.17361093750000123},{"name":"G2","midi":43,"time":139.99985999999927,"velocity":1,"duration":0.2876981249999915},{"name":"G3","midi":55,"time":140.23795499999926,"velocity":1,"duration":0.17361093750000123},{"name":"B3","midi":59,"time":140.23795499999926,"velocity":1,"duration":0.17361093750000123},{"name":"D3","midi":50,"time":140.47604999999925,"velocity":1,"duration":0.2876981249999915},{"name":"G3","midi":55,"time":140.71414499999923,"velocity":1,"duration":0.17361093750000123},{"name":"B3","midi":59,"time":140.71414499999923,"velocity":1,"duration":0.17361093750000123},{"name":"C3","midi":48,"time":140.95223999999922,"velocity":1,"duration":0.2876981249999915},{"name":"G3","midi":55,"time":141.1903349999992,"velocity":1,"duration":0.17361093750000123},{"name":"E3","midi":52,"time":141.1903349999992,"velocity":1,"duration":0.17361093750000123},{"name":"G3","midi":55,"time":141.6665249999992,"velocity":1,"duration":0.17361093750000123},{"name":"E3","midi":52,"time":141.6665249999992,"velocity":1,"duration":0.17361093750000123},{"name":"C3","midi":48,"time":141.9046199999992,"velocity":1,"duration":0.2876981249999915},{"name":"G3","midi":55,"time":142.14271499999919,"velocity":1,"duration":0.17361093750000123},{"name":"E3","midi":52,"time":142.14271499999919,"velocity":1,"duration":0.17361093750000123},{"name":"G2","midi":43,"time":142.38080999999917,"velocity":1,"duration":0.2876981249999915},{"name":"G3","midi":55,"time":142.61890499999916,"velocity":1,"duration":0.17361093750000123},{"name":"E3","midi":52,"time":142.61890499999916,"velocity":1,"duration":0.17361093750000123},{"name":"G#2","midi":44,"time":142.85699999999915,"velocity":1,"duration":0.27281718749998163},{"name":"F#3","midi":54,"time":143.09509499999913,"velocity":1,"duration":0.17361093750000123},{"name":"D#3","midi":51,"time":143.09509499999913,"velocity":1,"duration":0.17361093750000123},{"name":"F#3","midi":54,"time":143.57128499999914,"velocity":1,"duration":0.17361093750000123},{"name":"D#3","midi":51,"time":143.57128499999914,"velocity":1,"duration":0.17361093750000123},{"name":"C3","midi":48,"time":143.80937999999912,"velocity":1,"duration":0.2876981249999915},{"name":"G3","midi":55,"time":144.0474749999991,"velocity":1,"duration":0.17361093750000123},{"name":"E3","midi":52,"time":144.0474749999991,"velocity":1,"duration":0.17361093750000123},{"name":"G2","midi":43,"time":144.2855699999991,"velocity":1,"duration":0.2876981249999915},{"name":"G3","midi":55,"time":144.52366499999908,"velocity":1,"duration":0.17361093750000123},{"name":"E3","midi":52,"time":144.52366499999908,"velocity":1,"duration":0.17361093750000123},{"name":"C3","midi":48,"time":144.76175999999907,"velocity":1,"duration":0.2876981249999915},{"name":"G3","midi":55,"time":144.99985499999906,"velocity":1,"duration":0.17361093750000123},{"name":"E3","midi":52,"time":144.99985499999906,"velocity":1,"duration":0.17361093750000123},{"name":"G3","midi":55,"time":145.47604499999906,"velocity":1,"duration":0.17361093750000123},{"name":"E3","midi":52,"time":145.47604499999906,"velocity":1,"duration":0.17361093750000123},{"name":"C3","midi":48,"time":145.71413999999905,"velocity":1,"duration":0.2876981249999915},{"name":"G3","midi":55,"time":145.95223499999904,"velocity":1,"duration":0.17361093750000123},{"name":"E3","midi":52,"time":145.95223499999904,"velocity":1,"duration":0.17361093750000123},{"name":"G2","midi":43,"time":146.19032999999902,"velocity":1,"duration":0.2876981249999915},{"name":"G3","midi":55,"time":146.428424999999,"velocity":1,"duration":0.17361093750000123},{"name":"E3","midi":52,"time":146.428424999999,"velocity":1,"duration":0.17361093750000123},{"name":"G#2","midi":44,"time":146.666519999999,"velocity":1,"duration":0.27281718749998163},{"name":"F#3","midi":54,"time":146.90461499999898,"velocity":1,"duration":0.17361093750000123},{"name":"D#3","midi":51,"time":146.90461499999898,"velocity":1,"duration":0.17361093750000123},{"name":"F#3","midi":54,"time":147.380804999999,"velocity":1,"duration":0.17361093750000123},{"name":"D#3","midi":51,"time":147.380804999999,"velocity":1,"duration":0.17361093750000123},{"name":"C3","midi":48,"time":147.61889999999897,"velocity":1,"duration":0.2876981249999915},{"name":"G3","midi":55,"time":147.85699499999896,"velocity":1,"duration":0.17361093750000123},{"name":"E3","midi":52,"time":147.85699499999896,"velocity":1,"duration":0.17361093750000123},{"name":"G2","midi":43,"time":148.09508999999895,"velocity":1,"duration":0.2876981249999915},{"name":"G3","midi":55,"time":148.33318499999893,"velocity":1,"duration":0.17361093750000123},{"name":"E3","midi":52,"time":148.33318499999893,"velocity":1,"duration":0.17361093750000123},{"name":"C3","midi":48,"time":148.57127999999892,"velocity":1,"duration":0.2876981249999915},{"name":"G3","midi":55,"time":148.8093749999989,"velocity":1,"duration":0.17361093750000123},{"name":"E3","midi":52,"time":148.8093749999989,"velocity":1,"duration":0.17361093750000123},{"name":"G3","midi":55,"time":149.2855649999989,"velocity":1,"duration":0.17361093750000123},{"name":"E3","midi":52,"time":149.2855649999989,"velocity":1,"duration":0.17361093750000123},{"name":"C3","midi":48,"time":149.5236599999989,"velocity":1,"duration":0.2876981249999915},{"name":"G3","midi":55,"time":149.76175499999889,"velocity":1,"duration":0.17361093750000123},{"name":"E3","midi":52,"time":149.76175499999889,"velocity":1,"duration":0.17361093750000123},{"name":"G2","midi":43,"time":149.99984999999887,"velocity":1,"duration":0.2876981249999915},{"name":"G3","midi":55,"time":150.23794499999886,"velocity":1,"duration":0.17361093750000123},{"name":"E3","midi":52,"time":150.23794499999886,"velocity":1,"duration":0.17361093750000123},{"name":"G#2","midi":44,"time":150.47603999999885,"velocity":1,"duration":0.27281718749998163},{"name":"F#3","midi":54,"time":150.71413499999883,"velocity":1,"duration":0.17361093750000123},{"name":"D#3","midi":51,"time":150.71413499999883,"velocity":1,"duration":0.17361093750000123},{"name":"F#3","midi":54,"time":151.19032499999884,"velocity":1,"duration":0.17361093750000123},{"name":"D#3","midi":51,"time":151.19032499999884,"velocity":1,"duration":0.17361093750000123},{"name":"C3","midi":48,"time":151.42841999999882,"velocity":1,"duration":0.2876981249999915},{"name":"G3","midi":55,"time":151.6665149999988,"velocity":1,"duration":0.17361093750000123},{"name":"E3","midi":52,"time":151.6665149999988,"velocity":1,"duration":0.17361093750000123},{"name":"G2","midi":43,"time":151.9046099999988,"velocity":1,"duration":0.2876981249999915},{"name":"G3","midi":55,"time":152.14270499999878,"velocity":1,"duration":0.17361093750000123},{"name":"E3","midi":52,"time":152.14270499999878,"velocity":1,"duration":0.17361093750000123},{"name":"C3","midi":48,"time":152.38079999999877,"velocity":1,"duration":0.2876981249999915},{"name":"G3","midi":55,"time":152.61889499999876,"velocity":1,"duration":0.17361093750000123},{"name":"E3","midi":52,"time":152.61889499999876,"velocity":1,"duration":0.17361093750000123},{"name":"G3","midi":55,"time":153.09508499999876,"velocity":1,"duration":0.17361093750000123},{"name":"E3","midi":52,"time":153.09508499999876,"velocity":1,"duration":0.17361093750000123},{"name":"C3","midi":48,"time":153.33317999999875,"velocity":1,"duration":0.2876981249999915},{"name":"G3","midi":55,"time":153.57127499999874,"velocity":1,"duration":0.17361093750000123},{"name":"E3","midi":52,"time":153.57127499999874,"velocity":1,"duration":0.17361093750000123},{"name":"G2","midi":43,"time":153.80936999999872,"velocity":1,"duration":0.2876981249999915},{"name":"G3","midi":55,"time":154.0474649999987,"velocity":1,"duration":0.17361093750000123},{"name":"E3","midi":52,"time":154.0474649999987,"velocity":1,"duration":0.17361093750000123},{"name":"C#3","midi":49,"time":154.2855599999987,"velocity":1,"duration":0.2876981249999915},{"name":"F3","midi":53,"time":154.52365499999868,"velocity":1,"duration":0.17361093750000123},{"name":"G#3","midi":56,"time":154.52365499999868,"velocity":1,"duration":0.17361093750000123},{"name":"G2","midi":43,"time":154.76174999999867,"velocity":1,"duration":0.2876981249999915},{"name":"F3","midi":53,"time":154.99984499999866,"velocity":1,"duration":0.17361093750000123},{"name":"G3","midi":55,"time":154.99984499999866,"velocity":1,"duration":0.17361093750000123},{"name":"C3","midi":48,"time":155.23793999999864,"velocity":1,"duration":0.2876981249999915},{"name":"G3","midi":55,"time":155.47603499999863,"velocity":1,"duration":0.17361093750000123},{"name":"E3","midi":52,"time":155.47603499999863,"velocity":1,"duration":0.17361093750000123},{"name":"G2","midi":43,"time":155.71412999999862,"velocity":1,"duration":0.2876981249999915},{"name":"G3","midi":55,"time":155.9522249999986,"velocity":1,"duration":0.17361093750000123},{"name":"E3","midi":52,"time":155.9522249999986,"velocity":1,"duration":0.17361093750000123},{"name":"F#2","midi":42,"time":156.1903199999986,"velocity":1,"duration":0.2876981249999915},{"name":"F#3","midi":54,"time":156.42841499999858,"velocity":1,"duration":0.17361093750000123},{"name":"C#3","midi":49,"time":156.42841499999858,"velocity":1,"duration":0.17361093750000123},{"name":"C#3","midi":49,"time":156.90460499999858,"velocity":1,"duration":0.17361093750000123},{"name":"F#3","midi":54,"time":156.90460499999858,"velocity":1,"duration":0.17361093750000123},{"name":"F#2","midi":42,"time":157.14269999999857,"velocity":1,"duration":0.2876981249999915},{"name":"C#3","midi":49,"time":157.38079499999856,"velocity":1,"duration":0.17361093750000123},{"name":"F#3","midi":54,"time":157.38079499999856,"velocity":1,"duration":0.17361093750000123},{"name":"A#2","midi":46,"time":157.61888999999854,"velocity":1,"duration":0.2876981249999915},{"name":"C#3","midi":49,"time":157.85698499999853,"velocity":1,"duration":0.17361093750000123},{"name":"F#3","midi":54,"time":157.85698499999853,"velocity":1,"duration":0.17361093750000123},{"name":"D2","midi":38,"time":158.09507999999852,"velocity":1,"duration":0.2876981249999915},{"name":"F#3","midi":54,"time":158.3331749999985,"velocity":1,"duration":0.17361093750000123},{"name":"C3","midi":48,"time":158.3331749999985,"velocity":1,"duration":0.17361093750000123},{"name":"C3","midi":48,"time":158.8093649999985,"velocity":1,"duration":0.17361093750000123},{"name":"F#3","midi":54,"time":158.8093649999985,"velocity":1,"duration":0.17361093750000123},{"name":"F#2","midi":42,"time":159.0474599999985,"velocity":1,"duration":0.2876981249999915},{"name":"C#3","midi":49,"time":159.28555499999848,"velocity":1,"duration":0.17361093750000123},{"name":"F#3","midi":54,"time":159.28555499999848,"velocity":1,"duration":0.17361093750000123},{"name":"A#2","midi":46,"time":159.52364999999847,"velocity":1,"duration":0.2876981249999915},{"name":"C#3","midi":49,"time":159.76174499999846,"velocity":1,"duration":0.17361093750000123},{"name":"F#3","midi":54,"time":159.76174499999846,"velocity":1,"duration":0.17361093750000123},{"name":"B2","midi":47,"time":159.99983999999844,"velocity":1,"duration":0.2876981249999915},{"name":"F#3","midi":54,"time":160.23793499999843,"velocity":1,"duration":0.17361093750000123},{"name":"D#3","midi":51,"time":160.23793499999843,"velocity":1,"duration":0.17361093750000123},{"name":"F#3","midi":54,"time":160.71412499999843,"velocity":1,"duration":0.17361093750000123},{"name":"D#3","midi":51,"time":160.71412499999843,"velocity":1,"duration":0.17361093750000123},{"name":"F#2","midi":42,"time":160.95221999999842,"velocity":1,"duration":0.2876981249999915},{"name":"F#3","midi":54,"time":161.1903149999984,"velocity":1,"duration":0.17361093750000123},{"name":"C#3","midi":49,"time":161.1903149999984,"velocity":1,"duration":0.17361093750000123},{"name":"A#2","midi":46,"time":161.4284099999984,"velocity":1,"duration":0.2876981249999915},{"name":"C#3","midi":49,"time":161.66650499999838,"velocity":1,"duration":0.17361093750000123},{"name":"F#3","midi":54,"time":161.66650499999838,"velocity":1,"duration":0.17361093750000123},{"name":"G#2","midi":44,"time":161.90459999999837,"velocity":1,"duration":0.2876981249999915},{"name":"D#3","midi":51,"time":162.14269499999835,"velocity":1,"duration":0.17361093750000123},{"name":"F#3","midi":54,"time":162.14269499999835,"velocity":1,"duration":0.17361093750000123},{"name":"F#3","midi":54,"time":162.61888499999836,"velocity":1,"duration":0.17361093750000123},{"name":"D#3","midi":51,"time":162.61888499999836,"velocity":1,"duration":0.17361093750000123},{"name":"C#3","midi":49,"time":162.85697999999834,"velocity":1,"duration":0.2876981249999915},{"name":"F3","midi":53,"time":163.09507499999833,"velocity":1,"duration":0.17361093750000123},{"name":"G#3","midi":56,"time":163.09507499999833,"velocity":1,"duration":0.17361093750000123},{"name":"G#2","midi":44,"time":163.33316999999832,"velocity":1,"duration":0.2876981249999915},{"name":"F3","midi":53,"time":163.5712649999983,"velocity":1,"duration":0.17361093750000123},{"name":"G#3","midi":56,"time":163.5712649999983,"velocity":1,"duration":0.17361093750000123},{"name":"F#2","midi":42,"time":163.8093599999983,"velocity":1,"duration":0.2876981249999915},{"name":"F#3","midi":54,"time":164.04745499999828,"velocity":1,"duration":0.17361093750000123},{"name":"C#3","midi":49,"time":164.04745499999828,"velocity":1,"duration":0.17361093750000123},{"name":"C#3","midi":49,"time":164.52364499999828,"velocity":1,"duration":0.17361093750000123},{"name":"F#3","midi":54,"time":164.52364499999828,"velocity":1,"duration":0.17361093750000123},{"name":"F#2","midi":42,"time":164.76173999999827,"velocity":1,"duration":0.2876981249999915},{"name":"C#3","midi":49,"time":164.99983499999826,"velocity":1,"duration":0.17361093750000123},{"name":"F#3","midi":54,"time":164.99983499999826,"velocity":1,"duration":0.17361093750000123},{"name":"A#2","midi":46,"time":165.23792999999824,"velocity":1,"duration":0.2876981249999915},{"name":"C#3","midi":49,"time":165.47602499999823,"velocity":1,"duration":0.17361093750000123},{"name":"F#3","midi":54,"time":165.47602499999823,"velocity":1,"duration":0.17361093750000123},{"name":"C3","midi":48,"time":165.71411999999822,"velocity":1,"duration":0.2876981249999915},{"name":"G3","midi":55,"time":165.9522149999982,"velocity":1,"duration":0.17361093750000123},{"name":"E3","midi":52,"time":165.9522149999982,"velocity":1,"duration":0.17361093750000123},{"name":"G3","midi":55,"time":166.4284049999982,"velocity":1,"duration":0.17361093750000123},{"name":"E3","midi":52,"time":166.4284049999982,"velocity":1,"duration":0.17361093750000123},{"name":"C3","midi":48,"time":166.6664999999982,"velocity":1,"duration":0.2876981249999915},{"name":"G3","midi":55,"time":166.90459499999818,"velocity":1,"duration":0.17361093750000123},{"name":"E3","midi":52,"time":166.90459499999818,"velocity":1,"duration":0.17361093750000123},{"name":"G2","midi":43,"time":167.14268999999817,"velocity":1,"duration":0.2876981249999915},{"name":"G3","midi":55,"time":167.38078499999816,"velocity":1,"duration":0.17361093750000123},{"name":"E3","midi":52,"time":167.38078499999816,"velocity":1,"duration":0.17361093750000123},{"name":"C#3","midi":49,"time":167.61887999999814,"velocity":1,"duration":0.2876981249999915},{"name":"F3","midi":53,"time":167.85697499999813,"velocity":1,"duration":0.17361093750000123},{"name":"G#3","midi":56,"time":167.85697499999813,"velocity":1,"duration":0.17361093750000123},{"name":"G#3","midi":56,"time":168.33316499999813,"velocity":1,"duration":0.17361093750000123},{"name":"F3","midi":53,"time":168.33316499999813,"velocity":1,"duration":0.17361093750000123},{"name":"G2","midi":43,"time":168.57125999999812,"velocity":1,"duration":0.2876981249999915},{"name":"D3","midi":50,"time":168.8093549999981,"velocity":1,"duration":0.17361093750000123},{"name":"G3","midi":55,"time":168.8093549999981,"velocity":1,"duration":0.17361093750000123},{"name":"B2","midi":47,"time":169.0176881249981,"velocity":1,"duration":0.2876981250000199},{"name":"D3","midi":50,"time":169.2855449999981,"velocity":1,"duration":0.17361093750000123},{"name":"G3","midi":55,"time":169.2855449999981,"velocity":1,"duration":0.17361093750000123},{"name":"C3","midi":48,"time":169.5236399999981,"velocity":1,"duration":0.2876981249999915},{"name":"G3","midi":55,"time":169.76173499999808,"velocity":1,"duration":0.17361093750000123},{"name":"E3","midi":52,"time":169.76173499999808,"velocity":1,"duration":0.17361093750000123},{"name":"G2","midi":43,"time":169.99982999999807,"velocity":1,"duration":0.2876981249999915},{"name":"G3","midi":55,"time":170.23792499999806,"velocity":1,"duration":0.17361093750000123},{"name":"E3","midi":52,"time":170.23792499999806,"velocity":1,"duration":0.17361093750000123},{"name":"C3","midi":48,"time":170.47601999999804,"velocity":1,"duration":0.2876981249999915},{"name":"G3","midi":55,"time":170.71411499999803,"velocity":1,"duration":0.17361093750000123},{"name":"E3","midi":52,"time":170.71411499999803,"velocity":1,"duration":0.17361093750000123},{"name":"G2","midi":43,"time":170.95220999999802,"velocity":1,"duration":0.2876981249999915},{"name":"G3","midi":55,"time":171.190304999998,"velocity":1,"duration":0.17361093750000123},{"name":"E3","midi":52,"time":171.190304999998,"velocity":1,"duration":0.17361093750000123},{"name":"F#2","midi":42,"time":171.428399999998,"velocity":1,"duration":0.2876981249999915},{"name":"F#3","midi":54,"time":171.66649499999798,"velocity":1,"duration":0.17361093750000123},{"name":"C#3","midi":49,"time":171.66649499999798,"velocity":1,"duration":0.17361093750000123},{"name":"C#3","midi":49,"time":172.14268499999798,"velocity":1,"duration":0.17361093750000123},{"name":"F#3","midi":54,"time":172.14268499999798,"velocity":1,"duration":0.17361093750000123},{"name":"F#2","midi":42,"time":172.38077999999797,"velocity":1,"duration":0.2876981249999915},{"name":"C#3","midi":49,"time":172.61887499999796,"velocity":1,"duration":0.17361093750000123},{"name":"F#3","midi":54,"time":172.61887499999796,"velocity":1,"duration":0.17361093750000123},{"name":"A#2","midi":46,"time":172.85696999999794,"velocity":1,"duration":0.2876981249999915},{"name":"C#3","midi":49,"time":173.09506499999793,"velocity":1,"duration":0.17361093750000123},{"name":"F#3","midi":54,"time":173.09506499999793,"velocity":1,"duration":0.17361093750000123},{"name":"D2","midi":38,"time":173.33315999999792,"velocity":1,"duration":0.2876981249999915},{"name":"F#3","midi":54,"time":173.5712549999979,"velocity":1,"duration":0.17361093750000123},{"name":"C3","midi":48,"time":173.5712549999979,"velocity":1,"duration":0.17361093750000123},{"name":"C3","midi":48,"time":174.0474449999979,"velocity":1,"duration":0.17361093750000123},{"name":"F#3","midi":54,"time":174.0474449999979,"velocity":1,"duration":0.17361093750000123},{"name":"F#2","midi":42,"time":174.2855399999979,"velocity":1,"duration":0.2876981249999915},{"name":"C#3","midi":49,"time":174.52363499999788,"velocity":1,"duration":0.17361093750000123},{"name":"F#3","midi":54,"time":174.52363499999788,"velocity":1,"duration":0.17361093750000123},{"name":"A#2","midi":46,"time":174.76172999999787,"velocity":1,"duration":0.2876981249999915},{"name":"C#3","midi":49,"time":174.99982499999786,"velocity":1,"duration":0.17361093750000123},{"name":"F#3","midi":54,"time":174.99982499999786,"velocity":1,"duration":0.17361093750000123},{"name":"B2","midi":47,"time":175.23791999999784,"velocity":1,"duration":0.2876981249999915},{"name":"F#3","midi":54,"time":175.47601499999783,"velocity":1,"duration":0.17361093750000123},{"name":"D#3","midi":51,"time":175.47601499999783,"velocity":1,"duration":0.17361093750000123},{"name":"F#3","midi":54,"time":175.95220499999783,"velocity":1,"duration":0.17361093750000123},{"name":"D#3","midi":51,"time":175.95220499999783,"velocity":1,"duration":0.17361093750000123},{"name":"F#2","midi":42,"time":176.19029999999782,"velocity":1,"duration":0.2876981249999915},{"name":"F#3","midi":54,"time":176.4283949999978,"velocity":1,"duration":0.17361093750000123},{"name":"C#3","midi":49,"time":176.4283949999978,"velocity":1,"duration":0.17361093750000123},{"name":"A#2","midi":46,"time":176.6664899999978,"velocity":1,"duration":0.2876981249999915},{"name":"C#3","midi":49,"time":176.90458499999778,"velocity":1,"duration":0.17361093750000123},{"name":"F#3","midi":54,"time":176.90458499999778,"velocity":1,"duration":0.17361093750000123},{"name":"G#2","midi":44,"time":177.14267999999777,"velocity":1,"duration":0.2876981249999915},{"name":"D#3","midi":51,"time":177.38077499999775,"velocity":1,"duration":0.17361093750000123},{"name":"F#3","midi":54,"time":177.38077499999775,"velocity":1,"duration":0.17361093750000123},{"name":"F#3","midi":54,"time":177.85696499999776,"velocity":1,"duration":0.17361093750000123},{"name":"D#3","midi":51,"time":177.85696499999776,"velocity":1,"duration":0.17361093750000123},{"name":"C#3","midi":49,"time":178.09505999999774,"velocity":1,"duration":0.2876981249999915},{"name":"F3","midi":53,"time":178.33315499999773,"velocity":1,"duration":0.17361093750000123},{"name":"G#3","midi":56,"time":178.33315499999773,"velocity":1,"duration":0.17361093750000123},{"name":"G#2","midi":44,"time":178.57124999999772,"velocity":1,"duration":0.2876981249999915},{"name":"F3","midi":53,"time":178.8093449999977,"velocity":1,"duration":0.17361093750000123},{"name":"G#3","midi":56,"time":178.8093449999977,"velocity":1,"duration":0.17361093750000123},{"name":"F#2","midi":42,"time":179.0474399999977,"velocity":1,"duration":0.2876981249999915},{"name":"F#3","midi":54,"time":179.28553499999768,"velocity":1,"duration":0.17361093750000123},{"name":"C#3","midi":49,"time":179.28553499999768,"velocity":1,"duration":0.17361093750000123},{"name":"C#3","midi":49,"time":179.76172499999768,"velocity":1,"duration":0.17361093750000123},{"name":"F#3","midi":54,"time":179.76172499999768,"velocity":1,"duration":0.17361093750000123},{"name":"F#2","midi":42,"time":179.99981999999767,"velocity":1,"duration":0.2876981249999915},{"name":"C#3","midi":49,"time":180.23791499999766,"velocity":1,"duration":0.17361093750000123},{"name":"F#3","midi":54,"time":180.23791499999766,"velocity":1,"duration":0.17361093750000123},{"name":"A#2","midi":46,"time":180.47600999999764,"velocity":1,"duration":0.2876981249999915},{"name":"C#3","midi":49,"time":180.71410499999763,"velocity":1,"duration":0.17361093750000123},{"name":"F#3","midi":54,"time":180.71410499999763,"velocity":1,"duration":0.17361093750000123},{"name":"D3","midi":50,"time":180.95219999999762,"velocity":1,"duration":0.2876981249999915},{"name":"F3","midi":53,"time":181.1902949999976,"velocity":1,"duration":0.17361093750000123},{"name":"A#3","midi":58,"time":181.1902949999976,"velocity":1,"duration":0.17361093750000123},{"name":"A#3","midi":58,"time":181.6664849999976,"velocity":1,"duration":0.17361093750000123},{"name":"F3","midi":53,"time":181.6664849999976,"velocity":1,"duration":0.17361093750000123},{"name":"D#3","midi":51,"time":181.9045799999976,"velocity":1,"duration":0.2876981249999915},{"name":"A#3","midi":58,"time":182.14267499999758,"velocity":1,"duration":0.17361093750000123},{"name":"F#3","midi":54,"time":182.14267499999758,"velocity":1,"duration":0.17361093750000123},{"name":"A#2","midi":46,"time":182.38076999999757,"velocity":1,"duration":0.2876981249999915},{"name":"A#3","midi":58,"time":182.61886499999756,"velocity":1,"duration":0.17361093750000123},{"name":"F#3","midi":54,"time":182.61886499999756,"velocity":1,"duration":0.17361093750000123},{"name":"G#2","midi":44,"time":182.85695999999754,"velocity":1,"duration":0.2876981249999915},{"name":"G#3","midi":56,"time":183.09505499999753,"velocity":1,"duration":0.17361093750000123},{"name":"D#3","midi":51,"time":183.09505499999753,"velocity":1,"duration":0.17361093750000123},{"name":"D#3","midi":51,"time":183.57124499999753,"velocity":1,"duration":0.17361093750000123},{"name":"G#3","midi":56,"time":183.57124499999753,"velocity":1,"duration":0.17361093750000123},{"name":"G#2","midi":44,"time":183.80933999999752,"velocity":1,"duration":0.2876981249999915},{"name":"D#3","midi":51,"time":184.0474349999975,"velocity":1,"duration":0.17361093750000123},{"name":"G#3","midi":56,"time":184.0474349999975,"velocity":1,"duration":0.17361093750000123},{"name":"C3","midi":48,"time":184.2855299999975,"velocity":1,"duration":0.2876981249999915},{"name":"D#3","midi":51,"time":184.52362499999748,"velocity":1,"duration":0.17361093750000123},{"name":"G#3","midi":56,"time":184.52362499999748,"velocity":1,"duration":0.17361093750000123},{"name":"C#3","midi":49,"time":184.76171999999747,"velocity":1,"duration":0.2876981249999915},{"name":"G#3","midi":56,"time":184.99981499999745,"velocity":1,"duration":0.17361093750000123},{"name":"F3","midi":53,"time":184.99981499999745,"velocity":1,"duration":0.17361093750000123},{"name":"G#2","midi":44,"time":185.23790999999744,"velocity":1,"duration":0.2876981249999915},{"name":"G#3","midi":56,"time":185.47600499999743,"velocity":1,"duration":0.17361093750000123},{"name":"F3","midi":53,"time":185.47600499999743,"velocity":1,"duration":0.17361093750000123},{"name":"C#3","midi":49,"time":185.71409999999742,"velocity":1,"duration":0.2876981249999915},{"name":"G#3","midi":56,"time":185.9521949999974,"velocity":1,"duration":0.17361093750000123},{"name":"F3","midi":53,"time":185.9521949999974,"velocity":1,"duration":0.17361093750000123},{"name":"G#2","midi":44,"time":186.1902899999974,"velocity":1,"duration":0.2876981249999915},{"name":"G#3","midi":56,"time":186.42838499999738,"velocity":1,"duration":0.17361093750000123},{"name":"F3","midi":53,"time":186.42838499999738,"velocity":1,"duration":0.17361093750000123},{"name":"F#2","midi":42,"time":186.66647999999736,"velocity":1,"duration":0.2876981249999915},{"name":"A#3","midi":58,"time":186.90457499999735,"velocity":1,"duration":0.17361093750000123},{"name":"C#4","midi":61,"time":186.90457499999735,"velocity":1,"duration":0.17361093750000123},{"name":"C#4","midi":61,"time":187.38076499999735,"velocity":1,"duration":0.17361093750000123},{"name":"A#3","midi":58,"time":187.38076499999735,"velocity":1,"duration":0.17361093750000123},{"name":"B2","midi":47,"time":187.61885999999734,"velocity":1,"duration":0.2876981249999915},{"name":"B3","midi":59,"time":187.85695499999733,"velocity":1,"duration":0.17361093750000123},{"name":"D#4","midi":63,"time":187.85695499999733,"velocity":1,"duration":0.17361093750000123},{"name":"F#3","midi":54,"time":188.09504999999731,"velocity":1,"duration":0.2876981249999915},{"name":"B3","midi":59,"time":188.3331449999973,"velocity":1,"duration":0.17361093750000123},{"name":"D#4","midi":63,"time":188.3331449999973,"velocity":1,"duration":0.17361093750000123},{"name":"F3","midi":53,"time":188.5712399999973,"velocity":1,"duration":0.2876981249999915},{"name":"A3","midi":57,"time":188.80933499999728,"velocity":1,"duration":0.17361093750000123},{"name":"C4","midi":60,"time":188.80933499999728,"velocity":1,"duration":0.17361093750000123},{"name":"C4","midi":60,"time":189.28552499999728,"velocity":1,"duration":0.17361093750000123},{"name":"A3","midi":57,"time":189.28552499999728,"velocity":1,"duration":0.17361093750000123},{"name":"A#2","midi":46,"time":189.52361999999727,"velocity":1,"duration":0.2331346875000122},{"name":"A#3","midi":58,"time":189.76171499999728,"velocity":1,"duration":0.17361093750000123},{"name":"D4","midi":62,"time":189.76171499999728,"velocity":1,"duration":0.17361093750000123},{"name":"F3","midi":53,"time":189.99980999999727,"velocity":1,"duration":0.2876981249999915},{"name":"A#3","midi":58,"time":190.23790499999726,"velocity":1,"duration":0.17361093750000123},{"name":"D4","midi":62,"time":190.23790499999726,"velocity":1,"duration":0.17361093750000123},{"name":"D#3","midi":51,"time":190.47599999999724,"velocity":1,"duration":0.2876981249999915},{"name":"G3","midi":55,"time":190.71409499999723,"velocity":1,"duration":0.17361093750000123},{"name":"A#3","midi":58,"time":190.71409499999723,"velocity":1,"duration":0.17361093750000123},{"name":"A#3","midi":58,"time":191.19028499999723,"velocity":1,"duration":0.17361093750000123},{"name":"G3","midi":55,"time":191.19028499999723,"velocity":1,"duration":0.17361093750000123},{"name":"G#2","midi":44,"time":191.42837999999722,"velocity":1,"duration":0.2876981249999915},{"name":"G#3","midi":56,"time":191.6664749999972,"velocity":1,"duration":0.17361093750000123},{"name":"C4","midi":60,"time":191.6664749999972,"velocity":1,"duration":0.17361093750000123},{"name":"D#3","midi":51,"time":191.9045699999972,"velocity":1,"duration":0.2876981249999915},{"name":"G#3","midi":56,"time":192.14266499999718,"velocity":1,"duration":0.17361093750000123},{"name":"C4","midi":60,"time":192.14266499999718,"velocity":1,"duration":0.17361093750000123},{"name":"G2","midi":43,"time":192.38075999999717,"velocity":1,"duration":0.2876981250000199},{"name":"B3","midi":59,"time":192.61389468749718,"velocity":1,"duration":0.17361093750000123},{"name":"G3","midi":55,"time":192.61885499999718,"velocity":1,"duration":0.17361093750000123},{"name":"D3","midi":50,"time":192.85694999999717,"velocity":1,"duration":0.2876981249999915},{"name":"B3","midi":59,"time":193.09504499999716,"velocity":1,"duration":0.17361093750000123},{"name":"G3","midi":55,"time":193.09504499999716,"velocity":1,"duration":0.17361093750000123},{"name":"G2","midi":43,"time":193.33313999999714,"velocity":1,"duration":0.2876981249999915},{"name":"G3","midi":55,"time":193.57123499999713,"velocity":1,"duration":0.17361093750000123},{"name":"B3","midi":59,"time":193.57123499999713,"velocity":1,"duration":0.17361093750000123},{"name":"D3","midi":50,"time":193.80932999999712,"velocity":1,"duration":0.2876981249999915},{"name":"G3","midi":55,"time":194.0474249999971,"velocity":1,"duration":0.17361093750000123},{"name":"B3","midi":59,"time":194.0474249999971,"velocity":1,"duration":0.17361093750000123},{"name":"C3","midi":48,"time":194.2855199999971,"velocity":1,"duration":0.2876981249999915},{"name":"G3","midi":55,"time":194.52361499999708,"velocity":1,"duration":0.17361093750000123},{"name":"E3","midi":52,"time":194.52361499999708,"velocity":1,"duration":0.17361093750000123},{"name":"G3","midi":55,"time":194.99980499999708,"velocity":1,"duration":0.17361093750000123},{"name":"E3","midi":52,"time":194.99980499999708,"velocity":1,"duration":0.17361093750000123},{"name":"C3","midi":48,"time":195.23789999999707,"velocity":1,"duration":0.2876981249999915},{"name":"G3","midi":55,"time":195.47599499999706,"velocity":1,"duration":0.17361093750000123},{"name":"E3","midi":52,"time":195.47599499999706,"velocity":1,"duration":0.17361093750000123},{"name":"G2","midi":43,"time":195.71408999999704,"velocity":1,"duration":0.2876981249999915},{"name":"G3","midi":55,"time":195.95218499999703,"velocity":1,"duration":0.17361093750000123},{"name":"E3","midi":52,"time":195.95218499999703,"velocity":1,"duration":0.17361093750000123},{"name":"G#2","midi":44,"time":196.19027999999702,"velocity":1,"duration":0.27281718749998163},{"name":"F#3","midi":54,"time":196.428374999997,"velocity":1,"duration":0.17361093750000123},{"name":"D#3","midi":51,"time":196.428374999997,"velocity":1,"duration":0.17361093750000123},{"name":"F#3","midi":54,"time":196.904564999997,"velocity":1,"duration":0.17361093750000123},{"name":"D#3","midi":51,"time":196.904564999997,"velocity":1,"duration":0.17361093750000123},{"name":"C3","midi":48,"time":197.142659999997,"velocity":1,"duration":0.2876981249999915},{"name":"G3","midi":55,"time":197.38075499999698,"velocity":1,"duration":0.17361093750000123},{"name":"E3","midi":52,"time":197.38075499999698,"velocity":1,"duration":0.17361093750000123},{"name":"G2","midi":43,"time":197.61884999999697,"velocity":1,"duration":0.2876981249999915},{"name":"G3","midi":55,"time":197.85694499999695,"velocity":1,"duration":0.17361093750000123},{"name":"E3","midi":52,"time":197.85694499999695,"velocity":1,"duration":0.17361093750000123},{"name":"C3","midi":48,"time":198.09503999999694,"velocity":1,"duration":0.2876981249999915},{"name":"G3","midi":55,"time":198.33313499999693,"velocity":1,"duration":0.17361093750000123},{"name":"E3","midi":52,"time":198.33313499999693,"velocity":1,"duration":0.17361093750000123},{"name":"G3","midi":55,"time":198.80932499999693,"velocity":1,"duration":0.17361093750000123},{"name":"E3","midi":52,"time":198.80932499999693,"velocity":1,"duration":0.17361093750000123},{"name":"C3","midi":48,"time":199.04741999999692,"velocity":1,"duration":0.2876981249999915},{"name":"G3","midi":55,"time":199.2855149999969,"velocity":1,"duration":0.17361093750000123},{"name":"E3","midi":52,"time":199.2855149999969,"velocity":1,"duration":0.17361093750000123},{"name":"G2","midi":43,"time":199.5236099999969,"velocity":1,"duration":0.2876981249999915},{"name":"G3","midi":55,"time":199.76170499999688,"velocity":1,"duration":0.17361093750000123},{"name":"E3","midi":52,"time":199.76170499999688,"velocity":1,"duration":0.17361093750000123},{"name":"G#2","midi":44,"time":199.99979999999687,"velocity":1,"duration":0.27281718749998163},{"name":"F#3","midi":54,"time":200.23789499999685,"velocity":1,"duration":0.17361093750000123},{"name":"D#3","midi":51,"time":200.23789499999685,"velocity":1,"duration":0.17361093750000123},{"name":"F#3","midi":54,"time":200.71408499999686,"velocity":1,"duration":0.17361093750000123},{"name":"D#3","midi":51,"time":200.71408499999686,"velocity":1,"duration":0.17361093750000123},{"name":"C3","midi":48,"time":200.95217999999684,"velocity":1,"duration":0.2876981249999915},{"name":"G3","midi":55,"time":201.19027499999683,"velocity":1,"duration":0.17361093750000123},{"name":"E3","midi":52,"time":201.19027499999683,"velocity":1,"duration":0.17361093750000123},{"name":"G2","midi":43,"time":201.42836999999682,"velocity":1,"duration":0.2876981249999915},{"name":"G3","midi":55,"time":201.6664649999968,"velocity":1,"duration":0.17361093750000123},{"name":"E3","midi":52,"time":201.6664649999968,"velocity":1,"duration":0.17361093750000123},{"name":"C3","midi":48,"time":201.9045599999968,"velocity":1,"duration":0.2876981249999915},{"name":"G3","midi":55,"time":202.14265499999678,"velocity":1,"duration":0.17361093750000123},{"name":"E3","midi":52,"time":202.14265499999678,"velocity":1,"duration":0.17361093750000123},{"name":"G3","midi":55,"time":202.61884499999678,"velocity":1,"duration":0.17361093750000123},{"name":"E3","midi":52,"time":202.61884499999678,"velocity":1,"duration":0.17361093750000123},{"name":"C3","midi":48,"time":202.85693999999677,"velocity":1,"duration":0.2876981249999915},{"name":"G3","midi":55,"time":203.09503499999676,"velocity":1,"duration":0.17361093750000123},{"name":"E3","midi":52,"time":203.09503499999676,"velocity":1,"duration":0.17361093750000123},{"name":"G2","midi":43,"time":203.33312999999674,"velocity":1,"duration":0.2876981249999915},{"name":"G3","midi":55,"time":203.57122499999673,"velocity":1,"duration":0.17361093750000123},{"name":"E3","midi":52,"time":203.57122499999673,"velocity":1,"duration":0.17361093750000123},{"name":"G#2","midi":44,"time":203.80931999999672,"velocity":1,"duration":0.27281718749998163},{"name":"F#3","midi":54,"time":204.0474149999967,"velocity":1,"duration":0.17361093750000123},{"name":"D#3","midi":51,"time":204.0474149999967,"velocity":1,"duration":0.17361093750000123},{"name":"F#3","midi":54,"time":204.5236049999967,"velocity":1,"duration":0.17361093750000123},{"name":"D#3","midi":51,"time":204.5236049999967,"velocity":1,"duration":0.17361093750000123},{"name":"C3","midi":48,"time":204.7616999999967,"velocity":1,"duration":0.2876981249999915},{"name":"G3","midi":55,"time":204.99979499999668,"velocity":1,"duration":0.17361093750000123},{"name":"E3","midi":52,"time":204.99979499999668,"velocity":1,"duration":0.17361093750000123},{"name":"G2","midi":43,"time":205.23788999999667,"velocity":1,"duration":0.2876981249999915},{"name":"G3","midi":55,"time":205.47598499999665,"velocity":1,"duration":0.17361093750000123},{"name":"E3","midi":52,"time":205.47598499999665,"velocity":1,"duration":0.17361093750000123},{"name":"C3","midi":48,"time":205.71407999999664,"velocity":1,"duration":0.2876981249999915},{"name":"G3","midi":55,"time":205.95217499999663,"velocity":1,"duration":0.17361093750000123},{"name":"E3","midi":52,"time":205.95217499999663,"velocity":1,"duration":0.17361093750000123},{"name":"G3","midi":55,"time":206.42836499999663,"velocity":1,"duration":0.17361093750000123},{"name":"E3","midi":52,"time":206.42836499999663,"velocity":1,"duration":0.17361093750000123},{"name":"C3","midi":48,"time":206.66645999999662,"velocity":1,"duration":0.2876981249999915},{"name":"G3","midi":55,"time":206.9045549999966,"velocity":1,"duration":0.17361093750000123},{"name":"E3","midi":52,"time":206.9045549999966,"velocity":1,"duration":0.17361093750000123},{"name":"G2","midi":43,"time":207.1426499999966,"velocity":1,"duration":0.2876981249999915},{"name":"G3","midi":55,"time":207.38074499999658,"velocity":1,"duration":0.17361093750000123},{"name":"E3","midi":52,"time":207.38074499999658,"velocity":1,"duration":0.17361093750000123},{"name":"C#3","midi":49,"time":207.61883999999657,"velocity":1,"duration":0.2876981249999915},{"name":"F3","midi":53,"time":207.85693499999655,"velocity":1,"duration":0.17361093750000123},{"name":"G#3","midi":56,"time":207.85693499999655,"velocity":1,"duration":0.17361093750000123},{"name":"G2","midi":43,"time":208.09502999999654,"velocity":1,"duration":0.2876981249999915},{"name":"F3","midi":53,"time":208.33312499999653,"velocity":1,"duration":0.17361093750000123},{"name":"G3","midi":55,"time":208.33312499999653,"velocity":1,"duration":0.17361093750000123},{"name":"C3","midi":48,"time":208.57121999999652,"velocity":1,"duration":0.2876981249999915},{"name":"G3","midi":55,"time":208.8093149999965,"velocity":1,"duration":0.17361093750000123},{"name":"E3","midi":52,"time":208.8093149999965,"velocity":1,"duration":0.17361093750000123},{"name":"G2","midi":43,"time":209.0474099999965,"velocity":1,"duration":0.2876981249999915},{"name":"G3","midi":55,"time":209.28550499999648,"velocity":1,"duration":0.17361093750000123},{"name":"E3","midi":52,"time":209.28550499999648,"velocity":1,"duration":0.17361093750000123},{"name":"C3","midi":48,"time":209.52359999999646,"velocity":1,"duration":0.2876981249999915},{"name":"G3","midi":55,"time":209.76169499999645,"velocity":1,"duration":0.17361093750000123},{"name":"E3","midi":52,"time":209.76169499999645,"velocity":1,"duration":0.17361093750000123},{"name":"G3","midi":55,"time":210.23788499999645,"velocity":1,"duration":0.17361093750000123},{"name":"E3","midi":52,"time":210.23788499999645,"velocity":1,"duration":0.17361093750000123},{"name":"C3","midi":48,"time":210.47597999999644,"velocity":1,"duration":0.2876981249999915},{"name":"G3","midi":55,"time":210.71407499999643,"velocity":1,"duration":0.17361093750000123},{"name":"E3","midi":52,"time":210.71407499999643,"velocity":1,"duration":0.17361093750000123},{"name":"G2","midi":43,"time":210.9521699999964,"velocity":1,"duration":0.2876981249999915},{"name":"G3","midi":55,"time":211.1902649999964,"velocity":1,"duration":0.17361093750000123},{"name":"E3","midi":52,"time":211.1902649999964,"velocity":1,"duration":0.17361093750000123},{"name":"C#3","midi":49,"time":211.4283599999964,"velocity":1,"duration":0.2876981249999915},{"name":"A#3","midi":58,"time":211.66645499999638,"velocity":1,"duration":0.17361093750000123},{"name":"F#3","midi":54,"time":211.66645499999638,"velocity":1,"duration":0.17361093750000123},{"name":"F#3","midi":54,"time":212.14264499999638,"velocity":1,"duration":0.17361093750000123},{"name":"A#3","midi":58,"time":212.14264499999638,"velocity":1,"duration":0.17361093750000123},{"name":"C#3","midi":49,"time":212.38073999999636,"velocity":1,"duration":0.2876981249999915},{"name":"F#3","midi":54,"time":212.61883499999635,"velocity":1,"duration":0.17361093750000123},{"name":"A#3","midi":58,"time":212.61883499999635,"velocity":1,"duration":0.17361093750000123},{"name":"A#2","midi":46,"time":212.85692999999634,"velocity":1,"duration":0.2876981249999915},{"name":"F#3","midi":54,"time":213.09502499999633,"velocity":1,"duration":0.17361093750000123},{"name":"A#3","midi":58,"time":213.09502499999633,"velocity":1,"duration":0.17361093750000123},{"name":"C3","midi":48,"time":213.3331199999963,"velocity":1,"duration":0.2876981249999915},{"name":"G3","midi":55,"time":213.5712149999963,"velocity":1,"duration":0.17361093750000123},{"name":"E3","midi":52,"time":213.5712149999963,"velocity":1,"duration":0.17361093750000123},{"name":"G3","midi":55,"time":214.0474049999963,"velocity":1,"duration":0.17361093750000123},{"name":"E3","midi":52,"time":214.0474049999963,"velocity":1,"duration":0.17361093750000123},{"name":"C3","midi":48,"time":214.2854999999963,"velocity":1,"duration":0.2876981249999915},{"name":"G3","midi":55,"time":214.52359499999628,"velocity":1,"duration":0.17361093750000123},{"name":"E3","midi":52,"time":214.52359499999628,"velocity":1,"duration":0.17361093750000123},{"name":"G2","midi":43,"time":214.76168999999626,"velocity":1,"duration":0.2876981249999915},{"name":"G3","midi":55,"time":214.99978499999625,"velocity":1,"duration":0.17361093750000123},{"name":"E3","midi":52,"time":214.99978499999625,"velocity":1,"duration":0.17361093750000123},{"name":"A#2","midi":46,"time":215.23787999999624,"velocity":1,"duration":0.2876981249999915},{"name":"D3","midi":50,"time":215.47597499999623,"velocity":1,"duration":0.17361093750000123},{"name":"F3","midi":53,"time":215.47597499999623,"velocity":1,"duration":0.17361093750000123},{"name":"D3","midi":50,"time":215.95216499999623,"velocity":1,"duration":0.17361093750000123},{"name":"F3","midi":53,"time":215.95216499999623,"velocity":1,"duration":0.17361093750000123},{"name":"A#2","midi":46,"time":216.19025999999621,"velocity":1,"duration":0.2876981249999915},{"name":"D3","midi":50,"time":216.4283549999962,"velocity":1,"duration":0.17361093750000123},{"name":"F3","midi":53,"time":216.4283549999962,"velocity":1,"duration":0.17361093750000123},{"name":"F2","midi":41,"time":216.6664499999962,"velocity":1,"duration":0.2876981249999915},{"name":"D3","midi":50,"time":216.90454499999618,"velocity":1,"duration":0.17361093750000123},{"name":"F3","midi":53,"time":216.90454499999618,"velocity":1,"duration":0.17361093750000123},{"name":"C3","midi":48,"time":217.14263999999616,"velocity":1,"duration":0.2876981249999915},{"name":"G3","midi":55,"time":217.38073499999615,"velocity":1,"duration":0.17361093750000123},{"name":"E3","midi":52,"time":217.38073499999615,"velocity":1,"duration":0.17361093750000123},{"name":"G3","midi":55,"time":217.85692499999615,"velocity":1,"duration":0.17361093750000123},{"name":"E3","midi":52,"time":217.85692499999615,"velocity":1,"duration":0.17361093750000123},{"name":"C3","midi":48,"time":218.09501999999614,"velocity":1,"duration":0.2876981249999915},{"name":"G3","midi":55,"time":218.33311499999613,"velocity":1,"duration":0.17361093750000123},{"name":"E3","midi":52,"time":218.33311499999613,"velocity":1,"duration":0.17361093750000123},{"name":"G2","midi":43,"time":218.5712099999961,"velocity":1,"duration":0.2876981249999915},{"name":"G3","midi":55,"time":218.8093049999961,"velocity":1,"duration":0.17361093750000123},{"name":"E3","midi":52,"time":218.8093049999961,"velocity":1,"duration":0.17361093750000123},{"name":"C#3","midi":49,"time":219.0473999999961,"velocity":1,"duration":0.2876981249999915},{"name":"A#3","midi":58,"time":219.28549499999608,"velocity":1,"duration":0.17361093750000123},{"name":"F#3","midi":54,"time":219.28549499999608,"velocity":1,"duration":0.17361093750000123},{"name":"F#3","midi":54,"time":219.76168499999608,"velocity":1,"duration":0.17361093750000123},{"name":"A#3","midi":58,"time":219.76168499999608,"velocity":1,"duration":0.17361093750000123},{"name":"C#3","midi":49,"time":219.99977999999606,"velocity":1,"duration":0.2876981249999915},{"name":"F#3","midi":54,"time":220.23787499999605,"velocity":1,"duration":0.17361093750000123},{"name":"A#3","midi":58,"time":220.23787499999605,"velocity":1,"duration":0.17361093750000123},{"name":"A#2","midi":46,"time":220.47596999999604,"velocity":1,"duration":0.2876981249999915},{"name":"F#3","midi":54,"time":220.71406499999603,"velocity":1,"duration":0.17361093750000123},{"name":"A#3","midi":58,"time":220.71406499999603,"velocity":1,"duration":0.17361093750000123},{"name":"C3","midi":48,"time":220.952159999996,"velocity":1,"duration":0.2876981249999915},{"name":"G3","midi":55,"time":221.190254999996,"velocity":1,"duration":0.17361093750000123},{"name":"E3","midi":52,"time":221.190254999996,"velocity":1,"duration":0.17361093750000123},{"name":"G3","midi":55,"time":221.666444999996,"velocity":1,"duration":0.17361093750000123},{"name":"E3","midi":52,"time":221.666444999996,"velocity":1,"duration":0.17361093750000123},{"name":"C#3","midi":49,"time":221.904539999996,"velocity":1,"duration":0.2331346875000122},{"name":"G#3","midi":56,"time":222.142634999996,"velocity":1,"duration":0.17361093750000123},{"name":"F3","midi":53,"time":222.142634999996,"velocity":1,"duration":0.17361093750000123},{"name":"G#2","midi":44,"time":222.380729999996,"velocity":1,"duration":0.2331346875000122},{"name":"G#3","midi":56,"time":222.618824999996,"velocity":1,"duration":0.17361093750000123},{"name":"F3","midi":53,"time":222.618824999996,"velocity":1,"duration":0.17361093750000123},{"name":"C3","midi":48,"time":222.856919999996,"velocity":1,"duration":0.2876981249999915},{"name":"G3","midi":55,"time":223.09501499999598,"velocity":1,"duration":0.17361093750000123},{"name":"E3","midi":52,"time":223.09501499999598,"velocity":1,"duration":0.17361093750000123},{"name":"G3","midi":55,"time":223.57120499999598,"velocity":1,"duration":0.17361093750000123},{"name":"E3","midi":52,"time":223.57120499999598,"velocity":1,"duration":0.17361093750000123},{"name":"C3","midi":48,"time":223.80929999999597,"velocity":1,"duration":0.2876981249999915},{"name":"G3","midi":55,"time":224.04739499999596,"velocity":1,"duration":0.17361093750000123},{"name":"E3","midi":52,"time":224.04739499999596,"velocity":1,"duration":0.17361093750000123},{"name":"G2","midi":43,"time":224.28548999999595,"velocity":1,"duration":0.2876981249999915},{"name":"G3","midi":55,"time":224.52358499999593,"velocity":1,"duration":0.17361093750000123},{"name":"E3","midi":52,"time":224.52358499999593,"velocity":1,"duration":0.17361093750000123},{"name":"F#2","midi":42,"time":224.76167999999592,"velocity":1,"duration":0.2876981249999915},{"name":"A#3","midi":58,"time":224.9997749999959,"velocity":1,"duration":0.17361093750000123},{"name":"C#4","midi":61,"time":224.9997749999959,"velocity":1,"duration":0.17361093750000123},{"name":"C#4","midi":61,"time":225.4759649999959,"velocity":1,"duration":0.17361093750000123},{"name":"A#3","midi":58,"time":225.4759649999959,"velocity":1,"duration":0.17361093750000123},{"name":"B2","midi":47,"time":225.7140599999959,"velocity":1,"duration":0.2876981249999915},{"name":"B3","midi":59,"time":225.95215499999588,"velocity":1,"duration":0.17361093750000123},{"name":"D#4","midi":63,"time":225.95215499999588,"velocity":1,"duration":0.17361093750000123},{"name":"F#3","midi":54,"time":226.19024999999587,"velocity":1,"duration":0.2876981249999915},{"name":"B3","midi":59,"time":226.42834499999586,"velocity":1,"duration":0.17361093750000123},{"name":"D#4","midi":63,"time":226.42834499999586,"velocity":1,"duration":0.17361093750000123},{"name":"F3","midi":53,"time":226.66643999999584,"velocity":1,"duration":0.2876981249999915},{"name":"A3","midi":57,"time":226.90453499999583,"velocity":1,"duration":0.17361093750000123},{"name":"C4","midi":60,"time":226.90453499999583,"velocity":1,"duration":0.17361093750000123},{"name":"C4","midi":60,"time":227.38072499999583,"velocity":1,"duration":0.17361093750000123},{"name":"A3","midi":57,"time":227.38072499999583,"velocity":1,"duration":0.17361093750000123},{"name":"A#2","midi":46,"time":227.61881999999582,"velocity":1,"duration":0.2331346875000122},{"name":"A#3","midi":58,"time":227.85691499999584,"velocity":1,"duration":0.17361093750000123},{"name":"D4","midi":62,"time":227.85691499999584,"velocity":1,"duration":0.17361093750000123},{"name":"F3","midi":53,"time":228.09500999999582,"velocity":1,"duration":0.2876981249999915},{"name":"A#3","midi":58,"time":228.3331049999958,"velocity":1,"duration":0.17361093750000123},{"name":"D4","midi":62,"time":228.3331049999958,"velocity":1,"duration":0.17361093750000123},{"name":"D#3","midi":51,"time":228.5711999999958,"velocity":1,"duration":0.2876981249999915},{"name":"G3","midi":55,"time":228.80929499999579,"velocity":1,"duration":0.17361093750000123},{"name":"A#3","midi":58,"time":228.80929499999579,"velocity":1,"duration":0.17361093750000123},{"name":"A#3","midi":58,"time":229.2854849999958,"velocity":1,"duration":0.17361093750000123},{"name":"G3","midi":55,"time":229.2854849999958,"velocity":1,"duration":0.17361093750000123},{"name":"G#2","midi":44,"time":229.52357999999577,"velocity":1,"duration":0.2876981249999915},{"name":"G#3","midi":56,"time":229.76167499999576,"velocity":1,"duration":0.17361093750000123},{"name":"C4","midi":60,"time":229.76167499999576,"velocity":1,"duration":0.17361093750000123},{"name":"D#3","midi":51,"time":229.99976999999575,"velocity":1,"duration":0.2876981249999915},{"name":"G#3","midi":56,"time":230.23786499999574,"velocity":1,"duration":0.17361093750000123},{"name":"C4","midi":60,"time":230.23786499999574,"velocity":1,"duration":0.17361093750000123},{"name":"G2","midi":43,"time":230.47595999999572,"velocity":1,"duration":0.2876981250000199},{"name":"B3","midi":59,"time":230.70909468749574,"velocity":1,"duration":0.17361093750000123},{"name":"G3","midi":55,"time":230.71405499999574,"velocity":1,"duration":0.17361093750000123},{"name":"D3","midi":50,"time":230.95214999999573,"velocity":1,"duration":0.2876981249999915},{"name":"B3","midi":59,"time":231.1902449999957,"velocity":1,"duration":0.17361093750000123},{"name":"G3","midi":55,"time":231.1902449999957,"velocity":1,"duration":0.17361093750000123},{"name":"G2","midi":43,"time":231.4283399999957,"velocity":1,"duration":0.2876981249999915},{"name":"G3","midi":55,"time":231.6664349999957,"velocity":1,"duration":0.17361093750000123},{"name":"B3","midi":59,"time":231.6664349999957,"velocity":1,"duration":0.17361093750000123},{"name":"D3","midi":50,"time":231.90452999999567,"velocity":1,"duration":0.2876981249999915},{"name":"G3","midi":55,"time":232.14262499999566,"velocity":1,"duration":0.17361093750000123},{"name":"B3","midi":59,"time":232.14262499999566,"velocity":1,"duration":0.17361093750000123},{"name":"C3","midi":48,"time":232.38071999999565,"velocity":1,"duration":0.2876981249999915},{"name":"E3","midi":52,"time":232.61881499999564,"velocity":0.8582677165354331,"duration":0.17361093750000123},{"name":"G3","midi":55,"time":232.61881499999564,"velocity":0.8582677165354331,"duration":0.17361093750000123},{"name":"E3","midi":52,"time":233.09500499999564,"velocity":0.5748031496062992,"duration":0.17361093750000123},{"name":"G3","midi":55,"time":233.09500499999564,"velocity":0.5748031496062992,"duration":0.17361093750000123},{"name":"C3","midi":48,"time":233.33309999999562,"velocity":0.4330708661417323,"duration":0.2876981249999915},{"name":"G3","midi":55,"time":233.5711949999956,"velocity":0.29133858267716534,"duration":0.17361093750000123},{"name":"E3","midi":52,"time":233.5711949999956,"velocity":0.29133858267716534,"duration":0.17361093750000123},{"name":"G2","midi":43,"time":233.8092899999956,"velocity":0.14960629921259844,"duration":0.2876981249999915},{"name":"G3","midi":55,"time":234.0473849999956,"velocity":0.007874015748031496,"duration":0.17361093750000123},{"name":"E3","midi":52,"time":234.0473849999956,"velocity":0.007874015748031496,"duration":0.17361093750000123}],"controlChanges":{"7":[{"number":7,"time":0,"value":0.8661417322834646},{"number":7,"time":116.19035999999969,"value":0.9448818897637795}],"10":[{"number":10,"time":0,"value":0.5039370078740157},{"number":10,"time":0,"value":0.49606299212598426},{"number":10,"time":116.19035999999969,"value":0.30708661417322836}],"91":[{"number":91,"time":0,"value":0.36220472440944884}],"93":[{"number":93,"time":0,"value":0.33858267716535434}]},"id":5,"name":"Pick Bass / Accordion","instrumentNumber":32,"instrument":"acoustic bass","instrumentFamily":"bass","channelNumber":4,"isPercussion":false},{"startTime":40.238055,"duration":349.04230968749437,"length":779,"notes":[{"name":"C#6","midi":85,"time":40.238055,"velocity":0.6299212598425197,"duration":0.11408718749999736},{"name":"A#5","midi":82,"time":40.238055,"velocity":0.6299212598425197,"duration":0.11408718749999736},{"name":"C#6","midi":85,"time":40.714245,"velocity":0.6299212598425197,"duration":0.11408718749999736},{"name":"A#5","midi":82,"time":40.714245,"velocity":0.6299212598425197,"duration":0.11408718749999736},{"name":"C#6","midi":85,"time":41.190434999999994,"velocity":0.6299212598425197,"duration":0.11408718749999736},{"name":"A#5","midi":82,"time":41.190434999999994,"velocity":0.6299212598425197,"duration":0.11408718749999736},{"name":"C#6","midi":85,"time":41.66662499999999,"velocity":0.6299212598425197,"duration":0.11408718749999736},{"name":"A#5","midi":82,"time":41.66662499999999,"velocity":0.6299212598425197,"duration":0.11408718749999736},{"name":"C6","midi":84,"time":42.142814999999985,"velocity":0.6299212598425197,"duration":0.11408718749999736},{"name":"A5","midi":81,"time":42.142814999999985,"velocity":0.6299212598425197,"duration":0.11408718749999736},{"name":"C6","midi":84,"time":42.61900499999998,"velocity":0.6299212598425197,"duration":0.11408718749999736},{"name":"A5","midi":81,"time":42.61900499999998,"velocity":0.6299212598425197,"duration":0.11408718749999736},{"name":"C#6","midi":85,"time":43.095194999999975,"velocity":0.6299212598425197,"duration":0.11408718749999736},{"name":"A#5","midi":82,"time":43.095194999999975,"velocity":0.6299212598425197,"duration":0.11408718749999736},{"name":"C#6","midi":85,"time":43.57138499999997,"velocity":0.6299212598425197,"duration":0.11408718749999736},{"name":"A#5","midi":82,"time":43.57138499999997,"velocity":0.6299212598425197,"duration":0.11408718749999736},{"name":"B5","midi":83,"time":44.047574999999966,"velocity":0.6299212598425197,"duration":0.11408718749999736},{"name":"D#6","midi":87,"time":44.047574999999966,"velocity":0.6299212598425197,"duration":0.11408718749999736},{"name":"B5","midi":83,"time":44.52376499999996,"velocity":0.6299212598425197,"duration":0.11408718749999736},{"name":"D#6","midi":87,"time":44.52376499999996,"velocity":0.6299212598425197,"duration":0.11408718749999736},{"name":"C#6","midi":85,"time":44.99995499999996,"velocity":0.6299212598425197,"duration":0.11408718749999736},{"name":"A#5","midi":82,"time":44.99995499999996,"velocity":0.6299212598425197,"duration":0.11408718749999736},{"name":"C#6","midi":85,"time":45.47614499999995,"velocity":0.6299212598425197,"duration":0.11408718749999736},{"name":"A#5","midi":82,"time":45.47614499999995,"velocity":0.6299212598425197,"duration":0.11408718749999736},{"name":"D#6","midi":87,"time":45.95233499999995,"velocity":0.6299212598425197,"duration":0.11408718749999736},{"name":"C6","midi":84,"time":45.95233499999995,"velocity":0.6299212598425197,"duration":0.11408718749999736},{"name":"D#6","midi":87,"time":46.428524999999944,"velocity":0.6299212598425197,"duration":0.11408718749999736},{"name":"C6","midi":84,"time":46.428524999999944,"velocity":0.6299212598425197,"duration":0.11408718749999736},{"name":"B5","midi":83,"time":46.90471499999994,"velocity":0.6299212598425197,"duration":0.11408718749999736},{"name":"C#6","midi":85,"time":46.90471499999994,"velocity":0.6299212598425197,"duration":0.11408718749999736},{"name":"B5","midi":83,"time":47.380904999999935,"velocity":0.6299212598425197,"duration":0.11408718749999736},{"name":"C#6","midi":85,"time":47.380904999999935,"velocity":0.6299212598425197,"duration":0.11408718749999736},{"name":"C#6","midi":85,"time":47.85709499999993,"velocity":0.6299212598425197,"duration":0.11408718749999736},{"name":"A#5","midi":82,"time":47.85709499999993,"velocity":0.6299212598425197,"duration":0.11408718749999736},{"name":"C#6","midi":85,"time":48.333284999999925,"velocity":0.6299212598425197,"duration":0.11408718749999736},{"name":"A#5","midi":82,"time":48.333284999999925,"velocity":0.6299212598425197,"duration":0.11408718749999736},{"name":"C#6","midi":85,"time":48.80947499999992,"velocity":0.6299212598425197,"duration":0.11408718749999736},{"name":"A#5","midi":82,"time":48.80947499999992,"velocity":0.6299212598425197,"duration":0.11408718749999736},{"name":"C#6","midi":85,"time":49.285664999999916,"velocity":0.6299212598425197,"duration":0.11408718749999736},{"name":"A#5","midi":82,"time":49.285664999999916,"velocity":0.6299212598425197,"duration":0.11408718749999736},{"name":"E5","midi":76,"time":49.76185499999991,"velocity":0.6299212598425197,"duration":0.11408718749999736},{"name":"G5","midi":79,"time":49.76185499999991,"velocity":0.6299212598425197,"duration":0.11408718749999736},{"name":"G5","midi":79,"time":50.23804499999991,"velocity":0.6299212598425197,"duration":0.11408718749999736},{"name":"E5","midi":76,"time":50.23804499999991,"velocity":0.6299212598425197,"duration":0.11408718749999736},{"name":"G5","midi":79,"time":50.7142349999999,"velocity":0.6299212598425197,"duration":0.11408718749999736},{"name":"E5","midi":76,"time":50.7142349999999,"velocity":0.6299212598425197,"duration":0.11408718749999736},{"name":"E5","midi":76,"time":51.1904249999999,"velocity":0.6299212598425197,"duration":0.11408718749999736},{"name":"G5","midi":79,"time":51.1904249999999,"velocity":0.6299212598425197,"duration":0.11408718749999736},{"name":"F5","midi":77,"time":51.666614999999894,"velocity":0.6299212598425197,"duration":0.11408718749999736},{"name":"G#5","midi":80,"time":51.666614999999894,"velocity":0.6299212598425197,"duration":0.11408718749999736},{"name":"F5","midi":77,"time":52.14280499999989,"velocity":0.6299212598425197,"duration":0.11408718749999736},{"name":"G#5","midi":80,"time":52.14280499999989,"velocity":0.6299212598425197,"duration":0.11408718749999736},{"name":"D6","midi":86,"time":52.618994999999884,"velocity":0.6299212598425197,"duration":0.11408718749999736},{"name":"B5","midi":83,"time":52.618994999999884,"velocity":0.6299212598425197,"duration":0.11408718749999736},{"name":"D6","midi":86,"time":53.09518499999988,"velocity":0.6299212598425197,"duration":0.11408718749999736},{"name":"B5","midi":83,"time":53.09518499999988,"velocity":0.6299212598425197,"duration":0.11408718749999736},{"name":"G5","midi":79,"time":53.571374999999875,"velocity":0.6299212598425197,"duration":0.11408718749999736},{"name":"E5","midi":76,"time":53.571374999999875,"velocity":0.6299212598425197,"duration":0.11408718749999736},{"name":"E5","midi":76,"time":54.04756499999987,"velocity":0.6299212598425197,"duration":0.11408718749999736},{"name":"G5","midi":79,"time":54.04756499999987,"velocity":0.6299212598425197,"duration":0.11408718749999736},{"name":"E5","midi":76,"time":54.523754999999866,"velocity":0.6299212598425197,"duration":0.11408718749999736},{"name":"G5","midi":79,"time":54.523754999999866,"velocity":0.6299212598425197,"duration":0.11408718749999736},{"name":"E5","midi":76,"time":54.99994499999986,"velocity":0.6299212598425197,"duration":0.11408718749999736},{"name":"G5","midi":79,"time":54.99994499999986,"velocity":0.6299212598425197,"duration":0.11408718749999736},{"name":"A#5","midi":82,"time":70.71421499999985,"velocity":0.6299212598425197,"duration":0.11408718750000446},{"name":"F#5","midi":78,"time":70.71421499999985,"velocity":0.6299212598425197,"duration":0.11408718750000446},{"name":"A#5","midi":82,"time":71.19040499999986,"velocity":0.6299212598425197,"duration":0.11408718750000446},{"name":"F#5","midi":78,"time":71.19040499999986,"velocity":0.6299212598425197,"duration":0.11408718750000446},{"name":"D#5","midi":75,"time":71.66659499999986,"velocity":0.6299212598425197,"duration":0.11408718750000446},{"name":"F#5","midi":78,"time":71.66659499999986,"velocity":0.6299212598425197,"duration":0.11408718750000446},{"name":"D#5","midi":75,"time":72.14278499999986,"velocity":0.6299212598425197,"duration":0.11408718750000446},{"name":"F#5","midi":78,"time":72.14278499999986,"velocity":0.6299212598425197,"duration":0.11408718750000446},{"name":"F5","midi":77,"time":72.61897499999986,"velocity":0.6299212598425197,"duration":0.11408718750000446},{"name":"A5","midi":81,"time":72.61897499999986,"velocity":0.6299212598425197,"duration":0.11408718750000446},{"name":"F5","midi":77,"time":73.09516499999987,"velocity":0.6299212598425197,"duration":0.11408718750000446},{"name":"A5","midi":81,"time":73.09516499999987,"velocity":0.6299212598425197,"duration":0.11408718750000446},{"name":"D5","midi":74,"time":73.57135499999987,"velocity":0.6299212598425197,"duration":0.11408718750000446},{"name":"F5","midi":77,"time":73.57135499999987,"velocity":0.6299212598425197,"duration":0.11408718750000446},{"name":"D5","midi":74,"time":74.04754499999987,"velocity":0.6299212598425197,"duration":0.11408718750000446},{"name":"F5","midi":77,"time":74.04754499999987,"velocity":0.6299212598425197,"duration":0.11408718750000446},{"name":"D#5","midi":75,"time":74.52373499999987,"velocity":0.6299212598425197,"duration":0.11408718750000446},{"name":"G5","midi":79,"time":74.52373499999987,"velocity":0.6299212598425197,"duration":0.11408718750000446},{"name":"D#5","midi":75,"time":74.99992499999988,"velocity":0.6299212598425197,"duration":0.11408718750000446},{"name":"G5","midi":79,"time":74.99992499999988,"velocity":0.6299212598425197,"duration":0.11408718750000446},{"name":"D#5","midi":75,"time":75.47611499999988,"velocity":0.6299212598425197,"duration":0.11408718750000446},{"name":"C5","midi":72,"time":75.47611499999988,"velocity":0.6299212598425197,"duration":0.11408718750000446},{"name":"D#5","midi":75,"time":75.95230499999988,"velocity":0.6299212598425197,"duration":0.11408718750000446},{"name":"C5","midi":72,"time":75.95230499999988,"velocity":0.6299212598425197,"duration":0.11408718750000446},{"name":"D5","midi":74,"time":76.42849499999988,"velocity":0.6299212598425197,"duration":0.11408718750000446},{"name":"B4","midi":71,"time":76.42849499999988,"velocity":0.6299212598425197,"duration":0.11408718750000446},{"name":"D5","midi":74,"time":76.90468499999989,"velocity":0.6299212598425197,"duration":0.11408718750000446},{"name":"B4","midi":71,"time":76.90468499999989,"velocity":0.6299212598425197,"duration":0.11408718750000446},{"name":"D5","midi":74,"time":77.38087499999989,"velocity":0.6299212598425197,"duration":0.11408718750000446},{"name":"B4","midi":71,"time":77.38087499999989,"velocity":0.6299212598425197,"duration":0.11408718750000446},{"name":"D5","midi":74,"time":77.85706499999989,"velocity":0.6299212598425197,"duration":0.11408718750000446},{"name":"B4","midi":71,"time":77.85706499999989,"velocity":0.6299212598425197,"duration":0.11408718750000446},{"name":"G5","midi":79,"time":80.9522999999999,"velocity":0.8661417322834646,"duration":0.11408718750000446},{"name":"E6","midi":88,"time":80.9522999999999,"velocity":0.8661417322834646,"duration":0.11408718750000446},{"name":"A5","midi":81,"time":81.1903949999999,"velocity":0.8661417322834646,"duration":0.11408718750000446},{"name":"F6","midi":89,"time":81.1903949999999,"velocity":0.8661417322834646,"duration":0.11408718750000446},{"name":"C6","midi":84,"time":81.3094424999999,"velocity":0.8661417322834646,"duration":0.11408718750000446},{"name":"G6","midi":91,"time":81.3094424999999,"velocity":0.8661417322834646,"duration":0.11408718750000446},{"name":"A5","midi":81,"time":81.5475374999999,"velocity":0.8661417322834646,"duration":0.11408718750000446},{"name":"F6","midi":89,"time":81.5475374999999,"velocity":0.8661417322834646,"duration":0.11408718750000446},{"name":"G5","midi":79,"time":81.66658499999991,"velocity":0.8661417322834646,"duration":0.11408718750000446},{"name":"E6","midi":88,"time":81.66658499999991,"velocity":0.8661417322834646,"duration":0.11408718750000446},{"name":"G5","midi":79,"time":81.90467999999991,"velocity":0.8661417322834646,"duration":0.11408718750000446},{"name":"E6","midi":88,"time":81.90467999999991,"velocity":0.8661417322834646,"duration":0.11408718750000446},{"name":"E5","midi":76,"time":82.14277499999992,"velocity":0.8661417322834646,"duration":0.11408718750000446},{"name":"C6","midi":84,"time":82.14277499999992,"velocity":0.8661417322834646,"duration":0.11408718750000446},{"name":"B5","midi":83,"time":85.23800999999992,"velocity":0.8661417322834646,"duration":0.024801562500002206},{"name":"D#6","midi":87,"time":85.23800999999992,"velocity":0.8661417322834646,"duration":0.024801562500002206},{"name":"C6","midi":84,"time":85.26777187499992,"velocity":0.8661417322834646,"duration":0.11408718750000446},{"name":"E6","midi":88,"time":85.26777187499992,"velocity":0.8661417322834646,"duration":0.11408718750000446},{"name":"G5","midi":79,"time":85.47610499999993,"velocity":0.8661417322834646,"duration":0.11408718750000446},{"name":"C6","midi":84,"time":85.47610499999993,"velocity":0.8661417322834646,"duration":0.11408718750000446},{"name":"G5","midi":79,"time":88.57133999999994,"velocity":0.8661417322834646,"duration":0.11408718750000446},{"name":"E6","midi":88,"time":88.57133999999994,"velocity":0.8661417322834646,"duration":0.11408718750000446},{"name":"A5","midi":81,"time":88.80943499999994,"velocity":0.8661417322834646,"duration":0.11408718750000446},{"name":"F6","midi":89,"time":88.80943499999994,"velocity":0.8661417322834646,"duration":0.11408718750000446},{"name":"C6","midi":84,"time":88.92848249999994,"velocity":0.8661417322834646,"duration":0.11408718750000446},{"name":"G6","midi":91,"time":88.92848249999994,"velocity":0.8661417322834646,"duration":0.11408718750000446},{"name":"A5","midi":81,"time":89.16657749999995,"velocity":0.8661417322834646,"duration":0.11408718750000446},{"name":"F6","midi":89,"time":89.16657749999995,"velocity":0.8661417322834646,"duration":0.11408718750000446},{"name":"G5","midi":79,"time":89.28562499999995,"velocity":0.8661417322834646,"duration":0.11408718750000446},{"name":"E6","midi":88,"time":89.28562499999995,"velocity":0.8661417322834646,"duration":0.11408718750000446},{"name":"G5","midi":79,"time":89.52371999999995,"velocity":0.8661417322834646,"duration":0.11408718750000446},{"name":"E6","midi":88,"time":89.52371999999995,"velocity":0.8661417322834646,"duration":0.11408718750000446},{"name":"E5","midi":76,"time":89.76181499999996,"velocity":0.8661417322834646,"duration":0.11408718750000446},{"name":"C6","midi":84,"time":89.76181499999996,"velocity":0.8661417322834646,"duration":0.11408718750000446},{"name":"B5","midi":83,"time":92.65863749999995,"velocity":0.8661417322834646,"duration":0.03472218749999456},{"name":"G5","midi":79,"time":92.65863749999995,"velocity":0.8661417322834646,"duration":0.03472218749999456},{"name":"C6","midi":84,"time":92.69831999999995,"velocity":0.8661417322834646,"duration":0.03472218749999456},{"name":"G#5","midi":80,"time":92.69831999999995,"velocity":0.8661417322834646,"duration":0.03472218749999456},{"name":"C#6","midi":85,"time":92.73800249999995,"velocity":0.8661417322834646,"duration":0.03472218749999456},{"name":"A5","midi":81,"time":92.73800249999995,"velocity":0.8661417322834646,"duration":0.03472218749999456},{"name":"D6","midi":86,"time":92.77768499999995,"velocity":0.8661417322834646,"duration":0.03472218749999456},{"name":"A#5","midi":82,"time":92.77768499999995,"velocity":0.8661417322834646,"duration":0.03472218749999456},{"name":"B5","midi":83,"time":92.81736749999995,"velocity":0.8661417322834646,"duration":0.03472218749999456},{"name":"D#6","midi":87,"time":92.81736749999995,"velocity":0.8661417322834646,"duration":0.03472218749999456},{"name":"E6","midi":88,"time":92.85704999999994,"velocity":0.8661417322834646,"duration":0.11408718750000446},{"name":"C6","midi":84,"time":92.85704999999994,"velocity":0.8661417322834646,"duration":0.11408718750000446},{"name":"C4","midi":60,"time":234.28547999999995,"velocity":0.7874015748031497,"duration":0.2331346875000122},{"name":"E4","midi":64,"time":234.52357499999997,"velocity":0.7874015748031497,"duration":0.11408718749999025},{"name":"G4","midi":67,"time":234.64262249999996,"velocity":0.7874015748031497,"duration":0.2331346875000122},{"name":"E4","midi":64,"time":234.88071749999997,"velocity":0.7874015748031497,"duration":0.11408718749999025},{"name":"G4","midi":67,"time":234.99976499999997,"velocity":0.7874015748031497,"duration":0.2331346875000122},{"name":"A4","midi":69,"time":235.23785999999998,"velocity":0.7874015748031497,"duration":0.2331346875000122},{"name":"G4","midi":67,"time":235.475955,"velocity":0.7874015748031497,"duration":0.11408718749999025},{"name":"E4","midi":64,"time":235.5950025,"velocity":0.7874015748031497,"duration":0.11408718749999025},{"name":"G4","midi":67,"time":235.71405,"velocity":0.7874015748031497,"duration":0.2331346875000122},{"name":"A4","midi":69,"time":235.952145,"velocity":0.7874015748031497,"duration":0.2331346875000122},{"name":"G#4","midi":68,"time":236.19024000000002,"velocity":0.7874015748031497,"duration":0.2331346875000122},{"name":"A#4","midi":70,"time":236.42833500000003,"velocity":0.7874015748031497,"duration":0.11408718749999025},{"name":"C5","midi":72,"time":236.54738250000003,"velocity":0.7874015748031497,"duration":0.2331346875000122},{"name":"A#4","midi":70,"time":236.78547750000004,"velocity":0.7874015748031497,"duration":0.11408718749999025},{"name":"G#4","midi":68,"time":236.90452500000004,"velocity":0.7874015748031497,"duration":0.2331346875000122},{"name":"G4","midi":67,"time":237.14262000000005,"velocity":0.7874015748031497,"duration":0.2331346875000122},{"name":"E4","midi":64,"time":237.38071500000007,"velocity":0.7874015748031497,"duration":0.2331346875000122},{"name":"E4","midi":64,"time":237.85690500000007,"velocity":0.7874015748031497,"duration":0.2331346875000122},{"name":"C4","midi":60,"time":238.09500000000008,"velocity":0.7874015748031497,"duration":0.2331346875000122},{"name":"E4","midi":64,"time":238.3330950000001,"velocity":0.7874015748031497,"duration":0.11408718749999025},{"name":"G4","midi":67,"time":238.4521425000001,"velocity":0.7874015748031497,"duration":0.2331346875000122},{"name":"E4","midi":64,"time":238.6902375000001,"velocity":0.7874015748031497,"duration":0.11408718749999025},{"name":"G4","midi":67,"time":238.8092850000001,"velocity":0.7874015748031497,"duration":0.2331346875000122},{"name":"A4","midi":69,"time":239.04738000000012,"velocity":0.7874015748031497,"duration":0.2331346875000122},{"name":"G4","midi":67,"time":239.28547500000013,"velocity":0.7874015748031497,"duration":0.11408718749999025},{"name":"E4","midi":64,"time":239.40452250000013,"velocity":0.7874015748031497,"duration":0.11408718749999025},{"name":"G4","midi":67,"time":239.52357000000012,"velocity":0.7874015748031497,"duration":0.2331346875000122},{"name":"A4","midi":69,"time":239.76166500000014,"velocity":0.7874015748031497,"duration":0.2331346875000122},{"name":"G#4","midi":68,"time":239.99976000000015,"velocity":0.7874015748031497,"duration":0.2331346875000122},{"name":"A#4","midi":70,"time":240.23785500000017,"velocity":0.7874015748031497,"duration":0.11408718749999025},{"name":"C5","midi":72,"time":240.35690250000016,"velocity":0.7874015748031497,"duration":0.2331346875000122},{"name":"A#4","midi":70,"time":240.59499750000018,"velocity":0.7874015748031497,"duration":0.11408718749999025},{"name":"G#4","midi":68,"time":240.71404500000017,"velocity":0.7874015748031497,"duration":0.2331346875000122},{"name":"D#5","midi":75,"time":240.95214000000018,"velocity":0.7874015748031497,"duration":0.004960312500003283},{"name":"E5","midi":76,"time":240.98190187500018,"velocity":0.7874015748031497,"duration":0.23313468749998378},{"name":"C5","midi":72,"time":241.19023500000017,"velocity":0.7874015748031497,"duration":0.4712296874999993},{"name":"C4","midi":60,"time":241.90452000000016,"velocity":0.7874015748031497,"duration":0.2331346875000122},{"name":"E4","midi":64,"time":242.14261500000018,"velocity":0.7874015748031497,"duration":0.11408718749999025},{"name":"G4","midi":67,"time":242.26166250000017,"velocity":0.7874015748031497,"duration":0.2331346875000122},{"name":"E4","midi":64,"time":242.4997575000002,"velocity":0.7874015748031497,"duration":0.11408718749999025},{"name":"G4","midi":67,"time":242.61880500000018,"velocity":0.7874015748031497,"duration":0.2331346875000122},{"name":"A4","midi":69,"time":242.8569000000002,"velocity":0.7874015748031497,"duration":0.2331346875000122},{"name":"G4","midi":67,"time":243.0949950000002,"velocity":0.7874015748031497,"duration":0.11408718749999025},{"name":"E4","midi":64,"time":243.2140425000002,"velocity":0.7874015748031497,"duration":0.11408718749999025},{"name":"G4","midi":67,"time":243.3330900000002,"velocity":0.7874015748031497,"duration":0.2331346875000122},{"name":"A4","midi":69,"time":243.5711850000002,"velocity":0.7874015748031497,"duration":0.2331346875000122},{"name":"G#4","midi":68,"time":243.80928000000023,"velocity":0.7874015748031497,"duration":0.2331346875000122},{"name":"A#4","midi":70,"time":244.04737500000024,"velocity":0.7874015748031497,"duration":0.11408718749999025},{"name":"C5","midi":72,"time":244.16642250000024,"velocity":0.7874015748031497,"duration":0.2331346875000122},{"name":"A#4","midi":70,"time":244.40451750000025,"velocity":0.7874015748031497,"duration":0.11408718749999025},{"name":"G#4","midi":68,"time":244.52356500000025,"velocity":0.7874015748031497,"duration":0.2331346875000122},{"name":"G4","midi":67,"time":244.76166000000026,"velocity":0.7874015748031497,"duration":0.2331346875000122},{"name":"E4","midi":64,"time":244.99975500000028,"velocity":0.7874015748031497,"duration":0.2331346875000122},{"name":"E4","midi":64,"time":245.47594500000028,"velocity":0.7874015748031497,"duration":0.2331346875000122},{"name":"C4","midi":60,"time":245.7140400000003,"velocity":0.7874015748031497,"duration":0.2331346875000122},{"name":"E4","midi":64,"time":245.9521350000003,"velocity":0.7874015748031497,"duration":0.11408718749999025},{"name":"G4","midi":67,"time":246.0711825000003,"velocity":0.7874015748031497,"duration":0.2331346875000122},{"name":"E4","midi":64,"time":246.30927750000032,"velocity":0.7874015748031497,"duration":0.11408718749999025},{"name":"G4","midi":67,"time":246.4283250000003,"velocity":0.7874015748031497,"duration":0.2331346875000122},{"name":"A4","midi":69,"time":246.66642000000033,"velocity":0.7874015748031497,"duration":0.2331346875000122},{"name":"G4","midi":67,"time":246.90451500000034,"velocity":0.7874015748031497,"duration":0.11408718749999025},{"name":"E4","midi":64,"time":247.02356250000034,"velocity":0.7874015748031497,"duration":0.11408718749999025},{"name":"G4","midi":67,"time":247.14261000000033,"velocity":0.7874015748031497,"duration":0.2331346875000122},{"name":"A4","midi":69,"time":247.38070500000035,"velocity":0.7874015748031497,"duration":0.2331346875000122},{"name":"G#4","midi":68,"time":247.61880000000036,"velocity":0.7874015748031497,"duration":0.2331346875000122},{"name":"A#4","midi":70,"time":247.85689500000038,"velocity":0.7874015748031497,"duration":0.11408718749999025},{"name":"B4","midi":71,"time":247.97594250000037,"velocity":0.7874015748031497,"duration":0.2331346875000122},{"name":"A4","midi":69,"time":248.2140375000004,"velocity":0.7874015748031497,"duration":0.11408718749999025},{"name":"G4","midi":67,"time":248.33308500000038,"velocity":0.7874015748031497,"duration":0.2331346875000122},{"name":"C5","midi":72,"time":248.5711800000004,"velocity":0.7874015748031497,"duration":0.4712296874999993},{"name":"F#4","midi":66,"time":249.5235600000004,"velocity":0.7874015748031497,"duration":0.2331346875000122},{"name":"G#4","midi":68,"time":249.76165500000042,"velocity":0.7874015748031497,"duration":0.11408718749999025},{"name":"A#4","midi":70,"time":249.8807025000004,"velocity":0.7874015748031497,"duration":0.2331346875000122},{"name":"G#4","midi":68,"time":250.11879750000043,"velocity":0.7874015748031497,"duration":0.11408718749999025},{"name":"F#4","midi":66,"time":250.23784500000042,"velocity":0.7874015748031497,"duration":0.2331346875000122},{"name":"B4","midi":71,"time":250.47594000000043,"velocity":0.7874015748031497,"duration":0.2331346875000122},{"name":"C#5","midi":73,"time":250.71403500000045,"velocity":0.7874015748031497,"duration":0.11408718749999025},{"name":"D#5","midi":75,"time":250.83308250000044,"velocity":0.7874015748031497,"duration":0.2331346875000122},{"name":"C#5","midi":73,"time":251.07117750000046,"velocity":0.7874015748031497,"duration":0.11408718749999025},{"name":"B4","midi":71,"time":251.19022500000045,"velocity":0.7874015748031497,"duration":0.2331346875000122},{"name":"F4","midi":65,"time":251.42832000000047,"velocity":0.7874015748031497,"duration":0.2331346875000122},{"name":"G4","midi":67,"time":251.66641500000048,"velocity":0.7874015748031497,"duration":0.11408718749999025},{"name":"A4","midi":69,"time":251.78546250000048,"velocity":0.7874015748031497,"duration":0.2331346875000122},{"name":"G4","midi":67,"time":252.0235575000005,"velocity":0.7874015748031497,"duration":0.11408718749999025},{"name":"F4","midi":65,"time":252.1426050000005,"velocity":0.7874015748031497,"duration":0.2331346875000122},{"name":"A#4","midi":70,"time":252.3807000000005,"velocity":0.7874015748031497,"duration":0.2331346875000122},{"name":"C5","midi":72,"time":252.61879500000052,"velocity":0.7874015748031497,"duration":0.11408718749999025},{"name":"D5","midi":74,"time":252.7378425000005,"velocity":0.7874015748031497,"duration":0.2331346875000122},{"name":"C5","midi":72,"time":252.97593750000053,"velocity":0.7874015748031497,"duration":0.11408718749999025},{"name":"A#4","midi":70,"time":253.09498500000052,"velocity":0.7874015748031497,"duration":0.2331346875000122},{"name":"D#4","midi":63,"time":253.33308000000054,"velocity":0.7874015748031497,"duration":0.2331346875000122},{"name":"F4","midi":65,"time":253.57117500000055,"velocity":0.7874015748031497,"duration":0.11408718749999025},{"name":"G4","midi":67,"time":253.69022250000054,"velocity":0.7874015748031497,"duration":0.2331346875000122},{"name":"F4","midi":65,"time":253.92831750000056,"velocity":0.7874015748031497,"duration":0.11408718749999025},{"name":"D#4","midi":63,"time":254.04736500000055,"velocity":0.7874015748031497,"duration":0.2331346875000122},{"name":"G#4","midi":68,"time":254.28546000000057,"velocity":0.7874015748031497,"duration":0.2331346875000122},{"name":"A#4","midi":70,"time":254.52355500000058,"velocity":0.7874015748031497,"duration":0.11408718749999025},{"name":"C5","midi":72,"time":254.64260250000058,"velocity":0.7874015748031497,"duration":0.2331346875000122},{"name":"A#4","midi":70,"time":254.8806975000006,"velocity":0.7874015748031497,"duration":0.11408718749999025},{"name":"G#4","midi":68,"time":254.9997450000006,"velocity":0.7874015748031497,"duration":0.2331346875000122},{"name":"G4","midi":67,"time":255.2378400000006,"velocity":0.7874015748031497,"duration":0.2331346875000122},{"name":"F#4","midi":66,"time":255.47593500000062,"velocity":0.7874015748031497,"duration":0.11408718749999025},{"name":"G4","midi":67,"time":255.5949825000006,"velocity":0.7874015748031497,"duration":0.2331346875000122},{"name":"A4","midi":69,"time":255.83307750000063,"velocity":0.7874015748031497,"duration":0.11408718749999025},{"name":"B4","midi":71,"time":255.95212500000062,"velocity":0.7874015748031497,"duration":0.23313468749998378},{"name":"B4","midi":71,"time":256.1902200000006,"velocity":0.7874015748031497,"duration":0.2331346875000122},{"name":"A#4","midi":70,"time":256.42831500000057,"velocity":0.7874015748031497,"duration":0.11408718749999025},{"name":"B4","midi":71,"time":256.54736250000053,"velocity":0.7874015748031497,"duration":0.2331346875000122},{"name":"C5","midi":72,"time":256.7854575000005,"velocity":0.7874015748031497,"duration":0.11408718749999025},{"name":"D5","midi":74,"time":256.9045050000005,"velocity":0.7874015748031497,"duration":0.2331346875000122},{"name":"G4","midi":67,"time":257.14260000000047,"velocity":0.7874015748031497,"duration":0.2331346875000122},{"name":"C4","midi":60,"time":257.14260000000047,"velocity":0.7874015748031497,"duration":0.2331346875000122},{"name":"C5","midi":72,"time":257.38069500000046,"velocity":0.7874015748031497,"duration":0.11408718749999025},{"name":"E4","midi":64,"time":257.38069500000046,"velocity":0.7874015748031497,"duration":0.11408718749999025},{"name":"E5","midi":76,"time":257.4997425000004,"velocity":0.7874015748031497,"duration":0.2331346875000122},{"name":"G4","midi":67,"time":257.4997425000004,"velocity":0.7874015748031497,"duration":0.2331346875000122},{"name":"C5","midi":72,"time":257.7378375000004,"velocity":0.7874015748031497,"duration":0.11408718749999025},{"name":"E4","midi":64,"time":257.7378375000004,"velocity":0.7874015748031497,"duration":0.11408718749999025},{"name":"E5","midi":76,"time":257.8568850000004,"velocity":0.7874015748031497,"duration":0.2331346875000122},{"name":"G4","midi":67,"time":257.8568850000004,"velocity":0.7874015748031497,"duration":0.2331346875000122},{"name":"E5","midi":76,"time":258.09498000000036,"velocity":0.7874015748031497,"duration":0.2331346875000122},{"name":"A4","midi":69,"time":258.09498000000036,"velocity":0.7874015748031497,"duration":0.2331346875000122},{"name":"E5","midi":76,"time":258.33307500000035,"velocity":0.7874015748031497,"duration":0.11408718749999025},{"name":"G4","midi":67,"time":258.33307500000035,"velocity":0.7874015748031497,"duration":0.11408718749999025},{"name":"C5","midi":72,"time":258.4521225000003,"velocity":0.7874015748031497,"duration":0.11408718749999025},{"name":"E4","midi":64,"time":258.4521225000003,"velocity":0.7874015748031497,"duration":0.11408718749999025},{"name":"E5","midi":76,"time":258.5711700000003,"velocity":0.7874015748031497,"duration":0.2331346875000122},{"name":"G4","midi":67,"time":258.5711700000003,"velocity":0.7874015748031497,"duration":0.2331346875000122},{"name":"E5","midi":76,"time":258.80926500000027,"velocity":0.7874015748031497,"duration":0.2331346875000122},{"name":"A4","midi":69,"time":258.80926500000027,"velocity":0.7874015748031497,"duration":0.2331346875000122},{"name":"D#5","midi":75,"time":259.04736000000025,"velocity":0.7874015748031497,"duration":0.2331346875000122},{"name":"G#4","midi":68,"time":259.04736000000025,"velocity":0.7874015748031497,"duration":0.2331346875000122},{"name":"F5","midi":77,"time":259.28545500000024,"velocity":0.7874015748031497,"duration":0.11408718749999025},{"name":"A#4","midi":70,"time":259.28545500000024,"velocity":0.7874015748031497,"duration":0.11408718749999025},{"name":"G#5","midi":80,"time":259.4045025000002,"velocity":0.7874015748031497,"duration":0.2331346875000122},{"name":"C5","midi":72,"time":259.4045025000002,"velocity":0.7874015748031497,"duration":0.2331346875000122},{"name":"F5","midi":77,"time":259.6425975000002,"velocity":0.7874015748031497,"duration":0.11408718749999025},{"name":"A#4","midi":70,"time":259.6425975000002,"velocity":0.7874015748031497,"duration":0.11408718749999025},{"name":"D#5","midi":75,"time":259.76164500000016,"velocity":0.7874015748031497,"duration":0.2331346875000122},{"name":"G#4","midi":68,"time":259.76164500000016,"velocity":0.7874015748031497,"duration":0.2331346875000122},{"name":"E5","midi":76,"time":259.99974000000014,"velocity":0.7874015748031497,"duration":0.2331346875000122},{"name":"G4","midi":67,"time":259.99974000000014,"velocity":0.7874015748031497,"duration":0.2331346875000122},{"name":"C5","midi":72,"time":260.23783500000013,"velocity":0.7874015748031497,"duration":0.2331346875000122},{"name":"E4","midi":64,"time":260.23783500000013,"velocity":0.7874015748031497,"duration":0.2331346875000122},{"name":"C5","midi":72,"time":260.71402500000016,"velocity":0.7874015748031497,"duration":0.2331346875000122},{"name":"E4","midi":64,"time":260.71402500000016,"velocity":0.7874015748031497,"duration":0.2331346875000122},{"name":"G4","midi":67,"time":260.95212000000015,"velocity":0.7874015748031497,"duration":0.2331346875000122},{"name":"C4","midi":60,"time":260.95212000000015,"velocity":0.7874015748031497,"duration":0.2331346875000122},{"name":"C5","midi":72,"time":261.19021500000014,"velocity":0.7874015748031497,"duration":0.11408718749999025},{"name":"E4","midi":64,"time":261.19021500000014,"velocity":0.7874015748031497,"duration":0.11408718749999025},{"name":"E5","midi":76,"time":261.3092625000001,"velocity":0.7874015748031497,"duration":0.2331346875000122},{"name":"G4","midi":67,"time":261.3092625000001,"velocity":0.7874015748031497,"duration":0.2331346875000122},{"name":"C5","midi":72,"time":261.5473575000001,"velocity":0.7874015748031497,"duration":0.11408718749999025},{"name":"E4","midi":64,"time":261.5473575000001,"velocity":0.7874015748031497,"duration":0.11408718749999025},{"name":"E5","midi":76,"time":261.66640500000005,"velocity":0.7874015748031497,"duration":0.2331346875000122},{"name":"G4","midi":67,"time":261.66640500000005,"velocity":0.7874015748031497,"duration":0.2331346875000122},{"name":"E5","midi":76,"time":261.90450000000004,"velocity":0.7874015748031497,"duration":0.2331346875000122},{"name":"A4","midi":69,"time":261.90450000000004,"velocity":0.7874015748031497,"duration":0.2331346875000122},{"name":"E5","midi":76,"time":262.14259500000003,"velocity":0.7874015748031497,"duration":0.11408718749999025},{"name":"G4","midi":67,"time":262.14259500000003,"velocity":0.7874015748031497,"duration":0.11408718749999025},{"name":"C5","midi":72,"time":262.2616425,"velocity":0.7874015748031497,"duration":0.11408718749999025},{"name":"E4","midi":64,"time":262.2616425,"velocity":0.7874015748031497,"duration":0.11408718749999025},{"name":"E5","midi":76,"time":262.38068999999996,"velocity":0.7874015748031497,"duration":0.2331346875000122},{"name":"G4","midi":67,"time":262.38068999999996,"velocity":0.7874015748031497,"duration":0.2331346875000122},{"name":"E5","midi":76,"time":262.61878499999995,"velocity":0.7874015748031497,"duration":0.2331346875000122},{"name":"A4","midi":69,"time":262.61878499999995,"velocity":0.7874015748031497,"duration":0.2331346875000122},{"name":"D#5","midi":75,"time":262.85687999999993,"velocity":0.7874015748031497,"duration":0.2331346875000122},{"name":"G#4","midi":68,"time":262.85687999999993,"velocity":0.7874015748031497,"duration":0.2331346875000122},{"name":"F5","midi":77,"time":263.0949749999999,"velocity":0.7874015748031497,"duration":0.11408718749999025},{"name":"A#4","midi":70,"time":263.0949749999999,"velocity":0.7874015748031497,"duration":0.11408718749999025},{"name":"G#5","midi":80,"time":263.2140224999999,"velocity":0.7874015748031497,"duration":0.2331346875000122},{"name":"C5","midi":72,"time":263.2140224999999,"velocity":0.7874015748031497,"duration":0.2331346875000122},{"name":"F5","midi":77,"time":263.4521174999999,"velocity":0.7874015748031497,"duration":0.11408718749999025},{"name":"A#4","midi":70,"time":263.4521174999999,"velocity":0.7874015748031497,"duration":0.11408718749999025},{"name":"D#5","midi":75,"time":263.57116499999984,"velocity":0.7874015748031497,"duration":0.2331346875000122},{"name":"G#4","midi":68,"time":263.57116499999984,"velocity":0.7874015748031497,"duration":0.2331346875000122},{"name":"B5","midi":83,"time":263.8092599999998,"velocity":0.7874015748031497,"duration":0.004960312499974862},{"name":"D#5","midi":75,"time":263.8092599999998,"velocity":0.7874015748031497,"duration":0.004960312499974862},{"name":"C6","midi":84,"time":263.8390218749998,"velocity":0.7874015748031497,"duration":0.2331346875000122},{"name":"E5","midi":76,"time":263.8390218749998,"velocity":0.7874015748031497,"duration":0.2331346875000122},{"name":"G5","midi":79,"time":264.0473549999998,"velocity":0.7874015748031497,"duration":0.4712296874999993},{"name":"C5","midi":72,"time":264.0473549999998,"velocity":0.7874015748031497,"duration":0.4712296874999993},{"name":"G4","midi":67,"time":264.76163999999983,"velocity":0.7874015748031497,"duration":0.2331346875000122},{"name":"C4","midi":60,"time":264.76163999999983,"velocity":0.7874015748031497,"duration":0.2331346875000122},{"name":"C5","midi":72,"time":264.9997349999998,"velocity":0.7874015748031497,"duration":0.11408718749999025},{"name":"E4","midi":64,"time":264.9997349999998,"velocity":0.7874015748031497,"duration":0.11408718749999025},{"name":"E5","midi":76,"time":265.1187824999998,"velocity":0.7874015748031497,"duration":0.2331346875000122},{"name":"G4","midi":67,"time":265.1187824999998,"velocity":0.7874015748031497,"duration":0.2331346875000122},{"name":"C5","midi":72,"time":265.35687749999977,"velocity":0.7874015748031497,"duration":0.11408718749999025},{"name":"E4","midi":64,"time":265.35687749999977,"velocity":0.7874015748031497,"duration":0.11408718749999025},{"name":"E5","midi":76,"time":265.47592499999973,"velocity":0.7874015748031497,"duration":0.2331346875000122},{"name":"G4","midi":67,"time":265.47592499999973,"velocity":0.7874015748031497,"duration":0.2331346875000122},{"name":"E5","midi":76,"time":265.7140199999997,"velocity":0.7874015748031497,"duration":0.2331346875000122},{"name":"A4","midi":69,"time":265.7140199999997,"velocity":0.7874015748031497,"duration":0.2331346875000122},{"name":"E5","midi":76,"time":265.9521149999997,"velocity":0.7874015748031497,"duration":0.11408718749999025},{"name":"G4","midi":67,"time":265.9521149999997,"velocity":0.7874015748031497,"duration":0.11408718749999025},{"name":"C5","midi":72,"time":266.0711624999997,"velocity":0.7874015748031497,"duration":0.11408718749999025},{"name":"E4","midi":64,"time":266.0711624999997,"velocity":0.7874015748031497,"duration":0.11408718749999025},{"name":"E5","midi":76,"time":266.19020999999964,"velocity":0.7874015748031497,"duration":0.2331346875000122},{"name":"G4","midi":67,"time":266.19020999999964,"velocity":0.7874015748031497,"duration":0.2331346875000122},{"name":"E5","midi":76,"time":266.4283049999996,"velocity":0.7874015748031497,"duration":0.2331346875000122},{"name":"A4","midi":69,"time":266.4283049999996,"velocity":0.7874015748031497,"duration":0.2331346875000122},{"name":"D#5","midi":75,"time":266.6663999999996,"velocity":0.7874015748031497,"duration":0.2331346875000122},{"name":"G#4","midi":68,"time":266.6663999999996,"velocity":0.7874015748031497,"duration":0.2331346875000122},{"name":"F5","midi":77,"time":266.9044949999996,"velocity":0.7874015748031497,"duration":0.11408718749999025},{"name":"A#4","midi":70,"time":266.9044949999996,"velocity":0.7874015748031497,"duration":0.11408718749999025},{"name":"G#5","midi":80,"time":267.02354249999956,"velocity":0.7874015748031497,"duration":0.2331346875000122},{"name":"C5","midi":72,"time":267.02354249999956,"velocity":0.7874015748031497,"duration":0.2331346875000122},{"name":"F5","midi":77,"time":267.26163749999955,"velocity":0.7874015748031497,"duration":0.11408718749999025},{"name":"A#4","midi":70,"time":267.26163749999955,"velocity":0.7874015748031497,"duration":0.11408718749999025},{"name":"D#5","midi":75,"time":267.3806849999995,"velocity":0.7874015748031497,"duration":0.2331346875000122},{"name":"G#4","midi":68,"time":267.3806849999995,"velocity":0.7874015748031497,"duration":0.2331346875000122},{"name":"E5","midi":76,"time":267.6187799999995,"velocity":0.7874015748031497,"duration":0.2331346875000122},{"name":"G4","midi":67,"time":267.6187799999995,"velocity":0.7874015748031497,"duration":0.2331346875000122},{"name":"C5","midi":72,"time":267.8568749999995,"velocity":0.7874015748031497,"duration":0.2331346875000122},{"name":"E4","midi":64,"time":267.8568749999995,"velocity":0.7874015748031497,"duration":0.2331346875000122},{"name":"C5","midi":72,"time":268.3330649999995,"velocity":0.7874015748031497,"duration":0.2331346875000122},{"name":"E4","midi":64,"time":268.3330649999995,"velocity":0.7874015748031497,"duration":0.2331346875000122},{"name":"G4","midi":67,"time":268.5711599999995,"velocity":0.7874015748031497,"duration":0.2331346875000122},{"name":"C4","midi":60,"time":268.5711599999995,"velocity":0.7874015748031497,"duration":0.2331346875000122},{"name":"C5","midi":72,"time":268.8092549999995,"velocity":0.7874015748031497,"duration":0.11408718749999025},{"name":"E4","midi":64,"time":268.8092549999995,"velocity":0.7874015748031497,"duration":0.11408718749999025},{"name":"E5","midi":76,"time":268.92830249999946,"velocity":0.7874015748031497,"duration":0.2331346875000122},{"name":"G4","midi":67,"time":268.92830249999946,"velocity":0.7874015748031497,"duration":0.2331346875000122},{"name":"C5","midi":72,"time":269.16639749999945,"velocity":0.7874015748031497,"duration":0.11408718749999025},{"name":"E4","midi":64,"time":269.16639749999945,"velocity":0.7874015748031497,"duration":0.11408718749999025},{"name":"E5","midi":76,"time":269.2854449999994,"velocity":0.7874015748031497,"duration":0.2331346875000122},{"name":"G4","midi":67,"time":269.2854449999994,"velocity":0.7874015748031497,"duration":0.2331346875000122},{"name":"E5","midi":76,"time":269.5235399999994,"velocity":0.7874015748031497,"duration":0.2331346875000122},{"name":"A4","midi":69,"time":269.5235399999994,"velocity":0.7874015748031497,"duration":0.2331346875000122},{"name":"E5","midi":76,"time":269.7616349999994,"velocity":0.7874015748031497,"duration":0.11408718749999025},{"name":"G4","midi":67,"time":269.7616349999994,"velocity":0.7874015748031497,"duration":0.11408718749999025},{"name":"C5","midi":72,"time":269.88068249999935,"velocity":0.7874015748031497,"duration":0.11408718749999025},{"name":"E4","midi":64,"time":269.88068249999935,"velocity":0.7874015748031497,"duration":0.11408718749999025},{"name":"E5","midi":76,"time":269.9997299999993,"velocity":0.7874015748031497,"duration":0.2331346875000122},{"name":"G4","midi":67,"time":269.9997299999993,"velocity":0.7874015748031497,"duration":0.2331346875000122},{"name":"E5","midi":76,"time":270.2378249999993,"velocity":0.7874015748031497,"duration":0.2331346875000122},{"name":"A4","midi":69,"time":270.2378249999993,"velocity":0.7874015748031497,"duration":0.2331346875000122},{"name":"F5","midi":77,"time":270.4759199999993,"velocity":0.7874015748031497,"duration":0.2331346875000122},{"name":"G#4","midi":68,"time":270.4759199999993,"velocity":0.7874015748031497,"duration":0.2331346875000122},{"name":"F#5","midi":78,"time":270.7140149999993,"velocity":0.7874015748031497,"duration":0.11408718749999025},{"name":"A#4","midi":70,"time":270.7140149999993,"velocity":0.7874015748031497,"duration":0.11408718749999025},{"name":"G5","midi":79,"time":270.83306249999924,"velocity":0.7874015748031497,"duration":0.2281743749999805},{"name":"B4","midi":71,"time":270.83306249999924,"velocity":0.7874015748031497,"duration":0.2281743749999805},{"name":"G5","midi":79,"time":271.07115749999923,"velocity":0.7874015748031497,"duration":0.11408718749999025},{"name":"A4","midi":69,"time":271.07115749999923,"velocity":0.7874015748031497,"duration":0.11408718749999025},{"name":"F5","midi":77,"time":271.1902049999992,"velocity":0.7874015748031497,"duration":0.2281743749999805},{"name":"G4","midi":67,"time":271.1902049999992,"velocity":0.7874015748031497,"duration":0.2281743749999805},{"name":"E5","midi":76,"time":271.4282999999992,"velocity":0.7874015748031497,"duration":0.4712296874999993},{"name":"C5","midi":72,"time":271.4282999999992,"velocity":0.7874015748031497,"duration":0.4712296874999993},{"name":"F#4","midi":66,"time":272.3806799999992,"velocity":0.7874015748031497,"duration":0.2331346875000122},{"name":"G#4","midi":68,"time":272.7378224999992,"velocity":0.7874015748031497,"duration":0.11408718749999025},{"name":"A#4","midi":70,"time":272.85686999999916,"velocity":0.7874015748031497,"duration":0.2331346875000122},{"name":"G#4","midi":68,"time":273.09496499999915,"velocity":0.7874015748031497,"duration":0.2331346875000122},{"name":"F#4","midi":66,"time":273.33305999999914,"velocity":0.7874015748031497,"duration":0.11408718749999025},{"name":"F4","midi":65,"time":273.4521074999991,"velocity":0.7874015748031497,"duration":0.11408718749999025},{"name":"F#4","midi":66,"time":273.57115499999907,"velocity":0.7874015748031497,"duration":0.11408718749999025},{"name":"F4","midi":65,"time":273.69020249999903,"velocity":0.7874015748031497,"duration":0.11408718749999025},{"name":"F#4","midi":66,"time":273.809249999999,"velocity":0.7874015748031497,"duration":0.2331346875000122},{"name":"C#4","midi":61,"time":274.047344999999,"velocity":0.7874015748031497,"duration":0.2331346875000122},{"name":"D4","midi":62,"time":274.28543999999897,"velocity":0.7874015748031497,"duration":0.2331346875000122},{"name":"E4","midi":64,"time":274.642582499999,"velocity":0.7874015748031497,"duration":0.11408718749999025},{"name":"F#4","midi":66,"time":274.76162999999895,"velocity":0.7874015748031497,"duration":0.2331346875000122},{"name":"E4","midi":64,"time":274.99972499999893,"velocity":0.7874015748031497,"duration":0.11408718749999025},{"name":"D4","midi":62,"time":275.1187724999989,"velocity":0.7874015748031497,"duration":0.11408718749999025},{"name":"C#4","midi":61,"time":275.23781999999886,"velocity":0.7874015748031497,"duration":0.4712296874999993},{"name":"B3","midi":59,"time":276.19019999999887,"velocity":0.7874015748031497,"duration":0.2331346875000122},{"name":"C#4","midi":61,"time":276.5473424999989,"velocity":0.7874015748031497,"duration":0.11408718749999025},{"name":"D#4","midi":63,"time":276.66638999999884,"velocity":0.7874015748031497,"duration":0.2331346875000122},{"name":"C#4","midi":61,"time":276.90448499999883,"velocity":0.7874015748031497,"duration":0.11408718749999025},{"name":"B3","midi":59,"time":277.0235324999988,"velocity":0.7874015748031497,"duration":0.11408718749999025},{"name":"C#4","midi":61,"time":277.14257999999876,"velocity":0.7874015748031497,"duration":0.2331346875000122},{"name":"F#4","midi":66,"time":277.38067499999875,"velocity":0.7874015748031497,"duration":0.2331346875000122},{"name":"F#3","midi":54,"time":277.61876999999873,"velocity":0.7874015748031497,"duration":0.2331346875000122},{"name":"G#3","midi":56,"time":278.09495999999876,"velocity":0.7874015748031497,"duration":0.2331346875000122},{"name":"G#3","midi":56,"time":278.4521024999988,"velocity":0.7874015748031497,"duration":0.11408718749999025},{"name":"G#3","midi":56,"time":278.57114999999874,"velocity":0.7874015748031497,"duration":0.2331346875000122},{"name":"G3","midi":55,"time":278.8092449999987,"velocity":0.7874015748031497,"duration":0.11408718749999025},{"name":"G#3","midi":56,"time":278.9282924999987,"velocity":0.7874015748031497,"duration":0.11408718749999025},{"name":"C#4","midi":61,"time":279.04733999999866,"velocity":0.7874015748031497,"duration":0.9474196874999734},{"name":"F#4","midi":66,"time":279.9997199999986,"velocity":0.7874015748031497,"duration":0.2331346875000122},{"name":"G#4","midi":68,"time":280.3568624999986,"velocity":0.7874015748031497,"duration":0.11408718749999025},{"name":"A#4","midi":70,"time":280.4759099999986,"velocity":0.7874015748031497,"duration":0.2331346875000122},{"name":"G#4","midi":68,"time":280.71400499999856,"velocity":0.7874015748031497,"duration":0.2331346875000122},{"name":"F#4","midi":66,"time":280.95209999999855,"velocity":0.7874015748031497,"duration":0.11408718749999025},{"name":"F4","midi":65,"time":281.0711474999985,"velocity":0.7874015748031497,"duration":0.11408718749999025},{"name":"F#4","midi":66,"time":281.1901949999985,"velocity":0.7874015748031497,"duration":0.11408718749999025},{"name":"F4","midi":65,"time":281.30924249999845,"velocity":0.7874015748031497,"duration":0.11408718749999025},{"name":"F#4","midi":66,"time":281.4282899999984,"velocity":0.7874015748031497,"duration":0.2331346875000122},{"name":"C#4","midi":61,"time":281.6663849999984,"velocity":0.7874015748031497,"duration":0.2331346875000122},{"name":"C4","midi":60,"time":281.9044799999984,"velocity":0.7874015748031497,"duration":0.2331346875000122},{"name":"D4","midi":62,"time":282.2616224999984,"velocity":0.7874015748031497,"duration":0.11408718749999025},{"name":"E4","midi":64,"time":282.38066999999836,"velocity":0.7874015748031497,"duration":0.2331346875000122},{"name":"G4","midi":67,"time":282.61876499999835,"velocity":0.7874015748031497,"duration":0.2331346875000122},{"name":"C5","midi":72,"time":282.85685999999833,"velocity":0.7874015748031497,"duration":0.11408718749999025},{"name":"B4","midi":71,"time":282.9759074999983,"velocity":0.7874015748031497,"duration":0.11408718749999025},{"name":"C5","midi":72,"time":283.09495499999827,"velocity":0.7874015748031497,"duration":0.11408718749999025},{"name":"D5","midi":74,"time":283.21400249999823,"velocity":0.7874015748031497,"duration":0.11408718749999025},{"name":"C5","midi":72,"time":283.3330499999982,"velocity":0.7874015748031497,"duration":0.2331346875000122},{"name":"C#5","midi":73,"time":283.8092399999982,"velocity":0.7874015748031497,"duration":0.2331346875000122},{"name":"D#5","midi":75,"time":284.16638249999824,"velocity":0.7874015748031497,"duration":0.11408718749999025},{"name":"C#5","midi":73,"time":284.2854299999982,"velocity":0.7874015748031497,"duration":0.2331346875000122},{"name":"G#4","midi":68,"time":284.5235249999982,"velocity":0.7874015748031497,"duration":0.2331346875000122},{"name":"G4","midi":67,"time":284.7616199999982,"velocity":0.7874015748031497,"duration":0.2331346875000122},{"name":"A4","midi":69,"time":284.99971499999816,"velocity":0.7874015748031497,"duration":0.2331346875000122},{"name":"B4","midi":71,"time":285.23780999999815,"velocity":0.7874015748031497,"duration":0.2331346875000122},{"name":"D5","midi":74,"time":285.47590499999814,"velocity":0.7874015748031497,"duration":0.2331346875000122},{"name":"C5","midi":72,"time":285.7139999999981,"velocity":0.7874015748031497,"duration":0.2331346875000122},{"name":"G4","midi":67,"time":285.9520949999981,"velocity":0.7874015748031497,"duration":0.009920625000006567},{"name":"F#4","midi":66,"time":286.0314599999981,"velocity":0.7874015748031497,"duration":0.009920625000006567},{"name":"G4","midi":67,"time":286.1108249999981,"velocity":0.7874015748031497,"duration":0.009920625000006567},{"name":"G#4","midi":68,"time":286.1901899999981,"velocity":0.7874015748031497,"duration":0.2331346875000122},{"name":"G4","midi":67,"time":286.4282849999981,"velocity":0.7874015748031497,"duration":0.2331346875000122},{"name":"C4","midi":60,"time":286.66637999999807,"velocity":0.7874015748031497,"duration":0.4712296874999993},{"name":"F#4","midi":66,"time":287.6187599999981,"velocity":0.7874015748031497,"duration":0.2331346875000122},{"name":"G#4","midi":68,"time":287.9759024999981,"velocity":0.7874015748031497,"duration":0.11408718749999025},{"name":"A#4","midi":70,"time":288.09494999999805,"velocity":0.7874015748031497,"duration":0.2331346875000122},{"name":"G#4","midi":68,"time":288.33304499999804,"velocity":0.7874015748031497,"duration":0.2331346875000122},{"name":"F#4","midi":66,"time":288.571139999998,"velocity":0.7874015748031497,"duration":0.11408718749999025},{"name":"F4","midi":65,"time":288.690187499998,"velocity":0.7874015748031497,"duration":0.11408718749999025},{"name":"F#4","midi":66,"time":288.80923499999795,"velocity":0.7874015748031497,"duration":0.11408718749999025},{"name":"F4","midi":65,"time":288.9282824999979,"velocity":0.7874015748031497,"duration":0.11408718749999025},{"name":"F#4","midi":66,"time":289.0473299999979,"velocity":0.7874015748031497,"duration":0.2331346875000122},{"name":"C#4","midi":61,"time":289.2854249999979,"velocity":0.7874015748031497,"duration":0.2331346875000122},{"name":"D4","midi":62,"time":289.52351999999786,"velocity":0.7874015748031497,"duration":0.2331346875000122},{"name":"E4","midi":64,"time":289.88066249999787,"velocity":0.7874015748031497,"duration":0.11408718749999025},{"name":"F#4","midi":66,"time":289.99970999999783,"velocity":0.7874015748031497,"duration":0.2331346875000122},{"name":"E4","midi":64,"time":290.2378049999978,"velocity":0.7874015748031497,"duration":0.11408718749999025},{"name":"D4","midi":62,"time":290.3568524999978,"velocity":0.7874015748031497,"duration":0.11408718749999025},{"name":"C#4","midi":61,"time":290.47589999999775,"velocity":0.7874015748031497,"duration":0.4712296874999993},{"name":"B3","midi":59,"time":291.42827999999776,"velocity":0.7874015748031497,"duration":0.2331346875000122},{"name":"C#4","midi":61,"time":291.78542249999776,"velocity":0.7874015748031497,"duration":0.11408718749999025},{"name":"D#4","midi":63,"time":291.90446999999773,"velocity":0.7874015748031497,"duration":0.2331346875000122},{"name":"C#4","midi":61,"time":292.1425649999977,"velocity":0.7874015748031497,"duration":0.11408718749999025},{"name":"B3","midi":59,"time":292.2616124999977,"velocity":0.7874015748031497,"duration":0.11408718749999025},{"name":"C#4","midi":61,"time":292.38065999999765,"velocity":0.7874015748031497,"duration":0.2331346875000122},{"name":"F#4","midi":66,"time":292.61875499999763,"velocity":0.7874015748031497,"duration":0.2331346875000122},{"name":"F#3","midi":54,"time":292.8568499999976,"velocity":0.7874015748031497,"duration":0.2331346875000122},{"name":"G#3","midi":56,"time":293.33303999999765,"velocity":0.7874015748031497,"duration":0.2331346875000122},{"name":"G#3","midi":56,"time":293.69018249999766,"velocity":0.7874015748031497,"duration":0.11408718749999025},{"name":"G#3","midi":56,"time":293.8092299999976,"velocity":0.7874015748031497,"duration":0.2331346875000122},{"name":"G3","midi":55,"time":294.0473249999976,"velocity":0.7874015748031497,"duration":0.11408718749999025},{"name":"G#3","midi":56,"time":294.1663724999976,"velocity":0.7874015748031497,"duration":0.11408718749999025},{"name":"C#4","midi":61,"time":294.28541999999754,"velocity":0.7874015748031497,"duration":0.9474196874999734},{"name":"F#4","midi":66,"time":295.2377999999975,"velocity":0.7874015748031497,"duration":0.2331346875000122},{"name":"G#4","midi":68,"time":295.5949424999975,"velocity":0.7874015748031497,"duration":0.11408718749999025},{"name":"A#4","midi":70,"time":295.71398999999747,"velocity":0.7874015748031497,"duration":0.2331346875000122},{"name":"G#4","midi":68,"time":295.95208499999745,"velocity":0.7874015748031497,"duration":0.2331346875000122},{"name":"F#4","midi":66,"time":296.19017999999744,"velocity":0.7874015748031497,"duration":0.11408718749999025},{"name":"F4","midi":65,"time":296.3092274999974,"velocity":0.7874015748031497,"duration":0.11408718749999025},{"name":"F#4","midi":66,"time":296.42827499999737,"velocity":0.7874015748031497,"duration":0.11408718749999025},{"name":"F4","midi":65,"time":296.54732249999734,"velocity":0.7874015748031497,"duration":0.11408718749999025},{"name":"F#4","midi":66,"time":296.6663699999973,"velocity":0.7874015748031497,"duration":0.2331346875000122},{"name":"C#4","midi":61,"time":296.9044649999973,"velocity":0.7874015748031497,"duration":0.2331346875000122},{"name":"D4","midi":62,"time":297.1425599999973,"velocity":0.7874015748031497,"duration":0.2331346875000122},{"name":"F4","midi":65,"time":297.4997024999973,"velocity":0.7874015748031497,"duration":0.11408718749999025},{"name":"G#4","midi":68,"time":297.61874999999725,"velocity":0.7874015748031497,"duration":0.2331346875000122},{"name":"A#4","midi":70,"time":297.85684499999724,"velocity":0.7874015748031497,"duration":0.2331346875000122},{"name":"F#4","midi":66,"time":298.0949399999972,"velocity":0.7874015748031497,"duration":0.4712296874999993},{"name":"C#4","midi":61,"time":298.80922499999724,"velocity":0.7874015748031497,"duration":0.2331346875000122},{"name":"C4","midi":60,"time":299.0473199999972,"velocity":0.7874015748031497,"duration":0.2331346875000122},{"name":"C#4","midi":61,"time":299.40446249999724,"velocity":0.7874015748031497,"duration":0.11408718749999025},{"name":"D#4","midi":63,"time":299.5235099999972,"velocity":0.7874015748031497,"duration":0.2331346875000122},{"name":"C4","midi":60,"time":299.7616049999972,"velocity":0.7874015748031497,"duration":0.2331346875000122},{"name":"D#4","midi":63,"time":299.9996999999972,"velocity":0.7874015748031497,"duration":0.2331346875000122},{"name":"C4","midi":60,"time":300.23779499999716,"velocity":0.7874015748031497,"duration":0.2331346875000122},{"name":"D#4","midi":63,"time":300.47588999999715,"velocity":0.7874015748031497,"duration":0.2331346875000122},{"name":"G#4","midi":68,"time":300.71398499999714,"velocity":0.7874015748031497,"duration":0.2331346875000122},{"name":"C#4","midi":61,"time":300.9520799999971,"velocity":0.7874015748031497,"duration":0.2331346875000122},{"name":"D#4","midi":63,"time":301.30922249999713,"velocity":0.7874015748031497,"duration":0.11408718749999025},{"name":"F4","midi":65,"time":301.4282699999971,"velocity":0.7874015748031497,"duration":0.14384906250000995},{"name":"C#4","midi":61,"time":301.6663649999971,"velocity":0.7874015748031497,"duration":0.2331346875000122},{"name":"B4","midi":71,"time":301.9044599999971,"velocity":0.7874015748031497,"duration":0.2331346875000122},{"name":"B4","midi":71,"time":302.14255499999706,"velocity":0.7874015748031497,"duration":0.2331346875000122},{"name":"A#4","midi":70,"time":302.38064999999705,"velocity":0.7874015748031497,"duration":0.2331346875000122},{"name":"G#4","midi":68,"time":302.61874499999703,"velocity":0.7874015748031497,"duration":0.2331346875000122},{"name":"F#4","midi":66,"time":302.856839999997,"velocity":0.7874015748031497,"duration":0.2331346875000122},{"name":"G#4","midi":68,"time":303.094934999997,"velocity":0.7874015748031497,"duration":0.11408718749999025},{"name":"A#4","midi":70,"time":303.213982499997,"velocity":0.7874015748031497,"duration":0.2331346875000122},{"name":"G#4","midi":68,"time":303.45207749999696,"velocity":0.7874015748031497,"duration":0.11408718749999025},{"name":"F#4","midi":66,"time":303.5711249999969,"velocity":0.7874015748031497,"duration":0.2331346875000122},{"name":"B4","midi":71,"time":303.8092199999969,"velocity":0.7874015748031497,"duration":0.2331346875000122},{"name":"C#5","midi":73,"time":304.0473149999969,"velocity":0.7874015748031497,"duration":0.11408718749999025},{"name":"D#5","midi":75,"time":304.16636249999686,"velocity":0.7874015748031497,"duration":0.2331346875000122},{"name":"C#5","midi":73,"time":304.40445749999685,"velocity":0.7874015748031497,"duration":0.11408718749999025},{"name":"B4","midi":71,"time":304.5235049999968,"velocity":0.7874015748031497,"duration":0.2331346875000122},{"name":"F4","midi":65,"time":304.7615999999968,"velocity":0.7874015748031497,"duration":0.2331346875000122},{"name":"G4","midi":67,"time":304.9996949999968,"velocity":0.7874015748031497,"duration":0.11408718749999025},{"name":"A4","midi":69,"time":305.11874249999676,"velocity":0.7874015748031497,"duration":0.2331346875000122},{"name":"G4","midi":67,"time":305.35683749999674,"velocity":0.7874015748031497,"duration":0.11408718749999025},{"name":"F4","midi":65,"time":305.4758849999967,"velocity":0.7874015748031497,"duration":0.2331346875000122},{"name":"A#4","midi":70,"time":305.7139799999967,"velocity":0.7874015748031497,"duration":0.2331346875000122},{"name":"C5","midi":72,"time":305.9520749999967,"velocity":0.7874015748031497,"duration":0.11408718749999025},{"name":"D5","midi":74,"time":306.07112249999665,"velocity":0.7874015748031497,"duration":0.2331346875000122},{"name":"C5","midi":72,"time":306.30921749999663,"velocity":0.7874015748031497,"duration":0.11408718749999025},{"name":"A#4","midi":70,"time":306.4282649999966,"velocity":0.7874015748031497,"duration":0.2331346875000122},{"name":"D#4","midi":63,"time":306.6663599999966,"velocity":0.7874015748031497,"duration":0.2331346875000122},{"name":"F4","midi":65,"time":306.9044549999966,"velocity":0.7874015748031497,"duration":0.11408718749999025},{"name":"G4","midi":67,"time":307.02350249999654,"velocity":0.7874015748031497,"duration":0.2331346875000122},{"name":"F4","midi":65,"time":307.2615974999965,"velocity":0.7874015748031497,"duration":0.11408718749999025},{"name":"D#4","midi":63,"time":307.3806449999965,"velocity":0.7874015748031497,"duration":0.2331346875000122},{"name":"G#4","midi":68,"time":307.6187399999965,"velocity":0.7874015748031497,"duration":0.2331346875000122},{"name":"A#4","midi":70,"time":307.85683499999647,"velocity":0.7874015748031497,"duration":0.11408718749999025},{"name":"C5","midi":72,"time":307.97588249999643,"velocity":0.7874015748031497,"duration":0.2331346875000122},{"name":"A#4","midi":70,"time":308.2139774999964,"velocity":0.7874015748031497,"duration":0.11408718749999025},{"name":"G#4","midi":68,"time":308.3330249999964,"velocity":0.7874015748031497,"duration":0.2331346875000122},{"name":"G4","midi":67,"time":308.57111999999637,"velocity":0.7874015748031497,"duration":0.2331346875000122},{"name":"F#4","midi":66,"time":308.80921499999636,"velocity":0.7874015748031497,"duration":0.11408718749999025},{"name":"G4","midi":67,"time":308.9282624999963,"velocity":0.7874015748031497,"duration":0.2331346875000122},{"name":"A4","midi":69,"time":309.1663574999963,"velocity":0.7874015748031497,"duration":0.11408718749999025},{"name":"B4","midi":71,"time":309.2854049999963,"velocity":0.7874015748031497,"duration":0.2331346875000122},{"name":"B4","midi":71,"time":309.52349999999626,"velocity":0.7874015748031497,"duration":0.2331346875000122},{"name":"A#4","midi":70,"time":309.76159499999625,"velocity":0.7874015748031497,"duration":0.11408718749999025},{"name":"B4","midi":71,"time":309.8806424999962,"velocity":0.7874015748031497,"duration":0.2331346875000122},{"name":"C5","midi":72,"time":310.1187374999962,"velocity":0.7874015748031497,"duration":0.11408718749999025},{"name":"D5","midi":74,"time":310.23778499999617,"velocity":0.7874015748031497,"duration":0.2331346875000122},{"name":"G4","midi":67,"time":310.47587999999615,"velocity":0.7874015748031497,"duration":0.2331346875000122},{"name":"C4","midi":60,"time":310.47587999999615,"velocity":0.7874015748031497,"duration":0.2331346875000122},{"name":"C5","midi":72,"time":310.71397499999614,"velocity":0.7874015748031497,"duration":0.11408718749999025},{"name":"E4","midi":64,"time":310.71397499999614,"velocity":0.7874015748031497,"duration":0.11408718749999025},{"name":"E5","midi":76,"time":310.8330224999961,"velocity":0.7874015748031497,"duration":0.2331346875000122},{"name":"G4","midi":67,"time":310.8330224999961,"velocity":0.7874015748031497,"duration":0.2331346875000122},{"name":"C5","midi":72,"time":311.0711174999961,"velocity":0.7874015748031497,"duration":0.11408718749999025},{"name":"E4","midi":64,"time":311.0711174999961,"velocity":0.7874015748031497,"duration":0.11408718749999025},{"name":"E5","midi":76,"time":311.19016499999606,"velocity":0.7874015748031497,"duration":0.2331346875000122},{"name":"G4","midi":67,"time":311.19016499999606,"velocity":0.7874015748031497,"duration":0.2331346875000122},{"name":"E5","midi":76,"time":311.42825999999604,"velocity":0.7874015748031497,"duration":0.2331346875000122},{"name":"A4","midi":69,"time":311.42825999999604,"velocity":0.7874015748031497,"duration":0.2331346875000122},{"name":"E5","midi":76,"time":311.66635499999603,"velocity":0.7874015748031497,"duration":0.11408718749999025},{"name":"G4","midi":67,"time":311.66635499999603,"velocity":0.7874015748031497,"duration":0.11408718749999025},{"name":"C5","midi":72,"time":311.785402499996,"velocity":0.7874015748031497,"duration":0.11408718749999025},{"name":"E4","midi":64,"time":311.785402499996,"velocity":0.7874015748031497,"duration":0.11408718749999025},{"name":"E5","midi":76,"time":311.90444999999596,"velocity":0.7874015748031497,"duration":0.2331346875000122},{"name":"G4","midi":67,"time":311.90444999999596,"velocity":0.7874015748031497,"duration":0.2331346875000122},{"name":"E5","midi":76,"time":312.14254499999595,"velocity":0.7874015748031497,"duration":0.2331346875000122},{"name":"A4","midi":69,"time":312.14254499999595,"velocity":0.7874015748031497,"duration":0.2331346875000122},{"name":"D#5","midi":75,"time":312.38063999999594,"velocity":0.7874015748031497,"duration":0.2331346875000122},{"name":"G#4","midi":68,"time":312.38063999999594,"velocity":0.7874015748031497,"duration":0.2331346875000122},{"name":"F5","midi":77,"time":312.6187349999959,"velocity":0.7874015748031497,"duration":0.11408718749999025},{"name":"A#4","midi":70,"time":312.6187349999959,"velocity":0.7874015748031497,"duration":0.11408718749999025},{"name":"G#5","midi":80,"time":312.7377824999959,"velocity":0.7874015748031497,"duration":0.2331346875000122},{"name":"C5","midi":72,"time":312.7377824999959,"velocity":0.7874015748031497,"duration":0.2331346875000122},{"name":"F5","midi":77,"time":312.9758774999959,"velocity":0.7874015748031497,"duration":0.11408718749999025},{"name":"A#4","midi":70,"time":312.9758774999959,"velocity":0.7874015748031497,"duration":0.11408718749999025},{"name":"D#5","midi":75,"time":313.09492499999584,"velocity":0.7874015748031497,"duration":0.2331346875000122},{"name":"G#4","midi":68,"time":313.09492499999584,"velocity":0.7874015748031497,"duration":0.2331346875000122},{"name":"E5","midi":76,"time":313.3330199999958,"velocity":0.7874015748031497,"duration":0.2331346875000122},{"name":"G4","midi":67,"time":313.3330199999958,"velocity":0.7874015748031497,"duration":0.2331346875000122},{"name":"C5","midi":72,"time":313.5711149999958,"velocity":0.7874015748031497,"duration":0.2331346875000122},{"name":"E4","midi":64,"time":313.5711149999958,"velocity":0.7874015748031497,"duration":0.2331346875000122},{"name":"C5","midi":72,"time":314.04730499999584,"velocity":0.7874015748031497,"duration":0.2331346875000122},{"name":"E4","midi":64,"time":314.04730499999584,"velocity":0.7874015748031497,"duration":0.2331346875000122},{"name":"G4","midi":67,"time":314.28539999999583,"velocity":0.7874015748031497,"duration":0.2331346875000122},{"name":"C4","midi":60,"time":314.28539999999583,"velocity":0.7874015748031497,"duration":0.2331346875000122},{"name":"C5","midi":72,"time":314.5234949999958,"velocity":0.7874015748031497,"duration":0.11408718749999025},{"name":"E4","midi":64,"time":314.5234949999958,"velocity":0.7874015748031497,"duration":0.11408718749999025},{"name":"E5","midi":76,"time":314.6425424999958,"velocity":0.7874015748031497,"duration":0.2331346875000122},{"name":"G4","midi":67,"time":314.6425424999958,"velocity":0.7874015748031497,"duration":0.2331346875000122},{"name":"C5","midi":72,"time":314.88063749999577,"velocity":0.7874015748031497,"duration":0.11408718749999025},{"name":"E4","midi":64,"time":314.88063749999577,"velocity":0.7874015748031497,"duration":0.11408718749999025},{"name":"E5","midi":76,"time":314.99968499999574,"velocity":0.7874015748031497,"duration":0.2331346875000122},{"name":"G4","midi":67,"time":314.99968499999574,"velocity":0.7874015748031497,"duration":0.2331346875000122},{"name":"E5","midi":76,"time":315.2377799999957,"velocity":0.7874015748031497,"duration":0.2331346875000122},{"name":"A4","midi":69,"time":315.2377799999957,"velocity":0.7874015748031497,"duration":0.2331346875000122},{"name":"E5","midi":76,"time":315.4758749999957,"velocity":0.7874015748031497,"duration":0.11408718749999025},{"name":"G4","midi":67,"time":315.4758749999957,"velocity":0.7874015748031497,"duration":0.11408718749999025},{"name":"C5","midi":72,"time":315.5949224999957,"velocity":0.7874015748031497,"duration":0.11408718749999025},{"name":"E4","midi":64,"time":315.5949224999957,"velocity":0.7874015748031497,"duration":0.11408718749999025},{"name":"E5","midi":76,"time":315.71396999999564,"velocity":0.7874015748031497,"duration":0.2331346875000122},{"name":"G4","midi":67,"time":315.71396999999564,"velocity":0.7874015748031497,"duration":0.2331346875000122},{"name":"E5","midi":76,"time":315.9520649999956,"velocity":0.7874015748031497,"duration":0.2331346875000122},{"name":"A4","midi":69,"time":315.9520649999956,"velocity":0.7874015748031497,"duration":0.2331346875000122},{"name":"D#5","midi":75,"time":316.1901599999956,"velocity":0.7874015748031497,"duration":0.2331346875000122},{"name":"G#4","midi":68,"time":316.1901599999956,"velocity":0.7874015748031497,"duration":0.2331346875000122},{"name":"F5","midi":77,"time":316.4282549999956,"velocity":0.7874015748031497,"duration":0.11408718749999025},{"name":"A#4","midi":70,"time":316.4282549999956,"velocity":0.7874015748031497,"duration":0.11408718749999025},{"name":"G#5","midi":80,"time":316.54730249999557,"velocity":0.7874015748031497,"duration":0.2331346875000122},{"name":"C5","midi":72,"time":316.54730249999557,"velocity":0.7874015748031497,"duration":0.2331346875000122},{"name":"F5","midi":77,"time":316.78539749999555,"velocity":0.7874015748031497,"duration":0.11408718749999025},{"name":"A#4","midi":70,"time":316.78539749999555,"velocity":0.7874015748031497,"duration":0.11408718749999025},{"name":"D#5","midi":75,"time":316.9044449999955,"velocity":0.7874015748031497,"duration":0.2331346875000122},{"name":"G#4","midi":68,"time":316.9044449999955,"velocity":0.7874015748031497,"duration":0.2331346875000122},{"name":"B5","midi":83,"time":317.1425399999955,"velocity":0.7874015748031497,"duration":0.004960312499974862},{"name":"D#5","midi":75,"time":317.1425399999955,"velocity":0.7874015748031497,"duration":0.004960312499974862},{"name":"C6","midi":84,"time":317.17230187499547,"velocity":0.7874015748031497,"duration":0.2331346875000122},{"name":"E5","midi":76,"time":317.17230187499547,"velocity":0.7874015748031497,"duration":0.2331346875000122},{"name":"G5","midi":79,"time":317.3806349999955,"velocity":0.7874015748031497,"duration":0.4712296874999993},{"name":"C5","midi":72,"time":317.3806349999955,"velocity":0.7874015748031497,"duration":0.4712296874999993},{"name":"G4","midi":67,"time":318.0949199999955,"velocity":0.7874015748031497,"duration":0.2331346875000122},{"name":"C4","midi":60,"time":318.0949199999955,"velocity":0.7874015748031497,"duration":0.2331346875000122},{"name":"C5","midi":72,"time":318.3330149999955,"velocity":0.7874015748031497,"duration":0.11408718749999025},{"name":"E4","midi":64,"time":318.3330149999955,"velocity":0.7874015748031497,"duration":0.11408718749999025},{"name":"E5","midi":76,"time":318.45206249999546,"velocity":0.7874015748031497,"duration":0.2331346875000122},{"name":"G4","midi":67,"time":318.45206249999546,"velocity":0.7874015748031497,"duration":0.2331346875000122},{"name":"C5","midi":72,"time":318.69015749999545,"velocity":0.7874015748031497,"duration":0.11408718749999025},{"name":"E4","midi":64,"time":318.69015749999545,"velocity":0.7874015748031497,"duration":0.11408718749999025},{"name":"E5","midi":76,"time":318.8092049999954,"velocity":0.7874015748031497,"duration":0.2331346875000122},{"name":"G4","midi":67,"time":318.8092049999954,"velocity":0.7874015748031497,"duration":0.2331346875000122},{"name":"E5","midi":76,"time":319.0472999999954,"velocity":0.7874015748031497,"duration":0.2331346875000122},{"name":"A4","midi":69,"time":319.0472999999954,"velocity":0.7874015748031497,"duration":0.2331346875000122},{"name":"E5","midi":76,"time":319.2853949999954,"velocity":0.7874015748031497,"duration":0.11408718749999025},{"name":"G4","midi":67,"time":319.2853949999954,"velocity":0.7874015748031497,"duration":0.11408718749999025},{"name":"C5","midi":72,"time":319.40444249999535,"velocity":0.7874015748031497,"duration":0.11408718749999025},{"name":"E4","midi":64,"time":319.40444249999535,"velocity":0.7874015748031497,"duration":0.11408718749999025},{"name":"E5","midi":76,"time":319.5234899999953,"velocity":0.7874015748031497,"duration":0.2331346875000122},{"name":"G4","midi":67,"time":319.5234899999953,"velocity":0.7874015748031497,"duration":0.2331346875000122},{"name":"E5","midi":76,"time":319.7615849999953,"velocity":0.7874015748031497,"duration":0.2331346875000122},{"name":"A4","midi":69,"time":319.7615849999953,"velocity":0.7874015748031497,"duration":0.2331346875000122},{"name":"D#5","midi":75,"time":319.9996799999953,"velocity":0.7874015748031497,"duration":0.2331346875000122},{"name":"G#4","midi":68,"time":319.9996799999953,"velocity":0.7874015748031497,"duration":0.2331346875000122},{"name":"F5","midi":77,"time":320.2377749999953,"velocity":0.7874015748031497,"duration":0.11408718749999025},{"name":"A#4","midi":70,"time":320.2377749999953,"velocity":0.7874015748031497,"duration":0.11408718749999025},{"name":"G#5","midi":80,"time":320.35682249999525,"velocity":0.7874015748031497,"duration":0.2331346875000122},{"name":"C5","midi":72,"time":320.35682249999525,"velocity":0.7874015748031497,"duration":0.2331346875000122},{"name":"F5","midi":77,"time":320.59491749999523,"velocity":0.7874015748031497,"duration":0.11408718749999025},{"name":"A#4","midi":70,"time":320.59491749999523,"velocity":0.7874015748031497,"duration":0.11408718749999025},{"name":"D#5","midi":75,"time":320.7139649999952,"velocity":0.7874015748031497,"duration":0.2331346875000122},{"name":"G#4","midi":68,"time":320.7139649999952,"velocity":0.7874015748031497,"duration":0.2331346875000122},{"name":"E5","midi":76,"time":320.9520599999952,"velocity":0.7874015748031497,"duration":0.2331346875000122},{"name":"G4","midi":67,"time":320.9520599999952,"velocity":0.7874015748031497,"duration":0.2331346875000122},{"name":"C5","midi":72,"time":321.1901549999952,"velocity":0.7874015748031497,"duration":0.2331346875000122},{"name":"E4","midi":64,"time":321.1901549999952,"velocity":0.7874015748031497,"duration":0.2331346875000122},{"name":"C5","midi":72,"time":321.6663449999952,"velocity":0.7874015748031497,"duration":0.2331346875000122},{"name":"E4","midi":64,"time":321.6663449999952,"velocity":0.7874015748031497,"duration":0.2331346875000122},{"name":"G4","midi":67,"time":321.9044399999952,"velocity":0.7874015748031497,"duration":0.2331346875000122},{"name":"C4","midi":60,"time":321.9044399999952,"velocity":0.7874015748031497,"duration":0.2331346875000122},{"name":"C5","midi":72,"time":322.1425349999952,"velocity":0.7874015748031497,"duration":0.11408718749999025},{"name":"E4","midi":64,"time":322.1425349999952,"velocity":0.7874015748031497,"duration":0.11408718749999025},{"name":"E5","midi":76,"time":322.26158249999514,"velocity":0.7874015748031497,"duration":0.2331346875000122},{"name":"G4","midi":67,"time":322.26158249999514,"velocity":0.7874015748031497,"duration":0.2331346875000122},{"name":"C5","midi":72,"time":322.49967749999513,"velocity":0.7874015748031497,"duration":0.11408718749999025},{"name":"E4","midi":64,"time":322.49967749999513,"velocity":0.7874015748031497,"duration":0.11408718749999025},{"name":"E5","midi":76,"time":322.6187249999951,"velocity":0.7874015748031497,"duration":0.2331346875000122},{"name":"G4","midi":67,"time":322.6187249999951,"velocity":0.7874015748031497,"duration":0.2331346875000122},{"name":"E5","midi":76,"time":322.8568199999951,"velocity":0.7874015748031497,"duration":0.2331346875000122},{"name":"A4","midi":69,"time":322.8568199999951,"velocity":0.7874015748031497,"duration":0.2331346875000122},{"name":"E5","midi":76,"time":323.09491499999507,"velocity":0.7874015748031497,"duration":0.11408718749999025},{"name":"G4","midi":67,"time":323.09491499999507,"velocity":0.7874015748031497,"duration":0.11408718749999025},{"name":"C5","midi":72,"time":323.21396249999503,"velocity":0.7874015748031497,"duration":0.11408718749999025},{"name":"E4","midi":64,"time":323.21396249999503,"velocity":0.7874015748031497,"duration":0.11408718749999025},{"name":"E5","midi":76,"time":323.333009999995,"velocity":0.7874015748031497,"duration":0.2331346875000122},{"name":"G4","midi":67,"time":323.333009999995,"velocity":0.7874015748031497,"duration":0.2331346875000122},{"name":"E5","midi":76,"time":323.571104999995,"velocity":0.7874015748031497,"duration":0.2331346875000122},{"name":"A4","midi":69,"time":323.571104999995,"velocity":0.7874015748031497,"duration":0.2331346875000122},{"name":"F5","midi":77,"time":323.809199999995,"velocity":0.7874015748031497,"duration":0.2331346875000122},{"name":"G#4","midi":68,"time":323.809199999995,"velocity":0.7874015748031497,"duration":0.2331346875000122},{"name":"F#5","midi":78,"time":324.04729499999496,"velocity":0.7874015748031497,"duration":0.11408718749999025},{"name":"A#4","midi":70,"time":324.04729499999496,"velocity":0.7874015748031497,"duration":0.11408718749999025},{"name":"G5","midi":79,"time":324.1663424999949,"velocity":0.7874015748031497,"duration":0.2281743749999805},{"name":"B4","midi":71,"time":324.1663424999949,"velocity":0.7874015748031497,"duration":0.2281743749999805},{"name":"G5","midi":79,"time":324.4044374999949,"velocity":0.7874015748031497,"duration":0.11408718749999025},{"name":"A4","midi":69,"time":324.4044374999949,"velocity":0.7874015748031497,"duration":0.11408718749999025},{"name":"F5","midi":77,"time":324.5234849999949,"velocity":0.7874015748031497,"duration":0.2281743749999805},{"name":"G4","midi":67,"time":324.5234849999949,"velocity":0.7874015748031497,"duration":0.2281743749999805},{"name":"E5","midi":76,"time":324.76157999999486,"velocity":0.7874015748031497,"duration":0.4712296874999993},{"name":"C5","midi":72,"time":324.76157999999486,"velocity":0.7874015748031497,"duration":0.4712296874999993},{"name":"C4","midi":60,"time":325.71395999999487,"velocity":0.7874015748031497,"duration":0.2331346875000122},{"name":"G4","midi":67,"time":326.1901499999949,"velocity":0.7874015748031497,"duration":0.2331346875000122},{"name":"G4","midi":67,"time":326.66633999999493,"velocity":0.7874015748031497,"duration":0.2331346875000122},{"name":"C4","midi":60,"time":327.14252999999496,"velocity":0.7874015748031497,"duration":0.2331346875000122},{"name":"F#4","midi":66,"time":327.618719999995,"velocity":0.7874015748031497,"duration":0.2331346875000122},{"name":"G#4","midi":68,"time":327.856814999995,"velocity":0.7874015748031497,"duration":0.2331346875000122},{"name":"A#4","midi":70,"time":328.09490999999497,"velocity":0.7874015748031497,"duration":0.2331346875000122},{"name":"G#4","midi":68,"time":328.33300499999496,"velocity":0.7874015748031497,"duration":0.2331346875000122},{"name":"F#4","midi":66,"time":328.57109999999494,"velocity":0.7874015748031497,"duration":0.2331346875000122},{"name":"C#4","midi":61,"time":329.047289999995,"velocity":0.7874015748031497,"duration":0.2331346875000122},{"name":"C4","midi":60,"time":329.523479999995,"velocity":0.7874015748031497,"duration":0.2331346875000122},{"name":"G4","midi":67,"time":329.99966999999504,"velocity":0.7874015748031497,"duration":0.2331346875000122},{"name":"G4","midi":67,"time":330.47585999999507,"velocity":0.7874015748031497,"duration":0.2331346875000122},{"name":"C4","midi":60,"time":330.9520499999951,"velocity":0.7874015748031497,"duration":0.2331346875000122},{"name":"A#4","midi":70,"time":331.4282399999951,"velocity":0.7874015748031497,"duration":0.2331346875000122},{"name":"C5","midi":72,"time":331.78538249999514,"velocity":0.7874015748031497,"duration":0.11408718749999025},{"name":"A#4","midi":70,"time":331.9044299999951,"velocity":0.7874015748031497,"duration":0.2331346875000122},{"name":"F#4","midi":66,"time":332.1425249999951,"velocity":0.7874015748031497,"duration":0.2331346875000122},{"name":"A#4","midi":70,"time":332.3806199999951,"velocity":0.7874015748031497,"duration":0.2331346875000122},{"name":"C5","midi":72,"time":332.7377624999951,"velocity":0.7874015748031497,"duration":0.11408718749999025},{"name":"A#4","midi":70,"time":332.85680999999505,"velocity":0.7874015748031497,"duration":0.2331346875000122},{"name":"F#4","midi":66,"time":333.09490499999504,"velocity":0.7874015748031497,"duration":0.2331346875000122},{"name":"C4","midi":60,"time":333.332999999995,"velocity":0.7874015748031497,"duration":0.2331346875000122},{"name":"G4","midi":67,"time":333.80918999999506,"velocity":0.7874015748031497,"duration":0.2331346875000122},{"name":"G4","midi":67,"time":334.2853799999951,"velocity":0.7874015748031497,"duration":0.2331346875000122},{"name":"C4","midi":60,"time":334.7615699999951,"velocity":0.7874015748031497,"duration":0.2331346875000122},{"name":"F#4","midi":66,"time":335.23775999999515,"velocity":0.7874015748031497,"duration":0.2331346875000122},{"name":"G#4","midi":68,"time":335.47585499999514,"velocity":0.7874015748031497,"duration":0.2331346875000122},{"name":"A#4","midi":70,"time":335.7139499999951,"velocity":0.7874015748031497,"duration":0.2331346875000122},{"name":"G#4","midi":68,"time":335.9520449999951,"velocity":0.7874015748031497,"duration":0.2331346875000122},{"name":"F#4","midi":66,"time":336.1901399999951,"velocity":0.7874015748031497,"duration":0.2331346875000122},{"name":"C#4","midi":61,"time":336.6663299999951,"velocity":0.7874015748031497,"duration":0.2331346875000122},{"name":"C4","midi":60,"time":337.14251999999516,"velocity":0.7874015748031497,"duration":0.2331346875000122},{"name":"G4","midi":67,"time":337.6187099999952,"velocity":0.7874015748031497,"duration":0.2331346875000122},{"name":"G#4","midi":68,"time":338.0948999999952,"velocity":0.7874015748031497,"duration":0.2331346875000122},{"name":"G#4","midi":68,"time":338.57108999999525,"velocity":0.7874015748031497,"duration":0.2331346875000122},{"name":"C#5","midi":73,"time":338.92823249999526,"velocity":0.7874015748031497,"duration":0.11408718749999025},{"name":"C5","midi":72,"time":339.0472799999952,"velocity":0.7874015748031497,"duration":0.2331346875000122},{"name":"C4","midi":60,"time":339.52346999999526,"velocity":0.7874015748031497,"duration":0.11408718749999025},{"name":"C4","midi":60,"time":339.99965999999523,"velocity":0.7874015748031497,"duration":0.4712296874999993},{"name":"F#4","midi":66,"time":340.95203999999524,"velocity":0.7874015748031497,"duration":0.2331346875000122},{"name":"G#4","midi":68,"time":341.1901349999952,"velocity":0.7874015748031497,"duration":0.11408718749999025},{"name":"A#4","midi":70,"time":341.3091824999952,"velocity":0.7874015748031497,"duration":0.2331346875000122},{"name":"G#4","midi":68,"time":341.5472774999952,"velocity":0.7874015748031497,"duration":0.11408718749999025},{"name":"F#4","midi":66,"time":341.66632499999514,"velocity":0.7874015748031497,"duration":0.2331346875000122},{"name":"B4","midi":71,"time":341.9044199999951,"velocity":0.7874015748031497,"duration":0.2331346875000122},{"name":"C#5","midi":73,"time":342.1425149999951,"velocity":0.7874015748031497,"duration":0.11408718749999025},{"name":"D#5","midi":75,"time":342.2615624999951,"velocity":0.7874015748031497,"duration":0.2331346875000122},{"name":"C#5","midi":73,"time":342.49965749999507,"velocity":0.7874015748031497,"duration":0.11408718749999025},{"name":"B4","midi":71,"time":342.61870499999503,"velocity":0.7874015748031497,"duration":0.2331346875000122},{"name":"F4","midi":65,"time":342.856799999995,"velocity":0.7874015748031497,"duration":0.2331346875000122},{"name":"G4","midi":67,"time":343.094894999995,"velocity":0.7874015748031497,"duration":0.11408718749999025},{"name":"A4","midi":69,"time":343.21394249999497,"velocity":0.7874015748031497,"duration":0.2331346875000122},{"name":"G4","midi":67,"time":343.45203749999496,"velocity":0.7874015748031497,"duration":0.11408718749999025},{"name":"F4","midi":65,"time":343.5710849999949,"velocity":0.7874015748031497,"duration":0.2331346875000122},{"name":"A#4","midi":70,"time":343.8091799999949,"velocity":0.7874015748031497,"duration":0.2331346875000122},{"name":"C5","midi":72,"time":344.0472749999949,"velocity":0.7874015748031497,"duration":0.11408718749999025},{"name":"D5","midi":74,"time":344.16632249999486,"velocity":0.7874015748031497,"duration":0.2331346875000122},{"name":"C5","midi":72,"time":344.40441749999485,"velocity":0.7874015748031497,"duration":0.11408718749999025},{"name":"A#4","midi":70,"time":344.5234649999948,"velocity":0.7874015748031497,"duration":0.2331346875000122},{"name":"D#4","midi":63,"time":344.7615599999948,"velocity":0.7874015748031497,"duration":0.2331346875000122},{"name":"F4","midi":65,"time":344.9996549999948,"velocity":0.7874015748031497,"duration":0.11408718749999025},{"name":"G4","midi":67,"time":345.11870249999475,"velocity":0.7874015748031497,"duration":0.2331346875000122},{"name":"F4","midi":65,"time":345.35679749999474,"velocity":0.7874015748031497,"duration":0.11408718749999025},{"name":"D#4","midi":63,"time":345.4758449999947,"velocity":0.7874015748031497,"duration":0.2331346875000122},{"name":"G#4","midi":68,"time":345.7139399999947,"velocity":0.7874015748031497,"duration":0.2331346875000122},{"name":"A#4","midi":70,"time":345.9520349999947,"velocity":0.7874015748031497,"duration":0.11408718749999025},{"name":"C5","midi":72,"time":346.07108249999465,"velocity":0.7874015748031497,"duration":0.2331346875000122},{"name":"A#4","midi":70,"time":346.30917749999463,"velocity":0.7874015748031497,"duration":0.11408718749999025},{"name":"G#4","midi":68,"time":346.4282249999946,"velocity":0.7874015748031497,"duration":0.2331346875000122},{"name":"G4","midi":67,"time":346.6663199999946,"velocity":0.7874015748031497,"duration":0.2331346875000122},{"name":"F#4","midi":66,"time":346.9044149999946,"velocity":0.7874015748031497,"duration":0.11408718749999025},{"name":"G4","midi":67,"time":347.02346249999454,"velocity":0.7874015748031497,"duration":0.2331346875000122},{"name":"A4","midi":69,"time":347.2615574999945,"velocity":0.7874015748031497,"duration":0.11408718749999025},{"name":"B4","midi":71,"time":347.3806049999945,"velocity":0.7874015748031497,"duration":0.2331346875000122},{"name":"B4","midi":71,"time":347.6186999999945,"velocity":0.7874015748031497,"duration":0.2331346875000122},{"name":"A#4","midi":70,"time":347.85679499999446,"velocity":0.7874015748031497,"duration":0.11408718749999025},{"name":"B4","midi":71,"time":347.9758424999944,"velocity":0.7874015748031497,"duration":0.2331346875000122},{"name":"C5","midi":72,"time":348.2139374999944,"velocity":0.7874015748031497,"duration":0.11408718749999025},{"name":"D5","midi":74,"time":348.3329849999944,"velocity":0.7874015748031497,"duration":0.2331346875000122},{"name":"C5","midi":72,"time":348.57107999999437,"velocity":0.7874015748031497,"duration":0.4712296874999993}],"controlChanges":{"7":[{"number":7,"time":0,"value":0.8661417322834646},{"number":7,"time":232.38071999999994,"value":0.7874015748031497}],"10":[{"number":10,"time":0,"value":0.6929133858267716}],"91":[{"number":91,"time":0,"value":0.5039370078740157},{"number":91,"time":284.5235249999982,"value":0},{"number":91,"time":284.7616199999982,"value":0.49606299212598426}],"93":[{"number":93,"time":0,"value":0.5039370078740157}]},"id":6,"name":"Treble Xylophone/Harp","instrumentNumber":46,"instrument":"orchestral harp","instrumentFamily":"strings","channelNumber":5,"isPercussion":false},{"startTime":39.99996,"duration":350.4708796874961,"length":902,"notes":[{"name":"F#5","midi":78,"time":39.99996,"velocity":0.6299212598425197,"duration":0.11408718749999736},{"name":"C#5","midi":73,"time":40.357102499999996,"velocity":0.6299212598425197,"duration":0.11408718749999736},{"name":"C#5","midi":73,"time":40.59519749999999,"velocity":0.6299212598425197,"duration":0.11408718749999736},{"name":"F#5","midi":78,"time":40.952339999999985,"velocity":0.6299212598425197,"duration":0.11408718749999736},{"name":"C#5","midi":73,"time":41.30948249999998,"velocity":0.6299212598425197,"duration":0.11408718749999736},{"name":"C#5","midi":73,"time":41.547577499999974,"velocity":0.6299212598425197,"duration":0.11408718749999736},{"name":"D5","midi":74,"time":41.90471999999997,"velocity":0.6299212598425197,"duration":0.11408718749999736},{"name":"F#5","midi":78,"time":42.261862499999964,"velocity":0.6299212598425197,"duration":0.11408718749999736},{"name":"F#5","midi":78,"time":42.49995749999996,"velocity":0.6299212598425197,"duration":0.11408718749999736},{"name":"C#5","midi":73,"time":42.85709999999995,"velocity":0.6299212598425197,"duration":0.11408718749999736},{"name":"F#5","midi":78,"time":43.33328999999995,"velocity":0.6299212598425197,"duration":0.11408718749999736},{"name":"B4","midi":71,"time":43.809479999999944,"velocity":0.6299212598425197,"duration":0.11408718749999736},{"name":"F#5","midi":78,"time":44.16662249999994,"velocity":0.6299212598425197,"duration":0.11408718749999736},{"name":"F#5","midi":78,"time":44.40471749999993,"velocity":0.6299212598425197,"duration":0.11408718749999736},{"name":"F#5","midi":78,"time":44.76185999999993,"velocity":0.6299212598425197,"duration":0.11408718749999736},{"name":"C#5","midi":73,"time":45.11900249999992,"velocity":0.6299212598425197,"duration":0.11408718749999736},{"name":"C#5","midi":73,"time":45.35709749999992,"velocity":0.6299212598425197,"duration":0.11408718749999736},{"name":"G#5","midi":80,"time":45.71423999999991,"velocity":0.6299212598425197,"duration":0.11408718749999736},{"name":"D#5","midi":75,"time":46.071382499999906,"velocity":0.6299212598425197,"duration":0.11408718749999736},{"name":"D#5","midi":75,"time":46.3094774999999,"velocity":0.6299212598425197,"duration":0.11408718749999736},{"name":"C#5","midi":73,"time":46.666619999999895,"velocity":0.6299212598425197,"duration":0.11408718749999736},{"name":"G#5","midi":80,"time":47.14280999999989,"velocity":0.6299212598425197,"duration":0.11408718749999736},{"name":"F#5","midi":78,"time":47.618999999999886,"velocity":0.6299212598425197,"duration":0.11408718749999736},{"name":"C#5","midi":73,"time":47.97614249999988,"velocity":0.6299212598425197,"duration":0.11408718749999736},{"name":"C#5","midi":73,"time":48.214237499999875,"velocity":0.6299212598425197,"duration":0.11408718749999736},{"name":"F#5","midi":78,"time":48.57137999999987,"velocity":0.6299212598425197,"duration":0.11408718749999736},{"name":"C#5","midi":73,"time":48.928522499999865,"velocity":0.6299212598425197,"duration":0.11408718749999736},{"name":"C#5","midi":73,"time":49.16661749999986,"velocity":0.6299212598425197,"duration":0.11408718749999736},{"name":"C5","midi":72,"time":49.523759999999854,"velocity":0.6299212598425197,"duration":0.11408718749999736},{"name":"G4","midi":67,"time":49.88090249999985,"velocity":0.6299212598425197,"duration":0.11408718749999736},{"name":"G4","midi":67,"time":50.11899749999984,"velocity":0.6299212598425197,"duration":0.11408718749999736},{"name":"C5","midi":72,"time":50.47613999999984,"velocity":0.6299212598425197,"duration":0.11408718749999736},{"name":"G4","midi":67,"time":50.95232999999983,"velocity":0.6299212598425197,"duration":0.11408718749999736},{"name":"C#5","midi":73,"time":51.42851999999983,"velocity":0.6299212598425197,"duration":0.11408718749999736},{"name":"G#4","midi":68,"time":51.78566249999982,"velocity":0.6299212598425197,"duration":0.11408718749999736},{"name":"G#4","midi":68,"time":52.02375749999982,"velocity":0.6299212598425197,"duration":0.11408718749999736},{"name":"G5","midi":79,"time":52.38089999999981,"velocity":0.6299212598425197,"duration":0.11408718749999736},{"name":"D5","midi":74,"time":52.73804249999981,"velocity":0.6299212598425197,"duration":0.11408718749999736},{"name":"D5","midi":74,"time":52.9761374999998,"velocity":0.6299212598425197,"duration":0.11408718749999736},{"name":"C5","midi":72,"time":53.333279999999796,"velocity":0.6299212598425197,"duration":0.11408718749999736},{"name":"G4","midi":67,"time":53.69042249999979,"velocity":0.6299212598425197,"duration":0.11408718749999736},{"name":"G4","midi":67,"time":53.928517499999785,"velocity":0.6299212598425197,"duration":0.11408718749999736},{"name":"C5","midi":72,"time":54.28565999999978,"velocity":0.6299212598425197,"duration":0.11408718749999736},{"name":"G4","midi":67,"time":54.761849999999775,"velocity":0.6299212598425197,"duration":0.11408718749999736},{"name":"F#4","midi":66,"time":70.47611999999977,"velocity":0.6299212598425197,"duration":0.11408718750000446},{"name":"C#5","midi":73,"time":70.83326249999978,"velocity":0.6299212598425197,"duration":0.11408718750000446},{"name":"C#5","midi":73,"time":71.07135749999978,"velocity":0.6299212598425197,"duration":0.11408718750000446},{"name":"B4","midi":71,"time":71.42849999999979,"velocity":0.6299212598425197,"duration":0.11408718750000446},{"name":"F#4","midi":66,"time":71.7856424999998,"velocity":0.6299212598425197,"duration":0.11408718750000446},{"name":"F#4","midi":66,"time":72.0237374999998,"velocity":0.6299212598425197,"duration":0.11408718750000446},{"name":"F4","midi":65,"time":72.3808799999998,"velocity":0.6299212598425197,"duration":0.11408718750000446},{"name":"C5","midi":72,"time":72.73802249999981,"velocity":0.6299212598425197,"duration":0.11408718750000446},{"name":"C5","midi":72,"time":72.97611749999982,"velocity":0.6299212598425197,"duration":0.11408718750000446},{"name":"A#4","midi":70,"time":73.33325999999983,"velocity":0.6299212598425197,"duration":0.11408718750000446},{"name":"F4","midi":65,"time":73.69040249999983,"velocity":0.6299212598425197,"duration":0.11408718750000446},{"name":"F4","midi":65,"time":73.92849749999984,"velocity":0.6299212598425197,"duration":0.11408718750000446},{"name":"D#4","midi":63,"time":74.28563999999984,"velocity":0.6299212598425197,"duration":0.11408718750000446},{"name":"A#4","midi":70,"time":74.64278249999985,"velocity":0.6299212598425197,"duration":0.11408718750000446},{"name":"A#4","midi":70,"time":74.88087749999985,"velocity":0.6299212598425197,"duration":0.11408718750000446},{"name":"G#4","midi":68,"time":75.23801999999986,"velocity":0.6299212598425197,"duration":0.11408718750000446},{"name":"D#4","midi":63,"time":75.59516249999987,"velocity":0.6299212598425197,"duration":0.11408718750000446},{"name":"D#4","midi":63,"time":75.83325749999987,"velocity":0.6299212598425197,"duration":0.11408718750000446},{"name":"G4","midi":67,"time":76.19039999999988,"velocity":0.6299212598425197,"duration":0.11408718750000446},{"name":"D4","midi":62,"time":76.54754249999989,"velocity":0.6299212598425197,"duration":0.11408718750000446},{"name":"D4","midi":62,"time":76.7856374999999,"velocity":0.6299212598425197,"duration":0.11408718750000446},{"name":"G4","midi":67,"time":77.1427799999999,"velocity":0.6299212598425197,"duration":0.11408718750000446},{"name":"D4","midi":62,"time":77.49992249999991,"velocity":0.6299212598425197,"duration":0.11408718750000446},{"name":"D4","midi":62,"time":77.73801749999991,"velocity":0.6299212598425197,"duration":0.11408718750000446},{"name":"C5","midi":72,"time":93.33323999999992,"velocity":0.8661417322834646,"duration":0.11408718750000446},{"name":"G5","midi":79,"time":93.80942999999992,"velocity":0.8661417322834646,"duration":0.11408718750000446},{"name":"G5","midi":79,"time":94.28561999999992,"velocity":0.8661417322834646,"duration":0.11408718750000446},{"name":"C5","midi":72,"time":94.76180999999993,"velocity":0.8661417322834646,"duration":0.11408718750000446},{"name":"F#5","midi":78,"time":95.23799999999993,"velocity":0.8661417322834646,"duration":0.11408718750000446},{"name":"G#5","midi":80,"time":95.47609499999993,"velocity":0.8661417322834646,"duration":0.11408718750000446},{"name":"A#5","midi":82,"time":95.71418999999993,"velocity":0.8661417322834646,"duration":0.11408718750000446},{"name":"G#5","midi":80,"time":95.95228499999993,"velocity":0.8661417322834646,"duration":0.11408718750000446},{"name":"F#5","midi":78,"time":96.19037999999993,"velocity":0.8661417322834646,"duration":0.11408718750000446},{"name":"C#5","midi":73,"time":96.66656999999994,"velocity":0.8661417322834646,"duration":0.11408718750000446},{"name":"C5","midi":72,"time":97.14275999999994,"velocity":0.8661417322834646,"duration":0.11408718750000446},{"name":"G5","midi":79,"time":97.61894999999994,"velocity":0.8661417322834646,"duration":0.11408718750000446},{"name":"G5","midi":79,"time":98.09513999999994,"velocity":0.8661417322834646,"duration":0.11408718750000446},{"name":"C5","midi":72,"time":98.57132999999995,"velocity":0.8661417322834646,"duration":0.11408718750000446},{"name":"A#5","midi":82,"time":99.04751999999995,"velocity":0.8661417322834646,"duration":0.11408718750000446},{"name":"C6","midi":84,"time":99.40466249999996,"velocity":0.8661417322834646,"duration":0.11408718750000446},{"name":"A#5","midi":82,"time":99.52370999999997,"velocity":0.8661417322834646,"duration":0.11408718750000446},{"name":"F#5","midi":78,"time":99.76180499999997,"velocity":0.8661417322834646,"duration":0.11408718750000446},{"name":"A#5","midi":82,"time":99.99989999999997,"velocity":0.8661417322834646,"duration":0.11408718750000446},{"name":"C6","midi":84,"time":100.35704249999998,"velocity":0.8661417322834646,"duration":0.11408718750000446},{"name":"A#5","midi":82,"time":100.47608999999999,"velocity":0.8661417322834646,"duration":0.11408718750000446},{"name":"F#5","midi":78,"time":100.71418499999999,"velocity":0.8661417322834646,"duration":0.11408718750000446},{"name":"C5","midi":72,"time":100.95227999999999,"velocity":0.8661417322834646,"duration":0.11408718750000446},{"name":"G5","midi":79,"time":101.42846999999999,"velocity":0.8661417322834646,"duration":0.11408718750000446},{"name":"G5","midi":79,"time":101.90465999999999,"velocity":0.8661417322834646,"duration":0.11408718750000446},{"name":"C5","midi":72,"time":102.38085,"velocity":0.8661417322834646,"duration":0.11408718750000446},{"name":"F#5","midi":78,"time":102.85704,"velocity":0.8661417322834646,"duration":0.11408718750000446},{"name":"G#5","midi":80,"time":103.095135,"velocity":0.8661417322834646,"duration":0.11408718750000446},{"name":"A#5","midi":82,"time":103.33323,"velocity":0.8661417322834646,"duration":0.11408718750000446},{"name":"G#5","midi":80,"time":103.571325,"velocity":0.8661417322834646,"duration":0.11408718750000446},{"name":"F#5","midi":78,"time":103.80942,"velocity":0.8661417322834646,"duration":0.11408718750000446},{"name":"C#5","midi":73,"time":104.28561,"velocity":0.8661417322834646,"duration":0.11408718750000446},{"name":"C5","midi":72,"time":104.76180000000001,"velocity":0.8661417322834646,"duration":0.11408718750000446},{"name":"G5","midi":79,"time":105.23799000000001,"velocity":0.8661417322834646,"duration":0.11408718750000446},{"name":"G#5","midi":80,"time":105.71418000000001,"velocity":0.8661417322834646,"duration":0.11408718750000446},{"name":"G#5","midi":80,"time":106.19037000000002,"velocity":0.8661417322834646,"duration":0.11408718750000446},{"name":"C#6","midi":85,"time":106.54751250000002,"velocity":0.8661417322834646,"duration":0.11408718750000446},{"name":"C6","midi":84,"time":106.66656000000003,"velocity":0.8661417322834646,"duration":0.11408718750000446},{"name":"C5","midi":72,"time":107.14275000000004,"velocity":0.8661417322834646,"duration":0.11408718750000446},{"name":"C5","midi":72,"time":107.61894000000004,"velocity":0.8661417322834646,"duration":0.11408718750000446},{"name":"C3","midi":48,"time":232.38072000000003,"velocity":0.007874015748031496,"duration":0.2331346875000122},{"name":"G3","midi":55,"time":232.61881500000004,"velocity":0.11023622047244094,"duration":0.23313468749998378},{"name":"C4","midi":60,"time":232.61881500000004,"velocity":0.11023622047244094,"duration":0.23313468749998378},{"name":"G2","midi":43,"time":232.73786250000003,"velocity":0.15748031496062992,"duration":0.23313468749998378},{"name":"G3","midi":55,"time":233.09500500000001,"velocity":0.31496062992125984,"duration":0.2331346875000122},{"name":"C4","midi":60,"time":233.09500500000001,"velocity":0.31496062992125984,"duration":0.2331346875000122},{"name":"C3","midi":48,"time":233.33310000000003,"velocity":0.41732283464566927,"duration":0.2331346875000122},{"name":"G3","midi":55,"time":233.57119500000005,"velocity":0.5196850393700787,"duration":0.23313468749998378},{"name":"C4","midi":60,"time":233.57119500000005,"velocity":0.5196850393700787,"duration":0.23313468749998378},{"name":"G2","midi":43,"time":233.69024250000004,"velocity":0.5748031496062992,"duration":0.23313468749998378},{"name":"G3","midi":55,"time":234.04738500000002,"velocity":0.7322834645669292,"duration":0.2331346875000122},{"name":"C4","midi":60,"time":234.04738500000002,"velocity":0.7322834645669292,"duration":0.2331346875000122},{"name":"C3","midi":48,"time":234.28548000000004,"velocity":0.7874015748031497,"duration":0.2331346875000122},{"name":"G3","midi":55,"time":234.52357500000005,"velocity":0.7874015748031497,"duration":0.23313468749998378},{"name":"C4","midi":60,"time":234.52357500000005,"velocity":0.7874015748031497,"duration":0.23313468749998378},{"name":"G2","midi":43,"time":234.64262250000004,"velocity":0.7874015748031497,"duration":0.23313468749998378},{"name":"G3","midi":55,"time":234.99976500000002,"velocity":0.7874015748031497,"duration":0.2331346875000122},{"name":"C4","midi":60,"time":234.99976500000002,"velocity":0.7874015748031497,"duration":0.2331346875000122},{"name":"C3","midi":48,"time":235.23786000000004,"velocity":0.7874015748031497,"duration":0.2331346875000122},{"name":"G3","midi":55,"time":235.47595500000006,"velocity":0.7874015748031497,"duration":0.23313468749998378},{"name":"C4","midi":60,"time":235.47595500000006,"velocity":0.7874015748031497,"duration":0.23313468749998378},{"name":"G2","midi":43,"time":235.59500250000005,"velocity":0.7874015748031497,"duration":0.23313468749998378},{"name":"G3","midi":55,"time":235.95214500000003,"velocity":0.7874015748031497,"duration":0.2331346875000122},{"name":"C4","midi":60,"time":235.95214500000003,"velocity":0.7874015748031497,"duration":0.2331346875000122},{"name":"G#2","midi":44,"time":236.19024000000005,"velocity":0.7874015748031497,"duration":0.2331346875000122},{"name":"G#3","midi":56,"time":236.42833500000006,"velocity":0.7874015748031497,"duration":0.23313468749998378},{"name":"F#3","midi":54,"time":236.42833500000006,"velocity":0.7874015748031497,"duration":0.23313468749998378},{"name":"C4","midi":60,"time":236.42833500000006,"velocity":0.7874015748031497,"duration":0.23313468749998378},{"name":"D#3","midi":51,"time":236.54738250000005,"velocity":0.7874015748031497,"duration":0.23313468749998378},{"name":"G#3","midi":56,"time":236.90452500000004,"velocity":0.7874015748031497,"duration":0.2331346875000122},{"name":"F#3","midi":54,"time":236.90452500000004,"velocity":0.7874015748031497,"duration":0.2331346875000122},{"name":"C4","midi":60,"time":236.90452500000004,"velocity":0.7874015748031497,"duration":0.2331346875000122},{"name":"C3","midi":48,"time":237.14262000000005,"velocity":0.7874015748031497,"duration":0.2331346875000122},{"name":"G3","midi":55,"time":237.38071500000007,"velocity":0.7874015748031497,"duration":0.2331346875000122},{"name":"C4","midi":60,"time":237.38071500000007,"velocity":0.7874015748031497,"duration":0.2331346875000122},{"name":"G2","midi":43,"time":237.61881000000008,"velocity":0.7874015748031497,"duration":0.2331346875000122},{"name":"G3","midi":55,"time":237.8569050000001,"velocity":0.7874015748031497,"duration":0.2331346875000122},{"name":"C4","midi":60,"time":237.8569050000001,"velocity":0.7874015748031497,"duration":0.2331346875000122},{"name":"C3","midi":48,"time":238.0950000000001,"velocity":0.7874015748031497,"duration":0.2331346875000122},{"name":"G3","midi":55,"time":238.33309500000013,"velocity":0.7874015748031497,"duration":0.23313468749998378},{"name":"C4","midi":60,"time":238.33309500000013,"velocity":0.7874015748031497,"duration":0.23313468749998378},{"name":"G2","midi":43,"time":238.45214250000012,"velocity":0.7874015748031497,"duration":0.23313468749998378},{"name":"G3","midi":55,"time":238.8092850000001,"velocity":0.7874015748031497,"duration":0.2331346875000122},{"name":"C4","midi":60,"time":238.8092850000001,"velocity":0.7874015748031497,"duration":0.2331346875000122},{"name":"C3","midi":48,"time":239.04738000000012,"velocity":0.7874015748031497,"duration":0.2331346875000122},{"name":"G3","midi":55,"time":239.28547500000013,"velocity":0.7874015748031497,"duration":0.23313468749998378},{"name":"C4","midi":60,"time":239.28547500000013,"velocity":0.7874015748031497,"duration":0.23313468749998378},{"name":"G2","midi":43,"time":239.40452250000013,"velocity":0.7874015748031497,"duration":0.23313468749998378},{"name":"G3","midi":55,"time":239.7616650000001,"velocity":0.7874015748031497,"duration":0.2331346875000122},{"name":"C4","midi":60,"time":239.7616650000001,"velocity":0.7874015748031497,"duration":0.2331346875000122},{"name":"G#2","midi":44,"time":239.99976000000012,"velocity":0.7874015748031497,"duration":0.2331346875000122},{"name":"G#3","midi":56,"time":240.23785500000014,"velocity":0.7874015748031497,"duration":0.23313468749998378},{"name":"F#3","midi":54,"time":240.23785500000014,"velocity":0.7874015748031497,"duration":0.23313468749998378},{"name":"C4","midi":60,"time":240.23785500000014,"velocity":0.7874015748031497,"duration":0.23313468749998378},{"name":"D#3","midi":51,"time":240.35690250000013,"velocity":0.7874015748031497,"duration":0.23313468749998378},{"name":"G#3","midi":56,"time":240.7140450000001,"velocity":0.7874015748031497,"duration":0.2331346875000122},{"name":"F#3","midi":54,"time":240.7140450000001,"velocity":0.7874015748031497,"duration":0.2331346875000122},{"name":"C4","midi":60,"time":240.7140450000001,"velocity":0.7874015748031497,"duration":0.2331346875000122},{"name":"C3","midi":48,"time":240.95214000000013,"velocity":0.7874015748031497,"duration":0.2331346875000122},{"name":"G3","midi":55,"time":241.19023500000014,"velocity":0.7874015748031497,"duration":0.2331346875000122},{"name":"C4","midi":60,"time":241.19023500000014,"velocity":0.7874015748031497,"duration":0.2331346875000122},{"name":"G2","midi":43,"time":241.42833000000016,"velocity":0.7874015748031497,"duration":0.2331346875000122},{"name":"C4","midi":60,"time":241.66642500000017,"velocity":0.7874015748031497,"duration":0.2331346875000122},{"name":"G3","midi":55,"time":241.66642500000017,"velocity":0.7874015748031497,"duration":0.2331346875000122},{"name":"C3","midi":48,"time":241.9045200000002,"velocity":0.7874015748031497,"duration":0.2331346875000122},{"name":"G3","midi":55,"time":242.1426150000002,"velocity":0.7874015748031497,"duration":0.23313468749998378},{"name":"C4","midi":60,"time":242.1426150000002,"velocity":0.7874015748031497,"duration":0.23313468749998378},{"name":"G2","midi":43,"time":242.2616625000002,"velocity":0.7874015748031497,"duration":0.23313468749998378},{"name":"G3","midi":55,"time":242.61880500000018,"velocity":0.7874015748031497,"duration":0.2331346875000122},{"name":"C4","midi":60,"time":242.61880500000018,"velocity":0.7874015748031497,"duration":0.2331346875000122},{"name":"C3","midi":48,"time":242.8569000000002,"velocity":0.7874015748031497,"duration":0.2331346875000122},{"name":"G3","midi":55,"time":243.0949950000002,"velocity":0.7874015748031497,"duration":0.23313468749998378},{"name":"C4","midi":60,"time":243.0949950000002,"velocity":0.7874015748031497,"duration":0.23313468749998378},{"name":"G2","midi":43,"time":243.2140425000002,"velocity":0.7874015748031497,"duration":0.23313468749998378},{"name":"G3","midi":55,"time":243.57118500000018,"velocity":0.7874015748031497,"duration":0.2331346875000122},{"name":"C4","midi":60,"time":243.57118500000018,"velocity":0.7874015748031497,"duration":0.2331346875000122},{"name":"G#2","midi":44,"time":243.8092800000002,"velocity":0.7874015748031497,"duration":0.2331346875000122},{"name":"G#3","midi":56,"time":244.04737500000022,"velocity":0.7874015748031497,"duration":0.23313468749998378},{"name":"F#3","midi":54,"time":244.04737500000022,"velocity":0.7874015748031497,"duration":0.23313468749998378},{"name":"C4","midi":60,"time":244.04737500000022,"velocity":0.7874015748031497,"duration":0.23313468749998378},{"name":"D#3","midi":51,"time":244.1664225000002,"velocity":0.7874015748031497,"duration":0.23313468749998378},{"name":"G#3","midi":56,"time":244.5235650000002,"velocity":0.7874015748031497,"duration":0.2331346875000122},{"name":"F#3","midi":54,"time":244.5235650000002,"velocity":0.7874015748031497,"duration":0.2331346875000122},{"name":"C4","midi":60,"time":244.5235650000002,"velocity":0.7874015748031497,"duration":0.2331346875000122},{"name":"C3","midi":48,"time":244.7616600000002,"velocity":0.7874015748031497,"duration":0.2331346875000122},{"name":"G3","midi":55,"time":244.99975500000022,"velocity":0.7874015748031497,"duration":0.2331346875000122},{"name":"C4","midi":60,"time":244.99975500000022,"velocity":0.7874015748031497,"duration":0.2331346875000122},{"name":"G2","midi":43,"time":245.23785000000024,"velocity":0.7874015748031497,"duration":0.2331346875000122},{"name":"G3","midi":55,"time":245.47594500000025,"velocity":0.7874015748031497,"duration":0.2331346875000122},{"name":"C4","midi":60,"time":245.47594500000025,"velocity":0.7874015748031497,"duration":0.2331346875000122},{"name":"C3","midi":48,"time":245.71404000000027,"velocity":0.7874015748031497,"duration":0.2331346875000122},{"name":"G3","midi":55,"time":245.95213500000028,"velocity":0.7874015748031497,"duration":0.23313468749998378},{"name":"C4","midi":60,"time":245.95213500000028,"velocity":0.7874015748031497,"duration":0.23313468749998378},{"name":"G2","midi":43,"time":246.07118250000028,"velocity":0.7874015748031497,"duration":0.23313468749998378},{"name":"G3","midi":55,"time":246.42832500000026,"velocity":0.7874015748031497,"duration":0.2331346875000122},{"name":"C4","midi":60,"time":246.42832500000026,"velocity":0.7874015748031497,"duration":0.2331346875000122},{"name":"C3","midi":48,"time":246.66642000000027,"velocity":0.7874015748031497,"duration":0.2331346875000122},{"name":"G3","midi":55,"time":246.9045150000003,"velocity":0.7874015748031497,"duration":0.23313468749998378},{"name":"C4","midi":60,"time":246.9045150000003,"velocity":0.7874015748031497,"duration":0.23313468749998378},{"name":"G2","midi":43,"time":247.02356250000028,"velocity":0.7874015748031497,"duration":0.23313468749998378},{"name":"G3","midi":55,"time":247.38070500000026,"velocity":0.7874015748031497,"duration":0.2331346875000122},{"name":"C4","midi":60,"time":247.38070500000026,"velocity":0.7874015748031497,"duration":0.2331346875000122},{"name":"C#3","midi":49,"time":247.61880000000028,"velocity":0.7874015748031497,"duration":0.2331346875000122},{"name":"F3","midi":53,"time":247.8568950000003,"velocity":0.7874015748031497,"duration":0.23313468749998378},{"name":"G#3","midi":56,"time":247.8568950000003,"velocity":0.7874015748031497,"duration":0.23313468749998378},{"name":"G2","midi":43,"time":247.9759425000003,"velocity":0.7874015748031497,"duration":0.23313468749998378},{"name":"F3","midi":53,"time":248.33308500000027,"velocity":0.7874015748031497,"duration":0.2331346875000122},{"name":"G3","midi":55,"time":248.33308500000027,"velocity":0.7874015748031497,"duration":0.2331346875000122},{"name":"C3","midi":48,"time":248.57118000000028,"velocity":0.7874015748031497,"duration":0.2331346875000122},{"name":"G3","midi":55,"time":248.8092750000003,"velocity":0.7874015748031497,"duration":0.2331346875000122},{"name":"E3","midi":52,"time":248.8092750000003,"velocity":0.7874015748031497,"duration":0.2331346875000122},{"name":"G2","midi":43,"time":249.0473700000003,"velocity":0.7874015748031497,"duration":0.2331346875000122},{"name":"G3","midi":55,"time":249.28546500000033,"velocity":0.7874015748031497,"duration":0.2331346875000122},{"name":"E3","midi":52,"time":249.28546500000033,"velocity":0.7874015748031497,"duration":0.2331346875000122},{"name":"F#3","midi":54,"time":249.52356000000034,"velocity":0.7874015748031497,"duration":0.2331346875000122},{"name":"A#3","midi":58,"time":249.76165500000036,"velocity":0.7874015748031497,"duration":0.23313468749998378},{"name":"C#4","midi":61,"time":249.76165500000036,"velocity":0.7874015748031497,"duration":0.23313468749998378},{"name":"C#3","midi":49,"time":249.88070250000035,"velocity":0.7874015748031497,"duration":0.23313468749998378},{"name":"A#3","midi":58,"time":250.23784500000033,"velocity":0.7874015748031497,"duration":0.2331346875000122},{"name":"C#4","midi":61,"time":250.23784500000033,"velocity":0.7874015748031497,"duration":0.2331346875000122},{"name":"B2","midi":47,"time":250.47594000000035,"velocity":0.7874015748031497,"duration":0.2331346875000122},{"name":"B3","midi":59,"time":250.71403500000037,"velocity":0.7874015748031497,"duration":0.23313468749998378},{"name":"D#4","midi":63,"time":250.71403500000037,"velocity":0.7874015748031497,"duration":0.23313468749998378},{"name":"F#3","midi":54,"time":250.83308250000036,"velocity":0.7874015748031497,"duration":0.23313468749998378},{"name":"B3","midi":59,"time":251.19022500000034,"velocity":0.7874015748031497,"duration":0.2331346875000122},{"name":"D#4","midi":63,"time":251.19022500000034,"velocity":0.7874015748031497,"duration":0.2331346875000122},{"name":"F3","midi":53,"time":251.42832000000035,"velocity":0.7874015748031497,"duration":0.2331346875000122},{"name":"A3","midi":57,"time":251.66641500000037,"velocity":0.7874015748031497,"duration":0.23313468749998378},{"name":"C4","midi":60,"time":251.66641500000037,"velocity":0.7874015748031497,"duration":0.23313468749998378},{"name":"C3","midi":48,"time":251.78546250000036,"velocity":0.7874015748031497,"duration":0.23313468749998378},{"name":"A3","midi":57,"time":252.14260500000034,"velocity":0.7874015748031497,"duration":0.2331346875000122},{"name":"C4","midi":60,"time":252.14260500000034,"velocity":0.7874015748031497,"duration":0.2331346875000122},{"name":"A#2","midi":46,"time":252.38070000000036,"velocity":0.7874015748031497,"duration":0.2331346875000122},{"name":"A#3","midi":58,"time":252.61879500000038,"velocity":0.7874015748031497,"duration":0.23313468749998378},{"name":"D4","midi":62,"time":252.61879500000038,"velocity":0.7874015748031497,"duration":0.23313468749998378},{"name":"F3","midi":53,"time":252.73784250000037,"velocity":0.7874015748031497,"duration":0.23313468749998378},{"name":"A#3","midi":58,"time":253.09498500000035,"velocity":0.7874015748031497,"duration":0.2331346875000122},{"name":"D4","midi":62,"time":253.09498500000035,"velocity":0.7874015748031497,"duration":0.2331346875000122},{"name":"D#3","midi":51,"time":253.33308000000036,"velocity":0.7874015748031497,"duration":0.2331346875000122},{"name":"G3","midi":55,"time":253.57117500000038,"velocity":0.7874015748031497,"duration":0.23313468749998378},{"name":"A#3","midi":58,"time":253.57117500000038,"velocity":0.7874015748031497,"duration":0.23313468749998378},{"name":"A#2","midi":46,"time":253.69022250000037,"velocity":0.7874015748031497,"duration":0.23313468749998378},{"name":"G3","midi":55,"time":254.04736500000035,"velocity":0.7874015748031497,"duration":0.2331346875000122},{"name":"A#3","midi":58,"time":254.04736500000035,"velocity":0.7874015748031497,"duration":0.2331346875000122},{"name":"G#2","midi":44,"time":254.28546000000037,"velocity":0.7874015748031497,"duration":0.2331346875000122},{"name":"G#3","midi":56,"time":254.52355500000039,"velocity":0.7874015748031497,"duration":0.23313468749998378},{"name":"C4","midi":60,"time":254.52355500000039,"velocity":0.7874015748031497,"duration":0.23313468749998378},{"name":"D#3","midi":51,"time":254.64260250000038,"velocity":0.7874015748031497,"duration":0.23313468749998378},{"name":"G#3","midi":56,"time":254.99974500000036,"velocity":0.7874015748031497,"duration":0.2331346875000122},{"name":"C4","midi":60,"time":254.99974500000036,"velocity":0.7874015748031497,"duration":0.2331346875000122},{"name":"G2","midi":43,"time":255.23784000000038,"velocity":0.7874015748031497,"duration":0.2331346875000122},{"name":"G3","midi":55,"time":255.4759350000004,"velocity":0.7874015748031497,"duration":0.23313468749998378},{"name":"B3","midi":59,"time":255.4759350000004,"velocity":0.7874015748031497,"duration":0.23313468749998378},{"name":"D3","midi":50,"time":255.59498250000038,"velocity":0.7874015748031497,"duration":0.23313468749998378},{"name":"G3","midi":55,"time":255.95212500000036,"velocity":0.7874015748031497,"duration":0.2331346875000122},{"name":"B3","midi":59,"time":255.95212500000036,"velocity":0.7874015748031497,"duration":0.2331346875000122},{"name":"G2","midi":43,"time":256.19022000000035,"velocity":0.7874015748031497,"duration":0.2331346875000122},{"name":"G3","midi":55,"time":256.42831500000034,"velocity":0.7874015748031497,"duration":0.2331346875000122},{"name":"B3","midi":59,"time":256.42831500000034,"velocity":0.7874015748031497,"duration":0.2331346875000122},{"name":"D3","midi":50,"time":256.54736250000036,"velocity":0.7874015748031497,"duration":0.2331346875000122},{"name":"G3","midi":55,"time":256.90450500000037,"velocity":0.7874015748031497,"duration":0.2331346875000122},{"name":"B3","midi":59,"time":256.90450500000037,"velocity":0.7874015748031497,"duration":0.2331346875000122},{"name":"C3","midi":48,"time":257.14260000000036,"velocity":0.7874015748031497,"duration":0.2331346875000122},{"name":"G3","midi":55,"time":257.38069500000034,"velocity":0.7874015748031497,"duration":0.2331346875000122},{"name":"C4","midi":60,"time":257.38069500000034,"velocity":0.7874015748031497,"duration":0.2331346875000122},{"name":"G2","midi":43,"time":257.49974250000037,"velocity":0.7874015748031497,"duration":0.2331346875000122},{"name":"G3","midi":55,"time":257.8568850000004,"velocity":0.7874015748031497,"duration":0.2331346875000122},{"name":"C4","midi":60,"time":257.8568850000004,"velocity":0.7874015748031497,"duration":0.2331346875000122},{"name":"C3","midi":48,"time":258.09498000000036,"velocity":0.7874015748031497,"duration":0.2331346875000122},{"name":"G3","midi":55,"time":258.33307500000035,"velocity":0.7874015748031497,"duration":0.2331346875000122},{"name":"C4","midi":60,"time":258.33307500000035,"velocity":0.7874015748031497,"duration":0.2331346875000122},{"name":"G2","midi":43,"time":258.45212250000037,"velocity":0.7874015748031497,"duration":0.2331346875000122},{"name":"G3","midi":55,"time":258.8092650000004,"velocity":0.7874015748031497,"duration":0.2331346875000122},{"name":"C4","midi":60,"time":258.8092650000004,"velocity":0.7874015748031497,"duration":0.2331346875000122},{"name":"G#2","midi":44,"time":259.04736000000037,"velocity":0.7874015748031497,"duration":0.2331346875000122},{"name":"G#3","midi":56,"time":259.28545500000035,"velocity":0.7874015748031497,"duration":0.2331346875000122},{"name":"F#3","midi":54,"time":259.28545500000035,"velocity":0.7874015748031497,"duration":0.2331346875000122},{"name":"C4","midi":60,"time":259.28545500000035,"velocity":0.7874015748031497,"duration":0.2331346875000122},{"name":"D#3","midi":51,"time":259.4045025000004,"velocity":0.7874015748031497,"duration":0.2331346875000122},{"name":"G#3","midi":56,"time":259.7616450000004,"velocity":0.7874015748031497,"duration":0.2331346875000122},{"name":"F#3","midi":54,"time":259.7616450000004,"velocity":0.7874015748031497,"duration":0.2331346875000122},{"name":"C4","midi":60,"time":259.7616450000004,"velocity":0.7874015748031497,"duration":0.2331346875000122},{"name":"C3","midi":48,"time":259.9997400000004,"velocity":0.7874015748031497,"duration":0.2331346875000122},{"name":"G3","midi":55,"time":260.23783500000036,"velocity":0.7874015748031497,"duration":0.2331346875000122},{"name":"C4","midi":60,"time":260.23783500000036,"velocity":0.7874015748031497,"duration":0.2331346875000122},{"name":"G2","midi":43,"time":260.47593000000035,"velocity":0.7874015748031497,"duration":0.2331346875000122},{"name":"G3","midi":55,"time":260.71402500000033,"velocity":0.7874015748031497,"duration":0.2331346875000122},{"name":"C4","midi":60,"time":260.71402500000033,"velocity":0.7874015748031497,"duration":0.2331346875000122},{"name":"C3","midi":48,"time":260.9521200000003,"velocity":0.7874015748031497,"duration":0.2331346875000122},{"name":"G3","midi":55,"time":261.1902150000003,"velocity":0.7874015748031497,"duration":0.2331346875000122},{"name":"C4","midi":60,"time":261.1902150000003,"velocity":0.7874015748031497,"duration":0.2331346875000122},{"name":"G2","midi":43,"time":261.30926250000033,"velocity":0.7874015748031497,"duration":0.2331346875000122},{"name":"G3","midi":55,"time":261.66640500000034,"velocity":0.7874015748031497,"duration":0.2331346875000122},{"name":"C4","midi":60,"time":261.66640500000034,"velocity":0.7874015748031497,"duration":0.2331346875000122},{"name":"C3","midi":48,"time":261.9045000000003,"velocity":0.7874015748031497,"duration":0.2331346875000122},{"name":"G3","midi":55,"time":262.1425950000003,"velocity":0.7874015748031497,"duration":0.2331346875000122},{"name":"C4","midi":60,"time":262.1425950000003,"velocity":0.7874015748031497,"duration":0.2331346875000122},{"name":"G2","midi":43,"time":262.26164250000033,"velocity":0.7874015748031497,"duration":0.2331346875000122},{"name":"G3","midi":55,"time":262.61878500000034,"velocity":0.7874015748031497,"duration":0.2331346875000122},{"name":"C4","midi":60,"time":262.61878500000034,"velocity":0.7874015748031497,"duration":0.2331346875000122},{"name":"G#2","midi":44,"time":262.85688000000033,"velocity":0.7874015748031497,"duration":0.2331346875000122},{"name":"G#3","midi":56,"time":263.0949750000003,"velocity":0.7874015748031497,"duration":0.2331346875000122},{"name":"F#3","midi":54,"time":263.0949750000003,"velocity":0.7874015748031497,"duration":0.2331346875000122},{"name":"C4","midi":60,"time":263.0949750000003,"velocity":0.7874015748031497,"duration":0.2331346875000122},{"name":"D#3","midi":51,"time":263.21402250000034,"velocity":0.7874015748031497,"duration":0.2331346875000122},{"name":"G#3","midi":56,"time":263.57116500000035,"velocity":0.7874015748031497,"duration":0.2331346875000122},{"name":"F#3","midi":54,"time":263.57116500000035,"velocity":0.7874015748031497,"duration":0.2331346875000122},{"name":"C4","midi":60,"time":263.57116500000035,"velocity":0.7874015748031497,"duration":0.2331346875000122},{"name":"C3","midi":48,"time":263.80926000000034,"velocity":0.7874015748031497,"duration":0.2331346875000122},{"name":"G3","midi":55,"time":264.0473550000003,"velocity":0.7874015748031497,"duration":0.2331346875000122},{"name":"C4","midi":60,"time":264.0473550000003,"velocity":0.7874015748031497,"duration":0.2331346875000122},{"name":"G2","midi":43,"time":264.2854500000003,"velocity":0.7874015748031497,"duration":0.2331346875000122},{"name":"C4","midi":60,"time":264.5235450000003,"velocity":0.7874015748031497,"duration":0.2331346875000122},{"name":"G3","midi":55,"time":264.5235450000003,"velocity":0.7874015748031497,"duration":0.2331346875000122},{"name":"C3","midi":48,"time":264.7616400000003,"velocity":0.7874015748031497,"duration":0.2331346875000122},{"name":"G3","midi":55,"time":264.99973500000027,"velocity":0.7874015748031497,"duration":0.2331346875000122},{"name":"C4","midi":60,"time":264.99973500000027,"velocity":0.7874015748031497,"duration":0.2331346875000122},{"name":"G2","midi":43,"time":265.1187825000003,"velocity":0.7874015748031497,"duration":0.2331346875000122},{"name":"G3","midi":55,"time":265.4759250000003,"velocity":0.7874015748031497,"duration":0.2331346875000122},{"name":"C4","midi":60,"time":265.4759250000003,"velocity":0.7874015748031497,"duration":0.2331346875000122},{"name":"C3","midi":48,"time":265.7140200000003,"velocity":0.7874015748031497,"duration":0.2331346875000122},{"name":"G3","midi":55,"time":265.9521150000003,"velocity":0.7874015748031497,"duration":0.2331346875000122},{"name":"C4","midi":60,"time":265.9521150000003,"velocity":0.7874015748031497,"duration":0.2331346875000122},{"name":"G2","midi":43,"time":266.0711625000003,"velocity":0.7874015748031497,"duration":0.2331346875000122},{"name":"G3","midi":55,"time":266.4283050000003,"velocity":0.7874015748031497,"duration":0.2331346875000122},{"name":"C4","midi":60,"time":266.4283050000003,"velocity":0.7874015748031497,"duration":0.2331346875000122},{"name":"G#2","midi":44,"time":266.6664000000003,"velocity":0.7874015748031497,"duration":0.2331346875000122},{"name":"G#3","midi":56,"time":266.9044950000003,"velocity":0.7874015748031497,"duration":0.2331346875000122},{"name":"F#3","midi":54,"time":266.9044950000003,"velocity":0.7874015748031497,"duration":0.2331346875000122},{"name":"C4","midi":60,"time":266.9044950000003,"velocity":0.7874015748031497,"duration":0.2331346875000122},{"name":"D#3","midi":51,"time":267.0235425000003,"velocity":0.7874015748031497,"duration":0.2331346875000122},{"name":"G#3","midi":56,"time":267.3806850000003,"velocity":0.7874015748031497,"duration":0.2331346875000122},{"name":"F#3","midi":54,"time":267.3806850000003,"velocity":0.7874015748031497,"duration":0.2331346875000122},{"name":"C4","midi":60,"time":267.3806850000003,"velocity":0.7874015748031497,"duration":0.2331346875000122},{"name":"C3","midi":48,"time":267.6187800000003,"velocity":0.7874015748031497,"duration":0.2331346875000122},{"name":"G3","midi":55,"time":267.8568750000003,"velocity":0.7874015748031497,"duration":0.2331346875000122},{"name":"C4","midi":60,"time":267.8568750000003,"velocity":0.7874015748031497,"duration":0.2331346875000122},{"name":"G2","midi":43,"time":268.0949700000003,"velocity":0.7874015748031497,"duration":0.2331346875000122},{"name":"G3","midi":55,"time":268.33306500000026,"velocity":0.7874015748031497,"duration":0.2331346875000122},{"name":"C4","midi":60,"time":268.33306500000026,"velocity":0.7874015748031497,"duration":0.2331346875000122},{"name":"C3","midi":48,"time":268.57116000000025,"velocity":0.7874015748031497,"duration":0.2331346875000122},{"name":"G3","midi":55,"time":268.80925500000023,"velocity":0.7874015748031497,"duration":0.2331346875000122},{"name":"C4","midi":60,"time":268.80925500000023,"velocity":0.7874015748031497,"duration":0.2331346875000122},{"name":"G2","midi":43,"time":268.92830250000026,"velocity":0.7874015748031497,"duration":0.2331346875000122},{"name":"G3","midi":55,"time":269.28544500000027,"velocity":0.7874015748031497,"duration":0.2331346875000122},{"name":"C4","midi":60,"time":269.28544500000027,"velocity":0.7874015748031497,"duration":0.2331346875000122},{"name":"C3","midi":48,"time":269.52354000000025,"velocity":0.7874015748031497,"duration":0.2331346875000122},{"name":"G3","midi":55,"time":269.76163500000024,"velocity":0.7874015748031497,"duration":0.2331346875000122},{"name":"C4","midi":60,"time":269.76163500000024,"velocity":0.7874015748031497,"duration":0.2331346875000122},{"name":"G2","midi":43,"time":269.88068250000026,"velocity":0.7874015748031497,"duration":0.2331346875000122},{"name":"G3","midi":55,"time":270.23782500000027,"velocity":0.7874015748031497,"duration":0.2331346875000122},{"name":"C4","midi":60,"time":270.23782500000027,"velocity":0.7874015748031497,"duration":0.2331346875000122},{"name":"C#3","midi":49,"time":270.47592000000026,"velocity":0.7874015748031497,"duration":0.2331346875000122},{"name":"F3","midi":53,"time":270.71401500000024,"velocity":0.7874015748031497,"duration":0.2331346875000122},{"name":"G#3","midi":56,"time":270.71401500000024,"velocity":0.7874015748031497,"duration":0.2331346875000122},{"name":"G2","midi":43,"time":270.83306250000027,"velocity":0.7874015748031497,"duration":0.2331346875000122},{"name":"F3","midi":53,"time":271.1902050000003,"velocity":0.7874015748031497,"duration":0.2331346875000122},{"name":"G3","midi":55,"time":271.1902050000003,"velocity":0.7874015748031497,"duration":0.2331346875000122},{"name":"C3","midi":48,"time":271.42830000000026,"velocity":0.7874015748031497,"duration":0.2331346875000122},{"name":"G3","midi":55,"time":271.66639500000025,"velocity":0.7874015748031497,"duration":0.2331346875000122},{"name":"E3","midi":52,"time":271.66639500000025,"velocity":0.7874015748031497,"duration":0.2331346875000122},{"name":"G2","midi":43,"time":271.90449000000024,"velocity":0.7874015748031497,"duration":0.2331346875000122},{"name":"G3","midi":55,"time":272.1425850000002,"velocity":0.7874015748031497,"duration":0.2331346875000122},{"name":"E3","midi":52,"time":272.1425850000002,"velocity":0.7874015748031497,"duration":0.2331346875000122},{"name":"F#2","midi":42,"time":272.3806800000002,"velocity":0.7874015748031497,"duration":0.2331346875000122},{"name":"F#3","midi":54,"time":272.6187750000002,"velocity":0.7874015748031497,"duration":0.2331346875000122},{"name":"C#3","midi":49,"time":272.6187750000002,"velocity":0.7874015748031497,"duration":0.2331346875000122},{"name":"A#2","midi":46,"time":272.7378225000002,"velocity":0.7874015748031497,"duration":0.2331346875000122},{"name":"F#3","midi":54,"time":273.09496500000023,"velocity":0.7874015748031497,"duration":0.2331346875000122},{"name":"C#3","midi":49,"time":273.09496500000023,"velocity":0.7874015748031497,"duration":0.2331346875000122},{"name":"F#2","midi":42,"time":273.3330600000002,"velocity":0.7874015748031497,"duration":0.2331346875000122},{"name":"F#3","midi":54,"time":273.5711550000002,"velocity":0.7874015748031497,"duration":0.2331346875000122},{"name":"C#3","midi":49,"time":273.5711550000002,"velocity":0.7874015748031497,"duration":0.2331346875000122},{"name":"A#2","midi":46,"time":273.6902025000002,"velocity":0.7874015748031497,"duration":0.2331346875000122},{"name":"F#3","midi":54,"time":274.04734500000023,"velocity":0.7874015748031497,"duration":0.2331346875000122},{"name":"C#3","midi":49,"time":274.04734500000023,"velocity":0.7874015748031497,"duration":0.2331346875000122},{"name":"D2","midi":38,"time":274.2854400000002,"velocity":0.7874015748031497,"duration":0.2331346875000122},{"name":"C3","midi":48,"time":274.5235350000002,"velocity":0.7874015748031497,"duration":0.2331346875000122},{"name":"F#3","midi":54,"time":274.5235350000002,"velocity":0.7874015748031497,"duration":0.2331346875000122},{"name":"A2","midi":45,"time":274.64258250000023,"velocity":0.7874015748031497,"duration":0.2331346875000122},{"name":"C3","midi":48,"time":274.99972500000024,"velocity":0.7874015748031497,"duration":0.2331346875000122},{"name":"F#3","midi":54,"time":274.99972500000024,"velocity":0.7874015748031497,"duration":0.2331346875000122},{"name":"F#2","midi":42,"time":275.2378200000002,"velocity":0.7874015748031497,"duration":0.2331346875000122},{"name":"C#3","midi":49,"time":275.4759150000002,"velocity":0.7874015748031497,"duration":0.2331346875000122},{"name":"F#3","midi":54,"time":275.4759150000002,"velocity":0.7874015748031497,"duration":0.2331346875000122},{"name":"A#2","midi":46,"time":275.59496250000024,"velocity":0.7874015748031497,"duration":0.2331346875000122},{"name":"C#3","midi":49,"time":275.95210500000024,"velocity":0.7874015748031497,"duration":0.2331346875000122},{"name":"F#3","midi":54,"time":275.95210500000024,"velocity":0.7874015748031497,"duration":0.2331346875000122},{"name":"B2","midi":47,"time":276.19020000000023,"velocity":0.7874015748031497,"duration":0.2331346875000122},{"name":"F#3","midi":54,"time":276.4282950000002,"velocity":0.7874015748031497,"duration":0.2331346875000122},{"name":"D#3","midi":51,"time":276.4282950000002,"velocity":0.7874015748031497,"duration":0.2331346875000122},{"name":"F#2","midi":42,"time":276.54734250000024,"velocity":0.7874015748031497,"duration":0.2331346875000122},{"name":"F#3","midi":54,"time":276.90448500000025,"velocity":0.7874015748031497,"duration":0.2331346875000122},{"name":"D#3","midi":51,"time":276.90448500000025,"velocity":0.7874015748031497,"duration":0.2331346875000122},{"name":"F#2","midi":42,"time":277.14258000000024,"velocity":0.7874015748031497,"duration":0.2331346875000122},{"name":"F#3","midi":54,"time":277.3806750000002,"velocity":0.7874015748031497,"duration":0.2331346875000122},{"name":"C#3","midi":49,"time":277.3806750000002,"velocity":0.7874015748031497,"duration":0.2331346875000122},{"name":"A#2","midi":46,"time":277.49972250000025,"velocity":0.7874015748031497,"duration":0.2331346875000122},{"name":"F#3","midi":54,"time":277.85686500000025,"velocity":0.7874015748031497,"duration":0.2331346875000122},{"name":"C#3","midi":49,"time":277.85686500000025,"velocity":0.7874015748031497,"duration":0.2331346875000122},{"name":"G#2","midi":44,"time":278.09496000000024,"velocity":0.7874015748031497,"duration":0.2331346875000122},{"name":"F#3","midi":54,"time":278.33305500000023,"velocity":0.7874015748031497,"duration":0.2331346875000122},{"name":"D#3","midi":51,"time":278.33305500000023,"velocity":0.7874015748031497,"duration":0.2331346875000122},{"name":"C3","midi":48,"time":278.45210250000025,"velocity":0.7874015748031497,"duration":0.2331346875000122},{"name":"F#3","midi":54,"time":278.80924500000026,"velocity":0.7874015748031497,"duration":0.2331346875000122},{"name":"D#3","midi":51,"time":278.80924500000026,"velocity":0.7874015748031497,"duration":0.2331346875000122},{"name":"C#3","midi":49,"time":279.04734000000025,"velocity":0.7874015748031497,"duration":0.2331346875000122},{"name":"G#3","midi":56,"time":279.28543500000023,"velocity":0.7874015748031497,"duration":0.2331346875000122},{"name":"F3","midi":53,"time":279.28543500000023,"velocity":0.7874015748031497,"duration":0.2331346875000122},{"name":"G#2","midi":44,"time":279.5235300000002,"velocity":0.7874015748031497,"duration":0.2331346875000122},{"name":"G#3","midi":56,"time":279.7616250000002,"velocity":0.7874015748031497,"duration":0.2331346875000122},{"name":"F3","midi":53,"time":279.7616250000002,"velocity":0.7874015748031497,"duration":0.2331346875000122},{"name":"F#2","midi":42,"time":279.9997200000002,"velocity":0.7874015748031497,"duration":0.2331346875000122},{"name":"F#3","midi":54,"time":280.2378150000002,"velocity":0.7874015748031497,"duration":0.2331346875000122},{"name":"C#3","midi":49,"time":280.2378150000002,"velocity":0.7874015748031497,"duration":0.2331346875000122},{"name":"A#2","midi":46,"time":280.3568625000002,"velocity":0.7874015748031497,"duration":0.2331346875000122},{"name":"F#3","midi":54,"time":280.7140050000002,"velocity":0.7874015748031497,"duration":0.2331346875000122},{"name":"C#3","midi":49,"time":280.7140050000002,"velocity":0.7874015748031497,"duration":0.2331346875000122},{"name":"F#2","midi":42,"time":280.9521000000002,"velocity":0.7874015748031497,"duration":0.2331346875000122},{"name":"F#3","midi":54,"time":281.1901950000002,"velocity":0.7874015748031497,"duration":0.2331346875000122},{"name":"C#3","midi":49,"time":281.1901950000002,"velocity":0.7874015748031497,"duration":0.2331346875000122},{"name":"A#2","midi":46,"time":281.3092425000002,"velocity":0.7874015748031497,"duration":0.2331346875000122},{"name":"F#3","midi":54,"time":281.6663850000002,"velocity":0.7874015748031497,"duration":0.2331346875000122},{"name":"C#3","midi":49,"time":281.6663850000002,"velocity":0.7874015748031497,"duration":0.2331346875000122},{"name":"C3","midi":48,"time":281.9044800000002,"velocity":0.7874015748031497,"duration":0.2331346875000122},{"name":"E3","midi":52,"time":282.1425750000002,"velocity":0.7874015748031497,"duration":0.2331346875000122},{"name":"G3","midi":55,"time":282.1425750000002,"velocity":0.7874015748031497,"duration":0.2331346875000122},{"name":"G2","midi":43,"time":282.2616225000002,"velocity":0.7874015748031497,"duration":0.2331346875000122},{"name":"E3","midi":52,"time":282.6187650000002,"velocity":0.7874015748031497,"duration":0.2331346875000122},{"name":"G3","midi":55,"time":282.6187650000002,"velocity":0.7874015748031497,"duration":0.2331346875000122},{"name":"C3","midi":48,"time":282.8568600000002,"velocity":0.7874015748031497,"duration":0.2331346875000122},{"name":"E3","midi":52,"time":283.0949550000002,"velocity":0.7874015748031497,"duration":0.2331346875000122},{"name":"G3","midi":55,"time":283.0949550000002,"velocity":0.7874015748031497,"duration":0.2331346875000122},{"name":"G2","midi":43,"time":283.3330500000002,"velocity":0.7874015748031497,"duration":0.2331346875000122},{"name":"G3","midi":55,"time":283.5711450000002,"velocity":0.7874015748031497,"duration":0.2331346875000122},{"name":"E3","midi":52,"time":283.5711450000002,"velocity":0.7874015748031497,"duration":0.2331346875000122},{"name":"C#3","midi":49,"time":283.80924000000016,"velocity":0.7874015748031497,"duration":0.2331346875000122},{"name":"G#3","midi":56,"time":284.04733500000015,"velocity":0.7874015748031497,"duration":0.2331346875000122},{"name":"F3","midi":53,"time":284.04733500000015,"velocity":0.7874015748031497,"duration":0.2331346875000122},{"name":"G#2","midi":44,"time":284.16638250000017,"velocity":0.7874015748031497,"duration":0.2331346875000122},{"name":"F3","midi":53,"time":284.5235250000002,"velocity":0.7874015748031497,"duration":0.009920625000006567},{"name":"G#3","midi":56,"time":284.5235250000002,"velocity":0.7874015748031497,"duration":0.009920625000006567},{"name":"G2","midi":43,"time":284.76162000000016,"velocity":0.7874015748031497,"duration":0.2331346875000122},{"name":"D3","midi":50,"time":284.99971500000015,"velocity":0.7874015748031497,"duration":0.2331346875000122},{"name":"G3","midi":55,"time":284.99971500000015,"velocity":0.7874015748031497,"duration":0.2331346875000122},{"name":"B2","midi":47,"time":285.1187625000002,"velocity":0.7874015748031497,"duration":0.2331346875000122},{"name":"D3","midi":50,"time":285.4759050000002,"velocity":0.7874015748031497,"duration":0.2331346875000122},{"name":"G3","midi":55,"time":285.4759050000002,"velocity":0.7874015748031497,"duration":0.2331346875000122},{"name":"C3","midi":48,"time":285.71400000000017,"velocity":0.7874015748031497,"duration":0.2331346875000122},{"name":"E3","midi":52,"time":285.95209500000016,"velocity":0.7874015748031497,"duration":0.2331346875000122},{"name":"G3","midi":55,"time":285.95209500000016,"velocity":0.7874015748031497,"duration":0.2331346875000122},{"name":"G2","midi":43,"time":286.0711425000002,"velocity":0.7874015748031497,"duration":0.2331346875000122},{"name":"E3","midi":52,"time":286.4282850000002,"velocity":0.7874015748031497,"duration":0.2331346875000122},{"name":"G3","midi":55,"time":286.4282850000002,"velocity":0.7874015748031497,"duration":0.2331346875000122},{"name":"C3","midi":48,"time":286.6663800000002,"velocity":0.7874015748031497,"duration":0.2331346875000122},{"name":"E3","midi":52,"time":286.90447500000016,"velocity":0.7874015748031497,"duration":0.2331346875000122},{"name":"G3","midi":55,"time":286.90447500000016,"velocity":0.7874015748031497,"duration":0.2331346875000122},{"name":"G2","midi":43,"time":287.14257000000015,"velocity":0.7874015748031497,"duration":0.2331346875000122},{"name":"G3","midi":55,"time":287.38066500000014,"velocity":0.7874015748031497,"duration":0.2331346875000122},{"name":"E3","midi":52,"time":287.38066500000014,"velocity":0.7874015748031497,"duration":0.2331346875000122},{"name":"F#2","midi":42,"time":287.6187600000001,"velocity":0.7874015748031497,"duration":0.2331346875000122},{"name":"F#3","midi":54,"time":287.8568550000001,"velocity":0.7874015748031497,"duration":0.2331346875000122},{"name":"C#3","midi":49,"time":287.8568550000001,"velocity":0.7874015748031497,"duration":0.2331346875000122},{"name":"A#2","midi":46,"time":287.97590250000013,"velocity":0.7874015748031497,"duration":0.2331346875000122},{"name":"F#3","midi":54,"time":288.33304500000014,"velocity":0.7874015748031497,"duration":0.2331346875000122},{"name":"C#3","midi":49,"time":288.33304500000014,"velocity":0.7874015748031497,"duration":0.2331346875000122},{"name":"F#2","midi":42,"time":288.5711400000001,"velocity":0.7874015748031497,"duration":0.2331346875000122},{"name":"F#3","midi":54,"time":288.8092350000001,"velocity":0.7874015748031497,"duration":0.2331346875000122},{"name":"C#3","midi":49,"time":288.8092350000001,"velocity":0.7874015748031497,"duration":0.2331346875000122},{"name":"A#2","midi":46,"time":288.92828250000014,"velocity":0.7874015748031497,"duration":0.2331346875000122},{"name":"F#3","midi":54,"time":289.28542500000015,"velocity":0.7874015748031497,"duration":0.2331346875000122},{"name":"C#3","midi":49,"time":289.28542500000015,"velocity":0.7874015748031497,"duration":0.2331346875000122},{"name":"D2","midi":38,"time":289.52352000000013,"velocity":0.7874015748031497,"duration":0.2331346875000122},{"name":"C3","midi":48,"time":289.7616150000001,"velocity":0.7874015748031497,"duration":0.2331346875000122},{"name":"F#3","midi":54,"time":289.7616150000001,"velocity":0.7874015748031497,"duration":0.2331346875000122},{"name":"A2","midi":45,"time":289.88066250000014,"velocity":0.7874015748031497,"duration":0.2331346875000122},{"name":"C3","midi":48,"time":290.23780500000015,"velocity":0.7874015748031497,"duration":0.2331346875000122},{"name":"F#3","midi":54,"time":290.23780500000015,"velocity":0.7874015748031497,"duration":0.2331346875000122},{"name":"F#2","midi":42,"time":290.47590000000014,"velocity":0.7874015748031497,"duration":0.2331346875000122},{"name":"C#3","midi":49,"time":290.7139950000001,"velocity":0.7874015748031497,"duration":0.2331346875000122},{"name":"F#3","midi":54,"time":290.7139950000001,"velocity":0.7874015748031497,"duration":0.2331346875000122},{"name":"A#2","midi":46,"time":290.83304250000015,"velocity":0.7874015748031497,"duration":0.2331346875000122},{"name":"C#3","midi":49,"time":291.19018500000016,"velocity":0.7874015748031497,"duration":0.2331346875000122},{"name":"F#3","midi":54,"time":291.19018500000016,"velocity":0.7874015748031497,"duration":0.2331346875000122},{"name":"B2","midi":47,"time":291.42828000000014,"velocity":0.7874015748031497,"duration":0.2331346875000122},{"name":"F#3","midi":54,"time":291.66637500000013,"velocity":0.7874015748031497,"duration":0.2331346875000122},{"name":"D#3","midi":51,"time":291.66637500000013,"velocity":0.7874015748031497,"duration":0.2331346875000122},{"name":"F#2","midi":42,"time":291.78542250000015,"velocity":0.7874015748031497,"duration":0.2331346875000122},{"name":"F#3","midi":54,"time":292.14256500000016,"velocity":0.7874015748031497,"duration":0.2331346875000122},{"name":"D#3","midi":51,"time":292.14256500000016,"velocity":0.7874015748031497,"duration":0.2331346875000122},{"name":"F#2","midi":42,"time":292.38066000000015,"velocity":0.7874015748031497,"duration":0.2331346875000122},{"name":"F#3","midi":54,"time":292.61875500000014,"velocity":0.7874015748031497,"duration":0.2331346875000122},{"name":"C#3","midi":49,"time":292.61875500000014,"velocity":0.7874015748031497,"duration":0.2331346875000122},{"name":"A#2","midi":46,"time":292.73780250000016,"velocity":0.7874015748031497,"duration":0.2331346875000122},{"name":"F#3","midi":54,"time":293.09494500000017,"velocity":0.7874015748031497,"duration":0.2331346875000122},{"name":"C#3","midi":49,"time":293.09494500000017,"velocity":0.7874015748031497,"duration":0.2331346875000122},{"name":"G#2","midi":44,"time":293.33304000000015,"velocity":0.7874015748031497,"duration":0.2331346875000122},{"name":"F#3","midi":54,"time":293.57113500000014,"velocity":0.7874015748031497,"duration":0.2331346875000122},{"name":"D#3","midi":51,"time":293.57113500000014,"velocity":0.7874015748031497,"duration":0.2331346875000122},{"name":"C3","midi":48,"time":293.69018250000016,"velocity":0.7874015748031497,"duration":0.2331346875000122},{"name":"F#3","midi":54,"time":294.04732500000017,"velocity":0.7874015748031497,"duration":0.2331346875000122},{"name":"D#3","midi":51,"time":294.04732500000017,"velocity":0.7874015748031497,"duration":0.2331346875000122},{"name":"C#3","midi":49,"time":294.28542000000016,"velocity":0.7874015748031497,"duration":0.2331346875000122},{"name":"G#3","midi":56,"time":294.52351500000015,"velocity":0.7874015748031497,"duration":0.2331346875000122},{"name":"F3","midi":53,"time":294.52351500000015,"velocity":0.7874015748031497,"duration":0.2331346875000122},{"name":"G#2","midi":44,"time":294.76161000000013,"velocity":0.7874015748031497,"duration":0.2331346875000122},{"name":"G#3","midi":56,"time":294.9997050000001,"velocity":0.7874015748031497,"duration":0.2331346875000122},{"name":"F3","midi":53,"time":294.9997050000001,"velocity":0.7874015748031497,"duration":0.2331346875000122},{"name":"F#2","midi":42,"time":295.2378000000001,"velocity":0.7874015748031497,"duration":0.2331346875000122},{"name":"F#3","midi":54,"time":295.4758950000001,"velocity":0.7874015748031497,"duration":0.2331346875000122},{"name":"C#3","midi":49,"time":295.4758950000001,"velocity":0.7874015748031497,"duration":0.2331346875000122},{"name":"A#2","midi":46,"time":295.5949425000001,"velocity":0.7874015748031497,"duration":0.2331346875000122},{"name":"F#3","midi":54,"time":295.9520850000001,"velocity":0.7874015748031497,"duration":0.2331346875000122},{"name":"C#3","midi":49,"time":295.9520850000001,"velocity":0.7874015748031497,"duration":0.2331346875000122},{"name":"F#2","midi":42,"time":296.1901800000001,"velocity":0.7874015748031497,"duration":0.2331346875000122},{"name":"F#3","midi":54,"time":296.4282750000001,"velocity":0.7874015748031497,"duration":0.2331346875000122},{"name":"C#3","midi":49,"time":296.4282750000001,"velocity":0.7874015748031497,"duration":0.2331346875000122},{"name":"A#2","midi":46,"time":296.5473225000001,"velocity":0.7874015748031497,"duration":0.2331346875000122},{"name":"F#3","midi":54,"time":296.90446500000013,"velocity":0.7874015748031497,"duration":0.2331346875000122},{"name":"C#3","midi":49,"time":296.90446500000013,"velocity":0.7874015748031497,"duration":0.2331346875000122},{"name":"D3","midi":50,"time":297.1425600000001,"velocity":0.7874015748031497,"duration":0.2331346875000122},{"name":"F3","midi":53,"time":297.3806550000001,"velocity":0.7874015748031497,"duration":0.2331346875000122},{"name":"A#3","midi":58,"time":297.3806550000001,"velocity":0.7874015748031497,"duration":0.2331346875000122},{"name":"A#2","midi":46,"time":297.4997025000001,"velocity":0.7874015748031497,"duration":0.2331346875000122},{"name":"F3","midi":53,"time":297.85684500000013,"velocity":0.7874015748031497,"duration":0.2331346875000122},{"name":"A#3","midi":58,"time":297.85684500000013,"velocity":0.7874015748031497,"duration":0.2331346875000122},{"name":"D#3","midi":51,"time":298.0949400000001,"velocity":0.7874015748031497,"duration":0.2331346875000122},{"name":"F#3","midi":54,"time":298.3330350000001,"velocity":0.7874015748031497,"duration":0.2331346875000122},{"name":"A#3","midi":58,"time":298.3330350000001,"velocity":0.7874015748031497,"duration":0.2331346875000122},{"name":"A#2","midi":46,"time":298.5711300000001,"velocity":0.7874015748031497,"duration":0.2331346875000122},{"name":"F#3","midi":54,"time":298.8092250000001,"velocity":0.7874015748031497,"duration":0.2331346875000122},{"name":"A#3","midi":58,"time":298.8092250000001,"velocity":0.7874015748031497,"duration":0.2331346875000122},{"name":"G#2","midi":44,"time":299.04732000000007,"velocity":0.7874015748031497,"duration":0.2331346875000122},{"name":"D#3","midi":51,"time":299.28541500000006,"velocity":0.7874015748031497,"duration":0.2331346875000122},{"name":"G#3","midi":56,"time":299.28541500000006,"velocity":0.7874015748031497,"duration":0.2331346875000122},{"name":"C3","midi":48,"time":299.4044625000001,"velocity":0.7874015748031497,"duration":0.2331346875000122},{"name":"D#3","midi":51,"time":299.7616050000001,"velocity":0.7874015748031497,"duration":0.2331346875000122},{"name":"G#3","midi":56,"time":299.7616050000001,"velocity":0.7874015748031497,"duration":0.2331346875000122},{"name":"G#2","midi":44,"time":299.9997000000001,"velocity":0.7874015748031497,"duration":0.2331346875000122},{"name":"D#3","midi":51,"time":300.23779500000006,"velocity":0.7874015748031497,"duration":0.2331346875000122},{"name":"G#3","midi":56,"time":300.23779500000006,"velocity":0.7874015748031497,"duration":0.2331346875000122},{"name":"C3","midi":48,"time":300.3568425000001,"velocity":0.7874015748031497,"duration":0.2331346875000122},{"name":"D#3","midi":51,"time":300.7139850000001,"velocity":0.7874015748031497,"duration":0.2331346875000122},{"name":"G#3","midi":56,"time":300.7139850000001,"velocity":0.7874015748031497,"duration":0.2331346875000122},{"name":"C#3","midi":49,"time":300.9520800000001,"velocity":0.7874015748031497,"duration":0.2331346875000122},{"name":"F3","midi":53,"time":301.19017500000007,"velocity":0.7874015748031497,"duration":0.2331346875000122},{"name":"G#3","midi":56,"time":301.19017500000007,"velocity":0.7874015748031497,"duration":0.2331346875000122},{"name":"G#2","midi":44,"time":301.3092225000001,"velocity":0.7874015748031497,"duration":0.2331346875000122},{"name":"F3","midi":53,"time":301.6663650000001,"velocity":0.7874015748031497,"duration":0.2331346875000122},{"name":"G#3","midi":56,"time":301.6663650000001,"velocity":0.7874015748031497,"duration":0.2331346875000122},{"name":"C#3","midi":49,"time":301.9044600000001,"velocity":0.7874015748031497,"duration":0.2331346875000122},{"name":"F3","midi":53,"time":302.1425550000001,"velocity":0.7874015748031497,"duration":0.2331346875000122},{"name":"G#3","midi":56,"time":302.1425550000001,"velocity":0.7874015748031497,"duration":0.2331346875000122},{"name":"G#2","midi":44,"time":302.2616025000001,"velocity":0.7874015748031497,"duration":0.2331346875000122},{"name":"F3","midi":53,"time":302.6187450000001,"velocity":0.7874015748031497,"duration":0.2331346875000122},{"name":"G#3","midi":56,"time":302.6187450000001,"velocity":0.7874015748031497,"duration":0.2331346875000122},{"name":"F#3","midi":54,"time":302.8568400000001,"velocity":0.7874015748031497,"duration":0.2331346875000122},{"name":"A#3","midi":58,"time":303.0949350000001,"velocity":0.7874015748031497,"duration":0.2331346875000122},{"name":"C#4","midi":61,"time":303.0949350000001,"velocity":0.7874015748031497,"duration":0.2331346875000122},{"name":"C#3","midi":49,"time":303.2139825000001,"velocity":0.7874015748031497,"duration":0.2331346875000122},{"name":"A#3","midi":58,"time":303.5711250000001,"velocity":0.7874015748031497,"duration":0.2331346875000122},{"name":"C#4","midi":61,"time":303.5711250000001,"velocity":0.7874015748031497,"duration":0.2331346875000122},{"name":"B2","midi":47,"time":303.8092200000001,"velocity":0.7874015748031497,"duration":0.2331346875000122},{"name":"B3","midi":59,"time":304.0473150000001,"velocity":0.7874015748031497,"duration":0.2331346875000122},{"name":"D#4","midi":63,"time":304.0473150000001,"velocity":0.7874015748031497,"duration":0.2331346875000122},{"name":"F#3","midi":54,"time":304.1663625000001,"velocity":0.7874015748031497,"duration":0.2331346875000122},{"name":"B3","midi":59,"time":304.5235050000001,"velocity":0.7874015748031497,"duration":0.2331346875000122},{"name":"D#4","midi":63,"time":304.5235050000001,"velocity":0.7874015748031497,"duration":0.2331346875000122},{"name":"F3","midi":53,"time":304.7616000000001,"velocity":0.7874015748031497,"duration":0.2331346875000122},{"name":"A3","midi":57,"time":304.9996950000001,"velocity":0.7874015748031497,"duration":0.2331346875000122},{"name":"C4","midi":60,"time":304.9996950000001,"velocity":0.7874015748031497,"duration":0.2331346875000122},{"name":"C3","midi":48,"time":305.1187425000001,"velocity":0.7874015748031497,"duration":0.2331346875000122},{"name":"A3","midi":57,"time":305.4758850000001,"velocity":0.7874015748031497,"duration":0.2331346875000122},{"name":"C4","midi":60,"time":305.4758850000001,"velocity":0.7874015748031497,"duration":0.2331346875000122},{"name":"A#2","midi":46,"time":305.7139800000001,"velocity":0.7874015748031497,"duration":0.2331346875000122},{"name":"A#3","midi":58,"time":305.9520750000001,"velocity":0.7874015748031497,"duration":0.2331346875000122},{"name":"D4","midi":62,"time":305.9520750000001,"velocity":0.7874015748031497,"duration":0.2331346875000122},{"name":"F3","midi":53,"time":306.0711225000001,"velocity":0.7874015748031497,"duration":0.2331346875000122},{"name":"A#3","midi":58,"time":306.4282650000001,"velocity":0.7874015748031497,"duration":0.2331346875000122},{"name":"D4","midi":62,"time":306.4282650000001,"velocity":0.7874015748031497,"duration":0.2331346875000122},{"name":"D#3","midi":51,"time":306.6663600000001,"velocity":0.7874015748031497,"duration":0.2331346875000122},{"name":"G3","midi":55,"time":306.9044550000001,"velocity":0.7874015748031497,"duration":0.2331346875000122},{"name":"A#3","midi":58,"time":306.9044550000001,"velocity":0.7874015748031497,"duration":0.2331346875000122},{"name":"A#2","midi":46,"time":307.0235025000001,"velocity":0.7874015748031497,"duration":0.2331346875000122},{"name":"G3","midi":55,"time":307.38064500000013,"velocity":0.7874015748031497,"duration":0.2331346875000122},{"name":"A#3","midi":58,"time":307.38064500000013,"velocity":0.7874015748031497,"duration":0.2331346875000122},{"name":"G#2","midi":44,"time":307.6187400000001,"velocity":0.7874015748031497,"duration":0.2331346875000122},{"name":"G#3","midi":56,"time":307.8568350000001,"velocity":0.7874015748031497,"duration":0.2331346875000122},{"name":"C4","midi":60,"time":307.8568350000001,"velocity":0.7874015748031497,"duration":0.2331346875000122},{"name":"D#3","midi":51,"time":307.9758825000001,"velocity":0.7874015748031497,"duration":0.2331346875000122},{"name":"G#3","midi":56,"time":308.33302500000013,"velocity":0.7874015748031497,"duration":0.2331346875000122},{"name":"C4","midi":60,"time":308.33302500000013,"velocity":0.7874015748031497,"duration":0.2331346875000122},{"name":"G2","midi":43,"time":308.5711200000001,"velocity":0.7874015748031497,"duration":0.2331346875000122},{"name":"G3","midi":55,"time":308.8092150000001,"velocity":0.7874015748031497,"duration":0.2331346875000122},{"name":"B3","midi":59,"time":308.8092150000001,"velocity":0.7874015748031497,"duration":0.2331346875000122},{"name":"D3","midi":50,"time":308.92826250000013,"velocity":0.7874015748031497,"duration":0.2331346875000122},{"name":"G3","midi":55,"time":309.28540500000014,"velocity":0.7874015748031497,"duration":0.2331346875000122},{"name":"B3","midi":59,"time":309.28540500000014,"velocity":0.7874015748031497,"duration":0.2331346875000122},{"name":"G2","midi":43,"time":309.5235000000001,"velocity":0.7874015748031497,"duration":0.2331346875000122},{"name":"G3","midi":55,"time":309.7615950000001,"velocity":0.7874015748031497,"duration":0.2331346875000122},{"name":"B3","midi":59,"time":309.7615950000001,"velocity":0.7874015748031497,"duration":0.2331346875000122},{"name":"D3","midi":50,"time":309.88064250000014,"velocity":0.7874015748031497,"duration":0.2331346875000122},{"name":"G3","midi":55,"time":310.23778500000014,"velocity":0.7874015748031497,"duration":0.2331346875000122},{"name":"B3","midi":59,"time":310.23778500000014,"velocity":0.7874015748031497,"duration":0.2331346875000122},{"name":"C3","midi":48,"time":310.47588000000013,"velocity":0.7874015748031497,"duration":0.2331346875000122},{"name":"G3","midi":55,"time":310.7139750000001,"velocity":0.7874015748031497,"duration":0.2331346875000122},{"name":"C4","midi":60,"time":310.7139750000001,"velocity":0.7874015748031497,"duration":0.2331346875000122},{"name":"G2","midi":43,"time":310.83302250000014,"velocity":0.7874015748031497,"duration":0.2331346875000122},{"name":"G3","midi":55,"time":311.19016500000015,"velocity":0.7874015748031497,"duration":0.2331346875000122},{"name":"C4","midi":60,"time":311.19016500000015,"velocity":0.7874015748031497,"duration":0.2331346875000122},{"name":"C3","midi":48,"time":311.42826000000014,"velocity":0.7874015748031497,"duration":0.2331346875000122},{"name":"G3","midi":55,"time":311.6663550000001,"velocity":0.7874015748031497,"duration":0.2331346875000122},{"name":"C4","midi":60,"time":311.6663550000001,"velocity":0.7874015748031497,"duration":0.2331346875000122},{"name":"G2","midi":43,"time":311.78540250000015,"velocity":0.7874015748031497,"duration":0.2331346875000122},{"name":"G3","midi":55,"time":312.14254500000015,"velocity":0.7874015748031497,"duration":0.2331346875000122},{"name":"C4","midi":60,"time":312.14254500000015,"velocity":0.7874015748031497,"duration":0.2331346875000122},{"name":"G#2","midi":44,"time":312.38064000000014,"velocity":0.7874015748031497,"duration":0.2331346875000122},{"name":"G#3","midi":56,"time":312.61873500000013,"velocity":0.7874015748031497,"duration":0.2331346875000122},{"name":"F#3","midi":54,"time":312.61873500000013,"velocity":0.7874015748031497,"duration":0.2331346875000122},{"name":"C4","midi":60,"time":312.61873500000013,"velocity":0.7874015748031497,"duration":0.2331346875000122},{"name":"D#3","midi":51,"time":312.73778250000015,"velocity":0.7874015748031497,"duration":0.2331346875000122},{"name":"G#3","midi":56,"time":313.09492500000016,"velocity":0.7874015748031497,"duration":0.2331346875000122},{"name":"F#3","midi":54,"time":313.09492500000016,"velocity":0.7874015748031497,"duration":0.2331346875000122},{"name":"C4","midi":60,"time":313.09492500000016,"velocity":0.7874015748031497,"duration":0.2331346875000122},{"name":"C3","midi":48,"time":313.33302000000015,"velocity":0.7874015748031497,"duration":0.2331346875000122},{"name":"G3","midi":55,"time":313.57111500000013,"velocity":0.7874015748031497,"duration":0.2331346875000122},{"name":"C4","midi":60,"time":313.57111500000013,"velocity":0.7874015748031497,"duration":0.2331346875000122},{"name":"G2","midi":43,"time":313.8092100000001,"velocity":0.7874015748031497,"duration":0.2331346875000122},{"name":"G3","midi":55,"time":314.0473050000001,"velocity":0.7874015748031497,"duration":0.2331346875000122},{"name":"C4","midi":60,"time":314.0473050000001,"velocity":0.7874015748031497,"duration":0.2331346875000122},{"name":"C3","midi":48,"time":314.2854000000001,"velocity":0.7874015748031497,"duration":0.2331346875000122},{"name":"G3","midi":55,"time":314.5234950000001,"velocity":0.7874015748031497,"duration":0.2331346875000122},{"name":"C4","midi":60,"time":314.5234950000001,"velocity":0.7874015748031497,"duration":0.2331346875000122},{"name":"G2","midi":43,"time":314.6425425000001,"velocity":0.7874015748031497,"duration":0.2331346875000122},{"name":"G3","midi":55,"time":314.9996850000001,"velocity":0.7874015748031497,"duration":0.2331346875000122},{"name":"C4","midi":60,"time":314.9996850000001,"velocity":0.7874015748031497,"duration":0.2331346875000122},{"name":"C3","midi":48,"time":315.2377800000001,"velocity":0.7874015748031497,"duration":0.2331346875000122},{"name":"G3","midi":55,"time":315.4758750000001,"velocity":0.7874015748031497,"duration":0.2331346875000122},{"name":"C4","midi":60,"time":315.4758750000001,"velocity":0.7874015748031497,"duration":0.2331346875000122},{"name":"G2","midi":43,"time":315.5949225000001,"velocity":0.7874015748031497,"duration":0.2331346875000122},{"name":"G3","midi":55,"time":315.9520650000001,"velocity":0.7874015748031497,"duration":0.2331346875000122},{"name":"C4","midi":60,"time":315.9520650000001,"velocity":0.7874015748031497,"duration":0.2331346875000122},{"name":"G#2","midi":44,"time":316.1901600000001,"velocity":0.7874015748031497,"duration":0.2331346875000122},{"name":"G#3","midi":56,"time":316.4282550000001,"velocity":0.7874015748031497,"duration":0.2331346875000122},{"name":"F#3","midi":54,"time":316.4282550000001,"velocity":0.7874015748031497,"duration":0.2331346875000122},{"name":"C4","midi":60,"time":316.4282550000001,"velocity":0.7874015748031497,"duration":0.2331346875000122},{"name":"D#3","midi":51,"time":316.5473025000001,"velocity":0.7874015748031497,"duration":0.2331346875000122},{"name":"G#3","midi":56,"time":316.9044450000001,"velocity":0.7874015748031497,"duration":0.2331346875000122},{"name":"F#3","midi":54,"time":316.9044450000001,"velocity":0.7874015748031497,"duration":0.2331346875000122},{"name":"C4","midi":60,"time":316.9044450000001,"velocity":0.7874015748031497,"duration":0.2331346875000122},{"name":"C3","midi":48,"time":317.1425400000001,"velocity":0.7874015748031497,"duration":0.2331346875000122},{"name":"G3","midi":55,"time":317.3806350000001,"velocity":0.7874015748031497,"duration":0.2331346875000122},{"name":"C4","midi":60,"time":317.3806350000001,"velocity":0.7874015748031497,"duration":0.2331346875000122},{"name":"G2","midi":43,"time":317.6187300000001,"velocity":0.7874015748031497,"duration":0.2331346875000122},{"name":"C4","midi":60,"time":317.8568250000001,"velocity":0.7874015748031497,"duration":0.2331346875000122},{"name":"G3","midi":55,"time":317.8568250000001,"velocity":0.7874015748031497,"duration":0.2331346875000122},{"name":"C3","midi":48,"time":318.09492000000006,"velocity":0.7874015748031497,"duration":0.2331346875000122},{"name":"G3","midi":55,"time":318.33301500000005,"velocity":0.7874015748031497,"duration":0.2331346875000122},{"name":"C4","midi":60,"time":318.33301500000005,"velocity":0.7874015748031497,"duration":0.2331346875000122},{"name":"G2","midi":43,"time":318.45206250000007,"velocity":0.7874015748031497,"duration":0.2331346875000122},{"name":"G3","midi":55,"time":318.8092050000001,"velocity":0.7874015748031497,"duration":0.2331346875000122},{"name":"C4","midi":60,"time":318.8092050000001,"velocity":0.7874015748031497,"duration":0.2331346875000122},{"name":"C3","midi":48,"time":319.04730000000006,"velocity":0.7874015748031497,"duration":0.2331346875000122},{"name":"G3","midi":55,"time":319.28539500000005,"velocity":0.7874015748031497,"duration":0.2331346875000122},{"name":"C4","midi":60,"time":319.28539500000005,"velocity":0.7874015748031497,"duration":0.2331346875000122},{"name":"G2","midi":43,"time":319.4044425000001,"velocity":0.7874015748031497,"duration":0.2331346875000122},{"name":"G3","midi":55,"time":319.7615850000001,"velocity":0.7874015748031497,"duration":0.2331346875000122},{"name":"C4","midi":60,"time":319.7615850000001,"velocity":0.7874015748031497,"duration":0.2331346875000122},{"name":"G#2","midi":44,"time":319.99968000000007,"velocity":0.7874015748031497,"duration":0.2331346875000122},{"name":"G#3","midi":56,"time":320.23777500000006,"velocity":0.7874015748031497,"duration":0.2331346875000122},{"name":"F#3","midi":54,"time":320.23777500000006,"velocity":0.7874015748031497,"duration":0.2331346875000122},{"name":"C4","midi":60,"time":320.23777500000006,"velocity":0.7874015748031497,"duration":0.2331346875000122},{"name":"D#3","midi":51,"time":320.3568225000001,"velocity":0.7874015748031497,"duration":0.2331346875000122},{"name":"G#3","midi":56,"time":320.7139650000001,"velocity":0.7874015748031497,"duration":0.2331346875000122},{"name":"F#3","midi":54,"time":320.7139650000001,"velocity":0.7874015748031497,"duration":0.2331346875000122},{"name":"C4","midi":60,"time":320.7139650000001,"velocity":0.7874015748031497,"duration":0.2331346875000122},{"name":"C3","midi":48,"time":320.9520600000001,"velocity":0.7874015748031497,"duration":0.2331346875000122},{"name":"G3","midi":55,"time":321.19015500000006,"velocity":0.7874015748031497,"duration":0.2331346875000122},{"name":"C4","midi":60,"time":321.19015500000006,"velocity":0.7874015748031497,"duration":0.2331346875000122},{"name":"G2","midi":43,"time":321.42825000000005,"velocity":0.7874015748031497,"duration":0.2331346875000122},{"name":"G3","midi":55,"time":321.66634500000004,"velocity":0.7874015748031497,"duration":0.2331346875000122},{"name":"C4","midi":60,"time":321.66634500000004,"velocity":0.7874015748031497,"duration":0.2331346875000122},{"name":"C3","midi":48,"time":321.90444,"velocity":0.7874015748031497,"duration":0.2331346875000122},{"name":"G3","midi":55,"time":322.142535,"velocity":0.7874015748031497,"duration":0.2331346875000122},{"name":"C4","midi":60,"time":322.142535,"velocity":0.7874015748031497,"duration":0.2331346875000122},{"name":"G2","midi":43,"time":322.26158250000003,"velocity":0.7874015748031497,"duration":0.2331346875000122},{"name":"G3","midi":55,"time":322.61872500000004,"velocity":0.7874015748031497,"duration":0.2331346875000122},{"name":"C4","midi":60,"time":322.61872500000004,"velocity":0.7874015748031497,"duration":0.2331346875000122},{"name":"C3","midi":48,"time":322.85682,"velocity":0.7874015748031497,"duration":0.2331346875000122},{"name":"G3","midi":55,"time":323.094915,"velocity":0.7874015748031497,"duration":0.2331346875000122},{"name":"C4","midi":60,"time":323.094915,"velocity":0.7874015748031497,"duration":0.2331346875000122},{"name":"G2","midi":43,"time":323.21396250000004,"velocity":0.7874015748031497,"duration":0.2331346875000122},{"name":"G3","midi":55,"time":323.57110500000005,"velocity":0.7874015748031497,"duration":0.2331346875000122},{"name":"C4","midi":60,"time":323.57110500000005,"velocity":0.7874015748031497,"duration":0.2331346875000122},{"name":"C#3","midi":49,"time":323.80920000000003,"velocity":0.7874015748031497,"duration":0.2331346875000122},{"name":"F3","midi":53,"time":324.047295,"velocity":0.7874015748031497,"duration":0.2331346875000122},{"name":"G#3","midi":56,"time":324.047295,"velocity":0.7874015748031497,"duration":0.2331346875000122},{"name":"G2","midi":43,"time":324.16634250000004,"velocity":0.7874015748031497,"duration":0.2331346875000122},{"name":"F3","midi":53,"time":324.52348500000005,"velocity":0.7874015748031497,"duration":0.2331346875000122},{"name":"G3","midi":55,"time":324.52348500000005,"velocity":0.7874015748031497,"duration":0.2331346875000122},{"name":"C3","midi":48,"time":324.76158000000004,"velocity":0.7874015748031497,"duration":0.2331346875000122},{"name":"G3","midi":55,"time":324.999675,"velocity":0.7874015748031497,"duration":0.2331346875000122},{"name":"E3","midi":52,"time":324.999675,"velocity":0.7874015748031497,"duration":0.2331346875000122},{"name":"G2","midi":43,"time":325.23777,"velocity":0.7874015748031497,"duration":0.2331346875000122},{"name":"G3","midi":55,"time":325.475865,"velocity":0.7874015748031497,"duration":0.2331346875000122},{"name":"E3","midi":52,"time":325.475865,"velocity":0.7874015748031497,"duration":0.2331346875000122},{"name":"C3","midi":48,"time":325.71396,"velocity":0.7874015748031497,"duration":0.2331346875000122},{"name":"G3","midi":55,"time":325.8330075,"velocity":0.7874015748031497,"duration":0.23313468749995536},{"name":"E3","midi":52,"time":325.952055,"velocity":0.7874015748031497,"duration":0.23313468749995536},{"name":"A3","midi":57,"time":326.07110249999994,"velocity":0.7874015748031497,"duration":0.23313468749995536},{"name":"C3","midi":48,"time":326.1901499999999,"velocity":0.7874015748031497,"duration":0.23313468749995536},{"name":"G3","midi":55,"time":326.30919749999987,"velocity":0.7874015748031497,"duration":0.23313468749995536},{"name":"E3","midi":52,"time":326.42824499999983,"velocity":0.7874015748031497,"duration":0.23313468749995536},{"name":"A3","midi":57,"time":326.5472924999998,"velocity":0.7874015748031497,"duration":0.23313468749995536},{"name":"C3","midi":48,"time":326.66633999999976,"velocity":0.7874015748031497,"duration":0.23313468749995536},{"name":"G3","midi":55,"time":326.78538749999973,"velocity":0.7874015748031497,"duration":0.23313468749995536},{"name":"E3","midi":52,"time":326.9044349999997,"velocity":0.7874015748031497,"duration":0.23313468749995536},{"name":"A3","midi":57,"time":327.02348249999966,"velocity":0.7874015748031497,"duration":0.23313468749995536},{"name":"C3","midi":48,"time":327.1425299999996,"velocity":0.7874015748031497,"duration":0.23313468749995536},{"name":"G3","midi":55,"time":327.2615774999996,"velocity":0.7874015748031497,"duration":0.23313468749995536},{"name":"E3","midi":52,"time":327.38062499999955,"velocity":0.7874015748031497,"duration":0.23313468749995536},{"name":"A3","midi":57,"time":327.4996724999995,"velocity":0.7874015748031497,"duration":0.11408718749999025},{"name":"C#3","midi":49,"time":327.6187199999995,"velocity":0.7874015748031497,"duration":0.2331346875000122},{"name":"F#3","midi":54,"time":327.7377674999995,"velocity":0.7874015748031497,"duration":0.23313468749995536},{"name":"D#3","midi":51,"time":327.8568149999995,"velocity":0.7874015748031497,"duration":0.23313468749995536},{"name":"A#3","midi":58,"time":327.97586249999944,"velocity":0.7874015748031497,"duration":0.23313468749995536},{"name":"C#3","midi":49,"time":328.0949099999994,"velocity":0.7874015748031497,"duration":0.23313468749995536},{"name":"F#3","midi":54,"time":328.21395749999937,"velocity":0.7874015748031497,"duration":0.23313468749995536},{"name":"D#3","midi":51,"time":328.33300499999933,"velocity":0.7874015748031497,"duration":0.23313468749995536},{"name":"A#3","midi":58,"time":328.4520524999993,"velocity":0.7874015748031497,"duration":0.23313468749995536},{"name":"C#3","midi":49,"time":328.57109999999926,"velocity":0.7874015748031497,"duration":0.23313468749995536},{"name":"F#3","midi":54,"time":328.6901474999992,"velocity":0.7874015748031497,"duration":0.23313468749995536},{"name":"D#3","midi":51,"time":328.8091949999992,"velocity":0.7874015748031497,"duration":0.23313468749995536},{"name":"A#3","midi":58,"time":328.92824249999916,"velocity":0.7874015748031497,"duration":0.23313468749995536},{"name":"C#3","midi":49,"time":329.0472899999991,"velocity":0.7874015748031497,"duration":0.23313468749995536},{"name":"F#3","midi":54,"time":329.1663374999991,"velocity":0.7874015748031497,"duration":0.23313468749995536},{"name":"D#3","midi":51,"time":329.28538499999905,"velocity":0.7874015748031497,"duration":0.23313468749995536},{"name":"A#3","midi":58,"time":329.404432499999,"velocity":0.7874015748031497,"duration":0.11408718749999025},{"name":"C3","midi":48,"time":329.523479999999,"velocity":0.7874015748031497,"duration":0.2331346875000122},{"name":"G3","midi":55,"time":329.642527499999,"velocity":0.7874015748031497,"duration":0.23313468749995536},{"name":"E3","midi":52,"time":329.76157499999897,"velocity":0.7874015748031497,"duration":0.23313468749995536},{"name":"A3","midi":57,"time":329.88062249999894,"velocity":0.7874015748031497,"duration":0.23313468749995536},{"name":"C3","midi":48,"time":329.9996699999989,"velocity":0.7874015748031497,"duration":0.23313468749995536},{"name":"G3","midi":55,"time":330.11871749999887,"velocity":0.7874015748031497,"duration":0.23313468749995536},{"name":"E3","midi":52,"time":330.23776499999883,"velocity":0.7874015748031497,"duration":0.23313468749995536},{"name":"A3","midi":57,"time":330.3568124999988,"velocity":0.7874015748031497,"duration":0.23313468749995536},{"name":"C3","midi":48,"time":330.47585999999876,"velocity":0.7874015748031497,"duration":0.23313468749995536},{"name":"G3","midi":55,"time":330.5949074999987,"velocity":0.7874015748031497,"duration":0.23313468749995536},{"name":"E3","midi":52,"time":330.7139549999987,"velocity":0.7874015748031497,"duration":0.23313468749995536},{"name":"A3","midi":57,"time":330.83300249999866,"velocity":0.7874015748031497,"duration":0.23313468749995536},{"name":"C3","midi":48,"time":330.9520499999986,"velocity":0.7874015748031497,"duration":0.23313468749995536},{"name":"G3","midi":55,"time":331.0710974999986,"velocity":0.7874015748031497,"duration":0.23313468749995536},{"name":"E3","midi":52,"time":331.19014499999855,"velocity":0.7874015748031497,"duration":0.23313468749995536},{"name":"A3","midi":57,"time":331.3091924999985,"velocity":0.7874015748031497,"duration":0.11408718749999025},{"name":"A#2","midi":46,"time":331.4282399999985,"velocity":0.7874015748031497,"duration":0.2331346875000122},{"name":"F3","midi":53,"time":331.5472874999985,"velocity":0.7874015748031497,"duration":0.23313468749995536},{"name":"D3","midi":50,"time":331.66633499999847,"velocity":0.7874015748031497,"duration":0.23313468749995536},{"name":"A#3","midi":58,"time":331.78538249999843,"velocity":0.7874015748031497,"duration":0.23313468749995536},{"name":"A#2","midi":46,"time":331.9044299999984,"velocity":0.7874015748031497,"duration":0.23313468749995536},{"name":"F#3","midi":54,"time":332.02347749999836,"velocity":0.7874015748031497,"duration":0.23313468749995536},{"name":"D3","midi":50,"time":332.14252499999833,"velocity":0.7874015748031497,"duration":0.23313468749995536},{"name":"A#3","midi":58,"time":332.2615724999983,"velocity":0.7874015748031497,"duration":0.23313468749995536},{"name":"A#2","midi":46,"time":332.38061999999826,"velocity":0.7874015748031497,"duration":0.23313468749995536},{"name":"F3","midi":53,"time":332.4996674999982,"velocity":0.7874015748031497,"duration":0.23313468749995536},{"name":"D3","midi":50,"time":332.6187149999982,"velocity":0.7874015748031497,"duration":0.23313468749995536},{"name":"A#3","midi":58,"time":332.73776249999815,"velocity":0.7874015748031497,"duration":0.23313468749995536},{"name":"A#2","midi":46,"time":332.8568099999981,"velocity":0.7874015748031497,"duration":0.23313468749995536},{"name":"F#3","midi":54,"time":332.9758574999981,"velocity":0.7874015748031497,"duration":0.23313468749995536},{"name":"D3","midi":50,"time":333.09490499999805,"velocity":0.7874015748031497,"duration":0.23313468749995536},{"name":"A#3","midi":58,"time":333.213952499998,"velocity":0.7874015748031497,"duration":0.11408718749999025},{"name":"C3","midi":48,"time":333.332999999998,"velocity":0.7874015748031497,"duration":0.2331346875000122},{"name":"G3","midi":55,"time":333.452047499998,"velocity":0.7874015748031497,"duration":0.23313468749995536},{"name":"E3","midi":52,"time":333.57109499999797,"velocity":0.7874015748031497,"duration":0.23313468749995536},{"name":"A3","midi":57,"time":333.69014249999793,"velocity":0.7874015748031497,"duration":0.23313468749995536},{"name":"C3","midi":48,"time":333.8091899999979,"velocity":0.7874015748031497,"duration":0.23313468749995536},{"name":"G3","midi":55,"time":333.92823749999786,"velocity":0.7874015748031497,"duration":0.23313468749995536},{"name":"E3","midi":52,"time":334.0472849999978,"velocity":0.7874015748031497,"duration":0.23313468749995536},{"name":"A3","midi":57,"time":334.1663324999978,"velocity":0.7874015748031497,"duration":0.23313468749995536},{"name":"C3","midi":48,"time":334.28537999999776,"velocity":0.7874015748031497,"duration":0.23313468749995536},{"name":"G3","midi":55,"time":334.4044274999977,"velocity":0.7874015748031497,"duration":0.23313468749995536},{"name":"E3","midi":52,"time":334.5234749999977,"velocity":0.7874015748031497,"duration":0.23313468749995536},{"name":"A3","midi":57,"time":334.64252249999765,"velocity":0.7874015748031497,"duration":0.23313468749995536},{"name":"C3","midi":48,"time":334.7615699999976,"velocity":0.7874015748031497,"duration":0.23313468749995536},{"name":"G3","midi":55,"time":334.8806174999976,"velocity":0.7874015748031497,"duration":0.23313468749995536},{"name":"E3","midi":52,"time":334.99966499999755,"velocity":0.7874015748031497,"duration":0.23313468749995536},{"name":"A3","midi":57,"time":335.1187124999975,"velocity":0.7874015748031497,"duration":0.11408718749999025},{"name":"C#3","midi":49,"time":335.2377599999975,"velocity":0.7874015748031497,"duration":0.2331346875000122},{"name":"F#3","midi":54,"time":335.3568074999975,"velocity":0.7874015748031497,"duration":0.23313468749995536},{"name":"D#3","midi":51,"time":335.47585499999747,"velocity":0.7874015748031497,"duration":0.23313468749995536},{"name":"A#3","midi":58,"time":335.59490249999743,"velocity":0.7874015748031497,"duration":0.23313468749995536},{"name":"C#3","midi":49,"time":335.7139499999974,"velocity":0.7874015748031497,"duration":0.23313468749995536},{"name":"F#3","midi":54,"time":335.83299749999736,"velocity":0.7874015748031497,"duration":0.23313468749995536},{"name":"D#3","midi":51,"time":335.9520449999973,"velocity":0.7874015748031497,"duration":0.23313468749995536},{"name":"A#3","midi":58,"time":336.0710924999973,"velocity":0.7874015748031497,"duration":0.23313468749995536},{"name":"C#3","midi":49,"time":336.19013999999726,"velocity":0.7874015748031497,"duration":0.23313468749995536},{"name":"F#3","midi":54,"time":336.3091874999972,"velocity":0.7874015748031497,"duration":0.23313468749995536},{"name":"D#3","midi":51,"time":336.4282349999972,"velocity":0.7874015748031497,"duration":0.23313468749995536},{"name":"A#3","midi":58,"time":336.54728249999715,"velocity":0.7874015748031497,"duration":0.23313468749995536},{"name":"C#3","midi":49,"time":336.6663299999971,"velocity":0.7874015748031497,"duration":0.23313468749995536},{"name":"F#3","midi":54,"time":336.7853774999971,"velocity":0.7874015748031497,"duration":0.23313468749995536},{"name":"D#3","midi":51,"time":336.90442499999705,"velocity":0.7874015748031497,"duration":0.23313468749995536},{"name":"A#3","midi":58,"time":337.023472499997,"velocity":0.7874015748031497,"duration":0.11408718749999025},{"name":"C3","midi":48,"time":337.142519999997,"velocity":0.7874015748031497,"duration":0.2331346875000122},{"name":"G3","midi":55,"time":337.261567499997,"velocity":0.7874015748031497,"duration":0.23313468749995536},{"name":"E3","midi":52,"time":337.38061499999696,"velocity":0.7874015748031497,"duration":0.23313468749995536},{"name":"A3","midi":57,"time":337.49966249999693,"velocity":0.7874015748031497,"duration":0.23313468749995536},{"name":"C3","midi":48,"time":337.6187099999969,"velocity":0.7874015748031497,"duration":0.23313468749995536},{"name":"G3","midi":55,"time":337.73775749999686,"velocity":0.7874015748031497,"duration":0.23313468749995536},{"name":"E3","midi":52,"time":337.8568049999968,"velocity":0.7874015748031497,"duration":0.23313468749995536},{"name":"A3","midi":57,"time":337.9758524999968,"velocity":0.7874015748031497,"duration":0.11408718749999025},{"name":"C#3","midi":49,"time":338.09489999999676,"velocity":0.7874015748031497,"duration":0.2331346875000122},{"name":"G#3","midi":56,"time":338.2139474999968,"velocity":0.7874015748031497,"duration":0.23313468749995536},{"name":"F3","midi":53,"time":338.33299499999674,"velocity":0.7874015748031497,"duration":0.23313468749995536},{"name":"A#3","midi":58,"time":338.4520424999967,"velocity":0.7874015748031497,"duration":0.23313468749995536},{"name":"C#3","midi":49,"time":338.5710899999967,"velocity":0.7874015748031497,"duration":0.23313468749995536},{"name":"G#3","midi":56,"time":338.69013749999664,"velocity":0.7874015748031497,"duration":0.23313468749995536},{"name":"F3","midi":53,"time":338.8091849999966,"velocity":0.7874015748031497,"duration":0.23313468749995536},{"name":"A#3","midi":58,"time":338.92823249999657,"velocity":0.7874015748031497,"duration":0.11408718749999025},{"name":"C3","midi":48,"time":339.04727999999653,"velocity":0.7874015748031497,"duration":0.2331346875000122},{"name":"G3","midi":55,"time":339.16632749999656,"velocity":0.7874015748031497,"duration":0.23313468749995536},{"name":"E3","midi":52,"time":339.2853749999965,"velocity":0.7874015748031497,"duration":0.23313468749995536},{"name":"A3","midi":57,"time":339.4044224999965,"velocity":0.7874015748031497,"duration":0.23313468749995536},{"name":"C3","midi":48,"time":339.52346999999645,"velocity":0.7874015748031497,"duration":0.23313468749995536},{"name":"G3","midi":55,"time":339.6425174999964,"velocity":0.7874015748031497,"duration":0.23313468749995536},{"name":"E3","midi":52,"time":339.7615649999964,"velocity":0.7874015748031497,"duration":0.23313468749995536},{"name":"A3","midi":57,"time":339.88061249999635,"velocity":0.7874015748031497,"duration":0.23313468749995536},{"name":"C3","midi":48,"time":339.9996599999963,"velocity":0.7874015748031497,"duration":0.23313468749995536},{"name":"G3","midi":55,"time":340.1187074999963,"velocity":0.7874015748031497,"duration":0.23313468749995536},{"name":"E3","midi":52,"time":340.23775499999624,"velocity":0.7874015748031497,"duration":0.23313468749995536},{"name":"A3","midi":57,"time":340.3568024999962,"velocity":0.7874015748031497,"duration":0.23313468749995536},{"name":"C3","midi":48,"time":340.47584999999617,"velocity":0.7874015748031497,"duration":0.23313468749995536},{"name":"G3","midi":55,"time":340.59489749999614,"velocity":0.7874015748031497,"duration":0.23313468749995536},{"name":"E3","midi":52,"time":340.7139449999961,"velocity":0.7874015748031497,"duration":0.23313468749995536},{"name":"A3","midi":57,"time":340.83299249999607,"velocity":0.7874015748031497,"duration":0.11408718749999025},{"name":"F#3","midi":54,"time":340.95203999999603,"velocity":0.7874015748031497,"duration":0.2331346875000122},{"name":"A#3","midi":58,"time":341.190134999996,"velocity":0.7874015748031497,"duration":0.2331346875000122},{"name":"C#4","midi":61,"time":341.190134999996,"velocity":0.7874015748031497,"duration":0.2331346875000122},{"name":"C#3","midi":49,"time":341.30918249999604,"velocity":0.7874015748031497,"duration":0.2331346875000122},{"name":"A#3","midi":58,"time":341.66632499999605,"velocity":0.7874015748031497,"duration":0.2331346875000122},{"name":"C#4","midi":61,"time":341.66632499999605,"velocity":0.7874015748031497,"duration":0.2331346875000122},{"name":"B2","midi":47,"time":341.90441999999604,"velocity":0.7874015748031497,"duration":0.2331346875000122},{"name":"B3","midi":59,"time":342.142514999996,"velocity":0.7874015748031497,"duration":0.2331346875000122},{"name":"D#4","midi":63,"time":342.142514999996,"velocity":0.7874015748031497,"duration":0.2331346875000122},{"name":"F#3","midi":54,"time":342.26156249999605,"velocity":0.7874015748031497,"duration":0.2331346875000122},{"name":"B3","midi":59,"time":342.61870499999605,"velocity":0.7874015748031497,"duration":0.2331346875000122},{"name":"D#4","midi":63,"time":342.61870499999605,"velocity":0.7874015748031497,"duration":0.2331346875000122},{"name":"F3","midi":53,"time":342.85679999999604,"velocity":0.7874015748031497,"duration":0.2331346875000122},{"name":"A3","midi":57,"time":343.09489499999603,"velocity":0.7874015748031497,"duration":0.2331346875000122},{"name":"C4","midi":60,"time":343.09489499999603,"velocity":0.7874015748031497,"duration":0.2331346875000122},{"name":"C3","midi":48,"time":343.21394249999605,"velocity":0.7874015748031497,"duration":0.2331346875000122},{"name":"A3","midi":57,"time":343.57108499999606,"velocity":0.7874015748031497,"duration":0.2331346875000122},{"name":"C4","midi":60,"time":343.57108499999606,"velocity":0.7874015748031497,"duration":0.2331346875000122},{"name":"A#2","midi":46,"time":343.80917999999605,"velocity":0.7874015748031497,"duration":0.2331346875000122},{"name":"A#3","midi":58,"time":344.04727499999603,"velocity":0.7874015748031497,"duration":0.2331346875000122},{"name":"D4","midi":62,"time":344.04727499999603,"velocity":0.7874015748031497,"duration":0.2331346875000122},{"name":"F3","midi":53,"time":344.16632249999606,"velocity":0.7874015748031497,"duration":0.2331346875000122},{"name":"A#3","midi":58,"time":344.52346499999607,"velocity":0.7874015748031497,"duration":0.2331346875000122},{"name":"D4","midi":62,"time":344.52346499999607,"velocity":0.7874015748031497,"duration":0.2331346875000122},{"name":"D#3","midi":51,"time":344.76155999999605,"velocity":0.7874015748031497,"duration":0.2331346875000122},{"name":"G3","midi":55,"time":344.99965499999604,"velocity":0.7874015748031497,"duration":0.2331346875000122},{"name":"A#3","midi":58,"time":344.99965499999604,"velocity":0.7874015748031497,"duration":0.2331346875000122},{"name":"A#2","midi":46,"time":345.11870249999606,"velocity":0.7874015748031497,"duration":0.2331346875000122},{"name":"G3","midi":55,"time":345.47584499999607,"velocity":0.7874015748031497,"duration":0.2331346875000122},{"name":"A#3","midi":58,"time":345.47584499999607,"velocity":0.7874015748031497,"duration":0.2331346875000122},{"name":"G#2","midi":44,"time":345.71393999999606,"velocity":0.7874015748031497,"duration":0.2331346875000122},{"name":"G#3","midi":56,"time":345.95203499999604,"velocity":0.7874015748031497,"duration":0.2331346875000122},{"name":"C4","midi":60,"time":345.95203499999604,"velocity":0.7874015748031497,"duration":0.2331346875000122},{"name":"D#3","midi":51,"time":346.07108249999607,"velocity":0.7874015748031497,"duration":0.2331346875000122},{"name":"G#3","midi":56,"time":346.4282249999961,"velocity":0.7874015748031497,"duration":0.2331346875000122},{"name":"C4","midi":60,"time":346.4282249999961,"velocity":0.7874015748031497,"duration":0.2331346875000122},{"name":"G2","midi":43,"time":346.66631999999606,"velocity":0.7874015748031497,"duration":0.2331346875000122},{"name":"G3","midi":55,"time":346.90441499999605,"velocity":0.7874015748031497,"duration":0.2331346875000122},{"name":"B3","midi":59,"time":346.90441499999605,"velocity":0.7874015748031497,"duration":0.2331346875000122},{"name":"D3","midi":50,"time":347.02346249999607,"velocity":0.7874015748031497,"duration":0.2331346875000122},{"name":"G3","midi":55,"time":347.3806049999961,"velocity":0.7874015748031497,"duration":0.2331346875000122},{"name":"B3","midi":59,"time":347.3806049999961,"velocity":0.7874015748031497,"duration":0.2331346875000122},{"name":"G2","midi":43,"time":347.61869999999607,"velocity":0.7874015748031497,"duration":0.2331346875000122},{"name":"G3","midi":55,"time":347.85679499999605,"velocity":0.7874015748031497,"duration":0.2331346875000122},{"name":"B3","midi":59,"time":347.85679499999605,"velocity":0.7874015748031497,"duration":0.2331346875000122},{"name":"D3","midi":50,"time":347.9758424999961,"velocity":0.7874015748031497,"duration":0.2331346875000122},{"name":"G3","midi":55,"time":348.3329849999961,"velocity":0.7874015748031497,"duration":0.2331346875000122},{"name":"B3","midi":59,"time":348.3329849999961,"velocity":0.7874015748031497,"duration":0.2331346875000122},{"name":"C3","midi":48,"time":348.5710799999961,"velocity":0.7874015748031497,"duration":0.2331346875000122},{"name":"G3","midi":55,"time":348.80917499999606,"velocity":0.6771653543307087,"duration":0.2331346875000122},{"name":"C4","midi":60,"time":348.80917499999606,"velocity":0.6771653543307087,"duration":0.2331346875000122},{"name":"G2","midi":43,"time":348.9282224999961,"velocity":0.6220472440944882,"duration":0.2331346875000122},{"name":"G3","midi":55,"time":349.2853649999961,"velocity":0.4566929133858268,"duration":0.2331346875000122},{"name":"C4","midi":60,"time":349.2853649999961,"velocity":0.4566929133858268,"duration":0.2331346875000122},{"name":"C3","midi":48,"time":349.5234599999961,"velocity":0.3464566929133858,"duration":0.2331346875000122},{"name":"G3","midi":55,"time":349.76155499999606,"velocity":0.2283464566929134,"duration":0.2331346875000122},{"name":"C4","midi":60,"time":349.76155499999606,"velocity":0.2283464566929134,"duration":0.2331346875000122},{"name":"G2","midi":43,"time":349.8806024999961,"velocity":0.1732283464566929,"duration":0.2331346875000122},{"name":"G3","midi":55,"time":350.2377449999961,"velocity":0.007874015748031496,"duration":0.2331346875000122},{"name":"C4","midi":60,"time":350.2377449999961,"velocity":0.007874015748031496,"duration":0.2331346875000122}],"controlChanges":{"7":[{"number":7,"time":0,"value":0.8661417322834646},{"number":7,"time":232.38072000000003,"value":0.7874015748031497}],"10":[{"number":10,"time":0,"value":0.6929133858267716},{"number":10,"time":0,"value":0.6850393700787402},{"number":10,"time":232.38072000000003,"value":0.31496062992125984}],"91":[{"number":91,"time":0,"value":0.49606299212598426}],"93":[{"number":93,"time":0,"value":0.49606299212598426}]},"id":7,"name":"Bass Xylophone/Harp","instrumentNumber":46,"instrument":"orchestral harp","instrumentFamily":"strings","channelNumber":7,"isPercussion":false},{"startTime":0,"duration":118.09015968750091,"length":940,"notes":[{"name":"A#4","midi":70,"time":0,"velocity":0.5511811023622047,"duration":0.2331346875},{"name":"F#2","midi":42,"time":0.0148809375,"velocity":0.5511811023622047,"duration":0.029761875000000004},{"name":"A#4","midi":70,"time":0.238095,"velocity":0.5511811023622047,"duration":0.2331346875},{"name":"A#4","midi":70,"time":0.47619,"velocity":0.5511811023622047,"duration":0.2331346875},{"name":"F#2","midi":42,"time":0.4910709375,"velocity":0.5511811023622047,"duration":0.029761874999999993},{"name":"A#4","midi":70,"time":0.714285,"velocity":0.5511811023622047,"duration":0.2331346875},{"name":"A#4","midi":70,"time":0.9523799999999999,"velocity":0.5511811023622047,"duration":0.23313468749999988},{"name":"F#2","midi":42,"time":0.9672609374999999,"velocity":0.5511811023622047,"duration":0.029761874999999938},{"name":"A#4","midi":70,"time":1.1904749999999997,"velocity":0.5511811023622047,"duration":0.2331346875},{"name":"A#4","midi":70,"time":1.4285699999999997,"velocity":0.5511811023622047,"duration":0.2331346875},{"name":"F#2","midi":42,"time":1.4434509374999998,"velocity":0.5511811023622047,"duration":0.029761874999999938},{"name":"A#4","midi":70,"time":1.6666649999999996,"velocity":0.5511811023622047,"duration":0.2331346875},{"name":"A#4","midi":70,"time":1.9047599999999996,"velocity":0.5511811023622047,"duration":0.23313468750000022},{"name":"F#2","midi":42,"time":1.9196409374999996,"velocity":0.5511811023622047,"duration":0.029761874999999938},{"name":"A#4","midi":70,"time":2.142855,"velocity":0.5511811023622047,"duration":0.23313468749999977},{"name":"A#4","midi":70,"time":2.38095,"velocity":0.5511811023622047,"duration":0.23313468749999977},{"name":"F#2","midi":42,"time":2.3958309374999995,"velocity":0.5511811023622047,"duration":0.02976187500000016},{"name":"A#4","midi":70,"time":2.619045,"velocity":0.5511811023622047,"duration":0.23313468749999977},{"name":"A#4","midi":70,"time":2.85714,"velocity":0.5511811023622047,"duration":0.23313468749999977},{"name":"F#2","midi":42,"time":2.8720209374999994,"velocity":0.5511811023622047,"duration":0.02976187500000016},{"name":"A#4","midi":70,"time":3.0952349999999997,"velocity":0.5511811023622047,"duration":0.23313468749999977},{"name":"A#4","midi":70,"time":3.3333299999999997,"velocity":0.5511811023622047,"duration":0.23313468749999977},{"name":"F#2","midi":42,"time":3.3482109374999993,"velocity":0.5511811023622047,"duration":0.02976187500000016},{"name":"A#4","midi":70,"time":3.5714249999999996,"velocity":0.5511811023622047,"duration":0.23313468749999977},{"name":"A#4","midi":70,"time":3.8095199999999996,"velocity":0.5511811023622047,"duration":0.23313468750000022},{"name":"F#2","midi":42,"time":3.824400937499999,"velocity":0.5511811023622047,"duration":0.02976187500000016},{"name":"A#4","midi":70,"time":4.0476149999999995,"velocity":0.5511811023622047,"duration":0.23313468749999977},{"name":"A#4","midi":70,"time":4.285709999999999,"velocity":0.5511811023622047,"duration":0.23313468750000066},{"name":"F#2","midi":42,"time":4.300590937499999,"velocity":0.5511811023622047,"duration":0.02976187500000016},{"name":"A#4","midi":70,"time":4.523804999999999,"velocity":0.5511811023622047,"duration":0.23313468749999977},{"name":"A#4","midi":70,"time":4.761899999999999,"velocity":0.5511811023622047,"duration":0.23313468750000066},{"name":"F#2","midi":42,"time":4.776780937499999,"velocity":0.5511811023622047,"duration":0.02976187500000016},{"name":"A#4","midi":70,"time":4.999994999999999,"velocity":0.5511811023622047,"duration":0.23313468749999977},{"name":"A#4","midi":70,"time":5.238089999999999,"velocity":0.5511811023622047,"duration":0.23313468750000066},{"name":"F#2","midi":42,"time":5.252970937499999,"velocity":0.5511811023622047,"duration":0.02976187500000016},{"name":"A#4","midi":70,"time":5.476184999999999,"velocity":0.5511811023622047,"duration":0.23313468749999977},{"name":"A#4","midi":70,"time":5.714279999999999,"velocity":0.5511811023622047,"duration":0.23313468750000066},{"name":"F#2","midi":42,"time":5.729160937499999,"velocity":0.5511811023622047,"duration":0.02976187500000016},{"name":"A#4","midi":70,"time":5.952374999999999,"velocity":0.5511811023622047,"duration":0.23313468749999977},{"name":"A#4","midi":70,"time":6.190469999999999,"velocity":0.5511811023622047,"duration":0.23313468750000066},{"name":"F#2","midi":42,"time":6.205350937499999,"velocity":0.5511811023622047,"duration":0.02976187500000016},{"name":"A#4","midi":70,"time":6.428564999999999,"velocity":0.5511811023622047,"duration":0.23313468749999977},{"name":"A#4","midi":70,"time":6.6666599999999985,"velocity":0.5511811023622047,"duration":0.23313468750000066},{"name":"F#2","midi":42,"time":6.6815409374999986,"velocity":0.5511811023622047,"duration":0.02976187500000016},{"name":"A#4","midi":70,"time":6.904754999999999,"velocity":0.5511811023622047,"duration":0.23313468749999977},{"name":"A#4","midi":70,"time":7.142849999999998,"velocity":0.5511811023622047,"duration":0.23313468750000066},{"name":"F#2","midi":42,"time":7.1577309374999984,"velocity":0.5511811023622047,"duration":0.02976187500000016},{"name":"A#4","midi":70,"time":7.380944999999999,"velocity":0.5511811023622047,"duration":0.23313468749999977},{"name":"A#4","midi":70,"time":7.619039999999998,"velocity":0.5511811023622047,"duration":0.23313468750000066},{"name":"F#2","midi":42,"time":7.633920937499998,"velocity":0.5511811023622047,"duration":0.02976187500000016},{"name":"A#4","midi":70,"time":7.857134999999999,"velocity":0.5511811023622047,"duration":0.23313468750000066},{"name":"A#4","midi":70,"time":8.095229999999999,"velocity":0.5511811023622047,"duration":0.23313468750000155},{"name":"F#2","midi":42,"time":8.1101109375,"velocity":0.5511811023622047,"duration":0.02976187500000016},{"name":"A#4","midi":70,"time":8.333325,"velocity":0.5511811023622047,"duration":0.23313468749999977},{"name":"A#4","midi":70,"time":8.57142,"velocity":0.5511811023622047,"duration":0.23313468750000155},{"name":"F#2","midi":42,"time":8.5863009375,"velocity":0.5511811023622047,"duration":0.02976187500000016},{"name":"A#4","midi":70,"time":8.809515000000001,"velocity":0.5511811023622047,"duration":0.23313468749999977},{"name":"A#4","midi":70,"time":9.04761,"velocity":0.5511811023622047,"duration":0.23313468750000155},{"name":"F#2","midi":42,"time":9.062490937500002,"velocity":0.5511811023622047,"duration":0.02976187500000016},{"name":"A#4","midi":70,"time":9.285705000000002,"velocity":0.5511811023622047,"duration":0.23313468749999977},{"name":"A#4","midi":70,"time":9.523800000000001,"velocity":0.5511811023622047,"duration":0.23313468750000155},{"name":"F#2","midi":42,"time":9.538680937500002,"velocity":0.5511811023622047,"duration":0.02976187500000016},{"name":"A#4","midi":70,"time":9.761895000000003,"velocity":0.5511811023622047,"duration":0.23313468749999977},{"name":"A#4","midi":70,"time":9.999990000000002,"velocity":0.5511811023622047,"duration":0.23313468750000155},{"name":"F#2","midi":42,"time":10.014870937500003,"velocity":0.5511811023622047,"duration":0.02976187500000016},{"name":"A#4","midi":70,"time":10.238085000000003,"velocity":0.5511811023622047,"duration":0.23313468749999977},{"name":"A#4","midi":70,"time":10.476180000000003,"velocity":0.5511811023622047,"duration":0.23313468750000155},{"name":"F#2","midi":42,"time":10.491060937500004,"velocity":0.5511811023622047,"duration":0.02976187500000016},{"name":"A#4","midi":70,"time":10.714275000000004,"velocity":0.5511811023622047,"duration":0.23313468749999977},{"name":"A#4","midi":70,"time":10.952370000000004,"velocity":0.5511811023622047,"duration":0.23313468750000155},{"name":"F#2","midi":42,"time":10.967250937500005,"velocity":0.5511811023622047,"duration":0.02976187500000016},{"name":"A#4","midi":70,"time":11.190465000000005,"velocity":0.5511811023622047,"duration":0.23313468749999977},{"name":"A#4","midi":70,"time":11.428560000000004,"velocity":0.5511811023622047,"duration":0.23313468750000155},{"name":"F#2","midi":42,"time":11.443440937500005,"velocity":0.5511811023622047,"duration":0.02976187500000016},{"name":"A#4","midi":70,"time":11.666655000000006,"velocity":0.5511811023622047,"duration":0.23313468749999977},{"name":"A#4","midi":70,"time":11.904750000000005,"velocity":0.5511811023622047,"duration":0.23313468750000155},{"name":"F#2","midi":42,"time":11.919630937500006,"velocity":0.5511811023622047,"duration":0.02976187500000016},{"name":"A#4","midi":70,"time":12.142845000000007,"velocity":0.5511811023622047,"duration":0.23313468749999977},{"name":"A#4","midi":70,"time":12.380940000000006,"velocity":0.5511811023622047,"duration":0.23313468750000155},{"name":"F#2","midi":42,"time":12.395820937500007,"velocity":0.5511811023622047,"duration":0.02976187500000016},{"name":"A#4","midi":70,"time":12.619035000000007,"velocity":0.5511811023622047,"duration":0.23313468749999977},{"name":"A#4","midi":70,"time":12.857130000000007,"velocity":0.5511811023622047,"duration":0.23313468750000155},{"name":"F#2","midi":42,"time":12.872010937500008,"velocity":0.5511811023622047,"duration":0.02976187500000016},{"name":"A#4","midi":70,"time":13.095225000000008,"velocity":0.5511811023622047,"duration":0.23313468749999977},{"name":"A#4","midi":70,"time":13.333320000000008,"velocity":0.5511811023622047,"duration":0.23313468750000155},{"name":"F#2","midi":42,"time":13.348200937500009,"velocity":0.5511811023622047,"duration":0.02976187500000016},{"name":"A#4","midi":70,"time":13.571415000000009,"velocity":0.5511811023622047,"duration":0.23313468749999977},{"name":"A#4","midi":70,"time":13.809510000000008,"velocity":0.5511811023622047,"duration":0.23313468750000155},{"name":"F#2","midi":42,"time":13.82439093750001,"velocity":0.5511811023622047,"duration":0.02976187500000016},{"name":"A#4","midi":70,"time":14.04760500000001,"velocity":0.5511811023622047,"duration":0.23313468749999977},{"name":"A#4","midi":70,"time":14.28570000000001,"velocity":0.5511811023622047,"duration":0.23313468750000155},{"name":"F#2","midi":42,"time":14.30058093750001,"velocity":0.5511811023622047,"duration":0.02976187500000016},{"name":"A#4","midi":70,"time":14.52379500000001,"velocity":0.5511811023622047,"duration":0.23313468749999977},{"name":"A#4","midi":70,"time":14.76189000000001,"velocity":0.5511811023622047,"duration":0.23313468750000155},{"name":"F#2","midi":42,"time":14.776770937500011,"velocity":0.5511811023622047,"duration":0.02976187500000016},{"name":"A#4","midi":70,"time":14.999985000000011,"velocity":0.5511811023622047,"duration":0.23313468749999977},{"name":"A#4","midi":70,"time":15.23808000000001,"velocity":0.5511811023622047,"duration":0.23313468750000155},{"name":"F#2","midi":42,"time":15.252960937500012,"velocity":0.5511811023622047,"duration":0.02976187500000016},{"name":"A#4","midi":70,"time":15.476175000000012,"velocity":0.5511811023622047,"duration":0.23313468749999977},{"name":"A#4","midi":70,"time":15.714270000000012,"velocity":0.5511811023622047,"duration":0.23313468750000155},{"name":"F#2","midi":42,"time":15.729150937500012,"velocity":0.5511811023622047,"duration":0.02976187500000016},{"name":"A#4","midi":70,"time":15.952365000000013,"velocity":0.5511811023622047,"duration":0.23313468749999977},{"name":"A#4","midi":70,"time":16.190460000000012,"velocity":0.5511811023622047,"duration":0.233134687499998},{"name":"F#2","midi":42,"time":16.20534093750001,"velocity":0.5511811023622047,"duration":0.029761874999998383},{"name":"A#4","midi":70,"time":16.42855500000001,"velocity":0.5511811023622047,"duration":0.23313468750000155},{"name":"A#4","midi":70,"time":16.66665000000001,"velocity":0.5511811023622047,"duration":0.233134687499998},{"name":"F#2","midi":42,"time":16.68153093750001,"velocity":0.5511811023622047,"duration":0.029761874999998383},{"name":"A#4","midi":70,"time":16.90474500000001,"velocity":0.5511811023622047,"duration":0.23313468750000155},{"name":"A#4","midi":70,"time":17.14284000000001,"velocity":0.5511811023622047,"duration":0.233134687499998},{"name":"F#2","midi":42,"time":17.15772093750001,"velocity":0.5511811023622047,"duration":0.029761874999998383},{"name":"A#4","midi":70,"time":17.380935000000008,"velocity":0.5511811023622047,"duration":0.23313468750000155},{"name":"A#4","midi":70,"time":17.61903000000001,"velocity":0.5511811023622047,"duration":0.233134687499998},{"name":"F#2","midi":42,"time":17.63391093750001,"velocity":0.5511811023622047,"duration":0.029761874999998383},{"name":"A#4","midi":70,"time":17.857125000000007,"velocity":0.5511811023622047,"duration":0.23313468750000155},{"name":"A#4","midi":70,"time":18.09522000000001,"velocity":0.5511811023622047,"duration":0.233134687499998},{"name":"F#2","midi":42,"time":18.110100937500007,"velocity":0.5511811023622047,"duration":0.029761874999998383},{"name":"A#4","midi":70,"time":18.333315000000006,"velocity":0.5511811023622047,"duration":0.23313468750000155},{"name":"A#4","midi":70,"time":18.571410000000007,"velocity":0.5511811023622047,"duration":0.233134687499998},{"name":"F#2","midi":42,"time":18.586290937500006,"velocity":0.5511811023622047,"duration":0.029761874999998383},{"name":"A#4","midi":70,"time":18.809505000000005,"velocity":0.5511811023622047,"duration":0.23313468750000155},{"name":"A#4","midi":70,"time":19.047600000000006,"velocity":0.5511811023622047,"duration":0.233134687499998},{"name":"F#2","midi":42,"time":19.062480937500005,"velocity":0.5511811023622047,"duration":0.029761874999998383},{"name":"A#4","midi":70,"time":19.285695000000004,"velocity":0.5511811023622047,"duration":0.23313468750000155},{"name":"A#4","midi":70,"time":19.523790000000005,"velocity":0.5511811023622047,"duration":0.233134687499998},{"name":"F#2","midi":42,"time":19.538670937500004,"velocity":0.5511811023622047,"duration":0.029761874999998383},{"name":"A#4","midi":70,"time":19.761885000000003,"velocity":0.5511811023622047,"duration":0.23313468750000155},{"name":"A#4","midi":70,"time":19.999980000000004,"velocity":0.5511811023622047,"duration":0.233134687499998},{"name":"F#2","midi":42,"time":20.014860937500004,"velocity":0.5511811023622047,"duration":0.029761874999998383},{"name":"A#4","midi":70,"time":20.238075000000002,"velocity":0.5511811023622047,"duration":0.23313468750000155},{"name":"A#4","midi":70,"time":20.476170000000003,"velocity":0.5511811023622047,"duration":0.233134687499998},{"name":"F#2","midi":42,"time":20.491050937500003,"velocity":0.5511811023622047,"duration":0.029761874999998383},{"name":"A#4","midi":70,"time":20.714265,"velocity":0.5511811023622047,"duration":0.23313468750000155},{"name":"A#4","midi":70,"time":20.952360000000002,"velocity":0.5511811023622047,"duration":0.233134687499998},{"name":"F#2","midi":42,"time":20.9672409375,"velocity":0.5511811023622047,"duration":0.029761874999998383},{"name":"A#4","midi":70,"time":21.190455,"velocity":0.5511811023622047,"duration":0.23313468750000155},{"name":"A#4","midi":70,"time":21.42855,"velocity":0.5511811023622047,"duration":0.233134687499998},{"name":"F#2","midi":42,"time":21.4434309375,"velocity":0.5511811023622047,"duration":0.029761874999998383},{"name":"A#4","midi":70,"time":21.666645,"velocity":0.5511811023622047,"duration":0.23313468750000155},{"name":"A#4","midi":70,"time":21.90474,"velocity":0.5511811023622047,"duration":0.233134687499998},{"name":"F#2","midi":42,"time":21.9196209375,"velocity":0.5511811023622047,"duration":0.029761874999998383},{"name":"A#4","midi":70,"time":22.142834999999998,"velocity":0.5511811023622047,"duration":0.23313468750000155},{"name":"A#4","midi":70,"time":22.38093,"velocity":0.5511811023622047,"duration":0.233134687499998},{"name":"F#2","midi":42,"time":22.3958109375,"velocity":0.5511811023622047,"duration":0.029761874999998383},{"name":"A#4","midi":70,"time":22.619024999999997,"velocity":0.5511811023622047,"duration":0.23313468750000155},{"name":"A#4","midi":70,"time":22.85712,"velocity":0.5511811023622047,"duration":0.233134687499998},{"name":"F#2","midi":42,"time":22.872000937499998,"velocity":0.5511811023622047,"duration":0.029761874999998383},{"name":"A#4","midi":70,"time":23.095214999999996,"velocity":0.5511811023622047,"duration":0.23313468750000155},{"name":"A#4","midi":70,"time":23.333309999999997,"velocity":0.5511811023622047,"duration":0.233134687499998},{"name":"F#2","midi":42,"time":23.348190937499997,"velocity":0.5511811023622047,"duration":0.029761874999998383},{"name":"A#4","midi":70,"time":23.571404999999995,"velocity":0.5511811023622047,"duration":0.23313468750000155},{"name":"A#4","midi":70,"time":23.809499999999996,"velocity":0.5511811023622047,"duration":0.233134687499998},{"name":"F#2","midi":42,"time":23.824380937499996,"velocity":0.5511811023622047,"duration":0.029761874999998383},{"name":"A#4","midi":70,"time":24.047594999999994,"velocity":0.5511811023622047,"duration":0.23313468750000155},{"name":"A#4","midi":70,"time":24.285689999999995,"velocity":0.5511811023622047,"duration":0.233134687499998},{"name":"F#2","midi":42,"time":24.300570937499995,"velocity":0.5511811023622047,"duration":0.029761874999998383},{"name":"A#4","midi":70,"time":24.523784999999993,"velocity":0.5511811023622047,"duration":0.23313468750000155},{"name":"A#4","midi":70,"time":24.761879999999994,"velocity":0.5511811023622047,"duration":0.233134687499998},{"name":"B1","midi":35,"time":24.761879999999994,"velocity":0.7874015748031497,"duration":0.233134687499998},{"name":"F#2","midi":42,"time":24.776760937499994,"velocity":0.5511811023622047,"duration":0.029761874999998383},{"name":"A#4","midi":70,"time":24.999974999999992,"velocity":0.5511811023622047,"duration":0.23313468750000155},{"name":"A#4","midi":70,"time":25.238069999999993,"velocity":0.5511811023622047,"duration":0.233134687499998},{"name":"D2","midi":38,"time":25.238069999999993,"velocity":0.7874015748031497,"duration":0.233134687499998},{"name":"F#2","midi":42,"time":25.252950937499993,"velocity":0.5511811023622047,"duration":0.029761874999998383},{"name":"A#4","midi":70,"time":25.47616499999999,"velocity":0.5511811023622047,"duration":0.23313468750000155},{"name":"A#4","midi":70,"time":25.714259999999992,"velocity":0.5511811023622047,"duration":0.233134687499998},{"name":"B1","midi":35,"time":25.714259999999992,"velocity":0.7874015748031497,"duration":0.233134687499998},{"name":"F#2","midi":42,"time":25.72914093749999,"velocity":0.5511811023622047,"duration":0.029761874999998383},{"name":"A#4","midi":70,"time":25.95235499999999,"velocity":0.5511811023622047,"duration":0.23313468750000155},{"name":"A#4","midi":70,"time":26.19044999999999,"velocity":0.5511811023622047,"duration":0.233134687499998},{"name":"D2","midi":38,"time":26.19044999999999,"velocity":0.7874015748031497,"duration":0.233134687499998},{"name":"F#2","midi":42,"time":26.20533093749999,"velocity":0.5511811023622047,"duration":0.029761874999998383},{"name":"A#4","midi":70,"time":26.42854499999999,"velocity":0.5511811023622047,"duration":0.23313468750000155},{"name":"A#4","midi":70,"time":26.66663999999999,"velocity":0.5511811023622047,"duration":0.233134687499998},{"name":"B1","midi":35,"time":26.66663999999999,"velocity":0.7874015748031497,"duration":0.233134687499998},{"name":"F#2","midi":42,"time":26.68152093749999,"velocity":0.5511811023622047,"duration":0.029761874999998383},{"name":"A#4","midi":70,"time":26.904734999999988,"velocity":0.5511811023622047,"duration":0.23313468750000155},{"name":"D2","midi":38,"time":27.14282999999999,"velocity":0.7874015748031497,"duration":0.233134687499998},{"name":"A#4","midi":70,"time":27.14282999999999,"velocity":0.5511811023622047,"duration":0.233134687499998},{"name":"F#2","midi":42,"time":27.15771093749999,"velocity":0.5511811023622047,"duration":0.029761874999998383},{"name":"A#4","midi":70,"time":27.380924999999987,"velocity":0.5511811023622047,"duration":0.23313468750000155},{"name":"B1","midi":35,"time":27.61901999999999,"velocity":0.7874015748031497,"duration":0.233134687499998},{"name":"A#4","midi":70,"time":27.61901999999999,"velocity":0.5511811023622047,"duration":0.233134687499998},{"name":"F#2","midi":42,"time":27.633900937499988,"velocity":0.5511811023622047,"duration":0.029761874999998383},{"name":"A#4","midi":70,"time":27.857114999999986,"velocity":0.5511811023622047,"duration":0.23313468750000155},{"name":"A#4","midi":70,"time":28.095209999999987,"velocity":0.5511811023622047,"duration":0.233134687499998},{"name":"D2","midi":38,"time":28.095209999999987,"velocity":0.7874015748031497,"duration":0.233134687499998},{"name":"F#2","midi":42,"time":28.110090937499987,"velocity":0.5511811023622047,"duration":0.029761874999998383},{"name":"A#4","midi":70,"time":28.333304999999985,"velocity":0.5511811023622047,"duration":0.23313468750000155},{"name":"D2","midi":38,"time":28.452352499999986,"velocity":0.7874015748031497,"duration":0.11408718750000091},{"name":"B1","midi":35,"time":28.571399999999986,"velocity":0.7874015748031497,"duration":0.233134687499998},{"name":"A#4","midi":70,"time":28.571399999999986,"velocity":0.5511811023622047,"duration":0.233134687499998},{"name":"F#2","midi":42,"time":28.586280937499986,"velocity":0.5511811023622047,"duration":0.029761874999998383},{"name":"A#4","midi":70,"time":28.809494999999984,"velocity":0.5511811023622047,"duration":0.23313468750000155},{"name":"D2","midi":38,"time":29.047589999999985,"velocity":0.7874015748031497,"duration":0.233134687499998},{"name":"A#4","midi":70,"time":29.047589999999985,"velocity":0.5511811023622047,"duration":0.233134687499998},{"name":"F#2","midi":42,"time":29.062470937499985,"velocity":0.5511811023622047,"duration":0.029761874999998383},{"name":"A#4","midi":70,"time":29.285684999999983,"velocity":0.5511811023622047,"duration":0.23313468750000155},{"name":"B1","midi":35,"time":29.523779999999984,"velocity":0.7874015748031497,"duration":0.233134687499998},{"name":"A#4","midi":70,"time":29.523779999999984,"velocity":0.5511811023622047,"duration":0.233134687499998},{"name":"F#2","midi":42,"time":29.538660937499984,"velocity":0.5511811023622047,"duration":0.029761874999998383},{"name":"A#4","midi":70,"time":29.761874999999982,"velocity":0.5511811023622047,"duration":0.23313468750000155},{"name":"D2","midi":38,"time":29.999969999999983,"velocity":0.7874015748031497,"duration":0.233134687499998},{"name":"A#4","midi":70,"time":29.999969999999983,"velocity":0.5511811023622047,"duration":0.233134687499998},{"name":"F#2","midi":42,"time":30.014850937499983,"velocity":0.5511811023622047,"duration":0.029761874999998383},{"name":"A#4","midi":70,"time":30.23806499999998,"velocity":0.5511811023622047,"duration":0.23313468750000155},{"name":"B1","midi":35,"time":30.476159999999982,"velocity":0.7874015748031497,"duration":0.233134687499998},{"name":"A#4","midi":70,"time":30.476159999999982,"velocity":0.5511811023622047,"duration":0.233134687499998},{"name":"F#2","midi":42,"time":30.49104093749998,"velocity":0.5511811023622047,"duration":0.029761874999998383},{"name":"A#4","midi":70,"time":30.71425499999998,"velocity":0.5511811023622047,"duration":0.23313468750000155},{"name":"D2","midi":38,"time":30.95234999999998,"velocity":0.7874015748031497,"duration":0.233134687499998},{"name":"A#4","midi":70,"time":30.95234999999998,"velocity":0.5511811023622047,"duration":0.233134687499998},{"name":"F#2","midi":42,"time":30.96723093749998,"velocity":0.5511811023622047,"duration":0.029761874999998383},{"name":"A#4","midi":70,"time":31.19044499999998,"velocity":0.5511811023622047,"duration":0.23313468750000155},{"name":"B1","midi":35,"time":31.42853999999998,"velocity":0.7874015748031497,"duration":0.233134687499998},{"name":"A#4","midi":70,"time":31.42853999999998,"velocity":0.5511811023622047,"duration":0.233134687499998},{"name":"F#2","midi":42,"time":31.44342093749998,"velocity":0.5511811023622047,"duration":0.029761874999998383},{"name":"A#4","midi":70,"time":31.666634999999978,"velocity":0.5511811023622047,"duration":0.23313468750000155},{"name":"A#4","midi":70,"time":31.90472999999998,"velocity":0.5511811023622047,"duration":0.233134687499998},{"name":"D2","midi":38,"time":31.90472999999998,"velocity":0.7874015748031497,"duration":0.233134687499998},{"name":"F#2","midi":42,"time":31.91961093749998,"velocity":0.5511811023622047,"duration":0.029761874999998383},{"name":"B1","midi":35,"time":32.14282499999998,"velocity":0.7874015748031497,"duration":0.233134687499998},{"name":"A#4","midi":70,"time":32.14282499999998,"velocity":0.5511811023622047,"duration":0.233134687499998},{"name":"A#4","midi":70,"time":32.38091999999998,"velocity":0.5511811023622047,"duration":0.2331346875000051},{"name":"B1","midi":35,"time":32.38091999999998,"velocity":0.7874015748031497,"duration":0.2331346875000051},{"name":"F#2","midi":42,"time":32.395800937499985,"velocity":0.5511811023622047,"duration":0.02976187500000549},{"name":"A#4","midi":70,"time":32.61901499999999,"velocity":0.5511811023622047,"duration":0.233134687499998},{"name":"A#4","midi":70,"time":32.85710999999999,"velocity":0.5511811023622047,"duration":0.2331346875000051},{"name":"D2","midi":38,"time":32.85710999999999,"velocity":0.7874015748031497,"duration":0.2331346875000051},{"name":"F#2","midi":42,"time":32.871990937499994,"velocity":0.5511811023622047,"duration":0.02976187500000549},{"name":"A#4","midi":70,"time":33.095205,"velocity":0.5511811023622047,"duration":0.233134687499998},{"name":"B1","midi":35,"time":33.3333,"velocity":0.7874015748031497,"duration":0.2331346875000051},{"name":"A#4","midi":70,"time":33.3333,"velocity":0.5511811023622047,"duration":0.2331346875000051},{"name":"F#2","midi":42,"time":33.348180937500004,"velocity":0.5511811023622047,"duration":0.02976187500000549},{"name":"A#4","midi":70,"time":33.57139500000001,"velocity":0.5511811023622047,"duration":0.233134687499998},{"name":"A#4","midi":70,"time":33.80949000000001,"velocity":0.5511811023622047,"duration":0.2331346875000051},{"name":"D2","midi":38,"time":33.80949000000001,"velocity":0.7874015748031497,"duration":0.2331346875000051},{"name":"F#2","midi":42,"time":33.824370937500014,"velocity":0.5511811023622047,"duration":0.02976187500000549},{"name":"A#4","midi":70,"time":34.04758500000002,"velocity":0.5511811023622047,"duration":0.233134687499998},{"name":"A#4","midi":70,"time":34.28568000000002,"velocity":0.5511811023622047,"duration":0.2331346875000051},{"name":"B1","midi":35,"time":34.28568000000002,"velocity":0.7874015748031497,"duration":0.2331346875000051},{"name":"F#2","midi":42,"time":34.30056093750002,"velocity":0.5511811023622047,"duration":0.02976187500000549},{"name":"A#4","midi":70,"time":34.52377500000003,"velocity":0.5511811023622047,"duration":0.233134687499998},{"name":"D2","midi":38,"time":34.76187000000003,"velocity":0.7874015748031497,"duration":0.2331346875000051},{"name":"A#4","midi":70,"time":34.76187000000003,"velocity":0.5511811023622047,"duration":0.2331346875000051},{"name":"F#2","midi":42,"time":34.77675093750003,"velocity":0.5511811023622047,"duration":0.02976187500000549},{"name":"A#4","midi":70,"time":34.99996500000004,"velocity":0.5511811023622047,"duration":0.233134687499998},{"name":"A#4","midi":70,"time":35.23806000000004,"velocity":0.5511811023622047,"duration":0.2331346875000051},{"name":"B1","midi":35,"time":35.23806000000004,"velocity":0.7874015748031497,"duration":0.2331346875000051},{"name":"F#2","midi":42,"time":35.25294093750004,"velocity":0.5511811023622047,"duration":0.02976187500000549},{"name":"A#4","midi":70,"time":35.47615500000005,"velocity":0.5511811023622047,"duration":0.233134687499998},{"name":"D2","midi":38,"time":35.71425000000005,"velocity":0.7874015748031497,"duration":0.2331346875000051},{"name":"A#4","midi":70,"time":35.71425000000005,"velocity":0.5511811023622047,"duration":0.2331346875000051},{"name":"F#2","midi":42,"time":35.72913093750005,"velocity":0.5511811023622047,"duration":0.02976187500000549},{"name":"A#4","midi":70,"time":35.95234500000006,"velocity":0.5511811023622047,"duration":0.233134687499998},{"name":"D2","midi":38,"time":36.07139250000006,"velocity":0.7874015748031497,"duration":0.11408718749999736},{"name":"A#4","midi":70,"time":36.19044000000006,"velocity":0.5511811023622047,"duration":0.2331346875000051},{"name":"B1","midi":35,"time":36.19044000000006,"velocity":0.7874015748031497,"duration":0.2331346875000051},{"name":"F#2","midi":42,"time":36.20532093750006,"velocity":0.5511811023622047,"duration":0.02976187500000549},{"name":"A#4","midi":70,"time":36.42853500000007,"velocity":0.5511811023622047,"duration":0.233134687499998},{"name":"A#4","midi":70,"time":36.66663000000007,"velocity":0.5511811023622047,"duration":0.2331346875000051},{"name":"D2","midi":38,"time":36.66663000000007,"velocity":0.7874015748031497,"duration":0.2331346875000051},{"name":"F#2","midi":42,"time":36.68151093750007,"velocity":0.5511811023622047,"duration":0.02976187500000549},{"name":"A#4","midi":70,"time":36.90472500000008,"velocity":0.5511811023622047,"duration":0.233134687499998},{"name":"B1","midi":35,"time":37.14282000000008,"velocity":0.7874015748031497,"duration":0.2331346875000051},{"name":"A#4","midi":70,"time":37.14282000000008,"velocity":0.5511811023622047,"duration":0.2331346875000051},{"name":"F#2","midi":42,"time":37.15770093750008,"velocity":0.5511811023622047,"duration":0.02976187500000549},{"name":"A#4","midi":70,"time":37.38091500000009,"velocity":0.5511811023622047,"duration":0.233134687499998},{"name":"D2","midi":38,"time":37.61901000000009,"velocity":0.7874015748031497,"duration":0.2331346875000051},{"name":"A#4","midi":70,"time":37.61901000000009,"velocity":0.5511811023622047,"duration":0.2331346875000051},{"name":"F#2","midi":42,"time":37.63389093750009,"velocity":0.5511811023622047,"duration":0.02976187500000549},{"name":"A#4","midi":70,"time":37.8571050000001,"velocity":0.5511811023622047,"duration":0.233134687499998},{"name":"A#4","midi":70,"time":38.0952000000001,"velocity":0.5511811023622047,"duration":0.2331346875000051},{"name":"B1","midi":35,"time":38.0952000000001,"velocity":0.7874015748031497,"duration":0.2331346875000051},{"name":"F#2","midi":42,"time":38.1100809375001,"velocity":0.5511811023622047,"duration":0.02976187500000549},{"name":"A#4","midi":70,"time":38.333295000000106,"velocity":0.5511811023622047,"duration":0.233134687499998},{"name":"D2","midi":38,"time":38.57139000000011,"velocity":0.7874015748031497,"duration":0.2331346875000051},{"name":"A#4","midi":70,"time":38.57139000000011,"velocity":0.5511811023622047,"duration":0.2331346875000051},{"name":"F#2","midi":42,"time":38.58627093750011,"velocity":0.5511811023622047,"duration":0.02976187500000549},{"name":"A#4","midi":70,"time":38.809485000000116,"velocity":0.5511811023622047,"duration":0.233134687499998},{"name":"B1","midi":35,"time":39.04758000000012,"velocity":0.7874015748031497,"duration":0.2331346875000051},{"name":"A#4","midi":70,"time":39.04758000000012,"velocity":0.5511811023622047,"duration":0.2331346875000051},{"name":"F#2","midi":42,"time":39.06246093750012,"velocity":0.5511811023622047,"duration":0.02976187500000549},{"name":"A#4","midi":70,"time":39.285675000000126,"velocity":0.5511811023622047,"duration":0.233134687499998},{"name":"D2","midi":38,"time":39.52377000000013,"velocity":0.7874015748031497,"duration":0.2331346875000051},{"name":"A#4","midi":70,"time":39.52377000000013,"velocity":0.5511811023622047,"duration":0.2331346875000051},{"name":"F#2","midi":42,"time":39.53865093750013,"velocity":0.5511811023622047,"duration":0.02976187500000549},{"name":"B1","midi":35,"time":39.761865000000135,"velocity":0.7874015748031497,"duration":0.233134687499998},{"name":"A#4","midi":70,"time":39.761865000000135,"velocity":0.5511811023622047,"duration":0.233134687499998},{"name":"B1","midi":35,"time":39.99996000000014,"velocity":0.7874015748031497,"duration":0.2331346875000051},{"name":"A#4","midi":70,"time":39.99996000000014,"velocity":0.5511811023622047,"duration":0.2331346875000051},{"name":"F#2","midi":42,"time":40.01484093750014,"velocity":0.5511811023622047,"duration":0.02976187500000549},{"name":"A#4","midi":70,"time":40.238055000000145,"velocity":0.5511811023622047,"duration":0.233134687499998},{"name":"D2","midi":38,"time":40.476150000000146,"velocity":0.7874015748031497,"duration":0.2331346875000051},{"name":"A#4","midi":70,"time":40.476150000000146,"velocity":0.5511811023622047,"duration":0.2331346875000051},{"name":"F#2","midi":42,"time":40.49103093750015,"velocity":0.5511811023622047,"duration":0.02976187500000549},{"name":"A#4","midi":70,"time":40.714245000000155,"velocity":0.5511811023622047,"duration":0.233134687499998},{"name":"B1","midi":35,"time":40.952340000000156,"velocity":0.7874015748031497,"duration":0.2331346875000051},{"name":"A#4","midi":70,"time":40.952340000000156,"velocity":0.5511811023622047,"duration":0.2331346875000051},{"name":"F#2","midi":42,"time":40.96722093750016,"velocity":0.5511811023622047,"duration":0.02976187500000549},{"name":"A#4","midi":70,"time":41.190435000000164,"velocity":0.5511811023622047,"duration":0.233134687499998},{"name":"D2","midi":38,"time":41.428530000000166,"velocity":0.7874015748031497,"duration":0.2331346875000051},{"name":"A#4","midi":70,"time":41.428530000000166,"velocity":0.5511811023622047,"duration":0.2331346875000051},{"name":"F#2","midi":42,"time":41.44341093750017,"velocity":0.5511811023622047,"duration":0.02976187500000549},{"name":"A#4","midi":70,"time":41.666625000000174,"velocity":0.5511811023622047,"duration":0.233134687499998},{"name":"A#4","midi":70,"time":41.904720000000175,"velocity":0.5511811023622047,"duration":0.2331346875000051},{"name":"B1","midi":35,"time":41.904720000000175,"velocity":0.7874015748031497,"duration":0.2331346875000051},{"name":"F#2","midi":42,"time":41.91960093750018,"velocity":0.5511811023622047,"duration":0.02976187500000549},{"name":"A#4","midi":70,"time":42.14281500000018,"velocity":0.5511811023622047,"duration":0.233134687499998},{"name":"A#4","midi":70,"time":42.380910000000185,"velocity":0.5511811023622047,"duration":0.2331346875000051},{"name":"D2","midi":38,"time":42.380910000000185,"velocity":0.7874015748031497,"duration":0.2331346875000051},{"name":"F#2","midi":42,"time":42.39579093750019,"velocity":0.5511811023622047,"duration":0.02976187500000549},{"name":"A#4","midi":70,"time":42.61900500000019,"velocity":0.5511811023622047,"duration":0.233134687499998},{"name":"A#4","midi":70,"time":42.857100000000194,"velocity":0.5511811023622047,"duration":0.2331346875000051},{"name":"B1","midi":35,"time":42.857100000000194,"velocity":0.7874015748031497,"duration":0.2331346875000051},{"name":"F#2","midi":42,"time":42.8719809375002,"velocity":0.5511811023622047,"duration":0.02976187500000549},{"name":"A#4","midi":70,"time":43.0951950000002,"velocity":0.5511811023622047,"duration":0.233134687499998},{"name":"A#4","midi":70,"time":43.333290000000204,"velocity":0.5511811023622047,"duration":0.2331346875000051},{"name":"D2","midi":38,"time":43.333290000000204,"velocity":0.7874015748031497,"duration":0.2331346875000051},{"name":"F#2","midi":42,"time":43.34817093750021,"velocity":0.5511811023622047,"duration":0.02976187500000549},{"name":"A#4","midi":70,"time":43.57138500000021,"velocity":0.5511811023622047,"duration":0.233134687499998},{"name":"D2","midi":38,"time":43.69043250000021,"velocity":0.7874015748031497,"duration":0.11408718749999736},{"name":"A#4","midi":70,"time":43.809480000000214,"velocity":0.5511811023622047,"duration":0.2331346875000051},{"name":"B1","midi":35,"time":43.809480000000214,"velocity":0.7874015748031497,"duration":0.2331346875000051},{"name":"F#2","midi":42,"time":43.82436093750022,"velocity":0.5511811023622047,"duration":0.02976187500000549},{"name":"A#4","midi":70,"time":44.04757500000022,"velocity":0.5511811023622047,"duration":0.233134687499998},{"name":"A#4","midi":70,"time":44.28567000000022,"velocity":0.5511811023622047,"duration":0.2331346875000051},{"name":"D2","midi":38,"time":44.28567000000022,"velocity":0.7874015748031497,"duration":0.2331346875000051},{"name":"F#2","midi":42,"time":44.300550937500226,"velocity":0.5511811023622047,"duration":0.02976187500000549},{"name":"A#4","midi":70,"time":44.52376500000023,"velocity":0.5511811023622047,"duration":0.233134687499998},{"name":"B1","midi":35,"time":44.76186000000023,"velocity":0.7874015748031497,"duration":0.2331346875000051},{"name":"A#4","midi":70,"time":44.76186000000023,"velocity":0.5511811023622047,"duration":0.2331346875000051},{"name":"F#2","midi":42,"time":44.776740937500236,"velocity":0.5511811023622047,"duration":0.02976187500000549},{"name":"A#4","midi":70,"time":44.99995500000024,"velocity":0.5511811023622047,"duration":0.233134687499998},{"name":"D2","midi":38,"time":45.23805000000024,"velocity":0.7874015748031497,"duration":0.2331346875000051},{"name":"A#4","midi":70,"time":45.23805000000024,"velocity":0.5511811023622047,"duration":0.2331346875000051},{"name":"F#2","midi":42,"time":45.252930937500246,"velocity":0.5511811023622047,"duration":0.02976187500000549},{"name":"A#4","midi":70,"time":45.47614500000025,"velocity":0.5511811023622047,"duration":0.233134687499998},{"name":"A#4","midi":70,"time":45.71424000000025,"velocity":0.5511811023622047,"duration":0.2331346875000051},{"name":"B1","midi":35,"time":45.71424000000025,"velocity":0.7874015748031497,"duration":0.2331346875000051},{"name":"F#2","midi":42,"time":45.729120937500255,"velocity":0.5511811023622047,"duration":0.02976187500000549},{"name":"A#4","midi":70,"time":45.95233500000026,"velocity":0.5511811023622047,"duration":0.233134687499998},{"name":"D2","midi":38,"time":46.19043000000026,"velocity":0.7874015748031497,"duration":0.2331346875000051},{"name":"A#4","midi":70,"time":46.19043000000026,"velocity":0.5511811023622047,"duration":0.2331346875000051},{"name":"F#2","midi":42,"time":46.205310937500265,"velocity":0.5511811023622047,"duration":0.02976187500000549},{"name":"A#4","midi":70,"time":46.42852500000027,"velocity":0.5511811023622047,"duration":0.233134687499998},{"name":"A#4","midi":70,"time":46.66662000000027,"velocity":0.5511811023622047,"duration":0.2331346875000051},{"name":"B1","midi":35,"time":46.66662000000027,"velocity":0.7874015748031497,"duration":0.2331346875000051},{"name":"F#2","midi":42,"time":46.681500937500275,"velocity":0.5511811023622047,"duration":0.02976187500000549},{"name":"A#4","midi":70,"time":46.90471500000028,"velocity":0.5511811023622047,"duration":0.233134687499998},{"name":"A#4","midi":70,"time":47.14281000000028,"velocity":0.5511811023622047,"duration":0.2331346875000051},{"name":"D2","midi":38,"time":47.14281000000028,"velocity":0.7874015748031497,"duration":0.2331346875000051},{"name":"F#2","midi":42,"time":47.157690937500284,"velocity":0.5511811023622047,"duration":0.02976187500000549},{"name":"A#4","midi":70,"time":47.38090500000029,"velocity":0.5511811023622047,"duration":0.233134687499998},{"name":"B1","midi":35,"time":47.38090500000029,"velocity":0.7874015748031497,"duration":0.233134687499998},{"name":"A#4","midi":70,"time":47.61900000000029,"velocity":0.5511811023622047,"duration":0.2331346875000051},{"name":"B1","midi":35,"time":47.61900000000029,"velocity":0.7874015748031497,"duration":0.2331346875000051},{"name":"F#2","midi":42,"time":47.633880937500294,"velocity":0.5511811023622047,"duration":0.02976187500000549},{"name":"A#4","midi":70,"time":47.8570950000003,"velocity":0.5511811023622047,"duration":0.233134687499998},{"name":"D2","midi":38,"time":48.0951900000003,"velocity":0.7874015748031497,"duration":0.2331346875000051},{"name":"A#4","midi":70,"time":48.0951900000003,"velocity":0.5511811023622047,"duration":0.2331346875000051},{"name":"F#2","midi":42,"time":48.1100709375003,"velocity":0.5511811023622047,"duration":0.02976187500000549},{"name":"A#4","midi":70,"time":48.33328500000031,"velocity":0.5511811023622047,"duration":0.233134687499998},{"name":"A#4","midi":70,"time":48.57138000000031,"velocity":0.5511811023622047,"duration":0.2331346875000051},{"name":"B1","midi":35,"time":48.57138000000031,"velocity":0.7874015748031497,"duration":0.2331346875000051},{"name":"F#2","midi":42,"time":48.58626093750031,"velocity":0.5511811023622047,"duration":0.02976187500000549},{"name":"A#4","midi":70,"time":48.80947500000032,"velocity":0.5511811023622047,"duration":0.233134687499998},{"name":"D2","midi":38,"time":49.04757000000032,"velocity":0.7874015748031497,"duration":0.2331346875000051},{"name":"A#4","midi":70,"time":49.04757000000032,"velocity":0.5511811023622047,"duration":0.2331346875000051},{"name":"F#2","midi":42,"time":49.06245093750032,"velocity":0.5511811023622047,"duration":0.02976187500000549},{"name":"A#4","midi":70,"time":49.28566500000033,"velocity":0.5511811023622047,"duration":0.233134687499998},{"name":"B1","midi":35,"time":49.52376000000033,"velocity":0.7874015748031497,"duration":0.2331346875000051},{"name":"A#4","midi":70,"time":49.52376000000033,"velocity":0.5511811023622047,"duration":0.2331346875000051},{"name":"F#2","midi":42,"time":49.53864093750033,"velocity":0.5511811023622047,"duration":0.02976187500000549},{"name":"A#4","midi":70,"time":49.76185500000034,"velocity":0.5511811023622047,"duration":0.233134687499998},{"name":"A#4","midi":70,"time":49.99995000000034,"velocity":0.5511811023622047,"duration":0.2331346875000051},{"name":"D2","midi":38,"time":49.99995000000034,"velocity":0.7874015748031497,"duration":0.2331346875000051},{"name":"F#2","midi":42,"time":50.01483093750034,"velocity":0.5511811023622047,"duration":0.02976187500000549},{"name":"A#4","midi":70,"time":50.23804500000035,"velocity":0.5511811023622047,"duration":0.233134687499998},{"name":"A#4","midi":70,"time":50.47614000000035,"velocity":0.5511811023622047,"duration":0.2331346875000051},{"name":"B1","midi":35,"time":50.47614000000035,"velocity":0.7874015748031497,"duration":0.2331346875000051},{"name":"F#2","midi":42,"time":50.49102093750035,"velocity":0.5511811023622047,"duration":0.02976187500000549},{"name":"A#4","midi":70,"time":50.71423500000036,"velocity":0.5511811023622047,"duration":0.233134687499998},{"name":"D2","midi":38,"time":50.95233000000036,"velocity":0.7874015748031497,"duration":0.2331346875000051},{"name":"A#4","midi":70,"time":50.95233000000036,"velocity":0.5511811023622047,"duration":0.2331346875000051},{"name":"F#2","midi":42,"time":50.96721093750036,"velocity":0.5511811023622047,"duration":0.02976187500000549},{"name":"A#4","midi":70,"time":51.19042500000037,"velocity":0.5511811023622047,"duration":0.233134687499998},{"name":"D2","midi":38,"time":51.30947250000037,"velocity":0.7874015748031497,"duration":0.11408718749999736},{"name":"B1","midi":35,"time":51.42852000000037,"velocity":0.7874015748031497,"duration":0.2331346875000051},{"name":"A#4","midi":70,"time":51.42852000000037,"velocity":0.5511811023622047,"duration":0.2331346875000051},{"name":"F#2","midi":42,"time":51.44340093750037,"velocity":0.5511811023622047,"duration":0.02976187500000549},{"name":"A#4","midi":70,"time":51.66661500000038,"velocity":0.5511811023622047,"duration":0.233134687499998},{"name":"A#4","midi":70,"time":51.90471000000038,"velocity":0.5511811023622047,"duration":0.2331346875000051},{"name":"D2","midi":38,"time":51.90471000000038,"velocity":0.7874015748031497,"duration":0.2331346875000051},{"name":"F#2","midi":42,"time":51.91959093750038,"velocity":0.5511811023622047,"duration":0.02976187500000549},{"name":"A#4","midi":70,"time":52.142805000000386,"velocity":0.5511811023622047,"duration":0.233134687499998},{"name":"A#4","midi":70,"time":52.38090000000039,"velocity":0.5511811023622047,"duration":0.2331346875000051},{"name":"B1","midi":35,"time":52.38090000000039,"velocity":0.7874015748031497,"duration":0.2331346875000051},{"name":"F#2","midi":42,"time":52.39578093750039,"velocity":0.5511811023622047,"duration":0.02976187500000549},{"name":"A#4","midi":70,"time":52.618995000000396,"velocity":0.5511811023622047,"duration":0.233134687499998},{"name":"D2","midi":38,"time":52.8570900000004,"velocity":0.7874015748031497,"duration":0.2331346875000051},{"name":"A#4","midi":70,"time":52.8570900000004,"velocity":0.5511811023622047,"duration":0.2331346875000051},{"name":"F#2","midi":42,"time":52.8719709375004,"velocity":0.5511811023622047,"duration":0.02976187500000549},{"name":"A#4","midi":70,"time":53.095185000000406,"velocity":0.5511811023622047,"duration":0.233134687499998},{"name":"B1","midi":35,"time":53.33328000000041,"velocity":0.7874015748031497,"duration":0.2331346875000051},{"name":"A#4","midi":70,"time":53.33328000000041,"velocity":0.5511811023622047,"duration":0.2331346875000051},{"name":"F#2","midi":42,"time":53.34816093750041,"velocity":0.5511811023622047,"duration":0.02976187500000549},{"name":"A#4","midi":70,"time":53.571375000000415,"velocity":0.5511811023622047,"duration":0.233134687499998},{"name":"A#4","midi":70,"time":53.80947000000042,"velocity":0.5511811023622047,"duration":0.2331346875000051},{"name":"D2","midi":38,"time":53.80947000000042,"velocity":0.7874015748031497,"duration":0.2331346875000051},{"name":"F#2","midi":42,"time":53.82435093750042,"velocity":0.5511811023622047,"duration":0.02976187500000549},{"name":"A#4","midi":70,"time":54.047565000000425,"velocity":0.5511811023622047,"duration":0.233134687499998},{"name":"A#4","midi":70,"time":54.285660000000426,"velocity":0.5511811023622047,"duration":0.2331346875000051},{"name":"B1","midi":35,"time":54.285660000000426,"velocity":0.7874015748031497,"duration":0.2331346875000051},{"name":"F#2","midi":42,"time":54.30054093750043,"velocity":0.5511811023622047,"duration":0.02976187500000549},{"name":"A#4","midi":70,"time":54.523755000000435,"velocity":0.5511811023622047,"duration":0.233134687499998},{"name":"D2","midi":38,"time":54.761850000000436,"velocity":0.7874015748031497,"duration":0.2331346875000051},{"name":"A#4","midi":70,"time":54.761850000000436,"velocity":0.5511811023622047,"duration":0.2331346875000051},{"name":"F#2","midi":42,"time":54.77673093750044,"velocity":0.5511811023622047,"duration":0.02976187500000549},{"name":"A#4","midi":70,"time":54.999945000000444,"velocity":0.5511811023622047,"duration":0.233134687499998},{"name":"B1","midi":35,"time":54.999945000000444,"velocity":0.7874015748031497,"duration":0.233134687499998},{"name":"A#4","midi":70,"time":55.238040000000446,"velocity":0.5511811023622047,"duration":0.2331346875000051},{"name":"B1","midi":35,"time":55.238040000000446,"velocity":0.7874015748031497,"duration":0.2331346875000051},{"name":"F#2","midi":42,"time":55.25292093750045,"velocity":0.5511811023622047,"duration":0.02976187500000549},{"name":"A#4","midi":70,"time":55.476135000000454,"velocity":0.5511811023622047,"duration":0.233134687499998},{"name":"A#4","midi":70,"time":55.714230000000455,"velocity":0.5511811023622047,"duration":0.2331346875000051},{"name":"D2","midi":38,"time":55.714230000000455,"velocity":0.7874015748031497,"duration":0.2331346875000051},{"name":"F#2","midi":42,"time":55.72911093750046,"velocity":0.5511811023622047,"duration":0.02976187500000549},{"name":"A#4","midi":70,"time":55.952325000000464,"velocity":0.5511811023622047,"duration":0.233134687499998},{"name":"A#4","midi":70,"time":56.190420000000465,"velocity":0.5511811023622047,"duration":0.2331346875000051},{"name":"B1","midi":35,"time":56.190420000000465,"velocity":0.7874015748031497,"duration":0.2331346875000051},{"name":"F#2","midi":42,"time":56.20530093750047,"velocity":0.5511811023622047,"duration":0.02976187500000549},{"name":"A#4","midi":70,"time":56.42851500000047,"velocity":0.5511811023622047,"duration":0.233134687499998},{"name":"A#4","midi":70,"time":56.666610000000475,"velocity":0.5511811023622047,"duration":0.2331346875000051},{"name":"D2","midi":38,"time":56.666610000000475,"velocity":0.7874015748031497,"duration":0.2331346875000051},{"name":"F#2","midi":42,"time":56.68149093750048,"velocity":0.5511811023622047,"duration":0.02976187500000549},{"name":"A#4","midi":70,"time":56.90470500000048,"velocity":0.5511811023622047,"duration":0.233134687499998},{"name":"B1","midi":35,"time":57.142800000000484,"velocity":0.7874015748031497,"duration":0.2331346875000051},{"name":"A#4","midi":70,"time":57.142800000000484,"velocity":0.5511811023622047,"duration":0.2331346875000051},{"name":"F#2","midi":42,"time":57.15768093750049,"velocity":0.5511811023622047,"duration":0.02976187500000549},{"name":"A#4","midi":70,"time":57.38089500000049,"velocity":0.5511811023622047,"duration":0.233134687499998},{"name":"A#4","midi":70,"time":57.618990000000494,"velocity":0.5511811023622047,"duration":0.2331346875000051},{"name":"D2","midi":38,"time":57.618990000000494,"velocity":0.7874015748031497,"duration":0.2331346875000051},{"name":"F#2","midi":42,"time":57.6338709375005,"velocity":0.5511811023622047,"duration":0.02976187500000549},{"name":"A#4","midi":70,"time":57.8570850000005,"velocity":0.5511811023622047,"duration":0.233134687499998},{"name":"A#4","midi":70,"time":58.095180000000504,"velocity":0.5511811023622047,"duration":0.2331346875000051},{"name":"B1","midi":35,"time":58.095180000000504,"velocity":0.7874015748031497,"duration":0.2331346875000051},{"name":"F#2","midi":42,"time":58.110060937500506,"velocity":0.5511811023622047,"duration":0.02976187500000549},{"name":"A#4","midi":70,"time":58.33327500000051,"velocity":0.5511811023622047,"duration":0.233134687499998},{"name":"D2","midi":38,"time":58.57137000000051,"velocity":0.7874015748031497,"duration":0.2331346875000051},{"name":"A#4","midi":70,"time":58.57137000000051,"velocity":0.5511811023622047,"duration":0.2331346875000051},{"name":"F#2","midi":42,"time":58.586250937500516,"velocity":0.5511811023622047,"duration":0.02976187500000549},{"name":"A#4","midi":70,"time":58.80946500000052,"velocity":0.5511811023622047,"duration":0.233134687499998},{"name":"D2","midi":38,"time":58.92851250000052,"velocity":0.7874015748031497,"duration":0.11408718749999736},{"name":"B1","midi":35,"time":59.04756000000052,"velocity":0.7874015748031497,"duration":0.2331346875000051},{"name":"A#4","midi":70,"time":59.04756000000052,"velocity":0.5511811023622047,"duration":0.2331346875000051},{"name":"F#2","midi":42,"time":59.062440937500526,"velocity":0.5511811023622047,"duration":0.02976187500000549},{"name":"A#4","midi":70,"time":59.28565500000053,"velocity":0.5511811023622047,"duration":0.233134687499998},{"name":"D2","midi":38,"time":59.52375000000053,"velocity":0.7874015748031497,"duration":0.2331346875000051},{"name":"A#4","midi":70,"time":59.52375000000053,"velocity":0.5511811023622047,"duration":0.2331346875000051},{"name":"F#2","midi":42,"time":59.538630937500535,"velocity":0.5511811023622047,"duration":0.02976187500000549},{"name":"A#4","midi":70,"time":59.76184500000054,"velocity":0.5511811023622047,"duration":0.233134687499998},{"name":"A#4","midi":70,"time":59.99994000000054,"velocity":0.5511811023622047,"duration":0.2331346875000051},{"name":"B1","midi":35,"time":59.99994000000054,"velocity":0.7874015748031497,"duration":0.2331346875000051},{"name":"F#2","midi":42,"time":60.014820937500545,"velocity":0.5511811023622047,"duration":0.02976187500000549},{"name":"A#4","midi":70,"time":60.23803500000055,"velocity":0.5511811023622047,"duration":0.233134687499998},{"name":"A#4","midi":70,"time":60.47613000000055,"velocity":0.5511811023622047,"duration":0.2331346875000051},{"name":"D2","midi":38,"time":60.47613000000055,"velocity":0.7874015748031497,"duration":0.2331346875000051},{"name":"F#2","midi":42,"time":60.491010937500555,"velocity":0.5511811023622047,"duration":0.02976187500000549},{"name":"A#4","midi":70,"time":60.71422500000056,"velocity":0.5511811023622047,"duration":0.233134687499998},{"name":"B1","midi":35,"time":60.95232000000056,"velocity":0.7874015748031497,"duration":0.2331346875000051},{"name":"A#4","midi":70,"time":60.95232000000056,"velocity":0.5511811023622047,"duration":0.2331346875000051},{"name":"F#2","midi":42,"time":60.967200937500564,"velocity":0.5511811023622047,"duration":0.02976187500000549},{"name":"A#4","midi":70,"time":61.19041500000057,"velocity":0.5511811023622047,"duration":0.233134687499998},{"name":"D2","midi":38,"time":61.42851000000057,"velocity":0.7874015748031497,"duration":0.2331346875000051},{"name":"A#4","midi":70,"time":61.42851000000057,"velocity":0.5511811023622047,"duration":0.2331346875000051},{"name":"F#2","midi":42,"time":61.443390937500574,"velocity":0.5511811023622047,"duration":0.02976187500000549},{"name":"A#4","midi":70,"time":61.66660500000058,"velocity":0.5511811023622047,"duration":0.233134687499998},{"name":"A#4","midi":70,"time":61.90470000000058,"velocity":0.5511811023622047,"duration":0.2331346875000051},{"name":"B1","midi":35,"time":61.90470000000058,"velocity":0.7874015748031497,"duration":0.2331346875000051},{"name":"F#2","midi":42,"time":61.919580937500584,"velocity":0.5511811023622047,"duration":0.02976187500000549},{"name":"A#4","midi":70,"time":62.14279500000059,"velocity":0.5511811023622047,"duration":0.233134687499998},{"name":"A#4","midi":70,"time":62.38089000000059,"velocity":0.5511811023622047,"duration":0.2331346875000051},{"name":"D2","midi":38,"time":62.38089000000059,"velocity":0.7874015748031497,"duration":0.2331346875000051},{"name":"F#2","midi":42,"time":62.39577093750059,"velocity":0.5511811023622047,"duration":0.02976187500000549},{"name":"A#4","midi":70,"time":62.6189850000006,"velocity":0.5511811023622047,"duration":0.233134687499998},{"name":"B1","midi":35,"time":62.6189850000006,"velocity":0.7874015748031497,"duration":0.233134687499998},{"name":"A#4","midi":70,"time":62.8570800000006,"velocity":0.5511811023622047,"duration":0.2331346875000051},{"name":"B1","midi":35,"time":62.8570800000006,"velocity":0.7874015748031497,"duration":0.2331346875000051},{"name":"F#2","midi":42,"time":62.8719609375006,"velocity":0.5511811023622047,"duration":0.02976187500000549},{"name":"A#4","midi":70,"time":63.09517500000061,"velocity":0.5511811023622047,"duration":0.233134687499998},{"name":"D2","midi":38,"time":63.33327000000061,"velocity":0.7874015748031497,"duration":0.2331346875000051},{"name":"A#4","midi":70,"time":63.33327000000061,"velocity":0.5511811023622047,"duration":0.2331346875000051},{"name":"F#2","midi":42,"time":63.34815093750061,"velocity":0.5511811023622047,"duration":0.02976187500000549},{"name":"A#4","midi":70,"time":63.57136500000062,"velocity":0.5511811023622047,"duration":0.233134687499998},{"name":"A#4","midi":70,"time":63.80946000000062,"velocity":0.5511811023622047,"duration":0.2331346875000051},{"name":"B1","midi":35,"time":63.80946000000062,"velocity":0.7874015748031497,"duration":0.2331346875000051},{"name":"F#2","midi":42,"time":63.82434093750062,"velocity":0.5511811023622047,"duration":0.02976187500000549},{"name":"A#4","midi":70,"time":64.04755500000063,"velocity":0.5511811023622047,"duration":0.233134687499998},{"name":"A#4","midi":70,"time":64.28565000000063,"velocity":0.5511811023622047,"duration":0.233134687499998},{"name":"D2","midi":38,"time":64.28565000000063,"velocity":0.7874015748031497,"duration":0.233134687499998},{"name":"F#2","midi":42,"time":64.30053093750062,"velocity":0.5511811023622047,"duration":0.02976187500000549},{"name":"A#4","midi":70,"time":64.52374500000063,"velocity":0.5511811023622047,"duration":0.233134687499998},{"name":"B1","midi":35,"time":64.76184000000063,"velocity":0.7874015748031497,"duration":0.233134687499998},{"name":"A#4","midi":70,"time":64.76184000000063,"velocity":0.5511811023622047,"duration":0.233134687499998},{"name":"F#2","midi":42,"time":64.77672093750063,"velocity":0.5511811023622047,"duration":0.02976187500000549},{"name":"A#4","midi":70,"time":64.99993500000063,"velocity":0.5511811023622047,"duration":0.233134687499998},{"name":"A#4","midi":70,"time":65.23803000000063,"velocity":0.5511811023622047,"duration":0.233134687499998},{"name":"D2","midi":38,"time":65.23803000000063,"velocity":0.7874015748031497,"duration":0.233134687499998},{"name":"F#2","midi":42,"time":65.25291093750063,"velocity":0.5511811023622047,"duration":0.02976187500000549},{"name":"A#4","midi":70,"time":65.47612500000064,"velocity":0.5511811023622047,"duration":0.233134687499998},{"name":"A#4","midi":70,"time":65.71422000000064,"velocity":0.5511811023622047,"duration":0.233134687499998},{"name":"B1","midi":35,"time":65.71422000000064,"velocity":0.7874015748031497,"duration":0.233134687499998},{"name":"F#2","midi":42,"time":65.72910093750063,"velocity":0.5511811023622047,"duration":0.02976187500000549},{"name":"A#4","midi":70,"time":65.95231500000064,"velocity":0.5511811023622047,"duration":0.233134687499998},{"name":"D2","midi":38,"time":66.19041000000064,"velocity":0.7874015748031497,"duration":0.233134687499998},{"name":"A#4","midi":70,"time":66.19041000000064,"velocity":0.5511811023622047,"duration":0.233134687499998},{"name":"F#2","midi":42,"time":66.20529093750064,"velocity":0.5511811023622047,"duration":0.02976187500000549},{"name":"A#4","midi":70,"time":66.42850500000064,"velocity":0.5511811023622047,"duration":0.233134687499998},{"name":"D2","midi":38,"time":66.54755250000063,"velocity":0.7874015748031497,"duration":0.11408718750000446},{"name":"B1","midi":35,"time":66.66660000000064,"velocity":0.7874015748031497,"duration":0.233134687499998},{"name":"A#4","midi":70,"time":66.66660000000064,"velocity":0.5511811023622047,"duration":0.233134687499998},{"name":"F#2","midi":42,"time":66.68148093750064,"velocity":0.5511811023622047,"duration":0.02976187500000549},{"name":"A#4","midi":70,"time":66.90469500000064,"velocity":0.5511811023622047,"duration":0.233134687499998},{"name":"D2","midi":38,"time":67.14279000000064,"velocity":0.7874015748031497,"duration":0.233134687499998},{"name":"A#4","midi":70,"time":67.14279000000064,"velocity":0.5511811023622047,"duration":0.233134687499998},{"name":"F#2","midi":42,"time":67.15767093750064,"velocity":0.5511811023622047,"duration":0.02976187500000549},{"name":"A#4","midi":70,"time":67.38088500000065,"velocity":0.5511811023622047,"duration":0.233134687499998},{"name":"A#4","midi":70,"time":67.61898000000065,"velocity":0.5511811023622047,"duration":0.233134687499998},{"name":"B1","midi":35,"time":67.61898000000065,"velocity":0.7874015748031497,"duration":0.233134687499998},{"name":"F#2","midi":42,"time":67.63386093750064,"velocity":0.5511811023622047,"duration":0.02976187500000549},{"name":"A#4","midi":70,"time":67.85707500000065,"velocity":0.5511811023622047,"duration":0.233134687499998},{"name":"D2","midi":38,"time":68.09517000000065,"velocity":0.7874015748031497,"duration":0.233134687499998},{"name":"A#4","midi":70,"time":68.09517000000065,"velocity":0.5511811023622047,"duration":0.233134687499998},{"name":"F#2","midi":42,"time":68.11005093750065,"velocity":0.5511811023622047,"duration":0.02976187500000549},{"name":"A#4","midi":70,"time":68.33326500000065,"velocity":0.5511811023622047,"duration":0.233134687499998},{"name":"A#4","midi":70,"time":68.57136000000065,"velocity":0.5511811023622047,"duration":0.233134687499998},{"name":"B1","midi":35,"time":68.57136000000065,"velocity":0.7874015748031497,"duration":0.233134687499998},{"name":"F#2","midi":42,"time":68.58624093750065,"velocity":0.5511811023622047,"duration":0.02976187500000549},{"name":"A#4","midi":70,"time":68.80945500000065,"velocity":0.5511811023622047,"duration":0.233134687499998},{"name":"D2","midi":38,"time":69.04755000000065,"velocity":0.7874015748031497,"duration":0.233134687499998},{"name":"A#4","midi":70,"time":69.04755000000065,"velocity":0.5511811023622047,"duration":0.233134687499998},{"name":"F#2","midi":42,"time":69.06243093750065,"velocity":0.5511811023622047,"duration":0.02976187500000549},{"name":"A#4","midi":70,"time":69.28564500000066,"velocity":0.5511811023622047,"duration":0.233134687499998},{"name":"B1","midi":35,"time":69.52374000000066,"velocity":0.7874015748031497,"duration":0.233134687499998},{"name":"A#4","midi":70,"time":69.52374000000066,"velocity":0.5511811023622047,"duration":0.233134687499998},{"name":"F#2","midi":42,"time":69.53862093750065,"velocity":0.5511811023622047,"duration":0.02976187500000549},{"name":"A#4","midi":70,"time":69.76183500000066,"velocity":0.5511811023622047,"duration":0.233134687499998},{"name":"A#4","midi":70,"time":69.99993000000066,"velocity":0.5511811023622047,"duration":0.233134687499998},{"name":"D2","midi":38,"time":69.99993000000066,"velocity":0.7874015748031497,"duration":0.233134687499998},{"name":"F#2","midi":42,"time":70.01481093750066,"velocity":0.5511811023622047,"duration":0.02976187500000549},{"name":"B1","midi":35,"time":70.23802500000066,"velocity":0.7874015748031497,"duration":0.233134687499998},{"name":"A#4","midi":70,"time":70.23802500000066,"velocity":0.5511811023622047,"duration":0.233134687499998},{"name":"A#4","midi":70,"time":70.47612000000066,"velocity":0.5511811023622047,"duration":0.233134687499998},{"name":"B1","midi":35,"time":70.47612000000066,"velocity":0.7874015748031497,"duration":0.233134687499998},{"name":"F#2","midi":42,"time":70.49100093750066,"velocity":0.5511811023622047,"duration":0.02976187500000549},{"name":"A#4","midi":70,"time":70.71421500000066,"velocity":0.5511811023622047,"duration":0.233134687499998},{"name":"D2","midi":38,"time":70.95231000000067,"velocity":0.7874015748031497,"duration":0.233134687499998},{"name":"A#4","midi":70,"time":70.95231000000067,"velocity":0.5511811023622047,"duration":0.233134687499998},{"name":"F#2","midi":42,"time":70.96719093750066,"velocity":0.5511811023622047,"duration":0.02976187500000549},{"name":"A#4","midi":70,"time":71.19040500000067,"velocity":0.5511811023622047,"duration":0.233134687499998},{"name":"A#4","midi":70,"time":71.42850000000067,"velocity":0.5511811023622047,"duration":0.233134687499998},{"name":"B1","midi":35,"time":71.42850000000067,"velocity":0.7874015748031497,"duration":0.233134687499998},{"name":"F#2","midi":42,"time":71.44338093750066,"velocity":0.5511811023622047,"duration":0.02976187500000549},{"name":"A#4","midi":70,"time":71.66659500000067,"velocity":0.5511811023622047,"duration":0.233134687499998},{"name":"A#4","midi":70,"time":71.90469000000067,"velocity":0.5511811023622047,"duration":0.233134687499998},{"name":"D2","midi":38,"time":71.90469000000067,"velocity":0.7874015748031497,"duration":0.233134687499998},{"name":"F#2","midi":42,"time":71.91957093750067,"velocity":0.5511811023622047,"duration":0.02976187500000549},{"name":"A#4","midi":70,"time":72.14278500000067,"velocity":0.5511811023622047,"duration":0.233134687499998},{"name":"B1","midi":35,"time":72.38088000000067,"velocity":0.7874015748031497,"duration":0.233134687499998},{"name":"A#4","midi":70,"time":72.38088000000067,"velocity":0.5511811023622047,"duration":0.233134687499998},{"name":"F#2","midi":42,"time":72.39576093750067,"velocity":0.5511811023622047,"duration":0.02976187500000549},{"name":"A#4","midi":70,"time":72.61897500000067,"velocity":0.5511811023622047,"duration":0.233134687499998},{"name":"A#4","midi":70,"time":72.85707000000068,"velocity":0.5511811023622047,"duration":0.233134687499998},{"name":"D2","midi":38,"time":72.85707000000068,"velocity":0.7874015748031497,"duration":0.233134687499998},{"name":"F#2","midi":42,"time":72.87195093750067,"velocity":0.5511811023622047,"duration":0.02976187500000549},{"name":"A#4","midi":70,"time":73.09516500000068,"velocity":0.5511811023622047,"duration":0.233134687499998},{"name":"B1","midi":35,"time":73.33326000000068,"velocity":0.7874015748031497,"duration":0.233134687499998},{"name":"A#4","midi":70,"time":73.33326000000068,"velocity":0.5511811023622047,"duration":0.233134687499998},{"name":"F#2","midi":42,"time":73.34814093750067,"velocity":0.5511811023622047,"duration":0.02976187500000549},{"name":"A#4","midi":70,"time":73.57135500000068,"velocity":0.5511811023622047,"duration":0.233134687499998},{"name":"A#4","midi":70,"time":73.80945000000068,"velocity":0.5511811023622047,"duration":0.233134687499998},{"name":"D2","midi":38,"time":73.80945000000068,"velocity":0.7874015748031497,"duration":0.233134687499998},{"name":"F#2","midi":42,"time":73.82433093750068,"velocity":0.5511811023622047,"duration":0.02976187500000549},{"name":"A#4","midi":70,"time":74.04754500000068,"velocity":0.5511811023622047,"duration":0.233134687499998},{"name":"D2","midi":38,"time":74.16659250000068,"velocity":0.7874015748031497,"duration":0.11408718750000446},{"name":"B1","midi":35,"time":74.28564000000068,"velocity":0.7874015748031497,"duration":0.233134687499998},{"name":"A#4","midi":70,"time":74.28564000000068,"velocity":0.5511811023622047,"duration":0.233134687499998},{"name":"F#2","midi":42,"time":74.30052093750068,"velocity":0.5511811023622047,"duration":0.02976187500000549},{"name":"A#4","midi":70,"time":74.52373500000068,"velocity":0.5511811023622047,"duration":0.233134687499998},{"name":"D2","midi":38,"time":74.76183000000069,"velocity":0.7874015748031497,"duration":0.233134687499998},{"name":"A#4","midi":70,"time":74.76183000000069,"velocity":0.5511811023622047,"duration":0.233134687499998},{"name":"F#2","midi":42,"time":74.77671093750068,"velocity":0.5511811023622047,"duration":0.02976187500000549},{"name":"A#4","midi":70,"time":74.99992500000069,"velocity":0.5511811023622047,"duration":0.233134687499998},{"name":"B1","midi":35,"time":75.23802000000069,"velocity":0.7874015748031497,"duration":0.233134687499998},{"name":"A#4","midi":70,"time":75.23802000000069,"velocity":0.5511811023622047,"duration":0.233134687499998},{"name":"F#2","midi":42,"time":75.25290093750068,"velocity":0.5511811023622047,"duration":0.02976187500000549},{"name":"A#4","midi":70,"time":75.47611500000069,"velocity":0.5511811023622047,"duration":0.233134687499998},{"name":"A#4","midi":70,"time":75.71421000000069,"velocity":0.5511811023622047,"duration":0.233134687499998},{"name":"D2","midi":38,"time":75.71421000000069,"velocity":0.7874015748031497,"duration":0.233134687499998},{"name":"F#2","midi":42,"time":75.72909093750069,"velocity":0.5511811023622047,"duration":0.02976187500000549},{"name":"A#4","midi":70,"time":75.95230500000069,"velocity":0.5511811023622047,"duration":0.233134687499998},{"name":"B1","midi":35,"time":76.1904000000007,"velocity":0.7874015748031497,"duration":0.233134687499998},{"name":"A#4","midi":70,"time":76.1904000000007,"velocity":0.5511811023622047,"duration":0.233134687499998},{"name":"F#2","midi":42,"time":76.20528093750069,"velocity":0.5511811023622047,"duration":0.02976187500000549},{"name":"A#4","midi":70,"time":76.4284950000007,"velocity":0.5511811023622047,"duration":0.233134687499998},{"name":"D2","midi":38,"time":76.6665900000007,"velocity":0.7874015748031497,"duration":0.233134687499998},{"name":"A#4","midi":70,"time":76.6665900000007,"velocity":0.5511811023622047,"duration":0.233134687499998},{"name":"F#2","midi":42,"time":76.68147093750069,"velocity":0.5511811023622047,"duration":0.02976187500000549},{"name":"A#4","midi":70,"time":76.9046850000007,"velocity":0.5511811023622047,"duration":0.233134687499998},{"name":"A#4","midi":70,"time":77.1427800000007,"velocity":0.5511811023622047,"duration":0.233134687499998},{"name":"B1","midi":35,"time":77.1427800000007,"velocity":0.7874015748031497,"duration":0.233134687499998},{"name":"F#2","midi":42,"time":77.1576609375007,"velocity":0.5511811023622047,"duration":0.02976187500000549},{"name":"A#4","midi":70,"time":77.3808750000007,"velocity":0.5511811023622047,"duration":0.233134687499998},{"name":"D2","midi":38,"time":77.6189700000007,"velocity":0.7874015748031497,"duration":0.233134687499998},{"name":"A#4","midi":70,"time":77.6189700000007,"velocity":0.5511811023622047,"duration":0.233134687499998},{"name":"F#2","midi":42,"time":77.6338509375007,"velocity":0.5511811023622047,"duration":0.02976187500000549},{"name":"A#4","midi":70,"time":77.8570650000007,"velocity":0.5511811023622047,"duration":0.233134687499998},{"name":"B1","midi":35,"time":77.8570650000007,"velocity":0.7874015748031497,"duration":0.233134687499998},{"name":"A#4","midi":70,"time":78.0951600000007,"velocity":0.5511811023622047,"duration":0.233134687499998},{"name":"F#2","midi":42,"time":78.1100409375007,"velocity":0.5511811023622047,"duration":0.02976187500000549},{"name":"A#4","midi":70,"time":78.3332550000007,"velocity":0.5511811023622047,"duration":0.233134687499998},{"name":"A#4","midi":70,"time":78.5713500000007,"velocity":0.5511811023622047,"duration":0.233134687499998},{"name":"F#2","midi":42,"time":78.5862309375007,"velocity":0.5511811023622047,"duration":0.02976187500000549},{"name":"A#4","midi":70,"time":78.80944500000071,"velocity":0.5511811023622047,"duration":0.233134687499998},{"name":"A#4","midi":70,"time":79.04754000000071,"velocity":0.5511811023622047,"duration":0.233134687499998},{"name":"F#2","midi":42,"time":79.0624209375007,"velocity":0.5511811023622047,"duration":0.02976187500000549},{"name":"A#4","midi":70,"time":79.28563500000071,"velocity":0.5511811023622047,"duration":0.233134687499998},{"name":"A#4","midi":70,"time":79.52373000000071,"velocity":0.5511811023622047,"duration":0.233134687499998},{"name":"F#2","midi":42,"time":79.5386109375007,"velocity":0.5511811023622047,"duration":0.02976187500000549},{"name":"A#4","midi":70,"time":79.76182500000071,"velocity":0.5511811023622047,"duration":0.233134687499998},{"name":"A#4","midi":70,"time":79.99992000000071,"velocity":0.5511811023622047,"duration":0.233134687499998},{"name":"F#2","midi":42,"time":80.01480093750071,"velocity":0.5511811023622047,"duration":0.02976187500000549},{"name":"A#4","midi":70,"time":80.23801500000071,"velocity":0.5511811023622047,"duration":0.233134687499998},{"name":"A#4","midi":70,"time":80.47611000000072,"velocity":0.5511811023622047,"duration":0.233134687499998},{"name":"F#2","midi":42,"time":80.49099093750071,"velocity":0.5511811023622047,"duration":0.02976187500000549},{"name":"A#4","midi":70,"time":80.71420500000072,"velocity":0.5511811023622047,"duration":0.233134687499998},{"name":"A#4","midi":70,"time":80.95230000000072,"velocity":0.5511811023622047,"duration":0.233134687499998},{"name":"F#2","midi":42,"time":80.96718093750071,"velocity":0.5511811023622047,"duration":0.02976187500000549},{"name":"A#4","midi":70,"time":81.19039500000072,"velocity":0.5511811023622047,"duration":0.233134687499998},{"name":"A#4","midi":70,"time":81.42849000000072,"velocity":0.5511811023622047,"duration":0.233134687499998},{"name":"F#2","midi":42,"time":81.44337093750072,"velocity":0.5511811023622047,"duration":0.02976187500000549},{"name":"A#4","midi":70,"time":81.66658500000072,"velocity":0.5511811023622047,"duration":0.233134687499998},{"name":"A#4","midi":70,"time":81.90468000000072,"velocity":0.5511811023622047,"duration":0.233134687499998},{"name":"F#2","midi":42,"time":81.91956093750072,"velocity":0.5511811023622047,"duration":0.02976187500000549},{"name":"A#4","midi":70,"time":82.14277500000073,"velocity":0.5511811023622047,"duration":0.233134687499998},{"name":"A#4","midi":70,"time":82.38087000000073,"velocity":0.5511811023622047,"duration":0.233134687499998},{"name":"F#2","midi":42,"time":82.39575093750072,"velocity":0.5511811023622047,"duration":0.02976187500000549},{"name":"A#4","midi":70,"time":82.61896500000073,"velocity":0.5511811023622047,"duration":0.233134687499998},{"name":"A#4","midi":70,"time":82.85706000000073,"velocity":0.5511811023622047,"duration":0.233134687499998},{"name":"F#2","midi":42,"time":82.87194093750072,"velocity":0.5511811023622047,"duration":0.02976187500000549},{"name":"A#4","midi":70,"time":83.09515500000073,"velocity":0.5511811023622047,"duration":0.233134687499998},{"name":"A#4","midi":70,"time":83.33325000000073,"velocity":0.5511811023622047,"duration":0.233134687499998},{"name":"F#2","midi":42,"time":83.34813093750073,"velocity":0.5511811023622047,"duration":0.02976187500000549},{"name":"A#4","midi":70,"time":83.57134500000073,"velocity":0.5511811023622047,"duration":0.233134687499998},{"name":"A#4","midi":70,"time":83.80944000000073,"velocity":0.5511811023622047,"duration":0.233134687499998},{"name":"F#2","midi":42,"time":83.82432093750073,"velocity":0.5511811023622047,"duration":0.02976187500000549},{"name":"A#4","midi":70,"time":84.04753500000074,"velocity":0.5511811023622047,"duration":0.233134687499998},{"name":"A#4","midi":70,"time":84.28563000000074,"velocity":0.5511811023622047,"duration":0.233134687499998},{"name":"F#2","midi":42,"time":84.30051093750073,"velocity":0.5511811023622047,"duration":0.02976187500000549},{"name":"A#4","midi":70,"time":84.52372500000074,"velocity":0.5511811023622047,"duration":0.233134687499998},{"name":"A#4","midi":70,"time":84.76182000000074,"velocity":0.5511811023622047,"duration":0.233134687499998},{"name":"F#2","midi":42,"time":84.77670093750073,"velocity":0.5511811023622047,"duration":0.02976187500000549},{"name":"A#4","midi":70,"time":84.99991500000074,"velocity":0.5511811023622047,"duration":0.233134687499998},{"name":"A#4","midi":70,"time":85.23801000000074,"velocity":0.5511811023622047,"duration":0.233134687499998},{"name":"F#2","midi":42,"time":85.25289093750074,"velocity":0.5511811023622047,"duration":0.02976187500000549},{"name":"A#4","midi":70,"time":85.47610500000074,"velocity":0.5511811023622047,"duration":0.233134687499998},{"name":"A#4","midi":70,"time":85.71420000000074,"velocity":0.5511811023622047,"duration":0.233134687499998},{"name":"B1","midi":35,"time":85.71420000000074,"velocity":0.7874015748031497,"duration":0.233134687499998},{"name":"F#2","midi":42,"time":85.72908093750074,"velocity":0.5511811023622047,"duration":0.02976187500000549},{"name":"A#4","midi":70,"time":85.95229500000075,"velocity":0.5511811023622047,"duration":0.233134687499998},{"name":"A#4","midi":70,"time":86.19039000000075,"velocity":0.5511811023622047,"duration":0.233134687499998},{"name":"B1","midi":35,"time":86.19039000000075,"velocity":0.7874015748031497,"duration":0.233134687499998},{"name":"F#2","midi":42,"time":86.20527093750074,"velocity":0.5511811023622047,"duration":0.02976187500000549},{"name":"A#4","midi":70,"time":86.42848500000075,"velocity":0.5511811023622047,"duration":0.233134687499998},{"name":"A#4","midi":70,"time":86.66658000000075,"velocity":0.5511811023622047,"duration":0.233134687499998},{"name":"B1","midi":35,"time":86.66658000000075,"velocity":0.7874015748031497,"duration":0.233134687499998},{"name":"F#2","midi":42,"time":86.68146093750074,"velocity":0.5511811023622047,"duration":0.02976187500000549},{"name":"A#4","midi":70,"time":86.90467500000075,"velocity":0.5511811023622047,"duration":0.233134687499998},{"name":"B1","midi":35,"time":87.14277000000075,"velocity":0.7874015748031497,"duration":0.233134687499998},{"name":"A#4","midi":70,"time":87.14277000000075,"velocity":0.5511811023622047,"duration":0.233134687499998},{"name":"F#2","midi":42,"time":87.15765093750075,"velocity":0.5511811023622047,"duration":0.02976187500000549},{"name":"A#4","midi":70,"time":87.38086500000075,"velocity":0.5511811023622047,"duration":0.233134687499998},{"name":"B1","midi":35,"time":87.61896000000075,"velocity":0.7874015748031497,"duration":0.233134687499998},{"name":"A#4","midi":70,"time":87.61896000000075,"velocity":0.5511811023622047,"duration":0.233134687499998},{"name":"F#2","midi":42,"time":87.63384093750075,"velocity":0.5511811023622047,"duration":0.02976187500000549},{"name":"A#4","midi":70,"time":87.85705500000076,"velocity":0.5511811023622047,"duration":0.233134687499998},{"name":"B1","midi":35,"time":88.09515000000076,"velocity":0.7874015748031497,"duration":0.233134687499998},{"name":"A#4","midi":70,"time":88.09515000000076,"velocity":0.5511811023622047,"duration":0.233134687499998},{"name":"F#2","midi":42,"time":88.11003093750075,"velocity":0.5511811023622047,"duration":0.02976187500000549},{"name":"A#4","midi":70,"time":88.33324500000076,"velocity":0.5511811023622047,"duration":0.233134687499998},{"name":"A#4","midi":70,"time":88.57134000000076,"velocity":0.5511811023622047,"duration":0.233134687499998},{"name":"B1","midi":35,"time":88.57134000000076,"velocity":0.7874015748031497,"duration":0.233134687499998},{"name":"F#2","midi":42,"time":88.58622093750076,"velocity":0.5511811023622047,"duration":0.02976187500000549},{"name":"A#4","midi":70,"time":88.80943500000076,"velocity":0.5511811023622047,"duration":0.233134687499998},{"name":"A#4","midi":70,"time":89.04753000000076,"velocity":0.5511811023622047,"duration":0.233134687499998},{"name":"B1","midi":35,"time":89.04753000000076,"velocity":0.7874015748031497,"duration":0.233134687499998},{"name":"F#2","midi":42,"time":89.06241093750076,"velocity":0.5511811023622047,"duration":0.02976187500000549},{"name":"A#4","midi":70,"time":89.28562500000076,"velocity":0.5511811023622047,"duration":0.233134687499998},{"name":"B1","midi":35,"time":89.52372000000076,"velocity":0.7874015748031497,"duration":0.233134687499998},{"name":"A#4","midi":70,"time":89.52372000000076,"velocity":0.5511811023622047,"duration":0.233134687499998},{"name":"F#2","midi":42,"time":89.53860093750076,"velocity":0.5511811023622047,"duration":0.02976187500000549},{"name":"A#4","midi":70,"time":89.76181500000077,"velocity":0.5511811023622047,"duration":0.233134687499998},{"name":"A#4","midi":70,"time":89.99991000000077,"velocity":0.5511811023622047,"duration":0.233134687499998},{"name":"B1","midi":35,"time":89.99991000000077,"velocity":0.7874015748031497,"duration":0.233134687499998},{"name":"F#2","midi":42,"time":90.01479093750076,"velocity":0.5511811023622047,"duration":0.02976187500000549},{"name":"A#4","midi":70,"time":90.23800500000077,"velocity":0.5511811023622047,"duration":0.233134687499998},{"name":"A#4","midi":70,"time":90.47610000000077,"velocity":0.5511811023622047,"duration":0.233134687499998},{"name":"B1","midi":35,"time":90.47610000000077,"velocity":0.7874015748031497,"duration":0.233134687499998},{"name":"F#2","midi":42,"time":90.49098093750077,"velocity":0.5511811023622047,"duration":0.02976187500000549},{"name":"A#4","midi":70,"time":90.71419500000077,"velocity":0.5511811023622047,"duration":0.233134687499998},{"name":"A#4","midi":70,"time":90.95229000000077,"velocity":0.5511811023622047,"duration":0.233134687499998},{"name":"B1","midi":35,"time":90.95229000000077,"velocity":0.7874015748031497,"duration":0.233134687499998},{"name":"F#2","midi":42,"time":90.96717093750077,"velocity":0.5511811023622047,"duration":0.02976187500000549},{"name":"A#4","midi":70,"time":91.19038500000077,"velocity":0.5511811023622047,"duration":0.233134687499998},{"name":"A#4","midi":70,"time":91.42848000000077,"velocity":0.5511811023622047,"duration":0.233134687499998},{"name":"B1","midi":35,"time":91.42848000000077,"velocity":0.7874015748031497,"duration":0.233134687499998},{"name":"F#2","midi":42,"time":91.44336093750077,"velocity":0.5511811023622047,"duration":0.02976187500000549},{"name":"A#4","midi":70,"time":91.66657500000078,"velocity":0.5511811023622047,"duration":0.233134687499998},{"name":"A#4","midi":70,"time":91.90467000000078,"velocity":0.5511811023622047,"duration":0.233134687499998},{"name":"B1","midi":35,"time":91.90467000000078,"velocity":0.7874015748031497,"duration":0.233134687499998},{"name":"F#2","midi":42,"time":91.91955093750077,"velocity":0.5511811023622047,"duration":0.02976187500000549},{"name":"A#4","midi":70,"time":92.14276500000078,"velocity":0.5511811023622047,"duration":0.233134687499998},{"name":"A#4","midi":70,"time":92.38086000000078,"velocity":0.5511811023622047,"duration":0.233134687499998},{"name":"B1","midi":35,"time":92.38086000000078,"velocity":0.7874015748031497,"duration":0.233134687499998},{"name":"F#2","midi":42,"time":92.39574093750078,"velocity":0.5511811023622047,"duration":0.02976187500000549},{"name":"A#4","midi":70,"time":92.61895500000078,"velocity":0.5511811023622047,"duration":0.233134687499998},{"name":"A#4","midi":70,"time":92.85705000000078,"velocity":0.5511811023622047,"duration":0.233134687499998},{"name":"B1","midi":35,"time":92.85705000000078,"velocity":0.7874015748031497,"duration":0.233134687499998},{"name":"F#2","midi":42,"time":92.87193093750078,"velocity":0.5511811023622047,"duration":0.02976187500000549},{"name":"A#4","midi":70,"time":93.09514500000078,"velocity":0.5511811023622047,"duration":0.233134687499998},{"name":"B1","midi":35,"time":93.33324000000079,"velocity":0.7874015748031497,"duration":0.233134687499998},{"name":"A#4","midi":70,"time":93.33324000000079,"velocity":0.5511811023622047,"duration":0.233134687499998},{"name":"F#2","midi":42,"time":93.34812093750078,"velocity":0.5511811023622047,"duration":0.02976187500000549},{"name":"A#4","midi":70,"time":93.57133500000079,"velocity":0.5511811023622047,"duration":0.233134687499998},{"name":"D2","midi":38,"time":93.80943000000079,"velocity":0.7874015748031497,"duration":0.233134687499998},{"name":"A#4","midi":70,"time":93.80943000000079,"velocity":0.5511811023622047,"duration":0.233134687499998},{"name":"F#2","midi":42,"time":93.82431093750078,"velocity":0.5511811023622047,"duration":0.02976187500000549},{"name":"A#4","midi":70,"time":94.04752500000079,"velocity":0.5511811023622047,"duration":0.233134687499998},{"name":"B1","midi":35,"time":94.28562000000079,"velocity":0.7874015748031497,"duration":0.233134687499998},{"name":"A#4","midi":70,"time":94.28562000000079,"velocity":0.5511811023622047,"duration":0.233134687499998},{"name":"F#2","midi":42,"time":94.30050093750079,"velocity":0.5511811023622047,"duration":0.02976187500000549},{"name":"A#4","midi":70,"time":94.52371500000079,"velocity":0.5511811023622047,"duration":0.233134687499998},{"name":"D2","midi":38,"time":94.76181000000079,"velocity":0.7874015748031497,"duration":0.233134687499998},{"name":"A#4","midi":70,"time":94.76181000000079,"velocity":0.5511811023622047,"duration":0.233134687499998},{"name":"F#2","midi":42,"time":94.77669093750079,"velocity":0.5511811023622047,"duration":0.02976187500000549},{"name":"A#4","midi":70,"time":94.9999050000008,"velocity":0.5511811023622047,"duration":0.233134687499998},{"name":"A#4","midi":70,"time":95.2380000000008,"velocity":0.5511811023622047,"duration":0.233134687499998},{"name":"B1","midi":35,"time":95.2380000000008,"velocity":0.7874015748031497,"duration":0.233134687499998},{"name":"F#2","midi":42,"time":95.25288093750079,"velocity":0.5511811023622047,"duration":0.02976187500000549},{"name":"A#4","midi":70,"time":95.4760950000008,"velocity":0.5511811023622047,"duration":0.233134687499998},{"name":"A#4","midi":70,"time":95.7141900000008,"velocity":0.5511811023622047,"duration":0.233134687499998},{"name":"D2","midi":38,"time":95.7141900000008,"velocity":0.7874015748031497,"duration":0.233134687499998},{"name":"F#2","midi":42,"time":95.7290709375008,"velocity":0.5511811023622047,"duration":0.02976187500000549},{"name":"A#4","midi":70,"time":95.9522850000008,"velocity":0.5511811023622047,"duration":0.233134687499998},{"name":"A#4","midi":70,"time":96.1903800000008,"velocity":0.5511811023622047,"duration":0.233134687499998},{"name":"B1","midi":35,"time":96.1903800000008,"velocity":0.7874015748031497,"duration":0.233134687499998},{"name":"F#2","midi":42,"time":96.2052609375008,"velocity":0.5511811023622047,"duration":0.02976187500000549},{"name":"A#4","midi":70,"time":96.4284750000008,"velocity":0.5511811023622047,"duration":0.233134687499998},{"name":"A#4","midi":70,"time":96.6665700000008,"velocity":0.5511811023622047,"duration":0.233134687499998},{"name":"D2","midi":38,"time":96.6665700000008,"velocity":0.7874015748031497,"duration":0.233134687499998},{"name":"F#2","midi":42,"time":96.6814509375008,"velocity":0.5511811023622047,"duration":0.02976187500000549},{"name":"A#4","midi":70,"time":96.9046650000008,"velocity":0.5511811023622047,"duration":0.233134687499998},{"name":"D2","midi":38,"time":97.0237125000008,"velocity":0.7874015748031497,"duration":0.11408718750000446},{"name":"B1","midi":35,"time":97.1427600000008,"velocity":0.7874015748031497,"duration":0.233134687499998},{"name":"A#4","midi":70,"time":97.1427600000008,"velocity":0.5511811023622047,"duration":0.233134687499998},{"name":"F#2","midi":42,"time":97.1576409375008,"velocity":0.5511811023622047,"duration":0.02976187500000549},{"name":"A#4","midi":70,"time":97.3808550000008,"velocity":0.5511811023622047,"duration":0.233134687499998},{"name":"D2","midi":38,"time":97.61895000000081,"velocity":0.7874015748031497,"duration":0.233134687499998},{"name":"A#4","midi":70,"time":97.61895000000081,"velocity":0.5511811023622047,"duration":0.233134687499998},{"name":"F#2","midi":42,"time":97.6338309375008,"velocity":0.5511811023622047,"duration":0.02976187500000549},{"name":"A#4","midi":70,"time":97.85704500000081,"velocity":0.5511811023622047,"duration":0.233134687499998},{"name":"A#4","midi":70,"time":98.09514000000081,"velocity":0.5511811023622047,"duration":0.233134687499998},{"name":"B1","midi":35,"time":98.09514000000081,"velocity":0.7874015748031497,"duration":0.233134687499998},{"name":"F#2","midi":42,"time":98.1100209375008,"velocity":0.5511811023622047,"duration":0.02976187500000549},{"name":"A#4","midi":70,"time":98.33323500000081,"velocity":0.5511811023622047,"duration":0.233134687499998},{"name":"A#4","midi":70,"time":98.57133000000081,"velocity":0.5511811023622047,"duration":0.233134687499998},{"name":"D2","midi":38,"time":98.57133000000081,"velocity":0.7874015748031497,"duration":0.233134687499998},{"name":"F#2","midi":42,"time":98.58621093750081,"velocity":0.5511811023622047,"duration":0.02976187500000549},{"name":"A#4","midi":70,"time":98.80942500000081,"velocity":0.5511811023622047,"duration":0.233134687499998},{"name":"B1","midi":35,"time":99.04752000000082,"velocity":0.7874015748031497,"duration":0.233134687499998},{"name":"A#4","midi":70,"time":99.04752000000082,"velocity":0.5511811023622047,"duration":0.233134687499998},{"name":"F#2","midi":42,"time":99.06240093750081,"velocity":0.5511811023622047,"duration":0.02976187500000549},{"name":"A#4","midi":70,"time":99.28561500000082,"velocity":0.5511811023622047,"duration":0.233134687499998},{"name":"D2","midi":38,"time":99.52371000000082,"velocity":0.7874015748031497,"duration":0.233134687499998},{"name":"A#4","midi":70,"time":99.52371000000082,"velocity":0.5511811023622047,"duration":0.233134687499998},{"name":"F#2","midi":42,"time":99.53859093750081,"velocity":0.5511811023622047,"duration":0.02976187500000549},{"name":"A#4","midi":70,"time":99.76180500000082,"velocity":0.5511811023622047,"duration":0.233134687499998},{"name":"B1","midi":35,"time":99.99990000000082,"velocity":0.7874015748031497,"duration":0.233134687499998},{"name":"A#4","midi":70,"time":99.99990000000082,"velocity":0.5511811023622047,"duration":0.233134687499998},{"name":"F#2","midi":42,"time":100.01478093750082,"velocity":0.5511811023622047,"duration":0.02976187500000549},{"name":"A#4","midi":70,"time":100.23799500000082,"velocity":0.5511811023622047,"duration":0.233134687499998},{"name":"D2","midi":38,"time":100.47609000000082,"velocity":0.7874015748031497,"duration":0.233134687499998},{"name":"A#4","midi":70,"time":100.47609000000082,"velocity":0.5511811023622047,"duration":0.233134687499998},{"name":"F#2","midi":42,"time":100.49097093750082,"velocity":0.5511811023622047,"duration":0.02976187500000549},{"name":"A#4","midi":70,"time":100.71418500000082,"velocity":0.5511811023622047,"duration":0.233134687499998},{"name":"B1","midi":35,"time":100.71418500000082,"velocity":0.7874015748031497,"duration":0.233134687499998},{"name":"A#4","midi":70,"time":100.95228000000083,"velocity":0.5511811023622047,"duration":0.233134687499998},{"name":"B1","midi":35,"time":100.95228000000083,"velocity":0.7874015748031497,"duration":0.233134687499998},{"name":"F#2","midi":42,"time":100.96716093750082,"velocity":0.5511811023622047,"duration":0.02976187500000549},{"name":"A#4","midi":70,"time":101.19037500000083,"velocity":0.5511811023622047,"duration":0.233134687499998},{"name":"D2","midi":38,"time":101.42847000000083,"velocity":0.7874015748031497,"duration":0.233134687499998},{"name":"A#4","midi":70,"time":101.42847000000083,"velocity":0.5511811023622047,"duration":0.233134687499998},{"name":"F#2","midi":42,"time":101.44335093750082,"velocity":0.5511811023622047,"duration":0.02976187500000549},{"name":"A#4","midi":70,"time":101.66656500000083,"velocity":0.5511811023622047,"duration":0.233134687499998},{"name":"B1","midi":35,"time":101.90466000000083,"velocity":0.7874015748031497,"duration":0.233134687499998},{"name":"A#4","midi":70,"time":101.90466000000083,"velocity":0.5511811023622047,"duration":0.233134687499998},{"name":"F#2","midi":42,"time":101.91954093750083,"velocity":0.5511811023622047,"duration":0.02976187500000549},{"name":"A#4","midi":70,"time":102.14275500000083,"velocity":0.5511811023622047,"duration":0.233134687499998},{"name":"D2","midi":38,"time":102.38085000000083,"velocity":0.7874015748031497,"duration":0.233134687499998},{"name":"A#4","midi":70,"time":102.38085000000083,"velocity":0.5511811023622047,"duration":0.233134687499998},{"name":"F#2","midi":42,"time":102.39573093750083,"velocity":0.5511811023622047,"duration":0.02976187500000549},{"name":"A#4","midi":70,"time":102.61894500000083,"velocity":0.5511811023622047,"duration":0.233134687499998},{"name":"A#4","midi":70,"time":102.85704000000084,"velocity":0.5511811023622047,"duration":0.233134687499998},{"name":"B1","midi":35,"time":102.85704000000084,"velocity":0.7874015748031497,"duration":0.233134687499998},{"name":"F#2","midi":42,"time":102.87192093750083,"velocity":0.5511811023622047,"duration":0.02976187500000549},{"name":"A#4","midi":70,"time":103.09513500000084,"velocity":0.5511811023622047,"duration":0.233134687499998},{"name":"D2","midi":38,"time":103.33323000000084,"velocity":0.7874015748031497,"duration":0.233134687499998},{"name":"A#4","midi":70,"time":103.33323000000084,"velocity":0.5511811023622047,"duration":0.233134687499998},{"name":"F#2","midi":42,"time":103.34811093750083,"velocity":0.5511811023622047,"duration":0.02976187500000549},{"name":"A#4","midi":70,"time":103.57132500000084,"velocity":0.5511811023622047,"duration":0.233134687499998},{"name":"A#4","midi":70,"time":103.80942000000084,"velocity":0.5511811023622047,"duration":0.233134687499998},{"name":"B1","midi":35,"time":103.80942000000084,"velocity":0.7874015748031497,"duration":0.233134687499998},{"name":"F#2","midi":42,"time":103.82430093750084,"velocity":0.5511811023622047,"duration":0.02976187500000549},{"name":"A#4","midi":70,"time":104.04751500000084,"velocity":0.5511811023622047,"duration":0.233134687499998},{"name":"D2","midi":38,"time":104.28561000000084,"velocity":0.7874015748031497,"duration":0.233134687499998},{"name":"A#4","midi":70,"time":104.28561000000084,"velocity":0.5511811023622047,"duration":0.233134687499998},{"name":"F#2","midi":42,"time":104.30049093750084,"velocity":0.5511811023622047,"duration":0.02976187500000549},{"name":"A#4","midi":70,"time":104.52370500000085,"velocity":0.5511811023622047,"duration":0.233134687499998},{"name":"D2","midi":38,"time":104.64275250000084,"velocity":0.7874015748031497,"duration":0.11408718750000446},{"name":"A#4","midi":70,"time":104.76180000000085,"velocity":0.5511811023622047,"duration":0.233134687499998},{"name":"B1","midi":35,"time":104.76180000000085,"velocity":0.7874015748031497,"duration":0.233134687499998},{"name":"F#2","midi":42,"time":104.77668093750084,"velocity":0.5511811023622047,"duration":0.02976187500000549},{"name":"A#4","midi":70,"time":104.99989500000085,"velocity":0.5511811023622047,"duration":0.233134687499998},{"name":"A#4","midi":70,"time":105.23799000000085,"velocity":0.5511811023622047,"duration":0.233134687499998},{"name":"D2","midi":38,"time":105.23799000000085,"velocity":0.7874015748031497,"duration":0.233134687499998},{"name":"F#2","midi":42,"time":105.25287093750084,"velocity":0.5511811023622047,"duration":0.02976187500000549},{"name":"A#4","midi":70,"time":105.47608500000085,"velocity":0.5511811023622047,"duration":0.233134687499998},{"name":"A#4","midi":70,"time":105.71418000000085,"velocity":0.5511811023622047,"duration":0.233134687499998},{"name":"B1","midi":35,"time":105.71418000000085,"velocity":0.7874015748031497,"duration":0.233134687499998},{"name":"F#2","midi":42,"time":105.72906093750085,"velocity":0.5511811023622047,"duration":0.02976187500000549},{"name":"A#4","midi":70,"time":105.95227500000085,"velocity":0.5511811023622047,"duration":0.233134687499998},{"name":"D2","midi":38,"time":106.19037000000085,"velocity":0.7874015748031497,"duration":0.233134687499998},{"name":"A#4","midi":70,"time":106.19037000000085,"velocity":0.5511811023622047,"duration":0.233134687499998},{"name":"F#2","midi":42,"time":106.20525093750085,"velocity":0.5511811023622047,"duration":0.02976187500000549},{"name":"A#4","midi":70,"time":106.42846500000086,"velocity":0.5511811023622047,"duration":0.233134687499998},{"name":"A#4","midi":70,"time":106.66656000000086,"velocity":0.5511811023622047,"duration":0.233134687499998},{"name":"B1","midi":35,"time":106.66656000000086,"velocity":0.7874015748031497,"duration":0.233134687499998},{"name":"F#2","midi":42,"time":106.68144093750085,"velocity":0.5511811023622047,"duration":0.02976187500000549},{"name":"A#4","midi":70,"time":106.90465500000086,"velocity":0.5511811023622047,"duration":0.233134687499998},{"name":"D2","midi":38,"time":107.14275000000086,"velocity":0.7874015748031497,"duration":0.233134687499998},{"name":"A#4","midi":70,"time":107.14275000000086,"velocity":0.5511811023622047,"duration":0.233134687499998},{"name":"F#2","midi":42,"time":107.15763093750085,"velocity":0.5511811023622047,"duration":0.02976187500000549},{"name":"A#4","midi":70,"time":107.38084500000086,"velocity":0.5511811023622047,"duration":0.233134687499998},{"name":"B1","midi":35,"time":107.61894000000086,"velocity":0.7874015748031497,"duration":0.233134687499998},{"name":"A#4","midi":70,"time":107.61894000000086,"velocity":0.5511811023622047,"duration":0.233134687499998},{"name":"F#2","midi":42,"time":107.63382093750086,"velocity":0.5511811023622047,"duration":0.02976187500000549},{"name":"A#4","midi":70,"time":107.85703500000086,"velocity":0.5511811023622047,"duration":0.233134687499998},{"name":"D2","midi":38,"time":108.09513000000086,"velocity":0.7874015748031497,"duration":0.233134687499998},{"name":"A#4","midi":70,"time":108.09513000000086,"velocity":0.5511811023622047,"duration":0.233134687499998},{"name":"F#2","midi":42,"time":108.11001093750086,"velocity":0.5511811023622047,"duration":0.02976187500000549},{"name":"A#4","midi":70,"time":108.33322500000087,"velocity":0.5511811023622047,"duration":0.233134687499998},{"name":"B1","midi":35,"time":108.33322500000087,"velocity":0.7874015748031497,"duration":0.233134687499998},{"name":"B1","midi":35,"time":108.57132000000087,"velocity":0.7874015748031497,"duration":0.233134687499998},{"name":"A#4","midi":70,"time":108.57132000000087,"velocity":0.5511811023622047,"duration":0.233134687499998},{"name":"F#2","midi":42,"time":108.58620093750086,"velocity":0.5511811023622047,"duration":0.02976187500000549},{"name":"A#4","midi":70,"time":108.80941500000087,"velocity":0.5511811023622047,"duration":0.233134687499998},{"name":"D2","midi":38,"time":109.04751000000087,"velocity":0.7874015748031497,"duration":0.233134687499998},{"name":"A#4","midi":70,"time":109.04751000000087,"velocity":0.5511811023622047,"duration":0.233134687499998},{"name":"F#2","midi":42,"time":109.06239093750087,"velocity":0.5511811023622047,"duration":0.02976187500000549},{"name":"A#4","midi":70,"time":109.28560500000087,"velocity":0.5511811023622047,"duration":0.233134687499998},{"name":"A#4","midi":70,"time":109.52370000000087,"velocity":0.5511811023622047,"duration":0.233134687499998},{"name":"B1","midi":35,"time":109.52370000000087,"velocity":0.7874015748031497,"duration":0.233134687499998},{"name":"F#2","midi":42,"time":109.53858093750087,"velocity":0.5511811023622047,"duration":0.02976187500000549},{"name":"A#4","midi":70,"time":109.76179500000087,"velocity":0.5511811023622047,"duration":0.233134687499998},{"name":"A#4","midi":70,"time":109.99989000000087,"velocity":0.5511811023622047,"duration":0.233134687499998},{"name":"D2","midi":38,"time":109.99989000000087,"velocity":0.7874015748031497,"duration":0.233134687499998},{"name":"F#2","midi":42,"time":110.01477093750087,"velocity":0.5511811023622047,"duration":0.02976187500000549},{"name":"A#4","midi":70,"time":110.23798500000088,"velocity":0.5511811023622047,"duration":0.233134687499998},{"name":"B1","midi":35,"time":110.47608000000088,"velocity":0.7874015748031497,"duration":0.233134687499998},{"name":"A#4","midi":70,"time":110.47608000000088,"velocity":0.5511811023622047,"duration":0.233134687499998},{"name":"F#2","midi":42,"time":110.49096093750087,"velocity":0.5511811023622047,"duration":0.02976187500000549},{"name":"A#4","midi":70,"time":110.71417500000088,"velocity":0.5511811023622047,"duration":0.233134687499998},{"name":"D2","midi":38,"time":110.95227000000088,"velocity":0.7874015748031497,"duration":0.233134687499998},{"name":"A#4","midi":70,"time":110.95227000000088,"velocity":0.5511811023622047,"duration":0.233134687499998},{"name":"F#2","midi":42,"time":110.96715093750088,"velocity":0.5511811023622047,"duration":0.02976187500000549},{"name":"A#4","midi":70,"time":111.19036500000088,"velocity":0.5511811023622047,"duration":0.233134687499998},{"name":"A#4","midi":70,"time":111.42846000000088,"velocity":0.5511811023622047,"duration":0.233134687499998},{"name":"B1","midi":35,"time":111.42846000000088,"velocity":0.7874015748031497,"duration":0.233134687499998},{"name":"F#2","midi":42,"time":111.44334093750088,"velocity":0.5511811023622047,"duration":0.02976187500000549},{"name":"A#4","midi":70,"time":111.66655500000088,"velocity":0.5511811023622047,"duration":0.233134687499998},{"name":"A#4","midi":70,"time":111.90465000000088,"velocity":0.5511811023622047,"duration":0.233134687499998},{"name":"D2","midi":38,"time":111.90465000000088,"velocity":0.7874015748031497,"duration":0.233134687499998},{"name":"F#2","midi":42,"time":111.91953093750088,"velocity":0.5511811023622047,"duration":0.02976187500000549},{"name":"A#4","midi":70,"time":112.14274500000089,"velocity":0.5511811023622047,"duration":0.233134687499998},{"name":"D2","midi":38,"time":112.26179250000088,"velocity":0.7874015748031497,"duration":0.11408718750000446},{"name":"A#4","midi":70,"time":112.38084000000089,"velocity":0.5511811023622047,"duration":0.233134687499998},{"name":"B1","midi":35,"time":112.38084000000089,"velocity":0.7874015748031497,"duration":0.233134687499998},{"name":"F#2","midi":42,"time":112.39572093750088,"velocity":0.5511811023622047,"duration":0.02976187500000549},{"name":"A#4","midi":70,"time":112.61893500000089,"velocity":0.5511811023622047,"duration":0.233134687499998},{"name":"A#4","midi":70,"time":112.85703000000089,"velocity":0.5511811023622047,"duration":0.233134687499998},{"name":"D2","midi":38,"time":112.85703000000089,"velocity":0.7874015748031497,"duration":0.233134687499998},{"name":"F#2","midi":42,"time":112.87191093750089,"velocity":0.5511811023622047,"duration":0.02976187500000549},{"name":"A#4","midi":70,"time":113.09512500000089,"velocity":0.5511811023622047,"duration":0.233134687499998},{"name":"B1","midi":35,"time":113.33322000000089,"velocity":0.7874015748031497,"duration":0.233134687499998},{"name":"A#4","midi":70,"time":113.33322000000089,"velocity":0.5511811023622047,"duration":0.233134687499998},{"name":"F#2","midi":42,"time":113.34810093750089,"velocity":0.5511811023622047,"duration":0.02976187500000549},{"name":"A#4","midi":70,"time":113.5713150000009,"velocity":0.5511811023622047,"duration":0.233134687499998},{"name":"D2","midi":38,"time":113.8094100000009,"velocity":0.7874015748031497,"duration":0.233134687499998},{"name":"A#4","midi":70,"time":113.8094100000009,"velocity":0.5511811023622047,"duration":0.233134687499998},{"name":"F#2","midi":42,"time":113.82429093750089,"velocity":0.5511811023622047,"duration":0.02976187500000549},{"name":"A#4","midi":70,"time":114.0475050000009,"velocity":0.5511811023622047,"duration":0.233134687499998},{"name":"A#4","midi":70,"time":114.2856000000009,"velocity":0.5511811023622047,"duration":0.233134687499998},{"name":"B1","midi":35,"time":114.2856000000009,"velocity":0.7874015748031497,"duration":0.233134687499998},{"name":"F#2","midi":42,"time":114.3004809375009,"velocity":0.5511811023622047,"duration":0.02976187500000549},{"name":"A#4","midi":70,"time":114.5236950000009,"velocity":0.5511811023622047,"duration":0.233134687499998},{"name":"A#4","midi":70,"time":114.7617900000009,"velocity":0.5511811023622047,"duration":0.233134687499998},{"name":"D2","midi":38,"time":114.7617900000009,"velocity":0.7874015748031497,"duration":0.233134687499998},{"name":"F#2","midi":42,"time":114.7766709375009,"velocity":0.5511811023622047,"duration":0.02976187500000549},{"name":"A#4","midi":70,"time":114.9998850000009,"velocity":0.5511811023622047,"duration":0.233134687499998},{"name":"A#4","midi":70,"time":115.2379800000009,"velocity":0.5511811023622047,"duration":0.233134687499998},{"name":"B1","midi":35,"time":115.2379800000009,"velocity":0.7874015748031497,"duration":0.233134687499998},{"name":"F#2","midi":42,"time":115.2528609375009,"velocity":0.5511811023622047,"duration":0.02976187500000549},{"name":"A#4","midi":70,"time":115.4760750000009,"velocity":0.5511811023622047,"duration":0.233134687499998},{"name":"A#4","midi":70,"time":115.7141700000009,"velocity":0.5511811023622047,"duration":0.233134687499998},{"name":"D2","midi":38,"time":115.7141700000009,"velocity":0.7874015748031497,"duration":0.233134687499998},{"name":"F#2","midi":42,"time":115.7290509375009,"velocity":0.5511811023622047,"duration":0.02976187500000549},{"name":"B1","midi":35,"time":115.9522650000009,"velocity":0.7874015748031497,"duration":0.233134687499998},{"name":"A#4","midi":70,"time":115.9522650000009,"velocity":0.5511811023622047,"duration":0.233134687499998},{"name":"A#4","midi":70,"time":116.19036000000091,"velocity":0.5511811023622047,"duration":0.233134687499998},{"name":"F#2","midi":42,"time":116.2052409375009,"velocity":0.5511811023622047,"duration":0.02976187500000549},{"name":"A#4","midi":70,"time":116.42845500000091,"velocity":0.48031496062992124,"duration":0.233134687499998},{"name":"A#4","midi":70,"time":116.66655000000091,"velocity":0.4015748031496063,"duration":0.233134687499998},{"name":"F#2","midi":42,"time":116.6814309375009,"velocity":0.3937007874015748,"duration":0.02976187500000549},{"name":"A#4","midi":70,"time":116.90464500000091,"velocity":0.3228346456692913,"duration":0.233134687499998},{"name":"A#4","midi":70,"time":117.14274000000091,"velocity":0.2440944881889764,"duration":0.233134687499998},{"name":"F#2","midi":42,"time":117.15762093750091,"velocity":0.23622047244094488,"duration":0.02976187500000549},{"name":"A#4","midi":70,"time":117.38083500000091,"velocity":0.16535433070866143,"duration":0.233134687499998},{"name":"A#4","midi":70,"time":117.61893000000092,"velocity":0.08661417322834646,"duration":0.233134687499998},{"name":"F#2","midi":42,"time":117.63381093750091,"velocity":0.08661417322834646,"duration":0.02976187500000549},{"name":"A#4","midi":70,"time":117.85702500000092,"velocity":0.007874015748031496,"duration":0.233134687499998}],"controlChanges":{"7":[{"number":7,"time":0,"value":0.8267716535433071}],"10":[{"number":10,"time":0,"value":0.5039370078740157},{"number":10,"time":0.011160703125000001,"value":0},{"number":10,"time":0.019841249999999998,"value":0.5039370078740157},{"number":10,"time":0.487350703125,"value":0},{"number":10,"time":0.49603125000000003,"value":0.5039370078740157},{"number":10,"time":0.9635407031249998,"value":0},{"number":10,"time":0.9722212499999998,"value":0.5039370078740157},{"number":10,"time":1.4397307031249997,"value":0},{"number":10,"time":1.4484112499999997,"value":0.5039370078740157},{"number":10,"time":1.9159207031249996,"value":0},{"number":10,"time":1.9246012499999996,"value":0.5039370078740157},{"number":10,"time":2.3921107031249997,"value":0},{"number":10,"time":2.4007912499999997,"value":0.5039370078740157},{"number":10,"time":2.8683007031249996,"value":0},{"number":10,"time":2.8769812499999996,"value":0.5039370078740157},{"number":10,"time":3.3444907031249995,"value":0},{"number":10,"time":3.3531712499999995,"value":0.5039370078740157},{"number":10,"time":3.8206807031249994,"value":0},{"number":10,"time":3.8293612499999994,"value":0.5039370078740157},{"number":10,"time":4.296870703124999,"value":0},{"number":10,"time":4.305551249999999,"value":0.5039370078740157},{"number":10,"time":4.773060703124999,"value":0},{"number":10,"time":4.781741249999999,"value":0.5039370078740157},{"number":10,"time":5.249250703124999,"value":0},{"number":10,"time":5.257931249999999,"value":0.5039370078740157},{"number":10,"time":5.725440703124999,"value":0},{"number":10,"time":5.7341212499999985,"value":0.5039370078740157},{"number":10,"time":6.201630703124999,"value":0},{"number":10,"time":6.210311249999998,"value":0.5039370078740157},{"number":10,"time":6.677820703124999,"value":0},{"number":10,"time":6.686501249999998,"value":0.5039370078740157},{"number":10,"time":7.154010703124999,"value":0},{"number":10,"time":7.162691249999998,"value":0.5039370078740157},{"number":10,"time":7.6302007031249985,"value":0},{"number":10,"time":7.638881249999998,"value":0.5039370078740157},{"number":10,"time":8.106390703125,"value":0},{"number":10,"time":8.11507125,"value":0.5039370078740157},{"number":10,"time":8.582580703125,"value":0},{"number":10,"time":8.59126125,"value":0.5039370078740157},{"number":10,"time":9.058770703125,"value":0},{"number":10,"time":9.067451250000001,"value":0.5039370078740157},{"number":10,"time":9.534960703125002,"value":0},{"number":10,"time":9.543641250000002,"value":0.5039370078740157},{"number":10,"time":10.011150703125002,"value":0},{"number":10,"time":10.019831250000003,"value":0.5039370078740157},{"number":10,"time":10.487340703125003,"value":0},{"number":10,"time":10.496021250000004,"value":0.5039370078740157},{"number":10,"time":10.963530703125004,"value":0},{"number":10,"time":10.972211250000004,"value":0.5039370078740157},{"number":10,"time":11.439720703125005,"value":0},{"number":10,"time":11.448401250000005,"value":0.5039370078740157},{"number":10,"time":11.915910703125006,"value":0},{"number":10,"time":11.924591250000006,"value":0.5039370078740157},{"number":10,"time":12.392100703125006,"value":0},{"number":10,"time":12.400781250000007,"value":0.5039370078740157},{"number":10,"time":12.868290703125007,"value":0},{"number":10,"time":12.876971250000008,"value":0.5039370078740157},{"number":10,"time":13.344480703125008,"value":0},{"number":10,"time":13.353161250000008,"value":0.5039370078740157},{"number":10,"time":13.820670703125009,"value":0},{"number":10,"time":13.829351250000009,"value":0.5039370078740157},{"number":10,"time":14.29686070312501,"value":0},{"number":10,"time":14.30554125000001,"value":0.5039370078740157},{"number":10,"time":14.77305070312501,"value":0},{"number":10,"time":14.78173125000001,"value":0.5039370078740157},{"number":10,"time":15.249240703125011,"value":0},{"number":10,"time":15.257921250000011,"value":0.5039370078740157},{"number":10,"time":15.725430703125012,"value":0},{"number":10,"time":15.734111250000012,"value":0.5039370078740157},{"number":10,"time":16.201620703125013,"value":0},{"number":10,"time":16.21030125000001,"value":0.5039370078740157},{"number":10,"time":16.67781070312501,"value":0},{"number":10,"time":16.68649125000001,"value":0.5039370078740157},{"number":10,"time":17.15400070312501,"value":0},{"number":10,"time":17.16268125000001,"value":0.5039370078740157},{"number":10,"time":17.63019070312501,"value":0},{"number":10,"time":17.638871250000008,"value":0.5039370078740157},{"number":10,"time":18.10638070312501,"value":0},{"number":10,"time":18.115061250000007,"value":0.5039370078740157},{"number":10,"time":18.582570703125008,"value":0},{"number":10,"time":18.591251250000006,"value":0.5039370078740157},{"number":10,"time":19.058760703125007,"value":0},{"number":10,"time":19.067441250000005,"value":0.5039370078740157},{"number":10,"time":19.534950703125006,"value":0},{"number":10,"time":19.543631250000004,"value":0.5039370078740157},{"number":10,"time":20.011140703125005,"value":0},{"number":10,"time":20.019821250000003,"value":0.5039370078740157},{"number":10,"time":20.487330703125004,"value":0},{"number":10,"time":20.496011250000002,"value":0.5039370078740157},{"number":10,"time":20.963520703125003,"value":0},{"number":10,"time":20.97220125,"value":0.5039370078740157},{"number":10,"time":21.439710703125,"value":0},{"number":10,"time":21.44839125,"value":0.5039370078740157},{"number":10,"time":21.915900703125,"value":0},{"number":10,"time":21.92458125,"value":0.5039370078740157},{"number":10,"time":22.392090703125,"value":0},{"number":10,"time":22.40077125,"value":0.5039370078740157},{"number":10,"time":22.868280703125,"value":0},{"number":10,"time":22.876961249999997,"value":0.5039370078740157},{"number":10,"time":23.344470703124998,"value":0},{"number":10,"time":23.353151249999996,"value":0.5039370078740157},{"number":10,"time":23.820660703124997,"value":0},{"number":10,"time":23.829341249999995,"value":0.5039370078740157},{"number":10,"time":24.296850703124996,"value":0},{"number":10,"time":24.305531249999994,"value":0.5039370078740157},{"number":10,"time":24.773040703124995,"value":0},{"number":10,"time":24.781721249999993,"value":0.5039370078740157},{"number":10,"time":25.249230703124994,"value":0},{"number":10,"time":25.257911249999992,"value":0.5039370078740157},{"number":10,"time":25.725420703124993,"value":0},{"number":10,"time":25.73410124999999,"value":0.5039370078740157},{"number":10,"time":26.20161070312499,"value":0},{"number":10,"time":26.21029124999999,"value":0.5039370078740157},{"number":10,"time":26.67780070312499,"value":0},{"number":10,"time":26.68648124999999,"value":0.5039370078740157},{"number":10,"time":27.15399070312499,"value":0},{"number":10,"time":27.16267124999999,"value":0.5039370078740157},{"number":10,"time":27.63018070312499,"value":0},{"number":10,"time":27.638861249999987,"value":0.5039370078740157},{"number":10,"time":28.106370703124988,"value":0},{"number":10,"time":28.115051249999986,"value":0.5039370078740157},{"number":10,"time":28.582560703124987,"value":0},{"number":10,"time":28.591241249999985,"value":0.5039370078740157},{"number":10,"time":29.058750703124986,"value":0},{"number":10,"time":29.067431249999984,"value":0.5039370078740157},{"number":10,"time":29.534940703124985,"value":0},{"number":10,"time":29.543621249999983,"value":0.5039370078740157},{"number":10,"time":30.011130703124984,"value":0},{"number":10,"time":30.019811249999982,"value":0.5039370078740157},{"number":10,"time":30.487320703124983,"value":0},{"number":10,"time":30.49600124999998,"value":0.5039370078740157},{"number":10,"time":30.96351070312498,"value":0},{"number":10,"time":30.97219124999998,"value":0.5039370078740157},{"number":10,"time":31.43970070312498,"value":0},{"number":10,"time":31.44838124999998,"value":0.5039370078740157},{"number":10,"time":31.91589070312498,"value":0},{"number":10,"time":31.92457124999998,"value":0.5039370078740157},{"number":10,"time":32.39208070312498,"value":0},{"number":10,"time":32.40076124999999,"value":0.5039370078740157},{"number":10,"time":32.86827070312499,"value":0},{"number":10,"time":32.87695125,"value":0.5039370078740157},{"number":10,"time":33.344460703125,"value":0},{"number":10,"time":33.35314125000001,"value":0.5039370078740157},{"number":10,"time":33.82065070312501,"value":0},{"number":10,"time":33.82933125000002,"value":0.5039370078740157},{"number":10,"time":34.29684070312502,"value":0},{"number":10,"time":34.30552125000003,"value":0.5039370078740157},{"number":10,"time":34.77303070312503,"value":0},{"number":10,"time":34.781711250000036,"value":0.5039370078740157},{"number":10,"time":35.24922070312504,"value":0},{"number":10,"time":35.257901250000046,"value":0.5039370078740157},{"number":10,"time":35.72541070312505,"value":0},{"number":10,"time":35.734091250000056,"value":0.5039370078740157},{"number":10,"time":36.20160070312506,"value":0},{"number":10,"time":36.210281250000065,"value":0.5039370078740157},{"number":10,"time":36.67779070312507,"value":0},{"number":10,"time":36.686471250000075,"value":0.5039370078740157},{"number":10,"time":37.15398070312508,"value":0},{"number":10,"time":37.162661250000085,"value":0.5039370078740157},{"number":10,"time":37.63017070312509,"value":0},{"number":10,"time":37.638851250000094,"value":0.5039370078740157},{"number":10,"time":38.1063607031251,"value":0},{"number":10,"time":38.115041250000104,"value":0.5039370078740157},{"number":10,"time":38.58255070312511,"value":0},{"number":10,"time":38.591231250000114,"value":0.5039370078740157},{"number":10,"time":39.05874070312512,"value":0},{"number":10,"time":39.06742125000012,"value":0.5039370078740157},{"number":10,"time":39.53493070312513,"value":0},{"number":10,"time":39.54361125000013,"value":0.5039370078740157},{"number":10,"time":40.01112070312514,"value":0},{"number":10,"time":40.01980125000014,"value":0.5039370078740157},{"number":10,"time":40.48731070312515,"value":0},{"number":10,"time":40.49599125000015,"value":0.5039370078740157},{"number":10,"time":40.963500703125156,"value":0},{"number":10,"time":40.97218125000016,"value":0.5039370078740157},{"number":10,"time":41.439690703125166,"value":0},{"number":10,"time":41.44837125000017,"value":0.5039370078740157},{"number":10,"time":41.915880703125175,"value":0},{"number":10,"time":41.92456125000018,"value":0.5039370078740157},{"number":10,"time":42.392070703125185,"value":0},{"number":10,"time":42.40075125000019,"value":0.5039370078740157},{"number":10,"time":42.868260703125195,"value":0},{"number":10,"time":42.8769412500002,"value":0.5039370078740157},{"number":10,"time":43.344450703125204,"value":0},{"number":10,"time":43.35313125000021,"value":0.5039370078740157},{"number":10,"time":43.820640703125214,"value":0},{"number":10,"time":43.82932125000022,"value":0.5039370078740157},{"number":10,"time":44.296830703125224,"value":0},{"number":10,"time":44.30551125000023,"value":0.5039370078740157},{"number":10,"time":44.77302070312523,"value":0},{"number":10,"time":44.78170125000024,"value":0.5039370078740157},{"number":10,"time":45.24921070312524,"value":0},{"number":10,"time":45.25789125000025,"value":0.5039370078740157},{"number":10,"time":45.72540070312525,"value":0},{"number":10,"time":45.73408125000026,"value":0.5039370078740157},{"number":10,"time":46.20159070312526,"value":0},{"number":10,"time":46.21027125000027,"value":0.5039370078740157},{"number":10,"time":46.67778070312527,"value":0},{"number":10,"time":46.68646125000028,"value":0.5039370078740157},{"number":10,"time":47.15397070312528,"value":0},{"number":10,"time":47.16265125000029,"value":0.5039370078740157},{"number":10,"time":47.63016070312529,"value":0},{"number":10,"time":47.6388412500003,"value":0.5039370078740157},{"number":10,"time":48.1063507031253,"value":0},{"number":10,"time":48.11503125000031,"value":0.5039370078740157},{"number":10,"time":48.58254070312531,"value":0},{"number":10,"time":48.591221250000316,"value":0.5039370078740157},{"number":10,"time":49.05873070312532,"value":0},{"number":10,"time":49.067411250000326,"value":0.5039370078740157},{"number":10,"time":49.53492070312533,"value":0},{"number":10,"time":49.543601250000336,"value":0.5039370078740157},{"number":10,"time":50.01111070312534,"value":0},{"number":10,"time":50.019791250000345,"value":0.5039370078740157},{"number":10,"time":50.48730070312535,"value":0},{"number":10,"time":50.495981250000355,"value":0.5039370078740157},{"number":10,"time":50.96349070312536,"value":0},{"number":10,"time":50.972171250000365,"value":0.5039370078740157},{"number":10,"time":51.43968070312537,"value":0},{"number":10,"time":51.448361250000374,"value":0.5039370078740157},{"number":10,"time":51.91587070312538,"value":0},{"number":10,"time":51.924551250000384,"value":0.5039370078740157},{"number":10,"time":52.39206070312539,"value":0},{"number":10,"time":52.400741250000394,"value":0.5039370078740157},{"number":10,"time":52.8682507031254,"value":0},{"number":10,"time":52.8769312500004,"value":0.5039370078740157},{"number":10,"time":53.34444070312541,"value":0},{"number":10,"time":53.35312125000041,"value":0.5039370078740157},{"number":10,"time":53.82063070312542,"value":0},{"number":10,"time":53.82931125000042,"value":0.5039370078740157},{"number":10,"time":54.29682070312543,"value":0},{"number":10,"time":54.30550125000043,"value":0.5039370078740157},{"number":10,"time":54.773010703125436,"value":0},{"number":10,"time":54.78169125000044,"value":0.5039370078740157},{"number":10,"time":55.249200703125446,"value":0},{"number":10,"time":55.25788125000045,"value":0.5039370078740157},{"number":10,"time":55.725390703125456,"value":0},{"number":10,"time":55.73407125000046,"value":0.5039370078740157},{"number":10,"time":56.201580703125465,"value":0},{"number":10,"time":56.21026125000047,"value":0.5039370078740157},{"number":10,"time":56.677770703125475,"value":0},{"number":10,"time":56.68645125000048,"value":0.5039370078740157},{"number":10,"time":57.153960703125485,"value":0},{"number":10,"time":57.16264125000049,"value":0.5039370078740157},{"number":10,"time":57.630150703125494,"value":0},{"number":10,"time":57.6388312500005,"value":0.5039370078740157},{"number":10,"time":58.106340703125504,"value":0},{"number":10,"time":58.11502125000051,"value":0.5039370078740157},{"number":10,"time":58.582530703125514,"value":0},{"number":10,"time":58.59121125000052,"value":0.5039370078740157},{"number":10,"time":59.05872070312552,"value":0},{"number":10,"time":59.06740125000053,"value":0.5039370078740157},{"number":10,"time":59.53491070312553,"value":0},{"number":10,"time":59.54359125000054,"value":0.5039370078740157},{"number":10,"time":60.01110070312554,"value":0},{"number":10,"time":60.01978125000055,"value":0.5039370078740157},{"number":10,"time":60.48729070312555,"value":0},{"number":10,"time":60.49597125000056,"value":0.5039370078740157},{"number":10,"time":60.96348070312556,"value":0},{"number":10,"time":60.97216125000057,"value":0.5039370078740157},{"number":10,"time":61.43967070312557,"value":0},{"number":10,"time":61.44835125000058,"value":0.5039370078740157},{"number":10,"time":61.91586070312558,"value":0},{"number":10,"time":61.92454125000059,"value":0.5039370078740157},{"number":10,"time":62.39205070312559,"value":0},{"number":10,"time":62.4007312500006,"value":0.5039370078740157},{"number":10,"time":62.8682407031256,"value":0},{"number":10,"time":62.876921250000606,"value":0.5039370078740157},{"number":10,"time":63.34443070312561,"value":0},{"number":10,"time":63.353111250000616,"value":0.5039370078740157},{"number":10,"time":63.82062070312562,"value":0},{"number":10,"time":63.829301250000626,"value":0.5039370078740157},{"number":10,"time":64.29681070312563,"value":0},{"number":10,"time":64.30549125000063,"value":0.5039370078740157},{"number":10,"time":64.77300070312563,"value":0},{"number":10,"time":64.78168125000063,"value":0.5039370078740157},{"number":10,"time":65.24919070312563,"value":0},{"number":10,"time":65.25787125000063,"value":0.5039370078740157},{"number":10,"time":65.72538070312564,"value":0},{"number":10,"time":65.73406125000064,"value":0.5039370078740157},{"number":10,"time":66.20157070312564,"value":0},{"number":10,"time":66.21025125000064,"value":0.5039370078740157},{"number":10,"time":66.67776070312564,"value":0},{"number":10,"time":66.68644125000064,"value":0.5039370078740157},{"number":10,"time":67.15395070312564,"value":0},{"number":10,"time":67.16263125000064,"value":0.5039370078740157},{"number":10,"time":67.63014070312565,"value":0},{"number":10,"time":67.63882125000065,"value":0.5039370078740157},{"number":10,"time":68.10633070312565,"value":0},{"number":10,"time":68.11501125000065,"value":0.5039370078740157},{"number":10,"time":68.58252070312565,"value":0},{"number":10,"time":68.59120125000065,"value":0.5039370078740157},{"number":10,"time":69.05871070312566,"value":0},{"number":10,"time":69.06739125000065,"value":0.5039370078740157},{"number":10,"time":69.53490070312566,"value":0},{"number":10,"time":69.54358125000066,"value":0.5039370078740157},{"number":10,"time":70.01109070312566,"value":0},{"number":10,"time":70.01977125000066,"value":0.5039370078740157},{"number":10,"time":70.48728070312566,"value":0},{"number":10,"time":70.49596125000066,"value":0.5039370078740157},{"number":10,"time":70.96347070312567,"value":0},{"number":10,"time":70.97215125000066,"value":0.5039370078740157},{"number":10,"time":71.43966070312567,"value":0},{"number":10,"time":71.44834125000067,"value":0.5039370078740157},{"number":10,"time":71.91585070312567,"value":0},{"number":10,"time":71.92453125000067,"value":0.5039370078740157},{"number":10,"time":72.39204070312567,"value":0},{"number":10,"time":72.40072125000067,"value":0.5039370078740157},{"number":10,"time":72.86823070312568,"value":0},{"number":10,"time":72.87691125000067,"value":0.5039370078740157},{"number":10,"time":73.34442070312568,"value":0},{"number":10,"time":73.35310125000068,"value":0.5039370078740157},{"number":10,"time":73.82061070312568,"value":0},{"number":10,"time":73.82929125000068,"value":0.5039370078740157},{"number":10,"time":74.29680070312568,"value":0},{"number":10,"time":74.30548125000068,"value":0.5039370078740157},{"number":10,"time":74.77299070312569,"value":0},{"number":10,"time":74.78167125000068,"value":0.5039370078740157},{"number":10,"time":75.24918070312569,"value":0},{"number":10,"time":75.25786125000069,"value":0.5039370078740157},{"number":10,"time":75.72537070312569,"value":0},{"number":10,"time":75.73405125000069,"value":0.5039370078740157},{"number":10,"time":76.2015607031257,"value":0},{"number":10,"time":76.21024125000069,"value":0.5039370078740157},{"number":10,"time":76.6777507031257,"value":0},{"number":10,"time":76.6864312500007,"value":0.5039370078740157},{"number":10,"time":77.1539407031257,"value":0},{"number":10,"time":77.1626212500007,"value":0.5039370078740157},{"number":10,"time":77.6301307031257,"value":0},{"number":10,"time":77.6388112500007,"value":0.5039370078740157},{"number":10,"time":78.1063207031257,"value":0},{"number":10,"time":78.1150012500007,"value":0.5039370078740157},{"number":10,"time":78.5825107031257,"value":0},{"number":10,"time":78.5911912500007,"value":0.5039370078740157},{"number":10,"time":79.05870070312571,"value":0},{"number":10,"time":79.06738125000071,"value":0.5039370078740157},{"number":10,"time":79.53489070312571,"value":0},{"number":10,"time":79.54357125000071,"value":0.5039370078740157},{"number":10,"time":80.01108070312571,"value":0},{"number":10,"time":80.01976125000071,"value":0.5039370078740157},{"number":10,"time":80.48727070312572,"value":0},{"number":10,"time":80.49595125000072,"value":0.5039370078740157},{"number":10,"time":80.96346070312572,"value":0},{"number":10,"time":80.97214125000072,"value":0.5039370078740157},{"number":10,"time":81.43965070312572,"value":0},{"number":10,"time":81.44833125000072,"value":0.5039370078740157},{"number":10,"time":81.91584070312572,"value":0},{"number":10,"time":81.92452125000072,"value":0.5039370078740157},{"number":10,"time":82.39203070312573,"value":0},{"number":10,"time":82.40071125000073,"value":0.5039370078740157},{"number":10,"time":82.86822070312573,"value":0},{"number":10,"time":82.87690125000073,"value":0.5039370078740157},{"number":10,"time":83.34441070312573,"value":0},{"number":10,"time":83.35309125000073,"value":0.5039370078740157},{"number":10,"time":83.82060070312573,"value":0},{"number":10,"time":83.82928125000073,"value":0.5039370078740157},{"number":10,"time":84.29679070312574,"value":0},{"number":10,"time":84.30547125000074,"value":0.5039370078740157},{"number":10,"time":84.77298070312574,"value":0},{"number":10,"time":84.78166125000074,"value":0.5039370078740157},{"number":10,"time":85.24917070312574,"value":0},{"number":10,"time":85.25785125000074,"value":0.5039370078740157},{"number":10,"time":85.72536070312574,"value":0},{"number":10,"time":85.73404125000074,"value":0.5039370078740157},{"number":10,"time":86.20155070312575,"value":0},{"number":10,"time":86.21023125000075,"value":0.5039370078740157},{"number":10,"time":86.67774070312575,"value":0},{"number":10,"time":86.68642125000075,"value":0.5039370078740157},{"number":10,"time":87.15393070312575,"value":0},{"number":10,"time":87.16261125000075,"value":0.5039370078740157},{"number":10,"time":87.63012070312575,"value":0},{"number":10,"time":87.63880125000075,"value":0.5039370078740157},{"number":10,"time":88.10631070312576,"value":0},{"number":10,"time":88.11499125000076,"value":0.5039370078740157},{"number":10,"time":88.58250070312576,"value":0},{"number":10,"time":88.59118125000076,"value":0.5039370078740157},{"number":10,"time":89.05869070312576,"value":0},{"number":10,"time":89.06737125000076,"value":0.5039370078740157},{"number":10,"time":89.53488070312576,"value":0},{"number":10,"time":89.54356125000076,"value":0.5039370078740157},{"number":10,"time":90.01107070312577,"value":0},{"number":10,"time":90.01975125000077,"value":0.5039370078740157},{"number":10,"time":90.48726070312577,"value":0},{"number":10,"time":90.49594125000077,"value":0.5039370078740157},{"number":10,"time":90.96345070312577,"value":0},{"number":10,"time":90.97213125000077,"value":0.5039370078740157},{"number":10,"time":91.43964070312578,"value":0},{"number":10,"time":91.44832125000077,"value":0.5039370078740157},{"number":10,"time":91.91583070312578,"value":0},{"number":10,"time":91.92451125000078,"value":0.5039370078740157},{"number":10,"time":92.39202070312578,"value":0},{"number":10,"time":92.40070125000078,"value":0.5039370078740157},{"number":10,"time":92.86821070312578,"value":0},{"number":10,"time":92.87689125000078,"value":0.5039370078740157},{"number":10,"time":93.34440070312579,"value":0},{"number":10,"time":93.35308125000078,"value":0.5039370078740157},{"number":10,"time":93.82059070312579,"value":0},{"number":10,"time":93.82927125000079,"value":0.5039370078740157},{"number":10,"time":94.29678070312579,"value":0},{"number":10,"time":94.30546125000079,"value":0.5039370078740157},{"number":10,"time":94.7729707031258,"value":0},{"number":10,"time":94.78165125000079,"value":0.5039370078740157},{"number":10,"time":95.2491607031258,"value":0},{"number":10,"time":95.2578412500008,"value":0.5039370078740157},{"number":10,"time":95.7253507031258,"value":0},{"number":10,"time":95.7340312500008,"value":0.5039370078740157},{"number":10,"time":96.2015407031258,"value":0},{"number":10,"time":96.2102212500008,"value":0.5039370078740157},{"number":10,"time":96.6777307031258,"value":0},{"number":10,"time":96.6864112500008,"value":0.5039370078740157},{"number":10,"time":97.1539207031258,"value":0},{"number":10,"time":97.1626012500008,"value":0.5039370078740157},{"number":10,"time":97.63011070312581,"value":0},{"number":10,"time":97.6387912500008,"value":0.5039370078740157},{"number":10,"time":98.10630070312581,"value":0},{"number":10,"time":98.11498125000081,"value":0.5039370078740157},{"number":10,"time":98.58249070312581,"value":0},{"number":10,"time":98.59117125000081,"value":0.5039370078740157},{"number":10,"time":99.05868070312582,"value":0},{"number":10,"time":99.06736125000081,"value":0.5039370078740157},{"number":10,"time":99.53487070312582,"value":0},{"number":10,"time":99.54355125000082,"value":0.5039370078740157},{"number":10,"time":100.01106070312582,"value":0},{"number":10,"time":100.01974125000082,"value":0.5039370078740157},{"number":10,"time":100.48725070312582,"value":0},{"number":10,"time":100.49593125000082,"value":0.5039370078740157},{"number":10,"time":100.96344070312583,"value":0},{"number":10,"time":100.97212125000082,"value":0.5039370078740157},{"number":10,"time":101.43963070312583,"value":0},{"number":10,"time":101.44831125000083,"value":0.5039370078740157},{"number":10,"time":101.91582070312583,"value":0},{"number":10,"time":101.92450125000083,"value":0.5039370078740157},{"number":10,"time":102.39201070312583,"value":0},{"number":10,"time":102.40069125000083,"value":0.5039370078740157},{"number":10,"time":102.86820070312584,"value":0},{"number":10,"time":102.87688125000084,"value":0.5039370078740157},{"number":10,"time":103.34439070312584,"value":0},{"number":10,"time":103.35307125000084,"value":0.5039370078740157},{"number":10,"time":103.82058070312584,"value":0},{"number":10,"time":103.82926125000084,"value":0.5039370078740157},{"number":10,"time":104.29677070312584,"value":0},{"number":10,"time":104.30545125000084,"value":0.5039370078740157},{"number":10,"time":104.77296070312585,"value":0},{"number":10,"time":104.78164125000085,"value":0.5039370078740157},{"number":10,"time":105.24915070312585,"value":0},{"number":10,"time":105.25783125000085,"value":0.5039370078740157},{"number":10,"time":105.72534070312585,"value":0},{"number":10,"time":105.73402125000085,"value":0.5039370078740157},{"number":10,"time":106.20153070312585,"value":0},{"number":10,"time":106.21021125000085,"value":0.5039370078740157},{"number":10,"time":106.67772070312586,"value":0},{"number":10,"time":106.68640125000086,"value":0.5039370078740157},{"number":10,"time":107.15391070312586,"value":0},{"number":10,"time":107.16259125000086,"value":0.5039370078740157},{"number":10,"time":107.63010070312586,"value":0},{"number":10,"time":107.63878125000086,"value":0.5039370078740157},{"number":10,"time":108.10629070312586,"value":0},{"number":10,"time":108.11497125000086,"value":0.5039370078740157},{"number":10,"time":108.58248070312587,"value":0},{"number":10,"time":108.59116125000087,"value":0.5039370078740157},{"number":10,"time":109.05867070312587,"value":0},{"number":10,"time":109.06735125000087,"value":0.5039370078740157},{"number":10,"time":109.53486070312587,"value":0},{"number":10,"time":109.54354125000087,"value":0.5039370078740157},{"number":10,"time":110.01105070312587,"value":0},{"number":10,"time":110.01973125000087,"value":0.5039370078740157},{"number":10,"time":110.48724070312588,"value":0},{"number":10,"time":110.49592125000088,"value":0.5039370078740157},{"number":10,"time":110.96343070312588,"value":0},{"number":10,"time":110.97211125000088,"value":0.5039370078740157},{"number":10,"time":111.43962070312588,"value":0},{"number":10,"time":111.44830125000088,"value":0.5039370078740157},{"number":10,"time":111.91581070312589,"value":0},{"number":10,"time":111.92449125000088,"value":0.5039370078740157},{"number":10,"time":112.39200070312589,"value":0},{"number":10,"time":112.40068125000089,"value":0.5039370078740157},{"number":10,"time":112.86819070312589,"value":0},{"number":10,"time":112.87687125000089,"value":0.5039370078740157},{"number":10,"time":113.34438070312589,"value":0},{"number":10,"time":113.35306125000089,"value":0.5039370078740157},{"number":10,"time":113.8205707031259,"value":0},{"number":10,"time":113.8292512500009,"value":0.5039370078740157},{"number":10,"time":114.2967607031259,"value":0},{"number":10,"time":114.3054412500009,"value":0.5039370078740157},{"number":10,"time":114.7729507031259,"value":0},{"number":10,"time":114.7816312500009,"value":0.5039370078740157},{"number":10,"time":115.2491407031259,"value":0},{"number":10,"time":115.2578212500009,"value":0.5039370078740157},{"number":10,"time":115.7253307031259,"value":0},{"number":10,"time":115.7340112500009,"value":0.5039370078740157},{"number":10,"time":116.20152070312591,"value":0},{"number":10,"time":116.2102012500009,"value":0.5039370078740157},{"number":10,"time":116.67771070312591,"value":0},{"number":10,"time":116.68639125000091,"value":0.5039370078740157},{"number":10,"time":117.15390070312591,"value":0},{"number":10,"time":117.16258125000091,"value":0.5039370078740157},{"number":10,"time":117.63009070312592,"value":0},{"number":10,"time":117.63877125000091,"value":0.5039370078740157}],"91":[{"number":91,"time":0,"value":0.16535433070866143}],"93":[{"number":93,"time":0,"value":0.14960629921259844}]},"id":8,"name":"Drums","instrumentNumber":0,"instrument":"standard kit","instrumentFamily":"drums","channelNumber":9,"isPercussion":true},{"startTime":0.0049603124999999994,"duration":118.09015968750276,"length":744,"notes":[{"name":"E4","midi":64,"time":0.0049603124999999994,"velocity":0.7874015748031497,"duration":0.1140871875},{"name":"D#4","midi":63,"time":0.238095,"velocity":0.7874015748031497,"duration":0.11408718749999996},{"name":"D#4","midi":63,"time":0.3571425,"velocity":0.7874015748031497,"duration":0.11408718750000002},{"name":"D4","midi":62,"time":0.47619,"velocity":0.7874015748031497,"duration":0.11408718750000002},{"name":"D#4","midi":63,"time":0.7142850000000001,"velocity":0.7874015748031497,"duration":0.11408718750000002},{"name":"D#4","midi":63,"time":0.8333325,"velocity":0.7874015748031497,"duration":0.11408718750000002},{"name":"E4","midi":64,"time":0.95238,"velocity":0.7874015748031497,"duration":0.11408718750000002},{"name":"D#4","midi":63,"time":1.190475,"velocity":0.7874015748031497,"duration":0.1140871874999998},{"name":"D#4","midi":63,"time":1.3095224999999997,"velocity":0.7874015748031497,"duration":0.1140871874999998},{"name":"D4","midi":62,"time":1.4285699999999995,"velocity":0.7874015748031497,"duration":0.1140871874999998},{"name":"D#4","midi":63,"time":1.6666649999999992,"velocity":0.7874015748031497,"duration":0.11408718750000002},{"name":"D#4","midi":63,"time":1.7857124999999991,"velocity":0.7874015748031497,"duration":0.1140871874999998},{"name":"E4","midi":64,"time":1.9097203124999989,"velocity":0.7874015748031497,"duration":0.11408718750000002},{"name":"D#4","midi":63,"time":2.142854999999999,"velocity":0.7874015748031497,"duration":0.11408718750000002},{"name":"D#4","midi":63,"time":2.2619024999999993,"velocity":0.7874015748031497,"duration":0.11408718750000002},{"name":"D4","midi":62,"time":2.3809499999999995,"velocity":0.7874015748031497,"duration":0.11408718750000002},{"name":"D#4","midi":63,"time":2.6190449999999994,"velocity":0.7874015748031497,"duration":0.11408718750000002},{"name":"D#4","midi":63,"time":2.7380924999999996,"velocity":0.7874015748031497,"duration":0.11408718750000002},{"name":"E4","midi":64,"time":2.85714,"velocity":0.7874015748031497,"duration":0.11408718750000002},{"name":"D#4","midi":63,"time":3.0952349999999997,"velocity":0.7874015748031497,"duration":0.11408718750000002},{"name":"D#4","midi":63,"time":3.2142825,"velocity":0.7874015748031497,"duration":0.11408718750000002},{"name":"D4","midi":62,"time":3.33333,"velocity":0.7874015748031497,"duration":0.11408718750000002},{"name":"D#4","midi":63,"time":3.571425,"velocity":0.7874015748031497,"duration":0.11408718750000002},{"name":"D#4","midi":63,"time":3.6904725000000003,"velocity":0.7874015748031497,"duration":0.11408718750000002},{"name":"E4","midi":64,"time":3.8144803125000006,"velocity":0.7874015748031497,"duration":0.11408718750000002},{"name":"D#4","midi":63,"time":4.047615,"velocity":0.7874015748031497,"duration":0.11408718750000002},{"name":"D#4","midi":63,"time":4.1666625,"velocity":0.7874015748031497,"duration":0.11408718750000002},{"name":"D4","midi":62,"time":4.28571,"velocity":0.7874015748031497,"duration":0.11408718750000002},{"name":"D#4","midi":63,"time":4.523805,"velocity":0.7874015748031497,"duration":0.11408718750000002},{"name":"D#4","midi":63,"time":4.6428525,"velocity":0.7874015748031497,"duration":0.11408718750000002},{"name":"E4","midi":64,"time":4.7619,"velocity":0.7874015748031497,"duration":0.11408718750000002},{"name":"D#4","midi":63,"time":4.999995,"velocity":0.7874015748031497,"duration":0.11408718750000002},{"name":"D#4","midi":63,"time":5.1190425,"velocity":0.7874015748031497,"duration":0.11408718750000002},{"name":"D4","midi":62,"time":5.23809,"velocity":0.7874015748031497,"duration":0.11408718750000002},{"name":"D#4","midi":63,"time":5.476185,"velocity":0.7874015748031497,"duration":0.11408718750000002},{"name":"D#4","midi":63,"time":5.5952325,"velocity":0.7874015748031497,"duration":0.11408718750000002},{"name":"E4","midi":64,"time":5.719240312499999,"velocity":0.7874015748031497,"duration":0.11408718750000002},{"name":"D#4","midi":63,"time":5.952374999999999,"velocity":0.7874015748031497,"duration":0.11408718750000002},{"name":"D#4","midi":63,"time":6.071422499999999,"velocity":0.7874015748031497,"duration":0.11408718750000002},{"name":"D4","midi":62,"time":6.190469999999999,"velocity":0.7874015748031497,"duration":0.11408718750000002},{"name":"D#4","midi":63,"time":6.428564999999999,"velocity":0.7874015748031497,"duration":0.11408718750000002},{"name":"D#4","midi":63,"time":6.547612499999999,"velocity":0.7874015748031497,"duration":0.11408718750000002},{"name":"E4","midi":64,"time":6.6666599999999985,"velocity":0.7874015748031497,"duration":0.11408718750000002},{"name":"D#4","midi":63,"time":6.904754999999999,"velocity":0.7874015748031497,"duration":0.11408718750000002},{"name":"D#4","midi":63,"time":7.023802499999999,"velocity":0.7874015748031497,"duration":0.11408718750000002},{"name":"D4","midi":62,"time":7.142849999999998,"velocity":0.7874015748031497,"duration":0.11408718750000002},{"name":"D#4","midi":63,"time":7.380944999999999,"velocity":0.7874015748031497,"duration":0.11408718750000002},{"name":"D#4","midi":63,"time":7.4999924999999985,"velocity":0.7874015748031497,"duration":0.11408718750000002},{"name":"E4","midi":64,"time":7.624000312499998,"velocity":0.7874015748031497,"duration":0.11408718750000002},{"name":"D#4","midi":63,"time":7.857134999999998,"velocity":0.7874015748031497,"duration":0.11408718750000002},{"name":"D#4","midi":63,"time":7.9761824999999975,"velocity":0.7874015748031497,"duration":0.11408718750000002},{"name":"D4","midi":62,"time":8.095229999999997,"velocity":0.7874015748031497,"duration":0.11408718749999913},{"name":"D#4","midi":63,"time":8.333324999999997,"velocity":0.7874015748031497,"duration":0.11408718749999913},{"name":"D#4","midi":63,"time":8.452372499999996,"velocity":0.7874015748031497,"duration":0.11408718749999913},{"name":"E4","midi":64,"time":8.571419999999994,"velocity":0.7874015748031497,"duration":0.11408718749999913},{"name":"D#4","midi":63,"time":8.809514999999994,"velocity":0.7874015748031497,"duration":0.11408718749999913},{"name":"D#4","midi":63,"time":8.928562499999993,"velocity":0.7874015748031497,"duration":0.11408718749999913},{"name":"D4","midi":62,"time":9.047609999999992,"velocity":0.7874015748031497,"duration":0.11408718749999913},{"name":"D#4","midi":63,"time":9.285704999999991,"velocity":0.7874015748031497,"duration":0.11408718749999913},{"name":"D#4","midi":63,"time":9.40475249999999,"velocity":0.7874015748031497,"duration":0.11408718749999913},{"name":"E4","midi":64,"time":9.528760312499989,"velocity":0.7874015748031497,"duration":0.11408718749999913},{"name":"D#4","midi":63,"time":9.761894999999988,"velocity":0.7874015748031497,"duration":0.11408718749999913},{"name":"D#4","midi":63,"time":9.880942499999987,"velocity":0.7874015748031497,"duration":0.11408718749999913},{"name":"D4","midi":62,"time":9.999989999999986,"velocity":0.7874015748031497,"duration":0.11408718749999913},{"name":"D#4","midi":63,"time":10.238084999999986,"velocity":0.7874015748031497,"duration":0.11408718749999913},{"name":"D#4","midi":63,"time":10.357132499999985,"velocity":0.7874015748031497,"duration":0.11408718749999913},{"name":"E4","midi":64,"time":10.476179999999983,"velocity":0.7874015748031497,"duration":0.11408718749999913},{"name":"D#4","midi":63,"time":10.714274999999983,"velocity":0.7874015748031497,"duration":0.11408718749999913},{"name":"D#4","midi":63,"time":10.833322499999982,"velocity":0.7874015748031497,"duration":0.11408718749999913},{"name":"D4","midi":62,"time":10.95236999999998,"velocity":0.7874015748031497,"duration":0.11408718749999913},{"name":"D#4","midi":63,"time":11.19046499999998,"velocity":0.7874015748031497,"duration":0.11408718749999913},{"name":"D#4","midi":63,"time":11.309512499999979,"velocity":0.7874015748031497,"duration":0.11408718749999913},{"name":"E4","midi":64,"time":11.433520312499978,"velocity":0.7874015748031497,"duration":0.11408718749999913},{"name":"D#4","midi":63,"time":11.666654999999977,"velocity":0.7874015748031497,"duration":0.11408718749999913},{"name":"D#4","midi":63,"time":11.785702499999976,"velocity":0.7874015748031497,"duration":0.11408718749999913},{"name":"D4","midi":62,"time":11.904749999999975,"velocity":0.7874015748031497,"duration":0.11408718749999913},{"name":"D#4","midi":63,"time":12.142844999999975,"velocity":0.7874015748031497,"duration":0.11408718749999913},{"name":"D#4","midi":63,"time":12.261892499999973,"velocity":0.7874015748031497,"duration":0.11408718749999913},{"name":"E4","midi":64,"time":12.380939999999972,"velocity":0.7874015748031497,"duration":0.11408718749999913},{"name":"D#4","midi":63,"time":12.619034999999972,"velocity":0.7874015748031497,"duration":0.11408718749999913},{"name":"D#4","midi":63,"time":12.73808249999997,"velocity":0.7874015748031497,"duration":0.11408718749999913},{"name":"D4","midi":62,"time":12.85712999999997,"velocity":0.7874015748031497,"duration":0.11408718749999913},{"name":"D#4","midi":63,"time":13.095224999999969,"velocity":0.7874015748031497,"duration":0.11408718749999913},{"name":"D#4","midi":63,"time":13.214272499999968,"velocity":0.7874015748031497,"duration":0.11408718749999913},{"name":"E4","midi":64,"time":13.338280312499966,"velocity":0.7874015748031497,"duration":0.11408718749999913},{"name":"D#4","midi":63,"time":13.571414999999966,"velocity":0.7874015748031497,"duration":0.11408718749999913},{"name":"D#4","midi":63,"time":13.690462499999965,"velocity":0.7874015748031497,"duration":0.11408718749999913},{"name":"D4","midi":62,"time":13.809509999999964,"velocity":0.7874015748031497,"duration":0.11408718749999913},{"name":"D#4","midi":63,"time":14.047604999999963,"velocity":0.7874015748031497,"duration":0.11408718749999913},{"name":"D#4","midi":63,"time":14.166652499999962,"velocity":0.7874015748031497,"duration":0.11408718749999913},{"name":"E4","midi":64,"time":14.285699999999961,"velocity":0.7874015748031497,"duration":0.11408718749999913},{"name":"D#4","midi":63,"time":14.52379499999996,"velocity":0.7874015748031497,"duration":0.11408718749999913},{"name":"D#4","midi":63,"time":14.64284249999996,"velocity":0.7874015748031497,"duration":0.11408718749999913},{"name":"D4","midi":62,"time":14.761889999999958,"velocity":0.7874015748031497,"duration":0.11408718749999913},{"name":"D#4","midi":63,"time":14.999984999999958,"velocity":0.7874015748031497,"duration":0.11408718749999913},{"name":"D#4","midi":63,"time":15.119032499999957,"velocity":0.7874015748031497,"duration":0.11408718749999913},{"name":"E4","midi":64,"time":15.243040312499955,"velocity":0.7874015748031497,"duration":0.11408718749999913},{"name":"D#4","midi":63,"time":15.476174999999955,"velocity":0.7874015748031497,"duration":0.11408718749999913},{"name":"D#4","midi":63,"time":15.595222499999954,"velocity":0.7874015748031497,"duration":0.11408718749999913},{"name":"D4","midi":62,"time":15.714269999999953,"velocity":0.7874015748031497,"duration":0.11408718749999913},{"name":"D#4","midi":63,"time":15.952364999999952,"velocity":0.7874015748031497,"duration":0.11408718749999913},{"name":"D#4","midi":63,"time":16.07141249999995,"velocity":0.7874015748031497,"duration":0.11408718750000091},{"name":"E4","midi":64,"time":16.190459999999952,"velocity":0.7874015748031497,"duration":0.11408718750000091},{"name":"D#4","midi":63,"time":16.428554999999953,"velocity":0.7874015748031497,"duration":0.11408718750000091},{"name":"D#4","midi":63,"time":16.547602499999954,"velocity":0.7874015748031497,"duration":0.11408718750000091},{"name":"D4","midi":62,"time":16.666649999999954,"velocity":0.7874015748031497,"duration":0.11408718750000091},{"name":"D#4","midi":63,"time":16.904744999999956,"velocity":0.7874015748031497,"duration":0.11408718750000091},{"name":"D#4","midi":63,"time":17.023792499999956,"velocity":0.7874015748031497,"duration":0.11408718750000091},{"name":"E4","midi":64,"time":17.147800312499957,"velocity":0.7874015748031497,"duration":0.11408718750000091},{"name":"D#4","midi":63,"time":17.38093499999996,"velocity":0.7874015748031497,"duration":0.11408718750000091},{"name":"D#4","midi":63,"time":17.49998249999996,"velocity":0.7874015748031497,"duration":0.11408718750000091},{"name":"D4","midi":62,"time":17.61902999999996,"velocity":0.7874015748031497,"duration":0.11408718750000091},{"name":"D#4","midi":63,"time":17.85712499999996,"velocity":0.7874015748031497,"duration":0.11408718750000091},{"name":"D#4","midi":63,"time":17.97617249999996,"velocity":0.7874015748031497,"duration":0.11408718750000091},{"name":"E4","midi":64,"time":18.095219999999962,"velocity":0.7874015748031497,"duration":0.11408718750000091},{"name":"D#4","midi":63,"time":18.333314999999963,"velocity":0.7874015748031497,"duration":0.11408718750000091},{"name":"D#4","midi":63,"time":18.452362499999964,"velocity":0.7874015748031497,"duration":0.11408718750000091},{"name":"D4","midi":62,"time":18.571409999999965,"velocity":0.7874015748031497,"duration":0.11408718750000091},{"name":"D#4","midi":63,"time":18.809504999999966,"velocity":0.7874015748031497,"duration":0.11408718750000091},{"name":"D#4","midi":63,"time":18.928552499999967,"velocity":0.7874015748031497,"duration":0.11408718750000091},{"name":"E4","midi":64,"time":19.052560312499967,"velocity":0.7874015748031497,"duration":0.11408718750000091},{"name":"D#4","midi":63,"time":19.28569499999997,"velocity":0.7874015748031497,"duration":0.11408718750000091},{"name":"D#4","midi":63,"time":19.40474249999997,"velocity":0.7874015748031497,"duration":0.11408718750000091},{"name":"D4","midi":62,"time":19.52378999999997,"velocity":0.7874015748031497,"duration":0.11408718750000091},{"name":"D#4","midi":63,"time":19.76188499999997,"velocity":0.7874015748031497,"duration":0.11408718750000091},{"name":"D#4","midi":63,"time":19.88093249999997,"velocity":0.7874015748031497,"duration":0.11408718750000091},{"name":"E4","midi":64,"time":19.999979999999972,"velocity":0.7874015748031497,"duration":0.11408718750000091},{"name":"D#4","midi":63,"time":20.238074999999974,"velocity":0.7874015748031497,"duration":0.11408718750000091},{"name":"D#4","midi":63,"time":20.357122499999974,"velocity":0.7874015748031497,"duration":0.11408718750000091},{"name":"D4","midi":62,"time":20.476169999999975,"velocity":0.7874015748031497,"duration":0.11408718750000091},{"name":"D#4","midi":63,"time":20.714264999999976,"velocity":0.7874015748031497,"duration":0.11408718750000091},{"name":"D#4","midi":63,"time":20.833312499999977,"velocity":0.7874015748031497,"duration":0.11408718750000091},{"name":"E4","midi":64,"time":20.957320312499977,"velocity":0.7874015748031497,"duration":0.11408718750000091},{"name":"D#4","midi":63,"time":21.19045499999998,"velocity":0.7874015748031497,"duration":0.11408718750000091},{"name":"D#4","midi":63,"time":21.30950249999998,"velocity":0.7874015748031497,"duration":0.11408718750000091},{"name":"D4","midi":62,"time":21.42854999999998,"velocity":0.7874015748031497,"duration":0.11408718750000091},{"name":"D#4","midi":63,"time":21.66664499999998,"velocity":0.7874015748031497,"duration":0.11408718750000091},{"name":"D#4","midi":63,"time":21.785692499999982,"velocity":0.7874015748031497,"duration":0.11408718750000091},{"name":"E4","midi":64,"time":21.904739999999983,"velocity":0.7874015748031497,"duration":0.11408718750000091},{"name":"D#4","midi":63,"time":22.142834999999984,"velocity":0.7874015748031497,"duration":0.11408718750000091},{"name":"D#4","midi":63,"time":22.261882499999984,"velocity":0.7874015748031497,"duration":0.11408718750000091},{"name":"D4","midi":62,"time":22.380929999999985,"velocity":0.7874015748031497,"duration":0.11408718750000091},{"name":"D#4","midi":63,"time":22.619024999999986,"velocity":0.7874015748031497,"duration":0.11408718750000091},{"name":"D#4","midi":63,"time":22.738072499999987,"velocity":0.7874015748031497,"duration":0.11408718750000091},{"name":"E4","midi":64,"time":22.862080312499987,"velocity":0.7874015748031497,"duration":0.11408718750000091},{"name":"D#4","midi":63,"time":23.09521499999999,"velocity":0.7874015748031497,"duration":0.11408718750000091},{"name":"D#4","midi":63,"time":23.21426249999999,"velocity":0.7874015748031497,"duration":0.11408718750000091},{"name":"D4","midi":62,"time":23.33330999999999,"velocity":0.7874015748031497,"duration":0.11408718750000091},{"name":"D#4","midi":63,"time":23.57140499999999,"velocity":0.7874015748031497,"duration":0.11408718750000091},{"name":"D#4","midi":63,"time":23.690452499999992,"velocity":0.7874015748031497,"duration":0.11408718750000091},{"name":"E4","midi":64,"time":23.809499999999993,"velocity":0.7874015748031497,"duration":0.11408718750000091},{"name":"D#4","midi":63,"time":24.047594999999994,"velocity":0.7874015748031497,"duration":0.11408718750000091},{"name":"D#4","midi":63,"time":24.166642499999995,"velocity":0.7874015748031497,"duration":0.11408718750000091},{"name":"D4","midi":62,"time":24.285689999999995,"velocity":0.7874015748031497,"duration":0.11408718750000091},{"name":"D#4","midi":63,"time":24.523784999999997,"velocity":0.7874015748031497,"duration":0.11408718750000091},{"name":"D#4","midi":63,"time":24.642832499999997,"velocity":0.7874015748031497,"duration":0.11408718750000091},{"name":"E4","midi":64,"time":24.766840312499998,"velocity":0.7874015748031497,"duration":0.11408718750000091},{"name":"D#4","midi":63,"time":24.999975,"velocity":0.7874015748031497,"duration":0.11408718750000091},{"name":"D#4","midi":63,"time":25.1190225,"velocity":0.7874015748031497,"duration":0.11408718750000091},{"name":"D4","midi":62,"time":25.23807,"velocity":0.7874015748031497,"duration":0.11408718750000091},{"name":"D#4","midi":63,"time":25.476165,"velocity":0.7874015748031497,"duration":0.11408718750000091},{"name":"D#4","midi":63,"time":25.595212500000002,"velocity":0.7874015748031497,"duration":0.11408718750000091},{"name":"E4","midi":64,"time":25.714260000000003,"velocity":0.7874015748031497,"duration":0.11408718750000091},{"name":"D#4","midi":63,"time":25.952355000000004,"velocity":0.7874015748031497,"duration":0.11408718750000091},{"name":"D#4","midi":63,"time":26.071402500000005,"velocity":0.7874015748031497,"duration":0.11408718750000091},{"name":"D4","midi":62,"time":26.190450000000006,"velocity":0.7874015748031497,"duration":0.11408718750000091},{"name":"D#4","midi":63,"time":26.428545000000007,"velocity":0.7874015748031497,"duration":0.11408718750000091},{"name":"D#4","midi":63,"time":26.547592500000007,"velocity":0.7874015748031497,"duration":0.11408718750000091},{"name":"E4","midi":64,"time":26.671600312500008,"velocity":0.7874015748031497,"duration":0.11408718750000091},{"name":"D#4","midi":63,"time":26.90473500000001,"velocity":0.7874015748031497,"duration":0.11408718750000091},{"name":"D#4","midi":63,"time":27.02378250000001,"velocity":0.7874015748031497,"duration":0.11408718750000091},{"name":"D4","midi":62,"time":27.14283000000001,"velocity":0.7874015748031497,"duration":0.11408718750000091},{"name":"D#4","midi":63,"time":27.380925000000012,"velocity":0.7874015748031497,"duration":0.11408718750000091},{"name":"D#4","midi":63,"time":27.499972500000013,"velocity":0.7874015748031497,"duration":0.11408718750000091},{"name":"E4","midi":64,"time":27.619020000000013,"velocity":0.7874015748031497,"duration":0.11408718750000091},{"name":"D#4","midi":63,"time":27.857115000000015,"velocity":0.7874015748031497,"duration":0.11408718750000091},{"name":"D#4","midi":63,"time":27.976162500000015,"velocity":0.7874015748031497,"duration":0.11408718750000091},{"name":"D4","midi":62,"time":28.095210000000016,"velocity":0.7874015748031497,"duration":0.11408718750000091},{"name":"D#4","midi":63,"time":28.333305000000017,"velocity":0.7874015748031497,"duration":0.11408718750000091},{"name":"D#4","midi":63,"time":28.452352500000018,"velocity":0.7874015748031497,"duration":0.11408718750000091},{"name":"E4","midi":64,"time":28.576360312500018,"velocity":0.7874015748031497,"duration":0.11408718750000091},{"name":"D#4","midi":63,"time":28.80949500000002,"velocity":0.7874015748031497,"duration":0.11408718750000091},{"name":"D#4","midi":63,"time":28.92854250000002,"velocity":0.7874015748031497,"duration":0.11408718750000091},{"name":"D4","midi":62,"time":29.04759000000002,"velocity":0.7874015748031497,"duration":0.11408718750000091},{"name":"D#4","midi":63,"time":29.285685000000022,"velocity":0.7874015748031497,"duration":0.11408718750000091},{"name":"D#4","midi":63,"time":29.404732500000023,"velocity":0.7874015748031497,"duration":0.11408718750000091},{"name":"E4","midi":64,"time":29.523780000000023,"velocity":0.7874015748031497,"duration":0.11408718750000091},{"name":"D#4","midi":63,"time":29.761875000000025,"velocity":0.7874015748031497,"duration":0.11408718750000091},{"name":"D#4","midi":63,"time":29.880922500000025,"velocity":0.7874015748031497,"duration":0.11408718750000091},{"name":"D4","midi":62,"time":29.999970000000026,"velocity":0.7874015748031497,"duration":0.11408718750000091},{"name":"D#4","midi":63,"time":30.238065000000027,"velocity":0.7874015748031497,"duration":0.11408718750000091},{"name":"D#4","midi":63,"time":30.357112500000028,"velocity":0.7874015748031497,"duration":0.11408718750000091},{"name":"E4","midi":64,"time":30.48112031250003,"velocity":0.7874015748031497,"duration":0.11408718750000091},{"name":"D#4","midi":63,"time":30.71425500000003,"velocity":0.7874015748031497,"duration":0.11408718750000091},{"name":"D#4","midi":63,"time":30.83330250000003,"velocity":0.7874015748031497,"duration":0.11408718750000091},{"name":"D4","midi":62,"time":30.95235000000003,"velocity":0.7874015748031497,"duration":0.11408718750000091},{"name":"D#4","midi":63,"time":31.190445000000032,"velocity":0.7874015748031497,"duration":0.11408718750000091},{"name":"D#4","midi":63,"time":31.309492500000033,"velocity":0.7874015748031497,"duration":0.11408718750000091},{"name":"E4","midi":64,"time":31.428540000000034,"velocity":0.7874015748031497,"duration":0.11408718750000091},{"name":"D#4","midi":63,"time":31.666635000000035,"velocity":0.7874015748031497,"duration":0.11408718750000091},{"name":"D#4","midi":63,"time":31.785682500000036,"velocity":0.7874015748031497,"duration":0.11408718750000091},{"name":"D4","midi":62,"time":31.904730000000036,"velocity":0.7874015748031497,"duration":0.11408718749999736},{"name":"D#4","midi":63,"time":32.14282500000003,"velocity":0.7874015748031497,"duration":0.11408718749999736},{"name":"D#4","midi":63,"time":32.26187250000003,"velocity":0.7874015748031497,"duration":0.11408718749999736},{"name":"E4","midi":64,"time":32.385880312500035,"velocity":0.7874015748031497,"duration":0.11408718749999736},{"name":"D#4","midi":63,"time":32.61901500000003,"velocity":0.7874015748031497,"duration":0.11408718750000446},{"name":"D#4","midi":63,"time":32.73806250000004,"velocity":0.7874015748031497,"duration":0.11408718750000446},{"name":"D4","midi":62,"time":32.85711000000005,"velocity":0.7874015748031497,"duration":0.11408718750000446},{"name":"D#4","midi":63,"time":33.09520500000005,"velocity":0.7874015748031497,"duration":0.11408718750000446},{"name":"D#4","midi":63,"time":33.21425250000006,"velocity":0.7874015748031497,"duration":0.11408718750000446},{"name":"E4","midi":64,"time":33.333300000000065,"velocity":0.7874015748031497,"duration":0.11408718750000446},{"name":"D#4","midi":63,"time":33.57139500000007,"velocity":0.7874015748031497,"duration":0.11408718750000446},{"name":"D#4","midi":63,"time":33.690442500000074,"velocity":0.7874015748031497,"duration":0.11408718750000446},{"name":"D4","midi":62,"time":33.80949000000008,"velocity":0.7874015748031497,"duration":0.11408718750000446},{"name":"D#4","midi":63,"time":34.04758500000008,"velocity":0.7874015748031497,"duration":0.11408718750000446},{"name":"D#4","midi":63,"time":34.16663250000009,"velocity":0.7874015748031497,"duration":0.11408718750000446},{"name":"E4","midi":64,"time":34.2906403125001,"velocity":0.7874015748031497,"duration":0.11408718749999736},{"name":"D#4","midi":63,"time":34.5237750000001,"velocity":0.7874015748031497,"duration":0.11408718750000446},{"name":"D#4","midi":63,"time":34.64282250000011,"velocity":0.7874015748031497,"duration":0.11408718750000446},{"name":"D4","midi":62,"time":34.761870000000116,"velocity":0.7874015748031497,"duration":0.11408718750000446},{"name":"D#4","midi":63,"time":34.99996500000012,"velocity":0.7874015748031497,"duration":0.11408718750000446},{"name":"D#4","midi":63,"time":35.119012500000125,"velocity":0.7874015748031497,"duration":0.11408718750000446},{"name":"E4","midi":64,"time":35.23806000000013,"velocity":0.7874015748031497,"duration":0.11408718750000446},{"name":"D#4","midi":63,"time":35.476155000000134,"velocity":0.7874015748031497,"duration":0.11408718750000446},{"name":"D#4","midi":63,"time":35.59520250000014,"velocity":0.7874015748031497,"duration":0.11408718750000446},{"name":"D4","midi":62,"time":35.71425000000015,"velocity":0.7874015748031497,"duration":0.11408718750000446},{"name":"D#4","midi":63,"time":35.95234500000015,"velocity":0.7874015748031497,"duration":0.11408718750000446},{"name":"D#4","midi":63,"time":36.07139250000016,"velocity":0.7874015748031497,"duration":0.11408718750000446},{"name":"E4","midi":64,"time":36.19540031250017,"velocity":0.7874015748031497,"duration":0.11408718749999736},{"name":"D#4","midi":63,"time":36.42853500000017,"velocity":0.7874015748031497,"duration":0.11408718750000446},{"name":"D#4","midi":63,"time":36.547582500000175,"velocity":0.7874015748031497,"duration":0.11408718750000446},{"name":"D4","midi":62,"time":36.66663000000018,"velocity":0.7874015748031497,"duration":0.11408718750000446},{"name":"D#4","midi":63,"time":36.904725000000184,"velocity":0.7874015748031497,"duration":0.11408718750000446},{"name":"D#4","midi":63,"time":37.02377250000019,"velocity":0.7874015748031497,"duration":0.11408718750000446},{"name":"E4","midi":64,"time":37.1428200000002,"velocity":0.7874015748031497,"duration":0.11408718750000446},{"name":"D#4","midi":63,"time":37.3809150000002,"velocity":0.7874015748031497,"duration":0.11408718750000446},{"name":"D#4","midi":63,"time":37.49996250000021,"velocity":0.7874015748031497,"duration":0.11408718750000446},{"name":"D4","midi":62,"time":37.619010000000216,"velocity":0.7874015748031497,"duration":0.11408718750000446},{"name":"D#4","midi":63,"time":37.85710500000022,"velocity":0.7874015748031497,"duration":0.11408718750000446},{"name":"D#4","midi":63,"time":37.976152500000225,"velocity":0.7874015748031497,"duration":0.11408718750000446},{"name":"E4","midi":64,"time":38.100160312500236,"velocity":0.7874015748031497,"duration":0.11408718750000446},{"name":"D#4","midi":63,"time":38.33329500000024,"velocity":0.7874015748031497,"duration":0.11408718749999736},{"name":"D#4","midi":63,"time":38.45234250000024,"velocity":0.7874015748031497,"duration":0.11408718749999736},{"name":"D4","midi":62,"time":38.57139000000024,"velocity":0.7874015748031497,"duration":0.11408718749999736},{"name":"D#4","midi":63,"time":38.80948500000024,"velocity":0.7874015748031497,"duration":0.11408718749999736},{"name":"D#4","midi":63,"time":38.92853250000024,"velocity":0.7874015748031497,"duration":0.11408718749999736},{"name":"E4","midi":64,"time":39.04758000000024,"velocity":0.7874015748031497,"duration":0.11408718749999736},{"name":"D#4","midi":63,"time":39.28567500000023,"velocity":0.7874015748031497,"duration":0.11408718749999736},{"name":"D#4","midi":63,"time":39.40472250000023,"velocity":0.7874015748031497,"duration":0.11408718749999736},{"name":"D4","midi":62,"time":39.52377000000023,"velocity":0.7874015748031497,"duration":0.11408718749999736},{"name":"D#4","midi":63,"time":39.76186500000023,"velocity":0.7874015748031497,"duration":0.11408718749999736},{"name":"D#4","midi":63,"time":39.88091250000023,"velocity":0.7874015748031497,"duration":0.11408718749999736},{"name":"E4","midi":64,"time":40.00492031250023,"velocity":0.7874015748031497,"duration":0.11408718749999736},{"name":"D#4","midi":63,"time":40.23805500000023,"velocity":0.7874015748031497,"duration":0.11408718750000446},{"name":"D#4","midi":63,"time":40.35710250000024,"velocity":0.7874015748031497,"duration":0.11408718750000446},{"name":"D4","midi":62,"time":40.476150000000246,"velocity":0.7874015748031497,"duration":0.11408718750000446},{"name":"D#4","midi":63,"time":40.71424500000025,"velocity":0.7874015748031497,"duration":0.11408718750000446},{"name":"D#4","midi":63,"time":40.833292500000255,"velocity":0.7874015748031497,"duration":0.11408718750000446},{"name":"E4","midi":64,"time":40.95234000000026,"velocity":0.7874015748031497,"duration":0.11408718750000446},{"name":"D#4","midi":63,"time":41.190435000000264,"velocity":0.7874015748031497,"duration":0.11408718750000446},{"name":"D#4","midi":63,"time":41.30948250000027,"velocity":0.7874015748031497,"duration":0.11408718750000446},{"name":"D4","midi":62,"time":41.42853000000028,"velocity":0.7874015748031497,"duration":0.11408718750000446},{"name":"D#4","midi":63,"time":41.66662500000028,"velocity":0.7874015748031497,"duration":0.11408718750000446},{"name":"D#4","midi":63,"time":41.78567250000029,"velocity":0.7874015748031497,"duration":0.11408718750000446},{"name":"E4","midi":64,"time":41.9096803125003,"velocity":0.7874015748031497,"duration":0.11408718749999736},{"name":"D#4","midi":63,"time":42.1428150000003,"velocity":0.7874015748031497,"duration":0.11408718750000446},{"name":"D#4","midi":63,"time":42.261862500000305,"velocity":0.7874015748031497,"duration":0.11408718750000446},{"name":"D4","midi":62,"time":42.38091000000031,"velocity":0.7874015748031497,"duration":0.11408718750000446},{"name":"D#4","midi":63,"time":42.619005000000314,"velocity":0.7874015748031497,"duration":0.11408718750000446},{"name":"D#4","midi":63,"time":42.73805250000032,"velocity":0.7874015748031497,"duration":0.11408718750000446},{"name":"E4","midi":64,"time":42.85710000000033,"velocity":0.7874015748031497,"duration":0.11408718750000446},{"name":"D#4","midi":63,"time":43.09519500000033,"velocity":0.7874015748031497,"duration":0.11408718750000446},{"name":"D#4","midi":63,"time":43.21424250000034,"velocity":0.7874015748031497,"duration":0.11408718750000446},{"name":"D4","midi":62,"time":43.333290000000346,"velocity":0.7874015748031497,"duration":0.11408718750000446},{"name":"D#4","midi":63,"time":43.57138500000035,"velocity":0.7874015748031497,"duration":0.11408718750000446},{"name":"D#4","midi":63,"time":43.690432500000355,"velocity":0.7874015748031497,"duration":0.11408718750000446},{"name":"E4","midi":64,"time":43.814440312500366,"velocity":0.7874015748031497,"duration":0.11408718749999736},{"name":"D#4","midi":63,"time":44.047575000000364,"velocity":0.7874015748031497,"duration":0.11408718750000446},{"name":"D#4","midi":63,"time":44.16662250000037,"velocity":0.7874015748031497,"duration":0.11408718750000446},{"name":"D4","midi":62,"time":44.28567000000038,"velocity":0.7874015748031497,"duration":0.11408718750000446},{"name":"D#4","midi":63,"time":44.52376500000038,"velocity":0.7874015748031497,"duration":0.11408718750000446},{"name":"D#4","midi":63,"time":44.64281250000039,"velocity":0.7874015748031497,"duration":0.11408718750000446},{"name":"E4","midi":64,"time":44.7618600000004,"velocity":0.7874015748031497,"duration":0.11408718750000446},{"name":"D#4","midi":63,"time":44.9999550000004,"velocity":0.7874015748031497,"duration":0.11408718750000446},{"name":"D#4","midi":63,"time":45.119002500000406,"velocity":0.7874015748031497,"duration":0.11408718750000446},{"name":"D4","midi":62,"time":45.23805000000041,"velocity":0.7874015748031497,"duration":0.11408718750000446},{"name":"D#4","midi":63,"time":45.476145000000415,"velocity":0.7874015748031497,"duration":0.11408718750000446},{"name":"D#4","midi":63,"time":45.59519250000042,"velocity":0.7874015748031497,"duration":0.11408718750000446},{"name":"E4","midi":64,"time":45.71920031250043,"velocity":0.7874015748031497,"duration":0.11408718750000446},{"name":"D#4","midi":63,"time":45.95233500000044,"velocity":0.7874015748031497,"duration":0.11408718749999736},{"name":"D#4","midi":63,"time":46.07138250000044,"velocity":0.7874015748031497,"duration":0.11408718749999736},{"name":"D4","midi":62,"time":46.19043000000044,"velocity":0.7874015748031497,"duration":0.11408718749999736},{"name":"D#4","midi":63,"time":46.428525000000434,"velocity":0.7874015748031497,"duration":0.11408718749999736},{"name":"D#4","midi":63,"time":46.547572500000435,"velocity":0.7874015748031497,"duration":0.11408718749999736},{"name":"E4","midi":64,"time":46.666620000000435,"velocity":0.7874015748031497,"duration":0.11408718749999736},{"name":"D#4","midi":63,"time":46.90471500000043,"velocity":0.7874015748031497,"duration":0.11408718749999736},{"name":"D#4","midi":63,"time":47.02376250000043,"velocity":0.7874015748031497,"duration":0.11408718749999736},{"name":"D4","midi":62,"time":47.14281000000043,"velocity":0.7874015748031497,"duration":0.11408718749999736},{"name":"D#4","midi":63,"time":47.380905000000425,"velocity":0.7874015748031497,"duration":0.11408718749999736},{"name":"D#4","midi":63,"time":47.499952500000425,"velocity":0.7874015748031497,"duration":0.11408718749999736},{"name":"E4","midi":64,"time":47.62396031250043,"velocity":0.7874015748031497,"duration":0.11408718749999736},{"name":"D#4","midi":63,"time":47.85709500000043,"velocity":0.7874015748031497,"duration":0.11408718750000446},{"name":"D#4","midi":63,"time":47.976142500000435,"velocity":0.7874015748031497,"duration":0.11408718750000446},{"name":"D4","midi":62,"time":48.09519000000044,"velocity":0.7874015748031497,"duration":0.11408718750000446},{"name":"D#4","midi":63,"time":48.333285000000444,"velocity":0.7874015748031497,"duration":0.11408718750000446},{"name":"D#4","midi":63,"time":48.45233250000045,"velocity":0.7874015748031497,"duration":0.11408718750000446},{"name":"E4","midi":64,"time":48.57138000000046,"velocity":0.7874015748031497,"duration":0.11408718750000446},{"name":"D#4","midi":63,"time":48.80947500000046,"velocity":0.7874015748031497,"duration":0.11408718750000446},{"name":"D#4","midi":63,"time":48.92852250000047,"velocity":0.7874015748031497,"duration":0.11408718750000446},{"name":"D4","midi":62,"time":49.047570000000476,"velocity":0.7874015748031497,"duration":0.11408718750000446},{"name":"D#4","midi":63,"time":49.28566500000048,"velocity":0.7874015748031497,"duration":0.11408718750000446},{"name":"D#4","midi":63,"time":49.404712500000485,"velocity":0.7874015748031497,"duration":0.11408718750000446},{"name":"E4","midi":64,"time":49.5287203125005,"velocity":0.7874015748031497,"duration":0.11408718749999736},{"name":"D#4","midi":63,"time":49.761855000000494,"velocity":0.7874015748031497,"duration":0.11408718750000446},{"name":"D#4","midi":63,"time":49.8809025000005,"velocity":0.7874015748031497,"duration":0.11408718750000446},{"name":"D4","midi":62,"time":49.99995000000051,"velocity":0.7874015748031497,"duration":0.11408718750000446},{"name":"D#4","midi":63,"time":50.23804500000051,"velocity":0.7874015748031497,"duration":0.11408718750000446},{"name":"D#4","midi":63,"time":50.35709250000052,"velocity":0.7874015748031497,"duration":0.11408718750000446},{"name":"E4","midi":64,"time":50.47614000000053,"velocity":0.7874015748031497,"duration":0.11408718750000446},{"name":"D#4","midi":63,"time":50.71423500000053,"velocity":0.7874015748031497,"duration":0.11408718750000446},{"name":"D#4","midi":63,"time":50.833282500000536,"velocity":0.7874015748031497,"duration":0.11408718750000446},{"name":"D4","midi":62,"time":50.95233000000054,"velocity":0.7874015748031497,"duration":0.11408718750000446},{"name":"D#4","midi":63,"time":51.190425000000545,"velocity":0.7874015748031497,"duration":0.11408718750000446},{"name":"D#4","midi":63,"time":51.30947250000055,"velocity":0.7874015748031497,"duration":0.11408718750000446},{"name":"E4","midi":64,"time":51.43348031250056,"velocity":0.7874015748031497,"duration":0.11408718749999736},{"name":"D#4","midi":63,"time":51.66661500000056,"velocity":0.7874015748031497,"duration":0.11408718750000446},{"name":"D#4","midi":63,"time":51.78566250000057,"velocity":0.7874015748031497,"duration":0.11408718750000446},{"name":"D4","midi":62,"time":51.90471000000058,"velocity":0.7874015748031497,"duration":0.11408718750000446},{"name":"D#4","midi":63,"time":52.14280500000058,"velocity":0.7874015748031497,"duration":0.11408718750000446},{"name":"D#4","midi":63,"time":52.261852500000586,"velocity":0.7874015748031497,"duration":0.11408718750000446},{"name":"E4","midi":64,"time":52.380900000000594,"velocity":0.7874015748031497,"duration":0.11408718750000446},{"name":"D#4","midi":63,"time":52.618995000000595,"velocity":0.7874015748031497,"duration":0.11408718750000446},{"name":"D#4","midi":63,"time":52.7380425000006,"velocity":0.7874015748031497,"duration":0.11408718750000446},{"name":"D4","midi":62,"time":52.85709000000061,"velocity":0.7874015748031497,"duration":0.11408718750000446},{"name":"D#4","midi":63,"time":53.09518500000061,"velocity":0.7874015748031497,"duration":0.11408718750000446},{"name":"D#4","midi":63,"time":53.21423250000062,"velocity":0.7874015748031497,"duration":0.11408718750000446},{"name":"E4","midi":64,"time":53.33824031250063,"velocity":0.7874015748031497,"duration":0.11408718750000446},{"name":"D#4","midi":63,"time":53.571375000000636,"velocity":0.7874015748031497,"duration":0.11408718749999736},{"name":"D#4","midi":63,"time":53.690422500000636,"velocity":0.7874015748031497,"duration":0.11408718749999736},{"name":"D4","midi":62,"time":53.80947000000064,"velocity":0.7874015748031497,"duration":0.11408718749999736},{"name":"D#4","midi":63,"time":54.04756500000063,"velocity":0.7874015748031497,"duration":0.11408718749999736},{"name":"D#4","midi":63,"time":54.16661250000063,"velocity":0.7874015748031497,"duration":0.11408718749999736},{"name":"E4","midi":64,"time":54.28566000000063,"velocity":0.7874015748031497,"duration":0.11408718749999736},{"name":"D#4","midi":63,"time":54.52375500000063,"velocity":0.7874015748031497,"duration":0.11408718749999736},{"name":"D#4","midi":63,"time":54.64280250000063,"velocity":0.7874015748031497,"duration":0.11408718749999736},{"name":"D4","midi":62,"time":54.76185000000063,"velocity":0.7874015748031497,"duration":0.11408718749999736},{"name":"D#4","midi":63,"time":54.99994500000062,"velocity":0.7874015748031497,"duration":0.11408718749999736},{"name":"D#4","midi":63,"time":55.11899250000062,"velocity":0.7874015748031497,"duration":0.11408718749999736},{"name":"E4","midi":64,"time":55.24300031250063,"velocity":0.7874015748031497,"duration":0.11408718749999736},{"name":"D#4","midi":63,"time":55.476135000000625,"velocity":0.7874015748031497,"duration":0.11408718750000446},{"name":"D#4","midi":63,"time":55.59518250000063,"velocity":0.7874015748031497,"duration":0.11408718750000446},{"name":"D4","midi":62,"time":55.71423000000064,"velocity":0.7874015748031497,"duration":0.11408718750000446},{"name":"D#4","midi":63,"time":55.95232500000064,"velocity":0.7874015748031497,"duration":0.11408718750000446},{"name":"D#4","midi":63,"time":56.07137250000065,"velocity":0.7874015748031497,"duration":0.11408718750000446},{"name":"E4","midi":64,"time":56.19042000000066,"velocity":0.7874015748031497,"duration":0.11408718750000446},{"name":"D#4","midi":63,"time":56.42851500000066,"velocity":0.7874015748031497,"duration":0.11408718750000446},{"name":"D#4","midi":63,"time":56.547562500000666,"velocity":0.7874015748031497,"duration":0.11408718750000446},{"name":"D4","midi":62,"time":56.666610000000674,"velocity":0.7874015748031497,"duration":0.11408718750000446},{"name":"D#4","midi":63,"time":56.904705000000675,"velocity":0.7874015748031497,"duration":0.11408718750000446},{"name":"D#4","midi":63,"time":57.02375250000068,"velocity":0.7874015748031497,"duration":0.11408718750000446},{"name":"E4","midi":64,"time":57.147760312500694,"velocity":0.7874015748031497,"duration":0.11408718749999736},{"name":"D#4","midi":63,"time":57.38089500000069,"velocity":0.7874015748031497,"duration":0.11408718750000446},{"name":"D#4","midi":63,"time":57.4999425000007,"velocity":0.7874015748031497,"duration":0.11408718750000446},{"name":"D4","midi":62,"time":57.61899000000071,"velocity":0.7874015748031497,"duration":0.11408718750000446},{"name":"D#4","midi":63,"time":57.85708500000071,"velocity":0.7874015748031497,"duration":0.11408718750000446},{"name":"D#4","midi":63,"time":57.976132500000716,"velocity":0.7874015748031497,"duration":0.11408718750000446},{"name":"E4","midi":64,"time":58.095180000000724,"velocity":0.7874015748031497,"duration":0.11408718750000446},{"name":"D#4","midi":63,"time":58.333275000000725,"velocity":0.7874015748031497,"duration":0.11408718750000446},{"name":"D#4","midi":63,"time":58.45232250000073,"velocity":0.7874015748031497,"duration":0.11408718750000446},{"name":"D4","midi":62,"time":58.57137000000074,"velocity":0.7874015748031497,"duration":0.11408718750000446},{"name":"D#4","midi":63,"time":58.80946500000074,"velocity":0.7874015748031497,"duration":0.11408718750000446},{"name":"D#4","midi":63,"time":58.92851250000075,"velocity":0.7874015748031497,"duration":0.11408718750000446},{"name":"E4","midi":64,"time":59.05252031250076,"velocity":0.7874015748031497,"duration":0.11408718749999736},{"name":"D#4","midi":63,"time":59.28565500000076,"velocity":0.7874015748031497,"duration":0.11408718750000446},{"name":"D#4","midi":63,"time":59.40470250000077,"velocity":0.7874015748031497,"duration":0.11408718750000446},{"name":"D4","midi":62,"time":59.523750000000774,"velocity":0.7874015748031497,"duration":0.11408718750000446},{"name":"D#4","midi":63,"time":59.761845000000775,"velocity":0.7874015748031497,"duration":0.11408718750000446},{"name":"D#4","midi":63,"time":59.88089250000078,"velocity":0.7874015748031497,"duration":0.11408718750000446},{"name":"E4","midi":64,"time":59.99994000000079,"velocity":0.7874015748031497,"duration":0.11408718750000446},{"name":"D#4","midi":63,"time":60.23803500000079,"velocity":0.7874015748031497,"duration":0.11408718750000446},{"name":"D#4","midi":63,"time":60.3570825000008,"velocity":0.7874015748031497,"duration":0.11408718750000446},{"name":"D4","midi":62,"time":60.47613000000081,"velocity":0.7874015748031497,"duration":0.11408718750000446},{"name":"D#4","midi":63,"time":60.71422500000081,"velocity":0.7874015748031497,"duration":0.11408718750000446},{"name":"D#4","midi":63,"time":60.83327250000082,"velocity":0.7874015748031497,"duration":0.11408718750000446},{"name":"E4","midi":64,"time":60.95728031250083,"velocity":0.7874015748031497,"duration":0.11408718750000446},{"name":"D#4","midi":63,"time":61.19041500000083,"velocity":0.7874015748031497,"duration":0.11408718749999736},{"name":"D#4","midi":63,"time":61.30946250000083,"velocity":0.7874015748031497,"duration":0.11408718749999736},{"name":"D4","midi":62,"time":61.428510000000834,"velocity":0.7874015748031497,"duration":0.11408718749999736},{"name":"D#4","midi":63,"time":61.66660500000083,"velocity":0.7874015748031497,"duration":0.11408718749999736},{"name":"D#4","midi":63,"time":61.78565250000083,"velocity":0.7874015748031497,"duration":0.11408718749999736},{"name":"E4","midi":64,"time":61.90470000000083,"velocity":0.7874015748031497,"duration":0.11408718749999736},{"name":"D#4","midi":63,"time":62.142795000000824,"velocity":0.7874015748031497,"duration":0.11408718749999736},{"name":"D#4","midi":63,"time":62.261842500000824,"velocity":0.7874015748031497,"duration":0.11408718749999736},{"name":"D4","midi":62,"time":62.380890000000825,"velocity":0.7874015748031497,"duration":0.11408718749999736},{"name":"D#4","midi":63,"time":62.61898500000082,"velocity":0.7874015748031497,"duration":0.11408718749999736},{"name":"D#4","midi":63,"time":62.73803250000082,"velocity":0.7874015748031497,"duration":0.11408718749999736},{"name":"E4","midi":64,"time":62.862040312500824,"velocity":0.7874015748031497,"duration":0.11408718749999736},{"name":"D#4","midi":63,"time":63.09517500000082,"velocity":0.7874015748031497,"duration":0.11408718750000446},{"name":"D#4","midi":63,"time":63.21422250000083,"velocity":0.7874015748031497,"duration":0.11408718750000446},{"name":"D4","midi":62,"time":63.33327000000084,"velocity":0.7874015748031497,"duration":0.11408718750000446},{"name":"D#4","midi":63,"time":63.57136500000084,"velocity":0.7874015748031497,"duration":0.11408718750000446},{"name":"D#4","midi":63,"time":63.690412500000846,"velocity":0.7874015748031497,"duration":0.11408718750000446},{"name":"E4","midi":64,"time":63.809460000000854,"velocity":0.7874015748031497,"duration":0.11408718750000446},{"name":"D#4","midi":63,"time":64.04755500000086,"velocity":0.7874015748031497,"duration":0.11408718750000446},{"name":"D#4","midi":63,"time":64.16660250000086,"velocity":0.7874015748031497,"duration":0.11408718750000446},{"name":"D4","midi":62,"time":64.28565000000087,"velocity":0.7874015748031497,"duration":0.11408718750000446},{"name":"D#4","midi":63,"time":64.52374500000087,"velocity":0.7874015748031497,"duration":0.11408718750000446},{"name":"D#4","midi":63,"time":64.64279250000088,"velocity":0.7874015748031497,"duration":0.11408718750000446},{"name":"E4","midi":64,"time":64.76680031250089,"velocity":0.7874015748031497,"duration":0.11408718750000446},{"name":"D#4","midi":63,"time":64.99993500000089,"velocity":0.7874015748031497,"duration":0.11408718750000446},{"name":"D#4","midi":63,"time":65.1189825000009,"velocity":0.7874015748031497,"duration":0.11408718750000446},{"name":"D4","midi":62,"time":65.2380300000009,"velocity":0.7874015748031497,"duration":0.11408718750000446},{"name":"D#4","midi":63,"time":65.4761250000009,"velocity":0.7874015748031497,"duration":0.11408718750000446},{"name":"D#4","midi":63,"time":65.59517250000091,"velocity":0.7874015748031497,"duration":0.11408718750000446},{"name":"E4","midi":64,"time":65.71422000000092,"velocity":0.7874015748031497,"duration":0.11408718750000446},{"name":"D#4","midi":63,"time":65.95231500000092,"velocity":0.7874015748031497,"duration":0.11408718750000446},{"name":"D#4","midi":63,"time":66.07136250000093,"velocity":0.7874015748031497,"duration":0.11408718750000446},{"name":"D4","midi":62,"time":66.19041000000094,"velocity":0.7874015748031497,"duration":0.11408718750000446},{"name":"D#4","midi":63,"time":66.42850500000094,"velocity":0.7874015748031497,"duration":0.11408718750000446},{"name":"D#4","midi":63,"time":66.54755250000095,"velocity":0.7874015748031497,"duration":0.11408718750000446},{"name":"E4","midi":64,"time":66.67156031250096,"velocity":0.7874015748031497,"duration":0.11408718750000446},{"name":"D#4","midi":63,"time":66.90469500000096,"velocity":0.7874015748031497,"duration":0.11408718750000446},{"name":"D#4","midi":63,"time":67.02374250000096,"velocity":0.7874015748031497,"duration":0.11408718750000446},{"name":"D4","midi":62,"time":67.14279000000097,"velocity":0.7874015748031497,"duration":0.11408718750000446},{"name":"D#4","midi":63,"time":67.38088500000097,"velocity":0.7874015748031497,"duration":0.11408718750000446},{"name":"D#4","midi":63,"time":67.49993250000098,"velocity":0.7874015748031497,"duration":0.11408718750000446},{"name":"E4","midi":64,"time":67.61898000000099,"velocity":0.7874015748031497,"duration":0.11408718750000446},{"name":"D#4","midi":63,"time":67.85707500000099,"velocity":0.7874015748031497,"duration":0.11408718750000446},{"name":"D#4","midi":63,"time":67.976122500001,"velocity":0.7874015748031497,"duration":0.11408718750000446},{"name":"D4","midi":62,"time":68.095170000001,"velocity":0.7874015748031497,"duration":0.11408718750000446},{"name":"D#4","midi":63,"time":68.333265000001,"velocity":0.7874015748031497,"duration":0.11408718750000446},{"name":"D#4","midi":63,"time":68.45231250000101,"velocity":0.7874015748031497,"duration":0.11408718750000446},{"name":"E4","midi":64,"time":68.57632031250103,"velocity":0.7874015748031497,"duration":0.11408718750000446},{"name":"D#4","midi":63,"time":68.80945500000102,"velocity":0.7874015748031497,"duration":0.11408718750000446},{"name":"D#4","midi":63,"time":68.92850250000103,"velocity":0.7874015748031497,"duration":0.11408718750000446},{"name":"D4","midi":62,"time":69.04755000000104,"velocity":0.7874015748031497,"duration":0.11408718750000446},{"name":"D#4","midi":63,"time":69.28564500000104,"velocity":0.7874015748031497,"duration":0.11408718750000446},{"name":"D#4","midi":63,"time":69.40469250000105,"velocity":0.7874015748031497,"duration":0.11408718750000446},{"name":"E4","midi":64,"time":69.52374000000106,"velocity":0.7874015748031497,"duration":0.11408718750000446},{"name":"D#4","midi":63,"time":69.76183500000106,"velocity":0.7874015748031497,"duration":0.11408718750000446},{"name":"D#4","midi":63,"time":69.88088250000106,"velocity":0.7874015748031497,"duration":0.11408718750000446},{"name":"D4","midi":62,"time":69.99993000000107,"velocity":0.7874015748031497,"duration":0.11408718750000446},{"name":"D#4","midi":63,"time":70.23802500000107,"velocity":0.7874015748031497,"duration":0.11408718750000446},{"name":"D#4","midi":63,"time":70.35707250000108,"velocity":0.7874015748031497,"duration":0.11408718750000446},{"name":"E4","midi":64,"time":70.48108031250109,"velocity":0.7874015748031497,"duration":0.11408718750000446},{"name":"D#4","midi":63,"time":70.71421500000109,"velocity":0.7874015748031497,"duration":0.11408718750000446},{"name":"D#4","midi":63,"time":70.8332625000011,"velocity":0.7874015748031497,"duration":0.11408718750000446},{"name":"D4","midi":62,"time":70.9523100000011,"velocity":0.7874015748031497,"duration":0.11408718750000446},{"name":"D#4","midi":63,"time":71.1904050000011,"velocity":0.7874015748031497,"duration":0.11408718750000446},{"name":"D#4","midi":63,"time":71.30945250000111,"velocity":0.7874015748031497,"duration":0.11408718750000446},{"name":"E4","midi":64,"time":71.42850000000112,"velocity":0.7874015748031497,"duration":0.11408718750000446},{"name":"D#4","midi":63,"time":71.66659500000112,"velocity":0.7874015748031497,"duration":0.11408718750000446},{"name":"D#4","midi":63,"time":71.78564250000113,"velocity":0.7874015748031497,"duration":0.11408718750000446},{"name":"D4","midi":62,"time":71.90469000000114,"velocity":0.7874015748031497,"duration":0.11408718750000446},{"name":"D#4","midi":63,"time":72.14278500000114,"velocity":0.7874015748031497,"duration":0.11408718750000446},{"name":"D#4","midi":63,"time":72.26183250000115,"velocity":0.7874015748031497,"duration":0.11408718750000446},{"name":"E4","midi":64,"time":72.38584031250116,"velocity":0.7874015748031497,"duration":0.11408718750000446},{"name":"D#4","midi":63,"time":72.61897500000116,"velocity":0.7874015748031497,"duration":0.11408718750000446},{"name":"D#4","midi":63,"time":72.73802250000116,"velocity":0.7874015748031497,"duration":0.11408718750000446},{"name":"D4","midi":62,"time":72.85707000000117,"velocity":0.7874015748031497,"duration":0.11408718750000446},{"name":"D#4","midi":63,"time":73.09516500000117,"velocity":0.7874015748031497,"duration":0.11408718750000446},{"name":"D#4","midi":63,"time":73.21421250000118,"velocity":0.7874015748031497,"duration":0.11408718750000446},{"name":"E4","midi":64,"time":73.33326000000119,"velocity":0.7874015748031497,"duration":0.11408718750000446},{"name":"D#4","midi":63,"time":73.57135500000119,"velocity":0.7874015748031497,"duration":0.11408718750000446},{"name":"D#4","midi":63,"time":73.6904025000012,"velocity":0.7874015748031497,"duration":0.11408718750000446},{"name":"D4","midi":62,"time":73.8094500000012,"velocity":0.7874015748031497,"duration":0.11408718750000446},{"name":"D#4","midi":63,"time":74.04754500000121,"velocity":0.7874015748031497,"duration":0.11408718750000446},{"name":"D#4","midi":63,"time":74.16659250000122,"velocity":0.7874015748031497,"duration":0.11408718750000446},{"name":"E4","midi":64,"time":74.29060031250123,"velocity":0.7874015748031497,"duration":0.11408718750000446},{"name":"D#4","midi":63,"time":74.52373500000122,"velocity":0.7874015748031497,"duration":0.11408718750000446},{"name":"D#4","midi":63,"time":74.64278250000123,"velocity":0.7874015748031497,"duration":0.11408718750000446},{"name":"D4","midi":62,"time":74.76183000000124,"velocity":0.7874015748031497,"duration":0.11408718750000446},{"name":"D#4","midi":63,"time":74.99992500000124,"velocity":0.7874015748031497,"duration":0.11408718750000446},{"name":"D#4","midi":63,"time":75.11897250000125,"velocity":0.7874015748031497,"duration":0.11408718750000446},{"name":"E4","midi":64,"time":75.23802000000126,"velocity":0.7874015748031497,"duration":0.11408718750000446},{"name":"D#4","midi":63,"time":75.47611500000126,"velocity":0.7874015748031497,"duration":0.11408718750000446},{"name":"D#4","midi":63,"time":75.59516250000127,"velocity":0.7874015748031497,"duration":0.11408718750000446},{"name":"D4","midi":62,"time":75.71421000000127,"velocity":0.7874015748031497,"duration":0.11408718750000446},{"name":"D#4","midi":63,"time":75.95230500000127,"velocity":0.7874015748031497,"duration":0.11408718750000446},{"name":"D#4","midi":63,"time":76.07135250000128,"velocity":0.7874015748031497,"duration":0.11408718750000446},{"name":"E4","midi":64,"time":76.1953603125013,"velocity":0.7874015748031497,"duration":0.11408718750000446},{"name":"D#4","midi":63,"time":76.42849500000129,"velocity":0.7874015748031497,"duration":0.11408718750000446},{"name":"D#4","midi":63,"time":76.5475425000013,"velocity":0.7874015748031497,"duration":0.11408718750000446},{"name":"D4","midi":62,"time":76.6665900000013,"velocity":0.7874015748031497,"duration":0.11408718750000446},{"name":"D#4","midi":63,"time":76.90468500000131,"velocity":0.7874015748031497,"duration":0.11408718750000446},{"name":"D#4","midi":63,"time":77.02373250000132,"velocity":0.7874015748031497,"duration":0.11408718750000446},{"name":"E4","midi":64,"time":77.14278000000132,"velocity":0.7874015748031497,"duration":0.11408718750000446},{"name":"D#4","midi":63,"time":77.38087500000132,"velocity":0.7874015748031497,"duration":0.11408718750000446},{"name":"D#4","midi":63,"time":77.49992250000133,"velocity":0.7874015748031497,"duration":0.11408718750000446},{"name":"D4","midi":62,"time":77.61897000000134,"velocity":0.7874015748031497,"duration":0.11408718750000446},{"name":"D#4","midi":63,"time":77.85706500000134,"velocity":0.7874015748031497,"duration":0.11408718750000446},{"name":"D#4","midi":63,"time":77.97611250000135,"velocity":0.7874015748031497,"duration":0.11408718750000446},{"name":"E4","midi":64,"time":78.10012031250136,"velocity":0.7874015748031497,"duration":0.11408718750000446},{"name":"D#4","midi":63,"time":78.33325500000136,"velocity":0.7874015748031497,"duration":0.11408718750000446},{"name":"D#4","midi":63,"time":78.45230250000137,"velocity":0.7874015748031497,"duration":0.11408718750000446},{"name":"D4","midi":62,"time":78.57135000000137,"velocity":0.7874015748031497,"duration":0.11408718750000446},{"name":"D#4","midi":63,"time":78.80944500000138,"velocity":0.7874015748031497,"duration":0.11408718750000446},{"name":"D#4","midi":63,"time":78.92849250000138,"velocity":0.7874015748031497,"duration":0.11408718750000446},{"name":"E4","midi":64,"time":79.04754000000139,"velocity":0.7874015748031497,"duration":0.11408718750000446},{"name":"D#4","midi":63,"time":79.28563500000139,"velocity":0.7874015748031497,"duration":0.11408718750000446},{"name":"D#4","midi":63,"time":79.4046825000014,"velocity":0.7874015748031497,"duration":0.11408718750000446},{"name":"D4","midi":62,"time":79.52373000000141,"velocity":0.7874015748031497,"duration":0.11408718750000446},{"name":"D#4","midi":63,"time":79.76182500000141,"velocity":0.7874015748031497,"duration":0.11408718750000446},{"name":"D#4","midi":63,"time":79.88087250000142,"velocity":0.7874015748031497,"duration":0.11408718750000446},{"name":"E4","midi":64,"time":80.00488031250143,"velocity":0.7874015748031497,"duration":0.11408718750000446},{"name":"D#4","midi":63,"time":80.23801500000143,"velocity":0.7874015748031497,"duration":0.11408718750000446},{"name":"D#4","midi":63,"time":80.35706250000143,"velocity":0.7874015748031497,"duration":0.11408718750000446},{"name":"D4","midi":62,"time":80.47611000000144,"velocity":0.7874015748031497,"duration":0.11408718750000446},{"name":"D#4","midi":63,"time":80.71420500000144,"velocity":0.7874015748031497,"duration":0.11408718750000446},{"name":"D#4","midi":63,"time":80.83325250000145,"velocity":0.7874015748031497,"duration":0.11408718750000446},{"name":"E4","midi":64,"time":80.95230000000146,"velocity":0.7874015748031497,"duration":0.11408718750000446},{"name":"D#4","midi":63,"time":81.19039500000146,"velocity":0.7874015748031497,"duration":0.11408718750000446},{"name":"D#4","midi":63,"time":81.30944250000147,"velocity":0.7874015748031497,"duration":0.11408718750000446},{"name":"D4","midi":62,"time":81.42849000000147,"velocity":0.7874015748031497,"duration":0.11408718750000446},{"name":"D#4","midi":63,"time":81.66658500000148,"velocity":0.7874015748031497,"duration":0.11408718750000446},{"name":"D#4","midi":63,"time":81.78563250000148,"velocity":0.7874015748031497,"duration":0.11408718750000446},{"name":"E4","midi":64,"time":81.9096403125015,"velocity":0.7874015748031497,"duration":0.11408718750000446},{"name":"D#4","midi":63,"time":82.14277500000149,"velocity":0.7874015748031497,"duration":0.11408718750000446},{"name":"D#4","midi":63,"time":82.2618225000015,"velocity":0.7874015748031497,"duration":0.11408718750000446},{"name":"D4","midi":62,"time":82.38087000000151,"velocity":0.7874015748031497,"duration":0.11408718750000446},{"name":"D#4","midi":63,"time":82.61896500000151,"velocity":0.7874015748031497,"duration":0.11408718750000446},{"name":"D#4","midi":63,"time":82.73801250000152,"velocity":0.7874015748031497,"duration":0.11408718750000446},{"name":"E4","midi":64,"time":82.85706000000152,"velocity":0.7874015748031497,"duration":0.11408718750000446},{"name":"D#4","midi":63,"time":83.09515500000153,"velocity":0.7874015748031497,"duration":0.11408718750000446},{"name":"D#4","midi":63,"time":83.21420250000153,"velocity":0.7874015748031497,"duration":0.11408718750000446},{"name":"D4","midi":62,"time":83.33325000000154,"velocity":0.7874015748031497,"duration":0.11408718750000446},{"name":"D#4","midi":63,"time":83.57134500000154,"velocity":0.7874015748031497,"duration":0.11408718750000446},{"name":"D#4","midi":63,"time":83.69039250000155,"velocity":0.7874015748031497,"duration":0.11408718750000446},{"name":"E4","midi":64,"time":83.81440031250156,"velocity":0.7874015748031497,"duration":0.11408718750000446},{"name":"D#4","midi":63,"time":84.04753500000156,"velocity":0.7874015748031497,"duration":0.11408718750000446},{"name":"D#4","midi":63,"time":84.16658250000157,"velocity":0.7874015748031497,"duration":0.11408718750000446},{"name":"D4","midi":62,"time":84.28563000000158,"velocity":0.7874015748031497,"duration":0.11408718750000446},{"name":"D#4","midi":63,"time":84.52372500000158,"velocity":0.7874015748031497,"duration":0.11408718750000446},{"name":"D#4","midi":63,"time":84.64277250000158,"velocity":0.7874015748031497,"duration":0.11408718750000446},{"name":"E4","midi":64,"time":84.76182000000159,"velocity":0.7874015748031497,"duration":0.11408718750000446},{"name":"D#4","midi":63,"time":84.9999150000016,"velocity":0.7874015748031497,"duration":0.11408718750000446},{"name":"D#4","midi":63,"time":85.1189625000016,"velocity":0.7874015748031497,"duration":0.11408718750000446},{"name":"D4","midi":62,"time":85.23801000000161,"velocity":0.7874015748031497,"duration":0.11408718750000446},{"name":"D#4","midi":63,"time":85.47610500000161,"velocity":0.7874015748031497,"duration":0.11408718750000446},{"name":"D#4","midi":63,"time":85.59515250000162,"velocity":0.7874015748031497,"duration":0.11408718750000446},{"name":"E4","midi":64,"time":85.71916031250163,"velocity":0.7874015748031497,"duration":0.11408718750000446},{"name":"D#4","midi":63,"time":85.95229500000163,"velocity":0.7874015748031497,"duration":0.11408718750000446},{"name":"D#4","midi":63,"time":86.07134250000163,"velocity":0.7874015748031497,"duration":0.11408718750000446},{"name":"D4","midi":62,"time":86.19039000000164,"velocity":0.7874015748031497,"duration":0.11408718750000446},{"name":"D#4","midi":63,"time":86.42848500000164,"velocity":0.7874015748031497,"duration":0.11408718750000446},{"name":"D#4","midi":63,"time":86.54753250000165,"velocity":0.7874015748031497,"duration":0.11408718750000446},{"name":"E4","midi":64,"time":86.66658000000166,"velocity":0.7874015748031497,"duration":0.11408718750000446},{"name":"D#4","midi":63,"time":86.90467500000166,"velocity":0.7874015748031497,"duration":0.11408718750000446},{"name":"D#4","midi":63,"time":87.02372250000167,"velocity":0.7874015748031497,"duration":0.11408718750000446},{"name":"D4","midi":62,"time":87.14277000000168,"velocity":0.7874015748031497,"duration":0.11408718750000446},{"name":"D#4","midi":63,"time":87.38086500000168,"velocity":0.7874015748031497,"duration":0.11408718750000446},{"name":"D#4","midi":63,"time":87.49991250000168,"velocity":0.7874015748031497,"duration":0.11408718750000446},{"name":"E4","midi":64,"time":87.6239203125017,"velocity":0.7874015748031497,"duration":0.11408718750000446},{"name":"D#4","midi":63,"time":87.8570550000017,"velocity":0.7874015748031497,"duration":0.11408718750000446},{"name":"D#4","midi":63,"time":87.9761025000017,"velocity":0.7874015748031497,"duration":0.11408718750000446},{"name":"D4","midi":62,"time":88.09515000000171,"velocity":0.7874015748031497,"duration":0.11408718750000446},{"name":"D#4","midi":63,"time":88.33324500000171,"velocity":0.7874015748031497,"duration":0.11408718750000446},{"name":"D#4","midi":63,"time":88.45229250000172,"velocity":0.7874015748031497,"duration":0.11408718750000446},{"name":"E4","midi":64,"time":88.57134000000173,"velocity":0.7874015748031497,"duration":0.11408718750000446},{"name":"D#4","midi":63,"time":88.80943500000173,"velocity":0.7874015748031497,"duration":0.11408718750000446},{"name":"D#4","midi":63,"time":88.92848250000173,"velocity":0.7874015748031497,"duration":0.11408718750000446},{"name":"D4","midi":62,"time":89.04753000000174,"velocity":0.7874015748031497,"duration":0.11408718750000446},{"name":"D#4","midi":63,"time":89.28562500000174,"velocity":0.7874015748031497,"duration":0.11408718750000446},{"name":"D#4","midi":63,"time":89.40467250000175,"velocity":0.7874015748031497,"duration":0.11408718750000446},{"name":"E4","midi":64,"time":89.52868031250176,"velocity":0.7874015748031497,"duration":0.11408718750000446},{"name":"D#4","midi":63,"time":89.76181500000176,"velocity":0.7874015748031497,"duration":0.11408718750000446},{"name":"D#4","midi":63,"time":89.88086250000177,"velocity":0.7874015748031497,"duration":0.11408718750000446},{"name":"D4","midi":62,"time":89.99991000000178,"velocity":0.7874015748031497,"duration":0.11408718750000446},{"name":"D#4","midi":63,"time":90.23800500000178,"velocity":0.7874015748031497,"duration":0.11408718750000446},{"name":"D#4","midi":63,"time":90.35705250000179,"velocity":0.7874015748031497,"duration":0.11408718750000446},{"name":"E4","midi":64,"time":90.4761000000018,"velocity":0.7874015748031497,"duration":0.11408718750000446},{"name":"D#4","midi":63,"time":90.7141950000018,"velocity":0.7874015748031497,"duration":0.11408718750000446},{"name":"D#4","midi":63,"time":90.8332425000018,"velocity":0.7874015748031497,"duration":0.11408718750000446},{"name":"D4","midi":62,"time":90.95229000000181,"velocity":0.7874015748031497,"duration":0.11408718750000446},{"name":"D#4","midi":63,"time":91.19038500000181,"velocity":0.7874015748031497,"duration":0.11408718750000446},{"name":"D#4","midi":63,"time":91.30943250000182,"velocity":0.7874015748031497,"duration":0.11408718750000446},{"name":"E4","midi":64,"time":91.43344031250183,"velocity":0.7874015748031497,"duration":0.11408718750000446},{"name":"D#4","midi":63,"time":91.66657500000183,"velocity":0.7874015748031497,"duration":0.11408718750000446},{"name":"D#4","midi":63,"time":91.78562250000184,"velocity":0.7874015748031497,"duration":0.11408718750000446},{"name":"D4","midi":62,"time":91.90467000000184,"velocity":0.7874015748031497,"duration":0.11408718750000446},{"name":"D#4","midi":63,"time":92.14276500000184,"velocity":0.7874015748031497,"duration":0.11408718750000446},{"name":"D#4","midi":63,"time":92.26181250000185,"velocity":0.7874015748031497,"duration":0.11408718750000446},{"name":"E4","midi":64,"time":92.38086000000186,"velocity":0.7874015748031497,"duration":0.11408718750000446},{"name":"D#4","midi":63,"time":92.61895500000186,"velocity":0.7874015748031497,"duration":0.11408718750000446},{"name":"D#4","midi":63,"time":92.73800250000187,"velocity":0.7874015748031497,"duration":0.11408718750000446},{"name":"D4","midi":62,"time":92.85705000000188,"velocity":0.7874015748031497,"duration":0.11408718750000446},{"name":"D#4","midi":63,"time":93.09514500000188,"velocity":0.7874015748031497,"duration":0.11408718750000446},{"name":"D#4","midi":63,"time":93.21419250000189,"velocity":0.7874015748031497,"duration":0.11408718750000446},{"name":"E4","midi":64,"time":93.3382003125019,"velocity":0.7874015748031497,"duration":0.11408718750000446},{"name":"D#4","midi":63,"time":93.5713350000019,"velocity":0.7874015748031497,"duration":0.11408718750000446},{"name":"D#4","midi":63,"time":93.6903825000019,"velocity":0.7874015748031497,"duration":0.11408718750000446},{"name":"D4","midi":62,"time":93.80943000000191,"velocity":0.7874015748031497,"duration":0.11408718750000446},{"name":"D#4","midi":63,"time":94.04752500000191,"velocity":0.7874015748031497,"duration":0.11408718750000446},{"name":"D#4","midi":63,"time":94.16657250000192,"velocity":0.7874015748031497,"duration":0.11408718750000446},{"name":"E4","midi":64,"time":94.28562000000193,"velocity":0.7874015748031497,"duration":0.11408718750000446},{"name":"D#4","midi":63,"time":94.52371500000193,"velocity":0.7874015748031497,"duration":0.11408718750000446},{"name":"D#4","midi":63,"time":94.64276250000194,"velocity":0.7874015748031497,"duration":0.11408718750000446},{"name":"D4","midi":62,"time":94.76181000000194,"velocity":0.7874015748031497,"duration":0.11408718750000446},{"name":"D#4","midi":63,"time":94.99990500000195,"velocity":0.7874015748031497,"duration":0.11408718750000446},{"name":"D#4","midi":63,"time":95.11895250000195,"velocity":0.7874015748031497,"duration":0.11408718750000446},{"name":"E4","midi":64,"time":95.24296031250196,"velocity":0.7874015748031497,"duration":0.11408718750000446},{"name":"D#4","midi":63,"time":95.47609500000196,"velocity":0.7874015748031497,"duration":0.11408718750000446},{"name":"D#4","midi":63,"time":95.59514250000197,"velocity":0.7874015748031497,"duration":0.11408718750000446},{"name":"D4","midi":62,"time":95.71419000000198,"velocity":0.7874015748031497,"duration":0.11408718750000446},{"name":"D#4","midi":63,"time":95.95228500000198,"velocity":0.7874015748031497,"duration":0.11408718750000446},{"name":"D#4","midi":63,"time":96.07133250000199,"velocity":0.7874015748031497,"duration":0.11408718750000446},{"name":"E4","midi":64,"time":96.190380000002,"velocity":0.7874015748031497,"duration":0.11408718750000446},{"name":"D#4","midi":63,"time":96.428475000002,"velocity":0.7874015748031497,"duration":0.11408718750000446},{"name":"D#4","midi":63,"time":96.547522500002,"velocity":0.7874015748031497,"duration":0.11408718750000446},{"name":"D4","midi":62,"time":96.66657000000201,"velocity":0.7874015748031497,"duration":0.11408718750000446},{"name":"D#4","midi":63,"time":96.90466500000201,"velocity":0.7874015748031497,"duration":0.11408718750000446},{"name":"D#4","midi":63,"time":97.02371250000202,"velocity":0.7874015748031497,"duration":0.11408718750000446},{"name":"E4","midi":64,"time":97.14772031250203,"velocity":0.7874015748031497,"duration":0.11408718750000446},{"name":"D#4","midi":63,"time":97.38085500000203,"velocity":0.7874015748031497,"duration":0.11408718750000446},{"name":"D#4","midi":63,"time":97.49990250000204,"velocity":0.7874015748031497,"duration":0.11408718750000446},{"name":"D4","midi":62,"time":97.61895000000204,"velocity":0.7874015748031497,"duration":0.11408718750000446},{"name":"D#4","midi":63,"time":97.85704500000205,"velocity":0.7874015748031497,"duration":0.11408718750000446},{"name":"D#4","midi":63,"time":97.97609250000205,"velocity":0.7874015748031497,"duration":0.11408718750000446},{"name":"E4","midi":64,"time":98.09514000000206,"velocity":0.7874015748031497,"duration":0.11408718750000446},{"name":"D#4","midi":63,"time":98.33323500000206,"velocity":0.7874015748031497,"duration":0.11408718750000446},{"name":"D#4","midi":63,"time":98.45228250000207,"velocity":0.7874015748031497,"duration":0.11408718750000446},{"name":"D4","midi":62,"time":98.57133000000208,"velocity":0.7874015748031497,"duration":0.11408718750000446},{"name":"D#4","midi":63,"time":98.80942500000208,"velocity":0.7874015748031497,"duration":0.11408718750000446},{"name":"D#4","midi":63,"time":98.92847250000209,"velocity":0.7874015748031497,"duration":0.11408718750000446},{"name":"E4","midi":64,"time":99.0524803125021,"velocity":0.7874015748031497,"duration":0.11408718750000446},{"name":"D#4","midi":63,"time":99.2856150000021,"velocity":0.7874015748031497,"duration":0.11408718750000446},{"name":"D#4","midi":63,"time":99.4046625000021,"velocity":0.7874015748031497,"duration":0.11408718750000446},{"name":"D4","midi":62,"time":99.52371000000211,"velocity":0.7874015748031497,"duration":0.11408718750000446},{"name":"D#4","midi":63,"time":99.76180500000211,"velocity":0.7874015748031497,"duration":0.11408718750000446},{"name":"D#4","midi":63,"time":99.88085250000212,"velocity":0.7874015748031497,"duration":0.11408718750000446},{"name":"E4","midi":64,"time":99.99990000000213,"velocity":0.7874015748031497,"duration":0.11408718750000446},{"name":"D#4","midi":63,"time":100.23799500000213,"velocity":0.7874015748031497,"duration":0.11408718750000446},{"name":"D#4","midi":63,"time":100.35704250000214,"velocity":0.7874015748031497,"duration":0.11408718750000446},{"name":"D4","midi":62,"time":100.47609000000215,"velocity":0.7874015748031497,"duration":0.11408718750000446},{"name":"D#4","midi":63,"time":100.71418500000215,"velocity":0.7874015748031497,"duration":0.11408718750000446},{"name":"D#4","midi":63,"time":100.83323250000215,"velocity":0.7874015748031497,"duration":0.11408718750000446},{"name":"E4","midi":64,"time":100.95724031250217,"velocity":0.7874015748031497,"duration":0.11408718750000446},{"name":"D#4","midi":63,"time":101.19037500000216,"velocity":0.7874015748031497,"duration":0.11408718750000446},{"name":"D#4","midi":63,"time":101.30942250000217,"velocity":0.7874015748031497,"duration":0.11408718750000446},{"name":"D4","midi":62,"time":101.42847000000218,"velocity":0.7874015748031497,"duration":0.11408718750000446},{"name":"D#4","midi":63,"time":101.66656500000218,"velocity":0.7874015748031497,"duration":0.11408718750000446},{"name":"D#4","midi":63,"time":101.78561250000219,"velocity":0.7874015748031497,"duration":0.11408718750000446},{"name":"E4","midi":64,"time":101.9046600000022,"velocity":0.7874015748031497,"duration":0.11408718750000446},{"name":"D#4","midi":63,"time":102.1427550000022,"velocity":0.7874015748031497,"duration":0.11408718750000446},{"name":"D#4","midi":63,"time":102.2618025000022,"velocity":0.7874015748031497,"duration":0.11408718750000446},{"name":"D4","midi":62,"time":102.38085000000221,"velocity":0.7874015748031497,"duration":0.11408718750000446},{"name":"D#4","midi":63,"time":102.61894500000221,"velocity":0.7874015748031497,"duration":0.11408718750000446},{"name":"D#4","midi":63,"time":102.73799250000222,"velocity":0.7874015748031497,"duration":0.11408718750000446},{"name":"E4","midi":64,"time":102.86200031250223,"velocity":0.7874015748031497,"duration":0.11408718750000446},{"name":"D#4","midi":63,"time":103.09513500000223,"velocity":0.7874015748031497,"duration":0.11408718750000446},{"name":"D#4","midi":63,"time":103.21418250000224,"velocity":0.7874015748031497,"duration":0.11408718750000446},{"name":"D4","midi":62,"time":103.33323000000225,"velocity":0.7874015748031497,"duration":0.11408718750000446},{"name":"D#4","midi":63,"time":103.57132500000225,"velocity":0.7874015748031497,"duration":0.11408718750000446},{"name":"D#4","midi":63,"time":103.69037250000225,"velocity":0.7874015748031497,"duration":0.11408718750000446},{"name":"E4","midi":64,"time":103.80942000000226,"velocity":0.7874015748031497,"duration":0.11408718750000446},{"name":"D#4","midi":63,"time":104.04751500000226,"velocity":0.7874015748031497,"duration":0.11408718750000446},{"name":"D#4","midi":63,"time":104.16656250000227,"velocity":0.7874015748031497,"duration":0.11408718750000446},{"name":"D4","midi":62,"time":104.28561000000228,"velocity":0.7874015748031497,"duration":0.11408718750000446},{"name":"D#4","midi":63,"time":104.52370500000228,"velocity":0.7874015748031497,"duration":0.11408718750000446},{"name":"D#4","midi":63,"time":104.64275250000229,"velocity":0.7874015748031497,"duration":0.11408718750000446},{"name":"E4","midi":64,"time":104.7667603125023,"velocity":0.7874015748031497,"duration":0.11408718750000446},{"name":"D#4","midi":63,"time":104.9998950000023,"velocity":0.7874015748031497,"duration":0.11408718750000446},{"name":"D#4","midi":63,"time":105.1189425000023,"velocity":0.7874015748031497,"duration":0.11408718750000446},{"name":"D4","midi":62,"time":105.23799000000231,"velocity":0.7874015748031497,"duration":0.11408718750000446},{"name":"D#4","midi":63,"time":105.47608500000231,"velocity":0.7874015748031497,"duration":0.11408718750000446},{"name":"D#4","midi":63,"time":105.59513250000232,"velocity":0.7874015748031497,"duration":0.11408718750000446},{"name":"E4","midi":64,"time":105.71418000000233,"velocity":0.7874015748031497,"duration":0.11408718750000446},{"name":"D#4","midi":63,"time":105.95227500000233,"velocity":0.7874015748031497,"duration":0.11408718750000446},{"name":"D#4","midi":63,"time":106.07132250000234,"velocity":0.7874015748031497,"duration":0.11408718750000446},{"name":"D4","midi":62,"time":106.19037000000235,"velocity":0.7874015748031497,"duration":0.11408718750000446},{"name":"D#4","midi":63,"time":106.42846500000235,"velocity":0.7874015748031497,"duration":0.11408718750000446},{"name":"D#4","midi":63,"time":106.54751250000236,"velocity":0.7874015748031497,"duration":0.11408718750000446},{"name":"E4","midi":64,"time":106.67152031250237,"velocity":0.7874015748031497,"duration":0.11408718750000446},{"name":"D#4","midi":63,"time":106.90465500000236,"velocity":0.7874015748031497,"duration":0.11408718750000446},{"name":"D#4","midi":63,"time":107.02370250000237,"velocity":0.7874015748031497,"duration":0.11408718750000446},{"name":"D4","midi":62,"time":107.14275000000238,"velocity":0.7874015748031497,"duration":0.11408718750000446},{"name":"D#4","midi":63,"time":107.38084500000238,"velocity":0.7874015748031497,"duration":0.11408718750000446},{"name":"D#4","midi":63,"time":107.49989250000239,"velocity":0.7874015748031497,"duration":0.11408718750000446},{"name":"E4","midi":64,"time":107.6189400000024,"velocity":0.7874015748031497,"duration":0.11408718750000446},{"name":"D#4","midi":63,"time":107.8570350000024,"velocity":0.7874015748031497,"duration":0.11408718750000446},{"name":"D#4","midi":63,"time":107.9760825000024,"velocity":0.7874015748031497,"duration":0.11408718750000446},{"name":"D4","midi":62,"time":108.09513000000241,"velocity":0.7874015748031497,"duration":0.11408718750000446},{"name":"D#4","midi":63,"time":108.33322500000241,"velocity":0.7874015748031497,"duration":0.11408718750000446},{"name":"D#4","midi":63,"time":108.45227250000242,"velocity":0.7874015748031497,"duration":0.11408718750000446},{"name":"E4","midi":64,"time":108.57628031250243,"velocity":0.7874015748031497,"duration":0.11408718750000446},{"name":"D#4","midi":63,"time":108.80941500000243,"velocity":0.7874015748031497,"duration":0.11408718750000446},{"name":"D#4","midi":63,"time":108.92846250000244,"velocity":0.7874015748031497,"duration":0.11408718750000446},{"name":"D4","midi":62,"time":109.04751000000245,"velocity":0.7874015748031497,"duration":0.11408718750000446},{"name":"D#4","midi":63,"time":109.28560500000245,"velocity":0.7874015748031497,"duration":0.11408718750000446},{"name":"D#4","midi":63,"time":109.40465250000246,"velocity":0.7874015748031497,"duration":0.11408718750000446},{"name":"E4","midi":64,"time":109.52370000000246,"velocity":0.7874015748031497,"duration":0.11408718750000446},{"name":"D#4","midi":63,"time":109.76179500000246,"velocity":0.7874015748031497,"duration":0.11408718750000446},{"name":"D#4","midi":63,"time":109.88084250000247,"velocity":0.7874015748031497,"duration":0.11408718750000446},{"name":"D4","midi":62,"time":109.99989000000248,"velocity":0.7874015748031497,"duration":0.11408718750000446},{"name":"D#4","midi":63,"time":110.23798500000248,"velocity":0.7874015748031497,"duration":0.11408718750000446},{"name":"D#4","midi":63,"time":110.35703250000249,"velocity":0.7874015748031497,"duration":0.11408718750000446},{"name":"E4","midi":64,"time":110.4810403125025,"velocity":0.7874015748031497,"duration":0.11408718750000446},{"name":"D#4","midi":63,"time":110.7141750000025,"velocity":0.7874015748031497,"duration":0.11408718750000446},{"name":"D#4","midi":63,"time":110.8332225000025,"velocity":0.7874015748031497,"duration":0.11408718750000446},{"name":"D4","midi":62,"time":110.95227000000251,"velocity":0.7874015748031497,"duration":0.11408718750000446},{"name":"D#4","midi":63,"time":111.19036500000252,"velocity":0.7874015748031497,"duration":0.11408718750000446},{"name":"D#4","midi":63,"time":111.30941250000252,"velocity":0.7874015748031497,"duration":0.11408718750000446},{"name":"E4","midi":64,"time":111.42846000000253,"velocity":0.7874015748031497,"duration":0.11408718750000446},{"name":"D#4","midi":63,"time":111.66655500000253,"velocity":0.7874015748031497,"duration":0.11408718750000446},{"name":"D#4","midi":63,"time":111.78560250000254,"velocity":0.7874015748031497,"duration":0.11408718750000446},{"name":"D4","midi":62,"time":111.90465000000255,"velocity":0.7874015748031497,"duration":0.11408718750000446},{"name":"D#4","midi":63,"time":112.14274500000255,"velocity":0.7874015748031497,"duration":0.11408718750000446},{"name":"D#4","midi":63,"time":112.26179250000256,"velocity":0.7874015748031497,"duration":0.11408718750000446},{"name":"E4","midi":64,"time":112.38580031250257,"velocity":0.7874015748031497,"duration":0.11408718750000446},{"name":"D#4","midi":63,"time":112.61893500000257,"velocity":0.7874015748031497,"duration":0.11408718750000446},{"name":"D#4","midi":63,"time":112.73798250000257,"velocity":0.7874015748031497,"duration":0.11408718750000446},{"name":"D4","midi":62,"time":112.85703000000258,"velocity":0.7874015748031497,"duration":0.11408718750000446},{"name":"D#4","midi":63,"time":113.09512500000258,"velocity":0.7874015748031497,"duration":0.11408718750000446},{"name":"D#4","midi":63,"time":113.21417250000259,"velocity":0.7874015748031497,"duration":0.11408718750000446},{"name":"E4","midi":64,"time":113.3332200000026,"velocity":0.7874015748031497,"duration":0.11408718750000446},{"name":"D#4","midi":63,"time":113.5713150000026,"velocity":0.7874015748031497,"duration":0.11408718750000446},{"name":"D#4","midi":63,"time":113.6903625000026,"velocity":0.7874015748031497,"duration":0.11408718750000446},{"name":"D4","midi":62,"time":113.80941000000261,"velocity":0.7874015748031497,"duration":0.11408718750000446},{"name":"D#4","midi":63,"time":114.04750500000262,"velocity":0.7874015748031497,"duration":0.11408718750000446},{"name":"D#4","midi":63,"time":114.16655250000262,"velocity":0.7874015748031497,"duration":0.11408718750000446},{"name":"E4","midi":64,"time":114.29056031250263,"velocity":0.7874015748031497,"duration":0.11408718750000446},{"name":"D#4","midi":63,"time":114.52369500000263,"velocity":0.7874015748031497,"duration":0.11408718750000446},{"name":"D#4","midi":63,"time":114.64274250000264,"velocity":0.7874015748031497,"duration":0.11408718750000446},{"name":"D4","midi":62,"time":114.76179000000265,"velocity":0.7874015748031497,"duration":0.11408718750000446},{"name":"D#4","midi":63,"time":114.99988500000265,"velocity":0.7874015748031497,"duration":0.11408718750000446},{"name":"D#4","midi":63,"time":115.11893250000266,"velocity":0.7874015748031497,"duration":0.11408718750000446},{"name":"E4","midi":64,"time":115.23798000000266,"velocity":0.7874015748031497,"duration":0.11408718750000446},{"name":"D#4","midi":63,"time":115.47607500000267,"velocity":0.7874015748031497,"duration":0.11408718750000446},{"name":"D#4","midi":63,"time":115.59512250000267,"velocity":0.7874015748031497,"duration":0.11408718750000446},{"name":"D4","midi":62,"time":115.71417000000268,"velocity":0.7874015748031497,"duration":0.11408718750000446},{"name":"D#4","midi":63,"time":115.95226500000268,"velocity":0.7874015748031497,"duration":0.11408718750000446},{"name":"D#4","midi":63,"time":116.07131250000269,"velocity":0.7874015748031497,"duration":0.11408718750000446},{"name":"E4","midi":64,"time":116.1953203125027,"velocity":0.6299212598425197,"duration":0.11408718750000446},{"name":"D#4","midi":63,"time":116.4284550000027,"velocity":0.5511811023622047,"duration":0.11408718750000446},{"name":"D#4","midi":63,"time":116.54750250000271,"velocity":0.5118110236220472,"duration":0.11408718750000446},{"name":"D4","midi":62,"time":116.66655000000272,"velocity":0.4645669291338583,"duration":0.11408718750000446},{"name":"D#4","midi":63,"time":116.90464500000272,"velocity":0.3858267716535433,"duration":0.11408718750000446},{"name":"D#4","midi":63,"time":117.02369250000272,"velocity":0.33858267716535434,"duration":0.11408718750000446},{"name":"E4","midi":64,"time":117.14274000000273,"velocity":0.2992125984251969,"duration":0.11408718750000446},{"name":"D#4","midi":63,"time":117.38083500000273,"velocity":0.2125984251968504,"duration":0.11408718750000446},{"name":"D#4","midi":63,"time":117.49988250000274,"velocity":0.1732283464566929,"duration":0.11408718750000446},{"name":"D4","midi":62,"time":117.61893000000275,"velocity":0.13385826771653545,"duration":0.11408718750000446},{"name":"D#4","midi":63,"time":117.85702500000275,"velocity":0.047244094488188976,"duration":0.11408718750000446},{"name":"D#4","midi":63,"time":117.97607250000276,"velocity":0.007874015748031496,"duration":0.11408718750000446}],"controlChanges":{"7":[{"number":7,"time":0,"value":0.8267716535433071}],"10":[{"number":10,"time":0,"value":0.5039370078740157},{"number":10,"time":0,"value":1},{"number":10,"time":0.0446428125,"value":0.5039370078740157},{"number":10,"time":0.238095,"value":1},{"number":10,"time":0.248015625,"value":0.5039370078740157},{"number":10,"time":0.3571425,"value":1},{"number":10,"time":0.367063125,"value":0.5039370078740157},{"number":10,"time":0.47619,"value":1},{"number":10,"time":0.486110625,"value":0.5039370078740157},{"number":10,"time":0.7142850000000001,"value":1},{"number":10,"time":0.7242056250000001,"value":0.5039370078740157},{"number":10,"time":0.8333325,"value":1},{"number":10,"time":0.843253125,"value":0.5039370078740157},{"number":10,"time":0.95238,"value":1},{"number":10,"time":0.962300625,"value":0.5039370078740157},{"number":10,"time":1.190475,"value":1},{"number":10,"time":1.2003956249999999,"value":0.5039370078740157},{"number":10,"time":1.3095224999999997,"value":1},{"number":10,"time":1.3194431249999996,"value":0.5039370078740157},{"number":10,"time":1.4285699999999995,"value":1},{"number":10,"time":1.4384906249999994,"value":0.5039370078740157},{"number":10,"time":1.6666649999999992,"value":1},{"number":10,"time":1.676585624999999,"value":0.5039370078740157},{"number":10,"time":1.7857124999999991,"value":1},{"number":10,"time":1.795633124999999,"value":0.5039370078740157},{"number":10,"time":1.904759999999999,"value":1},{"number":10,"time":1.9097203124999989,"value":0.5039370078740157},{"number":10,"time":2.142854999999999,"value":1},{"number":10,"time":2.1478153124999992,"value":0.5039370078740157},{"number":10,"time":2.2619024999999993,"value":1},{"number":10,"time":2.2668628124999994,"value":0.5039370078740157},{"number":10,"time":2.3809499999999995,"value":1},{"number":10,"time":2.3859103124999996,"value":0.5039370078740157},{"number":10,"time":2.6190449999999994,"value":1},{"number":10,"time":2.6240053124999996,"value":0.5039370078740157},{"number":10,"time":2.7380924999999996,"value":1},{"number":10,"time":2.7430528124999998,"value":0.5039370078740157},{"number":10,"time":2.85714,"value":1},{"number":10,"time":2.8621003125,"value":0.5039370078740157},{"number":10,"time":3.0952349999999997,"value":1},{"number":10,"time":3.1001953125,"value":0.5039370078740157},{"number":10,"time":3.2142825,"value":1},{"number":10,"time":3.2192428125,"value":0.5039370078740157},{"number":10,"time":3.33333,"value":1},{"number":10,"time":3.3382903125000003,"value":0.5039370078740157},{"number":10,"time":3.571425,"value":1},{"number":10,"time":3.5763853125000002,"value":0.5039370078740157},{"number":10,"time":3.6904725000000003,"value":1},{"number":10,"time":3.6954328125000004,"value":0.5039370078740157},{"number":10,"time":3.8095200000000005,"value":1},{"number":10,"time":3.8144803125000006,"value":0.5039370078740157},{"number":10,"time":4.047615,"value":1},{"number":10,"time":4.0525753125,"value":0.5039370078740157},{"number":10,"time":4.1666625,"value":1},{"number":10,"time":4.1716228125,"value":0.5039370078740157},{"number":10,"time":4.28571,"value":1},{"number":10,"time":4.2906703125,"value":0.5039370078740157},{"number":10,"time":4.523805,"value":1},{"number":10,"time":4.5287653125,"value":0.5039370078740157},{"number":10,"time":4.6428525,"value":1},{"number":10,"time":4.6478128125,"value":0.5039370078740157},{"number":10,"time":4.7619,"value":1},{"number":10,"time":4.7668603124999995,"value":0.5039370078740157},{"number":10,"time":4.999995,"value":1},{"number":10,"time":5.0049553125,"value":0.5039370078740157},{"number":10,"time":5.1190425,"value":1},{"number":10,"time":5.1240028125,"value":0.5039370078740157},{"number":10,"time":5.23809,"value":1},{"number":10,"time":5.243050312499999,"value":0.5039370078740157},{"number":10,"time":5.476185,"value":1},{"number":10,"time":5.4811453125,"value":0.5039370078740157},{"number":10,"time":5.5952325,"value":1},{"number":10,"time":5.6001928125,"value":0.5039370078740157},{"number":10,"time":5.71428,"value":1},{"number":10,"time":5.719240312499999,"value":0.5039370078740157},{"number":10,"time":5.952374999999999,"value":1},{"number":10,"time":5.957335312499999,"value":0.5039370078740157},{"number":10,"time":6.071422499999999,"value":1},{"number":10,"time":6.076382812499999,"value":0.5039370078740157},{"number":10,"time":6.190469999999999,"value":1},{"number":10,"time":6.195430312499998,"value":0.5039370078740157},{"number":10,"time":6.428564999999999,"value":1},{"number":10,"time":6.433525312499999,"value":0.5039370078740157},{"number":10,"time":6.547612499999999,"value":1},{"number":10,"time":6.5525728124999985,"value":0.5039370078740157},{"number":10,"time":6.6666599999999985,"value":1},{"number":10,"time":6.671620312499998,"value":0.5039370078740157},{"number":10,"time":6.904754999999999,"value":1},{"number":10,"time":6.909715312499999,"value":0.5039370078740157},{"number":10,"time":7.023802499999999,"value":1},{"number":10,"time":7.028762812499998,"value":0.5039370078740157},{"number":10,"time":7.142849999999998,"value":1},{"number":10,"time":7.147810312499998,"value":0.5039370078740157},{"number":10,"time":7.380944999999999,"value":1},{"number":10,"time":7.3859053124999985,"value":0.5039370078740157},{"number":10,"time":7.4999924999999985,"value":1},{"number":10,"time":7.504952812499998,"value":0.5039370078740157},{"number":10,"time":7.619039999999998,"value":1},{"number":10,"time":7.628960624999998,"value":0.5039370078740157},{"number":10,"time":7.857134999999998,"value":1},{"number":10,"time":7.867055624999998,"value":0.5039370078740157},{"number":10,"time":7.9761824999999975,"value":1},{"number":10,"time":7.986103124999998,"value":0.5039370078740157},{"number":10,"time":8.095229999999997,"value":1},{"number":10,"time":8.105150624999997,"value":0.5039370078740157},{"number":10,"time":8.333324999999997,"value":1},{"number":10,"time":8.343245624999996,"value":0.5039370078740157},{"number":10,"time":8.452372499999996,"value":1},{"number":10,"time":8.462293124999995,"value":0.5039370078740157},{"number":10,"time":8.571419999999994,"value":1},{"number":10,"time":8.581340624999994,"value":0.5039370078740157},{"number":10,"time":8.809514999999994,"value":1},{"number":10,"time":8.819435624999993,"value":0.5039370078740157},{"number":10,"time":8.928562499999993,"value":1},{"number":10,"time":8.938483124999992,"value":0.5039370078740157},{"number":10,"time":9.047609999999992,"value":1},{"number":10,"time":9.057530624999991,"value":0.5039370078740157},{"number":10,"time":9.285704999999991,"value":1},{"number":10,"time":9.29562562499999,"value":0.5039370078740157},{"number":10,"time":9.40475249999999,"value":1},{"number":10,"time":9.41467312499999,"value":0.5039370078740157},{"number":10,"time":9.523799999999989,"value":1},{"number":10,"time":9.528760312499989,"value":0.5039370078740157},{"number":10,"time":9.761894999999988,"value":1},{"number":10,"time":9.766855312499988,"value":0.5039370078740157},{"number":10,"time":9.880942499999987,"value":1},{"number":10,"time":9.885902812499987,"value":0.5039370078740157},{"number":10,"time":9.999989999999986,"value":1},{"number":10,"time":10.004950312499986,"value":0.5039370078740157},{"number":10,"time":10.238084999999986,"value":1},{"number":10,"time":10.243045312499985,"value":0.5039370078740157},{"number":10,"time":10.357132499999985,"value":1},{"number":10,"time":10.362092812499984,"value":0.5039370078740157},{"number":10,"time":10.476179999999983,"value":1},{"number":10,"time":10.481140312499983,"value":0.5039370078740157},{"number":10,"time":10.714274999999983,"value":1},{"number":10,"time":10.719235312499983,"value":0.5039370078740157},{"number":10,"time":10.833322499999982,"value":1},{"number":10,"time":10.838282812499981,"value":0.5039370078740157},{"number":10,"time":10.95236999999998,"value":1},{"number":10,"time":10.95733031249998,"value":0.5039370078740157},{"number":10,"time":11.19046499999998,"value":1},{"number":10,"time":11.19542531249998,"value":0.5039370078740157},{"number":10,"time":11.309512499999979,"value":1},{"number":10,"time":11.314472812499979,"value":0.5039370078740157},{"number":10,"time":11.428559999999978,"value":1},{"number":10,"time":11.433520312499978,"value":0.5039370078740157},{"number":10,"time":11.666654999999977,"value":1},{"number":10,"time":11.671615312499977,"value":0.5039370078740157},{"number":10,"time":11.785702499999976,"value":1},{"number":10,"time":11.790662812499976,"value":0.5039370078740157},{"number":10,"time":11.904749999999975,"value":1},{"number":10,"time":11.909710312499975,"value":0.5039370078740157},{"number":10,"time":12.142844999999975,"value":1},{"number":10,"time":12.147805312499974,"value":0.5039370078740157},{"number":10,"time":12.261892499999973,"value":1},{"number":10,"time":12.266852812499973,"value":0.5039370078740157},{"number":10,"time":12.380939999999972,"value":1},{"number":10,"time":12.385900312499972,"value":0.5039370078740157},{"number":10,"time":12.619034999999972,"value":1},{"number":10,"time":12.623995312499972,"value":0.5039370078740157},{"number":10,"time":12.73808249999997,"value":1},{"number":10,"time":12.74304281249997,"value":0.5039370078740157},{"number":10,"time":12.85712999999997,"value":1},{"number":10,"time":12.86209031249997,"value":0.5039370078740157},{"number":10,"time":13.095224999999969,"value":1},{"number":10,"time":13.100185312499969,"value":0.5039370078740157},{"number":10,"time":13.214272499999968,"value":1},{"number":10,"time":13.219232812499968,"value":0.5039370078740157},{"number":10,"time":13.333319999999967,"value":1},{"number":10,"time":13.338280312499966,"value":0.5039370078740157},{"number":10,"time":13.571414999999966,"value":1},{"number":10,"time":13.576375312499966,"value":0.5039370078740157},{"number":10,"time":13.690462499999965,"value":1},{"number":10,"time":13.695422812499965,"value":0.5039370078740157},{"number":10,"time":13.809509999999964,"value":1},{"number":10,"time":13.814470312499964,"value":0.5039370078740157},{"number":10,"time":14.047604999999963,"value":1},{"number":10,"time":14.052565312499963,"value":0.5039370078740157},{"number":10,"time":14.166652499999962,"value":1},{"number":10,"time":14.171612812499962,"value":0.5039370078740157},{"number":10,"time":14.285699999999961,"value":1},{"number":10,"time":14.290660312499961,"value":0.5039370078740157},{"number":10,"time":14.52379499999996,"value":1},{"number":10,"time":14.52875531249996,"value":0.5039370078740157},{"number":10,"time":14.64284249999996,"value":1},{"number":10,"time":14.64780281249996,"value":0.5039370078740157},{"number":10,"time":14.761889999999958,"value":1},{"number":10,"time":14.766850312499958,"value":0.5039370078740157},{"number":10,"time":14.999984999999958,"value":1},{"number":10,"time":15.004945312499958,"value":0.5039370078740157},{"number":10,"time":15.119032499999957,"value":1},{"number":10,"time":15.123992812499957,"value":0.5039370078740157},{"number":10,"time":15.238079999999956,"value":1},{"number":10,"time":15.248000624999955,"value":0.5039370078740157},{"number":10,"time":15.476174999999955,"value":1},{"number":10,"time":15.486095624999955,"value":0.5039370078740157},{"number":10,"time":15.595222499999954,"value":1},{"number":10,"time":15.605143124999953,"value":0.5039370078740157},{"number":10,"time":15.714269999999953,"value":1},{"number":10,"time":15.724190624999952,"value":0.5039370078740157},{"number":10,"time":15.952364999999952,"value":1},{"number":10,"time":15.962285624999952,"value":0.5039370078740157},{"number":10,"time":16.07141249999995,"value":1},{"number":10,"time":16.08133312499995,"value":0.5039370078740157},{"number":10,"time":16.190459999999952,"value":1},{"number":10,"time":16.20038062499995,"value":0.5039370078740157},{"number":10,"time":16.428554999999953,"value":1},{"number":10,"time":16.438475624999953,"value":0.5039370078740157},{"number":10,"time":16.547602499999954,"value":1},{"number":10,"time":16.557523124999953,"value":0.5039370078740157},{"number":10,"time":16.666649999999954,"value":1},{"number":10,"time":16.676570624999954,"value":0.5039370078740157},{"number":10,"time":16.904744999999956,"value":1},{"number":10,"time":16.914665624999955,"value":0.5039370078740157},{"number":10,"time":17.023792499999956,"value":1},{"number":10,"time":17.033713124999956,"value":0.5039370078740157},{"number":10,"time":17.142839999999957,"value":1},{"number":10,"time":17.147800312499957,"value":0.5039370078740157},{"number":10,"time":17.38093499999996,"value":1},{"number":10,"time":17.385895312499958,"value":0.5039370078740157},{"number":10,"time":17.49998249999996,"value":1},{"number":10,"time":17.50494281249996,"value":0.5039370078740157},{"number":10,"time":17.61902999999996,"value":1},{"number":10,"time":17.62399031249996,"value":0.5039370078740157},{"number":10,"time":17.85712499999996,"value":1},{"number":10,"time":17.86208531249996,"value":0.5039370078740157},{"number":10,"time":17.97617249999996,"value":1},{"number":10,"time":17.98113281249996,"value":0.5039370078740157},{"number":10,"time":18.095219999999962,"value":1},{"number":10,"time":18.100180312499962,"value":0.5039370078740157},{"number":10,"time":18.333314999999963,"value":1},{"number":10,"time":18.338275312499963,"value":0.5039370078740157},{"number":10,"time":18.452362499999964,"value":1},{"number":10,"time":18.457322812499964,"value":0.5039370078740157},{"number":10,"time":18.571409999999965,"value":1},{"number":10,"time":18.576370312499964,"value":0.5039370078740157},{"number":10,"time":18.809504999999966,"value":1},{"number":10,"time":18.814465312499966,"value":0.5039370078740157},{"number":10,"time":18.928552499999967,"value":1},{"number":10,"time":18.933512812499966,"value":0.5039370078740157},{"number":10,"time":19.047599999999967,"value":1},{"number":10,"time":19.052560312499967,"value":0.5039370078740157},{"number":10,"time":19.28569499999997,"value":1},{"number":10,"time":19.29065531249997,"value":0.5039370078740157},{"number":10,"time":19.40474249999997,"value":1},{"number":10,"time":19.40970281249997,"value":0.5039370078740157},{"number":10,"time":19.52378999999997,"value":1},{"number":10,"time":19.52875031249997,"value":0.5039370078740157},{"number":10,"time":19.76188499999997,"value":1},{"number":10,"time":19.76684531249997,"value":0.5039370078740157},{"number":10,"time":19.88093249999997,"value":1},{"number":10,"time":19.88589281249997,"value":0.5039370078740157},{"number":10,"time":19.999979999999972,"value":1},{"number":10,"time":20.004940312499972,"value":0.5039370078740157},{"number":10,"time":20.238074999999974,"value":1},{"number":10,"time":20.243035312499973,"value":0.5039370078740157},{"number":10,"time":20.357122499999974,"value":1},{"number":10,"time":20.362082812499974,"value":0.5039370078740157},{"number":10,"time":20.476169999999975,"value":1},{"number":10,"time":20.481130312499975,"value":0.5039370078740157},{"number":10,"time":20.714264999999976,"value":1},{"number":10,"time":20.719225312499976,"value":0.5039370078740157},{"number":10,"time":20.833312499999977,"value":1},{"number":10,"time":20.838272812499977,"value":0.5039370078740157},{"number":10,"time":20.952359999999977,"value":1},{"number":10,"time":20.957320312499977,"value":0.5039370078740157},{"number":10,"time":21.19045499999998,"value":1},{"number":10,"time":21.19541531249998,"value":0.5039370078740157},{"number":10,"time":21.30950249999998,"value":1},{"number":10,"time":21.31446281249998,"value":0.5039370078740157},{"number":10,"time":21.42854999999998,"value":1},{"number":10,"time":21.43351031249998,"value":0.5039370078740157},{"number":10,"time":21.66664499999998,"value":1},{"number":10,"time":21.67160531249998,"value":0.5039370078740157},{"number":10,"time":21.785692499999982,"value":1},{"number":10,"time":21.79065281249998,"value":0.5039370078740157},{"number":10,"time":21.904739999999983,"value":1},{"number":10,"time":21.909700312499982,"value":0.5039370078740157},{"number":10,"time":22.142834999999984,"value":1},{"number":10,"time":22.147795312499984,"value":0.5039370078740157},{"number":10,"time":22.261882499999984,"value":1},{"number":10,"time":22.266842812499984,"value":0.5039370078740157},{"number":10,"time":22.380929999999985,"value":1},{"number":10,"time":22.385890312499985,"value":0.5039370078740157},{"number":10,"time":22.619024999999986,"value":1},{"number":10,"time":22.623985312499986,"value":0.5039370078740157},{"number":10,"time":22.738072499999987,"value":1},{"number":10,"time":22.743032812499987,"value":0.5039370078740157},{"number":10,"time":22.857119999999988,"value":1},{"number":10,"time":22.867040624999987,"value":0.5039370078740157},{"number":10,"time":23.09521499999999,"value":1},{"number":10,"time":23.10513562499999,"value":0.5039370078740157},{"number":10,"time":23.21426249999999,"value":1},{"number":10,"time":23.22418312499999,"value":0.5039370078740157},{"number":10,"time":23.33330999999999,"value":1},{"number":10,"time":23.34323062499999,"value":0.5039370078740157},{"number":10,"time":23.57140499999999,"value":1},{"number":10,"time":23.58132562499999,"value":0.5039370078740157},{"number":10,"time":23.690452499999992,"value":1},{"number":10,"time":23.70037312499999,"value":0.5039370078740157},{"number":10,"time":23.809499999999993,"value":1},{"number":10,"time":23.819420624999992,"value":0.5039370078740157},{"number":10,"time":24.047594999999994,"value":1},{"number":10,"time":24.057515624999994,"value":0.5039370078740157},{"number":10,"time":24.166642499999995,"value":1},{"number":10,"time":24.176563124999994,"value":0.5039370078740157},{"number":10,"time":24.285689999999995,"value":1},{"number":10,"time":24.295610624999995,"value":0.5039370078740157},{"number":10,"time":24.523784999999997,"value":1},{"number":10,"time":24.533705624999996,"value":0.5039370078740157},{"number":10,"time":24.642832499999997,"value":1},{"number":10,"time":24.652753124999997,"value":0.5039370078740157},{"number":10,"time":24.761879999999998,"value":1},{"number":10,"time":24.766840312499998,"value":0.5039370078740157},{"number":10,"time":24.999975,"value":1},{"number":10,"time":25.0049353125,"value":0.5039370078740157},{"number":10,"time":25.1190225,"value":1},{"number":10,"time":25.1239828125,"value":0.5039370078740157},{"number":10,"time":25.23807,"value":1},{"number":10,"time":25.2430303125,"value":0.5039370078740157},{"number":10,"time":25.476165,"value":1},{"number":10,"time":25.4811253125,"value":0.5039370078740157},{"number":10,"time":25.595212500000002,"value":1},{"number":10,"time":25.600172812500002,"value":0.5039370078740157},{"number":10,"time":25.714260000000003,"value":1},{"number":10,"time":25.719220312500003,"value":0.5039370078740157},{"number":10,"time":25.952355000000004,"value":1},{"number":10,"time":25.957315312500004,"value":0.5039370078740157},{"number":10,"time":26.071402500000005,"value":1},{"number":10,"time":26.076362812500005,"value":0.5039370078740157},{"number":10,"time":26.190450000000006,"value":1},{"number":10,"time":26.195410312500005,"value":0.5039370078740157},{"number":10,"time":26.428545000000007,"value":1},{"number":10,"time":26.433505312500007,"value":0.5039370078740157},{"number":10,"time":26.547592500000007,"value":1},{"number":10,"time":26.552552812500007,"value":0.5039370078740157},{"number":10,"time":26.666640000000008,"value":1},{"number":10,"time":26.671600312500008,"value":0.5039370078740157},{"number":10,"time":26.90473500000001,"value":1},{"number":10,"time":26.90969531250001,"value":0.5039370078740157},{"number":10,"time":27.02378250000001,"value":1},{"number":10,"time":27.02874281250001,"value":0.5039370078740157},{"number":10,"time":27.14283000000001,"value":1},{"number":10,"time":27.14779031250001,"value":0.5039370078740157},{"number":10,"time":27.380925000000012,"value":1},{"number":10,"time":27.38588531250001,"value":0.5039370078740157},{"number":10,"time":27.499972500000013,"value":1},{"number":10,"time":27.504932812500012,"value":0.5039370078740157},{"number":10,"time":27.619020000000013,"value":1},{"number":10,"time":27.623980312500013,"value":0.5039370078740157},{"number":10,"time":27.857115000000015,"value":1},{"number":10,"time":27.862075312500014,"value":0.5039370078740157},{"number":10,"time":27.976162500000015,"value":1},{"number":10,"time":27.981122812500015,"value":0.5039370078740157},{"number":10,"time":28.095210000000016,"value":1},{"number":10,"time":28.100170312500016,"value":0.5039370078740157},{"number":10,"time":28.333305000000017,"value":1},{"number":10,"time":28.338265312500017,"value":0.5039370078740157},{"number":10,"time":28.452352500000018,"value":1},{"number":10,"time":28.457312812500017,"value":0.5039370078740157},{"number":10,"time":28.57140000000002,"value":1},{"number":10,"time":28.576360312500018,"value":0.5039370078740157},{"number":10,"time":28.80949500000002,"value":1},{"number":10,"time":28.81445531250002,"value":0.5039370078740157},{"number":10,"time":28.92854250000002,"value":1},{"number":10,"time":28.93350281250002,"value":0.5039370078740157},{"number":10,"time":29.04759000000002,"value":1},{"number":10,"time":29.05255031250002,"value":0.5039370078740157},{"number":10,"time":29.285685000000022,"value":1},{"number":10,"time":29.290645312500022,"value":0.5039370078740157},{"number":10,"time":29.404732500000023,"value":1},{"number":10,"time":29.409692812500023,"value":0.5039370078740157},{"number":10,"time":29.523780000000023,"value":1},{"number":10,"time":29.528740312500023,"value":0.5039370078740157},{"number":10,"time":29.761875000000025,"value":1},{"number":10,"time":29.766835312500024,"value":0.5039370078740157},{"number":10,"time":29.880922500000025,"value":1},{"number":10,"time":29.885882812500025,"value":0.5039370078740157},{"number":10,"time":29.999970000000026,"value":1},{"number":10,"time":30.004930312500026,"value":0.5039370078740157},{"number":10,"time":30.238065000000027,"value":1},{"number":10,"time":30.243025312500027,"value":0.5039370078740157},{"number":10,"time":30.357112500000028,"value":1},{"number":10,"time":30.362072812500028,"value":0.5039370078740157},{"number":10,"time":30.47616000000003,"value":1},{"number":10,"time":30.486080625000028,"value":0.5039370078740157},{"number":10,"time":30.71425500000003,"value":1},{"number":10,"time":30.72417562500003,"value":0.5039370078740157},{"number":10,"time":30.83330250000003,"value":1},{"number":10,"time":30.84322312500003,"value":0.5039370078740157},{"number":10,"time":30.95235000000003,"value":1},{"number":10,"time":30.96227062500003,"value":0.5039370078740157},{"number":10,"time":31.190445000000032,"value":1},{"number":10,"time":31.200365625000032,"value":0.5039370078740157},{"number":10,"time":31.309492500000033,"value":1},{"number":10,"time":31.319413125000032,"value":0.5039370078740157},{"number":10,"time":31.428540000000034,"value":1},{"number":10,"time":31.438460625000033,"value":0.5039370078740157},{"number":10,"time":31.666635000000035,"value":1},{"number":10,"time":31.676555625000034,"value":0.5039370078740157},{"number":10,"time":31.785682500000036,"value":1},{"number":10,"time":31.795603125000035,"value":0.5039370078740157},{"number":10,"time":31.904730000000036,"value":1},{"number":10,"time":31.914650625000036,"value":0.5039370078740157},{"number":10,"time":32.14282500000003,"value":1},{"number":10,"time":32.15274562500003,"value":0.5039370078740157},{"number":10,"time":32.26187250000003,"value":1},{"number":10,"time":32.27179312500003,"value":0.5039370078740157},{"number":10,"time":32.38092000000003,"value":1},{"number":10,"time":32.385880312500035,"value":0.5039370078740157},{"number":10,"time":32.61901500000003,"value":1},{"number":10,"time":32.623975312500036,"value":0.5039370078740157},{"number":10,"time":32.73806250000004,"value":1},{"number":10,"time":32.743022812500044,"value":0.5039370078740157},{"number":10,"time":32.85711000000005,"value":1},{"number":10,"time":32.86207031250005,"value":0.5039370078740157},{"number":10,"time":33.09520500000005,"value":1},{"number":10,"time":33.10016531250005,"value":0.5039370078740157},{"number":10,"time":33.21425250000006,"value":1},{"number":10,"time":33.21921281250006,"value":0.5039370078740157},{"number":10,"time":33.333300000000065,"value":1},{"number":10,"time":33.33826031250007,"value":0.5039370078740157},{"number":10,"time":33.57139500000007,"value":1},{"number":10,"time":33.57635531250007,"value":0.5039370078740157},{"number":10,"time":33.690442500000074,"value":1},{"number":10,"time":33.69540281250008,"value":0.5039370078740157},{"number":10,"time":33.80949000000008,"value":1},{"number":10,"time":33.814450312500085,"value":0.5039370078740157},{"number":10,"time":34.04758500000008,"value":1},{"number":10,"time":34.05254531250009,"value":0.5039370078740157},{"number":10,"time":34.16663250000009,"value":1},{"number":10,"time":34.171592812500094,"value":0.5039370078740157},{"number":10,"time":34.2856800000001,"value":1},{"number":10,"time":34.2906403125001,"value":0.5039370078740157},{"number":10,"time":34.5237750000001,"value":1},{"number":10,"time":34.5287353125001,"value":0.5039370078740157},{"number":10,"time":34.64282250000011,"value":1},{"number":10,"time":34.64778281250011,"value":0.5039370078740157},{"number":10,"time":34.761870000000116,"value":1},{"number":10,"time":34.76683031250012,"value":0.5039370078740157},{"number":10,"time":34.99996500000012,"value":1},{"number":10,"time":35.00492531250012,"value":0.5039370078740157},{"number":10,"time":35.119012500000125,"value":1},{"number":10,"time":35.12397281250013,"value":0.5039370078740157},{"number":10,"time":35.23806000000013,"value":1},{"number":10,"time":35.243020312500136,"value":0.5039370078740157},{"number":10,"time":35.476155000000134,"value":1},{"number":10,"time":35.48111531250014,"value":0.5039370078740157},{"number":10,"time":35.59520250000014,"value":1},{"number":10,"time":35.600162812500145,"value":0.5039370078740157},{"number":10,"time":35.71425000000015,"value":1},{"number":10,"time":35.71921031250015,"value":0.5039370078740157},{"number":10,"time":35.95234500000015,"value":1},{"number":10,"time":35.957305312500154,"value":0.5039370078740157},{"number":10,"time":36.07139250000016,"value":1},{"number":10,"time":36.07635281250016,"value":0.5039370078740157},{"number":10,"time":36.190440000000166,"value":1},{"number":10,"time":36.19540031250017,"value":0.5039370078740157},{"number":10,"time":36.42853500000017,"value":1},{"number":10,"time":36.43349531250017,"value":0.5039370078740157},{"number":10,"time":36.547582500000175,"value":1},{"number":10,"time":36.55254281250018,"value":0.5039370078740157},{"number":10,"time":36.66663000000018,"value":1},{"number":10,"time":36.671590312500186,"value":0.5039370078740157},{"number":10,"time":36.904725000000184,"value":1},{"number":10,"time":36.90968531250019,"value":0.5039370078740157},{"number":10,"time":37.02377250000019,"value":1},{"number":10,"time":37.028732812500195,"value":0.5039370078740157},{"number":10,"time":37.1428200000002,"value":1},{"number":10,"time":37.1477803125002,"value":0.5039370078740157},{"number":10,"time":37.3809150000002,"value":1},{"number":10,"time":37.385875312500204,"value":0.5039370078740157},{"number":10,"time":37.49996250000021,"value":1},{"number":10,"time":37.50492281250021,"value":0.5039370078740157},{"number":10,"time":37.619010000000216,"value":1},{"number":10,"time":37.62397031250022,"value":0.5039370078740157},{"number":10,"time":37.85710500000022,"value":1},{"number":10,"time":37.86206531250022,"value":0.5039370078740157},{"number":10,"time":37.976152500000225,"value":1},{"number":10,"time":37.98111281250023,"value":0.5039370078740157},{"number":10,"time":38.09520000000023,"value":1},{"number":10,"time":38.10512062500024,"value":0.5039370078740157},{"number":10,"time":38.33329500000024,"value":1},{"number":10,"time":38.34321562500024,"value":0.5039370078740157},{"number":10,"time":38.45234250000024,"value":1},{"number":10,"time":38.46226312500024,"value":0.5039370078740157},{"number":10,"time":38.57139000000024,"value":1},{"number":10,"time":38.58131062500024,"value":0.5039370078740157},{"number":10,"time":38.80948500000024,"value":1},{"number":10,"time":38.819405625000236,"value":0.5039370078740157},{"number":10,"time":38.92853250000024,"value":1},{"number":10,"time":38.93845312500024,"value":0.5039370078740157},{"number":10,"time":39.04758000000024,"value":1},{"number":10,"time":39.05750062500024,"value":0.5039370078740157},{"number":10,"time":39.28567500000023,"value":1},{"number":10,"time":39.29559562500023,"value":0.5039370078740157},{"number":10,"time":39.40472250000023,"value":1},{"number":10,"time":39.41464312500023,"value":0.5039370078740157},{"number":10,"time":39.52377000000023,"value":1},{"number":10,"time":39.53369062500023,"value":0.5039370078740157},{"number":10,"time":39.76186500000023,"value":1},{"number":10,"time":39.77178562500023,"value":0.5039370078740157},{"number":10,"time":39.88091250000023,"value":1},{"number":10,"time":39.89083312500023,"value":0.5039370078740157},{"number":10,"time":39.99996000000023,"value":1},{"number":10,"time":40.00492031250023,"value":0.5039370078740157},{"number":10,"time":40.23805500000023,"value":1},{"number":10,"time":40.24301531250023,"value":0.5039370078740157},{"number":10,"time":40.35710250000024,"value":1},{"number":10,"time":40.36206281250024,"value":0.5039370078740157},{"number":10,"time":40.476150000000246,"value":1},{"number":10,"time":40.48111031250025,"value":0.5039370078740157},{"number":10,"time":40.71424500000025,"value":1},{"number":10,"time":40.71920531250025,"value":0.5039370078740157},{"number":10,"time":40.833292500000255,"value":1},{"number":10,"time":40.83825281250026,"value":0.5039370078740157},{"number":10,"time":40.95234000000026,"value":1},{"number":10,"time":40.957300312500266,"value":0.5039370078740157},{"number":10,"time":41.190435000000264,"value":1},{"number":10,"time":41.19539531250027,"value":0.5039370078740157},{"number":10,"time":41.30948250000027,"value":1},{"number":10,"time":41.314442812500275,"value":0.5039370078740157},{"number":10,"time":41.42853000000028,"value":1},{"number":10,"time":41.43349031250028,"value":0.5039370078740157},{"number":10,"time":41.66662500000028,"value":1},{"number":10,"time":41.671585312500284,"value":0.5039370078740157},{"number":10,"time":41.78567250000029,"value":1},{"number":10,"time":41.79063281250029,"value":0.5039370078740157},{"number":10,"time":41.904720000000296,"value":1},{"number":10,"time":41.9096803125003,"value":0.5039370078740157},{"number":10,"time":42.1428150000003,"value":1},{"number":10,"time":42.1477753125003,"value":0.5039370078740157},{"number":10,"time":42.261862500000305,"value":1},{"number":10,"time":42.26682281250031,"value":0.5039370078740157},{"number":10,"time":42.38091000000031,"value":1},{"number":10,"time":42.385870312500316,"value":0.5039370078740157},{"number":10,"time":42.619005000000314,"value":1},{"number":10,"time":42.62396531250032,"value":0.5039370078740157},{"number":10,"time":42.73805250000032,"value":1},{"number":10,"time":42.743012812500325,"value":0.5039370078740157},{"number":10,"time":42.85710000000033,"value":1},{"number":10,"time":42.86206031250033,"value":0.5039370078740157},{"number":10,"time":43.09519500000033,"value":1},{"number":10,"time":43.100155312500334,"value":0.5039370078740157},{"number":10,"time":43.21424250000034,"value":1},{"number":10,"time":43.21920281250034,"value":0.5039370078740157},{"number":10,"time":43.333290000000346,"value":1},{"number":10,"time":43.33825031250035,"value":0.5039370078740157},{"number":10,"time":43.57138500000035,"value":1},{"number":10,"time":43.57634531250035,"value":0.5039370078740157},{"number":10,"time":43.690432500000355,"value":1},{"number":10,"time":43.69539281250036,"value":0.5039370078740157},{"number":10,"time":43.80948000000036,"value":1},{"number":10,"time":43.814440312500366,"value":0.5039370078740157},{"number":10,"time":44.047575000000364,"value":1},{"number":10,"time":44.05253531250037,"value":0.5039370078740157},{"number":10,"time":44.16662250000037,"value":1},{"number":10,"time":44.171582812500375,"value":0.5039370078740157},{"number":10,"time":44.28567000000038,"value":1},{"number":10,"time":44.29063031250038,"value":0.5039370078740157},{"number":10,"time":44.52376500000038,"value":1},{"number":10,"time":44.528725312500384,"value":0.5039370078740157},{"number":10,"time":44.64281250000039,"value":1},{"number":10,"time":44.64777281250039,"value":0.5039370078740157},{"number":10,"time":44.7618600000004,"value":1},{"number":10,"time":44.7668203125004,"value":0.5039370078740157},{"number":10,"time":44.9999550000004,"value":1},{"number":10,"time":45.0049153125004,"value":0.5039370078740157},{"number":10,"time":45.119002500000406,"value":1},{"number":10,"time":45.12396281250041,"value":0.5039370078740157},{"number":10,"time":45.23805000000041,"value":1},{"number":10,"time":45.24301031250042,"value":0.5039370078740157},{"number":10,"time":45.476145000000415,"value":1},{"number":10,"time":45.48110531250042,"value":0.5039370078740157},{"number":10,"time":45.59519250000042,"value":1},{"number":10,"time":45.600152812500426,"value":0.5039370078740157},{"number":10,"time":45.71424000000043,"value":1},{"number":10,"time":45.72416062500044,"value":0.5039370078740157},{"number":10,"time":45.95233500000044,"value":1},{"number":10,"time":45.96225562500044,"value":0.5039370078740157},{"number":10,"time":46.07138250000044,"value":1},{"number":10,"time":46.08130312500044,"value":0.5039370078740157},{"number":10,"time":46.19043000000044,"value":1},{"number":10,"time":46.20035062500044,"value":0.5039370078740157},{"number":10,"time":46.428525000000434,"value":1},{"number":10,"time":46.43844562500043,"value":0.5039370078740157},{"number":10,"time":46.547572500000435,"value":1},{"number":10,"time":46.557493125000434,"value":0.5039370078740157},{"number":10,"time":46.666620000000435,"value":1},{"number":10,"time":46.676540625000435,"value":0.5039370078740157},{"number":10,"time":46.90471500000043,"value":1},{"number":10,"time":46.91463562500043,"value":0.5039370078740157},{"number":10,"time":47.02376250000043,"value":1},{"number":10,"time":47.03368312500043,"value":0.5039370078740157},{"number":10,"time":47.14281000000043,"value":1},{"number":10,"time":47.15273062500043,"value":0.5039370078740157},{"number":10,"time":47.380905000000425,"value":1},{"number":10,"time":47.390825625000424,"value":0.5039370078740157},{"number":10,"time":47.499952500000425,"value":1},{"number":10,"time":47.509873125000425,"value":0.5039370078740157},{"number":10,"time":47.619000000000426,"value":1},{"number":10,"time":47.62396031250043,"value":0.5039370078740157},{"number":10,"time":47.85709500000043,"value":1},{"number":10,"time":47.86205531250043,"value":0.5039370078740157},{"number":10,"time":47.976142500000435,"value":1},{"number":10,"time":47.98110281250044,"value":0.5039370078740157},{"number":10,"time":48.09519000000044,"value":1},{"number":10,"time":48.100150312500446,"value":0.5039370078740157},{"number":10,"time":48.333285000000444,"value":1},{"number":10,"time":48.33824531250045,"value":0.5039370078740157},{"number":10,"time":48.45233250000045,"value":1},{"number":10,"time":48.457292812500455,"value":0.5039370078740157},{"number":10,"time":48.57138000000046,"value":1},{"number":10,"time":48.57634031250046,"value":0.5039370078740157},{"number":10,"time":48.80947500000046,"value":1},{"number":10,"time":48.814435312500464,"value":0.5039370078740157},{"number":10,"time":48.92852250000047,"value":1},{"number":10,"time":48.93348281250047,"value":0.5039370078740157},{"number":10,"time":49.047570000000476,"value":1},{"number":10,"time":49.05253031250048,"value":0.5039370078740157},{"number":10,"time":49.28566500000048,"value":1},{"number":10,"time":49.29062531250048,"value":0.5039370078740157},{"number":10,"time":49.404712500000485,"value":1},{"number":10,"time":49.40967281250049,"value":0.5039370078740157},{"number":10,"time":49.52376000000049,"value":1},{"number":10,"time":49.5287203125005,"value":0.5039370078740157},{"number":10,"time":49.761855000000494,"value":1},{"number":10,"time":49.7668153125005,"value":0.5039370078740157},{"number":10,"time":49.8809025000005,"value":1},{"number":10,"time":49.885862812500505,"value":0.5039370078740157},{"number":10,"time":49.99995000000051,"value":1},{"number":10,"time":50.00491031250051,"value":0.5039370078740157},{"number":10,"time":50.23804500000051,"value":1},{"number":10,"time":50.243005312500514,"value":0.5039370078740157},{"number":10,"time":50.35709250000052,"value":1},{"number":10,"time":50.36205281250052,"value":0.5039370078740157},{"number":10,"time":50.47614000000053,"value":1},{"number":10,"time":50.48110031250053,"value":0.5039370078740157},{"number":10,"time":50.71423500000053,"value":1},{"number":10,"time":50.71919531250053,"value":0.5039370078740157},{"number":10,"time":50.833282500000536,"value":1},{"number":10,"time":50.83824281250054,"value":0.5039370078740157},{"number":10,"time":50.95233000000054,"value":1},{"number":10,"time":50.95729031250055,"value":0.5039370078740157},{"number":10,"time":51.190425000000545,"value":1},{"number":10,"time":51.19538531250055,"value":0.5039370078740157},{"number":10,"time":51.30947250000055,"value":1},{"number":10,"time":51.314432812500556,"value":0.5039370078740157},{"number":10,"time":51.42852000000056,"value":1},{"number":10,"time":51.43348031250056,"value":0.5039370078740157},{"number":10,"time":51.66661500000056,"value":1},{"number":10,"time":51.671575312500565,"value":0.5039370078740157},{"number":10,"time":51.78566250000057,"value":1},{"number":10,"time":51.79062281250057,"value":0.5039370078740157},{"number":10,"time":51.90471000000058,"value":1},{"number":10,"time":51.90967031250058,"value":0.5039370078740157},{"number":10,"time":52.14280500000058,"value":1},{"number":10,"time":52.14776531250058,"value":0.5039370078740157},{"number":10,"time":52.261852500000586,"value":1},{"number":10,"time":52.26681281250059,"value":0.5039370078740157},{"number":10,"time":52.380900000000594,"value":1},{"number":10,"time":52.3858603125006,"value":0.5039370078740157},{"number":10,"time":52.618995000000595,"value":1},{"number":10,"time":52.6239553125006,"value":0.5039370078740157},{"number":10,"time":52.7380425000006,"value":1},{"number":10,"time":52.743002812500606,"value":0.5039370078740157},{"number":10,"time":52.85709000000061,"value":1},{"number":10,"time":52.862050312500614,"value":0.5039370078740157},{"number":10,"time":53.09518500000061,"value":1},{"number":10,"time":53.100145312500615,"value":0.5039370078740157},{"number":10,"time":53.21423250000062,"value":1},{"number":10,"time":53.21919281250062,"value":0.5039370078740157},{"number":10,"time":53.33328000000063,"value":1},{"number":10,"time":53.343200625000634,"value":0.5039370078740157},{"number":10,"time":53.571375000000636,"value":1},{"number":10,"time":53.581295625000635,"value":0.5039370078740157},{"number":10,"time":53.690422500000636,"value":1},{"number":10,"time":53.700343125000636,"value":0.5039370078740157},{"number":10,"time":53.80947000000064,"value":1},{"number":10,"time":53.819390625000636,"value":0.5039370078740157},{"number":10,"time":54.04756500000063,"value":1},{"number":10,"time":54.05748562500063,"value":0.5039370078740157},{"number":10,"time":54.16661250000063,"value":1},{"number":10,"time":54.17653312500063,"value":0.5039370078740157},{"number":10,"time":54.28566000000063,"value":1},{"number":10,"time":54.29558062500063,"value":0.5039370078740157},{"number":10,"time":54.52375500000063,"value":1},{"number":10,"time":54.533675625000626,"value":0.5039370078740157},{"number":10,"time":54.64280250000063,"value":1},{"number":10,"time":54.65272312500063,"value":0.5039370078740157},{"number":10,"time":54.76185000000063,"value":1},{"number":10,"time":54.77177062500063,"value":0.5039370078740157},{"number":10,"time":54.99994500000062,"value":1},{"number":10,"time":55.00986562500062,"value":0.5039370078740157},{"number":10,"time":55.11899250000062,"value":1},{"number":10,"time":55.12891312500062,"value":0.5039370078740157},{"number":10,"time":55.23804000000062,"value":1},{"number":10,"time":55.24300031250063,"value":0.5039370078740157},{"number":10,"time":55.476135000000625,"value":1},{"number":10,"time":55.48109531250063,"value":0.5039370078740157},{"number":10,"time":55.59518250000063,"value":1},{"number":10,"time":55.600142812500636,"value":0.5039370078740157},{"number":10,"time":55.71423000000064,"value":1},{"number":10,"time":55.71919031250064,"value":0.5039370078740157},{"number":10,"time":55.95232500000064,"value":1},{"number":10,"time":55.957285312500645,"value":0.5039370078740157},{"number":10,"time":56.07137250000065,"value":1},{"number":10,"time":56.07633281250065,"value":0.5039370078740157},{"number":10,"time":56.19042000000066,"value":1},{"number":10,"time":56.19538031250066,"value":0.5039370078740157},{"number":10,"time":56.42851500000066,"value":1},{"number":10,"time":56.43347531250066,"value":0.5039370078740157},{"number":10,"time":56.547562500000666,"value":1},{"number":10,"time":56.55252281250067,"value":0.5039370078740157},{"number":10,"time":56.666610000000674,"value":1},{"number":10,"time":56.67157031250068,"value":0.5039370078740157},{"number":10,"time":56.904705000000675,"value":1},{"number":10,"time":56.90966531250068,"value":0.5039370078740157},{"number":10,"time":57.02375250000068,"value":1},{"number":10,"time":57.028712812500686,"value":0.5039370078740157},{"number":10,"time":57.14280000000069,"value":1},{"number":10,"time":57.147760312500694,"value":0.5039370078740157},{"number":10,"time":57.38089500000069,"value":1},{"number":10,"time":57.385855312500695,"value":0.5039370078740157},{"number":10,"time":57.4999425000007,"value":1},{"number":10,"time":57.5049028125007,"value":0.5039370078740157},{"number":10,"time":57.61899000000071,"value":1},{"number":10,"time":57.62395031250071,"value":0.5039370078740157},{"number":10,"time":57.85708500000071,"value":1},{"number":10,"time":57.86204531250071,"value":0.5039370078740157},{"number":10,"time":57.976132500000716,"value":1},{"number":10,"time":57.98109281250072,"value":0.5039370078740157},{"number":10,"time":58.095180000000724,"value":1},{"number":10,"time":58.10014031250073,"value":0.5039370078740157},{"number":10,"time":58.333275000000725,"value":1},{"number":10,"time":58.33823531250073,"value":0.5039370078740157},{"number":10,"time":58.45232250000073,"value":1},{"number":10,"time":58.457282812500736,"value":0.5039370078740157},{"number":10,"time":58.57137000000074,"value":1},{"number":10,"time":58.576330312500744,"value":0.5039370078740157},{"number":10,"time":58.80946500000074,"value":1},{"number":10,"time":58.814425312500745,"value":0.5039370078740157},{"number":10,"time":58.92851250000075,"value":1},{"number":10,"time":58.93347281250075,"value":0.5039370078740157},{"number":10,"time":59.04756000000076,"value":1},{"number":10,"time":59.05252031250076,"value":0.5039370078740157},{"number":10,"time":59.28565500000076,"value":1},{"number":10,"time":59.29061531250076,"value":0.5039370078740157},{"number":10,"time":59.40470250000077,"value":1},{"number":10,"time":59.40966281250077,"value":0.5039370078740157},{"number":10,"time":59.523750000000774,"value":1},{"number":10,"time":59.52871031250078,"value":0.5039370078740157},{"number":10,"time":59.761845000000775,"value":1},{"number":10,"time":59.76680531250078,"value":0.5039370078740157},{"number":10,"time":59.88089250000078,"value":1},{"number":10,"time":59.88585281250079,"value":0.5039370078740157},{"number":10,"time":59.99994000000079,"value":1},{"number":10,"time":60.004900312500794,"value":0.5039370078740157},{"number":10,"time":60.23803500000079,"value":1},{"number":10,"time":60.242995312500796,"value":0.5039370078740157},{"number":10,"time":60.3570825000008,"value":1},{"number":10,"time":60.3620428125008,"value":0.5039370078740157},{"number":10,"time":60.47613000000081,"value":1},{"number":10,"time":60.48109031250081,"value":0.5039370078740157},{"number":10,"time":60.71422500000081,"value":1},{"number":10,"time":60.71918531250081,"value":0.5039370078740157},{"number":10,"time":60.83327250000082,"value":1},{"number":10,"time":60.83823281250082,"value":0.5039370078740157},{"number":10,"time":60.952320000000825,"value":1},{"number":10,"time":60.96224062500083,"value":0.5039370078740157},{"number":10,"time":61.19041500000083,"value":1},{"number":10,"time":61.20033562500083,"value":0.5039370078740157},{"number":10,"time":61.30946250000083,"value":1},{"number":10,"time":61.31938312500083,"value":0.5039370078740157},{"number":10,"time":61.428510000000834,"value":1},{"number":10,"time":61.438430625000834,"value":0.5039370078740157},{"number":10,"time":61.66660500000083,"value":1},{"number":10,"time":61.67652562500083,"value":0.5039370078740157},{"number":10,"time":61.78565250000083,"value":1},{"number":10,"time":61.79557312500083,"value":0.5039370078740157},{"number":10,"time":61.90470000000083,"value":1},{"number":10,"time":61.91462062500083,"value":0.5039370078740157},{"number":10,"time":62.142795000000824,"value":1},{"number":10,"time":62.15271562500082,"value":0.5039370078740157},{"number":10,"time":62.261842500000824,"value":1},{"number":10,"time":62.271763125000824,"value":0.5039370078740157},{"number":10,"time":62.380890000000825,"value":1},{"number":10,"time":62.390810625000825,"value":0.5039370078740157},{"number":10,"time":62.61898500000082,"value":1},{"number":10,"time":62.62890562500082,"value":0.5039370078740157},{"number":10,"time":62.73803250000082,"value":1},{"number":10,"time":62.74795312500082,"value":0.5039370078740157},{"number":10,"time":62.85708000000082,"value":1},{"number":10,"time":62.862040312500824,"value":0.5039370078740157},{"number":10,"time":63.09517500000082,"value":1},{"number":10,"time":63.100135312500825,"value":0.5039370078740157},{"number":10,"time":63.21422250000083,"value":1},{"number":10,"time":63.21918281250083,"value":0.5039370078740157},{"number":10,"time":63.33327000000084,"value":1},{"number":10,"time":63.33823031250084,"value":0.5039370078740157},{"number":10,"time":63.57136500000084,"value":1},{"number":10,"time":63.57632531250084,"value":0.5039370078740157},{"number":10,"time":63.690412500000846,"value":1},{"number":10,"time":63.69537281250085,"value":0.5039370078740157},{"number":10,"time":63.809460000000854,"value":1},{"number":10,"time":63.81442031250086,"value":0.5039370078740157},{"number":10,"time":64.04755500000086,"value":1},{"number":10,"time":64.05251531250086,"value":0.5039370078740157},{"number":10,"time":64.16660250000086,"value":1},{"number":10,"time":64.17156281250087,"value":0.5039370078740157},{"number":10,"time":64.28565000000087,"value":1},{"number":10,"time":64.29061031250087,"value":0.5039370078740157},{"number":10,"time":64.52374500000087,"value":1},{"number":10,"time":64.52870531250088,"value":0.5039370078740157},{"number":10,"time":64.64279250000088,"value":1},{"number":10,"time":64.64775281250088,"value":0.5039370078740157},{"number":10,"time":64.76184000000089,"value":1},{"number":10,"time":64.76680031250089,"value":0.5039370078740157},{"number":10,"time":64.99993500000089,"value":1},{"number":10,"time":65.00489531250089,"value":0.5039370078740157},{"number":10,"time":65.1189825000009,"value":1},{"number":10,"time":65.1239428125009,"value":0.5039370078740157},{"number":10,"time":65.2380300000009,"value":1},{"number":10,"time":65.24299031250091,"value":0.5039370078740157},{"number":10,"time":65.4761250000009,"value":1},{"number":10,"time":65.48108531250091,"value":0.5039370078740157},{"number":10,"time":65.59517250000091,"value":1},{"number":10,"time":65.60013281250092,"value":0.5039370078740157},{"number":10,"time":65.71422000000092,"value":1},{"number":10,"time":65.71918031250092,"value":0.5039370078740157},{"number":10,"time":65.95231500000092,"value":1},{"number":10,"time":65.95727531250093,"value":0.5039370078740157},{"number":10,"time":66.07136250000093,"value":1},{"number":10,"time":66.07632281250093,"value":0.5039370078740157},{"number":10,"time":66.19041000000094,"value":1},{"number":10,"time":66.19537031250094,"value":0.5039370078740157},{"number":10,"time":66.42850500000094,"value":1},{"number":10,"time":66.43346531250094,"value":0.5039370078740157},{"number":10,"time":66.54755250000095,"value":1},{"number":10,"time":66.55251281250095,"value":0.5039370078740157},{"number":10,"time":66.66660000000095,"value":1},{"number":10,"time":66.67156031250096,"value":0.5039370078740157},{"number":10,"time":66.90469500000096,"value":1},{"number":10,"time":66.90965531250096,"value":0.5039370078740157},{"number":10,"time":67.02374250000096,"value":1},{"number":10,"time":67.02870281250097,"value":0.5039370078740157},{"number":10,"time":67.14279000000097,"value":1},{"number":10,"time":67.14775031250097,"value":0.5039370078740157},{"number":10,"time":67.38088500000097,"value":1},{"number":10,"time":67.38584531250098,"value":0.5039370078740157},{"number":10,"time":67.49993250000098,"value":1},{"number":10,"time":67.50489281250098,"value":0.5039370078740157},{"number":10,"time":67.61898000000099,"value":1},{"number":10,"time":67.62394031250099,"value":0.5039370078740157},{"number":10,"time":67.85707500000099,"value":1},{"number":10,"time":67.86203531250099,"value":0.5039370078740157},{"number":10,"time":67.976122500001,"value":1},{"number":10,"time":67.981082812501,"value":0.5039370078740157},{"number":10,"time":68.095170000001,"value":1},{"number":10,"time":68.10013031250101,"value":0.5039370078740157},{"number":10,"time":68.333265000001,"value":1},{"number":10,"time":68.33822531250101,"value":0.5039370078740157},{"number":10,"time":68.45231250000101,"value":1},{"number":10,"time":68.45727281250102,"value":0.5039370078740157},{"number":10,"time":68.57136000000102,"value":1},{"number":10,"time":68.58128062500103,"value":0.5039370078740157},{"number":10,"time":68.80945500000102,"value":1},{"number":10,"time":68.81937562500103,"value":0.5039370078740157},{"number":10,"time":68.92850250000103,"value":1},{"number":10,"time":68.93842312500104,"value":0.5039370078740157},{"number":10,"time":69.04755000000104,"value":1},{"number":10,"time":69.05747062500105,"value":0.5039370078740157},{"number":10,"time":69.28564500000104,"value":1},{"number":10,"time":69.29556562500105,"value":0.5039370078740157},{"number":10,"time":69.40469250000105,"value":1},{"number":10,"time":69.41461312500105,"value":0.5039370078740157},{"number":10,"time":69.52374000000106,"value":1},{"number":10,"time":69.53366062500106,"value":0.5039370078740157},{"number":10,"time":69.76183500000106,"value":1},{"number":10,"time":69.77175562500106,"value":0.5039370078740157},{"number":10,"time":69.88088250000106,"value":1},{"number":10,"time":69.89080312500107,"value":0.5039370078740157},{"number":10,"time":69.99993000000107,"value":1},{"number":10,"time":70.00985062500108,"value":0.5039370078740157},{"number":10,"time":70.23802500000107,"value":1},{"number":10,"time":70.24794562500108,"value":0.5039370078740157},{"number":10,"time":70.35707250000108,"value":1},{"number":10,"time":70.36699312500109,"value":0.5039370078740157},{"number":10,"time":70.47612000000109,"value":1},{"number":10,"time":70.48108031250109,"value":0.5039370078740157},{"number":10,"time":70.71421500000109,"value":1},{"number":10,"time":70.7191753125011,"value":0.5039370078740157},{"number":10,"time":70.8332625000011,"value":1},{"number":10,"time":70.8382228125011,"value":0.5039370078740157},{"number":10,"time":70.9523100000011,"value":1},{"number":10,"time":70.95727031250111,"value":0.5039370078740157},{"number":10,"time":71.1904050000011,"value":1},{"number":10,"time":71.19536531250111,"value":0.5039370078740157},{"number":10,"time":71.30945250000111,"value":1},{"number":10,"time":71.31441281250112,"value":0.5039370078740157},{"number":10,"time":71.42850000000112,"value":1},{"number":10,"time":71.43346031250113,"value":0.5039370078740157},{"number":10,"time":71.66659500000112,"value":1},{"number":10,"time":71.67155531250113,"value":0.5039370078740157},{"number":10,"time":71.78564250000113,"value":1},{"number":10,"time":71.79060281250113,"value":0.5039370078740157},{"number":10,"time":71.90469000000114,"value":1},{"number":10,"time":71.90965031250114,"value":0.5039370078740157},{"number":10,"time":72.14278500000114,"value":1},{"number":10,"time":72.14774531250114,"value":0.5039370078740157},{"number":10,"time":72.26183250000115,"value":1},{"number":10,"time":72.26679281250115,"value":0.5039370078740157},{"number":10,"time":72.38088000000116,"value":1},{"number":10,"time":72.38584031250116,"value":0.5039370078740157},{"number":10,"time":72.61897500000116,"value":1},{"number":10,"time":72.62393531250116,"value":0.5039370078740157},{"number":10,"time":72.73802250000116,"value":1},{"number":10,"time":72.74298281250117,"value":0.5039370078740157},{"number":10,"time":72.85707000000117,"value":1},{"number":10,"time":72.86203031250118,"value":0.5039370078740157},{"number":10,"time":73.09516500000117,"value":1},{"number":10,"time":73.10012531250118,"value":0.5039370078740157},{"number":10,"time":73.21421250000118,"value":1},{"number":10,"time":73.21917281250118,"value":0.5039370078740157},{"number":10,"time":73.33326000000119,"value":1},{"number":10,"time":73.33822031250119,"value":0.5039370078740157},{"number":10,"time":73.57135500000119,"value":1},{"number":10,"time":73.5763153125012,"value":0.5039370078740157},{"number":10,"time":73.6904025000012,"value":1},{"number":10,"time":73.6953628125012,"value":0.5039370078740157},{"number":10,"time":73.8094500000012,"value":1},{"number":10,"time":73.81441031250121,"value":0.5039370078740157},{"number":10,"time":74.04754500000121,"value":1},{"number":10,"time":74.05250531250121,"value":0.5039370078740157},{"number":10,"time":74.16659250000122,"value":1},{"number":10,"time":74.17155281250122,"value":0.5039370078740157},{"number":10,"time":74.28564000000122,"value":1},{"number":10,"time":74.29060031250123,"value":0.5039370078740157},{"number":10,"time":74.52373500000122,"value":1},{"number":10,"time":74.52869531250123,"value":0.5039370078740157},{"number":10,"time":74.64278250000123,"value":1},{"number":10,"time":74.64774281250124,"value":0.5039370078740157},{"number":10,"time":74.76183000000124,"value":1},{"number":10,"time":74.76679031250124,"value":0.5039370078740157},{"number":10,"time":74.99992500000124,"value":1},{"number":10,"time":75.00488531250124,"value":0.5039370078740157},{"number":10,"time":75.11897250000125,"value":1},{"number":10,"time":75.12393281250125,"value":0.5039370078740157},{"number":10,"time":75.23802000000126,"value":1},{"number":10,"time":75.24298031250126,"value":0.5039370078740157},{"number":10,"time":75.47611500000126,"value":1},{"number":10,"time":75.48107531250126,"value":0.5039370078740157},{"number":10,"time":75.59516250000127,"value":1},{"number":10,"time":75.60012281250127,"value":0.5039370078740157},{"number":10,"time":75.71421000000127,"value":1},{"number":10,"time":75.71917031250128,"value":0.5039370078740157},{"number":10,"time":75.95230500000127,"value":1},{"number":10,"time":75.95726531250128,"value":0.5039370078740157},{"number":10,"time":76.07135250000128,"value":1},{"number":10,"time":76.07631281250129,"value":0.5039370078740157},{"number":10,"time":76.19040000000129,"value":1},{"number":10,"time":76.2003206250013,"value":0.5039370078740157},{"number":10,"time":76.42849500000129,"value":1},{"number":10,"time":76.4384156250013,"value":0.5039370078740157},{"number":10,"time":76.5475425000013,"value":1},{"number":10,"time":76.5574631250013,"value":0.5039370078740157},{"number":10,"time":76.6665900000013,"value":1},{"number":10,"time":76.67651062500131,"value":0.5039370078740157},{"number":10,"time":76.90468500000131,"value":1},{"number":10,"time":76.91460562500131,"value":0.5039370078740157},{"number":10,"time":77.02373250000132,"value":1},{"number":10,"time":77.03365312500132,"value":0.5039370078740157},{"number":10,"time":77.14278000000132,"value":1},{"number":10,"time":77.15270062500133,"value":0.5039370078740157},{"number":10,"time":77.38087500000132,"value":1},{"number":10,"time":77.39079562500133,"value":0.5039370078740157},{"number":10,"time":77.49992250000133,"value":1},{"number":10,"time":77.50984312500134,"value":0.5039370078740157},{"number":10,"time":77.61897000000134,"value":1},{"number":10,"time":77.62889062500135,"value":0.5039370078740157},{"number":10,"time":77.85706500000134,"value":1},{"number":10,"time":77.86698562500135,"value":0.5039370078740157},{"number":10,"time":77.97611250000135,"value":1},{"number":10,"time":77.98603312500136,"value":0.5039370078740157},{"number":10,"time":78.09516000000136,"value":1},{"number":10,"time":78.10012031250136,"value":0.5039370078740157},{"number":10,"time":78.33325500000136,"value":1},{"number":10,"time":78.33821531250136,"value":0.5039370078740157},{"number":10,"time":78.45230250000137,"value":1},{"number":10,"time":78.45726281250137,"value":0.5039370078740157},{"number":10,"time":78.57135000000137,"value":1},{"number":10,"time":78.57631031250138,"value":0.5039370078740157},{"number":10,"time":78.80944500000138,"value":1},{"number":10,"time":78.81440531250138,"value":0.5039370078740157},{"number":10,"time":78.92849250000138,"value":1},{"number":10,"time":78.93345281250139,"value":0.5039370078740157},{"number":10,"time":79.04754000000139,"value":1},{"number":10,"time":79.0525003125014,"value":0.5039370078740157},{"number":10,"time":79.28563500000139,"value":1},{"number":10,"time":79.2905953125014,"value":0.5039370078740157},{"number":10,"time":79.4046825000014,"value":1},{"number":10,"time":79.4096428125014,"value":0.5039370078740157},{"number":10,"time":79.52373000000141,"value":1},{"number":10,"time":79.52869031250141,"value":0.5039370078740157},{"number":10,"time":79.76182500000141,"value":1},{"number":10,"time":79.76678531250141,"value":0.5039370078740157},{"number":10,"time":79.88087250000142,"value":1},{"number":10,"time":79.88583281250142,"value":0.5039370078740157},{"number":10,"time":79.99992000000142,"value":1},{"number":10,"time":80.00488031250143,"value":0.5039370078740157},{"number":10,"time":80.23801500000143,"value":1},{"number":10,"time":80.24297531250143,"value":0.5039370078740157},{"number":10,"time":80.35706250000143,"value":1},{"number":10,"time":80.36202281250144,"value":0.5039370078740157},{"number":10,"time":80.47611000000144,"value":1},{"number":10,"time":80.48107031250144,"value":0.5039370078740157},{"number":10,"time":80.71420500000144,"value":1},{"number":10,"time":80.71916531250145,"value":0.5039370078740157},{"number":10,"time":80.83325250000145,"value":1},{"number":10,"time":80.83821281250145,"value":0.5039370078740157},{"number":10,"time":80.95230000000146,"value":1},{"number":10,"time":80.95726031250146,"value":0.5039370078740157},{"number":10,"time":81.19039500000146,"value":1},{"number":10,"time":81.19535531250146,"value":0.5039370078740157},{"number":10,"time":81.30944250000147,"value":1},{"number":10,"time":81.31440281250147,"value":0.5039370078740157},{"number":10,"time":81.42849000000147,"value":1},{"number":10,"time":81.43345031250148,"value":0.5039370078740157},{"number":10,"time":81.66658500000148,"value":1},{"number":10,"time":81.67154531250148,"value":0.5039370078740157},{"number":10,"time":81.78563250000148,"value":1},{"number":10,"time":81.79059281250149,"value":0.5039370078740157},{"number":10,"time":81.90468000000149,"value":1},{"number":10,"time":81.9096403125015,"value":0.5039370078740157},{"number":10,"time":82.14277500000149,"value":1},{"number":10,"time":82.1477353125015,"value":0.5039370078740157},{"number":10,"time":82.2618225000015,"value":1},{"number":10,"time":82.2667828125015,"value":0.5039370078740157},{"number":10,"time":82.38087000000151,"value":1},{"number":10,"time":82.38583031250151,"value":0.5039370078740157},{"number":10,"time":82.61896500000151,"value":1},{"number":10,"time":82.62392531250151,"value":0.5039370078740157},{"number":10,"time":82.73801250000152,"value":1},{"number":10,"time":82.74297281250152,"value":0.5039370078740157},{"number":10,"time":82.85706000000152,"value":1},{"number":10,"time":82.86202031250153,"value":0.5039370078740157},{"number":10,"time":83.09515500000153,"value":1},{"number":10,"time":83.10011531250153,"value":0.5039370078740157},{"number":10,"time":83.21420250000153,"value":1},{"number":10,"time":83.21916281250154,"value":0.5039370078740157},{"number":10,"time":83.33325000000154,"value":1},{"number":10,"time":83.33821031250154,"value":0.5039370078740157},{"number":10,"time":83.57134500000154,"value":1},{"number":10,"time":83.57630531250155,"value":0.5039370078740157},{"number":10,"time":83.69039250000155,"value":1},{"number":10,"time":83.69535281250155,"value":0.5039370078740157},{"number":10,"time":83.80944000000156,"value":1},{"number":10,"time":83.81936062500156,"value":0.5039370078740157},{"number":10,"time":84.04753500000156,"value":1},{"number":10,"time":84.05745562500157,"value":0.5039370078740157},{"number":10,"time":84.16658250000157,"value":1},{"number":10,"time":84.17650312500157,"value":0.5039370078740157},{"number":10,"time":84.28563000000158,"value":1},{"number":10,"time":84.29555062500158,"value":0.5039370078740157},{"number":10,"time":84.52372500000158,"value":1},{"number":10,"time":84.53364562500158,"value":0.5039370078740157},{"number":10,"time":84.64277250000158,"value":1},{"number":10,"time":84.65269312500159,"value":0.5039370078740157},{"number":10,"time":84.76182000000159,"value":1},{"number":10,"time":84.7717406250016,"value":0.5039370078740157},{"number":10,"time":84.9999150000016,"value":1},{"number":10,"time":85.0098356250016,"value":0.5039370078740157},{"number":10,"time":85.1189625000016,"value":1},{"number":10,"time":85.12888312500161,"value":0.5039370078740157},{"number":10,"time":85.23801000000161,"value":1},{"number":10,"time":85.24793062500162,"value":0.5039370078740157},{"number":10,"time":85.47610500000161,"value":1},{"number":10,"time":85.48602562500162,"value":0.5039370078740157},{"number":10,"time":85.59515250000162,"value":1},{"number":10,"time":85.60507312500162,"value":0.5039370078740157},{"number":10,"time":85.71420000000163,"value":1},{"number":10,"time":85.71916031250163,"value":0.5039370078740157},{"number":10,"time":85.95229500000163,"value":1},{"number":10,"time":85.95725531250163,"value":0.5039370078740157},{"number":10,"time":86.07134250000163,"value":1},{"number":10,"time":86.07630281250164,"value":0.5039370078740157},{"number":10,"time":86.19039000000164,"value":1},{"number":10,"time":86.19535031250165,"value":0.5039370078740157},{"number":10,"time":86.42848500000164,"value":1},{"number":10,"time":86.43344531250165,"value":0.5039370078740157},{"number":10,"time":86.54753250000165,"value":1},{"number":10,"time":86.55249281250165,"value":0.5039370078740157},{"number":10,"time":86.66658000000166,"value":1},{"number":10,"time":86.67154031250166,"value":0.5039370078740157},{"number":10,"time":86.90467500000166,"value":1},{"number":10,"time":86.90963531250166,"value":0.5039370078740157},{"number":10,"time":87.02372250000167,"value":1},{"number":10,"time":87.02868281250167,"value":0.5039370078740157},{"number":10,"time":87.14277000000168,"value":1},{"number":10,"time":87.14773031250168,"value":0.5039370078740157},{"number":10,"time":87.38086500000168,"value":1},{"number":10,"time":87.38582531250168,"value":0.5039370078740157},{"number":10,"time":87.49991250000168,"value":1},{"number":10,"time":87.50487281250169,"value":0.5039370078740157},{"number":10,"time":87.61896000000169,"value":1},{"number":10,"time":87.6239203125017,"value":0.5039370078740157},{"number":10,"time":87.8570550000017,"value":1},{"number":10,"time":87.8620153125017,"value":0.5039370078740157},{"number":10,"time":87.9761025000017,"value":1},{"number":10,"time":87.9810628125017,"value":0.5039370078740157},{"number":10,"time":88.09515000000171,"value":1},{"number":10,"time":88.10011031250171,"value":0.5039370078740157},{"number":10,"time":88.33324500000171,"value":1},{"number":10,"time":88.33820531250171,"value":0.5039370078740157},{"number":10,"time":88.45229250000172,"value":1},{"number":10,"time":88.45725281250172,"value":0.5039370078740157},{"number":10,"time":88.57134000000173,"value":1},{"number":10,"time":88.57630031250173,"value":0.5039370078740157},{"number":10,"time":88.80943500000173,"value":1},{"number":10,"time":88.81439531250173,"value":0.5039370078740157},{"number":10,"time":88.92848250000173,"value":1},{"number":10,"time":88.93344281250174,"value":0.5039370078740157},{"number":10,"time":89.04753000000174,"value":1},{"number":10,"time":89.05249031250175,"value":0.5039370078740157},{"number":10,"time":89.28562500000174,"value":1},{"number":10,"time":89.29058531250175,"value":0.5039370078740157},{"number":10,"time":89.40467250000175,"value":1},{"number":10,"time":89.40963281250175,"value":0.5039370078740157},{"number":10,"time":89.52372000000176,"value":1},{"number":10,"time":89.52868031250176,"value":0.5039370078740157},{"number":10,"time":89.76181500000176,"value":1},{"number":10,"time":89.76677531250176,"value":0.5039370078740157},{"number":10,"time":89.88086250000177,"value":1},{"number":10,"time":89.88582281250177,"value":0.5039370078740157},{"number":10,"time":89.99991000000178,"value":1},{"number":10,"time":90.00487031250178,"value":0.5039370078740157},{"number":10,"time":90.23800500000178,"value":1},{"number":10,"time":90.24296531250178,"value":0.5039370078740157},{"number":10,"time":90.35705250000179,"value":1},{"number":10,"time":90.36201281250179,"value":0.5039370078740157},{"number":10,"time":90.4761000000018,"value":1},{"number":10,"time":90.4810603125018,"value":0.5039370078740157},{"number":10,"time":90.7141950000018,"value":1},{"number":10,"time":90.7191553125018,"value":0.5039370078740157},{"number":10,"time":90.8332425000018,"value":1},{"number":10,"time":90.8382028125018,"value":0.5039370078740157},{"number":10,"time":90.95229000000181,"value":1},{"number":10,"time":90.95725031250181,"value":0.5039370078740157},{"number":10,"time":91.19038500000181,"value":1},{"number":10,"time":91.19534531250181,"value":0.5039370078740157},{"number":10,"time":91.30943250000182,"value":1},{"number":10,"time":91.31439281250182,"value":0.5039370078740157},{"number":10,"time":91.42848000000183,"value":1},{"number":10,"time":91.43840062500183,"value":0.5039370078740157},{"number":10,"time":91.66657500000183,"value":1},{"number":10,"time":91.67649562500183,"value":0.5039370078740157},{"number":10,"time":91.78562250000184,"value":1},{"number":10,"time":91.79554312500184,"value":0.5039370078740157},{"number":10,"time":91.90467000000184,"value":1},{"number":10,"time":91.91459062500185,"value":0.5039370078740157},{"number":10,"time":92.14276500000184,"value":1},{"number":10,"time":92.15268562500185,"value":0.5039370078740157},{"number":10,"time":92.26181250000185,"value":1},{"number":10,"time":92.27173312500186,"value":0.5039370078740157},{"number":10,"time":92.38086000000186,"value":1},{"number":10,"time":92.39078062500187,"value":0.5039370078740157},{"number":10,"time":92.61895500000186,"value":1},{"number":10,"time":92.62887562500187,"value":0.5039370078740157},{"number":10,"time":92.73800250000187,"value":1},{"number":10,"time":92.74792312500188,"value":0.5039370078740157},{"number":10,"time":92.85705000000188,"value":1},{"number":10,"time":92.86697062500188,"value":0.5039370078740157},{"number":10,"time":93.09514500000188,"value":1},{"number":10,"time":93.10506562500188,"value":0.5039370078740157},{"number":10,"time":93.21419250000189,"value":1},{"number":10,"time":93.22411312500189,"value":0.5039370078740157},{"number":10,"time":93.3332400000019,"value":1},{"number":10,"time":93.3382003125019,"value":0.5039370078740157},{"number":10,"time":93.5713350000019,"value":1},{"number":10,"time":93.5762953125019,"value":0.5039370078740157},{"number":10,"time":93.6903825000019,"value":1},{"number":10,"time":93.6953428125019,"value":0.5039370078740157},{"number":10,"time":93.80943000000191,"value":1},{"number":10,"time":93.81439031250191,"value":0.5039370078740157},{"number":10,"time":94.04752500000191,"value":1},{"number":10,"time":94.05248531250191,"value":0.5039370078740157},{"number":10,"time":94.16657250000192,"value":1},{"number":10,"time":94.17153281250192,"value":0.5039370078740157},{"number":10,"time":94.28562000000193,"value":1},{"number":10,"time":94.29058031250193,"value":0.5039370078740157},{"number":10,"time":94.52371500000193,"value":1},{"number":10,"time":94.52867531250193,"value":0.5039370078740157},{"number":10,"time":94.64276250000194,"value":1},{"number":10,"time":94.64772281250194,"value":0.5039370078740157},{"number":10,"time":94.76181000000194,"value":1},{"number":10,"time":94.76677031250195,"value":0.5039370078740157},{"number":10,"time":94.99990500000195,"value":1},{"number":10,"time":95.00486531250195,"value":0.5039370078740157},{"number":10,"time":95.11895250000195,"value":1},{"number":10,"time":95.12391281250196,"value":0.5039370078740157},{"number":10,"time":95.23800000000196,"value":1},{"number":10,"time":95.24296031250196,"value":0.5039370078740157},{"number":10,"time":95.47609500000196,"value":1},{"number":10,"time":95.48105531250197,"value":0.5039370078740157},{"number":10,"time":95.59514250000197,"value":1},{"number":10,"time":95.60010281250197,"value":0.5039370078740157},{"number":10,"time":95.71419000000198,"value":1},{"number":10,"time":95.71915031250198,"value":0.5039370078740157},{"number":10,"time":95.95228500000198,"value":1},{"number":10,"time":95.95724531250198,"value":0.5039370078740157},{"number":10,"time":96.07133250000199,"value":1},{"number":10,"time":96.07629281250199,"value":0.5039370078740157},{"number":10,"time":96.190380000002,"value":1},{"number":10,"time":96.195340312502,"value":0.5039370078740157},{"number":10,"time":96.428475000002,"value":1},{"number":10,"time":96.433435312502,"value":0.5039370078740157},{"number":10,"time":96.547522500002,"value":1},{"number":10,"time":96.552482812502,"value":0.5039370078740157},{"number":10,"time":96.66657000000201,"value":1},{"number":10,"time":96.67153031250201,"value":0.5039370078740157},{"number":10,"time":96.90466500000201,"value":1},{"number":10,"time":96.90962531250202,"value":0.5039370078740157},{"number":10,"time":97.02371250000202,"value":1},{"number":10,"time":97.02867281250202,"value":0.5039370078740157},{"number":10,"time":97.14276000000203,"value":1},{"number":10,"time":97.14772031250203,"value":0.5039370078740157},{"number":10,"time":97.38085500000203,"value":1},{"number":10,"time":97.38581531250203,"value":0.5039370078740157},{"number":10,"time":97.49990250000204,"value":1},{"number":10,"time":97.50486281250204,"value":0.5039370078740157},{"number":10,"time":97.61895000000204,"value":1},{"number":10,"time":97.62391031250205,"value":0.5039370078740157},{"number":10,"time":97.85704500000205,"value":1},{"number":10,"time":97.86200531250205,"value":0.5039370078740157},{"number":10,"time":97.97609250000205,"value":1},{"number":10,"time":97.98105281250206,"value":0.5039370078740157},{"number":10,"time":98.09514000000206,"value":1},{"number":10,"time":98.10010031250206,"value":0.5039370078740157},{"number":10,"time":98.33323500000206,"value":1},{"number":10,"time":98.33819531250207,"value":0.5039370078740157},{"number":10,"time":98.45228250000207,"value":1},{"number":10,"time":98.45724281250207,"value":0.5039370078740157},{"number":10,"time":98.57133000000208,"value":1},{"number":10,"time":98.57629031250208,"value":0.5039370078740157},{"number":10,"time":98.80942500000208,"value":1},{"number":10,"time":98.81438531250208,"value":0.5039370078740157},{"number":10,"time":98.92847250000209,"value":1},{"number":10,"time":98.93343281250209,"value":0.5039370078740157},{"number":10,"time":99.0475200000021,"value":1},{"number":10,"time":99.0574406250021,"value":0.5039370078740157},{"number":10,"time":99.2856150000021,"value":1},{"number":10,"time":99.2955356250021,"value":0.5039370078740157},{"number":10,"time":99.4046625000021,"value":1},{"number":10,"time":99.41458312500211,"value":0.5039370078740157},{"number":10,"time":99.52371000000211,"value":1},{"number":10,"time":99.53363062500212,"value":0.5039370078740157},{"number":10,"time":99.76180500000211,"value":1},{"number":10,"time":99.77172562500212,"value":0.5039370078740157},{"number":10,"time":99.88085250000212,"value":1},{"number":10,"time":99.89077312500213,"value":0.5039370078740157},{"number":10,"time":99.99990000000213,"value":1},{"number":10,"time":100.00982062500213,"value":0.5039370078740157},{"number":10,"time":100.23799500000213,"value":1},{"number":10,"time":100.24791562500214,"value":0.5039370078740157},{"number":10,"time":100.35704250000214,"value":1},{"number":10,"time":100.36696312500214,"value":0.5039370078740157},{"number":10,"time":100.47609000000215,"value":1},{"number":10,"time":100.48601062500215,"value":0.5039370078740157},{"number":10,"time":100.71418500000215,"value":1},{"number":10,"time":100.72410562500215,"value":0.5039370078740157},{"number":10,"time":100.83323250000215,"value":1},{"number":10,"time":100.84315312500216,"value":0.5039370078740157},{"number":10,"time":100.95228000000216,"value":1},{"number":10,"time":100.95724031250217,"value":0.5039370078740157},{"number":10,"time":101.19037500000216,"value":1},{"number":10,"time":101.19533531250217,"value":0.5039370078740157},{"number":10,"time":101.30942250000217,"value":1},{"number":10,"time":101.31438281250217,"value":0.5039370078740157},{"number":10,"time":101.42847000000218,"value":1},{"number":10,"time":101.43343031250218,"value":0.5039370078740157},{"number":10,"time":101.66656500000218,"value":1},{"number":10,"time":101.67152531250218,"value":0.5039370078740157},{"number":10,"time":101.78561250000219,"value":1},{"number":10,"time":101.79057281250219,"value":0.5039370078740157},{"number":10,"time":101.9046600000022,"value":1},{"number":10,"time":101.9096203125022,"value":0.5039370078740157},{"number":10,"time":102.1427550000022,"value":1},{"number":10,"time":102.1477153125022,"value":0.5039370078740157},{"number":10,"time":102.2618025000022,"value":1},{"number":10,"time":102.26676281250221,"value":0.5039370078740157},{"number":10,"time":102.38085000000221,"value":1},{"number":10,"time":102.38581031250222,"value":0.5039370078740157},{"number":10,"time":102.61894500000221,"value":1},{"number":10,"time":102.62390531250222,"value":0.5039370078740157},{"number":10,"time":102.73799250000222,"value":1},{"number":10,"time":102.74295281250222,"value":0.5039370078740157},{"number":10,"time":102.85704000000223,"value":1},{"number":10,"time":102.86200031250223,"value":0.5039370078740157},{"number":10,"time":103.09513500000223,"value":1},{"number":10,"time":103.10009531250223,"value":0.5039370078740157},{"number":10,"time":103.21418250000224,"value":1},{"number":10,"time":103.21914281250224,"value":0.5039370078740157},{"number":10,"time":103.33323000000225,"value":1},{"number":10,"time":103.33819031250225,"value":0.5039370078740157},{"number":10,"time":103.57132500000225,"value":1},{"number":10,"time":103.57628531250225,"value":0.5039370078740157},{"number":10,"time":103.69037250000225,"value":1},{"number":10,"time":103.69533281250226,"value":0.5039370078740157},{"number":10,"time":103.80942000000226,"value":1},{"number":10,"time":103.81438031250227,"value":0.5039370078740157},{"number":10,"time":104.04751500000226,"value":1},{"number":10,"time":104.05247531250227,"value":0.5039370078740157},{"number":10,"time":104.16656250000227,"value":1},{"number":10,"time":104.17152281250227,"value":0.5039370078740157},{"number":10,"time":104.28561000000228,"value":1},{"number":10,"time":104.29057031250228,"value":0.5039370078740157},{"number":10,"time":104.52370500000228,"value":1},{"number":10,"time":104.52866531250228,"value":0.5039370078740157},{"number":10,"time":104.64275250000229,"value":1},{"number":10,"time":104.64771281250229,"value":0.5039370078740157},{"number":10,"time":104.7618000000023,"value":1},{"number":10,"time":104.7667603125023,"value":0.5039370078740157},{"number":10,"time":104.9998950000023,"value":1},{"number":10,"time":105.0048553125023,"value":0.5039370078740157},{"number":10,"time":105.1189425000023,"value":1},{"number":10,"time":105.12390281250231,"value":0.5039370078740157},{"number":10,"time":105.23799000000231,"value":1},{"number":10,"time":105.24295031250232,"value":0.5039370078740157},{"number":10,"time":105.47608500000231,"value":1},{"number":10,"time":105.48104531250232,"value":0.5039370078740157},{"number":10,"time":105.59513250000232,"value":1},{"number":10,"time":105.60009281250233,"value":0.5039370078740157},{"number":10,"time":105.71418000000233,"value":1},{"number":10,"time":105.71914031250233,"value":0.5039370078740157},{"number":10,"time":105.95227500000233,"value":1},{"number":10,"time":105.95723531250233,"value":0.5039370078740157},{"number":10,"time":106.07132250000234,"value":1},{"number":10,"time":106.07628281250234,"value":0.5039370078740157},{"number":10,"time":106.19037000000235,"value":1},{"number":10,"time":106.19533031250235,"value":0.5039370078740157},{"number":10,"time":106.42846500000235,"value":1},{"number":10,"time":106.43342531250235,"value":0.5039370078740157},{"number":10,"time":106.54751250000236,"value":1},{"number":10,"time":106.55247281250236,"value":0.5039370078740157},{"number":10,"time":106.66656000000236,"value":1},{"number":10,"time":106.67648062500237,"value":0.5039370078740157},{"number":10,"time":106.90465500000236,"value":1},{"number":10,"time":106.91457562500237,"value":0.5039370078740157},{"number":10,"time":107.02370250000237,"value":1},{"number":10,"time":107.03362312500238,"value":0.5039370078740157},{"number":10,"time":107.14275000000238,"value":1},{"number":10,"time":107.15267062500239,"value":0.5039370078740157},{"number":10,"time":107.38084500000238,"value":1},{"number":10,"time":107.39076562500239,"value":0.5039370078740157},{"number":10,"time":107.49989250000239,"value":1},{"number":10,"time":107.5098131250024,"value":0.5039370078740157},{"number":10,"time":107.6189400000024,"value":1},{"number":10,"time":107.6288606250024,"value":0.5039370078740157},{"number":10,"time":107.8570350000024,"value":1},{"number":10,"time":107.8669556250024,"value":0.5039370078740157},{"number":10,"time":107.9760825000024,"value":1},{"number":10,"time":107.98600312500241,"value":0.5039370078740157},{"number":10,"time":108.09513000000241,"value":1},{"number":10,"time":108.10505062500242,"value":0.5039370078740157},{"number":10,"time":108.33322500000241,"value":1},{"number":10,"time":108.34314562500242,"value":0.5039370078740157},{"number":10,"time":108.45227250000242,"value":1},{"number":10,"time":108.46219312500243,"value":0.5039370078740157},{"number":10,"time":108.57132000000243,"value":1},{"number":10,"time":108.57628031250243,"value":0.5039370078740157},{"number":10,"time":108.80941500000243,"value":1},{"number":10,"time":108.81437531250243,"value":0.5039370078740157},{"number":10,"time":108.92846250000244,"value":1},{"number":10,"time":108.93342281250244,"value":0.5039370078740157},{"number":10,"time":109.04751000000245,"value":1},{"number":10,"time":109.05247031250245,"value":0.5039370078740157},{"number":10,"time":109.28560500000245,"value":1},{"number":10,"time":109.29056531250245,"value":0.5039370078740157},{"number":10,"time":109.40465250000246,"value":1},{"number":10,"time":109.40961281250246,"value":0.5039370078740157},{"number":10,"time":109.52370000000246,"value":1},{"number":10,"time":109.52866031250247,"value":0.5039370078740157},{"number":10,"time":109.76179500000246,"value":1},{"number":10,"time":109.76675531250247,"value":0.5039370078740157},{"number":10,"time":109.88084250000247,"value":1},{"number":10,"time":109.88580281250248,"value":0.5039370078740157},{"number":10,"time":109.99989000000248,"value":1},{"number":10,"time":110.00485031250248,"value":0.5039370078740157},{"number":10,"time":110.23798500000248,"value":1},{"number":10,"time":110.24294531250248,"value":0.5039370078740157},{"number":10,"time":110.35703250000249,"value":1},{"number":10,"time":110.36199281250249,"value":0.5039370078740157},{"number":10,"time":110.4760800000025,"value":1},{"number":10,"time":110.4810403125025,"value":0.5039370078740157},{"number":10,"time":110.7141750000025,"value":1},{"number":10,"time":110.7191353125025,"value":0.5039370078740157},{"number":10,"time":110.8332225000025,"value":1},{"number":10,"time":110.83818281250251,"value":0.5039370078740157},{"number":10,"time":110.95227000000251,"value":1},{"number":10,"time":110.95723031250252,"value":0.5039370078740157},{"number":10,"time":111.19036500000252,"value":1},{"number":10,"time":111.19532531250252,"value":0.5039370078740157},{"number":10,"time":111.30941250000252,"value":1},{"number":10,"time":111.31437281250253,"value":0.5039370078740157},{"number":10,"time":111.42846000000253,"value":1},{"number":10,"time":111.43342031250253,"value":0.5039370078740157},{"number":10,"time":111.66655500000253,"value":1},{"number":10,"time":111.67151531250254,"value":0.5039370078740157},{"number":10,"time":111.78560250000254,"value":1},{"number":10,"time":111.79056281250254,"value":0.5039370078740157},{"number":10,"time":111.90465000000255,"value":1},{"number":10,"time":111.90961031250255,"value":0.5039370078740157},{"number":10,"time":112.14274500000255,"value":1},{"number":10,"time":112.14770531250255,"value":0.5039370078740157},{"number":10,"time":112.26179250000256,"value":1},{"number":10,"time":112.26675281250256,"value":0.5039370078740157},{"number":10,"time":112.38084000000256,"value":1},{"number":10,"time":112.38580031250257,"value":0.5039370078740157},{"number":10,"time":112.61893500000257,"value":1},{"number":10,"time":112.62389531250257,"value":0.5039370078740157},{"number":10,"time":112.73798250000257,"value":1},{"number":10,"time":112.74294281250258,"value":0.5039370078740157},{"number":10,"time":112.85703000000258,"value":1},{"number":10,"time":112.86199031250258,"value":0.5039370078740157},{"number":10,"time":113.09512500000258,"value":1},{"number":10,"time":113.10008531250259,"value":0.5039370078740157},{"number":10,"time":113.21417250000259,"value":1},{"number":10,"time":113.2191328125026,"value":0.5039370078740157},{"number":10,"time":113.3332200000026,"value":1},{"number":10,"time":113.3381803125026,"value":0.5039370078740157},{"number":10,"time":113.5713150000026,"value":1},{"number":10,"time":113.5762753125026,"value":0.5039370078740157},{"number":10,"time":113.6903625000026,"value":1},{"number":10,"time":113.69532281250261,"value":0.5039370078740157},{"number":10,"time":113.80941000000261,"value":1},{"number":10,"time":113.81437031250262,"value":0.5039370078740157},{"number":10,"time":114.04750500000262,"value":1},{"number":10,"time":114.05246531250262,"value":0.5039370078740157},{"number":10,"time":114.16655250000262,"value":1},{"number":10,"time":114.17151281250263,"value":0.5039370078740157},{"number":10,"time":114.28560000000263,"value":1},{"number":10,"time":114.29552062500264,"value":0.5039370078740157},{"number":10,"time":114.52369500000263,"value":1},{"number":10,"time":114.53361562500264,"value":0.5039370078740157},{"number":10,"time":114.64274250000264,"value":1},{"number":10,"time":114.65266312500265,"value":0.5039370078740157},{"number":10,"time":114.76179000000265,"value":1},{"number":10,"time":114.77171062500265,"value":0.5039370078740157},{"number":10,"time":114.99988500000265,"value":1},{"number":10,"time":115.00980562500266,"value":0.5039370078740157},{"number":10,"time":115.11893250000266,"value":1},{"number":10,"time":115.12885312500266,"value":0.5039370078740157},{"number":10,"time":115.23798000000266,"value":1},{"number":10,"time":115.24790062500267,"value":0.5039370078740157},{"number":10,"time":115.47607500000267,"value":1},{"number":10,"time":115.48599562500267,"value":0.5039370078740157},{"number":10,"time":115.59512250000267,"value":1},{"number":10,"time":115.60504312500268,"value":0.5039370078740157},{"number":10,"time":115.71417000000268,"value":1},{"number":10,"time":115.72409062500269,"value":0.5039370078740157},{"number":10,"time":115.95226500000268,"value":1},{"number":10,"time":115.96218562500269,"value":0.5039370078740157},{"number":10,"time":116.07131250000269,"value":1},{"number":10,"time":116.0812331250027,"value":0.5039370078740157},{"number":10,"time":116.1903600000027,"value":1},{"number":10,"time":116.1953203125027,"value":0.5039370078740157},{"number":10,"time":116.4284550000027,"value":1},{"number":10,"time":116.4334153125027,"value":0.5039370078740157},{"number":10,"time":116.54750250000271,"value":1},{"number":10,"time":116.55246281250271,"value":0.5039370078740157},{"number":10,"time":116.66655000000272,"value":1},{"number":10,"time":116.67151031250272,"value":0.5039370078740157},{"number":10,"time":116.90464500000272,"value":1},{"number":10,"time":116.90960531250272,"value":0.5039370078740157},{"number":10,"time":117.02369250000272,"value":1},{"number":10,"time":117.02865281250273,"value":0.5039370078740157},{"number":10,"time":117.14274000000273,"value":1},{"number":10,"time":117.14770031250274,"value":0.5039370078740157},{"number":10,"time":117.38083500000273,"value":1},{"number":10,"time":117.38579531250274,"value":0.5039370078740157},{"number":10,"time":117.49988250000274,"value":1},{"number":10,"time":117.50484281250274,"value":0.5039370078740157},{"number":10,"time":117.61893000000275,"value":1},{"number":10,"time":117.62389031250275,"value":0.5039370078740157},{"number":10,"time":117.85702500000275,"value":1},{"number":10,"time":117.86198531250275,"value":0.5039370078740157},{"number":10,"time":117.97607250000276,"value":1},{"number":10,"time":117.98103281250276,"value":0.5039370078740157}],"91":[{"number":91,"time":0,"value":0.16535433070866143}],"93":[{"number":93,"time":0,"value":0.14960629921259844}]},"id":9,"name":"Congas","instrumentNumber":0,"instrument":"standard kit","instrumentFamily":"drums","channelNumber":9,"isPercussion":true},{"startTime":0,"duration":234.2805196875016,"length":124,"notes":[{"name":"G4","midi":67,"time":0,"velocity":0.7874015748031497,"duration":3.8045596875000003},{"name":"G4","midi":67,"time":1.90476,"velocity":0.5039370078740157,"duration":1.8997996875000003},{"name":"F4","midi":65,"time":1.90476,"velocity":0.6692913385826772,"duration":3.8045596875000007},{"name":"E4","midi":64,"time":3.8095200000000005,"velocity":0.5511811023622047,"duration":3.8045596875},{"name":"D4","midi":62,"time":5.7142800000000005,"velocity":0.47244094488188976,"duration":3.8045596874999994},{"name":"C4","midi":60,"time":7.61904,"velocity":0.47244094488188976,"duration":3.8045596874999994},{"name":"E4","midi":64,"time":9.5238,"velocity":0.47244094488188976,"duration":3.8045596874999994},{"name":"F4","midi":65,"time":11.42856,"velocity":0.6299212598425197,"duration":3.8045596874999994},{"name":"G4","midi":67,"time":13.333319999999999,"velocity":0.7874015748031497,"duration":3.804559687500001},{"name":"F4","midi":65,"time":15.238079999999998,"velocity":0.6299212598425197,"duration":3.804559687500001},{"name":"E4","midi":64,"time":17.14284,"velocity":0.47244094488188976,"duration":3.8045596874999994},{"name":"F4","midi":65,"time":19.0476,"velocity":0.6299212598425197,"duration":3.8045596874999994},{"name":"G4","midi":67,"time":20.95236,"velocity":0.7874015748031497,"duration":3.8045596874999994},{"name":"F4","midi":65,"time":22.85712,"velocity":0.6692913385826772,"duration":3.8045596874999994},{"name":"E4","midi":64,"time":24.761879999999998,"velocity":0.5511811023622047,"duration":3.8045596874999994},{"name":"D4","midi":62,"time":26.666639999999997,"velocity":0.47244094488188976,"duration":3.8045596874999994},{"name":"C4","midi":60,"time":28.571399999999997,"velocity":0.47244094488188976,"duration":3.804559687500003},{"name":"E4","midi":64,"time":30.476159999999997,"velocity":0.47244094488188976,"duration":3.8045596875000065},{"name":"F4","midi":65,"time":32.38092,"velocity":0.6299212598425197,"duration":3.804559687500003},{"name":"G4","midi":67,"time":34.285680000000006,"velocity":0.7874015748031497,"duration":3.804559687500003},{"name":"F4","midi":65,"time":36.19044000000001,"velocity":0.6299212598425197,"duration":3.804559687500003},{"name":"E4","midi":64,"time":38.09520000000001,"velocity":0.47244094488188976,"duration":3.804559687500003},{"name":"F4","midi":65,"time":39.999960000000016,"velocity":0.6299212598425197,"duration":3.804559687500003},{"name":"G4","midi":67,"time":41.90472000000002,"velocity":0.7874015748031497,"duration":3.804559687500003},{"name":"F4","midi":65,"time":43.80948000000002,"velocity":0.6692913385826772,"duration":3.804559687500003},{"name":"E4","midi":64,"time":45.714240000000025,"velocity":0.5511811023622047,"duration":3.804559687500003},{"name":"D4","midi":62,"time":47.61900000000003,"velocity":0.47244094488188976,"duration":3.804559687500003},{"name":"C4","midi":60,"time":49.52376000000003,"velocity":0.47244094488188976,"duration":3.804559687500003},{"name":"E4","midi":64,"time":51.428520000000034,"velocity":0.47244094488188976,"duration":3.804559687500003},{"name":"F4","midi":65,"time":53.33328000000004,"velocity":0.6299212598425197,"duration":3.804559687500003},{"name":"G4","midi":67,"time":55.23804000000004,"velocity":0.7874015748031497,"duration":3.804559687500003},{"name":"F4","midi":65,"time":57.142800000000044,"velocity":0.6299212598425197,"duration":3.804559687500003},{"name":"E4","midi":64,"time":59.04756000000005,"velocity":0.47244094488188976,"duration":3.804559687500003},{"name":"F4","midi":65,"time":60.95232000000005,"velocity":0.6299212598425197,"duration":3.80455968750001},{"name":"G4","midi":67,"time":62.85708000000005,"velocity":0.7874015748031497,"duration":3.804559687500017},{"name":"F4","midi":65,"time":64.76184000000006,"velocity":0.6692913385826772,"duration":3.804559687500017},{"name":"E4","midi":64,"time":66.66660000000007,"velocity":0.5511811023622047,"duration":3.804559687500017},{"name":"D4","midi":62,"time":68.57136000000008,"velocity":0.47244094488188976,"duration":3.804559687500017},{"name":"C4","midi":60,"time":70.4761200000001,"velocity":0.47244094488188976,"duration":3.804559687500017},{"name":"E4","midi":64,"time":72.3808800000001,"velocity":0.47244094488188976,"duration":3.804559687500017},{"name":"F4","midi":65,"time":74.28564000000011,"velocity":0.6299212598425197,"duration":3.804559687500017},{"name":"G4","midi":67,"time":76.19040000000012,"velocity":0.7874015748031497,"duration":3.804559687500017},{"name":"F4","midi":65,"time":78.09516000000013,"velocity":0.6299212598425197,"duration":3.804559687500017},{"name":"E4","midi":64,"time":79.99992000000015,"velocity":0.47244094488188976,"duration":3.804559687500017},{"name":"F4","midi":65,"time":81.90468000000016,"velocity":0.6299212598425197,"duration":3.804559687500017},{"name":"G4","midi":67,"time":83.80944000000017,"velocity":0.7874015748031497,"duration":3.804559687500017},{"name":"F4","midi":65,"time":85.71420000000018,"velocity":0.6692913385826772,"duration":3.804559687500017},{"name":"E4","midi":64,"time":87.61896000000019,"velocity":0.5511811023622047,"duration":3.804559687500017},{"name":"D4","midi":62,"time":89.5237200000002,"velocity":0.47244094488188976,"duration":3.804559687500017},{"name":"C4","midi":60,"time":91.4284800000002,"velocity":0.47244094488188976,"duration":3.804559687500017},{"name":"E4","midi":64,"time":93.33324000000022,"velocity":0.47244094488188976,"duration":3.804559687500017},{"name":"F4","midi":65,"time":95.23800000000023,"velocity":0.6299212598425197,"duration":3.804559687500017},{"name":"G4","midi":67,"time":97.14276000000024,"velocity":0.7874015748031497,"duration":3.804559687500017},{"name":"F4","midi":65,"time":99.04752000000025,"velocity":0.6299212598425197,"duration":3.804559687500017},{"name":"E4","midi":64,"time":100.95228000000026,"velocity":0.47244094488188976,"duration":3.804559687500017},{"name":"F4","midi":65,"time":102.85704000000027,"velocity":0.6299212598425197,"duration":3.804559687500017},{"name":"G4","midi":67,"time":104.76180000000028,"velocity":0.7874015748031497,"duration":3.804559687500017},{"name":"F4","midi":65,"time":106.66656000000029,"velocity":0.6692913385826772,"duration":3.804559687500017},{"name":"E4","midi":64,"time":108.5713200000003,"velocity":0.5511811023622047,"duration":3.804559687500017},{"name":"D4","midi":62,"time":110.47608000000031,"velocity":0.47244094488188976,"duration":3.804559687500017},{"name":"C4","midi":60,"time":112.38084000000032,"velocity":0.47244094488188976,"duration":3.804559687500017},{"name":"E4","midi":64,"time":114.28560000000033,"velocity":0.47244094488188976,"duration":1.9047600000000102},{"name":"F4","midi":65,"time":116.19036000000034,"velocity":0.6299212598425197,"duration":3.804559687500003},{"name":"G4","midi":67,"time":118.09512000000034,"velocity":0.7874015748031497,"duration":3.804559687500017},{"name":"G4","midi":67,"time":119.99988000000035,"velocity":0.5039370078740157,"duration":1.899799687500007},{"name":"F4","midi":65,"time":119.99988000000035,"velocity":0.6299212598425197,"duration":3.804559687500017},{"name":"E4","midi":64,"time":121.90464000000036,"velocity":0.47244094488188976,"duration":3.804559687500017},{"name":"F4","midi":65,"time":123.80940000000037,"velocity":0.6299212598425197,"duration":3.804559687500017},{"name":"G4","midi":67,"time":125.71416000000038,"velocity":0.7874015748031497,"duration":3.804559687500003},{"name":"F4","midi":65,"time":127.61892000000039,"velocity":0.6692913385826772,"duration":3.804559687500003},{"name":"E4","midi":64,"time":129.52368000000038,"velocity":0.5511811023622047,"duration":3.804559687500017},{"name":"D4","midi":62,"time":131.4284400000004,"velocity":0.47244094488188976,"duration":3.804559687500017},{"name":"C4","midi":60,"time":133.3332000000004,"velocity":0.47244094488188976,"duration":3.804559687500017},{"name":"E4","midi":64,"time":135.2379600000004,"velocity":0.47244094488188976,"duration":3.804559687500017},{"name":"F4","midi":65,"time":137.14272000000042,"velocity":0.6299212598425197,"duration":3.804559687500017},{"name":"G4","midi":67,"time":139.04748000000043,"velocity":0.7874015748031497,"duration":3.804559687500017},{"name":"F4","midi":65,"time":140.95224000000044,"velocity":0.6299212598425197,"duration":3.804559687500017},{"name":"E4","midi":64,"time":142.85700000000045,"velocity":0.47244094488188976,"duration":3.804559687500017},{"name":"F4","midi":65,"time":144.76176000000046,"velocity":0.6299212598425197,"duration":3.804559687500017},{"name":"G4","midi":67,"time":146.66652000000047,"velocity":0.7874015748031497,"duration":3.804559687500017},{"name":"F4","midi":65,"time":148.57128000000048,"velocity":0.6692913385826772,"duration":3.804559687500017},{"name":"E4","midi":64,"time":150.4760400000005,"velocity":0.5511811023622047,"duration":3.804559687500017},{"name":"D4","midi":62,"time":152.3808000000005,"velocity":0.47244094488188976,"duration":3.804559687500017},{"name":"C4","midi":60,"time":154.28556000000052,"velocity":0.47244094488188976,"duration":3.804559687500017},{"name":"E4","midi":64,"time":156.19032000000053,"velocity":0.47244094488188976,"duration":3.804559687500017},{"name":"F4","midi":65,"time":158.09508000000054,"velocity":0.6299212598425197,"duration":3.804559687500017},{"name":"G4","midi":67,"time":159.99984000000055,"velocity":0.7874015748031497,"duration":3.804559687500017},{"name":"F4","midi":65,"time":161.90460000000056,"velocity":0.6299212598425197,"duration":3.804559687500017},{"name":"E4","midi":64,"time":163.80936000000057,"velocity":0.47244094488188976,"duration":3.804559687500017},{"name":"F4","midi":65,"time":165.71412000000058,"velocity":0.6299212598425197,"duration":3.804559687500017},{"name":"G4","midi":67,"time":167.6188800000006,"velocity":0.7874015748031497,"duration":3.804559687500017},{"name":"F4","midi":65,"time":169.5236400000006,"velocity":0.6692913385826772,"duration":3.804559687500017},{"name":"E4","midi":64,"time":171.4284000000006,"velocity":0.5511811023622047,"duration":3.804559687500017},{"name":"D4","midi":62,"time":173.33316000000062,"velocity":0.47244094488188976,"duration":3.804559687500017},{"name":"C4","midi":60,"time":175.23792000000063,"velocity":0.47244094488188976,"duration":3.804559687500017},{"name":"E4","midi":64,"time":177.14268000000064,"velocity":0.47244094488188976,"duration":3.804559687500017},{"name":"F4","midi":65,"time":179.04744000000065,"velocity":0.6299212598425197,"duration":3.804559687500017},{"name":"G4","midi":67,"time":180.95220000000066,"velocity":0.7874015748031497,"duration":3.804559687500017},{"name":"F4","midi":65,"time":182.85696000000067,"velocity":0.6299212598425197,"duration":3.804559687500017},{"name":"E4","midi":64,"time":184.76172000000068,"velocity":0.47244094488188976,"duration":3.804559687500017},{"name":"F4","midi":65,"time":186.6664800000007,"velocity":0.6299212598425197,"duration":3.804559687500017},{"name":"G4","midi":67,"time":188.5712400000007,"velocity":0.7874015748031497,"duration":3.804559687500017},{"name":"F4","midi":65,"time":190.4760000000007,"velocity":0.6692913385826772,"duration":3.804559687500017},{"name":"E4","midi":64,"time":192.38076000000072,"velocity":0.5511811023622047,"duration":3.804559687500017},{"name":"D4","midi":62,"time":194.28552000000073,"velocity":0.47244094488188976,"duration":3.804559687500017},{"name":"C4","midi":60,"time":196.19028000000074,"velocity":0.47244094488188976,"duration":3.804559687500017},{"name":"E4","midi":64,"time":198.09504000000075,"velocity":0.47244094488188976,"duration":3.804559687500017},{"name":"F4","midi":65,"time":199.99980000000076,"velocity":0.6299212598425197,"duration":3.804559687500017},{"name":"G4","midi":67,"time":201.90456000000077,"velocity":0.7874015748031497,"duration":3.804559687500017},{"name":"F4","midi":65,"time":203.80932000000078,"velocity":0.6299212598425197,"duration":3.804559687500017},{"name":"E4","midi":64,"time":205.7140800000008,"velocity":0.47244094488188976,"duration":3.804559687500017},{"name":"F4","midi":65,"time":207.6188400000008,"velocity":0.6299212598425197,"duration":3.804559687500017},{"name":"G4","midi":67,"time":209.5236000000008,"velocity":0.7874015748031497,"duration":3.804559687500017},{"name":"F4","midi":65,"time":211.42836000000082,"velocity":0.6692913385826772,"duration":3.804559687500017},{"name":"E4","midi":64,"time":213.33312000000083,"velocity":0.5511811023622047,"duration":3.804559687500017},{"name":"D4","midi":62,"time":215.23788000000084,"velocity":0.47244094488188976,"duration":3.804559687500017},{"name":"C4","midi":60,"time":217.14264000000085,"velocity":0.47244094488188976,"duration":3.804559687500017},{"name":"E4","midi":64,"time":219.04740000000086,"velocity":0.47244094488188976,"duration":3.804559687500017},{"name":"F4","midi":65,"time":220.95216000000087,"velocity":0.6299212598425197,"duration":3.804559687500017},{"name":"G4","midi":67,"time":222.85692000000088,"velocity":0.7874015748031497,"duration":3.804559687500017},{"name":"F4","midi":65,"time":224.7616800000009,"velocity":0.6299212598425197,"duration":3.804559687500017},{"name":"E4","midi":64,"time":226.6664400000009,"velocity":0.47244094488188976,"duration":3.804559687500017},{"name":"F4","midi":65,"time":228.5712000000009,"velocity":0.6299212598425197,"duration":3.804559687500017},{"name":"G4","midi":67,"time":230.47596000000092,"velocity":0.7874015748031497,"duration":3.804559687500671}],"controlChanges":{"7":[{"number":7,"time":0,"value":0.7086614173228346},{"number":7,"time":232.38072000000093,"value":0.7007874015748031},{"number":7,"time":232.40056125000095,"value":0.6929133858267716},{"number":7,"time":232.42040250000096,"value":0.6850393700787402},{"number":7,"time":232.44024375000097,"value":0.6771653543307087},{"number":7,"time":232.46504531250096,"value":0.6692913385826772},{"number":7,"time":232.48488656250098,"value":0.6614173228346457},{"number":7,"time":232.504727812501,"value":0.6535433070866141},{"number":7,"time":232.52952937500098,"value":0.6456692913385826},{"number":7,"time":232.549370625001,"value":0.6377952755905512},{"number":7,"time":232.569211875001,"value":0.6299212598425197},{"number":7,"time":232.598973750001,"value":0.6220472440944882},{"number":7,"time":232.618815000001,"value":0.6141732283464567},{"number":7,"time":232.63865625000102,"value":0.6062992125984252},{"number":7,"time":232.65849750000103,"value":0.5984251968503937},{"number":7,"time":232.67833875000105,"value":0.5905511811023622},{"number":7,"time":232.69818000000106,"value":0.5826771653543307},{"number":7,"time":232.72298156250105,"value":0.5748031496062992},{"number":7,"time":232.74282281250106,"value":0.5669291338582677},{"number":7,"time":232.76266406250107,"value":0.5590551181102362},{"number":7,"time":232.7825053125011,"value":0.5511811023622047},{"number":7,"time":232.80730687500107,"value":0.5433070866141733},{"number":7,"time":232.8271481250011,"value":0.5354330708661418},{"number":7,"time":232.8469893750011,"value":0.5275590551181102},{"number":7,"time":232.8767512500011,"value":0.5196850393700787},{"number":7,"time":232.8965925000011,"value":0.5118110236220472},{"number":7,"time":232.91643375000112,"value":0.5039370078740157},{"number":7,"time":232.93627500000113,"value":0.49606299212598426},{"number":7,"time":232.95611625000114,"value":0.4881889763779528},{"number":7,"time":232.97595750000116,"value":0.48031496062992124},{"number":7,"time":233.00075906250115,"value":0.47244094488188976},{"number":7,"time":233.02060031250116,"value":0.4645669291338583},{"number":7,"time":233.04044156250117,"value":0.4566929133858268},{"number":7,"time":233.06524312500116,"value":0.44881889763779526},{"number":7,"time":233.08508437500117,"value":0.4409448818897638},{"number":7,"time":233.1049256250012,"value":0.4330708661417323},{"number":7,"time":233.13468750000118,"value":0.4251968503937008},{"number":7,"time":233.1545287500012,"value":0.41732283464566927},{"number":7,"time":233.1743700000012,"value":0.4094488188976378},{"number":7,"time":233.19421125000122,"value":0.4015748031496063},{"number":7,"time":233.21405250000123,"value":0.3937007874015748},{"number":7,"time":233.23389375000124,"value":0.3858267716535433},{"number":7,"time":233.25373500000126,"value":0.3779527559055118},{"number":7,"time":233.27853656250124,"value":0.3700787401574803},{"number":7,"time":233.29837781250126,"value":0.36220472440944884},{"number":7,"time":233.31821906250127,"value":0.3543307086614173},{"number":7,"time":233.34302062500126,"value":0.3464566929133858},{"number":7,"time":233.36286187500127,"value":0.33858267716535434},{"number":7,"time":233.38270312500129,"value":0.33070866141732286},{"number":7,"time":233.41246500000128,"value":0.3228346456692913},{"number":7,"time":233.4323062500013,"value":0.31496062992125984},{"number":7,"time":233.4521475000013,"value":0.30708661417322836},{"number":7,"time":233.47198875000132,"value":0.2992125984251969},{"number":7,"time":233.49183000000133,"value":0.29133858267716534},{"number":7,"time":233.51167125000134,"value":0.28346456692913385},{"number":7,"time":233.53151250000136,"value":0.2755905511811024},{"number":7,"time":233.55631406250134,"value":0.2677165354330709},{"number":7,"time":233.57615531250136,"value":0.25984251968503935},{"number":7,"time":233.59599656250137,"value":0.25196850393700787},{"number":7,"time":233.62079812500136,"value":0.2440944881889764},{"number":7,"time":233.64063937500137,"value":0.23622047244094488},{"number":7,"time":233.66048062500138,"value":0.2283464566929134},{"number":7,"time":233.69024250000137,"value":0.2204724409448819},{"number":7,"time":233.7100837500014,"value":0.2125984251968504},{"number":7,"time":233.7299250000014,"value":0.2047244094488189},{"number":7,"time":233.74976625000141,"value":0.1968503937007874},{"number":7,"time":233.76960750000143,"value":0.1889763779527559},{"number":7,"time":233.78944875000144,"value":0.18110236220472442},{"number":7,"time":233.81425031250143,"value":0.1732283464566929},{"number":7,"time":233.83409156250144,"value":0.16535433070866143},{"number":7,"time":233.85393281250145,"value":0.15748031496062992},{"number":7,"time":233.87873437500144,"value":0.14960629921259844},{"number":7,"time":233.89857562500146,"value":0.14173228346456693},{"number":7,"time":233.91841687500147,"value":0.13385826771653545},{"number":7,"time":233.93825812500148,"value":0.12598425196850394},{"number":7,"time":233.96802000000147,"value":0.11811023622047244},{"number":7,"time":233.9878612500015,"value":0.11023622047244094},{"number":7,"time":234.0077025000015,"value":0.10236220472440945},{"number":7,"time":234.0275437500015,"value":0.09448818897637795},{"number":7,"time":234.04738500000153,"value":0.08661417322834646},{"number":7,"time":234.06722625000154,"value":0.07874015748031496},{"number":7,"time":234.09202781250153,"value":0.07086614173228346},{"number":7,"time":234.11186906250154,"value":0.06299212598425197},{"number":7,"time":234.13171031250155,"value":0.05511811023622047},{"number":7,"time":234.15651187500154,"value":0.047244094488188976},{"number":7,"time":234.17635312500155,"value":0.03937007874015748},{"number":7,"time":234.19619437500157,"value":0.031496062992125984},{"number":7,"time":234.22595625000156,"value":0.023622047244094488},{"number":7,"time":234.24579750000157,"value":0.015748031496062992},{"number":7,"time":234.26563875000159,"value":0.007874015748031496},{"number":7,"time":234.2854800000016,"value":0}],"10":[{"number":10,"time":0,"value":0.5039370078740157}],"91":[{"number":91,"time":0,"value":1}],"93":[{"number":93,"time":0,"value":1}]},"id":10,"name":"Seashore","instrumentNumber":122,"instrument":"seashore","instrumentFamily":"sound effects","channelNumber":8,"isPercussion":false},{"startTime":0,"duration":0,"length":0,"notes":[],"controlChanges":{"7":[{"number":7,"time":0,"value":0.8267716535433071},{"number":7,"time":0,"value":0.7874015748031497}],"10":[{"number":10,"time":0,"value":0.5039370078740157}],"91":[{"number":91,"time":0,"value":0.16535433070866143}],"93":[{"number":93,"time":0,"value":0.14960629921259844}]},"id":11,"name":"Banjo-Kazooie - Treasure Trove Cove v3.0 by Peach (toadstool@csnsys.com)","instrumentNumber":0,"instrument":"standard kit","instrumentFamily":"drums","channelNumber":9,"isPercussion":true}]}